M48
; DRILL file {KiCad 8.0.6} date 2025-02-07T02:34:46-0500
; FORMAT={-:-/ absolute / metric / decimal}
; #@! TF.CreationDate,2025-02-07T02:34:46-05:00
; #@! TF.GenerationSoftware,Kicad,Pcbnew,8.0.6
; #@! TF.FileFunction,Plated,1,4,PTH
FMAT,2
METRIC
; #@! TA.AperFunction,Plated,PTH,ViaDrill
T1C0.200
; #@! TA.AperFunction,Plated,PTH,ViaDrill
T2C0.300
; #@! TA.AperFunction,Plated,PTH,ViaDrill
T3C0.400
; #@! TA.AperFunction,Plated,PTH,ViaDrill
T4C0.500
; #@! TA.AperFunction,Plated,PTH,ComponentDrill
T5C0.780
; #@! TA.AperFunction,Plated,PTH,ViaDrill
T6C1.000
; #@! TA.AperFunction,Plated,PTH,ComponentDrill
T7C1.000
; #@! TA.AperFunction,Plated,PTH,ComponentDrill
T8C1.200
; #@! TA.AperFunction,Plated,PTH,ComponentDrill
T9C1.400
%
G90
G05
T1
X59.49Y-90.8
X60.2Y-102.37
X61.32Y-86.63
X62.64Y-91.65
X62.72Y-89.62
X62.72Y-92.65
X64.56Y-104.99
X65.08Y-90.14
X65.32Y-100.02
X67.94Y-89.17
X69.07Y-74.5
X69.525Y-73.738
X71.875Y-87.387
X73.01Y-103.14
X73.08Y-104.08
X73.61Y-103.54
X73.62Y-97.24
X74.13Y-96.42
X74.93Y-96.72
X76.73Y-88.48
X78.48Y-88.44
X79.68Y-90.02
X79.69Y-90.52
X79.69Y-92.03
X79.69Y-92.53
X80.23Y-90.82
X84.62Y-97.3
X94.24Y-104.8
X94.24Y-105.74
X105.62Y-110.4
X105.67Y-108.75
X105.7Y-113.13
X106.39Y-113.59
X107.54Y-110.42
X107.57Y-110.0
X107.99Y-110.42
X108.04Y-109.99
X108.94Y-109.99
X109.0Y-110.42
X109.41Y-109.98
X109.47Y-110.4
X109.54Y-111.09
X111.1Y-110.66
X111.1Y-112.17
X111.13Y-111.27
X120.81Y-85.34
X130.92Y-91.47
X151.02Y-95.07
X154.48Y-94.77
X178.51Y-93.59
X178.74Y-91.48
X179.98Y-90.44
T2
X80.39Y-103.27
X88.83Y-106.56
X94.79Y-116.11
X101.05Y-113.52
X103.55Y-113.53
X104.63Y-119.33
X104.65Y-116.22
X105.16Y-117.43
X105.57Y-116.14
X107.72Y-114.47
X112.75Y-115.6
X113.56Y-112.83
T3
X72.34Y-116.92
T4
X64.89Y-77.42
X65.22Y-79.53
X66.68Y-81.93
X67.69Y-70.72
X68.3Y-73.56
X68.92Y-82.03
X71.67Y-80.37
X72.2Y-82.392
X72.7Y-73.03
X75.88Y-81.52
X78.34Y-69.28
X78.76Y-81.34
X79.37Y-69.93
X81.05Y-69.28
X83.43Y-82.02
X84.57Y-70.12
X85.66Y-69.7
X87.3Y-74.91
X89.07Y-77.99
X92.89Y-70.75
X93.0Y-79.46
X97.42Y-88.63
X100.94Y-88.04
X101.77Y-91.66
X102.68Y-88.01
X106.1Y-88.59
X112.23Y-76.0
X114.93Y-76.29
X125.27Y-73.28
X130.45Y-73.24
X133.33Y-127.68
X136.83Y-82.63
X138.6Y-83.26
X140.36Y-81.37
X140.47Y-122.75
X144.85Y-127.66
X148.19Y-74.44
X149.22Y-85.62
X151.92Y-122.76
X152.65Y-89.34
X156.44Y-127.547
X156.84Y-95.87
X158.81Y-81.01
X160.54Y-84.94
X161.25Y-79.51
X163.27Y-122.64
X163.53Y-84.94
X163.62Y-79.98
X164.52Y-92.38
X164.79Y-88.11
X165.24Y-83.43
X168.24Y-114.54
X168.3Y-119.26
X170.73Y-119.21
X171.46Y-71.78
X173.19Y-119.15
X177.08Y-110.11
X178.87Y-104.92
X179.54Y-124.98
X179.74Y-93.26
X179.979Y-105.211
X181.82Y-96.51
X182.73Y-124.37
X183.3Y-90.58
X183.98Y-124.38
X184.1Y-85.33
X184.57Y-90.67
X185.44Y-86.3
X185.79Y-124.36
X185.93Y-119.16
X188.29Y-90.92
X188.97Y-103.92
X189.67Y-90.79
X193.3Y-87.39
X195.87Y-90.81
T5
X168.21Y-112.95
X168.21Y-120.89
X170.75Y-112.95
X170.75Y-120.89
X173.29Y-112.95
X173.29Y-120.89
X175.83Y-112.95
X175.83Y-120.89
X178.37Y-112.95
X178.37Y-120.89
X180.91Y-112.95
X180.91Y-120.89
X183.45Y-112.95
X183.45Y-120.89
X185.99Y-112.95
X185.99Y-120.89
T6
X100.59Y-82.14
X103.07Y-82.04
T7
X125.295Y-71.5
X127.835Y-71.5
X130.375Y-71.5
X166.37Y-74.34
X167.99Y-126.91
X168.91Y-74.34
X170.53Y-126.91
X171.45Y-74.34
X173.07Y-126.91
X173.99Y-74.34
X175.61Y-126.91
X176.53Y-74.34
X178.15Y-126.91
X179.07Y-74.34
X180.69Y-126.91
X181.61Y-74.34
X183.23Y-126.91
X184.15Y-74.34
X185.77Y-126.91
X382.202Y-93.395
X382.202Y-95.935
T8
X120.18Y-126.48
X125.18Y-126.48
T9
X62.477Y-112.0
X62.477Y-117.0
X98.61Y-125.41
X103.61Y-125.41
M30
