%TF.GenerationSoftware,KiCad,Pcbnew,8.0.6*%
%TF.CreationDate,2025-02-07T02:37:33-05:00*%
%TF.ProjectId,SCAN,5343414e-2e6b-4696-9361-645f70636258,v1.0*%
%TF.SameCoordinates,Original*%
%TF.FileFunction,Paste,Bot*%
%TF.FilePolarity,Positive*%
%FSLAX46Y46*%
G04 Gerber Fmt 4.6, Leading zero omitted, Abs format (unit mm)*
G04 Created by KiCad (PCBNEW 8.0.6) date 2025-02-07 02:37:33*
%MOMM*%
%LPD*%
G01*
G04 APERTURE LIST*
G04 Aperture macros list*
%AMRoundRect*
0 Rectangle with rounded corners*
0 $1 Rounding radius*
0 $2 $3 $4 $5 $6 $7 $8 $9 X,Y pos of 4 corners*
0 Add a 4 corners polygon primitive as box body*
4,1,4,$2,$3,$4,$5,$6,$7,$8,$9,$2,$3,0*
0 Add four circle primitives for the rounded corners*
1,1,$1+$1,$2,$3*
1,1,$1+$1,$4,$5*
1,1,$1+$1,$6,$7*
1,1,$1+$1,$8,$9*
0 Add four rect primitives between the rounded corners*
20,1,$1+$1,$2,$3,$4,$5,0*
20,1,$1+$1,$4,$5,$6,$7,0*
20,1,$1+$1,$6,$7,$8,$9,0*
20,1,$1+$1,$8,$9,$2,$3,0*%
G04 Aperture macros list end*
%ADD10C,0.000000*%
%ADD11R,0.228600X0.304800*%
%ADD12RoundRect,0.135000X-0.185000X0.135000X-0.185000X-0.135000X0.185000X-0.135000X0.185000X0.135000X0*%
%ADD13R,0.800100X0.508000*%
%ADD14RoundRect,0.200000X0.200000X0.275000X-0.200000X0.275000X-0.200000X-0.275000X0.200000X-0.275000X0*%
%ADD15RoundRect,0.200000X-0.200000X-0.275000X0.200000X-0.275000X0.200000X0.275000X-0.200000X0.275000X0*%
%ADD16RoundRect,0.135000X0.185000X-0.135000X0.185000X0.135000X-0.185000X0.135000X-0.185000X-0.135000X0*%
%ADD17RoundRect,0.250000X0.475000X-0.250000X0.475000X0.250000X-0.475000X0.250000X-0.475000X-0.250000X0*%
%ADD18RoundRect,0.140000X-0.170000X0.140000X-0.170000X-0.140000X0.170000X-0.140000X0.170000X0.140000X0*%
%ADD19RoundRect,0.225000X0.225000X0.250000X-0.225000X0.250000X-0.225000X-0.250000X0.225000X-0.250000X0*%
%ADD20RoundRect,0.250000X-0.475000X0.250000X-0.475000X-0.250000X0.475000X-0.250000X0.475000X0.250000X0*%
%ADD21RoundRect,0.250000X1.025000X-0.787500X1.025000X0.787500X-1.025000X0.787500X-1.025000X-0.787500X0*%
%ADD22RoundRect,0.140000X0.170000X-0.140000X0.170000X0.140000X-0.170000X0.140000X-0.170000X-0.140000X0*%
%ADD23RoundRect,0.243750X0.243750X0.456250X-0.243750X0.456250X-0.243750X-0.456250X0.243750X-0.456250X0*%
%ADD24RoundRect,0.200000X-0.275000X0.200000X-0.275000X-0.200000X0.275000X-0.200000X0.275000X0.200000X0*%
%ADD25RoundRect,0.250000X-0.787500X-1.025000X0.787500X-1.025000X0.787500X1.025000X-0.787500X1.025000X0*%
%ADD26RoundRect,0.135000X-0.135000X-0.185000X0.135000X-0.185000X0.135000X0.185000X-0.135000X0.185000X0*%
%ADD27RoundRect,0.250000X-0.450000X0.262500X-0.450000X-0.262500X0.450000X-0.262500X0.450000X0.262500X0*%
%ADD28R,0.820000X0.760000*%
G04 APERTURE END LIST*
D10*
%TO.C,U7*%
G36*
X65769431Y-90255970D02*
G01*
X65778885Y-90258838D01*
X65787600Y-90263496D01*
X65795238Y-90269762D01*
X65801504Y-90277400D01*
X65806162Y-90286115D01*
X65809030Y-90295569D01*
X65810000Y-90305401D01*
X65810000Y-90414601D01*
X65809030Y-90424433D01*
X65806162Y-90433887D01*
X65801504Y-90442602D01*
X65795238Y-90450240D01*
X65787600Y-90456506D01*
X65778885Y-90461164D01*
X65769431Y-90464032D01*
X65759599Y-90465002D01*
X65650399Y-90465002D01*
X65640567Y-90464032D01*
X65631113Y-90461164D01*
X65622398Y-90456506D01*
X65614760Y-90450240D01*
X65608494Y-90442602D01*
X65603836Y-90433887D01*
X65600968Y-90424433D01*
X65600000Y-90414601D01*
X65600000Y-90305401D01*
X65600968Y-90295569D01*
X65603836Y-90286115D01*
X65608494Y-90277400D01*
X65614760Y-90269762D01*
X65622398Y-90263496D01*
X65631113Y-90258838D01*
X65640567Y-90255970D01*
X65650399Y-90255002D01*
X65759599Y-90255002D01*
X65769431Y-90255970D01*
G37*
G36*
X65769431Y-91255968D02*
G01*
X65778885Y-91258836D01*
X65787600Y-91263494D01*
X65795238Y-91269760D01*
X65801504Y-91277398D01*
X65806162Y-91286113D01*
X65809030Y-91295567D01*
X65810000Y-91305399D01*
X65810000Y-91414599D01*
X65809030Y-91424431D01*
X65806162Y-91433885D01*
X65801504Y-91442600D01*
X65795238Y-91450238D01*
X65787600Y-91456504D01*
X65778885Y-91461162D01*
X65769431Y-91464030D01*
X65759599Y-91464998D01*
X65650399Y-91464998D01*
X65640567Y-91464030D01*
X65631113Y-91461162D01*
X65622398Y-91456504D01*
X65614760Y-91450238D01*
X65608494Y-91442600D01*
X65603836Y-91433885D01*
X65600968Y-91424431D01*
X65600000Y-91414599D01*
X65600000Y-91305399D01*
X65600968Y-91295567D01*
X65603836Y-91286113D01*
X65608494Y-91277398D01*
X65614760Y-91269760D01*
X65622398Y-91263494D01*
X65631113Y-91258836D01*
X65640567Y-91255968D01*
X65650399Y-91254998D01*
X65759599Y-91254998D01*
X65769431Y-91255968D01*
G37*
G36*
X66019433Y-90755969D02*
G01*
X66028887Y-90758837D01*
X66037602Y-90763495D01*
X66045240Y-90769761D01*
X66051506Y-90777399D01*
X66056164Y-90786114D01*
X66059032Y-90795568D01*
X66060000Y-90805400D01*
X66060000Y-90914600D01*
X66059032Y-90924432D01*
X66056164Y-90933886D01*
X66051506Y-90942601D01*
X66045240Y-90950239D01*
X66037602Y-90956505D01*
X66028887Y-90961163D01*
X66019433Y-90964031D01*
X66009601Y-90964999D01*
X65900401Y-90964999D01*
X65890569Y-90964031D01*
X65881115Y-90961163D01*
X65872400Y-90956505D01*
X65864762Y-90950239D01*
X65858496Y-90942601D01*
X65853838Y-90933886D01*
X65850970Y-90924432D01*
X65850000Y-90914600D01*
X65850000Y-90805400D01*
X65850970Y-90795568D01*
X65853838Y-90786114D01*
X65858496Y-90777399D01*
X65864762Y-90769761D01*
X65872400Y-90763495D01*
X65881115Y-90758837D01*
X65890569Y-90755969D01*
X65900401Y-90755001D01*
X66009601Y-90755001D01*
X66019433Y-90755969D01*
G37*
%TD*%
D11*
%TO.C,D1*%
X59475600Y-91260000D03*
X59120000Y-91260000D03*
%TD*%
D12*
%TO.C,R55*%
X78250000Y-86390000D03*
X78250000Y-87410000D03*
%TD*%
D13*
%TO.C,Q9*%
X77251900Y-98059998D03*
X77251900Y-99009999D03*
X77251900Y-99960000D03*
X74750000Y-99960000D03*
X74750000Y-99009999D03*
X74750000Y-98059998D03*
%TD*%
D14*
%TO.C,R44*%
X71875000Y-97563333D03*
X70225000Y-97563333D03*
%TD*%
D15*
%TO.C,R22*%
X106635000Y-118730000D03*
X108285000Y-118730000D03*
%TD*%
D11*
%TO.C,D2*%
X61650000Y-87880000D03*
X61294400Y-87880000D03*
%TD*%
D12*
%TO.C,R54*%
X76780000Y-86350000D03*
X76780000Y-87370000D03*
%TD*%
D15*
%TO.C,R45*%
X70215000Y-92426666D03*
X71865000Y-92426666D03*
%TD*%
%TO.C,R41*%
X70225000Y-99256666D03*
X71875000Y-99256666D03*
%TD*%
D16*
%TO.C,R53*%
X80450000Y-96880000D03*
X80450000Y-95860000D03*
%TD*%
D17*
%TO.C,C34*%
X102770000Y-106780000D03*
X102770000Y-104880000D03*
%TD*%
%TO.C,C32*%
X112690001Y-107299999D03*
X112690001Y-105399999D03*
%TD*%
D14*
%TO.C,R46*%
X71865000Y-94150000D03*
X70215000Y-94150000D03*
%TD*%
D16*
%TO.C,R32*%
X372772500Y-35785000D03*
X372772500Y-34765000D03*
%TD*%
%TO.C,R18*%
X91700000Y-105800000D03*
X91700000Y-104780000D03*
%TD*%
%TO.C,R19*%
X91587500Y-118189999D03*
X91587500Y-117169999D03*
%TD*%
D14*
%TO.C,R48*%
X71865000Y-90703333D03*
X70215000Y-90703333D03*
%TD*%
D18*
%TO.C,C12*%
X105890000Y-114340000D03*
X105890000Y-115300000D03*
%TD*%
D19*
%TO.C,C47*%
X61570000Y-92610000D03*
X60020000Y-92610000D03*
%TD*%
D20*
%TO.C,C5*%
X80240000Y-104290000D03*
X80240000Y-106190000D03*
%TD*%
D17*
%TO.C,C36*%
X100540000Y-106780000D03*
X100540000Y-104880000D03*
%TD*%
D15*
%TO.C,R43*%
X70225000Y-95870000D03*
X71875000Y-95870000D03*
%TD*%
D21*
%TO.C,C39*%
X121090000Y-107299999D03*
X121090000Y-101074999D03*
%TD*%
D17*
%TO.C,C37*%
X117190001Y-107299999D03*
X117190001Y-105399999D03*
%TD*%
%TO.C,C35*%
X114940001Y-107299999D03*
X114940001Y-105399999D03*
%TD*%
D16*
%TO.C,R33*%
X131280000Y-124460000D03*
X131280000Y-123440000D03*
%TD*%
D12*
%TO.C,R40*%
X59870000Y-100750000D03*
X59870000Y-101770000D03*
%TD*%
D17*
%TO.C,C6*%
X70790000Y-116810000D03*
X70790000Y-114910000D03*
%TD*%
D14*
%TO.C,R23*%
X108285000Y-120320000D03*
X106635000Y-120320000D03*
%TD*%
D22*
%TO.C,C14*%
X92587500Y-118139999D03*
X92587500Y-117179999D03*
%TD*%
D15*
%TO.C,R47*%
X70215000Y-88980000D03*
X71865000Y-88980000D03*
%TD*%
D23*
%TO.C,D13*%
X103487500Y-109500000D03*
X101612500Y-109500000D03*
%TD*%
D18*
%TO.C,C15*%
X104880000Y-114350000D03*
X104880000Y-115310000D03*
%TD*%
D24*
%TO.C,R28*%
X113560000Y-113925000D03*
X113560000Y-115575000D03*
%TD*%
D22*
%TO.C,C20*%
X110370000Y-110860000D03*
X110370000Y-109900000D03*
%TD*%
D25*
%TO.C,C38*%
X96255001Y-101399999D03*
X102480001Y-101399999D03*
%TD*%
D15*
%TO.C,R26*%
X106640000Y-117140000D03*
X108290000Y-117140000D03*
%TD*%
D19*
%TO.C,C48*%
X61655000Y-89180000D03*
X60105000Y-89180000D03*
%TD*%
D14*
%TO.C,R42*%
X71875000Y-100950000D03*
X70225000Y-100950000D03*
%TD*%
D22*
%TO.C,C19*%
X106590000Y-110679999D03*
X106590000Y-109719999D03*
%TD*%
D15*
%TO.C,R25*%
X96345000Y-116110000D03*
X97995000Y-116110000D03*
%TD*%
D26*
%TO.C,R52*%
X77850000Y-96890000D03*
X78870000Y-96890000D03*
%TD*%
D22*
%TO.C,C13*%
X92700000Y-105750000D03*
X92700000Y-104790000D03*
%TD*%
D27*
%TO.C,R56*%
X74880000Y-101497500D03*
X74880000Y-103322500D03*
%TD*%
D28*
%TO.C,D15*%
X64530000Y-99670000D03*
X61330000Y-99670000D03*
%TD*%
D16*
%TO.C,R27*%
X101630000Y-112600000D03*
X101630000Y-111580000D03*
%TD*%
D24*
%TO.C,R24*%
X91410000Y-108305000D03*
X91410000Y-109955000D03*
%TD*%
M02*
