%TF.GenerationSoftware,KiCad,Pcbnew,8.0.6*%
%TF.CreationDate,2025-02-07T02:37:33-05:00*%
%TF.ProjectId,SCAN,5343414e-2e6b-4696-9361-645f70636258,v1.0*%
%TF.SameCoordinates,Original*%
%TF.FileFunction,Paste,Top*%
%TF.FilePolarity,Positive*%
%FSLAX46Y46*%
G04 Gerber Fmt 4.6, Leading zero omitted, Abs format (unit mm)*
G04 Created by KiCad (PCBNEW 8.0.6) date 2025-02-07 02:37:33*
%MOMM*%
%LPD*%
G01*
G04 APERTURE LIST*
G04 Aperture macros list*
%AMRoundRect*
0 Rectangle with rounded corners*
0 $1 Rounding radius*
0 $2 $3 $4 $5 $6 $7 $8 $9 X,Y pos of 4 corners*
0 Add a 4 corners polygon primitive as box body*
4,1,4,$2,$3,$4,$5,$6,$7,$8,$9,$2,$3,0*
0 Add four circle primitives for the rounded corners*
1,1,$1+$1,$2,$3*
1,1,$1+$1,$4,$5*
1,1,$1+$1,$6,$7*
1,1,$1+$1,$8,$9*
0 Add four rect primitives between the rounded corners*
20,1,$1+$1,$2,$3,$4,$5,0*
20,1,$1+$1,$4,$5,$6,$7,0*
20,1,$1+$1,$6,$7,$8,$9,0*
20,1,$1+$1,$8,$9,$2,$3,0*%
G04 Aperture macros list end*
%ADD10C,0.000000*%
%ADD11C,0.010000*%
%ADD12RoundRect,0.250000X-0.325000X-1.100000X0.325000X-1.100000X0.325000X1.100000X-0.325000X1.100000X0*%
%ADD13RoundRect,0.135000X0.185000X-0.135000X0.185000X0.135000X-0.185000X0.135000X-0.185000X-0.135000X0*%
%ADD14RoundRect,0.090000X-0.360000X0.660000X-0.360000X-0.660000X0.360000X-0.660000X0.360000X0.660000X0*%
%ADD15RoundRect,0.250000X0.262500X0.450000X-0.262500X0.450000X-0.262500X-0.450000X0.262500X-0.450000X0*%
%ADD16RoundRect,0.250000X-0.475000X0.250000X-0.475000X-0.250000X0.475000X-0.250000X0.475000X0.250000X0*%
%ADD17RoundRect,0.140000X-0.170000X0.140000X-0.170000X-0.140000X0.170000X-0.140000X0.170000X0.140000X0*%
%ADD18RoundRect,0.140000X0.170000X-0.140000X0.170000X0.140000X-0.170000X0.140000X-0.170000X-0.140000X0*%
%ADD19RoundRect,0.140000X0.140000X0.170000X-0.140000X0.170000X-0.140000X-0.170000X0.140000X-0.170000X0*%
%ADD20RoundRect,0.250000X-0.262500X-0.450000X0.262500X-0.450000X0.262500X0.450000X-0.262500X0.450000X0*%
%ADD21R,1.981200X0.558800*%
%ADD22RoundRect,0.135000X-0.135000X-0.185000X0.135000X-0.185000X0.135000X0.185000X-0.135000X0.185000X0*%
%ADD23R,0.738000X0.570000*%
%ADD24RoundRect,0.125000X-0.125000X0.190000X-0.125000X-0.190000X0.125000X-0.190000X0.125000X0.190000X0*%
%ADD25RoundRect,0.225000X-0.250000X0.225000X-0.250000X-0.225000X0.250000X-0.225000X0.250000X0.225000X0*%
%ADD26RoundRect,0.125000X0.125000X-0.190000X0.125000X0.190000X-0.125000X0.190000X-0.125000X-0.190000X0*%
%ADD27RoundRect,0.135000X0.135000X0.185000X-0.135000X0.185000X-0.135000X-0.185000X0.135000X-0.185000X0*%
%ADD28RoundRect,0.225000X0.250000X-0.225000X0.250000X0.225000X-0.250000X0.225000X-0.250000X-0.225000X0*%
%ADD29RoundRect,0.250000X-0.362500X-1.075000X0.362500X-1.075000X0.362500X1.075000X-0.362500X1.075000X0*%
%ADD30R,0.750000X0.300000*%
%ADD31R,0.300000X0.750000*%
%ADD32R,2.850000X2.850000*%
%ADD33RoundRect,0.250000X0.450000X-0.262500X0.450000X0.262500X-0.450000X0.262500X-0.450000X-0.262500X0*%
%ADD34RoundRect,0.250000X-0.250000X-0.475000X0.250000X-0.475000X0.250000X0.475000X-0.250000X0.475000X0*%
%ADD35RoundRect,0.090000X0.360000X-0.660000X0.360000X0.660000X-0.360000X0.660000X-0.360000X-0.660000X0*%
%ADD36R,0.889000X1.498600*%
%ADD37R,0.812800X0.812800*%
%ADD38RoundRect,0.250000X0.475000X-0.250000X0.475000X0.250000X-0.475000X0.250000X-0.475000X-0.250000X0*%
%ADD39R,0.350000X1.600000*%
%ADD40RoundRect,0.140000X-0.140000X-0.170000X0.140000X-0.170000X0.140000X0.170000X-0.140000X0.170000X0*%
%ADD41RoundRect,0.225000X-0.225000X-0.375000X0.225000X-0.375000X0.225000X0.375000X-0.225000X0.375000X0*%
%ADD42RoundRect,0.250000X1.075000X-0.362500X1.075000X0.362500X-1.075000X0.362500X-1.075000X-0.362500X0*%
%ADD43R,0.249999X0.800001*%
%ADD44R,0.249999X0.700001*%
%ADD45R,1.200000X0.249999*%
%ADD46R,1.000000X0.249999*%
%ADD47RoundRect,0.225000X0.225000X0.250000X-0.225000X0.250000X-0.225000X-0.250000X0.225000X-0.250000X0*%
%ADD48RoundRect,0.250000X-1.075000X0.362500X-1.075000X-0.362500X1.075000X-0.362500X1.075000X0.362500X0*%
%ADD49RoundRect,0.250000X-0.787500X-1.025000X0.787500X-1.025000X0.787500X1.025000X-0.787500X1.025000X0*%
%ADD50R,0.812800X0.889000*%
%ADD51R,1.850000X3.400000*%
%ADD52R,0.304800X0.228600*%
%ADD53R,2.006600X2.159000*%
%ADD54R,1.143000X0.609600*%
%ADD55R,1.143000X0.304800*%
%ADD56RoundRect,0.050000X-0.250000X-0.050000X0.250000X-0.050000X0.250000X0.050000X-0.250000X0.050000X0*%
%ADD57RoundRect,0.050000X-0.050000X-0.250000X0.050000X-0.250000X0.050000X0.250000X-0.050000X0.250000X0*%
%ADD58RoundRect,0.050000X-0.300000X-0.050000X0.300000X-0.050000X0.300000X0.050000X-0.300000X0.050000X0*%
%ADD59RoundRect,0.050000X-0.275000X-0.050000X0.275000X-0.050000X0.275000X0.050000X-0.275000X0.050000X0*%
%ADD60RoundRect,0.050000X-0.290000X-0.050000X0.290000X-0.050000X0.290000X0.050000X-0.290000X0.050000X0*%
%ADD61RoundRect,0.050000X-0.050000X-0.450000X0.050000X-0.450000X0.050000X0.450000X-0.050000X0.450000X0*%
%ADD62RoundRect,0.050000X-0.050000X-0.425000X0.050000X-0.425000X0.050000X0.425000X-0.050000X0.425000X0*%
%ADD63RoundRect,0.150000X-0.200000X0.150000X-0.200000X-0.150000X0.200000X-0.150000X0.200000X0.150000X0*%
%ADD64RoundRect,0.225000X-0.225000X-0.225000X0.225000X-0.225000X0.225000X0.225000X-0.225000X0.225000X0*%
%ADD65RoundRect,0.062500X-0.337500X-0.062500X0.337500X-0.062500X0.337500X0.062500X-0.337500X0.062500X0*%
%ADD66RoundRect,0.062500X-0.062500X-0.337500X0.062500X-0.337500X0.062500X0.337500X-0.062500X0.337500X0*%
%ADD67RoundRect,0.250000X-1.100000X0.325000X-1.100000X-0.325000X1.100000X-0.325000X1.100000X0.325000X0*%
%ADD68RoundRect,0.225000X0.375000X-0.225000X0.375000X0.225000X-0.375000X0.225000X-0.375000X-0.225000X0*%
%ADD69RoundRect,0.200000X-0.200000X-0.275000X0.200000X-0.275000X0.200000X0.275000X-0.200000X0.275000X0*%
%ADD70RoundRect,0.218750X-0.256250X0.218750X-0.256250X-0.218750X0.256250X-0.218750X0.256250X0.218750X0*%
%ADD71RoundRect,0.100000X-0.225000X-0.100000X0.225000X-0.100000X0.225000X0.100000X-0.225000X0.100000X0*%
%ADD72RoundRect,0.250000X-0.450000X0.262500X-0.450000X-0.262500X0.450000X-0.262500X0.450000X0.262500X0*%
%ADD73RoundRect,0.160000X-0.160000X0.245000X-0.160000X-0.245000X0.160000X-0.245000X0.160000X0.245000X0*%
%ADD74RoundRect,0.093750X-0.106250X0.093750X-0.106250X-0.093750X0.106250X-0.093750X0.106250X0.093750X0*%
G04 APERTURE END LIST*
D10*
%TO.C,U9*%
G36*
X98700001Y-86625000D02*
G01*
X98700001Y-86775000D01*
X98650001Y-86824999D01*
X98399999Y-86824999D01*
X98349999Y-86775000D01*
X98349999Y-86625000D01*
X98399999Y-86575000D01*
X98650001Y-86575000D01*
X98700001Y-86625000D01*
G37*
G36*
X98700001Y-86125001D02*
G01*
X98700001Y-86275001D01*
X98650001Y-86325000D01*
X98399999Y-86325000D01*
X98349999Y-86275001D01*
X98349999Y-86125001D01*
X98399999Y-86075001D01*
X98650001Y-86075001D01*
X98700001Y-86125001D01*
G37*
G36*
X99859999Y-86145001D02*
G01*
X99859999Y-86755000D01*
X99809999Y-86805000D01*
X98950001Y-86805000D01*
X98900001Y-86755000D01*
X98900001Y-86145001D01*
X98950001Y-86095001D01*
X99809999Y-86095001D01*
X99859999Y-86145001D01*
G37*
G36*
X101345000Y-84100001D02*
G01*
X101345000Y-84600000D01*
X101295000Y-84650000D01*
X99805000Y-84650000D01*
X99755000Y-84600000D01*
X99755000Y-84100001D01*
X99805000Y-84050001D01*
X101295000Y-84050001D01*
X101345000Y-84100001D01*
G37*
G36*
X99925000Y-83550000D02*
G01*
X99925000Y-83799999D01*
X99875000Y-83849999D01*
X99725000Y-83849999D01*
X99675000Y-83799999D01*
X99675000Y-83550000D01*
X99725000Y-83500000D01*
X99875000Y-83500000D01*
X99925000Y-83550000D01*
G37*
G36*
X101019999Y-86145001D02*
G01*
X101019999Y-86755000D01*
X100969999Y-86805000D01*
X100110001Y-86805000D01*
X100060001Y-86755000D01*
X100060001Y-86145001D01*
X100110001Y-86095001D01*
X100969999Y-86095001D01*
X101019999Y-86145001D01*
G37*
G36*
X100424999Y-83550000D02*
G01*
X100424999Y-83799999D01*
X100374999Y-83849999D01*
X100224999Y-83849999D01*
X100174999Y-83799999D01*
X100174999Y-83550000D01*
X100224999Y-83500000D01*
X100374999Y-83500000D01*
X100424999Y-83550000D01*
G37*
G36*
X101700000Y-88715001D02*
G01*
X101700000Y-89185000D01*
X101650000Y-89235000D01*
X100600000Y-89235000D01*
X100550000Y-89185000D01*
X100550000Y-88715001D01*
X100600000Y-88665001D01*
X101650000Y-88665001D01*
X101700000Y-88715001D01*
G37*
G36*
X100925000Y-83550000D02*
G01*
X100925000Y-83799999D01*
X100875001Y-83849999D01*
X100725001Y-83849999D01*
X100675001Y-83799999D01*
X100675001Y-83550000D01*
X100725001Y-83500000D01*
X100875001Y-83500000D01*
X100925000Y-83550000D01*
G37*
G36*
X101424999Y-83550000D02*
G01*
X101424999Y-83799999D01*
X101375000Y-83849999D01*
X101225000Y-83849999D01*
X101175000Y-83799999D01*
X101175000Y-83550000D01*
X101225000Y-83500000D01*
X101375000Y-83500000D01*
X101424999Y-83550000D01*
G37*
G36*
X102085001Y-87615000D02*
G01*
X102085001Y-88414999D01*
X102035001Y-88464999D01*
X101564999Y-88464999D01*
X101514999Y-88414999D01*
X101514999Y-87615000D01*
X101564999Y-87565001D01*
X102035001Y-87565001D01*
X102085001Y-87615000D01*
G37*
G36*
X103050000Y-88715001D02*
G01*
X103050000Y-89185000D01*
X103000000Y-89235000D01*
X101950000Y-89235000D01*
X101900000Y-89185000D01*
X101900000Y-88715001D01*
X101950000Y-88665001D01*
X103000000Y-88665001D01*
X103050000Y-88715001D01*
G37*
G36*
X102425000Y-83550000D02*
G01*
X102425000Y-83799999D01*
X102375000Y-83849999D01*
X102225000Y-83849999D01*
X102175001Y-83799999D01*
X102175001Y-83550000D01*
X102225000Y-83500000D01*
X102375000Y-83500000D01*
X102425000Y-83550000D01*
G37*
G36*
X103845000Y-84100001D02*
G01*
X103845000Y-84600000D01*
X103795000Y-84650000D01*
X102305000Y-84650000D01*
X102255000Y-84600000D01*
X102255000Y-84100001D01*
X102305000Y-84050001D01*
X103795000Y-84050001D01*
X103845000Y-84100001D01*
G37*
G36*
X103539999Y-86145001D02*
G01*
X103539999Y-86755000D01*
X103489999Y-86805000D01*
X102630001Y-86805000D01*
X102580001Y-86755000D01*
X102580001Y-86145001D01*
X102630001Y-86095001D01*
X103489999Y-86095001D01*
X103539999Y-86145001D01*
G37*
G36*
X102924999Y-83550000D02*
G01*
X102924999Y-83799999D01*
X102874999Y-83849999D01*
X102724999Y-83849999D01*
X102675000Y-83799999D01*
X102675000Y-83550000D01*
X102724999Y-83500000D01*
X102874999Y-83500000D01*
X102924999Y-83550000D01*
G37*
G36*
X103425001Y-83550000D02*
G01*
X103425001Y-83799999D01*
X103375001Y-83849999D01*
X103225001Y-83849999D01*
X103175001Y-83799999D01*
X103175001Y-83550000D01*
X103225001Y-83500000D01*
X103375001Y-83500000D01*
X103425001Y-83550000D01*
G37*
G36*
X104699999Y-86145001D02*
G01*
X104699999Y-86755000D01*
X104649999Y-86805000D01*
X103790001Y-86805000D01*
X103740001Y-86755000D01*
X103740001Y-86145001D01*
X103790001Y-86095001D01*
X104649999Y-86095001D01*
X104699999Y-86145001D01*
G37*
G36*
X103925000Y-83550000D02*
G01*
X103925000Y-83799999D01*
X103875000Y-83849999D01*
X103725000Y-83849999D01*
X103675000Y-83799999D01*
X103675000Y-83550000D01*
X103725000Y-83500000D01*
X103875000Y-83500000D01*
X103925000Y-83550000D01*
G37*
G36*
X105250001Y-86125001D02*
G01*
X105250001Y-86275001D01*
X105200001Y-86325000D01*
X104949999Y-86325000D01*
X104899999Y-86275001D01*
X104899999Y-86125001D01*
X104949999Y-86075001D01*
X105200001Y-86075001D01*
X105250001Y-86125001D01*
G37*
G36*
X105250001Y-86625000D02*
G01*
X105250001Y-86775000D01*
X105200001Y-86824999D01*
X104949999Y-86824999D01*
X104899999Y-86775000D01*
X104899999Y-86625000D01*
X104949999Y-86575000D01*
X105200001Y-86575000D01*
X105250001Y-86625000D01*
G37*
G36*
X99424998Y-83550000D02*
G01*
X99425001Y-84625001D01*
X99374998Y-84674999D01*
X98399999Y-84675001D01*
X98349999Y-84625001D01*
X98349999Y-84474999D01*
X98399999Y-84424999D01*
X98775000Y-84425002D01*
X98825000Y-84374999D01*
X98825000Y-84025000D01*
X98875000Y-83975000D01*
X99124999Y-83975000D01*
X99174999Y-83925000D01*
X99174999Y-83550000D01*
X99224999Y-83500000D01*
X99375001Y-83500000D01*
X99424998Y-83550000D01*
G37*
G36*
X99374998Y-89725001D02*
G01*
X99425001Y-89774999D01*
X99424998Y-90850000D01*
X99375001Y-90900000D01*
X99225001Y-90900000D01*
X99174999Y-90850000D01*
X99175001Y-90475000D01*
X99124999Y-90425000D01*
X98875000Y-90425000D01*
X98825000Y-90375000D01*
X98825000Y-90024998D01*
X98775000Y-89975001D01*
X98399999Y-89975001D01*
X98349999Y-89925001D01*
X98349999Y-89774999D01*
X98399999Y-89724999D01*
X99374998Y-89725001D01*
G37*
G36*
X104425001Y-83550000D02*
G01*
X104424999Y-83925000D01*
X104475001Y-83975000D01*
X104725000Y-83975000D01*
X104775000Y-84025000D01*
X104775000Y-84374999D01*
X104824998Y-84425002D01*
X105200001Y-84424999D01*
X105250001Y-84474999D01*
X105250001Y-84625001D01*
X105200001Y-84675001D01*
X104224999Y-84674999D01*
X104174999Y-84625001D01*
X104175002Y-83550000D01*
X104224999Y-83500000D01*
X104375001Y-83500000D01*
X104425001Y-83550000D01*
G37*
G36*
X105250001Y-89774999D02*
G01*
X105250001Y-89925001D01*
X105200001Y-89975001D01*
X104824998Y-89974998D01*
X104775000Y-90025001D01*
X104775000Y-90375000D01*
X104725000Y-90425000D01*
X104475001Y-90425000D01*
X104425001Y-90475000D01*
X104425001Y-90850000D01*
X104374999Y-90900000D01*
X104224999Y-90900000D01*
X104175002Y-90850000D01*
X104174999Y-89774999D01*
X104224999Y-89724999D01*
X105200001Y-89724999D01*
X105250001Y-89774999D01*
G37*
D11*
%TO.C,U4*%
X107148001Y-112401000D02*
X107150001Y-112401000D01*
X107153001Y-112402000D01*
X107155001Y-112402000D01*
X107158001Y-112403000D01*
X107160001Y-112404000D01*
X107163001Y-112405000D01*
X107165001Y-112407000D01*
X107167001Y-112408000D01*
X107169001Y-112410000D01*
X107171001Y-112411000D01*
X107173001Y-112413000D01*
X107175001Y-112415000D01*
X107177001Y-112417000D01*
X107179001Y-112419000D01*
X107180001Y-112421000D01*
X107182001Y-112423000D01*
X107183001Y-112425000D01*
X107185001Y-112427000D01*
X107186001Y-112430000D01*
X107187001Y-112432000D01*
X107188001Y-112435000D01*
X107188001Y-112437000D01*
X107189001Y-112440000D01*
X107189001Y-112442000D01*
X107190001Y-112445000D01*
X107190001Y-112447000D01*
X107190001Y-112450000D01*
X107190001Y-113050000D01*
X107190001Y-113053000D01*
X107190001Y-113055000D01*
X107189001Y-113058000D01*
X107189001Y-113060000D01*
X107188001Y-113063000D01*
X107188001Y-113065000D01*
X107187001Y-113068000D01*
X107186001Y-113070000D01*
X107185001Y-113073000D01*
X107183001Y-113075000D01*
X107182001Y-113077000D01*
X107180001Y-113079000D01*
X107179001Y-113081000D01*
X107177001Y-113083000D01*
X107175001Y-113085000D01*
X107173001Y-113087000D01*
X107171001Y-113089000D01*
X107169001Y-113090000D01*
X107167001Y-113092000D01*
X107165001Y-113093000D01*
X107163001Y-113095000D01*
X107160001Y-113096000D01*
X107158001Y-113097000D01*
X107155001Y-113098000D01*
X107153001Y-113098000D01*
X107150001Y-113099000D01*
X107148001Y-113099000D01*
X107145001Y-113100000D01*
X107143001Y-113100000D01*
X107140001Y-113100000D01*
X107040001Y-113100000D01*
X107037001Y-113100000D01*
X107035001Y-113100000D01*
X107032001Y-113099000D01*
X107030001Y-113099000D01*
X107027001Y-113098000D01*
X107025001Y-113098000D01*
X107022001Y-113097000D01*
X107020001Y-113096000D01*
X107017001Y-113095000D01*
X107015001Y-113093000D01*
X107013001Y-113092000D01*
X107011001Y-113090000D01*
X107009001Y-113089000D01*
X107007001Y-113087000D01*
X107005001Y-113085000D01*
X107003001Y-113083000D01*
X107001001Y-113081000D01*
X107000001Y-113079000D01*
X106998001Y-113077000D01*
X106997001Y-113075000D01*
X106995001Y-113073000D01*
X106994001Y-113070000D01*
X106993001Y-113068000D01*
X106992001Y-113065000D01*
X106992001Y-113063000D01*
X106991001Y-113060000D01*
X106991001Y-113058000D01*
X106990001Y-113055000D01*
X106990001Y-113053000D01*
X106990001Y-113050000D01*
X106990001Y-112600000D01*
X106340001Y-112600000D01*
X106337001Y-112600000D01*
X106335001Y-112600000D01*
X106332001Y-112599000D01*
X106330001Y-112599000D01*
X106327001Y-112598000D01*
X106325001Y-112598000D01*
X106322001Y-112597000D01*
X106320001Y-112596000D01*
X106317001Y-112595000D01*
X106315001Y-112593000D01*
X106313001Y-112592000D01*
X106311001Y-112590000D01*
X106309001Y-112589000D01*
X106307001Y-112587000D01*
X106305001Y-112585000D01*
X106303001Y-112583000D01*
X106301001Y-112581000D01*
X106300001Y-112579000D01*
X106298001Y-112577000D01*
X106297001Y-112575000D01*
X106295001Y-112573000D01*
X106294001Y-112570000D01*
X106293001Y-112568000D01*
X106292001Y-112565000D01*
X106292001Y-112563000D01*
X106291001Y-112560000D01*
X106291001Y-112558000D01*
X106290001Y-112555000D01*
X106290001Y-112553000D01*
X106290001Y-112550000D01*
X106290001Y-112450000D01*
X106290001Y-112447000D01*
X106290001Y-112445000D01*
X106291001Y-112442000D01*
X106291001Y-112440000D01*
X106292001Y-112437000D01*
X106292001Y-112435000D01*
X106293001Y-112432000D01*
X106294001Y-112430000D01*
X106295001Y-112427000D01*
X106297001Y-112425000D01*
X106298001Y-112423000D01*
X106300001Y-112421000D01*
X106301001Y-112419000D01*
X106303001Y-112417000D01*
X106305001Y-112415000D01*
X106307001Y-112413000D01*
X106309001Y-112411000D01*
X106311001Y-112410000D01*
X106313001Y-112408000D01*
X106315001Y-112407000D01*
X106317001Y-112405000D01*
X106320001Y-112404000D01*
X106322001Y-112403000D01*
X106325001Y-112402000D01*
X106327001Y-112402000D01*
X106330001Y-112401000D01*
X106332001Y-112401000D01*
X106335001Y-112400000D01*
X106337001Y-112400000D01*
X106340001Y-112400000D01*
X107140001Y-112400000D01*
X107143001Y-112400000D01*
X107145001Y-112400000D01*
X107148001Y-112401000D01*
G36*
X107148001Y-112401000D02*
G01*
X107150001Y-112401000D01*
X107153001Y-112402000D01*
X107155001Y-112402000D01*
X107158001Y-112403000D01*
X107160001Y-112404000D01*
X107163001Y-112405000D01*
X107165001Y-112407000D01*
X107167001Y-112408000D01*
X107169001Y-112410000D01*
X107171001Y-112411000D01*
X107173001Y-112413000D01*
X107175001Y-112415000D01*
X107177001Y-112417000D01*
X107179001Y-112419000D01*
X107180001Y-112421000D01*
X107182001Y-112423000D01*
X107183001Y-112425000D01*
X107185001Y-112427000D01*
X107186001Y-112430000D01*
X107187001Y-112432000D01*
X107188001Y-112435000D01*
X107188001Y-112437000D01*
X107189001Y-112440000D01*
X107189001Y-112442000D01*
X107190001Y-112445000D01*
X107190001Y-112447000D01*
X107190001Y-112450000D01*
X107190001Y-113050000D01*
X107190001Y-113053000D01*
X107190001Y-113055000D01*
X107189001Y-113058000D01*
X107189001Y-113060000D01*
X107188001Y-113063000D01*
X107188001Y-113065000D01*
X107187001Y-113068000D01*
X107186001Y-113070000D01*
X107185001Y-113073000D01*
X107183001Y-113075000D01*
X107182001Y-113077000D01*
X107180001Y-113079000D01*
X107179001Y-113081000D01*
X107177001Y-113083000D01*
X107175001Y-113085000D01*
X107173001Y-113087000D01*
X107171001Y-113089000D01*
X107169001Y-113090000D01*
X107167001Y-113092000D01*
X107165001Y-113093000D01*
X107163001Y-113095000D01*
X107160001Y-113096000D01*
X107158001Y-113097000D01*
X107155001Y-113098000D01*
X107153001Y-113098000D01*
X107150001Y-113099000D01*
X107148001Y-113099000D01*
X107145001Y-113100000D01*
X107143001Y-113100000D01*
X107140001Y-113100000D01*
X107040001Y-113100000D01*
X107037001Y-113100000D01*
X107035001Y-113100000D01*
X107032001Y-113099000D01*
X107030001Y-113099000D01*
X107027001Y-113098000D01*
X107025001Y-113098000D01*
X107022001Y-113097000D01*
X107020001Y-113096000D01*
X107017001Y-113095000D01*
X107015001Y-113093000D01*
X107013001Y-113092000D01*
X107011001Y-113090000D01*
X107009001Y-113089000D01*
X107007001Y-113087000D01*
X107005001Y-113085000D01*
X107003001Y-113083000D01*
X107001001Y-113081000D01*
X107000001Y-113079000D01*
X106998001Y-113077000D01*
X106997001Y-113075000D01*
X106995001Y-113073000D01*
X106994001Y-113070000D01*
X106993001Y-113068000D01*
X106992001Y-113065000D01*
X106992001Y-113063000D01*
X106991001Y-113060000D01*
X106991001Y-113058000D01*
X106990001Y-113055000D01*
X106990001Y-113053000D01*
X106990001Y-113050000D01*
X106990001Y-112600000D01*
X106340001Y-112600000D01*
X106337001Y-112600000D01*
X106335001Y-112600000D01*
X106332001Y-112599000D01*
X106330001Y-112599000D01*
X106327001Y-112598000D01*
X106325001Y-112598000D01*
X106322001Y-112597000D01*
X106320001Y-112596000D01*
X106317001Y-112595000D01*
X106315001Y-112593000D01*
X106313001Y-112592000D01*
X106311001Y-112590000D01*
X106309001Y-112589000D01*
X106307001Y-112587000D01*
X106305001Y-112585000D01*
X106303001Y-112583000D01*
X106301001Y-112581000D01*
X106300001Y-112579000D01*
X106298001Y-112577000D01*
X106297001Y-112575000D01*
X106295001Y-112573000D01*
X106294001Y-112570000D01*
X106293001Y-112568000D01*
X106292001Y-112565000D01*
X106292001Y-112563000D01*
X106291001Y-112560000D01*
X106291001Y-112558000D01*
X106290001Y-112555000D01*
X106290001Y-112553000D01*
X106290001Y-112550000D01*
X106290001Y-112450000D01*
X106290001Y-112447000D01*
X106290001Y-112445000D01*
X106291001Y-112442000D01*
X106291001Y-112440000D01*
X106292001Y-112437000D01*
X106292001Y-112435000D01*
X106293001Y-112432000D01*
X106294001Y-112430000D01*
X106295001Y-112427000D01*
X106297001Y-112425000D01*
X106298001Y-112423000D01*
X106300001Y-112421000D01*
X106301001Y-112419000D01*
X106303001Y-112417000D01*
X106305001Y-112415000D01*
X106307001Y-112413000D01*
X106309001Y-112411000D01*
X106311001Y-112410000D01*
X106313001Y-112408000D01*
X106315001Y-112407000D01*
X106317001Y-112405000D01*
X106320001Y-112404000D01*
X106322001Y-112403000D01*
X106325001Y-112402000D01*
X106327001Y-112402000D01*
X106330001Y-112401000D01*
X106332001Y-112401000D01*
X106335001Y-112400000D01*
X106337001Y-112400000D01*
X106340001Y-112400000D01*
X107140001Y-112400000D01*
X107143001Y-112400000D01*
X107145001Y-112400000D01*
X107148001Y-112401000D01*
G37*
X107198001Y-108701000D02*
X107200001Y-108701000D01*
X107203001Y-108702000D01*
X107205001Y-108702000D01*
X107208001Y-108703000D01*
X107210001Y-108704000D01*
X107213001Y-108705000D01*
X107215001Y-108707000D01*
X107217001Y-108708000D01*
X107219001Y-108710000D01*
X107221001Y-108711000D01*
X107223001Y-108713000D01*
X107225001Y-108715000D01*
X107227001Y-108717000D01*
X107229001Y-108719000D01*
X107230001Y-108721000D01*
X107232001Y-108723000D01*
X107233001Y-108725000D01*
X107235001Y-108727000D01*
X107236001Y-108730000D01*
X107237001Y-108732000D01*
X107238001Y-108735000D01*
X107238001Y-108737000D01*
X107239001Y-108740000D01*
X107239001Y-108742000D01*
X107240001Y-108745000D01*
X107240001Y-108747000D01*
X107240001Y-108750000D01*
X107240001Y-109350000D01*
X107240001Y-109353000D01*
X107240001Y-109355000D01*
X107239001Y-109358000D01*
X107239001Y-109360000D01*
X107238001Y-109363000D01*
X107238001Y-109365000D01*
X107237001Y-109368000D01*
X107236001Y-109370000D01*
X107235001Y-109373000D01*
X107233001Y-109375000D01*
X107232001Y-109377000D01*
X107230001Y-109379000D01*
X107229001Y-109381000D01*
X107227001Y-109383000D01*
X107225001Y-109385000D01*
X107223001Y-109387000D01*
X107221001Y-109389000D01*
X107219001Y-109390000D01*
X107217001Y-109392000D01*
X107215001Y-109393000D01*
X107213001Y-109395000D01*
X107210001Y-109396000D01*
X107208001Y-109397000D01*
X107205001Y-109398000D01*
X107203001Y-109398000D01*
X107200001Y-109399000D01*
X107198001Y-109399000D01*
X107195001Y-109400000D01*
X107193001Y-109400000D01*
X107190001Y-109400000D01*
X106340001Y-109400000D01*
X106337001Y-109400000D01*
X106335001Y-109400000D01*
X106332001Y-109399000D01*
X106330001Y-109399000D01*
X106327001Y-109398000D01*
X106325001Y-109398000D01*
X106322001Y-109397000D01*
X106320001Y-109396000D01*
X106317001Y-109395000D01*
X106315001Y-109393000D01*
X106313001Y-109392000D01*
X106311001Y-109390000D01*
X106309001Y-109389000D01*
X106307001Y-109387000D01*
X106305001Y-109385000D01*
X106303001Y-109383000D01*
X106301001Y-109381000D01*
X106300001Y-109379000D01*
X106298001Y-109377000D01*
X106297001Y-109375000D01*
X106295001Y-109373000D01*
X106294001Y-109370000D01*
X106293001Y-109368000D01*
X106292001Y-109365000D01*
X106292001Y-109363000D01*
X106291001Y-109360000D01*
X106291001Y-109358000D01*
X106290001Y-109355000D01*
X106290001Y-109353000D01*
X106290001Y-109350000D01*
X106290001Y-109250000D01*
X106290001Y-109247000D01*
X106290001Y-109245000D01*
X106291001Y-109242000D01*
X106291001Y-109240000D01*
X106292001Y-109237000D01*
X106292001Y-109235000D01*
X106293001Y-109232000D01*
X106294001Y-109230000D01*
X106295001Y-109227000D01*
X106297001Y-109225000D01*
X106298001Y-109223000D01*
X106300001Y-109221000D01*
X106301001Y-109219000D01*
X106303001Y-109217000D01*
X106305001Y-109215000D01*
X106307001Y-109213000D01*
X106309001Y-109211000D01*
X106311001Y-109210000D01*
X106313001Y-109208000D01*
X106315001Y-109207000D01*
X106317001Y-109205000D01*
X106320001Y-109204000D01*
X106322001Y-109203000D01*
X106325001Y-109202000D01*
X106327001Y-109202000D01*
X106330001Y-109201000D01*
X106332001Y-109201000D01*
X106335001Y-109200000D01*
X106337001Y-109200000D01*
X106340001Y-109200000D01*
X107040001Y-109200000D01*
X107040001Y-108750000D01*
X107040001Y-108747000D01*
X107040001Y-108745000D01*
X107041001Y-108742000D01*
X107041001Y-108740000D01*
X107042001Y-108737000D01*
X107042001Y-108735000D01*
X107043001Y-108732000D01*
X107044001Y-108730000D01*
X107045001Y-108727000D01*
X107047001Y-108725000D01*
X107048001Y-108723000D01*
X107050001Y-108721000D01*
X107051001Y-108719000D01*
X107053001Y-108717000D01*
X107055001Y-108715000D01*
X107057001Y-108713000D01*
X107059001Y-108711000D01*
X107061001Y-108710000D01*
X107063001Y-108708000D01*
X107065001Y-108707000D01*
X107067001Y-108705000D01*
X107070001Y-108704000D01*
X107072001Y-108703000D01*
X107075001Y-108702000D01*
X107077001Y-108702000D01*
X107080001Y-108701000D01*
X107082001Y-108701000D01*
X107085001Y-108700000D01*
X107087001Y-108700000D01*
X107090001Y-108700000D01*
X107190001Y-108700000D01*
X107193001Y-108700000D01*
X107195001Y-108700000D01*
X107198001Y-108701000D01*
G36*
X107198001Y-108701000D02*
G01*
X107200001Y-108701000D01*
X107203001Y-108702000D01*
X107205001Y-108702000D01*
X107208001Y-108703000D01*
X107210001Y-108704000D01*
X107213001Y-108705000D01*
X107215001Y-108707000D01*
X107217001Y-108708000D01*
X107219001Y-108710000D01*
X107221001Y-108711000D01*
X107223001Y-108713000D01*
X107225001Y-108715000D01*
X107227001Y-108717000D01*
X107229001Y-108719000D01*
X107230001Y-108721000D01*
X107232001Y-108723000D01*
X107233001Y-108725000D01*
X107235001Y-108727000D01*
X107236001Y-108730000D01*
X107237001Y-108732000D01*
X107238001Y-108735000D01*
X107238001Y-108737000D01*
X107239001Y-108740000D01*
X107239001Y-108742000D01*
X107240001Y-108745000D01*
X107240001Y-108747000D01*
X107240001Y-108750000D01*
X107240001Y-109350000D01*
X107240001Y-109353000D01*
X107240001Y-109355000D01*
X107239001Y-109358000D01*
X107239001Y-109360000D01*
X107238001Y-109363000D01*
X107238001Y-109365000D01*
X107237001Y-109368000D01*
X107236001Y-109370000D01*
X107235001Y-109373000D01*
X107233001Y-109375000D01*
X107232001Y-109377000D01*
X107230001Y-109379000D01*
X107229001Y-109381000D01*
X107227001Y-109383000D01*
X107225001Y-109385000D01*
X107223001Y-109387000D01*
X107221001Y-109389000D01*
X107219001Y-109390000D01*
X107217001Y-109392000D01*
X107215001Y-109393000D01*
X107213001Y-109395000D01*
X107210001Y-109396000D01*
X107208001Y-109397000D01*
X107205001Y-109398000D01*
X107203001Y-109398000D01*
X107200001Y-109399000D01*
X107198001Y-109399000D01*
X107195001Y-109400000D01*
X107193001Y-109400000D01*
X107190001Y-109400000D01*
X106340001Y-109400000D01*
X106337001Y-109400000D01*
X106335001Y-109400000D01*
X106332001Y-109399000D01*
X106330001Y-109399000D01*
X106327001Y-109398000D01*
X106325001Y-109398000D01*
X106322001Y-109397000D01*
X106320001Y-109396000D01*
X106317001Y-109395000D01*
X106315001Y-109393000D01*
X106313001Y-109392000D01*
X106311001Y-109390000D01*
X106309001Y-109389000D01*
X106307001Y-109387000D01*
X106305001Y-109385000D01*
X106303001Y-109383000D01*
X106301001Y-109381000D01*
X106300001Y-109379000D01*
X106298001Y-109377000D01*
X106297001Y-109375000D01*
X106295001Y-109373000D01*
X106294001Y-109370000D01*
X106293001Y-109368000D01*
X106292001Y-109365000D01*
X106292001Y-109363000D01*
X106291001Y-109360000D01*
X106291001Y-109358000D01*
X106290001Y-109355000D01*
X106290001Y-109353000D01*
X106290001Y-109350000D01*
X106290001Y-109250000D01*
X106290001Y-109247000D01*
X106290001Y-109245000D01*
X106291001Y-109242000D01*
X106291001Y-109240000D01*
X106292001Y-109237000D01*
X106292001Y-109235000D01*
X106293001Y-109232000D01*
X106294001Y-109230000D01*
X106295001Y-109227000D01*
X106297001Y-109225000D01*
X106298001Y-109223000D01*
X106300001Y-109221000D01*
X106301001Y-109219000D01*
X106303001Y-109217000D01*
X106305001Y-109215000D01*
X106307001Y-109213000D01*
X106309001Y-109211000D01*
X106311001Y-109210000D01*
X106313001Y-109208000D01*
X106315001Y-109207000D01*
X106317001Y-109205000D01*
X106320001Y-109204000D01*
X106322001Y-109203000D01*
X106325001Y-109202000D01*
X106327001Y-109202000D01*
X106330001Y-109201000D01*
X106332001Y-109201000D01*
X106335001Y-109200000D01*
X106337001Y-109200000D01*
X106340001Y-109200000D01*
X107040001Y-109200000D01*
X107040001Y-108750000D01*
X107040001Y-108747000D01*
X107040001Y-108745000D01*
X107041001Y-108742000D01*
X107041001Y-108740000D01*
X107042001Y-108737000D01*
X107042001Y-108735000D01*
X107043001Y-108732000D01*
X107044001Y-108730000D01*
X107045001Y-108727000D01*
X107047001Y-108725000D01*
X107048001Y-108723000D01*
X107050001Y-108721000D01*
X107051001Y-108719000D01*
X107053001Y-108717000D01*
X107055001Y-108715000D01*
X107057001Y-108713000D01*
X107059001Y-108711000D01*
X107061001Y-108710000D01*
X107063001Y-108708000D01*
X107065001Y-108707000D01*
X107067001Y-108705000D01*
X107070001Y-108704000D01*
X107072001Y-108703000D01*
X107075001Y-108702000D01*
X107077001Y-108702000D01*
X107080001Y-108701000D01*
X107082001Y-108701000D01*
X107085001Y-108700000D01*
X107087001Y-108700000D01*
X107090001Y-108700000D01*
X107190001Y-108700000D01*
X107193001Y-108700000D01*
X107195001Y-108700000D01*
X107198001Y-108701000D01*
G37*
X109898001Y-108701000D02*
X109900001Y-108701000D01*
X109903001Y-108702000D01*
X109905001Y-108702000D01*
X109908001Y-108703000D01*
X109910001Y-108704000D01*
X109913001Y-108705000D01*
X109915001Y-108707000D01*
X109917001Y-108708000D01*
X109919001Y-108710000D01*
X109921001Y-108711000D01*
X109923001Y-108713000D01*
X109925001Y-108715000D01*
X109927001Y-108717000D01*
X109929001Y-108719000D01*
X109930001Y-108721000D01*
X109932001Y-108723000D01*
X109933001Y-108725000D01*
X109935001Y-108727000D01*
X109936001Y-108730000D01*
X109937001Y-108732000D01*
X109938001Y-108735000D01*
X109938001Y-108737000D01*
X109939001Y-108740000D01*
X109939001Y-108742000D01*
X109940001Y-108745000D01*
X109940001Y-108747000D01*
X109940001Y-108750000D01*
X109940001Y-109200000D01*
X110640001Y-109200000D01*
X110643001Y-109200000D01*
X110645001Y-109200000D01*
X110648001Y-109201000D01*
X110650001Y-109201000D01*
X110653001Y-109202000D01*
X110655001Y-109202000D01*
X110658001Y-109203000D01*
X110660001Y-109204000D01*
X110663001Y-109205000D01*
X110665001Y-109207000D01*
X110667001Y-109208000D01*
X110669001Y-109210000D01*
X110671001Y-109211000D01*
X110673001Y-109213000D01*
X110675001Y-109215000D01*
X110677001Y-109217000D01*
X110679001Y-109219000D01*
X110680001Y-109221000D01*
X110682001Y-109223000D01*
X110683001Y-109225000D01*
X110685001Y-109227000D01*
X110686001Y-109230000D01*
X110687001Y-109232000D01*
X110688001Y-109235000D01*
X110688001Y-109237000D01*
X110689001Y-109240000D01*
X110689001Y-109242000D01*
X110690001Y-109245000D01*
X110690001Y-109247000D01*
X110690001Y-109250000D01*
X110690001Y-109350000D01*
X110690001Y-109353000D01*
X110690001Y-109355000D01*
X110689001Y-109358000D01*
X110689001Y-109360000D01*
X110688001Y-109363000D01*
X110688001Y-109365000D01*
X110687001Y-109368000D01*
X110686001Y-109370000D01*
X110685001Y-109373000D01*
X110683001Y-109375000D01*
X110682001Y-109377000D01*
X110680001Y-109379000D01*
X110679001Y-109381000D01*
X110677001Y-109383000D01*
X110675001Y-109385000D01*
X110673001Y-109387000D01*
X110671001Y-109389000D01*
X110669001Y-109390000D01*
X110667001Y-109392000D01*
X110665001Y-109393000D01*
X110663001Y-109395000D01*
X110660001Y-109396000D01*
X110658001Y-109397000D01*
X110655001Y-109398000D01*
X110653001Y-109398000D01*
X110650001Y-109399000D01*
X110648001Y-109399000D01*
X110645001Y-109400000D01*
X110643001Y-109400000D01*
X110640001Y-109400000D01*
X109790001Y-109400000D01*
X109787001Y-109400000D01*
X109785001Y-109400000D01*
X109782001Y-109399000D01*
X109780001Y-109399000D01*
X109777001Y-109398000D01*
X109775001Y-109398000D01*
X109772001Y-109397000D01*
X109770001Y-109396000D01*
X109767001Y-109395000D01*
X109765001Y-109393000D01*
X109763001Y-109392000D01*
X109761001Y-109390000D01*
X109759001Y-109389000D01*
X109757001Y-109387000D01*
X109755001Y-109385000D01*
X109753001Y-109383000D01*
X109751001Y-109381000D01*
X109750001Y-109379000D01*
X109748001Y-109377000D01*
X109747001Y-109375000D01*
X109745001Y-109373000D01*
X109744001Y-109370000D01*
X109743001Y-109368000D01*
X109742001Y-109365000D01*
X109742001Y-109363000D01*
X109741001Y-109360000D01*
X109741001Y-109358000D01*
X109740001Y-109355000D01*
X109740001Y-109353000D01*
X109740001Y-109350000D01*
X109740001Y-108750000D01*
X109740001Y-108747000D01*
X109740001Y-108745000D01*
X109741001Y-108742000D01*
X109741001Y-108740000D01*
X109742001Y-108737000D01*
X109742001Y-108735000D01*
X109743001Y-108732000D01*
X109744001Y-108730000D01*
X109745001Y-108727000D01*
X109747001Y-108725000D01*
X109748001Y-108723000D01*
X109750001Y-108721000D01*
X109751001Y-108719000D01*
X109753001Y-108717000D01*
X109755001Y-108715000D01*
X109757001Y-108713000D01*
X109759001Y-108711000D01*
X109761001Y-108710000D01*
X109763001Y-108708000D01*
X109765001Y-108707000D01*
X109767001Y-108705000D01*
X109770001Y-108704000D01*
X109772001Y-108703000D01*
X109775001Y-108702000D01*
X109777001Y-108702000D01*
X109780001Y-108701000D01*
X109782001Y-108701000D01*
X109785001Y-108700000D01*
X109787001Y-108700000D01*
X109790001Y-108700000D01*
X109890001Y-108700000D01*
X109893001Y-108700000D01*
X109895001Y-108700000D01*
X109898001Y-108701000D01*
G36*
X109898001Y-108701000D02*
G01*
X109900001Y-108701000D01*
X109903001Y-108702000D01*
X109905001Y-108702000D01*
X109908001Y-108703000D01*
X109910001Y-108704000D01*
X109913001Y-108705000D01*
X109915001Y-108707000D01*
X109917001Y-108708000D01*
X109919001Y-108710000D01*
X109921001Y-108711000D01*
X109923001Y-108713000D01*
X109925001Y-108715000D01*
X109927001Y-108717000D01*
X109929001Y-108719000D01*
X109930001Y-108721000D01*
X109932001Y-108723000D01*
X109933001Y-108725000D01*
X109935001Y-108727000D01*
X109936001Y-108730000D01*
X109937001Y-108732000D01*
X109938001Y-108735000D01*
X109938001Y-108737000D01*
X109939001Y-108740000D01*
X109939001Y-108742000D01*
X109940001Y-108745000D01*
X109940001Y-108747000D01*
X109940001Y-108750000D01*
X109940001Y-109200000D01*
X110640001Y-109200000D01*
X110643001Y-109200000D01*
X110645001Y-109200000D01*
X110648001Y-109201000D01*
X110650001Y-109201000D01*
X110653001Y-109202000D01*
X110655001Y-109202000D01*
X110658001Y-109203000D01*
X110660001Y-109204000D01*
X110663001Y-109205000D01*
X110665001Y-109207000D01*
X110667001Y-109208000D01*
X110669001Y-109210000D01*
X110671001Y-109211000D01*
X110673001Y-109213000D01*
X110675001Y-109215000D01*
X110677001Y-109217000D01*
X110679001Y-109219000D01*
X110680001Y-109221000D01*
X110682001Y-109223000D01*
X110683001Y-109225000D01*
X110685001Y-109227000D01*
X110686001Y-109230000D01*
X110687001Y-109232000D01*
X110688001Y-109235000D01*
X110688001Y-109237000D01*
X110689001Y-109240000D01*
X110689001Y-109242000D01*
X110690001Y-109245000D01*
X110690001Y-109247000D01*
X110690001Y-109250000D01*
X110690001Y-109350000D01*
X110690001Y-109353000D01*
X110690001Y-109355000D01*
X110689001Y-109358000D01*
X110689001Y-109360000D01*
X110688001Y-109363000D01*
X110688001Y-109365000D01*
X110687001Y-109368000D01*
X110686001Y-109370000D01*
X110685001Y-109373000D01*
X110683001Y-109375000D01*
X110682001Y-109377000D01*
X110680001Y-109379000D01*
X110679001Y-109381000D01*
X110677001Y-109383000D01*
X110675001Y-109385000D01*
X110673001Y-109387000D01*
X110671001Y-109389000D01*
X110669001Y-109390000D01*
X110667001Y-109392000D01*
X110665001Y-109393000D01*
X110663001Y-109395000D01*
X110660001Y-109396000D01*
X110658001Y-109397000D01*
X110655001Y-109398000D01*
X110653001Y-109398000D01*
X110650001Y-109399000D01*
X110648001Y-109399000D01*
X110645001Y-109400000D01*
X110643001Y-109400000D01*
X110640001Y-109400000D01*
X109790001Y-109400000D01*
X109787001Y-109400000D01*
X109785001Y-109400000D01*
X109782001Y-109399000D01*
X109780001Y-109399000D01*
X109777001Y-109398000D01*
X109775001Y-109398000D01*
X109772001Y-109397000D01*
X109770001Y-109396000D01*
X109767001Y-109395000D01*
X109765001Y-109393000D01*
X109763001Y-109392000D01*
X109761001Y-109390000D01*
X109759001Y-109389000D01*
X109757001Y-109387000D01*
X109755001Y-109385000D01*
X109753001Y-109383000D01*
X109751001Y-109381000D01*
X109750001Y-109379000D01*
X109748001Y-109377000D01*
X109747001Y-109375000D01*
X109745001Y-109373000D01*
X109744001Y-109370000D01*
X109743001Y-109368000D01*
X109742001Y-109365000D01*
X109742001Y-109363000D01*
X109741001Y-109360000D01*
X109741001Y-109358000D01*
X109740001Y-109355000D01*
X109740001Y-109353000D01*
X109740001Y-109350000D01*
X109740001Y-108750000D01*
X109740001Y-108747000D01*
X109740001Y-108745000D01*
X109741001Y-108742000D01*
X109741001Y-108740000D01*
X109742001Y-108737000D01*
X109742001Y-108735000D01*
X109743001Y-108732000D01*
X109744001Y-108730000D01*
X109745001Y-108727000D01*
X109747001Y-108725000D01*
X109748001Y-108723000D01*
X109750001Y-108721000D01*
X109751001Y-108719000D01*
X109753001Y-108717000D01*
X109755001Y-108715000D01*
X109757001Y-108713000D01*
X109759001Y-108711000D01*
X109761001Y-108710000D01*
X109763001Y-108708000D01*
X109765001Y-108707000D01*
X109767001Y-108705000D01*
X109770001Y-108704000D01*
X109772001Y-108703000D01*
X109775001Y-108702000D01*
X109777001Y-108702000D01*
X109780001Y-108701000D01*
X109782001Y-108701000D01*
X109785001Y-108700000D01*
X109787001Y-108700000D01*
X109790001Y-108700000D01*
X109890001Y-108700000D01*
X109893001Y-108700000D01*
X109895001Y-108700000D01*
X109898001Y-108701000D01*
G37*
X110648001Y-112401000D02*
X110650001Y-112401000D01*
X110653001Y-112402000D01*
X110655001Y-112402000D01*
X110658001Y-112403000D01*
X110660001Y-112404000D01*
X110663001Y-112405000D01*
X110665001Y-112407000D01*
X110667001Y-112408000D01*
X110669001Y-112410000D01*
X110671001Y-112411000D01*
X110673001Y-112413000D01*
X110675001Y-112415000D01*
X110677001Y-112417000D01*
X110679001Y-112419000D01*
X110680001Y-112421000D01*
X110682001Y-112423000D01*
X110683001Y-112425000D01*
X110685001Y-112427000D01*
X110686001Y-112430000D01*
X110687001Y-112432000D01*
X110688001Y-112435000D01*
X110688001Y-112437000D01*
X110689001Y-112440000D01*
X110689001Y-112442000D01*
X110690001Y-112445000D01*
X110690001Y-112447000D01*
X110690001Y-112450000D01*
X110690001Y-112550000D01*
X110690001Y-112553000D01*
X110690001Y-112555000D01*
X110689001Y-112558000D01*
X110689001Y-112560000D01*
X110688001Y-112563000D01*
X110688001Y-112565000D01*
X110687001Y-112568000D01*
X110686001Y-112570000D01*
X110685001Y-112573000D01*
X110683001Y-112575000D01*
X110682001Y-112577000D01*
X110680001Y-112579000D01*
X110679001Y-112581000D01*
X110677001Y-112583000D01*
X110675001Y-112585000D01*
X110673001Y-112587000D01*
X110671001Y-112589000D01*
X110669001Y-112590000D01*
X110667001Y-112592000D01*
X110665001Y-112593000D01*
X110663001Y-112595000D01*
X110660001Y-112596000D01*
X110658001Y-112597000D01*
X110655001Y-112598000D01*
X110653001Y-112598000D01*
X110650001Y-112599000D01*
X110648001Y-112599000D01*
X110645001Y-112600000D01*
X110643001Y-112600000D01*
X110640001Y-112600000D01*
X109990001Y-112600000D01*
X109990001Y-113050000D01*
X109990001Y-113053000D01*
X109990001Y-113055000D01*
X109989001Y-113058000D01*
X109989001Y-113060000D01*
X109988001Y-113063000D01*
X109988001Y-113065000D01*
X109987001Y-113068000D01*
X109986001Y-113070000D01*
X109985001Y-113073000D01*
X109983001Y-113075000D01*
X109982001Y-113077000D01*
X109980001Y-113079000D01*
X109979001Y-113081000D01*
X109977001Y-113083000D01*
X109975001Y-113085000D01*
X109973001Y-113087000D01*
X109971001Y-113089000D01*
X109969001Y-113090000D01*
X109967001Y-113092000D01*
X109965001Y-113093000D01*
X109963001Y-113095000D01*
X109960001Y-113096000D01*
X109958001Y-113097000D01*
X109955001Y-113098000D01*
X109953001Y-113098000D01*
X109950001Y-113099000D01*
X109948001Y-113099000D01*
X109945001Y-113100000D01*
X109943001Y-113100000D01*
X109940001Y-113100000D01*
X109840001Y-113100000D01*
X109837001Y-113100000D01*
X109835001Y-113100000D01*
X109832001Y-113099000D01*
X109830001Y-113099000D01*
X109827001Y-113098000D01*
X109825001Y-113098000D01*
X109822001Y-113097000D01*
X109820001Y-113096000D01*
X109817001Y-113095000D01*
X109815001Y-113093000D01*
X109813001Y-113092000D01*
X109811001Y-113090000D01*
X109809001Y-113089000D01*
X109807001Y-113087000D01*
X109805001Y-113085000D01*
X109803001Y-113083000D01*
X109801001Y-113081000D01*
X109800001Y-113079000D01*
X109798001Y-113077000D01*
X109797001Y-113075000D01*
X109795001Y-113073000D01*
X109794001Y-113070000D01*
X109793001Y-113068000D01*
X109792001Y-113065000D01*
X109792001Y-113063000D01*
X109791001Y-113060000D01*
X109791001Y-113058000D01*
X109790001Y-113055000D01*
X109790001Y-113053000D01*
X109790001Y-113050000D01*
X109790001Y-112450000D01*
X109790001Y-112447000D01*
X109790001Y-112445000D01*
X109791001Y-112442000D01*
X109791001Y-112440000D01*
X109792001Y-112437000D01*
X109792001Y-112435000D01*
X109793001Y-112432000D01*
X109794001Y-112430000D01*
X109795001Y-112427000D01*
X109797001Y-112425000D01*
X109798001Y-112423000D01*
X109800001Y-112421000D01*
X109801001Y-112419000D01*
X109803001Y-112417000D01*
X109805001Y-112415000D01*
X109807001Y-112413000D01*
X109809001Y-112411000D01*
X109811001Y-112410000D01*
X109813001Y-112408000D01*
X109815001Y-112407000D01*
X109817001Y-112405000D01*
X109820001Y-112404000D01*
X109822001Y-112403000D01*
X109825001Y-112402000D01*
X109827001Y-112402000D01*
X109830001Y-112401000D01*
X109832001Y-112401000D01*
X109835001Y-112400000D01*
X109837001Y-112400000D01*
X109840001Y-112400000D01*
X110640001Y-112400000D01*
X110643001Y-112400000D01*
X110645001Y-112400000D01*
X110648001Y-112401000D01*
G36*
X110648001Y-112401000D02*
G01*
X110650001Y-112401000D01*
X110653001Y-112402000D01*
X110655001Y-112402000D01*
X110658001Y-112403000D01*
X110660001Y-112404000D01*
X110663001Y-112405000D01*
X110665001Y-112407000D01*
X110667001Y-112408000D01*
X110669001Y-112410000D01*
X110671001Y-112411000D01*
X110673001Y-112413000D01*
X110675001Y-112415000D01*
X110677001Y-112417000D01*
X110679001Y-112419000D01*
X110680001Y-112421000D01*
X110682001Y-112423000D01*
X110683001Y-112425000D01*
X110685001Y-112427000D01*
X110686001Y-112430000D01*
X110687001Y-112432000D01*
X110688001Y-112435000D01*
X110688001Y-112437000D01*
X110689001Y-112440000D01*
X110689001Y-112442000D01*
X110690001Y-112445000D01*
X110690001Y-112447000D01*
X110690001Y-112450000D01*
X110690001Y-112550000D01*
X110690001Y-112553000D01*
X110690001Y-112555000D01*
X110689001Y-112558000D01*
X110689001Y-112560000D01*
X110688001Y-112563000D01*
X110688001Y-112565000D01*
X110687001Y-112568000D01*
X110686001Y-112570000D01*
X110685001Y-112573000D01*
X110683001Y-112575000D01*
X110682001Y-112577000D01*
X110680001Y-112579000D01*
X110679001Y-112581000D01*
X110677001Y-112583000D01*
X110675001Y-112585000D01*
X110673001Y-112587000D01*
X110671001Y-112589000D01*
X110669001Y-112590000D01*
X110667001Y-112592000D01*
X110665001Y-112593000D01*
X110663001Y-112595000D01*
X110660001Y-112596000D01*
X110658001Y-112597000D01*
X110655001Y-112598000D01*
X110653001Y-112598000D01*
X110650001Y-112599000D01*
X110648001Y-112599000D01*
X110645001Y-112600000D01*
X110643001Y-112600000D01*
X110640001Y-112600000D01*
X109990001Y-112600000D01*
X109990001Y-113050000D01*
X109990001Y-113053000D01*
X109990001Y-113055000D01*
X109989001Y-113058000D01*
X109989001Y-113060000D01*
X109988001Y-113063000D01*
X109988001Y-113065000D01*
X109987001Y-113068000D01*
X109986001Y-113070000D01*
X109985001Y-113073000D01*
X109983001Y-113075000D01*
X109982001Y-113077000D01*
X109980001Y-113079000D01*
X109979001Y-113081000D01*
X109977001Y-113083000D01*
X109975001Y-113085000D01*
X109973001Y-113087000D01*
X109971001Y-113089000D01*
X109969001Y-113090000D01*
X109967001Y-113092000D01*
X109965001Y-113093000D01*
X109963001Y-113095000D01*
X109960001Y-113096000D01*
X109958001Y-113097000D01*
X109955001Y-113098000D01*
X109953001Y-113098000D01*
X109950001Y-113099000D01*
X109948001Y-113099000D01*
X109945001Y-113100000D01*
X109943001Y-113100000D01*
X109940001Y-113100000D01*
X109840001Y-113100000D01*
X109837001Y-113100000D01*
X109835001Y-113100000D01*
X109832001Y-113099000D01*
X109830001Y-113099000D01*
X109827001Y-113098000D01*
X109825001Y-113098000D01*
X109822001Y-113097000D01*
X109820001Y-113096000D01*
X109817001Y-113095000D01*
X109815001Y-113093000D01*
X109813001Y-113092000D01*
X109811001Y-113090000D01*
X109809001Y-113089000D01*
X109807001Y-113087000D01*
X109805001Y-113085000D01*
X109803001Y-113083000D01*
X109801001Y-113081000D01*
X109800001Y-113079000D01*
X109798001Y-113077000D01*
X109797001Y-113075000D01*
X109795001Y-113073000D01*
X109794001Y-113070000D01*
X109793001Y-113068000D01*
X109792001Y-113065000D01*
X109792001Y-113063000D01*
X109791001Y-113060000D01*
X109791001Y-113058000D01*
X109790001Y-113055000D01*
X109790001Y-113053000D01*
X109790001Y-113050000D01*
X109790001Y-112450000D01*
X109790001Y-112447000D01*
X109790001Y-112445000D01*
X109791001Y-112442000D01*
X109791001Y-112440000D01*
X109792001Y-112437000D01*
X109792001Y-112435000D01*
X109793001Y-112432000D01*
X109794001Y-112430000D01*
X109795001Y-112427000D01*
X109797001Y-112425000D01*
X109798001Y-112423000D01*
X109800001Y-112421000D01*
X109801001Y-112419000D01*
X109803001Y-112417000D01*
X109805001Y-112415000D01*
X109807001Y-112413000D01*
X109809001Y-112411000D01*
X109811001Y-112410000D01*
X109813001Y-112408000D01*
X109815001Y-112407000D01*
X109817001Y-112405000D01*
X109820001Y-112404000D01*
X109822001Y-112403000D01*
X109825001Y-112402000D01*
X109827001Y-112402000D01*
X109830001Y-112401000D01*
X109832001Y-112401000D01*
X109835001Y-112400000D01*
X109837001Y-112400000D01*
X109840001Y-112400000D01*
X110640001Y-112400000D01*
X110643001Y-112400000D01*
X110645001Y-112400000D01*
X110648001Y-112401000D01*
G37*
%TD*%
D12*
%TO.C,C59*%
X67535000Y41715000D03*
X70485000Y41715000D03*
%TD*%
D13*
%TO.C,R50*%
X85120000Y-93170000D03*
X85120000Y-92150000D03*
%TD*%
D14*
%TO.C,D5*%
X161510000Y-122647500D03*
X158210000Y-122647500D03*
X158210000Y-127547500D03*
X161510000Y-127547500D03*
%TD*%
D15*
%TO.C,R60*%
X70992500Y-83480000D03*
X69167500Y-83480000D03*
%TD*%
D16*
%TO.C,C8*%
X97515556Y-110150000D03*
X97515556Y-112050000D03*
%TD*%
D17*
%TO.C,C23*%
X111910000Y-109830000D03*
X111910000Y-110790000D03*
%TD*%
D18*
%TO.C,C51*%
X86370000Y-93130000D03*
X86370000Y-92170000D03*
%TD*%
D19*
%TO.C,C22*%
X110180001Y-107799999D03*
X109220001Y-107799999D03*
%TD*%
D20*
%TO.C,R3*%
X354825000Y-74820000D03*
X356650000Y-74820000D03*
%TD*%
D21*
%TO.C,Q8*%
X64536200Y-99685000D03*
X64536200Y-100955000D03*
X64536200Y-102225000D03*
X64536200Y-103495000D03*
X69463800Y-103495000D03*
X69463800Y-102225000D03*
X69463800Y-100955000D03*
X69463800Y-99685000D03*
%TD*%
D22*
%TO.C,R49*%
X80790000Y-100300000D03*
X81810000Y-100300000D03*
%TD*%
D23*
%TO.C,Q3*%
X92907500Y-119580000D03*
X91687500Y-119580000D03*
X92907500Y-120530000D03*
X91687500Y-120530000D03*
D24*
X93270000Y-121110000D03*
X92627500Y-121110000D03*
X91967500Y-121110000D03*
X91325000Y-121110000D03*
X93267500Y-118230000D03*
X92627500Y-118230000D03*
X91967500Y-118230000D03*
X91327500Y-118230000D03*
%TD*%
D20*
%TO.C,R11*%
X60720000Y47485000D03*
X62545000Y47485000D03*
%TD*%
D25*
%TO.C,C46*%
X79700000Y-94730000D03*
X79700000Y-96280000D03*
%TD*%
D23*
%TO.C,Q2*%
X91850000Y-103015000D03*
X93070000Y-103015000D03*
X91850000Y-102065000D03*
X93070000Y-102065000D03*
D26*
X91487500Y-101485000D03*
X92130000Y-101485000D03*
X92790000Y-101485000D03*
X93432500Y-101485000D03*
X91490000Y-104365000D03*
X92130000Y-104365000D03*
X92790000Y-104365000D03*
X93430000Y-104365000D03*
%TD*%
D27*
%TO.C,R51*%
X82010000Y-91520000D03*
X80990000Y-91520000D03*
%TD*%
D28*
%TO.C,C18*%
X103550000Y-112270000D03*
X103550000Y-110720000D03*
%TD*%
D20*
%TO.C,R62*%
X122267500Y-85340000D03*
X124092500Y-85340000D03*
%TD*%
D16*
%TO.C,C10*%
X101590000Y-110130000D03*
X101590000Y-112030000D03*
%TD*%
D29*
%TO.C,R16*%
X82187500Y-119420000D03*
X86812500Y-119420000D03*
%TD*%
D30*
%TO.C,U6*%
X79000000Y-92520000D03*
X79000000Y-92020000D03*
X79000000Y-91520000D03*
X79000000Y-91020000D03*
X79000000Y-90520000D03*
X79000000Y-90020000D03*
D31*
X78250000Y-89270000D03*
X77750000Y-89270000D03*
X77250000Y-89270000D03*
X76750000Y-89270000D03*
X76250000Y-89270000D03*
X75750000Y-89270000D03*
D30*
X75000000Y-90020000D03*
X75000000Y-90520000D03*
X75000000Y-91020000D03*
X75000000Y-91520000D03*
X75000000Y-92020000D03*
X75000000Y-92520000D03*
D31*
X75750000Y-93270000D03*
X76250000Y-93270000D03*
X76750000Y-93270000D03*
X77250000Y-93270000D03*
X77750000Y-93270000D03*
X78250000Y-93270000D03*
D32*
X77000000Y-91270000D03*
%TD*%
D33*
%TO.C,R2*%
X163510000Y-83192500D03*
X163510000Y-81367500D03*
%TD*%
D20*
%TO.C,R57*%
X81057500Y-87550000D03*
X82882500Y-87550000D03*
%TD*%
%TO.C,R6*%
X391417500Y-62865000D03*
X393242500Y-62865000D03*
%TD*%
D17*
%TO.C,C17*%
X106910000Y-114310000D03*
X106910000Y-115270000D03*
%TD*%
D34*
%TO.C,C55*%
X75805000Y43205000D03*
X77705000Y43205000D03*
%TD*%
D35*
%TO.C,D6*%
X146710000Y-127670000D03*
X150010000Y-127670000D03*
X150010000Y-122770000D03*
X146710000Y-122770000D03*
%TD*%
D36*
%TO.C,U1*%
X195990000Y-89100000D03*
X194720000Y-89100000D03*
X193450000Y-89100000D03*
X192180000Y-89100000D03*
X190910000Y-89100000D03*
X189640000Y-89100000D03*
X188370000Y-89100000D03*
X187100000Y-89100000D03*
X185830000Y-89100000D03*
X184560000Y-89100000D03*
X183290000Y-89100000D03*
X182020000Y-89100000D03*
X180750000Y-89100000D03*
X179480000Y-89100000D03*
X179480000Y-106600000D03*
X180750000Y-106600000D03*
X182020000Y-106600000D03*
X183290000Y-106600000D03*
X184560000Y-106600000D03*
X185830000Y-106600000D03*
X187100000Y-106600000D03*
X188370000Y-106600000D03*
X189640000Y-106600000D03*
X190910000Y-106600000D03*
X192180000Y-106600000D03*
X193450000Y-106600000D03*
X194720000Y-106600000D03*
X195990000Y-106600000D03*
D37*
X190270000Y-96345000D03*
X191520000Y-95095000D03*
X190270000Y-95095000D03*
X189020000Y-95095000D03*
X189020000Y-96345000D03*
X189020000Y-97595000D03*
X190270000Y-97595000D03*
X191520000Y-97595000D03*
X191520000Y-96345000D03*
%TD*%
D20*
%TO.C,R10*%
X89457500Y-70710000D03*
X91282500Y-70710000D03*
%TD*%
D38*
%TO.C,C25*%
X112690001Y-107299999D03*
X112690001Y-105399999D03*
%TD*%
D20*
%TO.C,R9*%
X60720000Y50435000D03*
X62545000Y50435000D03*
%TD*%
D39*
%TO.C,J8*%
X77960000Y-71510000D03*
X78660000Y-71510000D03*
X79360000Y-71510000D03*
X80060000Y-71510000D03*
X80760000Y-71510000D03*
X81460000Y-71510000D03*
X82160000Y-71510000D03*
X82860000Y-71510000D03*
X83560000Y-71510000D03*
X84260000Y-71510000D03*
X84960000Y-71510000D03*
X85660000Y-71510000D03*
%TD*%
D40*
%TO.C,C50*%
X80830000Y-99080000D03*
X81790000Y-99080000D03*
%TD*%
D41*
%TO.C,D14*%
X378772500Y-69120000D03*
X382072500Y-69120000D03*
%TD*%
D42*
%TO.C,R29*%
X126280000Y-107312500D03*
X126280000Y-102687500D03*
%TD*%
D25*
%TO.C,C29*%
X114820000Y-109830000D03*
X114820000Y-111380000D03*
%TD*%
D15*
%TO.C,R17*%
X353495000Y-6325000D03*
X351670000Y-6325000D03*
%TD*%
D17*
%TO.C,C41*%
X111910000Y-111750000D03*
X111910000Y-112710000D03*
%TD*%
D43*
%TO.C,U9*%
X99799999Y-90500001D03*
X100300000Y-90500001D03*
D44*
X100799999Y-90550001D03*
X101300001Y-90550001D03*
X101800000Y-90550001D03*
X102299999Y-90550001D03*
X102800001Y-90550001D03*
D43*
X103300000Y-90500001D03*
X103800001Y-90500001D03*
D45*
X104649999Y-89200001D03*
D46*
X104749999Y-88700000D03*
X104749999Y-87699999D03*
X104749999Y-87200000D03*
D45*
X104649999Y-85700000D03*
X98950001Y-85700000D03*
D46*
X98850001Y-87200000D03*
X98850001Y-87699999D03*
X98850001Y-88700000D03*
D45*
X98950001Y-89200001D03*
%TD*%
D29*
%TO.C,R15*%
X82325000Y-103280000D03*
X86950000Y-103280000D03*
%TD*%
D33*
%TO.C,R1*%
X160560000Y-83192500D03*
X160560000Y-81367500D03*
%TD*%
D47*
%TO.C,C43*%
X77935000Y-97690000D03*
X76385000Y-97690000D03*
%TD*%
D17*
%TO.C,C11*%
X104860000Y-109700000D03*
X104860000Y-110660000D03*
%TD*%
D20*
%TO.C,R8*%
X60720000Y53385000D03*
X62545000Y53385000D03*
%TD*%
D15*
%TO.C,R5*%
X338375000Y52705000D03*
X336550000Y52705000D03*
%TD*%
D48*
%TO.C,R31*%
X111690000Y-118417500D03*
X111690000Y-123042500D03*
%TD*%
D12*
%TO.C,C60*%
X67535000Y37465000D03*
X70485000Y37465000D03*
%TD*%
D33*
%TO.C,R39*%
X90620000Y-79672500D03*
X90620000Y-77847500D03*
%TD*%
D49*
%TO.C,C40*%
X96255000Y-101400000D03*
X102480000Y-101400000D03*
%TD*%
D50*
%TO.C,Q10*%
X77505000Y-86680000D03*
X79410000Y-86680000D03*
X78457500Y-84673400D03*
%TD*%
D14*
%TO.C,D7*%
X138510000Y-122770000D03*
X135210000Y-122770000D03*
X135210000Y-127670000D03*
X138510000Y-127670000D03*
%TD*%
D20*
%TO.C,R61*%
X122267500Y-81840000D03*
X124092500Y-81840000D03*
%TD*%
D51*
%TO.C,L1*%
X105945000Y-99890000D03*
X111495000Y-99890000D03*
%TD*%
D52*
%TO.C,D4*%
X66000000Y-88330000D03*
X66000000Y-87974400D03*
%TD*%
D20*
%TO.C,R7*%
X60720000Y56335000D03*
X62545000Y56335000D03*
%TD*%
D53*
%TO.C,J1*%
X63105000Y-85780000D03*
X63105000Y-96000000D03*
X59175000Y-85780000D03*
X59175000Y-96000000D03*
D54*
X63680000Y-87689999D03*
X63680000Y-88490000D03*
D55*
X63680000Y-89640000D03*
X63680000Y-90640000D03*
X63680000Y-91140000D03*
X63680000Y-92140000D03*
D54*
X63680000Y-93290000D03*
X63680000Y-94089999D03*
D55*
X63680000Y-92639999D03*
X63680000Y-91640001D03*
X63680000Y-90139999D03*
X63680000Y-89140001D03*
%TD*%
D38*
%TO.C,C31*%
X100540000Y-106780000D03*
X100540000Y-104880000D03*
%TD*%
D56*
%TO.C,U4*%
X106590001Y-109700000D03*
X106590001Y-110100000D03*
X106590001Y-110500000D03*
X106590001Y-110900000D03*
X106590001Y-111300000D03*
X106590001Y-111700000D03*
X106590001Y-112100000D03*
D57*
X107490001Y-112800000D03*
X107890001Y-112800000D03*
X108290001Y-112800000D03*
X108690001Y-112800000D03*
X109090001Y-112800000D03*
X109490001Y-112800000D03*
D58*
X110340001Y-112100000D03*
D59*
X110365001Y-111700000D03*
D60*
X110352501Y-111300000D03*
D56*
X110390001Y-110900000D03*
X110390001Y-110500000D03*
X110390001Y-110100000D03*
X110390001Y-109700000D03*
D61*
X109390001Y-109200000D03*
X108940001Y-109200000D03*
X108490001Y-109200000D03*
X108040001Y-109200000D03*
D62*
X107590001Y-109175000D03*
%TD*%
D40*
%TO.C,C68*%
X74810000Y-94710000D03*
X75770000Y-94710000D03*
%TD*%
D20*
%TO.C,R12*%
X60720000Y44535000D03*
X62545000Y44535000D03*
%TD*%
D63*
%TO.C,D11*%
X89610000Y-106120000D03*
X89610000Y-104720000D03*
%TD*%
D19*
%TO.C,C44*%
X78070000Y-94710000D03*
X77110000Y-94710000D03*
%TD*%
D25*
%TO.C,C33*%
X116410000Y-109830000D03*
X116410000Y-111380000D03*
%TD*%
D34*
%TO.C,C7*%
X75945000Y47815000D03*
X77845000Y47815000D03*
%TD*%
D64*
%TO.C,U8*%
X67930000Y-76660000D03*
X67930000Y-77780000D03*
X67930000Y-78900000D03*
X69050000Y-76660000D03*
X69050000Y-77780000D03*
X69050000Y-78900000D03*
X70170000Y-76660000D03*
X70170000Y-77780000D03*
X70170000Y-78900000D03*
D65*
X66600000Y-76280000D03*
X66600000Y-76780000D03*
X66600000Y-77280000D03*
X66600000Y-77780000D03*
X66600000Y-78280000D03*
X66600000Y-78780000D03*
X66600000Y-79280000D03*
D66*
X67550000Y-80230000D03*
X68050000Y-80230000D03*
X68550000Y-80230000D03*
X69050000Y-80230000D03*
X69550000Y-80230000D03*
X70050000Y-80230000D03*
X70550000Y-80230000D03*
D65*
X71500000Y-79280000D03*
X71500000Y-78780000D03*
X71500000Y-78280000D03*
X71500000Y-77780000D03*
X71500000Y-77280000D03*
X71500000Y-76780000D03*
X71500000Y-76280000D03*
D66*
X70550000Y-75330000D03*
X70050000Y-75330000D03*
X69550000Y-75330000D03*
X69050000Y-75330000D03*
X68550000Y-75330000D03*
X68050000Y-75330000D03*
X67550000Y-75330000D03*
%TD*%
D20*
%TO.C,R4*%
X163957500Y-120340000D03*
X165782500Y-120340000D03*
%TD*%
D67*
%TO.C,C49*%
X69190000Y-93915000D03*
X69190000Y-96865000D03*
%TD*%
D33*
%TO.C,R36*%
X81770000Y-79672500D03*
X81770000Y-77847500D03*
%TD*%
D25*
%TO.C,C26*%
X113230000Y-109830000D03*
X113230000Y-111380000D03*
%TD*%
D38*
%TO.C,C24*%
X104970000Y-106780000D03*
X104970000Y-104880000D03*
%TD*%
D23*
%TO.C,Q4*%
X92975000Y-107780000D03*
X91755000Y-107780000D03*
X92975000Y-108730000D03*
X91755000Y-108730000D03*
D24*
X93337500Y-109310000D03*
X92695000Y-109310000D03*
X92035000Y-109310000D03*
X91392500Y-109310000D03*
X93335000Y-106430000D03*
X92695000Y-106430000D03*
X92035000Y-106430000D03*
X91395000Y-106430000D03*
%TD*%
D68*
%TO.C,D8*%
X347732500Y-40655000D03*
X347732500Y-37355000D03*
%TD*%
D38*
%TO.C,C27*%
X102770000Y-106780000D03*
X102770000Y-104880000D03*
%TD*%
D40*
%TO.C,C52*%
X8352500Y45365000D03*
X9312500Y45365000D03*
%TD*%
D28*
%TO.C,C53*%
X7332500Y47590000D03*
X7332500Y49140000D03*
%TD*%
D12*
%TO.C,C58*%
X67535000Y45965000D03*
X70485000Y45965000D03*
%TD*%
D38*
%TO.C,C30*%
X117190001Y-107299999D03*
X117190001Y-105399999D03*
%TD*%
D40*
%TO.C,C21*%
X106820000Y-107770000D03*
X107780000Y-107770000D03*
%TD*%
D33*
%TO.C,R37*%
X84720000Y-79672500D03*
X84720000Y-77847500D03*
%TD*%
D16*
%TO.C,C9*%
X99567778Y-110130000D03*
X99567778Y-112030000D03*
%TD*%
D33*
%TO.C,R34*%
X75870000Y-79672500D03*
X75870000Y-77847500D03*
%TD*%
D63*
%TO.C,D12*%
X89387500Y-118145000D03*
X89387500Y-116745000D03*
%TD*%
D40*
%TO.C,C61*%
X64792500Y56825000D03*
X65752500Y56825000D03*
%TD*%
D38*
%TO.C,C28*%
X114940001Y-107299999D03*
X114940001Y-105399999D03*
%TD*%
D69*
%TO.C,R58*%
X72760000Y-83680000D03*
X74410000Y-83680000D03*
%TD*%
D70*
%TO.C,D16*%
X72700000Y-85722500D03*
X72700000Y-87297500D03*
%TD*%
D33*
%TO.C,R38*%
X87670000Y-79672500D03*
X87670000Y-77847500D03*
%TD*%
D71*
%TO.C,Q7*%
X69390000Y-71310000D03*
X69390000Y-71960000D03*
X69390000Y-72610000D03*
X71290000Y-72610000D03*
X71290000Y-71960000D03*
X71290000Y-71310000D03*
%TD*%
D34*
%TO.C,C56*%
X75745000Y41015000D03*
X77645000Y41015000D03*
%TD*%
D33*
%TO.C,R59*%
X73750000Y-81692500D03*
X73750000Y-79867500D03*
%TD*%
D23*
%TO.C,Q5*%
X91782500Y-114760000D03*
X93002500Y-114760000D03*
X91782500Y-113810000D03*
X93002500Y-113810000D03*
D26*
X91420000Y-113230000D03*
X92062500Y-113230000D03*
X92722500Y-113230000D03*
X93365000Y-113230000D03*
X91422500Y-116110000D03*
X92062500Y-116110000D03*
X92722500Y-116110000D03*
X93362500Y-116110000D03*
%TD*%
D17*
%TO.C,C16*%
X108510000Y-114310000D03*
X108510000Y-115270000D03*
%TD*%
D33*
%TO.C,R21*%
X86830000Y-116532500D03*
X86830000Y-114707500D03*
%TD*%
D12*
%TO.C,C57*%
X67535000Y50215000D03*
X70485000Y50215000D03*
%TD*%
D34*
%TO.C,C54*%
X75895000Y45515000D03*
X77795000Y45515000D03*
%TD*%
D72*
%TO.C,R20*%
X86830000Y-105897500D03*
X86830000Y-107722500D03*
%TD*%
D19*
%TO.C,C45*%
X78070000Y-95840000D03*
X77110000Y-95840000D03*
%TD*%
D33*
%TO.C,R35*%
X78820000Y-79672500D03*
X78820000Y-77847500D03*
%TD*%
D52*
%TO.C,D3*%
X66000000Y-93442200D03*
X66000000Y-93797800D03*
%TD*%
D23*
%TO.C,Q6*%
X119960000Y-115650000D03*
X118740000Y-115650000D03*
X119960000Y-116600000D03*
X118740000Y-116600000D03*
D24*
X120322500Y-117180000D03*
X119680000Y-117180000D03*
X119020000Y-117180000D03*
X118377500Y-117180000D03*
X120320000Y-114300000D03*
X119680000Y-114300000D03*
X119020000Y-114300000D03*
X118380000Y-114300000D03*
%TD*%
D73*
%TO.C,U5*%
X68710000Y-87590000D03*
X67910000Y-87590000D03*
D74*
X68960000Y-86702500D03*
X68310000Y-86702500D03*
X67660000Y-86702500D03*
X67660000Y-88477500D03*
X68310000Y-88477500D03*
X68960000Y-88477500D03*
%TD*%
M02*
