%TF.GenerationSoftware,KiCad,Pcbnew,8.0.6*%
%TF.CreationDate,2025-02-07T14:21:57-05:00*%
%TF.ProjectId,SCAN,5343414e-2e6b-4696-9361-645f70636258,v1.0*%
%TF.SameCoordinates,Original*%
%TF.FileFunction,Copper,L2,Inr*%
%TF.FilePolarity,Positive*%
%FSLAX46Y46*%
G04 Gerber Fmt 4.6, Leading zero omitted, Abs format (unit mm)*
G04 Created by KiCad (PCBNEW 8.0.6) date 2025-02-07 14:21:57*
%MOMM*%
%LPD*%
G01*
G04 APERTURE LIST*
%TA.AperFunction,ComponentPad*%
%ADD10R,1.700000X1.700000*%
%TD*%
%TA.AperFunction,ComponentPad*%
%ADD11O,1.700000X1.700000*%
%TD*%
%TA.AperFunction,ComponentPad*%
%ADD12R,2.100000X2.100000*%
%TD*%
%TA.AperFunction,ComponentPad*%
%ADD13C,2.100000*%
%TD*%
%TA.AperFunction,ComponentPad*%
%ADD14R,1.130000X1.130000*%
%TD*%
%TA.AperFunction,ComponentPad*%
%ADD15C,1.130000*%
%TD*%
%TA.AperFunction,ViaPad*%
%ADD16C,0.500000*%
%TD*%
%TA.AperFunction,ViaPad*%
%ADD17C,0.600000*%
%TD*%
%TA.AperFunction,ViaPad*%
%ADD18C,0.400000*%
%TD*%
%TA.AperFunction,ViaPad*%
%ADD19C,1.000000*%
%TD*%
%TA.AperFunction,ViaPad*%
%ADD20C,0.350000*%
%TD*%
%TA.AperFunction,ViaPad*%
%ADD21C,0.550000*%
%TD*%
G04 APERTURE END LIST*
D10*
%TO.N,/BUZZER_PWM*%
%TO.C,BZ1*%
X150155000Y-71450000D03*
D11*
%TO.N,AGND*%
X152695000Y-71450000D03*
%TD*%
D10*
%TO.N,3.3V_SYS*%
%TO.C,J4*%
X125295000Y-71500000D03*
D11*
%TO.N,/PIR_OUT*%
X127835000Y-71500000D03*
%TO.N,AGND*%
X130375000Y-71500000D03*
%TD*%
D12*
%TO.N,PGND*%
%TO.C,J3*%
X79122500Y-114850000D03*
D13*
%TO.N,/Power Management/PV_IN*%
X84122500Y-114850000D03*
%TD*%
D14*
%TO.N,AGND*%
%TO.C,U2*%
X169600000Y-93950000D03*
D15*
X167060000Y-93950000D03*
X164520000Y-93950000D03*
%TO.N,/Keypad/P0*%
X161980000Y-93950000D03*
%TO.N,/Keypad/P1*%
X159440000Y-93950000D03*
%TO.N,/Keypad/P2*%
X156900000Y-93950000D03*
%TO.N,/Keypad/P3*%
X154360000Y-93950000D03*
%TO.N,AGND*%
X151820000Y-93950000D03*
%TO.N,/Keypad/P4*%
X151820000Y-101890000D03*
%TO.N,/Keypad/P5*%
X154360000Y-101890000D03*
%TO.N,/Keypad/P6*%
X156900000Y-101890000D03*
%TO.N,/Keypad/P7*%
X159440000Y-101890000D03*
%TO.N,/KEYPAD_INT*%
X161980000Y-101890000D03*
%TO.N,/I2C_SCL*%
X164520000Y-101890000D03*
%TO.N,/I2C_SDA*%
X167060000Y-101890000D03*
%TO.N,3.3V_SYS*%
X169600000Y-101890000D03*
%TD*%
D12*
%TO.N,PGND*%
%TO.C,J2*%
X107732500Y-117190000D03*
D13*
%TO.N,/Power Management/BAT_IN*%
X112732500Y-117190000D03*
%TD*%
D10*
%TO.N,/Keypad/P0*%
%TO.C,J9*%
X144920000Y-89085000D03*
D11*
%TO.N,/Keypad/P1*%
X144920000Y-91625000D03*
%TO.N,/Keypad/P2*%
X144920000Y-94165000D03*
%TO.N,/Keypad/P3*%
X144920000Y-96705000D03*
%TO.N,/Keypad/P4*%
X144920000Y-99245000D03*
%TO.N,/Keypad/P5*%
X144920000Y-101785000D03*
%TO.N,/Keypad/P6*%
X144920000Y-104325000D03*
%TO.N,/Keypad/P7*%
X144920000Y-106865000D03*
%TD*%
D10*
%TO.N,/SPI_CLK*%
%TO.C,J7*%
X184150000Y-74340000D03*
D11*
%TO.N,/SPI_MISO*%
X181610000Y-74340000D03*
%TO.N,/SPI_MOSI*%
X179070000Y-74340000D03*
%TO.N,/SPI_CS*%
X176530000Y-74340000D03*
%TO.N,3.3V_SYS*%
X173990000Y-74340000D03*
%TO.N,AGND*%
X171450000Y-74340000D03*
%TO.N,/NFC_INT*%
X168910000Y-74340000D03*
%TO.N,/NFC_RST*%
X166370000Y-74340000D03*
%TD*%
D16*
%TO.N,PGND*%
X58200000Y-92990000D03*
D17*
X93040000Y-77880000D03*
X58730000Y-94350000D03*
X59970000Y-91970000D03*
X61220000Y-95930000D03*
X65380000Y-96860000D03*
X92549063Y-86679060D03*
D16*
X76190000Y-94020000D03*
X117332500Y-103660000D03*
D17*
X91030000Y-88060000D03*
X94650000Y-87490000D03*
D16*
X60970000Y-88870000D03*
D17*
X92520000Y-78510000D03*
X93530000Y-84540000D03*
D16*
X65030000Y-92610000D03*
D17*
X92530000Y-76150000D03*
X117932500Y-98560000D03*
X66970000Y-96860000D03*
X91860000Y-84570000D03*
X94410000Y-84500000D03*
X93040000Y-80000000D03*
X81050000Y-96510000D03*
X65380000Y-98100000D03*
X91920000Y-88780000D03*
X92750000Y-86070000D03*
X91890000Y-87300000D03*
X117592500Y-97760000D03*
X91260000Y-86720000D03*
X60930000Y-99630000D03*
X93050000Y-81000000D03*
X93040000Y-79010000D03*
X93510000Y-88850000D03*
X80210000Y-97070000D03*
D16*
X76190000Y-93010000D03*
D17*
X94540000Y-88150000D03*
X94190000Y-86730000D03*
X65590000Y-99240000D03*
X93010000Y-75520000D03*
X117232500Y-98550000D03*
X82890000Y-98000000D03*
X75950000Y-95930000D03*
X94290000Y-88790000D03*
X92510000Y-80560000D03*
X91050000Y-88720000D03*
X78840000Y-88412500D03*
X92590000Y-81620000D03*
X92550000Y-77250000D03*
X91030000Y-84490000D03*
X66970000Y-98100000D03*
D16*
X117842500Y-103280000D03*
D17*
X66770000Y-99240000D03*
D16*
X76190000Y-91940000D03*
D17*
X93060000Y-76640000D03*
X91010000Y-87380000D03*
X92700000Y-84620000D03*
X92520000Y-79520000D03*
X61220000Y-97930000D03*
X75490000Y-96750000D03*
X92730000Y-85410000D03*
D16*
X116742500Y-103400000D03*
D17*
X92740000Y-88830000D03*
X86202222Y-98000000D03*
D16*
X117392500Y-102850000D03*
D17*
X93640000Y-87430000D03*
%TO.N,/Power Management/PMID*%
X97890000Y-85370000D03*
X101050000Y-85390000D03*
X83860000Y-86490000D03*
X87710000Y-85330000D03*
X84800000Y-85380000D03*
X101830000Y-86610000D03*
%TO.N,/Power Management/REGN*%
X112462500Y-105220000D03*
%TO.N,AGND*%
X113562500Y-107910000D03*
X171430000Y-76300000D03*
X182370000Y-114210000D03*
D18*
X120012500Y-102350000D03*
D17*
X173460000Y-114210000D03*
X163340000Y-94060000D03*
X195990000Y-86940000D03*
X114072500Y-109120000D03*
D19*
X151860000Y-113042500D03*
X156380000Y-117830000D03*
D17*
X73130000Y-76050000D03*
X89890000Y-72600000D03*
X94060000Y-72630000D03*
X175540000Y-108050000D03*
X165810000Y-93950000D03*
X86740000Y-72590000D03*
X189680000Y-87550000D03*
X132760000Y-71510000D03*
X155210000Y-71510000D03*
D19*
X133270000Y-117962500D03*
D17*
X114482500Y-107830000D03*
X170930000Y-94760000D03*
X113542500Y-111020000D03*
%TO.N,/Power Management/ACDRV1*%
X116632500Y-106160000D03*
D18*
%TO.N,/Power Management/VAC2*%
X114612500Y-104820000D03*
D17*
%TO.N,/Power Management/ACDRV2*%
X109962500Y-105210000D03*
%TO.N,/Power Management/BATP*%
X122472500Y-104520000D03*
%TO.N,Net-(D12-K)*%
X103702500Y-107800000D03*
D18*
%TO.N,/Power Management/VAC1*%
X115302500Y-105280000D03*
D17*
%TO.N,3.3V_SYS*%
X96070000Y-76730000D03*
X96190000Y-80350000D03*
X98050000Y-83700000D03*
X95720000Y-79790000D03*
X98740000Y-83170000D03*
X94780000Y-74600000D03*
X96160000Y-81630000D03*
X96170000Y-79130000D03*
X195360000Y-85310000D03*
X95760000Y-82300000D03*
X95670000Y-76140000D03*
X96180000Y-77910000D03*
X95680000Y-80940000D03*
X96600000Y-82650000D03*
X95520000Y-75210000D03*
X96120000Y-75510000D03*
X95640000Y-78580000D03*
X173960000Y-76280000D03*
X194940000Y-84450000D03*
X97140000Y-83230000D03*
X189720000Y-79790000D03*
X99410000Y-71760000D03*
X194380000Y-85230000D03*
X95680000Y-77280000D03*
X94120000Y-75080000D03*
X88480000Y-72580000D03*
D18*
%TO.N,/Power Management/PROG*%
X118452500Y-102780000D03*
D20*
%TO.N,/CHIP_PU*%
X193450000Y-89100000D03*
X193250000Y-91170000D03*
X82490000Y-79640000D03*
X189810000Y-109600000D03*
X175690000Y-78280000D03*
D16*
%TO.N,/USB_D+*%
X62500000Y-93380000D03*
D20*
X70070000Y-76740000D03*
%TO.N,/USB_D-*%
X68430000Y-78440000D03*
D16*
X64940000Y-91870000D03*
%TO.N,/USB_VBUS*%
X71430000Y-87470000D03*
X69350000Y-91000000D03*
D18*
%TO.N,/Power Management/SW1*%
X116902500Y-102110000D03*
D17*
X116532500Y-96570000D03*
X116532500Y-95925000D03*
X116532500Y-95280000D03*
D18*
X116952500Y-101680000D03*
X116452500Y-102110000D03*
X116482500Y-101690000D03*
%TO.N,/Power Management/BTST1*%
X114532500Y-102090000D03*
%TO.N,/Power Management/BTST2*%
X120042500Y-102960000D03*
D17*
%TO.N,/Power Management/SW2*%
X118782500Y-95280000D03*
X118782500Y-96570000D03*
D18*
X117912500Y-102110000D03*
X118382500Y-102090000D03*
X117852500Y-101680000D03*
D17*
X118782500Y-95925000D03*
D18*
X118322500Y-101670000D03*
%TO.N,/Power Management/ILIM_HIZ*%
X120012500Y-103860000D03*
%TO.N,/Power Management/STAT*%
X114582500Y-100440000D03*
D20*
%TO.N,/UART_RXD*%
X179500000Y-86900000D03*
X160900000Y-85570000D03*
D16*
%TO.N,/PD_INT*%
X77340000Y-90170000D03*
D20*
%TO.N,/UART_TXD*%
X121850000Y-73080000D03*
X180690000Y-87430000D03*
%TO.N,/SPI_CLK*%
X183520000Y-86570000D03*
X179200000Y-84920000D03*
X93310000Y-72640000D03*
X184200000Y-77980000D03*
%TO.N,/BUZZER_PWM*%
X182050000Y-86030000D03*
X163690000Y-77830000D03*
%TO.N,/TFT_DC*%
X189640000Y-106600000D03*
X91040000Y-72590000D03*
%TO.N,/BOOT*%
X179440000Y-105100000D03*
X179590000Y-108240000D03*
X179800000Y-110340000D03*
X75660000Y-82720000D03*
%TO.N,/SPI_MOSI*%
X188420000Y-86660000D03*
X178970000Y-72540000D03*
X186470000Y-83760000D03*
%TO.N,/TFT_CS*%
X180750000Y-106600000D03*
X92130000Y-72610000D03*
D16*
%TO.N,Net-(D11-A)*%
X103152500Y-97430000D03*
D20*
%TO.N,/USB_CC1*%
X62580000Y-91350000D03*
D16*
X66360000Y-86490000D03*
%TO.N,/USB_CC2*%
X66320000Y-85750000D03*
D20*
X62580000Y-94380000D03*
D17*
%TO.N,3.3V_VDDD*%
X77960000Y-96050000D03*
X77075000Y-96120000D03*
X85300000Y-98830000D03*
D21*
%TO.N,/USB Power Delivery/ISNK_CRS*%
X84530000Y-90950000D03*
%TO.N,/USB Power Delivery/ISNK_FIN*%
X87840000Y-90870000D03*
D16*
%TO.N,/USB Power Delivery/FET_GATE*%
X61030000Y-102730000D03*
D17*
%TO.N,Net-(D11-K)*%
X97742500Y-98250000D03*
D16*
X103152500Y-96490000D03*
D17*
%TO.N,Net-(Q6-D)*%
X121662500Y-107290000D03*
D20*
%TO.N,Net-(Q7A-B1)*%
X84150000Y-74890000D03*
X85330000Y-76030000D03*
X81550000Y-77810000D03*
X83980000Y-79380000D03*
%TO.N,Net-(Q7B-C2)*%
X80450000Y-79410000D03*
X81830000Y-78440000D03*
%TO.N,Net-(U8-~{SUSPEND})*%
X75390000Y-80410000D03*
X76740000Y-79170000D03*
D16*
%TO.N,/USB Power Delivery/FET_SRC*%
X66560000Y-101980000D03*
X62120000Y-100080000D03*
%TO.N,/USB Power Delivery/PD_FLIP*%
X75590000Y-90210000D03*
D17*
%TO.N,5V_SYS*%
X169220000Y-117800000D03*
X87240000Y-83130000D03*
D19*
X163210000Y-112922500D03*
D17*
X89960000Y-80430000D03*
X89400000Y-79850000D03*
D19*
X144790000Y-117942500D03*
D17*
X88740000Y-82870000D03*
X73150000Y-78030000D03*
X89920000Y-77620000D03*
X90840000Y-74790000D03*
D19*
X140410000Y-113032500D03*
D17*
X89970000Y-81810000D03*
X89360000Y-81120000D03*
X89950000Y-76290000D03*
X89500000Y-75470000D03*
X89890000Y-79120000D03*
X89370000Y-77090000D03*
X88360000Y-83540000D03*
X89360000Y-82290000D03*
X89420000Y-78330000D03*
D20*
%TO.N,/RGB_LED*%
X180310000Y-112000000D03*
X184650000Y-108070000D03*
%TO.N,/NFC_RST*%
X186970000Y-111030000D03*
X185720000Y-108530000D03*
%TO.N,/SPI_CS*%
X183260000Y-102260000D03*
X183270000Y-105180000D03*
D17*
%TO.N,Net-(U6-VBUS_FET_EN)*%
X60830000Y-100830000D03*
D21*
X81910000Y-93040000D03*
%TD*%
%TA.AperFunction,Conductor*%
%TO.N,AGND*%
G36*
X196996588Y-68003412D02*
G01*
X197000000Y-68011650D01*
X197000000Y-122988350D01*
X196996588Y-122996588D01*
X196988350Y-123000000D01*
X57011650Y-123000000D01*
X57003412Y-122996588D01*
X57000000Y-122988350D01*
X57000000Y-118695261D01*
X59619500Y-118695261D01*
X59619500Y-118924738D01*
X59649449Y-119152225D01*
X59649453Y-119152245D01*
X59708842Y-119373886D01*
X59708843Y-119373891D01*
X59796656Y-119585889D01*
X59847462Y-119673887D01*
X59911389Y-119784612D01*
X60051081Y-119966661D01*
X60213339Y-120128919D01*
X60395388Y-120268611D01*
X60594112Y-120383344D01*
X60806113Y-120471158D01*
X60999928Y-120523090D01*
X61027754Y-120530546D01*
X61027756Y-120530546D01*
X61027762Y-120530548D01*
X61027767Y-120530548D01*
X61027774Y-120530550D01*
X61153224Y-120547065D01*
X61255266Y-120560500D01*
X61255267Y-120560500D01*
X61484733Y-120560500D01*
X61484734Y-120560500D01*
X61626085Y-120541890D01*
X61712225Y-120530550D01*
X61712229Y-120530549D01*
X61712238Y-120530548D01*
X61933887Y-120471158D01*
X62145888Y-120383344D01*
X62344612Y-120268611D01*
X62526661Y-120128919D01*
X62688919Y-119966661D01*
X62828611Y-119784612D01*
X62943344Y-119585888D01*
X63031158Y-119373887D01*
X63090548Y-119152238D01*
X63111215Y-118995261D01*
X191129500Y-118995261D01*
X191129500Y-119224738D01*
X191159449Y-119452225D01*
X191159453Y-119452245D01*
X191218842Y-119673886D01*
X191218843Y-119673891D01*
X191306656Y-119885889D01*
X191353288Y-119966658D01*
X191421389Y-120084612D01*
X191561081Y-120266661D01*
X191723339Y-120428919D01*
X191905388Y-120568611D01*
X192104112Y-120683344D01*
X192316113Y-120771158D01*
X192509928Y-120823090D01*
X192537754Y-120830546D01*
X192537756Y-120830546D01*
X192537762Y-120830548D01*
X192537767Y-120830548D01*
X192537774Y-120830550D01*
X192663224Y-120847065D01*
X192765266Y-120860500D01*
X192765267Y-120860500D01*
X192994733Y-120860500D01*
X192994734Y-120860500D01*
X193136085Y-120841890D01*
X193222225Y-120830550D01*
X193222229Y-120830549D01*
X193222238Y-120830548D01*
X193443887Y-120771158D01*
X193655888Y-120683344D01*
X193854612Y-120568611D01*
X194036661Y-120428919D01*
X194198919Y-120266661D01*
X194338611Y-120084612D01*
X194453344Y-119885888D01*
X194541158Y-119673887D01*
X194600548Y-119452238D01*
X194630500Y-119224734D01*
X194630500Y-118995266D01*
X194600548Y-118767762D01*
X194541158Y-118546113D01*
X194453344Y-118334112D01*
X194434410Y-118301318D01*
X194338612Y-118135390D01*
X194338611Y-118135388D01*
X194332980Y-118128050D01*
X194198919Y-117953339D01*
X194036661Y-117791081D01*
X193857156Y-117653341D01*
X193854611Y-117651388D01*
X193854609Y-117651387D01*
X193655889Y-117536656D01*
X193443891Y-117448843D01*
X193443887Y-117448842D01*
X193391953Y-117434926D01*
X193222245Y-117389453D01*
X193222225Y-117389449D01*
X192994738Y-117359500D01*
X192994734Y-117359500D01*
X192765266Y-117359500D01*
X192765261Y-117359500D01*
X192537774Y-117389449D01*
X192537754Y-117389453D01*
X192316113Y-117448842D01*
X192316108Y-117448843D01*
X192104110Y-117536656D01*
X191905390Y-117651387D01*
X191905388Y-117651388D01*
X191723341Y-117791079D01*
X191561079Y-117953341D01*
X191421388Y-118135388D01*
X191421387Y-118135390D01*
X191306656Y-118334110D01*
X191218843Y-118546108D01*
X191218842Y-118546113D01*
X191159453Y-118767754D01*
X191159449Y-118767774D01*
X191129500Y-118995261D01*
X63111215Y-118995261D01*
X63120500Y-118924734D01*
X63120500Y-118695266D01*
X63098419Y-118527544D01*
X63090550Y-118467774D01*
X63090546Y-118467754D01*
X63083090Y-118439928D01*
X63031158Y-118246113D01*
X62943344Y-118034112D01*
X62905410Y-117968409D01*
X62828612Y-117835390D01*
X62828611Y-117835388D01*
X62790510Y-117785734D01*
X62688919Y-117653339D01*
X62526661Y-117491081D01*
X62410961Y-117402301D01*
X62344611Y-117351388D01*
X62344609Y-117351387D01*
X62145889Y-117236656D01*
X61933891Y-117148843D01*
X61933887Y-117148842D01*
X61881953Y-117134926D01*
X61712245Y-117089453D01*
X61712225Y-117089449D01*
X61484738Y-117059500D01*
X61484734Y-117059500D01*
X61255266Y-117059500D01*
X61255261Y-117059500D01*
X61027774Y-117089449D01*
X61027754Y-117089453D01*
X60806113Y-117148842D01*
X60806108Y-117148843D01*
X60594110Y-117236656D01*
X60395390Y-117351387D01*
X60395388Y-117351388D01*
X60213341Y-117491079D01*
X60051079Y-117653341D01*
X59911388Y-117835388D01*
X59911387Y-117835390D01*
X59796656Y-118034110D01*
X59708843Y-118246108D01*
X59708842Y-118246113D01*
X59649453Y-118467754D01*
X59649449Y-118467774D01*
X59619500Y-118695261D01*
X57000000Y-118695261D01*
X57000000Y-116130099D01*
X106582000Y-116130099D01*
X106582000Y-118249899D01*
X106587001Y-118275041D01*
X106587831Y-118279213D01*
X106610043Y-118312457D01*
X106643287Y-118334669D01*
X106672601Y-118340500D01*
X108792398Y-118340499D01*
X108792399Y-118340499D01*
X108796569Y-118339669D01*
X108821713Y-118334669D01*
X108854957Y-118312457D01*
X108877169Y-118279213D01*
X108883000Y-118249899D01*
X108882999Y-117189996D01*
X111577071Y-117189996D01*
X111577071Y-117190003D01*
X111596742Y-117402301D01*
X111596745Y-117402317D01*
X111655093Y-117607383D01*
X111655095Y-117607390D01*
X111750132Y-117798252D01*
X111750133Y-117798253D01*
X111750134Y-117798255D01*
X111867249Y-117953339D01*
X111878630Y-117968409D01*
X111878631Y-117968411D01*
X112008896Y-118087163D01*
X112036198Y-118112052D01*
X112147693Y-118181087D01*
X112217477Y-118224296D01*
X112217488Y-118224301D01*
X112416293Y-118301318D01*
X112416297Y-118301319D01*
X112416302Y-118301321D01*
X112625890Y-118340500D01*
X112625891Y-118340500D01*
X112839109Y-118340500D01*
X112839110Y-118340500D01*
X113048698Y-118301321D01*
X113105769Y-118279212D01*
X113181437Y-118249898D01*
X113247519Y-118224298D01*
X113428802Y-118112052D01*
X113586372Y-117968407D01*
X113605939Y-117942497D01*
X144184318Y-117942497D01*
X144184318Y-117942502D01*
X144204954Y-118099253D01*
X144204957Y-118099265D01*
X144265461Y-118245336D01*
X144265462Y-118245337D01*
X144265464Y-118245341D01*
X144361718Y-118370782D01*
X144487159Y-118467036D01*
X144487162Y-118467037D01*
X144487163Y-118467038D01*
X144560198Y-118497290D01*
X144633238Y-118527544D01*
X144633246Y-118527545D01*
X144789997Y-118548182D01*
X144790000Y-118548182D01*
X144790003Y-118548182D01*
X144896775Y-118534124D01*
X144946762Y-118527544D01*
X145092841Y-118467036D01*
X145218282Y-118370782D01*
X145314536Y-118245341D01*
X145375044Y-118099262D01*
X145395682Y-117942500D01*
X145376922Y-117800000D01*
X168814508Y-117800000D01*
X168834354Y-117925304D01*
X168889794Y-118034112D01*
X168891950Y-118038342D01*
X168981658Y-118128050D01*
X169094696Y-118185646D01*
X169220000Y-118205492D01*
X169345304Y-118185646D01*
X169458342Y-118128050D01*
X169548050Y-118038342D01*
X169605646Y-117925304D01*
X169625492Y-117800000D01*
X169605646Y-117674696D01*
X169548050Y-117561658D01*
X169458342Y-117471950D01*
X169458339Y-117471948D01*
X169345304Y-117414354D01*
X169220000Y-117394508D01*
X169094695Y-117414354D01*
X168981660Y-117471948D01*
X168891948Y-117561660D01*
X168834354Y-117674695D01*
X168814508Y-117800000D01*
X145376922Y-117800000D01*
X145375044Y-117785738D01*
X145329049Y-117674696D01*
X145314538Y-117639663D01*
X145314537Y-117639662D01*
X145314536Y-117639659D01*
X145218282Y-117514218D01*
X145092841Y-117417964D01*
X145092837Y-117417962D01*
X145092836Y-117417961D01*
X144946765Y-117357457D01*
X144946763Y-117357456D01*
X144946762Y-117357456D01*
X144946759Y-117357455D01*
X144946753Y-117357454D01*
X144790003Y-117336818D01*
X144789997Y-117336818D01*
X144633246Y-117357454D01*
X144633234Y-117357457D01*
X144487163Y-117417961D01*
X144487162Y-117417962D01*
X144487159Y-117417963D01*
X144487159Y-117417964D01*
X144391871Y-117491081D01*
X144361718Y-117514218D01*
X144265462Y-117639662D01*
X144265461Y-117639663D01*
X144204957Y-117785734D01*
X144204954Y-117785746D01*
X144184318Y-117942497D01*
X113605939Y-117942497D01*
X113714866Y-117798255D01*
X113809905Y-117607389D01*
X113868256Y-117402310D01*
X113868979Y-117394508D01*
X113887929Y-117190003D01*
X113887929Y-117189996D01*
X113868257Y-116977698D01*
X113868256Y-116977695D01*
X113868256Y-116977690D01*
X113809905Y-116772611D01*
X113714866Y-116581745D01*
X113586372Y-116411593D01*
X113586369Y-116411590D01*
X113586368Y-116411588D01*
X113428804Y-116267950D01*
X113428803Y-116267949D01*
X113428802Y-116267948D01*
X113373054Y-116233430D01*
X113247522Y-116155703D01*
X113247511Y-116155698D01*
X113048706Y-116078681D01*
X113048695Y-116078678D01*
X112839110Y-116039500D01*
X112625890Y-116039500D01*
X112625889Y-116039500D01*
X112416304Y-116078678D01*
X112416293Y-116078681D01*
X112217488Y-116155698D01*
X112217477Y-116155703D01*
X112036196Y-116267949D01*
X112036195Y-116267950D01*
X111878631Y-116411588D01*
X111878630Y-116411590D01*
X111750132Y-116581747D01*
X111655095Y-116772609D01*
X111655093Y-116772616D01*
X111596745Y-116977682D01*
X111596742Y-116977698D01*
X111577071Y-117189996D01*
X108882999Y-117189996D01*
X108882999Y-116130102D01*
X108882998Y-116130099D01*
X108881339Y-116121758D01*
X108877169Y-116100787D01*
X108854957Y-116067543D01*
X108821713Y-116045331D01*
X108807056Y-116042415D01*
X108792400Y-116039500D01*
X106672600Y-116039500D01*
X106643287Y-116045331D01*
X106610044Y-116067542D01*
X106610042Y-116067544D01*
X106587831Y-116100787D01*
X106582000Y-116130099D01*
X57000000Y-116130099D01*
X57000000Y-113790099D01*
X77972000Y-113790099D01*
X77972000Y-115909899D01*
X77977001Y-115935041D01*
X77977831Y-115939213D01*
X78000043Y-115972457D01*
X78033287Y-115994669D01*
X78062601Y-116000500D01*
X80182398Y-116000499D01*
X80182399Y-116000499D01*
X80186569Y-115999669D01*
X80211713Y-115994669D01*
X80244957Y-115972457D01*
X80267169Y-115939213D01*
X80273000Y-115909899D01*
X80272999Y-114849996D01*
X82967071Y-114849996D01*
X82967071Y-114850003D01*
X82986742Y-115062301D01*
X82986745Y-115062317D01*
X83045093Y-115267383D01*
X83045095Y-115267390D01*
X83140132Y-115458252D01*
X83268630Y-115628409D01*
X83268631Y-115628411D01*
X83398896Y-115747163D01*
X83426198Y-115772052D01*
X83537693Y-115841087D01*
X83607477Y-115884296D01*
X83607488Y-115884301D01*
X83806293Y-115961318D01*
X83806297Y-115961319D01*
X83806302Y-115961321D01*
X84015890Y-116000500D01*
X84015891Y-116000500D01*
X84229109Y-116000500D01*
X84229110Y-116000500D01*
X84438698Y-115961321D01*
X84495769Y-115939212D01*
X84637511Y-115884301D01*
X84637509Y-115884301D01*
X84637519Y-115884298D01*
X84818802Y-115772052D01*
X84976372Y-115628407D01*
X85104866Y-115458255D01*
X85199905Y-115267389D01*
X85258256Y-115062310D01*
X85277929Y-114850000D01*
X85258256Y-114637690D01*
X85199905Y-114432611D01*
X85104866Y-114241745D01*
X84976372Y-114071593D01*
X84976369Y-114071590D01*
X84976368Y-114071588D01*
X84818804Y-113927950D01*
X84818803Y-113927949D01*
X84818802Y-113927948D01*
X84763054Y-113893430D01*
X84637522Y-113815703D01*
X84637511Y-113815698D01*
X84438706Y-113738681D01*
X84438695Y-113738678D01*
X84229110Y-113699500D01*
X84015890Y-113699500D01*
X84015889Y-113699500D01*
X83806304Y-113738678D01*
X83806293Y-113738681D01*
X83607488Y-113815698D01*
X83607477Y-113815703D01*
X83426196Y-113927949D01*
X83426195Y-113927950D01*
X83268631Y-114071588D01*
X83268630Y-114071590D01*
X83140132Y-114241747D01*
X83045095Y-114432609D01*
X83045093Y-114432616D01*
X82986745Y-114637682D01*
X82986742Y-114637698D01*
X82967071Y-114849996D01*
X80272999Y-114849996D01*
X80272999Y-113790102D01*
X80272998Y-113790099D01*
X80271339Y-113781758D01*
X80267169Y-113760787D01*
X80244957Y-113727543D01*
X80211713Y-113705331D01*
X80197056Y-113702415D01*
X80182400Y-113699500D01*
X78062600Y-113699500D01*
X78033287Y-113705331D01*
X78000044Y-113727542D01*
X78000042Y-113727544D01*
X77977831Y-113760787D01*
X77972000Y-113790099D01*
X57000000Y-113790099D01*
X57000000Y-113032497D01*
X139804318Y-113032497D01*
X139804318Y-113032502D01*
X139824954Y-113189253D01*
X139824957Y-113189265D01*
X139885461Y-113335336D01*
X139885462Y-113335337D01*
X139885464Y-113335341D01*
X139981718Y-113460782D01*
X140107159Y-113557036D01*
X140107162Y-113557037D01*
X140107163Y-113557038D01*
X140180198Y-113587290D01*
X140253238Y-113617544D01*
X140253246Y-113617545D01*
X140409997Y-113638182D01*
X140410000Y-113638182D01*
X140410003Y-113638182D01*
X140516775Y-113624124D01*
X140566762Y-113617544D01*
X140712841Y-113557036D01*
X140838282Y-113460782D01*
X140934536Y-113335341D01*
X140995044Y-113189262D01*
X141015682Y-113032500D01*
X141001200Y-112922497D01*
X162604318Y-112922497D01*
X162604318Y-112922502D01*
X162624954Y-113079253D01*
X162624957Y-113079265D01*
X162685461Y-113225336D01*
X162685462Y-113225337D01*
X162685464Y-113225341D01*
X162781718Y-113350782D01*
X162907159Y-113447036D01*
X162907162Y-113447037D01*
X162907163Y-113447038D01*
X162980198Y-113477290D01*
X163053238Y-113507544D01*
X163053246Y-113507545D01*
X163209997Y-113528182D01*
X163210000Y-113528182D01*
X163210003Y-113528182D01*
X163316775Y-113514124D01*
X163366762Y-113507544D01*
X163512841Y-113447036D01*
X163638282Y-113350782D01*
X163734536Y-113225341D01*
X163795044Y-113079262D01*
X163815682Y-112922500D01*
X163795044Y-112765738D01*
X163734536Y-112619659D01*
X163638282Y-112494218D01*
X163512841Y-112397964D01*
X163512837Y-112397962D01*
X163512836Y-112397961D01*
X163366765Y-112337457D01*
X163366763Y-112337456D01*
X163366762Y-112337456D01*
X163366759Y-112337455D01*
X163366753Y-112337454D01*
X163210003Y-112316818D01*
X163209997Y-112316818D01*
X163053246Y-112337454D01*
X163053234Y-112337457D01*
X162907163Y-112397961D01*
X162907162Y-112397962D01*
X162907159Y-112397963D01*
X162907159Y-112397964D01*
X162781718Y-112494218D01*
X162697313Y-112604218D01*
X162685462Y-112619662D01*
X162685461Y-112619663D01*
X162624957Y-112765734D01*
X162624954Y-112765746D01*
X162604318Y-112922497D01*
X141001200Y-112922497D01*
X140995044Y-112875738D01*
X140949484Y-112765746D01*
X140934538Y-112729663D01*
X140934537Y-112729662D01*
X140934536Y-112729659D01*
X140838282Y-112604218D01*
X140712841Y-112507964D01*
X140712837Y-112507962D01*
X140712836Y-112507961D01*
X140566765Y-112447457D01*
X140566763Y-112447456D01*
X140566762Y-112447456D01*
X140566759Y-112447455D01*
X140566753Y-112447454D01*
X140410003Y-112426818D01*
X140409997Y-112426818D01*
X140253246Y-112447454D01*
X140253234Y-112447457D01*
X140107163Y-112507961D01*
X140107162Y-112507962D01*
X139981718Y-112604218D01*
X139885462Y-112729662D01*
X139885461Y-112729663D01*
X139824957Y-112875734D01*
X139824954Y-112875746D01*
X139804318Y-113032497D01*
X57000000Y-113032497D01*
X57000000Y-112000000D01*
X180029103Y-112000000D01*
X180050485Y-112107495D01*
X180111376Y-112198624D01*
X180202505Y-112259515D01*
X180310000Y-112280897D01*
X180417495Y-112259515D01*
X180508624Y-112198624D01*
X180569515Y-112107495D01*
X180590897Y-112000000D01*
X180569515Y-111892505D01*
X180508624Y-111801376D01*
X180417495Y-111740485D01*
X180310000Y-111719103D01*
X180202505Y-111740485D01*
X180111376Y-111801376D01*
X180050485Y-111892505D01*
X180029103Y-112000000D01*
X57000000Y-112000000D01*
X57000000Y-111030000D01*
X186689103Y-111030000D01*
X186710485Y-111137495D01*
X186771376Y-111228624D01*
X186862505Y-111289515D01*
X186970000Y-111310897D01*
X187077495Y-111289515D01*
X187168624Y-111228624D01*
X187229515Y-111137495D01*
X187250897Y-111030000D01*
X187229515Y-110922505D01*
X187168624Y-110831376D01*
X187077495Y-110770485D01*
X186970000Y-110749103D01*
X186862505Y-110770485D01*
X186771376Y-110831376D01*
X186710485Y-110922505D01*
X186689103Y-111030000D01*
X57000000Y-111030000D01*
X57000000Y-110340000D01*
X179519103Y-110340000D01*
X179540485Y-110447495D01*
X179601376Y-110538624D01*
X179692505Y-110599515D01*
X179800000Y-110620897D01*
X179907495Y-110599515D01*
X179998624Y-110538624D01*
X180059515Y-110447495D01*
X180080897Y-110340000D01*
X180059515Y-110232505D01*
X179998624Y-110141376D01*
X179907495Y-110080485D01*
X179800000Y-110059103D01*
X179692505Y-110080485D01*
X179601376Y-110141376D01*
X179540485Y-110232505D01*
X179519103Y-110340000D01*
X57000000Y-110340000D01*
X57000000Y-109600000D01*
X189529103Y-109600000D01*
X189550485Y-109707495D01*
X189611376Y-109798624D01*
X189702505Y-109859515D01*
X189810000Y-109880897D01*
X189917495Y-109859515D01*
X190008624Y-109798624D01*
X190069515Y-109707495D01*
X190090897Y-109600000D01*
X190069515Y-109492505D01*
X190008624Y-109401376D01*
X189917495Y-109340485D01*
X189810000Y-109319103D01*
X189702505Y-109340485D01*
X189611376Y-109401376D01*
X189550485Y-109492505D01*
X189529103Y-109600000D01*
X57000000Y-109600000D01*
X57000000Y-108530000D01*
X185439103Y-108530000D01*
X185460485Y-108637495D01*
X185521376Y-108728624D01*
X185612505Y-108789515D01*
X185720000Y-108810897D01*
X185827495Y-108789515D01*
X185918624Y-108728624D01*
X185979515Y-108637495D01*
X186000897Y-108530000D01*
X185979515Y-108422505D01*
X185918624Y-108331376D01*
X185827495Y-108270485D01*
X185720000Y-108249103D01*
X185612505Y-108270485D01*
X185521377Y-108331375D01*
X185521375Y-108331377D01*
X185508332Y-108350897D01*
X185460485Y-108422505D01*
X185439103Y-108530000D01*
X57000000Y-108530000D01*
X57000000Y-108240000D01*
X179309103Y-108240000D01*
X179330485Y-108347495D01*
X179391376Y-108438624D01*
X179482505Y-108499515D01*
X179590000Y-108520897D01*
X179697495Y-108499515D01*
X179788624Y-108438624D01*
X179849515Y-108347495D01*
X179870897Y-108240000D01*
X179849515Y-108132505D01*
X179807750Y-108070000D01*
X184369103Y-108070000D01*
X184390485Y-108177495D01*
X184451376Y-108268624D01*
X184542505Y-108329515D01*
X184650000Y-108350897D01*
X184757495Y-108329515D01*
X184848624Y-108268624D01*
X184909515Y-108177495D01*
X184930897Y-108070000D01*
X184909515Y-107962505D01*
X184848624Y-107871376D01*
X184757495Y-107810485D01*
X184650000Y-107789103D01*
X184542505Y-107810485D01*
X184451377Y-107871375D01*
X184451375Y-107871377D01*
X184390485Y-107962505D01*
X184374797Y-108041376D01*
X184369103Y-108070000D01*
X179807750Y-108070000D01*
X179788624Y-108041376D01*
X179697495Y-107980485D01*
X179590000Y-107959103D01*
X179482505Y-107980485D01*
X179391377Y-108041375D01*
X179391375Y-108041377D01*
X179372250Y-108070000D01*
X179330485Y-108132505D01*
X179309103Y-108240000D01*
X57000000Y-108240000D01*
X57000000Y-107800000D01*
X103297008Y-107800000D01*
X103316854Y-107925304D01*
X103334075Y-107959103D01*
X103374450Y-108038342D01*
X103464158Y-108128050D01*
X103577196Y-108185646D01*
X103702500Y-108205492D01*
X103827804Y-108185646D01*
X103940842Y-108128050D01*
X104030550Y-108038342D01*
X104088146Y-107925304D01*
X104107992Y-107800000D01*
X104088146Y-107674696D01*
X104030550Y-107561658D01*
X103940842Y-107471950D01*
X103940839Y-107471948D01*
X103827804Y-107414354D01*
X103702500Y-107394508D01*
X103577195Y-107414354D01*
X103464160Y-107471948D01*
X103374448Y-107561660D01*
X103316854Y-107674695D01*
X103297008Y-107800000D01*
X57000000Y-107800000D01*
X57000000Y-107290000D01*
X121257008Y-107290000D01*
X121276854Y-107415304D01*
X121305716Y-107471950D01*
X121334450Y-107528342D01*
X121424158Y-107618050D01*
X121537196Y-107675646D01*
X121662500Y-107695492D01*
X121787804Y-107675646D01*
X121900842Y-107618050D01*
X121990550Y-107528342D01*
X122048146Y-107415304D01*
X122067992Y-107290000D01*
X122048146Y-107164696D01*
X121990550Y-107051658D01*
X121900842Y-106961950D01*
X121900839Y-106961948D01*
X121787804Y-106904354D01*
X121662500Y-106884508D01*
X121537195Y-106904354D01*
X121424160Y-106961948D01*
X121334448Y-107051660D01*
X121276854Y-107164695D01*
X121257008Y-107290000D01*
X57000000Y-107290000D01*
X57000000Y-106865000D01*
X143964901Y-106865000D01*
X143983252Y-107051327D01*
X143983253Y-107051331D01*
X144037601Y-107230493D01*
X144037602Y-107230496D01*
X144037604Y-107230501D01*
X144037607Y-107230506D01*
X144125860Y-107395619D01*
X144125862Y-107395621D01*
X144125864Y-107395625D01*
X144244643Y-107540357D01*
X144389375Y-107659136D01*
X144389378Y-107659138D01*
X144389380Y-107659139D01*
X144418484Y-107674695D01*
X144554499Y-107747396D01*
X144733669Y-107801747D01*
X144920000Y-107820099D01*
X145106331Y-107801747D01*
X145285501Y-107747396D01*
X145450625Y-107659136D01*
X145595357Y-107540357D01*
X145714136Y-107395625D01*
X145802396Y-107230501D01*
X145856747Y-107051331D01*
X145875099Y-106865000D01*
X145856747Y-106678669D01*
X145832883Y-106600000D01*
X180469103Y-106600000D01*
X180490485Y-106707495D01*
X180551376Y-106798624D01*
X180642505Y-106859515D01*
X180750000Y-106880897D01*
X180857495Y-106859515D01*
X180948624Y-106798624D01*
X181009515Y-106707495D01*
X181030897Y-106600000D01*
X189359103Y-106600000D01*
X189380485Y-106707495D01*
X189441376Y-106798624D01*
X189532505Y-106859515D01*
X189640000Y-106880897D01*
X189747495Y-106859515D01*
X189838624Y-106798624D01*
X189899515Y-106707495D01*
X189920897Y-106600000D01*
X189899515Y-106492505D01*
X189838624Y-106401376D01*
X189747495Y-106340485D01*
X189640000Y-106319103D01*
X189532505Y-106340485D01*
X189445917Y-106398342D01*
X189441376Y-106401376D01*
X189380485Y-106492505D01*
X189359103Y-106600000D01*
X181030897Y-106600000D01*
X181009515Y-106492505D01*
X180948624Y-106401376D01*
X180857495Y-106340485D01*
X180750000Y-106319103D01*
X180642505Y-106340485D01*
X180555917Y-106398342D01*
X180551376Y-106401376D01*
X180490485Y-106492505D01*
X180469103Y-106600000D01*
X145832883Y-106600000D01*
X145802396Y-106499499D01*
X145714136Y-106334375D01*
X145595357Y-106189643D01*
X145450625Y-106070864D01*
X145450621Y-106070862D01*
X145450619Y-106070860D01*
X145333763Y-106008400D01*
X145285501Y-105982604D01*
X145285496Y-105982602D01*
X145285493Y-105982601D01*
X145106331Y-105928253D01*
X145106327Y-105928252D01*
X144920000Y-105909901D01*
X144733672Y-105928252D01*
X144733668Y-105928253D01*
X144554506Y-105982601D01*
X144554493Y-105982607D01*
X144389380Y-106070860D01*
X144389375Y-106070863D01*
X144389375Y-106070864D01*
X144244643Y-106189643D01*
X144138398Y-106319103D01*
X144125860Y-106334380D01*
X144037607Y-106499493D01*
X144037601Y-106499506D01*
X143983253Y-106678668D01*
X143983252Y-106678672D01*
X143964901Y-106865000D01*
X57000000Y-106865000D01*
X57000000Y-106160000D01*
X116227008Y-106160000D01*
X116246854Y-106285304D01*
X116271859Y-106334380D01*
X116304450Y-106398342D01*
X116394158Y-106488050D01*
X116507196Y-106545646D01*
X116632500Y-106565492D01*
X116757804Y-106545646D01*
X116870842Y-106488050D01*
X116960550Y-106398342D01*
X117018146Y-106285304D01*
X117037992Y-106160000D01*
X117018146Y-106034696D01*
X116960550Y-105921658D01*
X116870842Y-105831950D01*
X116870839Y-105831948D01*
X116757804Y-105774354D01*
X116632500Y-105754508D01*
X116507195Y-105774354D01*
X116394160Y-105831948D01*
X116304448Y-105921660D01*
X116246854Y-106034695D01*
X116227008Y-106160000D01*
X57000000Y-106160000D01*
X57000000Y-105210000D01*
X109557008Y-105210000D01*
X109576854Y-105335304D01*
X109629951Y-105439514D01*
X109634450Y-105448342D01*
X109724158Y-105538050D01*
X109837196Y-105595646D01*
X109962500Y-105615492D01*
X110087804Y-105595646D01*
X110200842Y-105538050D01*
X110290550Y-105448342D01*
X110348146Y-105335304D01*
X110366408Y-105220000D01*
X112057008Y-105220000D01*
X112076854Y-105345304D01*
X112129354Y-105448342D01*
X112134450Y-105458342D01*
X112224158Y-105548050D01*
X112337196Y-105605646D01*
X112462500Y-105625492D01*
X112587804Y-105605646D01*
X112700842Y-105548050D01*
X112790550Y-105458342D01*
X112848146Y-105345304D01*
X112858489Y-105280000D01*
X114997364Y-105280000D01*
X115015766Y-105384363D01*
X115068749Y-105476135D01*
X115068751Y-105476137D01*
X115068752Y-105476138D01*
X115102504Y-105504459D01*
X115149930Y-105544255D01*
X115149934Y-105544257D01*
X115249510Y-105580499D01*
X115249514Y-105580500D01*
X115355486Y-105580500D01*
X115355489Y-105580499D01*
X115455065Y-105544257D01*
X115455064Y-105544257D01*
X115455068Y-105544256D01*
X115536248Y-105476138D01*
X115589234Y-105384363D01*
X115607636Y-105280000D01*
X115589234Y-105175637D01*
X115557401Y-105120500D01*
X115536250Y-105083864D01*
X115455069Y-105015744D01*
X115455065Y-105015742D01*
X115355489Y-104979500D01*
X115355486Y-104979500D01*
X115249514Y-104979500D01*
X115249510Y-104979500D01*
X115149934Y-105015742D01*
X115149930Y-105015744D01*
X115068749Y-105083864D01*
X115015766Y-105175636D01*
X114997364Y-105280000D01*
X112858489Y-105280000D01*
X112867992Y-105220000D01*
X112848146Y-105094696D01*
X112790550Y-104981658D01*
X112700842Y-104891950D01*
X112700839Y-104891948D01*
X112587804Y-104834354D01*
X112497175Y-104820000D01*
X114307364Y-104820000D01*
X114325766Y-104924363D01*
X114378749Y-105016135D01*
X114378751Y-105016137D01*
X114378752Y-105016138D01*
X114412504Y-105044459D01*
X114459930Y-105084255D01*
X114459934Y-105084257D01*
X114559510Y-105120499D01*
X114559514Y-105120500D01*
X114665486Y-105120500D01*
X114665489Y-105120499D01*
X114765065Y-105084257D01*
X114765064Y-105084257D01*
X114765068Y-105084256D01*
X114846248Y-105016138D01*
X114846476Y-105015744D01*
X114871928Y-104971658D01*
X114899234Y-104924363D01*
X114917636Y-104820000D01*
X114899234Y-104715637D01*
X114881572Y-104685045D01*
X114846250Y-104623864D01*
X114765069Y-104555744D01*
X114765065Y-104555742D01*
X114666863Y-104520000D01*
X122067008Y-104520000D01*
X122086854Y-104645304D01*
X122122690Y-104715637D01*
X122144450Y-104758342D01*
X122234158Y-104848050D01*
X122347196Y-104905646D01*
X122472500Y-104925492D01*
X122597804Y-104905646D01*
X122710842Y-104848050D01*
X122800550Y-104758342D01*
X122858146Y-104645304D01*
X122877992Y-104520000D01*
X122858146Y-104394696D01*
X122822634Y-104325000D01*
X143964901Y-104325000D01*
X143983252Y-104511327D01*
X143983253Y-104511331D01*
X144037601Y-104690493D01*
X144037602Y-104690496D01*
X144037604Y-104690501D01*
X144063400Y-104738763D01*
X144125860Y-104855619D01*
X144125862Y-104855621D01*
X144125864Y-104855625D01*
X144244643Y-105000357D01*
X144389375Y-105119136D01*
X144389378Y-105119138D01*
X144389380Y-105119139D01*
X144437637Y-105144932D01*
X144554499Y-105207396D01*
X144733669Y-105261747D01*
X144920000Y-105280099D01*
X145106331Y-105261747D01*
X145285501Y-105207396D01*
X145450625Y-105119136D01*
X145473942Y-105100000D01*
X179159103Y-105100000D01*
X179180485Y-105207495D01*
X179241376Y-105298624D01*
X179332505Y-105359515D01*
X179440000Y-105380897D01*
X179547495Y-105359515D01*
X179638624Y-105298624D01*
X179699515Y-105207495D01*
X179704984Y-105180000D01*
X182989103Y-105180000D01*
X183010485Y-105287495D01*
X183071376Y-105378624D01*
X183162505Y-105439515D01*
X183270000Y-105460897D01*
X183377495Y-105439515D01*
X183468624Y-105378624D01*
X183529515Y-105287495D01*
X183550897Y-105180000D01*
X183529515Y-105072505D01*
X183468624Y-104981376D01*
X183377495Y-104920485D01*
X183270000Y-104899103D01*
X183162505Y-104920485D01*
X183071377Y-104981375D01*
X183071375Y-104981377D01*
X183010485Y-105072505D01*
X183001210Y-105119136D01*
X182989103Y-105180000D01*
X179704984Y-105180000D01*
X179720897Y-105100000D01*
X179699515Y-104992505D01*
X179638624Y-104901376D01*
X179547495Y-104840485D01*
X179440000Y-104819103D01*
X179332505Y-104840485D01*
X179241377Y-104901375D01*
X179241375Y-104901377D01*
X179180485Y-104992505D01*
X179162235Y-105084256D01*
X179159103Y-105100000D01*
X145473942Y-105100000D01*
X145595357Y-105000357D01*
X145714136Y-104855625D01*
X145802396Y-104690501D01*
X145856747Y-104511331D01*
X145875099Y-104325000D01*
X145856747Y-104138669D01*
X145802396Y-103959499D01*
X145714136Y-103794375D01*
X145595357Y-103649643D01*
X145450625Y-103530864D01*
X145450621Y-103530862D01*
X145450619Y-103530860D01*
X145333763Y-103468400D01*
X145285501Y-103442604D01*
X145285496Y-103442602D01*
X145285493Y-103442601D01*
X145106331Y-103388253D01*
X145106327Y-103388252D01*
X144920000Y-103369901D01*
X144733672Y-103388252D01*
X144733668Y-103388253D01*
X144554506Y-103442601D01*
X144554493Y-103442607D01*
X144389380Y-103530860D01*
X144244643Y-103649643D01*
X144125860Y-103794380D01*
X144037607Y-103959493D01*
X144037601Y-103959506D01*
X143983253Y-104138668D01*
X143983252Y-104138672D01*
X143964901Y-104325000D01*
X122822634Y-104325000D01*
X122800550Y-104281658D01*
X122710842Y-104191950D01*
X122710839Y-104191948D01*
X122597804Y-104134354D01*
X122472500Y-104114508D01*
X122347195Y-104134354D01*
X122234160Y-104191948D01*
X122144448Y-104281660D01*
X122086854Y-104394695D01*
X122067008Y-104520000D01*
X114666863Y-104520000D01*
X114665489Y-104519500D01*
X114665486Y-104519500D01*
X114559514Y-104519500D01*
X114559510Y-104519500D01*
X114459934Y-104555742D01*
X114459930Y-104555744D01*
X114378749Y-104623864D01*
X114325766Y-104715636D01*
X114307364Y-104820000D01*
X112497175Y-104820000D01*
X112462500Y-104814508D01*
X112337195Y-104834354D01*
X112224160Y-104891948D01*
X112134448Y-104981660D01*
X112076854Y-105094695D01*
X112057008Y-105220000D01*
X110366408Y-105220000D01*
X110367992Y-105210000D01*
X110348146Y-105084696D01*
X110290550Y-104971658D01*
X110200842Y-104881950D01*
X110200839Y-104881948D01*
X110087804Y-104824354D01*
X109962500Y-104804508D01*
X109837195Y-104824354D01*
X109724160Y-104881948D01*
X109634448Y-104971660D01*
X109576854Y-105084695D01*
X109557008Y-105210000D01*
X57000000Y-105210000D01*
X57000000Y-103400000D01*
X116387631Y-103400000D01*
X116405000Y-103509662D01*
X116455403Y-103608584D01*
X116455405Y-103608587D01*
X116533913Y-103687095D01*
X116632839Y-103737500D01*
X116742500Y-103754869D01*
X116852161Y-103737500D01*
X116951087Y-103687095D01*
X116961538Y-103676644D01*
X116969775Y-103673231D01*
X116978013Y-103676643D01*
X116981283Y-103683058D01*
X116995000Y-103769662D01*
X117045403Y-103868584D01*
X117045405Y-103868587D01*
X117123913Y-103947095D01*
X117222839Y-103997500D01*
X117332500Y-104014869D01*
X117442161Y-103997500D01*
X117541087Y-103947095D01*
X117619595Y-103868587D01*
X117623970Y-103860000D01*
X119707364Y-103860000D01*
X119725766Y-103964363D01*
X119778749Y-104056135D01*
X119778751Y-104056137D01*
X119778752Y-104056138D01*
X119812504Y-104084459D01*
X119859930Y-104124255D01*
X119859934Y-104124257D01*
X119959510Y-104160499D01*
X119959514Y-104160500D01*
X120065486Y-104160500D01*
X120065489Y-104160499D01*
X120165065Y-104124257D01*
X120165064Y-104124257D01*
X120165068Y-104124256D01*
X120246248Y-104056138D01*
X120299234Y-103964363D01*
X120317636Y-103860000D01*
X120299234Y-103755637D01*
X120281572Y-103725045D01*
X120246250Y-103663864D01*
X120242211Y-103660475D01*
X120223746Y-103644981D01*
X120165069Y-103595744D01*
X120165065Y-103595742D01*
X120065489Y-103559500D01*
X120065486Y-103559500D01*
X119959514Y-103559500D01*
X119959510Y-103559500D01*
X119859934Y-103595742D01*
X119859930Y-103595744D01*
X119778749Y-103663864D01*
X119725766Y-103755636D01*
X119707364Y-103860000D01*
X117623970Y-103860000D01*
X117670000Y-103769661D01*
X117687369Y-103660000D01*
X117679631Y-103611149D01*
X117681713Y-103602479D01*
X117689315Y-103597820D01*
X117696425Y-103598946D01*
X117732839Y-103617500D01*
X117842500Y-103634869D01*
X117952161Y-103617500D01*
X118051087Y-103567095D01*
X118129595Y-103488587D01*
X118180000Y-103389661D01*
X118197369Y-103280000D01*
X118180000Y-103170339D01*
X118129595Y-103071413D01*
X118051087Y-102992905D01*
X118051084Y-102992903D01*
X117952162Y-102942500D01*
X117875299Y-102930326D01*
X117842500Y-102925131D01*
X117842499Y-102925131D01*
X117748552Y-102940011D01*
X117739882Y-102937929D01*
X117735223Y-102930326D01*
X117735223Y-102926681D01*
X117747369Y-102850000D01*
X117736282Y-102780000D01*
X118147364Y-102780000D01*
X118165766Y-102884363D01*
X118218749Y-102976135D01*
X118218751Y-102976137D01*
X118218752Y-102976138D01*
X118238732Y-102992903D01*
X118299930Y-103044255D01*
X118299934Y-103044257D01*
X118399510Y-103080499D01*
X118399514Y-103080500D01*
X118505486Y-103080500D01*
X118505489Y-103080499D01*
X118605065Y-103044257D01*
X118605064Y-103044257D01*
X118605068Y-103044256D01*
X118686248Y-102976138D01*
X118695565Y-102960000D01*
X119737364Y-102960000D01*
X119755766Y-103064363D01*
X119808749Y-103156135D01*
X119808751Y-103156137D01*
X119808752Y-103156138D01*
X119825674Y-103170337D01*
X119889930Y-103224255D01*
X119889934Y-103224257D01*
X119989510Y-103260499D01*
X119989514Y-103260500D01*
X120095486Y-103260500D01*
X120095489Y-103260499D01*
X120195065Y-103224257D01*
X120195064Y-103224257D01*
X120195068Y-103224256D01*
X120276248Y-103156138D01*
X120329234Y-103064363D01*
X120347636Y-102960000D01*
X120329234Y-102855637D01*
X120311572Y-102825045D01*
X120276250Y-102763864D01*
X120195069Y-102695744D01*
X120195065Y-102695742D01*
X120095489Y-102659500D01*
X120095486Y-102659500D01*
X119989514Y-102659500D01*
X119989510Y-102659500D01*
X119889934Y-102695742D01*
X119889930Y-102695744D01*
X119808749Y-102763864D01*
X119755766Y-102855636D01*
X119737364Y-102960000D01*
X118695565Y-102960000D01*
X118739234Y-102884363D01*
X118757636Y-102780000D01*
X118739234Y-102675637D01*
X118707307Y-102620337D01*
X118686250Y-102583864D01*
X118680615Y-102579136D01*
X118661270Y-102562903D01*
X118605069Y-102515744D01*
X118605065Y-102515742D01*
X118505489Y-102479500D01*
X118505486Y-102479500D01*
X118399514Y-102479500D01*
X118399510Y-102479500D01*
X118299934Y-102515742D01*
X118299930Y-102515744D01*
X118218749Y-102583864D01*
X118165766Y-102675636D01*
X118147364Y-102780000D01*
X117736282Y-102780000D01*
X117730000Y-102740339D01*
X117679595Y-102641413D01*
X117601087Y-102562905D01*
X117601084Y-102562903D01*
X117502162Y-102512500D01*
X117392500Y-102495131D01*
X117282837Y-102512500D01*
X117183915Y-102562903D01*
X117105403Y-102641415D01*
X117055000Y-102740337D01*
X117037631Y-102850000D01*
X117055000Y-102959662D01*
X117105403Y-103058584D01*
X117105405Y-103058587D01*
X117183913Y-103137095D01*
X117183915Y-103137096D01*
X117249154Y-103170337D01*
X117282839Y-103187500D01*
X117392500Y-103204869D01*
X117486448Y-103189988D01*
X117495117Y-103192070D01*
X117499776Y-103199672D01*
X117499776Y-103203317D01*
X117490720Y-103260499D01*
X117487631Y-103280000D01*
X117489269Y-103290339D01*
X117495368Y-103328849D01*
X117493286Y-103337519D01*
X117485683Y-103342178D01*
X117478572Y-103341051D01*
X117442164Y-103322501D01*
X117442162Y-103322500D01*
X117442161Y-103322500D01*
X117332500Y-103305131D01*
X117222837Y-103322500D01*
X117123913Y-103372904D01*
X117113460Y-103383357D01*
X117105222Y-103386769D01*
X117096985Y-103383356D01*
X117093716Y-103376941D01*
X117088210Y-103342178D01*
X117080000Y-103290339D01*
X117029595Y-103191413D01*
X116951087Y-103112905D01*
X116951084Y-103112903D01*
X116852162Y-103062500D01*
X116742500Y-103045131D01*
X116632837Y-103062500D01*
X116533915Y-103112903D01*
X116455403Y-103191415D01*
X116405000Y-103290337D01*
X116387631Y-103400000D01*
X57000000Y-103400000D01*
X57000000Y-102730000D01*
X60675131Y-102730000D01*
X60692500Y-102839662D01*
X60742903Y-102938584D01*
X60742905Y-102938587D01*
X60821413Y-103017095D01*
X60920339Y-103067500D01*
X61030000Y-103084869D01*
X61139661Y-103067500D01*
X61238587Y-103017095D01*
X61317095Y-102938587D01*
X61367500Y-102839661D01*
X61384869Y-102730000D01*
X61367500Y-102620339D01*
X61317095Y-102521413D01*
X61238587Y-102442905D01*
X61238584Y-102442903D01*
X61139662Y-102392500D01*
X61030000Y-102375131D01*
X60920337Y-102392500D01*
X60821415Y-102442903D01*
X60742903Y-102521415D01*
X60692500Y-102620337D01*
X60675131Y-102730000D01*
X57000000Y-102730000D01*
X57000000Y-101980000D01*
X66205131Y-101980000D01*
X66222500Y-102089662D01*
X66254520Y-102152505D01*
X66272905Y-102188587D01*
X66351413Y-102267095D01*
X66450339Y-102317500D01*
X66560000Y-102334869D01*
X66669661Y-102317500D01*
X66768587Y-102267095D01*
X66847095Y-102188587D01*
X66897327Y-102090000D01*
X114227364Y-102090000D01*
X114245766Y-102194363D01*
X114298749Y-102286135D01*
X114298751Y-102286137D01*
X114298752Y-102286138D01*
X114319174Y-102303274D01*
X114379930Y-102354255D01*
X114379934Y-102354257D01*
X114479510Y-102390499D01*
X114479514Y-102390500D01*
X114585486Y-102390500D01*
X114585489Y-102390499D01*
X114685065Y-102354257D01*
X114685064Y-102354257D01*
X114685068Y-102354256D01*
X114766248Y-102286138D01*
X114819234Y-102194363D01*
X114834109Y-102110000D01*
X116147364Y-102110000D01*
X116165766Y-102214363D01*
X116218749Y-102306135D01*
X116218751Y-102306137D01*
X116218752Y-102306138D01*
X116252504Y-102334459D01*
X116299930Y-102374255D01*
X116299934Y-102374257D01*
X116399510Y-102410499D01*
X116399514Y-102410500D01*
X116505486Y-102410500D01*
X116505489Y-102410499D01*
X116605065Y-102374257D01*
X116605064Y-102374257D01*
X116605068Y-102374256D01*
X116670013Y-102319760D01*
X116678515Y-102317079D01*
X116684986Y-102319759D01*
X116702993Y-102334869D01*
X116749930Y-102374255D01*
X116749934Y-102374257D01*
X116849510Y-102410499D01*
X116849514Y-102410500D01*
X116955486Y-102410500D01*
X116955489Y-102410499D01*
X117055065Y-102374257D01*
X117055064Y-102374257D01*
X117055068Y-102374256D01*
X117136248Y-102306138D01*
X117189234Y-102214363D01*
X117207636Y-102110000D01*
X117189234Y-102005637D01*
X117142779Y-101925176D01*
X117141616Y-101916337D01*
X117145378Y-101910431D01*
X117186248Y-101876138D01*
X117239234Y-101784363D01*
X117257636Y-101680000D01*
X117547364Y-101680000D01*
X117565766Y-101784363D01*
X117618750Y-101876137D01*
X117666353Y-101916080D01*
X117670471Y-101923989D01*
X117668954Y-101930829D01*
X117625766Y-102005636D01*
X117607364Y-102110000D01*
X117625766Y-102214363D01*
X117678749Y-102306135D01*
X117678751Y-102306137D01*
X117678752Y-102306138D01*
X117712504Y-102334459D01*
X117759930Y-102374255D01*
X117759934Y-102374257D01*
X117859510Y-102410499D01*
X117859514Y-102410500D01*
X117965486Y-102410500D01*
X117965489Y-102410499D01*
X118065065Y-102374257D01*
X118065064Y-102374257D01*
X118065068Y-102374256D01*
X118146248Y-102306138D01*
X118147901Y-102303273D01*
X118154974Y-102297845D01*
X118163814Y-102299007D01*
X118165469Y-102300165D01*
X118209688Y-102337269D01*
X118229930Y-102354255D01*
X118229934Y-102354257D01*
X118329510Y-102390499D01*
X118329514Y-102390500D01*
X118435486Y-102390500D01*
X118435489Y-102390499D01*
X118535065Y-102354257D01*
X118535064Y-102354257D01*
X118535068Y-102354256D01*
X118616248Y-102286138D01*
X118669234Y-102194363D01*
X118687636Y-102090000D01*
X118669234Y-101985637D01*
X118632704Y-101922364D01*
X118616250Y-101893864D01*
X118616248Y-101893862D01*
X118572532Y-101857179D01*
X118568416Y-101849272D01*
X118569932Y-101842434D01*
X118603093Y-101785000D01*
X143964901Y-101785000D01*
X143983252Y-101971327D01*
X143983253Y-101971331D01*
X144037601Y-102150493D01*
X144037602Y-102150496D01*
X144037604Y-102150501D01*
X144037607Y-102150506D01*
X144125860Y-102315619D01*
X144125862Y-102315621D01*
X144125864Y-102315625D01*
X144244643Y-102460357D01*
X144389375Y-102579136D01*
X144389378Y-102579138D01*
X144389380Y-102579139D01*
X144437637Y-102604932D01*
X144554499Y-102667396D01*
X144733669Y-102721747D01*
X144920000Y-102740099D01*
X145106331Y-102721747D01*
X145285501Y-102667396D01*
X145450625Y-102579136D01*
X145595357Y-102460357D01*
X145714136Y-102315625D01*
X145802396Y-102150501D01*
X145856747Y-101971331D01*
X145864758Y-101889998D01*
X151149612Y-101889998D01*
X151149612Y-101890001D01*
X151169091Y-102050432D01*
X151169092Y-102050436D01*
X151226399Y-102201542D01*
X151226401Y-102201545D01*
X151318207Y-102334549D01*
X151318210Y-102334552D01*
X151318209Y-102334552D01*
X151403936Y-102410499D01*
X151439176Y-102441719D01*
X151582277Y-102516824D01*
X151582282Y-102516825D01*
X151582284Y-102516826D01*
X151679946Y-102540897D01*
X151739194Y-102555500D01*
X151739195Y-102555500D01*
X151900805Y-102555500D01*
X151900806Y-102555500D01*
X152057723Y-102516824D01*
X152200824Y-102441719D01*
X152321793Y-102334549D01*
X152413599Y-102201545D01*
X152470908Y-102050434D01*
X152487908Y-101910427D01*
X152490388Y-101890001D01*
X152490388Y-101889998D01*
X153689612Y-101889998D01*
X153689612Y-101890001D01*
X153709091Y-102050432D01*
X153709092Y-102050436D01*
X153766399Y-102201542D01*
X153766401Y-102201545D01*
X153858207Y-102334549D01*
X153858210Y-102334552D01*
X153858209Y-102334552D01*
X153943936Y-102410499D01*
X153979176Y-102441719D01*
X154122277Y-102516824D01*
X154122282Y-102516825D01*
X154122284Y-102516826D01*
X154219946Y-102540897D01*
X154279194Y-102555500D01*
X154279195Y-102555500D01*
X154440805Y-102555500D01*
X154440806Y-102555500D01*
X154597723Y-102516824D01*
X154740824Y-102441719D01*
X154861793Y-102334549D01*
X154953599Y-102201545D01*
X155010908Y-102050434D01*
X155027908Y-101910427D01*
X155030388Y-101890001D01*
X155030388Y-101889998D01*
X156229612Y-101889998D01*
X156229612Y-101890001D01*
X156249091Y-102050432D01*
X156249092Y-102050436D01*
X156306399Y-102201542D01*
X156306401Y-102201545D01*
X156398207Y-102334549D01*
X156398210Y-102334552D01*
X156398209Y-102334552D01*
X156483936Y-102410499D01*
X156519176Y-102441719D01*
X156662277Y-102516824D01*
X156662282Y-102516825D01*
X156662284Y-102516826D01*
X156759946Y-102540897D01*
X156819194Y-102555500D01*
X156819195Y-102555500D01*
X156980805Y-102555500D01*
X156980806Y-102555500D01*
X157137723Y-102516824D01*
X157280824Y-102441719D01*
X157401793Y-102334549D01*
X157493599Y-102201545D01*
X157550908Y-102050434D01*
X157567908Y-101910427D01*
X157570388Y-101890001D01*
X157570388Y-101889998D01*
X158769612Y-101889998D01*
X158769612Y-101890001D01*
X158789091Y-102050432D01*
X158789092Y-102050436D01*
X158846399Y-102201542D01*
X158846401Y-102201545D01*
X158938207Y-102334549D01*
X158938210Y-102334552D01*
X158938209Y-102334552D01*
X159023936Y-102410499D01*
X159059176Y-102441719D01*
X159202277Y-102516824D01*
X159202282Y-102516825D01*
X159202284Y-102516826D01*
X159299946Y-102540897D01*
X159359194Y-102555500D01*
X159359195Y-102555500D01*
X159520805Y-102555500D01*
X159520806Y-102555500D01*
X159677723Y-102516824D01*
X159820824Y-102441719D01*
X159941793Y-102334549D01*
X160033599Y-102201545D01*
X160090908Y-102050434D01*
X160107908Y-101910427D01*
X160110388Y-101890001D01*
X160110388Y-101889998D01*
X161309612Y-101889998D01*
X161309612Y-101890001D01*
X161329091Y-102050432D01*
X161329092Y-102050436D01*
X161386399Y-102201542D01*
X161386401Y-102201545D01*
X161478207Y-102334549D01*
X161478210Y-102334552D01*
X161478209Y-102334552D01*
X161563936Y-102410499D01*
X161599176Y-102441719D01*
X161742277Y-102516824D01*
X161742282Y-102516825D01*
X161742284Y-102516826D01*
X161839946Y-102540897D01*
X161899194Y-102555500D01*
X161899195Y-102555500D01*
X162060805Y-102555500D01*
X162060806Y-102555500D01*
X162217723Y-102516824D01*
X162360824Y-102441719D01*
X162481793Y-102334549D01*
X162573599Y-102201545D01*
X162630908Y-102050434D01*
X162647908Y-101910427D01*
X162650388Y-101890001D01*
X162650388Y-101889998D01*
X163849612Y-101889998D01*
X163849612Y-101890001D01*
X163869091Y-102050432D01*
X163869092Y-102050436D01*
X163926399Y-102201542D01*
X163926401Y-102201545D01*
X164018207Y-102334549D01*
X164018210Y-102334552D01*
X164018209Y-102334552D01*
X164103936Y-102410499D01*
X164139176Y-102441719D01*
X164282277Y-102516824D01*
X164282282Y-102516825D01*
X164282284Y-102516826D01*
X164379946Y-102540897D01*
X164439194Y-102555500D01*
X164439195Y-102555500D01*
X164600805Y-102555500D01*
X164600806Y-102555500D01*
X164757723Y-102516824D01*
X164900824Y-102441719D01*
X165021793Y-102334549D01*
X165113599Y-102201545D01*
X165170908Y-102050434D01*
X165187908Y-101910427D01*
X165190388Y-101890001D01*
X165190388Y-101889998D01*
X166389612Y-101889998D01*
X166389612Y-101890001D01*
X166409091Y-102050432D01*
X166409092Y-102050436D01*
X166466399Y-102201542D01*
X166466401Y-102201545D01*
X166558207Y-102334549D01*
X166558210Y-102334552D01*
X166558209Y-102334552D01*
X166643936Y-102410499D01*
X166679176Y-102441719D01*
X166822277Y-102516824D01*
X166822282Y-102516825D01*
X166822284Y-102516826D01*
X166919946Y-102540897D01*
X166979194Y-102555500D01*
X166979195Y-102555500D01*
X167140805Y-102555500D01*
X167140806Y-102555500D01*
X167297723Y-102516824D01*
X167440824Y-102441719D01*
X167561793Y-102334549D01*
X167653599Y-102201545D01*
X167710908Y-102050434D01*
X167727908Y-101910427D01*
X167730388Y-101890001D01*
X167730388Y-101889998D01*
X168929612Y-101889998D01*
X168929612Y-101890001D01*
X168949091Y-102050432D01*
X168949092Y-102050436D01*
X169006399Y-102201542D01*
X169006401Y-102201545D01*
X169098207Y-102334549D01*
X169098210Y-102334552D01*
X169098209Y-102334552D01*
X169183936Y-102410499D01*
X169219176Y-102441719D01*
X169362277Y-102516824D01*
X169362282Y-102516825D01*
X169362284Y-102516826D01*
X169459946Y-102540897D01*
X169519194Y-102555500D01*
X169519195Y-102555500D01*
X169680805Y-102555500D01*
X169680806Y-102555500D01*
X169837723Y-102516824D01*
X169980824Y-102441719D01*
X170101793Y-102334549D01*
X170153250Y-102260000D01*
X182979103Y-102260000D01*
X183000485Y-102367495D01*
X183061376Y-102458624D01*
X183152505Y-102519515D01*
X183260000Y-102540897D01*
X183367495Y-102519515D01*
X183458624Y-102458624D01*
X183519515Y-102367495D01*
X183540897Y-102260000D01*
X183519515Y-102152505D01*
X183458624Y-102061376D01*
X183367495Y-102000485D01*
X183260000Y-101979103D01*
X183152505Y-102000485D01*
X183061377Y-102061375D01*
X183061375Y-102061377D01*
X183042250Y-102090000D01*
X183000485Y-102152505D01*
X182979103Y-102260000D01*
X170153250Y-102260000D01*
X170193599Y-102201545D01*
X170250908Y-102050434D01*
X170267908Y-101910427D01*
X170270388Y-101890001D01*
X170270388Y-101889998D01*
X170250908Y-101729567D01*
X170250907Y-101729563D01*
X170193600Y-101578457D01*
X170193598Y-101578454D01*
X170184751Y-101565637D01*
X170101793Y-101445451D01*
X170101789Y-101445448D01*
X170101789Y-101445447D01*
X170101790Y-101445447D01*
X169980829Y-101338285D01*
X169980827Y-101338283D01*
X169980824Y-101338281D01*
X169837723Y-101263176D01*
X169837720Y-101263175D01*
X169837715Y-101263173D01*
X169680809Y-101224500D01*
X169680806Y-101224500D01*
X169519194Y-101224500D01*
X169519190Y-101224500D01*
X169362284Y-101263173D01*
X169362277Y-101263176D01*
X169219178Y-101338280D01*
X169219170Y-101338285D01*
X169098210Y-101445447D01*
X169006401Y-101578454D01*
X169006399Y-101578457D01*
X168949092Y-101729563D01*
X168949091Y-101729567D01*
X168929612Y-101889998D01*
X167730388Y-101889998D01*
X167710908Y-101729567D01*
X167710907Y-101729563D01*
X167653600Y-101578457D01*
X167653598Y-101578454D01*
X167644751Y-101565637D01*
X167561793Y-101445451D01*
X167561789Y-101445448D01*
X167561789Y-101445447D01*
X167561790Y-101445447D01*
X167440829Y-101338285D01*
X167440827Y-101338283D01*
X167440824Y-101338281D01*
X167297723Y-101263176D01*
X167297720Y-101263175D01*
X167297715Y-101263173D01*
X167140809Y-101224500D01*
X167140806Y-101224500D01*
X166979194Y-101224500D01*
X166979190Y-101224500D01*
X166822284Y-101263173D01*
X166822277Y-101263176D01*
X166679178Y-101338280D01*
X166679170Y-101338285D01*
X166558210Y-101445447D01*
X166466401Y-101578454D01*
X166466399Y-101578457D01*
X166409092Y-101729563D01*
X166409091Y-101729567D01*
X166389612Y-101889998D01*
X165190388Y-101889998D01*
X165170908Y-101729567D01*
X165170907Y-101729563D01*
X165113600Y-101578457D01*
X165113598Y-101578454D01*
X165104751Y-101565637D01*
X165021793Y-101445451D01*
X165021789Y-101445448D01*
X165021789Y-101445447D01*
X165021790Y-101445447D01*
X164900829Y-101338285D01*
X164900827Y-101338283D01*
X164900824Y-101338281D01*
X164757723Y-101263176D01*
X164757720Y-101263175D01*
X164757715Y-101263173D01*
X164600809Y-101224500D01*
X164600806Y-101224500D01*
X164439194Y-101224500D01*
X164439190Y-101224500D01*
X164282284Y-101263173D01*
X164282277Y-101263176D01*
X164139178Y-101338280D01*
X164139170Y-101338285D01*
X164018210Y-101445447D01*
X163926401Y-101578454D01*
X163926399Y-101578457D01*
X163869092Y-101729563D01*
X163869091Y-101729567D01*
X163849612Y-101889998D01*
X162650388Y-101889998D01*
X162630908Y-101729567D01*
X162630907Y-101729563D01*
X162573600Y-101578457D01*
X162573598Y-101578454D01*
X162564751Y-101565637D01*
X162481793Y-101445451D01*
X162481789Y-101445448D01*
X162481789Y-101445447D01*
X162481790Y-101445447D01*
X162360829Y-101338285D01*
X162360827Y-101338283D01*
X162360824Y-101338281D01*
X162217723Y-101263176D01*
X162217720Y-101263175D01*
X162217715Y-101263173D01*
X162060809Y-101224500D01*
X162060806Y-101224500D01*
X161899194Y-101224500D01*
X161899190Y-101224500D01*
X161742284Y-101263173D01*
X161742277Y-101263176D01*
X161599178Y-101338280D01*
X161599170Y-101338285D01*
X161478210Y-101445447D01*
X161386401Y-101578454D01*
X161386399Y-101578457D01*
X161329092Y-101729563D01*
X161329091Y-101729567D01*
X161309612Y-101889998D01*
X160110388Y-101889998D01*
X160090908Y-101729567D01*
X160090907Y-101729563D01*
X160033600Y-101578457D01*
X160033598Y-101578454D01*
X160024751Y-101565637D01*
X159941793Y-101445451D01*
X159941789Y-101445448D01*
X159941789Y-101445447D01*
X159941790Y-101445447D01*
X159820829Y-101338285D01*
X159820827Y-101338283D01*
X159820824Y-101338281D01*
X159677723Y-101263176D01*
X159677720Y-101263175D01*
X159677715Y-101263173D01*
X159520809Y-101224500D01*
X159520806Y-101224500D01*
X159359194Y-101224500D01*
X159359190Y-101224500D01*
X159202284Y-101263173D01*
X159202277Y-101263176D01*
X159059178Y-101338280D01*
X159059170Y-101338285D01*
X158938210Y-101445447D01*
X158846401Y-101578454D01*
X158846399Y-101578457D01*
X158789092Y-101729563D01*
X158789091Y-101729567D01*
X158769612Y-101889998D01*
X157570388Y-101889998D01*
X157550908Y-101729567D01*
X157550907Y-101729563D01*
X157493600Y-101578457D01*
X157493598Y-101578454D01*
X157484751Y-101565637D01*
X157401793Y-101445451D01*
X157401789Y-101445448D01*
X157401789Y-101445447D01*
X157401790Y-101445447D01*
X157280829Y-101338285D01*
X157280827Y-101338283D01*
X157280824Y-101338281D01*
X157137723Y-101263176D01*
X157137720Y-101263175D01*
X157137715Y-101263173D01*
X156980809Y-101224500D01*
X156980806Y-101224500D01*
X156819194Y-101224500D01*
X156819190Y-101224500D01*
X156662284Y-101263173D01*
X156662277Y-101263176D01*
X156519178Y-101338280D01*
X156519170Y-101338285D01*
X156398210Y-101445447D01*
X156306401Y-101578454D01*
X156306399Y-101578457D01*
X156249092Y-101729563D01*
X156249091Y-101729567D01*
X156229612Y-101889998D01*
X155030388Y-101889998D01*
X155010908Y-101729567D01*
X155010907Y-101729563D01*
X154953600Y-101578457D01*
X154953598Y-101578454D01*
X154944751Y-101565637D01*
X154861793Y-101445451D01*
X154861789Y-101445448D01*
X154861789Y-101445447D01*
X154861790Y-101445447D01*
X154740829Y-101338285D01*
X154740827Y-101338283D01*
X154740824Y-101338281D01*
X154597723Y-101263176D01*
X154597720Y-101263175D01*
X154597715Y-101263173D01*
X154440809Y-101224500D01*
X154440806Y-101224500D01*
X154279194Y-101224500D01*
X154279190Y-101224500D01*
X154122284Y-101263173D01*
X154122277Y-101263176D01*
X153979178Y-101338280D01*
X153979170Y-101338285D01*
X153858210Y-101445447D01*
X153766401Y-101578454D01*
X153766399Y-101578457D01*
X153709092Y-101729563D01*
X153709091Y-101729567D01*
X153689612Y-101889998D01*
X152490388Y-101889998D01*
X152470908Y-101729567D01*
X152470907Y-101729563D01*
X152413600Y-101578457D01*
X152413598Y-101578454D01*
X152404751Y-101565637D01*
X152321793Y-101445451D01*
X152321789Y-101445448D01*
X152321789Y-101445447D01*
X152321790Y-101445447D01*
X152200829Y-101338285D01*
X152200827Y-101338283D01*
X152200824Y-101338281D01*
X152057723Y-101263176D01*
X152057720Y-101263175D01*
X152057715Y-101263173D01*
X151900809Y-101224500D01*
X151900806Y-101224500D01*
X151739194Y-101224500D01*
X151739190Y-101224500D01*
X151582284Y-101263173D01*
X151582277Y-101263176D01*
X151439178Y-101338280D01*
X151439170Y-101338285D01*
X151318210Y-101445447D01*
X151226401Y-101578454D01*
X151226399Y-101578457D01*
X151169092Y-101729563D01*
X151169091Y-101729567D01*
X151149612Y-101889998D01*
X145864758Y-101889998D01*
X145875099Y-101785000D01*
X145856747Y-101598669D01*
X145802396Y-101419499D01*
X145714136Y-101254375D01*
X145595357Y-101109643D01*
X145450625Y-100990864D01*
X145450621Y-100990862D01*
X145450619Y-100990860D01*
X145333763Y-100928400D01*
X145285501Y-100902604D01*
X145285496Y-100902602D01*
X145285493Y-100902601D01*
X145106331Y-100848253D01*
X145106327Y-100848252D01*
X144920000Y-100829901D01*
X144733672Y-100848252D01*
X144733668Y-100848253D01*
X144554506Y-100902601D01*
X144554493Y-100902607D01*
X144389380Y-100990860D01*
X144244643Y-101109643D01*
X144125860Y-101254380D01*
X144037607Y-101419493D01*
X144037601Y-101419506D01*
X143983253Y-101598668D01*
X143983252Y-101598672D01*
X143964901Y-101785000D01*
X118603093Y-101785000D01*
X118609234Y-101774363D01*
X118627636Y-101670000D01*
X118609234Y-101565637D01*
X118591572Y-101535045D01*
X118556250Y-101473864D01*
X118475069Y-101405744D01*
X118475065Y-101405742D01*
X118375489Y-101369500D01*
X118375486Y-101369500D01*
X118269514Y-101369500D01*
X118269510Y-101369500D01*
X118169934Y-101405742D01*
X118169927Y-101405746D01*
X118089029Y-101473628D01*
X118080526Y-101476310D01*
X118074053Y-101473628D01*
X118005072Y-101415746D01*
X118005065Y-101415742D01*
X117905489Y-101379500D01*
X117905486Y-101379500D01*
X117799514Y-101379500D01*
X117799510Y-101379500D01*
X117699934Y-101415742D01*
X117699930Y-101415744D01*
X117618749Y-101483864D01*
X117565766Y-101575636D01*
X117547364Y-101680000D01*
X117257636Y-101680000D01*
X117239234Y-101575637D01*
X117192023Y-101493864D01*
X117186250Y-101483864D01*
X117174051Y-101473628D01*
X117163746Y-101464981D01*
X117105069Y-101415744D01*
X117105065Y-101415742D01*
X117005489Y-101379500D01*
X117005486Y-101379500D01*
X116899514Y-101379500D01*
X116899510Y-101379500D01*
X116799934Y-101415742D01*
X116799927Y-101415746D01*
X116719029Y-101483628D01*
X116710526Y-101486310D01*
X116704053Y-101483628D01*
X116635072Y-101425746D01*
X116635065Y-101425742D01*
X116535489Y-101389500D01*
X116535486Y-101389500D01*
X116429514Y-101389500D01*
X116429510Y-101389500D01*
X116329934Y-101425742D01*
X116329930Y-101425744D01*
X116248749Y-101493864D01*
X116195766Y-101585636D01*
X116177364Y-101690000D01*
X116195766Y-101794363D01*
X116244856Y-101879390D01*
X116246020Y-101888230D01*
X116242256Y-101894139D01*
X116218749Y-101913864D01*
X116165766Y-102005636D01*
X116147364Y-102110000D01*
X114834109Y-102110000D01*
X114837636Y-102090000D01*
X114819234Y-101985637D01*
X114782704Y-101922364D01*
X114766250Y-101893864D01*
X114761646Y-101890001D01*
X114738212Y-101870337D01*
X114685069Y-101825744D01*
X114685065Y-101825742D01*
X114585489Y-101789500D01*
X114585486Y-101789500D01*
X114479514Y-101789500D01*
X114479510Y-101789500D01*
X114379934Y-101825742D01*
X114379930Y-101825744D01*
X114298749Y-101893864D01*
X114245766Y-101985636D01*
X114227364Y-102090000D01*
X66897327Y-102090000D01*
X66897500Y-102089661D01*
X66914869Y-101980000D01*
X66897500Y-101870339D01*
X66847095Y-101771413D01*
X66768587Y-101692905D01*
X66768584Y-101692903D01*
X66669662Y-101642500D01*
X66560000Y-101625131D01*
X66450337Y-101642500D01*
X66351415Y-101692903D01*
X66272903Y-101771415D01*
X66222500Y-101870337D01*
X66205131Y-101980000D01*
X57000000Y-101980000D01*
X57000000Y-100830000D01*
X60424508Y-100830000D01*
X60444354Y-100955304D01*
X60501950Y-101068342D01*
X60591658Y-101158050D01*
X60704696Y-101215646D01*
X60830000Y-101235492D01*
X60955304Y-101215646D01*
X61068342Y-101158050D01*
X61158050Y-101068342D01*
X61215646Y-100955304D01*
X61235492Y-100830000D01*
X61215646Y-100704696D01*
X61158050Y-100591658D01*
X61068342Y-100501950D01*
X61068339Y-100501948D01*
X60955304Y-100444354D01*
X60927814Y-100440000D01*
X114277364Y-100440000D01*
X114295766Y-100544363D01*
X114348749Y-100636135D01*
X114348751Y-100636137D01*
X114348752Y-100636138D01*
X114382504Y-100664459D01*
X114429930Y-100704255D01*
X114429934Y-100704257D01*
X114529510Y-100740499D01*
X114529514Y-100740500D01*
X114635486Y-100740500D01*
X114635489Y-100740499D01*
X114735065Y-100704257D01*
X114735064Y-100704257D01*
X114735068Y-100704256D01*
X114816248Y-100636138D01*
X114869234Y-100544363D01*
X114887636Y-100440000D01*
X114869234Y-100335637D01*
X114842068Y-100288584D01*
X114816250Y-100243864D01*
X114735069Y-100175744D01*
X114735065Y-100175742D01*
X114635489Y-100139500D01*
X114635486Y-100139500D01*
X114529514Y-100139500D01*
X114529510Y-100139500D01*
X114429934Y-100175742D01*
X114429930Y-100175744D01*
X114348749Y-100243864D01*
X114295766Y-100335636D01*
X114277364Y-100440000D01*
X60927814Y-100440000D01*
X60830000Y-100424508D01*
X60704695Y-100444354D01*
X60591660Y-100501948D01*
X60501948Y-100591660D01*
X60444354Y-100704695D01*
X60444354Y-100704696D01*
X60424508Y-100830000D01*
X57000000Y-100830000D01*
X57000000Y-100080000D01*
X61765131Y-100080000D01*
X61782500Y-100189662D01*
X61832903Y-100288584D01*
X61832905Y-100288587D01*
X61911413Y-100367095D01*
X62010339Y-100417500D01*
X62120000Y-100434869D01*
X62229661Y-100417500D01*
X62328587Y-100367095D01*
X62407095Y-100288587D01*
X62457500Y-100189661D01*
X62474869Y-100080000D01*
X62457500Y-99970339D01*
X62407095Y-99871413D01*
X62328587Y-99792905D01*
X62328584Y-99792903D01*
X62229662Y-99742500D01*
X62120000Y-99725131D01*
X62010337Y-99742500D01*
X61911415Y-99792903D01*
X61832903Y-99871415D01*
X61782500Y-99970337D01*
X61765131Y-100080000D01*
X57000000Y-100080000D01*
X57000000Y-99630000D01*
X60524508Y-99630000D01*
X60544354Y-99755304D01*
X60601950Y-99868342D01*
X60691658Y-99958050D01*
X60804696Y-100015646D01*
X60930000Y-100035492D01*
X61055304Y-100015646D01*
X61168342Y-99958050D01*
X61258050Y-99868342D01*
X61315646Y-99755304D01*
X61335492Y-99630000D01*
X61315646Y-99504696D01*
X61258050Y-99391658D01*
X61168342Y-99301950D01*
X61168339Y-99301948D01*
X61055304Y-99244354D01*
X61027814Y-99240000D01*
X65184508Y-99240000D01*
X65204354Y-99365304D01*
X65237996Y-99431331D01*
X65261950Y-99478342D01*
X65351658Y-99568050D01*
X65464696Y-99625646D01*
X65590000Y-99645492D01*
X65715304Y-99625646D01*
X65828342Y-99568050D01*
X65918050Y-99478342D01*
X65975646Y-99365304D01*
X65995492Y-99240000D01*
X66364508Y-99240000D01*
X66384354Y-99365304D01*
X66417996Y-99431331D01*
X66441950Y-99478342D01*
X66531658Y-99568050D01*
X66644696Y-99625646D01*
X66770000Y-99645492D01*
X66895304Y-99625646D01*
X67008342Y-99568050D01*
X67098050Y-99478342D01*
X67155646Y-99365304D01*
X67174700Y-99245000D01*
X143964901Y-99245000D01*
X143983252Y-99431327D01*
X143983253Y-99431331D01*
X144037601Y-99610493D01*
X144037602Y-99610496D01*
X144037604Y-99610501D01*
X144056307Y-99645492D01*
X144125860Y-99775619D01*
X144125862Y-99775621D01*
X144125864Y-99775625D01*
X144244643Y-99920357D01*
X144389375Y-100039136D01*
X144389378Y-100039138D01*
X144389380Y-100039139D01*
X144437637Y-100064932D01*
X144554499Y-100127396D01*
X144733669Y-100181747D01*
X144920000Y-100200099D01*
X145106331Y-100181747D01*
X145285501Y-100127396D01*
X145450625Y-100039136D01*
X145595357Y-99920357D01*
X145714136Y-99775625D01*
X145802396Y-99610501D01*
X145856747Y-99431331D01*
X145875099Y-99245000D01*
X145856747Y-99058669D01*
X145802396Y-98879499D01*
X145714136Y-98714375D01*
X145595357Y-98569643D01*
X145450625Y-98450864D01*
X145450621Y-98450862D01*
X145450619Y-98450860D01*
X145309261Y-98375304D01*
X145285501Y-98362604D01*
X145285496Y-98362602D01*
X145285493Y-98362601D01*
X145106331Y-98308253D01*
X145106327Y-98308252D01*
X144920000Y-98289901D01*
X144733672Y-98308252D01*
X144733668Y-98308253D01*
X144554506Y-98362601D01*
X144554493Y-98362607D01*
X144389380Y-98450860D01*
X144389375Y-98450863D01*
X144389375Y-98450864D01*
X144346993Y-98485646D01*
X144244643Y-98569643D01*
X144125860Y-98714380D01*
X144037607Y-98879493D01*
X144037601Y-98879506D01*
X143983253Y-99058668D01*
X143983252Y-99058672D01*
X143964901Y-99245000D01*
X67174700Y-99245000D01*
X67175492Y-99240000D01*
X67155646Y-99114696D01*
X67098050Y-99001658D01*
X67008342Y-98911950D01*
X67008339Y-98911948D01*
X66895304Y-98854354D01*
X66770000Y-98834508D01*
X66644695Y-98854354D01*
X66531660Y-98911948D01*
X66441948Y-99001660D01*
X66384354Y-99114695D01*
X66364508Y-99240000D01*
X65995492Y-99240000D01*
X65975646Y-99114696D01*
X65918050Y-99001658D01*
X65828342Y-98911950D01*
X65828339Y-98911948D01*
X65715304Y-98854354D01*
X65590000Y-98834508D01*
X65464695Y-98854354D01*
X65351660Y-98911948D01*
X65261948Y-99001660D01*
X65204354Y-99114695D01*
X65184508Y-99240000D01*
X61027814Y-99240000D01*
X60930000Y-99224508D01*
X60804695Y-99244354D01*
X60691660Y-99301948D01*
X60601948Y-99391660D01*
X60544354Y-99504695D01*
X60525198Y-99625645D01*
X60524508Y-99630000D01*
X57000000Y-99630000D01*
X57000000Y-98830000D01*
X84894508Y-98830000D01*
X84914354Y-98955304D01*
X84967022Y-99058672D01*
X84971950Y-99068342D01*
X85061658Y-99158050D01*
X85174696Y-99215646D01*
X85300000Y-99235492D01*
X85425304Y-99215646D01*
X85538342Y-99158050D01*
X85628050Y-99068342D01*
X85685646Y-98955304D01*
X85705492Y-98830000D01*
X85685646Y-98704696D01*
X85628050Y-98591658D01*
X85538342Y-98501950D01*
X85538339Y-98501948D01*
X85425304Y-98444354D01*
X85300000Y-98424508D01*
X85174695Y-98444354D01*
X85061660Y-98501948D01*
X84971948Y-98591660D01*
X84914354Y-98704695D01*
X84894508Y-98830000D01*
X57000000Y-98830000D01*
X57000000Y-97930000D01*
X60814508Y-97930000D01*
X60834354Y-98055304D01*
X60890497Y-98165492D01*
X60891950Y-98168342D01*
X60981658Y-98258050D01*
X61094696Y-98315646D01*
X61220000Y-98335492D01*
X61345304Y-98315646D01*
X61458342Y-98258050D01*
X61548050Y-98168342D01*
X61582872Y-98100000D01*
X64974508Y-98100000D01*
X64994354Y-98225304D01*
X65050497Y-98335492D01*
X65051950Y-98338342D01*
X65141658Y-98428050D01*
X65254696Y-98485646D01*
X65380000Y-98505492D01*
X65505304Y-98485646D01*
X65618342Y-98428050D01*
X65708050Y-98338342D01*
X65765646Y-98225304D01*
X65785492Y-98100000D01*
X66564508Y-98100000D01*
X66584354Y-98225304D01*
X66640497Y-98335492D01*
X66641950Y-98338342D01*
X66731658Y-98428050D01*
X66844696Y-98485646D01*
X66970000Y-98505492D01*
X67095304Y-98485646D01*
X67208342Y-98428050D01*
X67298050Y-98338342D01*
X67355646Y-98225304D01*
X67375492Y-98100000D01*
X67359654Y-98000000D01*
X82484508Y-98000000D01*
X82504354Y-98125304D01*
X82555306Y-98225304D01*
X82561950Y-98238342D01*
X82651658Y-98328050D01*
X82764696Y-98385646D01*
X82890000Y-98405492D01*
X83015304Y-98385646D01*
X83128342Y-98328050D01*
X83218050Y-98238342D01*
X83275646Y-98125304D01*
X83295492Y-98000000D01*
X85796730Y-98000000D01*
X85816576Y-98125304D01*
X85867528Y-98225304D01*
X85874172Y-98238342D01*
X85963880Y-98328050D01*
X86076918Y-98385646D01*
X86202222Y-98405492D01*
X86327526Y-98385646D01*
X86440564Y-98328050D01*
X86518614Y-98250000D01*
X97337008Y-98250000D01*
X97356854Y-98375304D01*
X97413075Y-98485645D01*
X97414450Y-98488342D01*
X97504158Y-98578050D01*
X97617196Y-98635646D01*
X97742500Y-98655492D01*
X97867804Y-98635646D01*
X97980842Y-98578050D01*
X98008892Y-98550000D01*
X116827008Y-98550000D01*
X116846854Y-98675304D01*
X116892476Y-98764843D01*
X116904450Y-98788342D01*
X116994158Y-98878050D01*
X117107196Y-98935646D01*
X117232500Y-98955492D01*
X117357804Y-98935646D01*
X117470842Y-98878050D01*
X117560550Y-98788342D01*
X117569572Y-98770633D01*
X117576351Y-98764843D01*
X117585241Y-98765543D01*
X117590332Y-98770634D01*
X117599354Y-98788342D01*
X117604450Y-98798342D01*
X117694158Y-98888050D01*
X117807196Y-98945646D01*
X117932500Y-98965492D01*
X118057804Y-98945646D01*
X118170842Y-98888050D01*
X118260550Y-98798342D01*
X118318146Y-98685304D01*
X118337992Y-98560000D01*
X118318146Y-98434696D01*
X118260550Y-98321658D01*
X118170842Y-98231950D01*
X118170839Y-98231948D01*
X118057804Y-98174354D01*
X117932500Y-98154508D01*
X117807195Y-98174354D01*
X117694160Y-98231948D01*
X117604448Y-98321660D01*
X117595427Y-98339365D01*
X117588647Y-98345156D01*
X117579758Y-98344456D01*
X117574667Y-98339365D01*
X117560551Y-98311660D01*
X117560550Y-98311658D01*
X117470842Y-98221950D01*
X117470839Y-98221948D01*
X117357804Y-98164354D01*
X117232500Y-98144508D01*
X117107195Y-98164354D01*
X116994160Y-98221948D01*
X116904448Y-98311660D01*
X116846854Y-98424695D01*
X116827008Y-98550000D01*
X98008892Y-98550000D01*
X98070550Y-98488342D01*
X98128146Y-98375304D01*
X98147992Y-98250000D01*
X98128146Y-98124696D01*
X98070550Y-98011658D01*
X97980842Y-97921950D01*
X97980839Y-97921948D01*
X97867804Y-97864354D01*
X97742500Y-97844508D01*
X97617195Y-97864354D01*
X97504160Y-97921948D01*
X97414448Y-98011660D01*
X97356854Y-98124695D01*
X97337008Y-98250000D01*
X86518614Y-98250000D01*
X86530272Y-98238342D01*
X86587868Y-98125304D01*
X86607714Y-98000000D01*
X86587868Y-97874696D01*
X86530272Y-97761658D01*
X86440564Y-97671950D01*
X86440561Y-97671948D01*
X86327526Y-97614354D01*
X86202222Y-97594508D01*
X86076917Y-97614354D01*
X85963882Y-97671948D01*
X85874170Y-97761660D01*
X85816576Y-97874695D01*
X85796730Y-98000000D01*
X83295492Y-98000000D01*
X83275646Y-97874696D01*
X83218050Y-97761658D01*
X83128342Y-97671950D01*
X83128339Y-97671948D01*
X83015304Y-97614354D01*
X82890000Y-97594508D01*
X82764695Y-97614354D01*
X82651660Y-97671948D01*
X82561948Y-97761660D01*
X82504354Y-97874695D01*
X82484508Y-98000000D01*
X67359654Y-98000000D01*
X67355646Y-97974696D01*
X67298050Y-97861658D01*
X67208342Y-97771950D01*
X67208339Y-97771948D01*
X67095304Y-97714354D01*
X66970000Y-97694508D01*
X66844695Y-97714354D01*
X66731660Y-97771948D01*
X66641948Y-97861660D01*
X66584354Y-97974695D01*
X66564508Y-98100000D01*
X65785492Y-98100000D01*
X65765646Y-97974696D01*
X65708050Y-97861658D01*
X65618342Y-97771950D01*
X65618339Y-97771948D01*
X65505304Y-97714354D01*
X65380000Y-97694508D01*
X65254695Y-97714354D01*
X65141660Y-97771948D01*
X65051948Y-97861660D01*
X64994354Y-97974695D01*
X64974508Y-98100000D01*
X61582872Y-98100000D01*
X61605646Y-98055304D01*
X61625492Y-97930000D01*
X61605646Y-97804696D01*
X61548050Y-97691658D01*
X61458342Y-97601950D01*
X61458339Y-97601948D01*
X61345304Y-97544354D01*
X61220000Y-97524508D01*
X61094695Y-97544354D01*
X60981660Y-97601948D01*
X60891948Y-97691660D01*
X60834354Y-97804695D01*
X60814508Y-97930000D01*
X57000000Y-97930000D01*
X57000000Y-96860000D01*
X64974508Y-96860000D01*
X64994354Y-96985304D01*
X65041610Y-97078050D01*
X65051950Y-97098342D01*
X65141658Y-97188050D01*
X65254696Y-97245646D01*
X65380000Y-97265492D01*
X65505304Y-97245646D01*
X65618342Y-97188050D01*
X65708050Y-97098342D01*
X65765646Y-96985304D01*
X65785492Y-96860000D01*
X66564508Y-96860000D01*
X66584354Y-96985304D01*
X66631610Y-97078050D01*
X66641950Y-97098342D01*
X66731658Y-97188050D01*
X66844696Y-97245646D01*
X66970000Y-97265492D01*
X67095304Y-97245646D01*
X67208342Y-97188050D01*
X67298050Y-97098342D01*
X67355646Y-96985304D01*
X67375492Y-96860000D01*
X67358070Y-96750000D01*
X75084508Y-96750000D01*
X75104354Y-96875304D01*
X75155402Y-96975492D01*
X75161950Y-96988342D01*
X75251658Y-97078050D01*
X75364696Y-97135646D01*
X75490000Y-97155492D01*
X75615304Y-97135646D01*
X75728342Y-97078050D01*
X75736392Y-97070000D01*
X79804508Y-97070000D01*
X79824354Y-97195304D01*
X79860116Y-97265492D01*
X79881950Y-97308342D01*
X79971658Y-97398050D01*
X80084696Y-97455646D01*
X80210000Y-97475492D01*
X80335304Y-97455646D01*
X80385637Y-97430000D01*
X102797631Y-97430000D01*
X102815000Y-97539662D01*
X102863422Y-97634696D01*
X102865405Y-97638587D01*
X102943913Y-97717095D01*
X103042839Y-97767500D01*
X103152500Y-97784869D01*
X103262161Y-97767500D01*
X103276881Y-97760000D01*
X117187008Y-97760000D01*
X117206854Y-97885304D01*
X117252401Y-97974696D01*
X117264450Y-97998342D01*
X117354158Y-98088050D01*
X117467196Y-98145646D01*
X117592500Y-98165492D01*
X117717804Y-98145646D01*
X117830842Y-98088050D01*
X117920550Y-97998342D01*
X117978146Y-97885304D01*
X117997992Y-97760000D01*
X117978146Y-97634696D01*
X117920550Y-97521658D01*
X117830842Y-97431950D01*
X117830839Y-97431948D01*
X117717804Y-97374354D01*
X117592500Y-97354508D01*
X117467195Y-97374354D01*
X117354160Y-97431948D01*
X117264448Y-97521660D01*
X117206854Y-97634695D01*
X117187008Y-97760000D01*
X103276881Y-97760000D01*
X103361087Y-97717095D01*
X103439595Y-97638587D01*
X103490000Y-97539661D01*
X103507369Y-97430000D01*
X103490000Y-97320339D01*
X103439595Y-97221413D01*
X103361087Y-97142905D01*
X103361084Y-97142903D01*
X103262162Y-97092500D01*
X103152500Y-97075131D01*
X103042837Y-97092500D01*
X102943915Y-97142903D01*
X102865403Y-97221415D01*
X102815000Y-97320337D01*
X102797631Y-97430000D01*
X80385637Y-97430000D01*
X80448342Y-97398050D01*
X80538050Y-97308342D01*
X80595646Y-97195304D01*
X80615492Y-97070000D01*
X80595646Y-96944696D01*
X80538050Y-96831658D01*
X80448342Y-96741950D01*
X80448339Y-96741948D01*
X80335304Y-96684354D01*
X80210000Y-96664508D01*
X80084695Y-96684354D01*
X79971660Y-96741948D01*
X79881948Y-96831660D01*
X79824354Y-96944695D01*
X79804508Y-97070000D01*
X75736392Y-97070000D01*
X75818050Y-96988342D01*
X75875646Y-96875304D01*
X75895492Y-96750000D01*
X75875646Y-96624696D01*
X75818050Y-96511658D01*
X75728342Y-96421950D01*
X75728339Y-96421948D01*
X75615304Y-96364354D01*
X75490000Y-96344508D01*
X75364695Y-96364354D01*
X75251660Y-96421948D01*
X75161948Y-96511660D01*
X75104354Y-96624695D01*
X75084508Y-96750000D01*
X67358070Y-96750000D01*
X67355646Y-96734696D01*
X67298050Y-96621658D01*
X67208342Y-96531950D01*
X67208339Y-96531948D01*
X67095304Y-96474354D01*
X66970000Y-96454508D01*
X66844695Y-96474354D01*
X66731660Y-96531948D01*
X66641948Y-96621660D01*
X66584354Y-96734695D01*
X66564508Y-96860000D01*
X65785492Y-96860000D01*
X65765646Y-96734696D01*
X65708050Y-96621658D01*
X65618342Y-96531950D01*
X65618339Y-96531948D01*
X65505304Y-96474354D01*
X65380000Y-96454508D01*
X65254695Y-96474354D01*
X65141660Y-96531948D01*
X65051948Y-96621660D01*
X64994354Y-96734695D01*
X64974508Y-96860000D01*
X57000000Y-96860000D01*
X57000000Y-95930000D01*
X60814508Y-95930000D01*
X60834354Y-96055304D01*
X60889400Y-96163339D01*
X60891950Y-96168342D01*
X60981658Y-96258050D01*
X61094696Y-96315646D01*
X61220000Y-96335492D01*
X61345304Y-96315646D01*
X61458342Y-96258050D01*
X61548050Y-96168342D01*
X61605646Y-96055304D01*
X61625492Y-95930000D01*
X61605646Y-95804696D01*
X61548050Y-95691658D01*
X61458342Y-95601950D01*
X61458339Y-95601948D01*
X61345304Y-95544354D01*
X61220000Y-95524508D01*
X61094695Y-95544354D01*
X60981660Y-95601948D01*
X60891948Y-95691660D01*
X60834354Y-95804695D01*
X60814508Y-95930000D01*
X57000000Y-95930000D01*
X57000000Y-95446711D01*
X61984300Y-95446711D01*
X61984300Y-95573290D01*
X62017059Y-95695546D01*
X62080077Y-95804695D01*
X62080344Y-95805158D01*
X62169843Y-95894657D01*
X62197908Y-95910860D01*
X62279454Y-95957941D01*
X62279456Y-95957941D01*
X62279457Y-95957942D01*
X62324202Y-95969931D01*
X62401710Y-95990700D01*
X62401713Y-95990700D01*
X62401715Y-95990701D01*
X62401716Y-95990701D01*
X62528284Y-95990701D01*
X62528285Y-95990701D01*
X62650543Y-95957942D01*
X62698940Y-95930000D01*
X75544508Y-95930000D01*
X75564354Y-96055304D01*
X75619400Y-96163339D01*
X75621950Y-96168342D01*
X75711658Y-96258050D01*
X75824696Y-96315646D01*
X75950000Y-96335492D01*
X76075304Y-96315646D01*
X76188342Y-96258050D01*
X76278050Y-96168342D01*
X76302682Y-96120000D01*
X76669508Y-96120000D01*
X76689354Y-96245304D01*
X76737352Y-96339506D01*
X76746950Y-96358342D01*
X76836658Y-96448050D01*
X76949696Y-96505646D01*
X77075000Y-96525492D01*
X77172814Y-96510000D01*
X80644508Y-96510000D01*
X80664354Y-96635304D01*
X80694925Y-96695304D01*
X80721950Y-96748342D01*
X80811658Y-96838050D01*
X80924696Y-96895646D01*
X81050000Y-96915492D01*
X81175304Y-96895646D01*
X81288342Y-96838050D01*
X81378050Y-96748342D01*
X81435646Y-96635304D01*
X81455492Y-96510000D01*
X81452324Y-96490000D01*
X102797631Y-96490000D01*
X102815000Y-96599662D01*
X102863732Y-96695304D01*
X102865405Y-96698587D01*
X102943913Y-96777095D01*
X103042839Y-96827500D01*
X103152500Y-96844869D01*
X103262161Y-96827500D01*
X103361087Y-96777095D01*
X103439595Y-96698587D01*
X103490000Y-96599661D01*
X103507369Y-96490000D01*
X103490000Y-96380339D01*
X103439595Y-96281413D01*
X103361087Y-96202905D01*
X103361084Y-96202903D01*
X103262162Y-96152500D01*
X103152500Y-96135131D01*
X103042837Y-96152500D01*
X102943915Y-96202903D01*
X102865403Y-96281415D01*
X102815000Y-96380337D01*
X102797631Y-96490000D01*
X81452324Y-96490000D01*
X81435646Y-96384696D01*
X81378050Y-96271658D01*
X81288342Y-96181950D01*
X81288339Y-96181948D01*
X81175304Y-96124354D01*
X81050000Y-96104508D01*
X80924695Y-96124354D01*
X80811660Y-96181948D01*
X80721948Y-96271660D01*
X80664354Y-96384695D01*
X80644508Y-96510000D01*
X77172814Y-96510000D01*
X77200304Y-96505646D01*
X77313342Y-96448050D01*
X77403050Y-96358342D01*
X77460646Y-96245304D01*
X77480492Y-96120000D01*
X77469405Y-96050000D01*
X77554508Y-96050000D01*
X77574354Y-96175304D01*
X77628420Y-96281415D01*
X77631950Y-96288342D01*
X77721658Y-96378050D01*
X77834696Y-96435646D01*
X77960000Y-96455492D01*
X78085304Y-96435646D01*
X78198342Y-96378050D01*
X78288050Y-96288342D01*
X78345646Y-96175304D01*
X78365492Y-96050000D01*
X78345646Y-95924696D01*
X78288050Y-95811658D01*
X78198342Y-95721950D01*
X78198339Y-95721948D01*
X78085304Y-95664354D01*
X77960000Y-95644508D01*
X77834695Y-95664354D01*
X77721660Y-95721948D01*
X77631948Y-95811660D01*
X77574354Y-95924695D01*
X77554508Y-96050000D01*
X77469405Y-96050000D01*
X77460646Y-95994696D01*
X77403050Y-95881658D01*
X77313342Y-95791950D01*
X77313339Y-95791948D01*
X77200304Y-95734354D01*
X77075000Y-95714508D01*
X76949695Y-95734354D01*
X76836660Y-95791948D01*
X76746948Y-95881660D01*
X76689354Y-95994695D01*
X76669508Y-96120000D01*
X76302682Y-96120000D01*
X76335646Y-96055304D01*
X76355492Y-95930000D01*
X76335646Y-95804696D01*
X76278050Y-95691658D01*
X76188342Y-95601950D01*
X76188339Y-95601948D01*
X76075304Y-95544354D01*
X75950000Y-95524508D01*
X75824695Y-95544354D01*
X75711660Y-95601948D01*
X75621948Y-95691660D01*
X75564354Y-95804695D01*
X75544508Y-95930000D01*
X62698940Y-95930000D01*
X62760157Y-95894657D01*
X62849656Y-95805158D01*
X62912941Y-95695544D01*
X62945700Y-95573286D01*
X62945700Y-95446716D01*
X62912941Y-95324458D01*
X62912940Y-95324457D01*
X62912940Y-95324455D01*
X62887274Y-95280000D01*
X116127008Y-95280000D01*
X116146854Y-95405304D01*
X116167954Y-95446716D01*
X116204450Y-95518342D01*
X116259393Y-95573285D01*
X116280370Y-95594262D01*
X116283782Y-95602500D01*
X116280370Y-95610738D01*
X116204448Y-95686660D01*
X116146854Y-95799695D01*
X116127008Y-95925000D01*
X116146854Y-96050304D01*
X116198925Y-96152500D01*
X116204450Y-96163342D01*
X116244011Y-96202903D01*
X116280370Y-96239262D01*
X116283782Y-96247500D01*
X116280370Y-96255738D01*
X116204448Y-96331660D01*
X116146854Y-96444695D01*
X116127008Y-96570000D01*
X116146854Y-96695304D01*
X116188528Y-96777095D01*
X116204450Y-96808342D01*
X116294158Y-96898050D01*
X116407196Y-96955646D01*
X116532500Y-96975492D01*
X116657804Y-96955646D01*
X116770842Y-96898050D01*
X116860550Y-96808342D01*
X116918146Y-96695304D01*
X116937992Y-96570000D01*
X116918146Y-96444696D01*
X116860550Y-96331658D01*
X116784628Y-96255736D01*
X116781217Y-96247500D01*
X116784628Y-96239263D01*
X116860550Y-96163342D01*
X116918146Y-96050304D01*
X116937992Y-95925000D01*
X116918146Y-95799696D01*
X116860550Y-95686658D01*
X116784628Y-95610736D01*
X116781217Y-95602500D01*
X116784628Y-95594263D01*
X116860550Y-95518342D01*
X116918146Y-95405304D01*
X116937992Y-95280000D01*
X118377008Y-95280000D01*
X118396854Y-95405304D01*
X118417954Y-95446716D01*
X118454450Y-95518342D01*
X118509393Y-95573285D01*
X118530370Y-95594262D01*
X118533782Y-95602500D01*
X118530370Y-95610738D01*
X118454448Y-95686660D01*
X118396854Y-95799695D01*
X118377008Y-95925000D01*
X118396854Y-96050304D01*
X118448925Y-96152500D01*
X118454450Y-96163342D01*
X118494011Y-96202903D01*
X118530370Y-96239262D01*
X118533782Y-96247500D01*
X118530370Y-96255738D01*
X118454448Y-96331660D01*
X118396854Y-96444695D01*
X118377008Y-96570000D01*
X118396854Y-96695304D01*
X118438528Y-96777095D01*
X118454450Y-96808342D01*
X118544158Y-96898050D01*
X118657196Y-96955646D01*
X118782500Y-96975492D01*
X118907804Y-96955646D01*
X119020842Y-96898050D01*
X119110550Y-96808342D01*
X119163206Y-96705000D01*
X143964901Y-96705000D01*
X143983252Y-96891327D01*
X143983253Y-96891331D01*
X144037601Y-97070493D01*
X144037602Y-97070496D01*
X144037604Y-97070501D01*
X144037607Y-97070506D01*
X144125860Y-97235619D01*
X144125862Y-97235621D01*
X144125864Y-97235625D01*
X144244643Y-97380357D01*
X144389375Y-97499136D01*
X144389378Y-97499138D01*
X144389380Y-97499139D01*
X144431511Y-97521658D01*
X144554499Y-97587396D01*
X144733669Y-97641747D01*
X144920000Y-97660099D01*
X145106331Y-97641747D01*
X145285501Y-97587396D01*
X145450625Y-97499136D01*
X145595357Y-97380357D01*
X145714136Y-97235625D01*
X145802396Y-97070501D01*
X145856747Y-96891331D01*
X145875099Y-96705000D01*
X145856747Y-96518669D01*
X145802396Y-96339499D01*
X145739932Y-96222637D01*
X145714139Y-96174380D01*
X145714138Y-96174378D01*
X145714136Y-96174375D01*
X145595357Y-96029643D01*
X145450625Y-95910864D01*
X145450621Y-95910862D01*
X145450619Y-95910860D01*
X145333763Y-95848400D01*
X145285501Y-95822604D01*
X145285496Y-95822602D01*
X145285493Y-95822601D01*
X145106331Y-95768253D01*
X145106327Y-95768252D01*
X144920000Y-95749901D01*
X144733672Y-95768252D01*
X144733668Y-95768253D01*
X144554506Y-95822601D01*
X144554493Y-95822607D01*
X144389380Y-95910860D01*
X144389375Y-95910863D01*
X144389375Y-95910864D01*
X144244643Y-96029643D01*
X144143817Y-96152500D01*
X144125860Y-96174380D01*
X144037607Y-96339493D01*
X144037601Y-96339506D01*
X143983253Y-96518668D01*
X143983252Y-96518672D01*
X143964901Y-96705000D01*
X119163206Y-96705000D01*
X119168146Y-96695304D01*
X119187992Y-96570000D01*
X119168146Y-96444696D01*
X119110550Y-96331658D01*
X119034628Y-96255736D01*
X119031217Y-96247500D01*
X119034628Y-96239263D01*
X119110550Y-96163342D01*
X119168146Y-96050304D01*
X119187992Y-95925000D01*
X119168146Y-95799696D01*
X119110550Y-95686658D01*
X119034628Y-95610736D01*
X119031217Y-95602500D01*
X119034628Y-95594263D01*
X119110550Y-95518342D01*
X119168146Y-95405304D01*
X119187992Y-95280000D01*
X119168146Y-95154696D01*
X119110550Y-95041658D01*
X119020842Y-94951950D01*
X119020839Y-94951948D01*
X118907804Y-94894354D01*
X118782500Y-94874508D01*
X118657195Y-94894354D01*
X118544160Y-94951948D01*
X118454448Y-95041660D01*
X118396854Y-95154695D01*
X118377008Y-95280000D01*
X116937992Y-95280000D01*
X116918146Y-95154696D01*
X116860550Y-95041658D01*
X116770842Y-94951950D01*
X116770839Y-94951948D01*
X116657804Y-94894354D01*
X116532500Y-94874508D01*
X116407195Y-94894354D01*
X116294160Y-94951948D01*
X116204448Y-95041660D01*
X116146854Y-95154695D01*
X116127008Y-95280000D01*
X62887274Y-95280000D01*
X62849655Y-95214843D01*
X62760157Y-95125345D01*
X62650545Y-95062060D01*
X62528289Y-95029301D01*
X62528285Y-95029301D01*
X62401715Y-95029301D01*
X62401710Y-95029301D01*
X62279454Y-95062060D01*
X62169842Y-95125345D01*
X62080344Y-95214843D01*
X62017059Y-95324455D01*
X61984300Y-95446711D01*
X57000000Y-95446711D01*
X57000000Y-94350000D01*
X58324508Y-94350000D01*
X58344354Y-94475304D01*
X58396080Y-94576823D01*
X58401950Y-94588342D01*
X58491658Y-94678050D01*
X58604696Y-94735646D01*
X58730000Y-94755492D01*
X58855304Y-94735646D01*
X58968342Y-94678050D01*
X59058050Y-94588342D01*
X59115646Y-94475304D01*
X59130741Y-94380000D01*
X62299103Y-94380000D01*
X62320485Y-94487495D01*
X62381376Y-94578624D01*
X62472505Y-94639515D01*
X62580000Y-94660897D01*
X62687495Y-94639515D01*
X62778624Y-94578624D01*
X62839515Y-94487495D01*
X62860897Y-94380000D01*
X62859876Y-94374869D01*
X62855194Y-94351331D01*
X62839515Y-94272505D01*
X62778624Y-94181376D01*
X62687495Y-94120485D01*
X62580000Y-94099103D01*
X62472505Y-94120485D01*
X62381377Y-94181375D01*
X62381375Y-94181377D01*
X62320485Y-94272505D01*
X62300124Y-94374869D01*
X62299103Y-94380000D01*
X59130741Y-94380000D01*
X59135492Y-94350000D01*
X59115646Y-94224696D01*
X59058050Y-94111658D01*
X58968342Y-94021950D01*
X58968339Y-94021948D01*
X58964516Y-94020000D01*
X75835131Y-94020000D01*
X75852500Y-94129662D01*
X75900922Y-94224696D01*
X75902905Y-94228587D01*
X75981413Y-94307095D01*
X76080339Y-94357500D01*
X76190000Y-94374869D01*
X76299661Y-94357500D01*
X76398587Y-94307095D01*
X76477095Y-94228587D01*
X76509494Y-94165000D01*
X143964901Y-94165000D01*
X143983252Y-94351327D01*
X143983253Y-94351331D01*
X144037601Y-94530493D01*
X144037602Y-94530496D01*
X144037604Y-94530501D01*
X144037607Y-94530506D01*
X144125860Y-94695619D01*
X144125862Y-94695621D01*
X144125864Y-94695625D01*
X144244643Y-94840357D01*
X144389375Y-94959136D01*
X144389378Y-94959138D01*
X144389380Y-94959139D01*
X144437637Y-94984932D01*
X144554499Y-95047396D01*
X144733669Y-95101747D01*
X144920000Y-95120099D01*
X145106331Y-95101747D01*
X145285501Y-95047396D01*
X145450625Y-94959136D01*
X145595357Y-94840357D01*
X145714136Y-94695625D01*
X145802396Y-94530501D01*
X145856747Y-94351331D01*
X145875099Y-94165000D01*
X145856747Y-93978669D01*
X145848050Y-93949998D01*
X153689612Y-93949998D01*
X153689612Y-93950001D01*
X153709091Y-94110432D01*
X153709092Y-94110436D01*
X153766399Y-94261542D01*
X153766401Y-94261545D01*
X153858207Y-94394549D01*
X153858210Y-94394552D01*
X153858209Y-94394552D01*
X153979170Y-94501714D01*
X153979176Y-94501719D01*
X154122277Y-94576824D01*
X154122282Y-94576825D01*
X154122284Y-94576826D01*
X154271527Y-94613610D01*
X154279194Y-94615500D01*
X154279195Y-94615500D01*
X154440805Y-94615500D01*
X154440806Y-94615500D01*
X154597723Y-94576824D01*
X154740824Y-94501719D01*
X154861793Y-94394549D01*
X154953599Y-94261545D01*
X155010908Y-94110434D01*
X155030388Y-93950000D01*
X155030388Y-93949998D01*
X156229612Y-93949998D01*
X156229612Y-93950001D01*
X156249091Y-94110432D01*
X156249092Y-94110436D01*
X156306399Y-94261542D01*
X156306401Y-94261545D01*
X156398207Y-94394549D01*
X156398210Y-94394552D01*
X156398209Y-94394552D01*
X156519170Y-94501714D01*
X156519176Y-94501719D01*
X156662277Y-94576824D01*
X156662282Y-94576825D01*
X156662284Y-94576826D01*
X156811527Y-94613610D01*
X156819194Y-94615500D01*
X156819195Y-94615500D01*
X156980805Y-94615500D01*
X156980806Y-94615500D01*
X157137723Y-94576824D01*
X157280824Y-94501719D01*
X157401793Y-94394549D01*
X157493599Y-94261545D01*
X157550908Y-94110434D01*
X157570388Y-93950000D01*
X157570388Y-93949998D01*
X158769612Y-93949998D01*
X158769612Y-93950001D01*
X158789091Y-94110432D01*
X158789092Y-94110436D01*
X158846399Y-94261542D01*
X158846401Y-94261545D01*
X158938207Y-94394549D01*
X158938210Y-94394552D01*
X158938209Y-94394552D01*
X159059170Y-94501714D01*
X159059176Y-94501719D01*
X159202277Y-94576824D01*
X159202282Y-94576825D01*
X159202284Y-94576826D01*
X159351527Y-94613610D01*
X159359194Y-94615500D01*
X159359195Y-94615500D01*
X159520805Y-94615500D01*
X159520806Y-94615500D01*
X159677723Y-94576824D01*
X159820824Y-94501719D01*
X159941793Y-94394549D01*
X160033599Y-94261545D01*
X160090908Y-94110434D01*
X160110388Y-93950000D01*
X160110388Y-93949998D01*
X161309612Y-93949998D01*
X161309612Y-93950001D01*
X161329091Y-94110432D01*
X161329092Y-94110436D01*
X161386399Y-94261542D01*
X161386401Y-94261545D01*
X161478207Y-94394549D01*
X161478210Y-94394552D01*
X161478209Y-94394552D01*
X161599170Y-94501714D01*
X161599176Y-94501719D01*
X161742277Y-94576824D01*
X161742282Y-94576825D01*
X161742284Y-94576826D01*
X161891527Y-94613610D01*
X161899194Y-94615500D01*
X161899195Y-94615500D01*
X162060805Y-94615500D01*
X162060806Y-94615500D01*
X162217723Y-94576824D01*
X162360824Y-94501719D01*
X162481793Y-94394549D01*
X162573599Y-94261545D01*
X162630908Y-94110434D01*
X162650388Y-93950000D01*
X162630908Y-93789566D01*
X162609419Y-93732905D01*
X162573600Y-93638457D01*
X162573598Y-93638454D01*
X162570786Y-93634380D01*
X162481793Y-93505451D01*
X162481789Y-93505448D01*
X162481789Y-93505447D01*
X162481790Y-93505447D01*
X162360829Y-93398285D01*
X162360827Y-93398283D01*
X162360824Y-93398281D01*
X162217723Y-93323176D01*
X162217720Y-93323175D01*
X162217715Y-93323173D01*
X162060809Y-93284500D01*
X162060806Y-93284500D01*
X161899194Y-93284500D01*
X161899190Y-93284500D01*
X161742284Y-93323173D01*
X161742277Y-93323176D01*
X161651423Y-93370860D01*
X161599178Y-93398280D01*
X161599170Y-93398285D01*
X161478210Y-93505447D01*
X161386401Y-93638454D01*
X161386399Y-93638457D01*
X161329092Y-93789563D01*
X161329091Y-93789567D01*
X161309612Y-93949998D01*
X160110388Y-93949998D01*
X160090908Y-93789566D01*
X160069419Y-93732905D01*
X160033600Y-93638457D01*
X160033598Y-93638454D01*
X160030786Y-93634380D01*
X159941793Y-93505451D01*
X159941789Y-93505448D01*
X159941789Y-93505447D01*
X159941790Y-93505447D01*
X159820829Y-93398285D01*
X159820827Y-93398283D01*
X159820824Y-93398281D01*
X159677723Y-93323176D01*
X159677720Y-93323175D01*
X159677715Y-93323173D01*
X159520809Y-93284500D01*
X159520806Y-93284500D01*
X159359194Y-93284500D01*
X159359190Y-93284500D01*
X159202284Y-93323173D01*
X159202277Y-93323176D01*
X159111423Y-93370860D01*
X159059178Y-93398280D01*
X159059170Y-93398285D01*
X158938210Y-93505447D01*
X158846401Y-93638454D01*
X158846399Y-93638457D01*
X158789092Y-93789563D01*
X158789091Y-93789567D01*
X158769612Y-93949998D01*
X157570388Y-93949998D01*
X157550908Y-93789566D01*
X157529419Y-93732905D01*
X157493600Y-93638457D01*
X157493598Y-93638454D01*
X157490786Y-93634380D01*
X157401793Y-93505451D01*
X157401789Y-93505448D01*
X157401789Y-93505447D01*
X157401790Y-93505447D01*
X157280829Y-93398285D01*
X157280827Y-93398283D01*
X157280824Y-93398281D01*
X157137723Y-93323176D01*
X157137720Y-93323175D01*
X157137715Y-93323173D01*
X156980809Y-93284500D01*
X156980806Y-93284500D01*
X156819194Y-93284500D01*
X156819190Y-93284500D01*
X156662284Y-93323173D01*
X156662277Y-93323176D01*
X156571423Y-93370860D01*
X156519178Y-93398280D01*
X156519170Y-93398285D01*
X156398210Y-93505447D01*
X156306401Y-93638454D01*
X156306399Y-93638457D01*
X156249092Y-93789563D01*
X156249091Y-93789567D01*
X156229612Y-93949998D01*
X155030388Y-93949998D01*
X155010908Y-93789566D01*
X154989419Y-93732905D01*
X154953600Y-93638457D01*
X154953598Y-93638454D01*
X154950786Y-93634380D01*
X154861793Y-93505451D01*
X154861789Y-93505448D01*
X154861789Y-93505447D01*
X154861790Y-93505447D01*
X154740829Y-93398285D01*
X154740827Y-93398283D01*
X154740824Y-93398281D01*
X154597723Y-93323176D01*
X154597720Y-93323175D01*
X154597715Y-93323173D01*
X154440809Y-93284500D01*
X154440806Y-93284500D01*
X154279194Y-93284500D01*
X154279190Y-93284500D01*
X154122284Y-93323173D01*
X154122277Y-93323176D01*
X154031423Y-93370860D01*
X153979178Y-93398280D01*
X153979170Y-93398285D01*
X153858210Y-93505447D01*
X153766401Y-93638454D01*
X153766399Y-93638457D01*
X153709092Y-93789563D01*
X153709091Y-93789567D01*
X153689612Y-93949998D01*
X145848050Y-93949998D01*
X145802396Y-93799499D01*
X145716317Y-93638455D01*
X145714139Y-93634380D01*
X145714138Y-93634378D01*
X145714136Y-93634375D01*
X145595357Y-93489643D01*
X145450625Y-93370864D01*
X145450621Y-93370862D01*
X145450619Y-93370860D01*
X145289048Y-93284500D01*
X145285501Y-93282604D01*
X145285496Y-93282602D01*
X145285493Y-93282601D01*
X145106331Y-93228253D01*
X145106327Y-93228252D01*
X144920000Y-93209901D01*
X144733672Y-93228252D01*
X144733668Y-93228253D01*
X144554506Y-93282601D01*
X144554493Y-93282607D01*
X144389380Y-93370860D01*
X144389375Y-93370863D01*
X144389375Y-93370864D01*
X144355963Y-93398285D01*
X144244643Y-93489643D01*
X144125860Y-93634380D01*
X144037607Y-93799493D01*
X144037601Y-93799506D01*
X143983253Y-93978668D01*
X143983252Y-93978672D01*
X143964901Y-94165000D01*
X76509494Y-94165000D01*
X76527500Y-94129661D01*
X76544869Y-94020000D01*
X76527500Y-93910339D01*
X76477095Y-93811413D01*
X76398587Y-93732905D01*
X76398584Y-93732903D01*
X76299662Y-93682500D01*
X76190000Y-93665131D01*
X76080337Y-93682500D01*
X75981415Y-93732903D01*
X75902903Y-93811415D01*
X75852500Y-93910337D01*
X75835131Y-94020000D01*
X58964516Y-94020000D01*
X58855304Y-93964354D01*
X58730000Y-93944508D01*
X58604695Y-93964354D01*
X58491660Y-94021948D01*
X58401948Y-94111660D01*
X58344354Y-94224695D01*
X58324508Y-94350000D01*
X57000000Y-94350000D01*
X57000000Y-93380000D01*
X62145131Y-93380000D01*
X62162500Y-93489662D01*
X62170543Y-93505447D01*
X62212905Y-93588587D01*
X62291413Y-93667095D01*
X62390339Y-93717500D01*
X62500000Y-93734869D01*
X62609661Y-93717500D01*
X62708587Y-93667095D01*
X62787095Y-93588587D01*
X62837500Y-93489661D01*
X62854869Y-93380000D01*
X62837500Y-93270339D01*
X62787095Y-93171413D01*
X62708587Y-93092905D01*
X62708584Y-93092903D01*
X62609662Y-93042500D01*
X62500000Y-93025131D01*
X62390337Y-93042500D01*
X62291415Y-93092903D01*
X62212903Y-93171415D01*
X62162500Y-93270337D01*
X62145131Y-93380000D01*
X57000000Y-93380000D01*
X57000000Y-92990000D01*
X57845131Y-92990000D01*
X57862500Y-93099662D01*
X57891961Y-93157482D01*
X57912905Y-93198587D01*
X57991413Y-93277095D01*
X58090339Y-93327500D01*
X58200000Y-93344869D01*
X58309661Y-93327500D01*
X58408587Y-93277095D01*
X58487095Y-93198587D01*
X58537500Y-93099661D01*
X58551701Y-93010000D01*
X75835131Y-93010000D01*
X75852500Y-93119662D01*
X75898479Y-93209901D01*
X75902905Y-93218587D01*
X75981413Y-93297095D01*
X76080339Y-93347500D01*
X76190000Y-93364869D01*
X76299661Y-93347500D01*
X76398587Y-93297095D01*
X76477095Y-93218587D01*
X76527500Y-93119661D01*
X76540117Y-93040000D01*
X81529819Y-93040000D01*
X81548426Y-93157482D01*
X81584485Y-93228253D01*
X81602427Y-93263465D01*
X81686535Y-93347573D01*
X81792518Y-93401574D01*
X81910000Y-93420181D01*
X82027482Y-93401574D01*
X82133465Y-93347573D01*
X82217573Y-93263465D01*
X82271574Y-93157482D01*
X82290181Y-93040000D01*
X82271574Y-92922518D01*
X82217573Y-92816535D01*
X82133465Y-92732427D01*
X82133462Y-92732425D01*
X82027482Y-92678426D01*
X81910000Y-92659819D01*
X81792517Y-92678426D01*
X81686537Y-92732425D01*
X81602425Y-92816537D01*
X81548426Y-92922517D01*
X81529819Y-93040000D01*
X76540117Y-93040000D01*
X76544869Y-93010000D01*
X76527500Y-92900339D01*
X76477095Y-92801413D01*
X76398587Y-92722905D01*
X76398584Y-92722903D01*
X76299662Y-92672500D01*
X76190000Y-92655131D01*
X76080337Y-92672500D01*
X75981415Y-92722903D01*
X75902903Y-92801415D01*
X75852500Y-92900337D01*
X75835131Y-93010000D01*
X58551701Y-93010000D01*
X58554869Y-92990000D01*
X58537500Y-92880339D01*
X58487095Y-92781413D01*
X58408587Y-92702905D01*
X58408584Y-92702903D01*
X58309662Y-92652500D01*
X58200000Y-92635131D01*
X58090337Y-92652500D01*
X57991415Y-92702903D01*
X57912903Y-92781415D01*
X57862500Y-92880337D01*
X57845131Y-92990000D01*
X57000000Y-92990000D01*
X57000000Y-92610000D01*
X64675131Y-92610000D01*
X64692500Y-92719662D01*
X64723964Y-92781413D01*
X64742905Y-92818587D01*
X64821413Y-92897095D01*
X64920339Y-92947500D01*
X65030000Y-92964869D01*
X65139661Y-92947500D01*
X65238587Y-92897095D01*
X65317095Y-92818587D01*
X65367500Y-92719661D01*
X65384869Y-92610000D01*
X65367500Y-92500339D01*
X65317095Y-92401413D01*
X65238587Y-92322905D01*
X65238584Y-92322903D01*
X65139662Y-92272500D01*
X65030000Y-92255131D01*
X64920337Y-92272500D01*
X64821415Y-92322903D01*
X64742903Y-92401415D01*
X64692500Y-92500337D01*
X64675131Y-92610000D01*
X57000000Y-92610000D01*
X57000000Y-91970000D01*
X59564508Y-91970000D01*
X59584354Y-92095304D01*
X59615838Y-92157096D01*
X59641950Y-92208342D01*
X59731658Y-92298050D01*
X59844696Y-92355646D01*
X59970000Y-92375492D01*
X60095304Y-92355646D01*
X60208342Y-92298050D01*
X60298050Y-92208342D01*
X60355646Y-92095304D01*
X60375492Y-91970000D01*
X60359654Y-91870000D01*
X64585131Y-91870000D01*
X64602500Y-91979662D01*
X64638167Y-92049662D01*
X64652905Y-92078587D01*
X64731413Y-92157095D01*
X64830339Y-92207500D01*
X64940000Y-92224869D01*
X65049661Y-92207500D01*
X65148587Y-92157095D01*
X65227095Y-92078587D01*
X65277500Y-91979661D01*
X65283782Y-91940000D01*
X75835131Y-91940000D01*
X75852500Y-92049662D01*
X75867238Y-92078587D01*
X75902905Y-92148587D01*
X75981413Y-92227095D01*
X76080339Y-92277500D01*
X76190000Y-92294869D01*
X76299661Y-92277500D01*
X76398587Y-92227095D01*
X76477095Y-92148587D01*
X76527500Y-92049661D01*
X76544869Y-91940000D01*
X76527500Y-91830339D01*
X76477095Y-91731413D01*
X76398587Y-91652905D01*
X76398584Y-91652903D01*
X76343821Y-91625000D01*
X143964901Y-91625000D01*
X143983252Y-91811327D01*
X143983253Y-91811331D01*
X144037601Y-91990493D01*
X144037602Y-91990496D01*
X144037604Y-91990501D01*
X144037607Y-91990506D01*
X144125860Y-92155619D01*
X144125862Y-92155621D01*
X144125864Y-92155625D01*
X144244643Y-92300357D01*
X144389375Y-92419136D01*
X144389378Y-92419138D01*
X144389380Y-92419139D01*
X144437637Y-92444932D01*
X144554499Y-92507396D01*
X144733669Y-92561747D01*
X144920000Y-92580099D01*
X145106331Y-92561747D01*
X145285501Y-92507396D01*
X145450625Y-92419136D01*
X145595357Y-92300357D01*
X145714136Y-92155625D01*
X145802396Y-91990501D01*
X145856747Y-91811331D01*
X145875099Y-91625000D01*
X145856747Y-91438669D01*
X145802396Y-91259499D01*
X145754558Y-91170000D01*
X192969103Y-91170000D01*
X192990485Y-91277495D01*
X193051376Y-91368624D01*
X193142505Y-91429515D01*
X193250000Y-91450897D01*
X193357495Y-91429515D01*
X193448624Y-91368624D01*
X193509515Y-91277495D01*
X193530897Y-91170000D01*
X193509515Y-91062505D01*
X193448624Y-90971376D01*
X193357495Y-90910485D01*
X193250000Y-90889103D01*
X193142505Y-90910485D01*
X193051377Y-90971375D01*
X193051375Y-90971377D01*
X192990485Y-91062505D01*
X192972808Y-91151376D01*
X192969103Y-91170000D01*
X145754558Y-91170000D01*
X145722307Y-91109662D01*
X145714139Y-91094380D01*
X145714138Y-91094378D01*
X145714136Y-91094375D01*
X145595357Y-90949643D01*
X145450625Y-90830864D01*
X145450621Y-90830862D01*
X145450619Y-90830860D01*
X145304047Y-90752517D01*
X145285501Y-90742604D01*
X145285496Y-90742602D01*
X145285493Y-90742601D01*
X145106331Y-90688253D01*
X145106327Y-90688252D01*
X144920000Y-90669901D01*
X144733672Y-90688252D01*
X144733668Y-90688253D01*
X144554506Y-90742601D01*
X144554493Y-90742607D01*
X144389380Y-90830860D01*
X144389375Y-90830863D01*
X144389375Y-90830864D01*
X144244643Y-90949643D01*
X144129057Y-91090485D01*
X144125860Y-91094380D01*
X144037607Y-91259493D01*
X144037601Y-91259506D01*
X143983253Y-91438668D01*
X143983252Y-91438672D01*
X143964901Y-91625000D01*
X76343821Y-91625000D01*
X76299662Y-91602500D01*
X76190000Y-91585131D01*
X76080337Y-91602500D01*
X75981415Y-91652903D01*
X75902903Y-91731415D01*
X75852500Y-91830337D01*
X75835131Y-91940000D01*
X65283782Y-91940000D01*
X65294869Y-91870000D01*
X65277500Y-91760339D01*
X65227095Y-91661413D01*
X65148587Y-91582905D01*
X65148584Y-91582903D01*
X65049662Y-91532500D01*
X64940000Y-91515131D01*
X64830337Y-91532500D01*
X64731415Y-91582903D01*
X64652903Y-91661415D01*
X64602500Y-91760337D01*
X64585131Y-91870000D01*
X60359654Y-91870000D01*
X60355646Y-91844696D01*
X60298050Y-91731658D01*
X60208342Y-91641950D01*
X60208339Y-91641948D01*
X60095304Y-91584354D01*
X59970000Y-91564508D01*
X59844695Y-91584354D01*
X59731660Y-91641948D01*
X59641948Y-91731660D01*
X59584354Y-91844695D01*
X59564508Y-91970000D01*
X57000000Y-91970000D01*
X57000000Y-91350000D01*
X62299103Y-91350000D01*
X62320485Y-91457495D01*
X62381376Y-91548624D01*
X62472505Y-91609515D01*
X62580000Y-91630897D01*
X62687495Y-91609515D01*
X62778624Y-91548624D01*
X62839515Y-91457495D01*
X62860897Y-91350000D01*
X62839515Y-91242505D01*
X62778624Y-91151376D01*
X62687495Y-91090485D01*
X62580000Y-91069103D01*
X62472505Y-91090485D01*
X62381377Y-91151375D01*
X62381375Y-91151377D01*
X62320485Y-91242505D01*
X62301590Y-91337499D01*
X62299103Y-91350000D01*
X57000000Y-91350000D01*
X57000000Y-91000000D01*
X68995131Y-91000000D01*
X69012500Y-91109662D01*
X69047103Y-91177574D01*
X69062905Y-91208587D01*
X69141413Y-91287095D01*
X69240339Y-91337500D01*
X69350000Y-91354869D01*
X69459661Y-91337500D01*
X69558587Y-91287095D01*
X69637095Y-91208587D01*
X69687500Y-91109661D01*
X69704869Y-91000000D01*
X69696950Y-90950000D01*
X84149819Y-90950000D01*
X84168426Y-91067482D01*
X84211172Y-91151377D01*
X84222427Y-91173465D01*
X84306535Y-91257573D01*
X84412518Y-91311574D01*
X84530000Y-91330181D01*
X84647482Y-91311574D01*
X84753465Y-91257573D01*
X84837573Y-91173465D01*
X84891574Y-91067482D01*
X84910181Y-90950000D01*
X84897510Y-90870000D01*
X87459819Y-90870000D01*
X87478426Y-90987482D01*
X87530908Y-91090485D01*
X87532427Y-91093465D01*
X87616535Y-91177573D01*
X87722518Y-91231574D01*
X87840000Y-91250181D01*
X87957482Y-91231574D01*
X88063465Y-91177573D01*
X88147573Y-91093465D01*
X88201574Y-90987482D01*
X88220181Y-90870000D01*
X88201574Y-90752518D01*
X88147573Y-90646535D01*
X88063465Y-90562427D01*
X88063462Y-90562425D01*
X87957482Y-90508426D01*
X87840000Y-90489819D01*
X87722517Y-90508426D01*
X87616537Y-90562425D01*
X87532425Y-90646537D01*
X87478426Y-90752517D01*
X87459819Y-90870000D01*
X84897510Y-90870000D01*
X84891574Y-90832518D01*
X84837573Y-90726535D01*
X84753465Y-90642427D01*
X84753462Y-90642425D01*
X84647482Y-90588426D01*
X84530000Y-90569819D01*
X84412517Y-90588426D01*
X84306537Y-90642425D01*
X84222425Y-90726537D01*
X84168426Y-90832517D01*
X84149819Y-90950000D01*
X69696950Y-90950000D01*
X69687500Y-90890339D01*
X69637095Y-90791413D01*
X69558587Y-90712905D01*
X69558584Y-90712903D01*
X69459662Y-90662500D01*
X69350000Y-90645131D01*
X69240337Y-90662500D01*
X69141415Y-90712903D01*
X69062903Y-90791415D01*
X69012500Y-90890337D01*
X68995131Y-91000000D01*
X57000000Y-91000000D01*
X57000000Y-89666709D01*
X61984300Y-89666709D01*
X61984300Y-89793288D01*
X62017059Y-89915544D01*
X62080344Y-90025156D01*
X62169843Y-90114655D01*
X62209963Y-90137818D01*
X62279454Y-90177939D01*
X62279456Y-90177939D01*
X62279457Y-90177940D01*
X62324202Y-90189929D01*
X62401710Y-90210698D01*
X62401713Y-90210698D01*
X62401715Y-90210699D01*
X62401716Y-90210699D01*
X62528284Y-90210699D01*
X62528285Y-90210699D01*
X62530894Y-90210000D01*
X75235131Y-90210000D01*
X75252500Y-90319662D01*
X75282524Y-90378587D01*
X75302905Y-90418587D01*
X75381413Y-90497095D01*
X75480339Y-90547500D01*
X75590000Y-90564869D01*
X75699661Y-90547500D01*
X75798587Y-90497095D01*
X75877095Y-90418587D01*
X75927500Y-90319661D01*
X75944869Y-90210000D01*
X75938533Y-90170000D01*
X76985131Y-90170000D01*
X77002500Y-90279662D01*
X77022881Y-90319662D01*
X77052905Y-90378587D01*
X77131413Y-90457095D01*
X77230339Y-90507500D01*
X77340000Y-90524869D01*
X77449661Y-90507500D01*
X77548587Y-90457095D01*
X77627095Y-90378587D01*
X77677500Y-90279661D01*
X77694869Y-90170000D01*
X77677500Y-90060339D01*
X77627095Y-89961413D01*
X77548587Y-89882905D01*
X77548584Y-89882903D01*
X77449662Y-89832500D01*
X77340000Y-89815131D01*
X77230337Y-89832500D01*
X77131415Y-89882903D01*
X77052903Y-89961415D01*
X77002500Y-90060337D01*
X76985131Y-90170000D01*
X75938533Y-90170000D01*
X75927500Y-90100339D01*
X75877095Y-90001413D01*
X75798587Y-89922905D01*
X75798584Y-89922903D01*
X75699662Y-89872500D01*
X75590000Y-89855131D01*
X75480337Y-89872500D01*
X75381415Y-89922903D01*
X75302903Y-90001415D01*
X75252500Y-90100337D01*
X75235131Y-90210000D01*
X62530894Y-90210000D01*
X62650543Y-90177940D01*
X62760157Y-90114655D01*
X62849656Y-90025156D01*
X62912941Y-89915542D01*
X62945700Y-89793284D01*
X62945700Y-89666714D01*
X62912941Y-89544456D01*
X62912940Y-89544455D01*
X62912940Y-89544453D01*
X62849655Y-89434841D01*
X62760157Y-89345343D01*
X62650545Y-89282058D01*
X62528289Y-89249299D01*
X62528285Y-89249299D01*
X62401715Y-89249299D01*
X62401710Y-89249299D01*
X62279454Y-89282058D01*
X62169842Y-89345343D01*
X62080344Y-89434841D01*
X62017059Y-89544453D01*
X61984300Y-89666709D01*
X57000000Y-89666709D01*
X57000000Y-88870000D01*
X60615131Y-88870000D01*
X60632500Y-88979662D01*
X60682903Y-89078584D01*
X60682905Y-89078587D01*
X60761413Y-89157095D01*
X60860339Y-89207500D01*
X60970000Y-89224869D01*
X61079661Y-89207500D01*
X61178587Y-89157095D01*
X61257095Y-89078587D01*
X61307500Y-88979661D01*
X61324869Y-88870000D01*
X61307500Y-88760339D01*
X61257095Y-88661413D01*
X61178587Y-88582905D01*
X61178584Y-88582903D01*
X61079662Y-88532500D01*
X60970000Y-88515131D01*
X60860337Y-88532500D01*
X60761415Y-88582903D01*
X60682903Y-88661415D01*
X60632500Y-88760337D01*
X60615131Y-88870000D01*
X57000000Y-88870000D01*
X57000000Y-88412500D01*
X78434508Y-88412500D01*
X78454354Y-88537804D01*
X78491985Y-88611660D01*
X78511950Y-88650842D01*
X78601658Y-88740550D01*
X78714696Y-88798146D01*
X78840000Y-88817992D01*
X78965304Y-88798146D01*
X79078342Y-88740550D01*
X79168050Y-88650842D01*
X79225646Y-88537804D01*
X79245492Y-88412500D01*
X79225646Y-88287196D01*
X79168050Y-88174158D01*
X79078342Y-88084450D01*
X79078339Y-88084448D01*
X78965304Y-88026854D01*
X78840000Y-88007008D01*
X78714695Y-88026854D01*
X78601660Y-88084448D01*
X78511948Y-88174160D01*
X78454354Y-88287195D01*
X78434508Y-88412500D01*
X57000000Y-88412500D01*
X57000000Y-87470000D01*
X71075131Y-87470000D01*
X71092500Y-87579662D01*
X71142903Y-87678584D01*
X71142905Y-87678587D01*
X71221413Y-87757095D01*
X71320339Y-87807500D01*
X71430000Y-87824869D01*
X71539661Y-87807500D01*
X71638587Y-87757095D01*
X71717095Y-87678587D01*
X71767500Y-87579661D01*
X71784869Y-87470000D01*
X71770614Y-87380000D01*
X90604508Y-87380000D01*
X90624354Y-87505304D01*
X90681950Y-87618342D01*
X90771658Y-87708050D01*
X90771660Y-87708051D01*
X90786452Y-87715588D01*
X90792243Y-87722368D01*
X90791543Y-87731257D01*
X90789401Y-87734206D01*
X90701948Y-87821660D01*
X90644354Y-87934695D01*
X90624508Y-88060000D01*
X90644354Y-88185304D01*
X90696270Y-88287196D01*
X90701950Y-88298342D01*
X90791658Y-88388050D01*
X90791660Y-88388051D01*
X90793202Y-88388837D01*
X90798993Y-88395617D01*
X90798293Y-88404506D01*
X90796151Y-88407455D01*
X90721948Y-88481660D01*
X90664354Y-88594695D01*
X90644508Y-88720000D01*
X90664354Y-88845304D01*
X90718671Y-88951908D01*
X90721950Y-88958342D01*
X90811658Y-89048050D01*
X90924696Y-89105646D01*
X91050000Y-89125492D01*
X91175304Y-89105646D01*
X91288342Y-89048050D01*
X91378050Y-88958342D01*
X91435646Y-88845304D01*
X91445989Y-88780000D01*
X91514508Y-88780000D01*
X91534354Y-88905304D01*
X91575950Y-88986942D01*
X91591950Y-89018342D01*
X91681658Y-89108050D01*
X91794696Y-89165646D01*
X91920000Y-89185492D01*
X92045304Y-89165646D01*
X92158342Y-89108050D01*
X92248050Y-89018342D01*
X92305646Y-88905304D01*
X92314534Y-88849184D01*
X92319192Y-88841584D01*
X92327862Y-88839502D01*
X92335465Y-88844161D01*
X92337547Y-88849187D01*
X92354354Y-88955304D01*
X92401610Y-89048050D01*
X92411950Y-89068342D01*
X92501658Y-89158050D01*
X92614696Y-89215646D01*
X92740000Y-89235492D01*
X92865304Y-89215646D01*
X92978342Y-89158050D01*
X93068050Y-89068342D01*
X93109525Y-88986940D01*
X93116304Y-88981151D01*
X93125193Y-88981851D01*
X93130284Y-88986942D01*
X93176979Y-89078587D01*
X93181950Y-89088342D01*
X93271658Y-89178050D01*
X93384696Y-89235646D01*
X93510000Y-89255492D01*
X93635304Y-89235646D01*
X93748342Y-89178050D01*
X93838050Y-89088342D01*
X93895646Y-88975304D01*
X93899351Y-88951905D01*
X93904009Y-88944305D01*
X93912679Y-88942223D01*
X93920282Y-88946882D01*
X93921237Y-88948441D01*
X93961948Y-89028339D01*
X93961950Y-89028342D01*
X94051658Y-89118050D01*
X94164696Y-89175646D01*
X94290000Y-89195492D01*
X94415304Y-89175646D01*
X94528342Y-89118050D01*
X94618050Y-89028342D01*
X94675646Y-88915304D01*
X94695492Y-88790000D01*
X94675646Y-88664696D01*
X94621309Y-88558054D01*
X94620609Y-88549165D01*
X94626400Y-88542385D01*
X94629864Y-88541258D01*
X94665304Y-88535646D01*
X94778342Y-88478050D01*
X94868050Y-88388342D01*
X94925646Y-88275304D01*
X94933598Y-88225099D01*
X143969500Y-88225099D01*
X143969500Y-89944899D01*
X143974501Y-89970041D01*
X143975331Y-89974213D01*
X143997543Y-90007457D01*
X144030787Y-90029669D01*
X144060101Y-90035500D01*
X145779898Y-90035499D01*
X145779899Y-90035499D01*
X145784069Y-90034669D01*
X145809213Y-90029669D01*
X145842457Y-90007457D01*
X145864669Y-89974213D01*
X145870500Y-89944899D01*
X145870500Y-89100000D01*
X193169103Y-89100000D01*
X193190485Y-89207495D01*
X193251376Y-89298624D01*
X193342505Y-89359515D01*
X193450000Y-89380897D01*
X193557495Y-89359515D01*
X193648624Y-89298624D01*
X193709515Y-89207495D01*
X193730897Y-89100000D01*
X193728577Y-89088339D01*
X193724599Y-89068339D01*
X193709515Y-88992505D01*
X193648624Y-88901376D01*
X193557495Y-88840485D01*
X193450000Y-88819103D01*
X193342505Y-88840485D01*
X193251377Y-88901375D01*
X193251375Y-88901377D01*
X193190485Y-88992505D01*
X193171423Y-89088339D01*
X193169103Y-89100000D01*
X145870500Y-89100000D01*
X145870499Y-88225102D01*
X145870498Y-88225099D01*
X145868839Y-88216758D01*
X145864669Y-88195787D01*
X145842457Y-88162543D01*
X145809213Y-88140331D01*
X145794556Y-88137415D01*
X145779900Y-88134500D01*
X144060100Y-88134500D01*
X144030787Y-88140331D01*
X143997544Y-88162542D01*
X143997542Y-88162544D01*
X143975331Y-88195787D01*
X143969500Y-88225099D01*
X94933598Y-88225099D01*
X94945492Y-88150000D01*
X94925646Y-88024696D01*
X94868050Y-87911658D01*
X94824225Y-87867833D01*
X94820813Y-87859595D01*
X94824225Y-87851357D01*
X94827171Y-87849217D01*
X94888342Y-87818050D01*
X94978050Y-87728342D01*
X95035646Y-87615304D01*
X95055492Y-87490000D01*
X95045989Y-87430000D01*
X180409103Y-87430000D01*
X180430485Y-87537495D01*
X180491376Y-87628624D01*
X180582505Y-87689515D01*
X180690000Y-87710897D01*
X180797495Y-87689515D01*
X180888624Y-87628624D01*
X180949515Y-87537495D01*
X180970897Y-87430000D01*
X180949515Y-87322505D01*
X180888624Y-87231376D01*
X180797495Y-87170485D01*
X180690000Y-87149103D01*
X180582505Y-87170485D01*
X180491377Y-87231375D01*
X180491375Y-87231377D01*
X180430485Y-87322505D01*
X180419049Y-87380000D01*
X180409103Y-87430000D01*
X95045989Y-87430000D01*
X95035646Y-87364696D01*
X94978050Y-87251658D01*
X94888342Y-87161950D01*
X94888339Y-87161948D01*
X94775304Y-87104354D01*
X94650000Y-87084508D01*
X94524695Y-87104354D01*
X94411660Y-87161948D01*
X94321948Y-87251660D01*
X94264354Y-87364695D01*
X94244508Y-87490000D01*
X94264354Y-87615304D01*
X94320295Y-87725095D01*
X94321950Y-87728342D01*
X94350703Y-87757095D01*
X94365773Y-87772165D01*
X94369185Y-87780403D01*
X94365773Y-87788641D01*
X94362824Y-87790783D01*
X94301660Y-87821948D01*
X94211948Y-87911660D01*
X94154354Y-88024695D01*
X94134508Y-88150000D01*
X94154354Y-88275304D01*
X94208690Y-88381944D01*
X94209390Y-88390833D01*
X94203599Y-88397613D01*
X94200133Y-88398739D01*
X94164699Y-88404353D01*
X94164696Y-88404353D01*
X94051660Y-88461948D01*
X93961948Y-88551660D01*
X93904353Y-88664696D01*
X93904353Y-88664699D01*
X93900647Y-88688092D01*
X93895988Y-88695694D01*
X93887318Y-88697775D01*
X93879716Y-88693116D01*
X93878761Y-88691558D01*
X93863402Y-88661415D01*
X93838050Y-88611658D01*
X93748342Y-88521950D01*
X93748339Y-88521948D01*
X93635304Y-88464354D01*
X93510000Y-88444508D01*
X93384695Y-88464354D01*
X93271660Y-88521948D01*
X93181948Y-88611660D01*
X93140474Y-88693056D01*
X93133694Y-88698847D01*
X93124805Y-88698147D01*
X93119716Y-88693058D01*
X93068050Y-88591658D01*
X92978342Y-88501950D01*
X92978339Y-88501948D01*
X92865304Y-88444354D01*
X92740000Y-88424508D01*
X92614695Y-88444354D01*
X92501660Y-88501948D01*
X92411948Y-88591660D01*
X92354354Y-88704694D01*
X92345466Y-88760813D01*
X92340807Y-88768415D01*
X92332136Y-88770497D01*
X92324534Y-88765838D01*
X92322453Y-88760815D01*
X92305646Y-88654696D01*
X92248050Y-88541658D01*
X92158342Y-88451950D01*
X92158339Y-88451948D01*
X92045304Y-88394354D01*
X91920000Y-88374508D01*
X91794695Y-88394354D01*
X91681660Y-88451948D01*
X91591948Y-88541660D01*
X91534354Y-88654695D01*
X91514508Y-88780000D01*
X91445989Y-88780000D01*
X91455492Y-88720000D01*
X91435646Y-88594696D01*
X91378050Y-88481658D01*
X91288342Y-88391950D01*
X91288339Y-88391948D01*
X91286796Y-88391162D01*
X91281005Y-88384382D01*
X91281705Y-88375493D01*
X91283847Y-88372544D01*
X91358050Y-88298342D01*
X91415646Y-88185304D01*
X91435492Y-88060000D01*
X91415646Y-87934696D01*
X91358050Y-87821658D01*
X91268342Y-87731950D01*
X91268339Y-87731948D01*
X91255850Y-87725585D01*
X91253545Y-87724410D01*
X91247755Y-87717631D01*
X91248455Y-87708742D01*
X91250591Y-87705800D01*
X91338050Y-87618342D01*
X91395646Y-87505304D01*
X91415492Y-87380000D01*
X91402821Y-87300000D01*
X91484508Y-87300000D01*
X91504354Y-87425304D01*
X91561517Y-87537494D01*
X91561950Y-87538342D01*
X91651658Y-87628050D01*
X91764696Y-87685646D01*
X91890000Y-87705492D01*
X92015304Y-87685646D01*
X92128342Y-87628050D01*
X92218050Y-87538342D01*
X92273253Y-87430000D01*
X93234508Y-87430000D01*
X93254354Y-87555304D01*
X93291712Y-87628624D01*
X93311950Y-87668342D01*
X93401658Y-87758050D01*
X93514696Y-87815646D01*
X93640000Y-87835492D01*
X93765304Y-87815646D01*
X93878342Y-87758050D01*
X93968050Y-87668342D01*
X94025646Y-87555304D01*
X94045492Y-87430000D01*
X94025646Y-87304696D01*
X93968050Y-87191658D01*
X93878342Y-87101950D01*
X93878339Y-87101948D01*
X93765304Y-87044354D01*
X93640000Y-87024508D01*
X93514695Y-87044354D01*
X93401660Y-87101948D01*
X93311948Y-87191660D01*
X93254354Y-87304695D01*
X93234508Y-87430000D01*
X92273253Y-87430000D01*
X92275646Y-87425304D01*
X92295492Y-87300000D01*
X92275646Y-87174696D01*
X92218050Y-87061658D01*
X92128342Y-86971950D01*
X92128339Y-86971948D01*
X92015304Y-86914354D01*
X91890000Y-86894508D01*
X91764695Y-86914354D01*
X91651660Y-86971948D01*
X91561948Y-87061660D01*
X91504354Y-87174695D01*
X91484508Y-87300000D01*
X91402821Y-87300000D01*
X91395646Y-87254696D01*
X91338050Y-87141658D01*
X91329588Y-87133196D01*
X91326177Y-87124960D01*
X91329589Y-87116722D01*
X91336003Y-87113453D01*
X91385304Y-87105646D01*
X91498342Y-87048050D01*
X91588050Y-86958342D01*
X91645646Y-86845304D01*
X91665492Y-86720000D01*
X91659008Y-86679060D01*
X92143571Y-86679060D01*
X92163417Y-86804364D01*
X92212145Y-86899999D01*
X92221013Y-86917402D01*
X92310721Y-87007110D01*
X92423759Y-87064706D01*
X92549063Y-87084552D01*
X92674367Y-87064706D01*
X92787405Y-87007110D01*
X92877113Y-86917402D01*
X92934709Y-86804364D01*
X92946487Y-86730000D01*
X93784508Y-86730000D01*
X93804354Y-86855304D01*
X93856854Y-86958342D01*
X93861950Y-86968342D01*
X93951658Y-87058050D01*
X94064696Y-87115646D01*
X94190000Y-87135492D01*
X94315304Y-87115646D01*
X94428342Y-87058050D01*
X94518050Y-86968342D01*
X94575646Y-86855304D01*
X94595492Y-86730000D01*
X94576486Y-86610000D01*
X101424508Y-86610000D01*
X101444354Y-86735304D01*
X101500179Y-86844868D01*
X101501950Y-86848342D01*
X101591658Y-86938050D01*
X101704696Y-86995646D01*
X101830000Y-87015492D01*
X101955304Y-86995646D01*
X102068342Y-86938050D01*
X102106392Y-86900000D01*
X179219103Y-86900000D01*
X179240485Y-87007495D01*
X179301376Y-87098624D01*
X179392505Y-87159515D01*
X179500000Y-87180897D01*
X179607495Y-87159515D01*
X179698624Y-87098624D01*
X179759515Y-87007495D01*
X179780897Y-86900000D01*
X179759515Y-86792505D01*
X179698624Y-86701376D01*
X179607495Y-86640485D01*
X179500000Y-86619103D01*
X179392505Y-86640485D01*
X179301377Y-86701375D01*
X179301375Y-86701377D01*
X179240485Y-86792505D01*
X179227334Y-86858622D01*
X179219103Y-86900000D01*
X102106392Y-86900000D01*
X102158050Y-86848342D01*
X102215646Y-86735304D01*
X102235492Y-86610000D01*
X102229157Y-86570000D01*
X183239103Y-86570000D01*
X183260485Y-86677495D01*
X183321376Y-86768624D01*
X183412505Y-86829515D01*
X183520000Y-86850897D01*
X183627495Y-86829515D01*
X183718624Y-86768624D01*
X183779515Y-86677495D01*
X183782995Y-86660000D01*
X188139103Y-86660000D01*
X188160485Y-86767495D01*
X188221376Y-86858624D01*
X188312505Y-86919515D01*
X188420000Y-86940897D01*
X188527495Y-86919515D01*
X188618624Y-86858624D01*
X188679515Y-86767495D01*
X188700897Y-86660000D01*
X188679515Y-86552505D01*
X188618624Y-86461376D01*
X188527495Y-86400485D01*
X188420000Y-86379103D01*
X188312505Y-86400485D01*
X188221377Y-86461375D01*
X188221375Y-86461377D01*
X188160485Y-86552505D01*
X188147994Y-86615304D01*
X188139103Y-86660000D01*
X183782995Y-86660000D01*
X183800897Y-86570000D01*
X183779515Y-86462505D01*
X183718624Y-86371376D01*
X183627495Y-86310485D01*
X183520000Y-86289103D01*
X183412505Y-86310485D01*
X183321377Y-86371375D01*
X183321375Y-86371377D01*
X183321186Y-86371660D01*
X183260485Y-86462505D01*
X183239103Y-86570000D01*
X102229157Y-86570000D01*
X102215646Y-86484696D01*
X102158050Y-86371658D01*
X102068342Y-86281950D01*
X102068339Y-86281948D01*
X101955304Y-86224354D01*
X101830000Y-86204508D01*
X101704695Y-86224354D01*
X101591660Y-86281948D01*
X101501948Y-86371660D01*
X101444354Y-86484695D01*
X101424508Y-86610000D01*
X94576486Y-86610000D01*
X94575646Y-86604696D01*
X94518050Y-86491658D01*
X94428342Y-86401950D01*
X94428339Y-86401948D01*
X94315304Y-86344354D01*
X94190000Y-86324508D01*
X94064695Y-86344354D01*
X93951660Y-86401948D01*
X93861948Y-86491660D01*
X93804354Y-86604695D01*
X93784508Y-86730000D01*
X92946487Y-86730000D01*
X92954555Y-86679060D01*
X92934709Y-86553756D01*
X92888067Y-86462217D01*
X92887367Y-86453328D01*
X92893158Y-86446548D01*
X92988342Y-86398050D01*
X93078050Y-86308342D01*
X93135646Y-86195304D01*
X93155492Y-86070000D01*
X93135646Y-85944696D01*
X93078050Y-85831658D01*
X92988342Y-85741950D01*
X92988339Y-85741948D01*
X92986796Y-85741162D01*
X92981005Y-85734382D01*
X92981705Y-85725493D01*
X92983847Y-85722544D01*
X93010746Y-85695645D01*
X93058050Y-85648342D01*
X93115646Y-85535304D01*
X93135492Y-85410000D01*
X93115646Y-85284696D01*
X93058050Y-85171658D01*
X92968342Y-85081950D01*
X92968339Y-85081948D01*
X92855305Y-85024354D01*
X92851170Y-85023699D01*
X92839819Y-85021901D01*
X92832218Y-85017243D01*
X92830136Y-85008572D01*
X92834795Y-85000970D01*
X92836347Y-85000019D01*
X92938342Y-84948050D01*
X93028050Y-84858342D01*
X93085646Y-84745304D01*
X93105492Y-84620000D01*
X93092821Y-84540000D01*
X93124508Y-84540000D01*
X93144354Y-84665304D01*
X93201801Y-84778051D01*
X93201950Y-84778342D01*
X93291658Y-84868050D01*
X93404696Y-84925646D01*
X93516813Y-84943403D01*
X93524416Y-84948062D01*
X93526498Y-84956732D01*
X93521839Y-84964335D01*
X93514991Y-84966560D01*
X93479062Y-84966560D01*
X93359062Y-85086560D01*
X93359062Y-86086560D01*
X93399062Y-86126560D01*
X93399063Y-86126560D01*
X96369061Y-86126560D01*
X96369062Y-86126560D01*
X96419062Y-86076560D01*
X96419062Y-86030000D01*
X181769103Y-86030000D01*
X181790485Y-86137495D01*
X181851376Y-86228624D01*
X181942505Y-86289515D01*
X182050000Y-86310897D01*
X182157495Y-86289515D01*
X182248624Y-86228624D01*
X182309515Y-86137495D01*
X182330897Y-86030000D01*
X182309515Y-85922505D01*
X182248624Y-85831376D01*
X182157495Y-85770485D01*
X182050000Y-85749103D01*
X181942505Y-85770485D01*
X181851377Y-85831375D01*
X181851375Y-85831377D01*
X181790485Y-85922505D01*
X181769103Y-86030000D01*
X96419062Y-86030000D01*
X96419062Y-85818210D01*
X96422474Y-85809972D01*
X96430712Y-85806560D01*
X96459061Y-85806560D01*
X96459062Y-85806560D01*
X96599062Y-85666560D01*
X96599062Y-85370000D01*
X97484508Y-85370000D01*
X97504354Y-85495304D01*
X97542413Y-85570000D01*
X97561950Y-85608342D01*
X97651658Y-85698050D01*
X97764696Y-85755646D01*
X97890000Y-85775492D01*
X98015304Y-85755646D01*
X98128342Y-85698050D01*
X98218050Y-85608342D01*
X98275646Y-85495304D01*
X98292324Y-85390000D01*
X100644508Y-85390000D01*
X100664354Y-85515304D01*
X100716854Y-85618342D01*
X100721950Y-85628342D01*
X100811658Y-85718050D01*
X100924696Y-85775646D01*
X101050000Y-85795492D01*
X101175304Y-85775646D01*
X101288342Y-85718050D01*
X101378050Y-85628342D01*
X101407777Y-85570000D01*
X160619103Y-85570000D01*
X160640485Y-85677495D01*
X160701376Y-85768624D01*
X160792505Y-85829515D01*
X160900000Y-85850897D01*
X161007495Y-85829515D01*
X161098624Y-85768624D01*
X161159515Y-85677495D01*
X161180897Y-85570000D01*
X161159515Y-85462505D01*
X161098624Y-85371376D01*
X161007495Y-85310485D01*
X160900000Y-85289103D01*
X160792505Y-85310485D01*
X160701377Y-85371375D01*
X160701375Y-85371377D01*
X160640485Y-85462505D01*
X160623412Y-85548339D01*
X160619103Y-85570000D01*
X101407777Y-85570000D01*
X101435646Y-85515304D01*
X101455492Y-85390000D01*
X101435646Y-85264696D01*
X101417967Y-85230000D01*
X193974508Y-85230000D01*
X193994354Y-85355304D01*
X194049179Y-85462905D01*
X194051950Y-85468342D01*
X194141658Y-85558050D01*
X194254696Y-85615646D01*
X194380000Y-85635492D01*
X194505304Y-85615646D01*
X194618342Y-85558050D01*
X194708050Y-85468342D01*
X194765646Y-85355304D01*
X194772821Y-85310000D01*
X194954508Y-85310000D01*
X194974354Y-85435304D01*
X195028420Y-85541415D01*
X195031950Y-85548342D01*
X195121658Y-85638050D01*
X195234696Y-85695646D01*
X195360000Y-85715492D01*
X195485304Y-85695646D01*
X195598342Y-85638050D01*
X195688050Y-85548342D01*
X195745646Y-85435304D01*
X195765492Y-85310000D01*
X195745646Y-85184696D01*
X195688050Y-85071658D01*
X195598342Y-84981950D01*
X195598339Y-84981948D01*
X195485304Y-84924354D01*
X195360000Y-84904508D01*
X195234695Y-84924354D01*
X195121660Y-84981948D01*
X195031948Y-85071660D01*
X194974354Y-85184695D01*
X194954508Y-85310000D01*
X194772821Y-85310000D01*
X194785492Y-85230000D01*
X194765646Y-85104696D01*
X194708050Y-84991658D01*
X194618342Y-84901950D01*
X194618339Y-84901948D01*
X194505304Y-84844354D01*
X194380000Y-84824508D01*
X194254695Y-84844354D01*
X194141660Y-84901948D01*
X194051948Y-84991660D01*
X193994354Y-85104695D01*
X193974508Y-85230000D01*
X101417967Y-85230000D01*
X101378050Y-85151658D01*
X101288342Y-85061950D01*
X101288339Y-85061948D01*
X101175304Y-85004354D01*
X101050000Y-84984508D01*
X100924695Y-85004354D01*
X100811660Y-85061948D01*
X100721948Y-85151660D01*
X100664354Y-85264695D01*
X100644508Y-85390000D01*
X98292324Y-85390000D01*
X98295492Y-85370000D01*
X98275646Y-85244696D01*
X98218050Y-85131658D01*
X98128342Y-85041950D01*
X98128339Y-85041948D01*
X98015304Y-84984354D01*
X97890000Y-84964508D01*
X97764695Y-84984354D01*
X97651660Y-85041948D01*
X97561948Y-85131660D01*
X97504354Y-85244695D01*
X97484508Y-85370000D01*
X96599062Y-85370000D01*
X96599062Y-84920000D01*
X178919103Y-84920000D01*
X178940485Y-85027495D01*
X179001376Y-85118624D01*
X179092505Y-85179515D01*
X179200000Y-85200897D01*
X179307495Y-85179515D01*
X179398624Y-85118624D01*
X179459515Y-85027495D01*
X179480897Y-84920000D01*
X179480891Y-84919972D01*
X179476531Y-84898050D01*
X179459515Y-84812505D01*
X179398624Y-84721376D01*
X179307495Y-84660485D01*
X179200000Y-84639103D01*
X179092505Y-84660485D01*
X179001377Y-84721375D01*
X179001375Y-84721377D01*
X178940485Y-84812505D01*
X178919109Y-84919972D01*
X178919103Y-84920000D01*
X96599062Y-84920000D01*
X96599062Y-84766560D01*
X96479062Y-84646560D01*
X95009062Y-84646560D01*
X94959062Y-84696560D01*
X94959062Y-84696561D01*
X94959062Y-84891734D01*
X94955650Y-84899972D01*
X94892474Y-84963148D01*
X94884236Y-84966560D01*
X93545009Y-84966560D01*
X93536771Y-84963148D01*
X93533359Y-84954910D01*
X93536771Y-84946672D01*
X93543185Y-84943403D01*
X93655304Y-84925646D01*
X93768342Y-84868050D01*
X93858050Y-84778342D01*
X93915646Y-84665304D01*
X93935492Y-84540000D01*
X93929157Y-84500000D01*
X94004508Y-84500000D01*
X94024354Y-84625304D01*
X94076854Y-84728342D01*
X94081950Y-84738342D01*
X94171658Y-84828050D01*
X94284696Y-84885646D01*
X94410000Y-84905492D01*
X94535304Y-84885646D01*
X94648342Y-84828050D01*
X94738050Y-84738342D01*
X94795646Y-84625304D01*
X94815492Y-84500000D01*
X94807573Y-84450000D01*
X194534508Y-84450000D01*
X194554354Y-84575304D01*
X194611950Y-84688342D01*
X194701658Y-84778050D01*
X194814696Y-84835646D01*
X194940000Y-84855492D01*
X195065304Y-84835646D01*
X195178342Y-84778050D01*
X195268050Y-84688342D01*
X195325646Y-84575304D01*
X195345492Y-84450000D01*
X195325646Y-84324696D01*
X195268050Y-84211658D01*
X195178342Y-84121950D01*
X195178339Y-84121948D01*
X195065304Y-84064354D01*
X194940000Y-84044508D01*
X194814695Y-84064354D01*
X194701660Y-84121948D01*
X194611948Y-84211660D01*
X194554354Y-84324695D01*
X194554354Y-84324696D01*
X194534508Y-84450000D01*
X94807573Y-84450000D01*
X94795646Y-84374696D01*
X94738050Y-84261658D01*
X94648342Y-84171950D01*
X94648339Y-84171948D01*
X94535304Y-84114354D01*
X94410000Y-84094508D01*
X94284695Y-84114354D01*
X94171660Y-84171948D01*
X94081948Y-84261660D01*
X94024354Y-84374695D01*
X94004508Y-84500000D01*
X93929157Y-84500000D01*
X93915646Y-84414696D01*
X93858050Y-84301658D01*
X93768342Y-84211950D01*
X93768339Y-84211948D01*
X93655304Y-84154354D01*
X93530000Y-84134508D01*
X93404695Y-84154354D01*
X93291660Y-84211948D01*
X93201948Y-84301660D01*
X93144354Y-84414695D01*
X93124508Y-84540000D01*
X93092821Y-84540000D01*
X93085646Y-84494696D01*
X93028050Y-84381658D01*
X92938342Y-84291950D01*
X92938339Y-84291948D01*
X92825304Y-84234354D01*
X92700000Y-84214508D01*
X92574695Y-84234354D01*
X92461660Y-84291948D01*
X92371948Y-84381660D01*
X92314354Y-84494695D01*
X92294508Y-84620000D01*
X92314354Y-84745304D01*
X92370497Y-84855492D01*
X92371950Y-84858342D01*
X92461658Y-84948050D01*
X92574696Y-85005646D01*
X92590180Y-85008098D01*
X92597781Y-85012756D01*
X92599863Y-85021426D01*
X92595204Y-85029029D01*
X92593645Y-85029984D01*
X92491660Y-85081948D01*
X92401948Y-85171660D01*
X92344354Y-85284695D01*
X92324508Y-85410000D01*
X92344354Y-85535304D01*
X92395402Y-85635492D01*
X92401950Y-85648342D01*
X92491658Y-85738050D01*
X92491660Y-85738051D01*
X92493202Y-85738837D01*
X92498993Y-85745617D01*
X92498293Y-85754506D01*
X92496151Y-85757455D01*
X92421948Y-85831660D01*
X92364354Y-85944695D01*
X92364354Y-85944696D01*
X92344508Y-86070000D01*
X92364354Y-86195304D01*
X92408502Y-86281950D01*
X92410995Y-86286841D01*
X92411695Y-86295730D01*
X92405904Y-86302510D01*
X92310723Y-86351008D01*
X92221011Y-86440720D01*
X92163417Y-86553755D01*
X92143571Y-86679060D01*
X91659008Y-86679060D01*
X91645646Y-86594696D01*
X91588050Y-86481658D01*
X91498342Y-86391950D01*
X91498339Y-86391948D01*
X91385304Y-86334354D01*
X91260000Y-86314508D01*
X91134695Y-86334354D01*
X91021660Y-86391948D01*
X90931948Y-86481660D01*
X90874354Y-86594695D01*
X90854508Y-86720000D01*
X90874354Y-86845304D01*
X90931949Y-86958341D01*
X90940409Y-86966802D01*
X90943821Y-86975040D01*
X90940408Y-86983277D01*
X90933994Y-86986545D01*
X90918051Y-86989070D01*
X90884694Y-86994354D01*
X90771660Y-87051948D01*
X90681948Y-87141660D01*
X90624354Y-87254695D01*
X90624354Y-87254696D01*
X90604508Y-87380000D01*
X71770614Y-87380000D01*
X71767500Y-87360339D01*
X71717095Y-87261413D01*
X71638587Y-87182905D01*
X71638584Y-87182903D01*
X71539662Y-87132500D01*
X71430000Y-87115131D01*
X71320337Y-87132500D01*
X71221415Y-87182903D01*
X71142903Y-87261415D01*
X71092500Y-87360337D01*
X71075131Y-87470000D01*
X57000000Y-87470000D01*
X57000000Y-86490000D01*
X66005131Y-86490000D01*
X66022500Y-86599662D01*
X66072903Y-86698584D01*
X66072905Y-86698587D01*
X66151413Y-86777095D01*
X66250339Y-86827500D01*
X66360000Y-86844869D01*
X66469661Y-86827500D01*
X66568587Y-86777095D01*
X66647095Y-86698587D01*
X66697500Y-86599661D01*
X66714869Y-86490000D01*
X83454508Y-86490000D01*
X83474354Y-86615304D01*
X83527699Y-86720000D01*
X83531950Y-86728342D01*
X83621658Y-86818050D01*
X83734696Y-86875646D01*
X83860000Y-86895492D01*
X83985304Y-86875646D01*
X84098342Y-86818050D01*
X84188050Y-86728342D01*
X84245646Y-86615304D01*
X84265492Y-86490000D01*
X84245646Y-86364696D01*
X84188050Y-86251658D01*
X84098342Y-86161950D01*
X84098339Y-86161948D01*
X83985304Y-86104354D01*
X83860000Y-86084508D01*
X83734695Y-86104354D01*
X83621660Y-86161948D01*
X83531948Y-86251660D01*
X83474354Y-86364695D01*
X83454508Y-86490000D01*
X66714869Y-86490000D01*
X66697500Y-86380339D01*
X66647095Y-86281413D01*
X66568587Y-86202905D01*
X66568584Y-86202903D01*
X66469662Y-86152500D01*
X66360000Y-86135131D01*
X66250337Y-86152500D01*
X66151415Y-86202903D01*
X66072903Y-86281415D01*
X66022500Y-86380337D01*
X66005131Y-86490000D01*
X57000000Y-86490000D01*
X57000000Y-85750000D01*
X65965131Y-85750000D01*
X65982500Y-85859662D01*
X66025827Y-85944696D01*
X66032905Y-85958587D01*
X66111413Y-86037095D01*
X66210339Y-86087500D01*
X66320000Y-86104869D01*
X66429661Y-86087500D01*
X66528587Y-86037095D01*
X66607095Y-85958587D01*
X66657500Y-85859661D01*
X66674869Y-85750000D01*
X66657500Y-85640339D01*
X66607095Y-85541413D01*
X66528587Y-85462905D01*
X66528584Y-85462903D01*
X66429662Y-85412500D01*
X66320000Y-85395131D01*
X66210337Y-85412500D01*
X66111415Y-85462903D01*
X66032903Y-85541415D01*
X65982500Y-85640337D01*
X65965131Y-85750000D01*
X57000000Y-85750000D01*
X57000000Y-85380000D01*
X84394508Y-85380000D01*
X84414354Y-85505304D01*
X84470575Y-85615645D01*
X84471950Y-85618342D01*
X84561658Y-85708050D01*
X84674696Y-85765646D01*
X84800000Y-85785492D01*
X84925304Y-85765646D01*
X85038342Y-85708050D01*
X85128050Y-85618342D01*
X85185646Y-85505304D01*
X85205492Y-85380000D01*
X85197573Y-85330000D01*
X87304508Y-85330000D01*
X87324354Y-85455304D01*
X87354925Y-85515304D01*
X87381950Y-85568342D01*
X87471658Y-85658050D01*
X87584696Y-85715646D01*
X87710000Y-85735492D01*
X87835304Y-85715646D01*
X87948342Y-85658050D01*
X88038050Y-85568342D01*
X88095646Y-85455304D01*
X88115492Y-85330000D01*
X88095646Y-85204696D01*
X88038050Y-85091658D01*
X87948342Y-85001950D01*
X87948339Y-85001948D01*
X87835304Y-84944354D01*
X87710000Y-84924508D01*
X87584695Y-84944354D01*
X87471660Y-85001948D01*
X87381948Y-85091660D01*
X87324354Y-85204695D01*
X87304508Y-85330000D01*
X85197573Y-85330000D01*
X85185646Y-85254696D01*
X85128050Y-85141658D01*
X85038342Y-85051950D01*
X85038339Y-85051948D01*
X84925304Y-84994354D01*
X84800000Y-84974508D01*
X84674695Y-84994354D01*
X84561660Y-85051948D01*
X84471948Y-85141660D01*
X84414354Y-85254695D01*
X84394508Y-85380000D01*
X57000000Y-85380000D01*
X57000000Y-84786560D01*
X88989063Y-84786560D01*
X88989063Y-85686560D01*
X89129063Y-85826560D01*
X89157413Y-85826560D01*
X89165651Y-85829972D01*
X89169063Y-85838210D01*
X89169063Y-86096560D01*
X89219063Y-86146560D01*
X89219064Y-86146560D01*
X92189062Y-86146560D01*
X92189063Y-86146560D01*
X92229063Y-86106560D01*
X92229063Y-85106560D01*
X92109063Y-84986560D01*
X92109062Y-84986560D01*
X91938147Y-84986560D01*
X91929909Y-84983148D01*
X91926497Y-84974910D01*
X91929909Y-84966672D01*
X91936323Y-84963403D01*
X91985304Y-84955646D01*
X92098342Y-84898050D01*
X92188050Y-84808342D01*
X92245646Y-84695304D01*
X92265492Y-84570000D01*
X92245646Y-84444696D01*
X92188050Y-84331658D01*
X92098342Y-84241950D01*
X92098339Y-84241948D01*
X91985304Y-84184354D01*
X91860000Y-84164508D01*
X91734695Y-84184354D01*
X91621660Y-84241948D01*
X91531948Y-84331660D01*
X91474354Y-84444695D01*
X91454508Y-84570000D01*
X91474354Y-84695304D01*
X91516662Y-84778339D01*
X91531950Y-84808342D01*
X91621658Y-84898050D01*
X91734696Y-84955646D01*
X91783675Y-84963403D01*
X91791278Y-84968062D01*
X91793360Y-84976732D01*
X91788701Y-84984335D01*
X91781853Y-84986560D01*
X90703889Y-84986560D01*
X90695651Y-84983148D01*
X90632475Y-84919972D01*
X90629063Y-84911734D01*
X90629063Y-84716561D01*
X90629063Y-84716560D01*
X90579063Y-84666560D01*
X89109063Y-84666560D01*
X88989063Y-84786560D01*
X57000000Y-84786560D01*
X57000000Y-84490000D01*
X90624508Y-84490000D01*
X90644354Y-84615304D01*
X90698400Y-84721376D01*
X90701950Y-84728342D01*
X90791658Y-84818050D01*
X90904696Y-84875646D01*
X91030000Y-84895492D01*
X91155304Y-84875646D01*
X91268342Y-84818050D01*
X91358050Y-84728342D01*
X91415646Y-84615304D01*
X91435492Y-84490000D01*
X91415646Y-84364696D01*
X91358050Y-84251658D01*
X91268342Y-84161950D01*
X91268339Y-84161948D01*
X91155304Y-84104354D01*
X91030000Y-84084508D01*
X90904695Y-84104354D01*
X90791660Y-84161948D01*
X90701948Y-84251660D01*
X90644354Y-84364695D01*
X90624508Y-84490000D01*
X57000000Y-84490000D01*
X57000000Y-83540000D01*
X87954508Y-83540000D01*
X87974354Y-83665304D01*
X88022603Y-83759999D01*
X88031950Y-83778342D01*
X88121658Y-83868050D01*
X88234696Y-83925646D01*
X88360000Y-83945492D01*
X88485304Y-83925646D01*
X88598342Y-83868050D01*
X88688050Y-83778342D01*
X88727967Y-83700000D01*
X97644508Y-83700000D01*
X97664354Y-83825304D01*
X97715480Y-83925645D01*
X97721950Y-83938342D01*
X97811658Y-84028050D01*
X97924696Y-84085646D01*
X98050000Y-84105492D01*
X98175304Y-84085646D01*
X98288342Y-84028050D01*
X98378050Y-83938342D01*
X98435646Y-83825304D01*
X98445989Y-83760000D01*
X186189103Y-83760000D01*
X186210485Y-83867495D01*
X186271376Y-83958624D01*
X186362505Y-84019515D01*
X186470000Y-84040897D01*
X186577495Y-84019515D01*
X186668624Y-83958624D01*
X186729515Y-83867495D01*
X186750897Y-83760000D01*
X186729515Y-83652505D01*
X186668624Y-83561376D01*
X186577495Y-83500485D01*
X186470000Y-83479103D01*
X186362505Y-83500485D01*
X186271377Y-83561375D01*
X186271375Y-83561377D01*
X186221853Y-83635491D01*
X186210485Y-83652505D01*
X186189103Y-83760000D01*
X98445989Y-83760000D01*
X98455492Y-83700000D01*
X98435646Y-83574696D01*
X98378050Y-83461658D01*
X98288342Y-83371950D01*
X98288339Y-83371948D01*
X98175304Y-83314354D01*
X98050000Y-83294508D01*
X97924695Y-83314354D01*
X97811660Y-83371948D01*
X97721948Y-83461660D01*
X97664354Y-83574695D01*
X97644508Y-83700000D01*
X88727967Y-83700000D01*
X88745646Y-83665304D01*
X88765492Y-83540000D01*
X88745646Y-83414696D01*
X88688050Y-83301658D01*
X88672536Y-83286144D01*
X88669124Y-83277906D01*
X88672536Y-83269668D01*
X88680774Y-83266256D01*
X88682583Y-83266397D01*
X88740000Y-83275492D01*
X88865304Y-83255646D01*
X88978342Y-83198050D01*
X89068050Y-83108342D01*
X89125646Y-82995304D01*
X89145492Y-82870000D01*
X89125646Y-82744696D01*
X89068050Y-82631658D01*
X88978342Y-82541950D01*
X88978339Y-82541948D01*
X88865304Y-82484354D01*
X88740000Y-82464508D01*
X88614695Y-82484354D01*
X88501660Y-82541948D01*
X88411948Y-82631660D01*
X88354354Y-82744695D01*
X88334508Y-82870000D01*
X88354354Y-82995304D01*
X88410091Y-83104695D01*
X88411950Y-83108342D01*
X88427463Y-83123855D01*
X88430875Y-83132092D01*
X88427463Y-83140330D01*
X88419225Y-83143742D01*
X88417403Y-83143599D01*
X88360000Y-83134508D01*
X88234695Y-83154354D01*
X88121660Y-83211948D01*
X88031948Y-83301660D01*
X87974354Y-83414695D01*
X87954508Y-83540000D01*
X57000000Y-83540000D01*
X57000000Y-83130000D01*
X86834508Y-83130000D01*
X86854354Y-83255304D01*
X86905306Y-83355304D01*
X86911950Y-83368342D01*
X87001658Y-83458050D01*
X87114696Y-83515646D01*
X87240000Y-83535492D01*
X87365304Y-83515646D01*
X87478342Y-83458050D01*
X87568050Y-83368342D01*
X87625646Y-83255304D01*
X87645492Y-83130000D01*
X87625646Y-83004696D01*
X87568050Y-82891658D01*
X87478342Y-82801950D01*
X87478339Y-82801948D01*
X87365304Y-82744354D01*
X87240000Y-82724508D01*
X87114695Y-82744354D01*
X87001660Y-82801948D01*
X86911948Y-82891660D01*
X86854354Y-83004695D01*
X86834508Y-83130000D01*
X57000000Y-83130000D01*
X57000000Y-82720000D01*
X75379103Y-82720000D01*
X75400485Y-82827495D01*
X75461376Y-82918624D01*
X75552505Y-82979515D01*
X75660000Y-83000897D01*
X75767495Y-82979515D01*
X75858624Y-82918624D01*
X75919515Y-82827495D01*
X75940897Y-82720000D01*
X75919515Y-82612505D01*
X75858624Y-82521376D01*
X75767495Y-82460485D01*
X75660000Y-82439103D01*
X75552505Y-82460485D01*
X75461377Y-82521375D01*
X75461375Y-82521377D01*
X75400485Y-82612505D01*
X75385937Y-82685645D01*
X75379103Y-82720000D01*
X57000000Y-82720000D01*
X57000000Y-82290000D01*
X88954508Y-82290000D01*
X88974354Y-82415304D01*
X89030091Y-82524695D01*
X89031950Y-82528342D01*
X89121658Y-82618050D01*
X89234696Y-82675646D01*
X89360000Y-82695492D01*
X89485304Y-82675646D01*
X89598342Y-82618050D01*
X89688050Y-82528342D01*
X89745646Y-82415304D01*
X89763908Y-82300000D01*
X95354508Y-82300000D01*
X95374354Y-82425304D01*
X95426854Y-82528342D01*
X95431950Y-82538342D01*
X95521658Y-82628050D01*
X95634696Y-82685646D01*
X95760000Y-82705492D01*
X95885304Y-82685646D01*
X95955263Y-82650000D01*
X96194508Y-82650000D01*
X96214354Y-82775304D01*
X96264122Y-82872980D01*
X96271950Y-82888342D01*
X96361658Y-82978050D01*
X96474696Y-83035646D01*
X96600000Y-83055492D01*
X96725304Y-83035646D01*
X96780114Y-83007717D01*
X96789003Y-83007018D01*
X96795783Y-83012809D01*
X96796483Y-83021698D01*
X96795783Y-83023387D01*
X96754354Y-83104695D01*
X96751320Y-83123854D01*
X96734508Y-83230000D01*
X96754354Y-83355304D01*
X96811950Y-83468342D01*
X96901658Y-83558050D01*
X97014696Y-83615646D01*
X97140000Y-83635492D01*
X97265304Y-83615646D01*
X97378342Y-83558050D01*
X97468050Y-83468342D01*
X97525646Y-83355304D01*
X97545492Y-83230000D01*
X97535989Y-83170000D01*
X98334508Y-83170000D01*
X98354354Y-83295304D01*
X98384925Y-83355304D01*
X98411950Y-83408342D01*
X98501658Y-83498050D01*
X98614696Y-83555646D01*
X98740000Y-83575492D01*
X98865304Y-83555646D01*
X98978342Y-83498050D01*
X99068050Y-83408342D01*
X99125646Y-83295304D01*
X99145492Y-83170000D01*
X99125646Y-83044696D01*
X99068050Y-82931658D01*
X98978342Y-82841950D01*
X98978339Y-82841948D01*
X98865304Y-82784354D01*
X98740000Y-82764508D01*
X98614695Y-82784354D01*
X98501660Y-82841948D01*
X98411948Y-82931660D01*
X98354354Y-83044695D01*
X98334508Y-83170000D01*
X97535989Y-83170000D01*
X97525646Y-83104696D01*
X97468050Y-82991658D01*
X97378342Y-82901950D01*
X97378339Y-82901948D01*
X97265304Y-82844354D01*
X97140000Y-82824508D01*
X97014695Y-82844354D01*
X96959886Y-82872280D01*
X96950997Y-82872980D01*
X96944217Y-82867189D01*
X96943517Y-82858300D01*
X96944213Y-82856619D01*
X96985646Y-82775304D01*
X97005492Y-82650000D01*
X96985646Y-82524696D01*
X96928050Y-82411658D01*
X96838342Y-82321950D01*
X96838339Y-82321948D01*
X96725304Y-82264354D01*
X96600000Y-82244508D01*
X96474695Y-82264354D01*
X96361660Y-82321948D01*
X96271948Y-82411660D01*
X96214354Y-82524695D01*
X96194508Y-82650000D01*
X95955263Y-82650000D01*
X95998342Y-82628050D01*
X96088050Y-82538342D01*
X96145646Y-82425304D01*
X96165492Y-82300000D01*
X96145646Y-82174696D01*
X96088050Y-82061658D01*
X96068772Y-82042380D01*
X96065360Y-82034142D01*
X96068772Y-82025904D01*
X96077010Y-82022492D01*
X96078818Y-82022633D01*
X96160000Y-82035492D01*
X96285304Y-82015646D01*
X96398342Y-81958050D01*
X96488050Y-81868342D01*
X96545646Y-81755304D01*
X96565492Y-81630000D01*
X96545646Y-81504696D01*
X96488050Y-81391658D01*
X96398342Y-81301950D01*
X96398339Y-81301948D01*
X96285304Y-81244354D01*
X96160000Y-81224508D01*
X96034695Y-81244354D01*
X95921660Y-81301948D01*
X95831948Y-81391660D01*
X95774354Y-81504695D01*
X95754508Y-81630000D01*
X95774354Y-81755304D01*
X95826854Y-81858342D01*
X95831950Y-81868342D01*
X95848116Y-81884508D01*
X95851226Y-81887618D01*
X95854638Y-81895856D01*
X95851226Y-81904094D01*
X95842988Y-81907506D01*
X95841166Y-81907363D01*
X95760000Y-81894508D01*
X95634695Y-81914354D01*
X95521660Y-81971948D01*
X95431948Y-82061660D01*
X95374354Y-82174695D01*
X95354508Y-82300000D01*
X89763908Y-82300000D01*
X89765492Y-82290000D01*
X89745859Y-82166043D01*
X89747941Y-82157375D01*
X89755544Y-82152716D01*
X89762654Y-82153842D01*
X89844696Y-82195646D01*
X89970000Y-82215492D01*
X90095304Y-82195646D01*
X90208342Y-82138050D01*
X90298050Y-82048342D01*
X90355646Y-81935304D01*
X90375492Y-81810000D01*
X90355646Y-81684696D01*
X90298050Y-81571658D01*
X90208342Y-81481950D01*
X90208339Y-81481948D01*
X90095304Y-81424354D01*
X89970000Y-81404508D01*
X89844695Y-81424354D01*
X89731660Y-81481948D01*
X89641948Y-81571660D01*
X89584354Y-81684695D01*
X89564508Y-81810000D01*
X89584140Y-81933954D01*
X89582058Y-81942624D01*
X89574455Y-81947283D01*
X89567344Y-81946156D01*
X89485304Y-81904354D01*
X89360000Y-81884508D01*
X89234695Y-81904354D01*
X89121660Y-81961948D01*
X89031948Y-82051660D01*
X88974354Y-82164695D01*
X88954508Y-82290000D01*
X57000000Y-82290000D01*
X57000000Y-81120000D01*
X88954508Y-81120000D01*
X88974354Y-81245304D01*
X89025402Y-81345492D01*
X89031950Y-81358342D01*
X89121658Y-81448050D01*
X89234696Y-81505646D01*
X89360000Y-81525492D01*
X89485304Y-81505646D01*
X89598342Y-81448050D01*
X89688050Y-81358342D01*
X89745646Y-81245304D01*
X89765492Y-81120000D01*
X89745646Y-80994696D01*
X89688050Y-80881658D01*
X89598342Y-80791950D01*
X89598339Y-80791948D01*
X89485304Y-80734354D01*
X89360000Y-80714508D01*
X89234695Y-80734354D01*
X89121660Y-80791948D01*
X89031948Y-80881660D01*
X88974354Y-80994695D01*
X88954508Y-81120000D01*
X57000000Y-81120000D01*
X57000000Y-80410000D01*
X75109103Y-80410000D01*
X75130485Y-80517495D01*
X75191376Y-80608624D01*
X75282505Y-80669515D01*
X75390000Y-80690897D01*
X75497495Y-80669515D01*
X75588624Y-80608624D01*
X75649515Y-80517495D01*
X75670897Y-80410000D01*
X75649515Y-80302505D01*
X75588624Y-80211376D01*
X75497495Y-80150485D01*
X75390000Y-80129103D01*
X75282505Y-80150485D01*
X75191377Y-80211375D01*
X75191375Y-80211377D01*
X75130485Y-80302505D01*
X75116739Y-80371613D01*
X75109103Y-80410000D01*
X57000000Y-80410000D01*
X57000000Y-79170000D01*
X76459103Y-79170000D01*
X76480485Y-79277495D01*
X76541376Y-79368624D01*
X76632505Y-79429515D01*
X76740000Y-79450897D01*
X76847495Y-79429515D01*
X76876701Y-79410000D01*
X80169103Y-79410000D01*
X80190485Y-79517495D01*
X80251376Y-79608624D01*
X80342505Y-79669515D01*
X80450000Y-79690897D01*
X80557495Y-79669515D01*
X80601667Y-79640000D01*
X82209103Y-79640000D01*
X82230485Y-79747495D01*
X82291376Y-79838624D01*
X82382505Y-79899515D01*
X82490000Y-79920897D01*
X82597495Y-79899515D01*
X82671599Y-79850000D01*
X88994508Y-79850000D01*
X89014354Y-79975304D01*
X89071135Y-80086744D01*
X89071950Y-80088342D01*
X89161658Y-80178050D01*
X89274696Y-80235646D01*
X89400000Y-80255492D01*
X89525304Y-80235646D01*
X89607126Y-80193954D01*
X89616015Y-80193255D01*
X89622795Y-80199046D01*
X89623495Y-80207935D01*
X89622795Y-80209624D01*
X89574354Y-80304695D01*
X89554508Y-80430000D01*
X89574354Y-80555304D01*
X89609471Y-80624226D01*
X89631950Y-80668342D01*
X89721658Y-80758050D01*
X89834696Y-80815646D01*
X89960000Y-80835492D01*
X90085304Y-80815646D01*
X90198342Y-80758050D01*
X90288050Y-80668342D01*
X90343253Y-80560000D01*
X92104508Y-80560000D01*
X92124354Y-80685304D01*
X92163259Y-80761660D01*
X92181950Y-80798342D01*
X92271658Y-80888050D01*
X92384696Y-80945646D01*
X92510000Y-80965492D01*
X92635304Y-80945646D01*
X92635312Y-80945641D01*
X92635996Y-80945420D01*
X92644886Y-80946115D01*
X92650680Y-80952892D01*
X92651109Y-80958320D01*
X92644508Y-81000000D01*
X92664354Y-81125304D01*
X92691376Y-81178339D01*
X92709942Y-81214776D01*
X92710642Y-81223665D01*
X92704851Y-81230445D01*
X92697740Y-81231572D01*
X92590000Y-81214508D01*
X92464695Y-81234354D01*
X92351660Y-81291948D01*
X92261948Y-81381660D01*
X92204354Y-81494695D01*
X92192164Y-81571660D01*
X92184508Y-81620000D01*
X92204354Y-81745304D01*
X92261950Y-81858342D01*
X92351658Y-81948050D01*
X92464696Y-82005646D01*
X92590000Y-82025492D01*
X92715304Y-82005646D01*
X92828342Y-81948050D01*
X92918050Y-81858342D01*
X92975646Y-81745304D01*
X92995492Y-81620000D01*
X92975646Y-81494696D01*
X92930056Y-81405222D01*
X92929357Y-81396334D01*
X92935148Y-81389554D01*
X92942256Y-81388427D01*
X93050000Y-81405492D01*
X93175304Y-81385646D01*
X93288342Y-81328050D01*
X93378050Y-81238342D01*
X93435646Y-81125304D01*
X93455492Y-81000000D01*
X93435646Y-80874696D01*
X93378050Y-80761658D01*
X93288342Y-80671950D01*
X93288339Y-80671948D01*
X93175304Y-80614354D01*
X93050000Y-80594508D01*
X92939875Y-80611950D01*
X92924690Y-80614355D01*
X92923988Y-80614583D01*
X92915099Y-80613876D01*
X92909314Y-80607091D01*
X92908890Y-80601679D01*
X92915492Y-80560000D01*
X92895646Y-80434696D01*
X92871485Y-80387280D01*
X92870786Y-80378393D01*
X92876577Y-80371613D01*
X92885466Y-80370913D01*
X92887152Y-80371612D01*
X92914696Y-80385646D01*
X93040000Y-80405492D01*
X93165304Y-80385646D01*
X93278342Y-80328050D01*
X93368050Y-80238342D01*
X93425646Y-80125304D01*
X93445492Y-80000000D01*
X93425646Y-79874696D01*
X93368050Y-79761658D01*
X93278342Y-79671950D01*
X93278339Y-79671948D01*
X93165304Y-79614354D01*
X93153724Y-79612520D01*
X93040000Y-79594508D01*
X93039999Y-79594508D01*
X92993784Y-79601827D01*
X92926276Y-79612519D01*
X92917607Y-79610438D01*
X92912948Y-79602835D01*
X92912948Y-79599196D01*
X92925492Y-79520000D01*
X92908075Y-79410034D01*
X92910157Y-79401366D01*
X92917760Y-79396707D01*
X92921395Y-79396707D01*
X93040000Y-79415492D01*
X93165304Y-79395646D01*
X93278342Y-79338050D01*
X93368050Y-79248342D01*
X93425646Y-79135304D01*
X93445492Y-79010000D01*
X93425646Y-78884696D01*
X93368050Y-78771658D01*
X93278342Y-78681950D01*
X93278339Y-78681948D01*
X93165304Y-78624354D01*
X93095820Y-78613349D01*
X93040000Y-78604508D01*
X93039999Y-78604508D01*
X92923029Y-78623034D01*
X92914359Y-78620952D01*
X92909700Y-78613349D01*
X92909700Y-78609705D01*
X92914405Y-78580000D01*
X95234508Y-78580000D01*
X95254354Y-78705304D01*
X95303597Y-78801950D01*
X95311950Y-78818342D01*
X95401658Y-78908050D01*
X95514696Y-78965646D01*
X95640000Y-78985492D01*
X95765304Y-78965646D01*
X95785964Y-78955118D01*
X95794849Y-78954419D01*
X95801630Y-78960209D01*
X95802330Y-78969098D01*
X95801630Y-78970788D01*
X95784354Y-79004695D01*
X95764508Y-79130000D01*
X95784354Y-79255304D01*
X95836854Y-79358342D01*
X95841950Y-79368342D01*
X95853607Y-79379999D01*
X95859878Y-79386270D01*
X95863290Y-79394508D01*
X95859878Y-79402746D01*
X95851640Y-79406158D01*
X95846353Y-79404888D01*
X95845304Y-79404354D01*
X95720000Y-79384508D01*
X95594695Y-79404354D01*
X95481660Y-79461948D01*
X95391948Y-79551660D01*
X95334354Y-79664695D01*
X95314508Y-79790000D01*
X95334354Y-79915304D01*
X95364925Y-79975304D01*
X95391950Y-80028342D01*
X95481658Y-80118050D01*
X95594696Y-80175646D01*
X95720000Y-80195492D01*
X95805363Y-80181971D01*
X95814032Y-80184053D01*
X95818691Y-80191655D01*
X95817564Y-80198767D01*
X95804355Y-80224692D01*
X95804354Y-80224694D01*
X95804354Y-80224696D01*
X95788997Y-80321658D01*
X95784508Y-80350000D01*
X95804354Y-80475304D01*
X95842144Y-80549472D01*
X95842844Y-80558361D01*
X95837053Y-80565141D01*
X95828164Y-80565841D01*
X95826475Y-80565141D01*
X95805304Y-80554354D01*
X95680000Y-80534508D01*
X95554695Y-80554354D01*
X95441660Y-80611948D01*
X95351948Y-80701660D01*
X95294354Y-80814695D01*
X95274508Y-80940000D01*
X95294354Y-81065304D01*
X95324925Y-81125304D01*
X95351950Y-81178342D01*
X95441658Y-81268050D01*
X95554696Y-81325646D01*
X95680000Y-81345492D01*
X95805304Y-81325646D01*
X95918342Y-81268050D01*
X96008050Y-81178342D01*
X96065646Y-81065304D01*
X96085492Y-80940000D01*
X96065646Y-80814696D01*
X96027853Y-80740525D01*
X96027154Y-80731637D01*
X96032945Y-80724857D01*
X96041834Y-80724157D01*
X96043516Y-80724854D01*
X96064696Y-80735646D01*
X96190000Y-80755492D01*
X96315304Y-80735646D01*
X96428342Y-80678050D01*
X96518050Y-80588342D01*
X96575646Y-80475304D01*
X96595492Y-80350000D01*
X96575646Y-80224696D01*
X96518050Y-80111658D01*
X96428342Y-80021950D01*
X96428339Y-80021948D01*
X96315304Y-79964354D01*
X96262211Y-79955945D01*
X96190000Y-79944508D01*
X96189999Y-79944508D01*
X96104636Y-79958027D01*
X96095966Y-79955945D01*
X96091307Y-79948342D01*
X96092433Y-79941233D01*
X96105646Y-79915304D01*
X96125492Y-79790000D01*
X189314508Y-79790000D01*
X189334354Y-79915304D01*
X189364925Y-79975304D01*
X189391950Y-80028342D01*
X189481658Y-80118050D01*
X189594696Y-80175646D01*
X189720000Y-80195492D01*
X189845304Y-80175646D01*
X189958342Y-80118050D01*
X190048050Y-80028342D01*
X190105646Y-79915304D01*
X190125492Y-79790000D01*
X190105646Y-79664696D01*
X190048050Y-79551658D01*
X189958342Y-79461950D01*
X189958339Y-79461948D01*
X189845304Y-79404354D01*
X189720000Y-79384508D01*
X189594695Y-79404354D01*
X189481660Y-79461948D01*
X189391948Y-79551660D01*
X189334354Y-79664695D01*
X189314508Y-79790000D01*
X96125492Y-79790000D01*
X96105646Y-79664696D01*
X96048050Y-79551658D01*
X96030119Y-79533727D01*
X96026708Y-79525491D01*
X96030120Y-79517253D01*
X96038358Y-79513841D01*
X96043644Y-79515110D01*
X96044696Y-79515646D01*
X96170000Y-79535492D01*
X96295304Y-79515646D01*
X96408342Y-79458050D01*
X96498050Y-79368342D01*
X96555646Y-79255304D01*
X96575492Y-79130000D01*
X96555646Y-79004696D01*
X96498050Y-78891658D01*
X96408342Y-78801950D01*
X96408339Y-78801948D01*
X96295304Y-78744354D01*
X96170000Y-78724508D01*
X96044696Y-78744354D01*
X96044694Y-78744354D01*
X96044692Y-78744355D01*
X96024038Y-78754878D01*
X96015149Y-78755578D01*
X96008369Y-78749787D01*
X96007669Y-78740898D01*
X96008365Y-78739218D01*
X96025646Y-78705304D01*
X96045492Y-78580000D01*
X96025646Y-78454696D01*
X95968050Y-78341658D01*
X95878342Y-78251950D01*
X95878339Y-78251948D01*
X95765304Y-78194354D01*
X95640000Y-78174508D01*
X95514695Y-78194354D01*
X95401660Y-78251948D01*
X95311948Y-78341660D01*
X95254354Y-78454695D01*
X95234508Y-78580000D01*
X92914405Y-78580000D01*
X92925492Y-78510000D01*
X92905646Y-78384696D01*
X92848050Y-78271658D01*
X92818566Y-78242174D01*
X92815155Y-78233938D01*
X92818567Y-78225700D01*
X92826805Y-78222288D01*
X92832094Y-78223558D01*
X92914696Y-78265646D01*
X93040000Y-78285492D01*
X93165304Y-78265646D01*
X93278342Y-78208050D01*
X93368050Y-78118342D01*
X93425646Y-78005304D01*
X93445492Y-77880000D01*
X93425646Y-77754696D01*
X93368050Y-77641658D01*
X93278342Y-77551950D01*
X93278339Y-77551948D01*
X93165304Y-77494354D01*
X93040000Y-77474508D01*
X92914695Y-77494354D01*
X92892811Y-77505504D01*
X92883921Y-77506204D01*
X92877142Y-77500413D01*
X92876442Y-77491523D01*
X92877645Y-77489164D01*
X92877634Y-77489159D01*
X92913865Y-77418051D01*
X92935646Y-77375304D01*
X92955492Y-77250000D01*
X92935646Y-77124696D01*
X92901688Y-77058050D01*
X92884091Y-77023513D01*
X92883391Y-77014624D01*
X92889182Y-77007844D01*
X92898071Y-77007144D01*
X92899749Y-77007839D01*
X92934696Y-77025646D01*
X93060000Y-77045492D01*
X93185304Y-77025646D01*
X93298342Y-76968050D01*
X93388050Y-76878342D01*
X93445646Y-76765304D01*
X93465492Y-76640000D01*
X93445646Y-76514696D01*
X93388050Y-76401658D01*
X93298342Y-76311950D01*
X93298339Y-76311948D01*
X93185304Y-76254354D01*
X93124451Y-76244716D01*
X93060000Y-76234508D01*
X93059999Y-76234508D01*
X92934396Y-76254401D01*
X92925726Y-76252319D01*
X92921067Y-76244716D01*
X92921067Y-76241075D01*
X92935492Y-76150000D01*
X92915646Y-76024696D01*
X92860845Y-75917145D01*
X92860146Y-75908257D01*
X92865937Y-75901477D01*
X92874826Y-75900777D01*
X92876509Y-75901474D01*
X92884696Y-75905646D01*
X93010000Y-75925492D01*
X93135304Y-75905646D01*
X93248342Y-75848050D01*
X93338050Y-75758342D01*
X93395646Y-75645304D01*
X93415492Y-75520000D01*
X93395646Y-75394696D01*
X93338050Y-75281658D01*
X93248342Y-75191950D01*
X93248339Y-75191948D01*
X93135304Y-75134354D01*
X93010000Y-75114508D01*
X92884695Y-75134354D01*
X92771660Y-75191948D01*
X92681948Y-75281660D01*
X92624354Y-75394695D01*
X92604508Y-75520000D01*
X92624354Y-75645304D01*
X92679153Y-75752853D01*
X92679853Y-75761742D01*
X92674062Y-75768522D01*
X92665173Y-75769222D01*
X92663484Y-75768522D01*
X92655304Y-75764354D01*
X92530000Y-75744508D01*
X92404695Y-75764354D01*
X92291660Y-75821948D01*
X92201948Y-75911660D01*
X92144354Y-76024695D01*
X92124508Y-76150000D01*
X92144354Y-76275304D01*
X92196854Y-76378342D01*
X92201950Y-76388342D01*
X92291658Y-76478050D01*
X92404696Y-76535646D01*
X92530000Y-76555492D01*
X92655304Y-76535646D01*
X92655306Y-76535644D01*
X92655602Y-76535598D01*
X92664272Y-76537680D01*
X92668931Y-76545283D01*
X92668931Y-76548927D01*
X92654508Y-76639999D01*
X92674354Y-76765304D01*
X92725908Y-76866485D01*
X92726608Y-76875374D01*
X92720817Y-76882154D01*
X92711928Y-76882854D01*
X92710239Y-76882154D01*
X92675304Y-76864354D01*
X92550000Y-76844508D01*
X92424695Y-76864354D01*
X92311660Y-76921948D01*
X92221948Y-77011660D01*
X92164354Y-77124695D01*
X92144508Y-77250000D01*
X92164354Y-77375304D01*
X92215480Y-77475645D01*
X92221950Y-77488342D01*
X92311658Y-77578050D01*
X92424696Y-77635646D01*
X92550000Y-77655492D01*
X92675304Y-77635646D01*
X92697190Y-77624493D01*
X92706078Y-77623794D01*
X92712858Y-77629585D01*
X92713558Y-77638474D01*
X92712355Y-77640835D01*
X92712366Y-77640841D01*
X92654354Y-77754695D01*
X92634508Y-77880000D01*
X92654354Y-78005304D01*
X92708156Y-78110897D01*
X92711950Y-78118342D01*
X92741432Y-78147824D01*
X92744844Y-78156061D01*
X92741432Y-78164299D01*
X92733194Y-78167711D01*
X92727905Y-78166441D01*
X92645304Y-78124354D01*
X92520000Y-78104508D01*
X92394695Y-78124354D01*
X92281660Y-78181948D01*
X92191948Y-78271660D01*
X92134354Y-78384695D01*
X92114508Y-78510000D01*
X92134354Y-78635304D01*
X92189918Y-78744355D01*
X92191950Y-78748342D01*
X92281658Y-78838050D01*
X92394696Y-78895646D01*
X92520000Y-78915492D01*
X92636971Y-78896965D01*
X92645639Y-78899047D01*
X92650298Y-78906649D01*
X92650298Y-78910294D01*
X92634508Y-79009999D01*
X92651924Y-79119963D01*
X92649842Y-79128633D01*
X92642239Y-79133292D01*
X92638599Y-79133292D01*
X92520000Y-79114508D01*
X92519999Y-79114508D01*
X92394695Y-79134354D01*
X92281660Y-79191948D01*
X92191948Y-79281660D01*
X92134354Y-79394695D01*
X92114508Y-79520000D01*
X92134354Y-79645304D01*
X92186422Y-79747494D01*
X92191950Y-79758342D01*
X92281658Y-79848050D01*
X92394696Y-79905646D01*
X92520000Y-79925492D01*
X92633722Y-79907480D01*
X92642391Y-79909562D01*
X92647050Y-79917165D01*
X92647050Y-79920809D01*
X92638419Y-79975304D01*
X92634508Y-80000000D01*
X92638997Y-80028342D01*
X92654354Y-80125304D01*
X92678512Y-80172716D01*
X92679212Y-80181605D01*
X92673421Y-80188385D01*
X92664532Y-80189085D01*
X92662843Y-80188385D01*
X92635307Y-80174355D01*
X92635305Y-80174354D01*
X92635304Y-80174354D01*
X92510000Y-80154508D01*
X92384695Y-80174354D01*
X92271660Y-80231948D01*
X92181948Y-80321660D01*
X92124354Y-80434695D01*
X92104508Y-80560000D01*
X90343253Y-80560000D01*
X90345646Y-80555304D01*
X90365492Y-80430000D01*
X90345646Y-80304696D01*
X90288050Y-80191658D01*
X90198342Y-80101950D01*
X90198339Y-80101948D01*
X90085304Y-80044354D01*
X89960000Y-80024508D01*
X89834695Y-80044354D01*
X89752873Y-80086044D01*
X89743984Y-80086744D01*
X89737204Y-80080953D01*
X89736504Y-80072064D01*
X89737201Y-80070382D01*
X89785646Y-79975304D01*
X89805492Y-79850000D01*
X89785646Y-79724696D01*
X89728050Y-79611658D01*
X89638342Y-79521950D01*
X89638339Y-79521948D01*
X89525304Y-79464354D01*
X89400000Y-79444508D01*
X89274695Y-79464354D01*
X89161660Y-79521948D01*
X89071948Y-79611660D01*
X89014354Y-79724695D01*
X88994508Y-79850000D01*
X82671599Y-79850000D01*
X82688624Y-79838624D01*
X82749515Y-79747495D01*
X82770897Y-79640000D01*
X82770800Y-79639514D01*
X82764656Y-79608624D01*
X82749515Y-79532505D01*
X82688624Y-79441376D01*
X82597495Y-79380485D01*
X82595057Y-79380000D01*
X83699103Y-79380000D01*
X83720485Y-79487495D01*
X83781376Y-79578624D01*
X83872505Y-79639515D01*
X83980000Y-79660897D01*
X84087495Y-79639515D01*
X84178624Y-79578624D01*
X84239515Y-79487495D01*
X84260897Y-79380000D01*
X84258577Y-79368339D01*
X84252553Y-79338051D01*
X84239515Y-79272505D01*
X84178624Y-79181376D01*
X84087495Y-79120485D01*
X84085057Y-79120000D01*
X89484508Y-79120000D01*
X89504354Y-79245304D01*
X89551610Y-79338050D01*
X89561950Y-79358342D01*
X89651658Y-79448050D01*
X89764696Y-79505646D01*
X89890000Y-79525492D01*
X90015304Y-79505646D01*
X90128342Y-79448050D01*
X90218050Y-79358342D01*
X90275646Y-79245304D01*
X90295492Y-79120000D01*
X90275646Y-78994696D01*
X90218050Y-78881658D01*
X90128342Y-78791950D01*
X90128339Y-78791948D01*
X90015304Y-78734354D01*
X89890000Y-78714508D01*
X89764695Y-78734354D01*
X89651660Y-78791948D01*
X89561948Y-78881660D01*
X89504354Y-78994695D01*
X89484508Y-79120000D01*
X84085057Y-79120000D01*
X83980000Y-79099103D01*
X83872505Y-79120485D01*
X83781377Y-79181375D01*
X83781375Y-79181377D01*
X83720485Y-79272505D01*
X83701423Y-79368339D01*
X83699103Y-79380000D01*
X82595057Y-79380000D01*
X82490000Y-79359103D01*
X82382505Y-79380485D01*
X82291377Y-79441375D01*
X82291375Y-79441377D01*
X82230485Y-79532505D01*
X82209200Y-79639514D01*
X82209103Y-79640000D01*
X80601667Y-79640000D01*
X80648624Y-79608624D01*
X80709515Y-79517495D01*
X80730897Y-79410000D01*
X80709515Y-79302505D01*
X80648624Y-79211376D01*
X80557495Y-79150485D01*
X80450000Y-79129103D01*
X80342505Y-79150485D01*
X80251377Y-79211375D01*
X80251375Y-79211377D01*
X80190485Y-79302505D01*
X80172185Y-79394508D01*
X80169103Y-79410000D01*
X76876701Y-79410000D01*
X76938624Y-79368624D01*
X76999515Y-79277495D01*
X77020897Y-79170000D01*
X76999515Y-79062505D01*
X76938624Y-78971376D01*
X76847495Y-78910485D01*
X76740000Y-78889103D01*
X76632505Y-78910485D01*
X76541377Y-78971375D01*
X76541375Y-78971377D01*
X76480485Y-79062505D01*
X76469049Y-79120000D01*
X76459103Y-79170000D01*
X57000000Y-79170000D01*
X57000000Y-78440000D01*
X68149103Y-78440000D01*
X68170485Y-78547495D01*
X68231376Y-78638624D01*
X68322505Y-78699515D01*
X68430000Y-78720897D01*
X68537495Y-78699515D01*
X68628624Y-78638624D01*
X68689515Y-78547495D01*
X68710897Y-78440000D01*
X81549103Y-78440000D01*
X81570485Y-78547495D01*
X81631376Y-78638624D01*
X81722505Y-78699515D01*
X81830000Y-78720897D01*
X81937495Y-78699515D01*
X82028624Y-78638624D01*
X82089515Y-78547495D01*
X82110897Y-78440000D01*
X82089515Y-78332505D01*
X82087841Y-78330000D01*
X89014508Y-78330000D01*
X89034354Y-78455304D01*
X89088156Y-78560897D01*
X89091950Y-78568342D01*
X89181658Y-78658050D01*
X89294696Y-78715646D01*
X89420000Y-78735492D01*
X89545304Y-78715646D01*
X89658342Y-78658050D01*
X89748050Y-78568342D01*
X89805646Y-78455304D01*
X89825492Y-78330000D01*
X89805646Y-78204696D01*
X89748050Y-78091658D01*
X89658342Y-78001950D01*
X89658339Y-78001948D01*
X89545304Y-77944354D01*
X89420000Y-77924508D01*
X89294695Y-77944354D01*
X89181660Y-78001948D01*
X89091948Y-78091660D01*
X89034354Y-78204695D01*
X89014508Y-78330000D01*
X82087841Y-78330000D01*
X82028624Y-78241376D01*
X81937495Y-78180485D01*
X81830000Y-78159103D01*
X81722505Y-78180485D01*
X81631377Y-78241375D01*
X81631375Y-78241377D01*
X81581853Y-78315491D01*
X81570485Y-78332505D01*
X81549103Y-78440000D01*
X68710897Y-78440000D01*
X68689515Y-78332505D01*
X68628624Y-78241376D01*
X68537495Y-78180485D01*
X68430000Y-78159103D01*
X68322505Y-78180485D01*
X68231377Y-78241375D01*
X68231375Y-78241377D01*
X68181853Y-78315491D01*
X68170485Y-78332505D01*
X68149103Y-78440000D01*
X57000000Y-78440000D01*
X57000000Y-78030000D01*
X72744508Y-78030000D01*
X72764354Y-78155304D01*
X72820575Y-78265645D01*
X72821950Y-78268342D01*
X72911658Y-78358050D01*
X73024696Y-78415646D01*
X73150000Y-78435492D01*
X73275304Y-78415646D01*
X73388342Y-78358050D01*
X73478050Y-78268342D01*
X73535646Y-78155304D01*
X73555492Y-78030000D01*
X73535646Y-77904696D01*
X73487396Y-77810000D01*
X81269103Y-77810000D01*
X81290485Y-77917495D01*
X81351376Y-78008624D01*
X81442505Y-78069515D01*
X81550000Y-78090897D01*
X81657495Y-78069515D01*
X81748624Y-78008624D01*
X81809515Y-77917495D01*
X81830897Y-77810000D01*
X81809515Y-77702505D01*
X81748624Y-77611376D01*
X81657495Y-77550485D01*
X81550000Y-77529103D01*
X81442505Y-77550485D01*
X81351377Y-77611375D01*
X81351375Y-77611377D01*
X81290485Y-77702505D01*
X81274797Y-77781376D01*
X81269103Y-77810000D01*
X73487396Y-77810000D01*
X73478050Y-77791658D01*
X73388342Y-77701950D01*
X73388339Y-77701948D01*
X73275304Y-77644354D01*
X73150000Y-77624508D01*
X73024695Y-77644354D01*
X72911660Y-77701948D01*
X72821948Y-77791660D01*
X72764354Y-77904695D01*
X72744508Y-78030000D01*
X57000000Y-78030000D01*
X57000000Y-77090000D01*
X88964508Y-77090000D01*
X88984354Y-77215304D01*
X89002032Y-77250000D01*
X89041950Y-77328342D01*
X89131658Y-77418050D01*
X89244696Y-77475646D01*
X89370000Y-77495492D01*
X89495304Y-77475646D01*
X89529211Y-77458368D01*
X89538098Y-77457669D01*
X89544878Y-77463460D01*
X89545578Y-77472349D01*
X89544878Y-77474038D01*
X89534355Y-77494692D01*
X89534354Y-77494694D01*
X89534354Y-77494696D01*
X89519049Y-77591330D01*
X89514508Y-77620000D01*
X89534354Y-77745304D01*
X89557973Y-77791660D01*
X89591950Y-77858342D01*
X89681658Y-77948050D01*
X89794696Y-78005646D01*
X89920000Y-78025492D01*
X90045304Y-78005646D01*
X90158342Y-77948050D01*
X90248050Y-77858342D01*
X90305646Y-77745304D01*
X90325492Y-77620000D01*
X90305646Y-77494696D01*
X90248050Y-77381658D01*
X90158342Y-77291950D01*
X90158339Y-77291948D01*
X90045304Y-77234354D01*
X89920000Y-77214508D01*
X89794695Y-77234354D01*
X89760788Y-77251630D01*
X89751899Y-77252330D01*
X89745119Y-77246539D01*
X89744419Y-77237650D01*
X89745110Y-77235979D01*
X89755646Y-77215304D01*
X89775492Y-77090000D01*
X89755646Y-76964696D01*
X89698050Y-76851658D01*
X89608342Y-76761950D01*
X89608339Y-76761948D01*
X89495304Y-76704354D01*
X89370000Y-76684508D01*
X89244695Y-76704354D01*
X89131660Y-76761948D01*
X89041948Y-76851660D01*
X88984354Y-76964695D01*
X88964508Y-77090000D01*
X57000000Y-77090000D01*
X57000000Y-76740000D01*
X69789103Y-76740000D01*
X69810485Y-76847495D01*
X69871376Y-76938624D01*
X69962505Y-76999515D01*
X70070000Y-77020897D01*
X70177495Y-76999515D01*
X70268624Y-76938624D01*
X70329515Y-76847495D01*
X70350897Y-76740000D01*
X70329515Y-76632505D01*
X70268624Y-76541376D01*
X70177495Y-76480485D01*
X70070000Y-76459103D01*
X69962505Y-76480485D01*
X69871377Y-76541375D01*
X69871375Y-76541377D01*
X69826825Y-76608050D01*
X69810485Y-76632505D01*
X69789103Y-76740000D01*
X57000000Y-76740000D01*
X57000000Y-76030000D01*
X85049103Y-76030000D01*
X85070485Y-76137495D01*
X85131376Y-76228624D01*
X85222505Y-76289515D01*
X85330000Y-76310897D01*
X85435057Y-76290000D01*
X89544508Y-76290000D01*
X89564354Y-76415304D01*
X89621228Y-76526926D01*
X89621950Y-76528342D01*
X89711658Y-76618050D01*
X89824696Y-76675646D01*
X89950000Y-76695492D01*
X90075304Y-76675646D01*
X90188342Y-76618050D01*
X90278050Y-76528342D01*
X90335646Y-76415304D01*
X90355492Y-76290000D01*
X90335646Y-76164696D01*
X90278050Y-76051658D01*
X90188342Y-75961950D01*
X90188339Y-75961948D01*
X90075304Y-75904354D01*
X89950000Y-75884508D01*
X89824695Y-75904354D01*
X89711660Y-75961948D01*
X89621948Y-76051660D01*
X89564354Y-76164695D01*
X89544508Y-76290000D01*
X85435057Y-76290000D01*
X85437495Y-76289515D01*
X85528624Y-76228624D01*
X85589515Y-76137495D01*
X85610897Y-76030000D01*
X85589515Y-75922505D01*
X85528624Y-75831376D01*
X85437495Y-75770485D01*
X85330000Y-75749103D01*
X85222505Y-75770485D01*
X85131377Y-75831375D01*
X85131375Y-75831377D01*
X85120234Y-75848051D01*
X85070485Y-75922505D01*
X85049103Y-76030000D01*
X57000000Y-76030000D01*
X57000000Y-75470000D01*
X89094508Y-75470000D01*
X89114354Y-75595304D01*
X89134735Y-75635305D01*
X89171950Y-75708342D01*
X89261658Y-75798050D01*
X89374696Y-75855646D01*
X89500000Y-75875492D01*
X89625304Y-75855646D01*
X89738342Y-75798050D01*
X89828050Y-75708342D01*
X89885646Y-75595304D01*
X89905492Y-75470000D01*
X89885646Y-75344696D01*
X89828050Y-75231658D01*
X89738342Y-75141950D01*
X89738339Y-75141948D01*
X89625304Y-75084354D01*
X89500000Y-75064508D01*
X89374695Y-75084354D01*
X89261660Y-75141948D01*
X89171948Y-75231660D01*
X89114354Y-75344695D01*
X89094508Y-75470000D01*
X57000000Y-75470000D01*
X57000000Y-74890000D01*
X83869103Y-74890000D01*
X83890485Y-74997495D01*
X83951376Y-75088624D01*
X84042505Y-75149515D01*
X84150000Y-75170897D01*
X84257495Y-75149515D01*
X84348624Y-75088624D01*
X84409515Y-74997495D01*
X84430897Y-74890000D01*
X84411006Y-74790000D01*
X90434508Y-74790000D01*
X90454354Y-74915304D01*
X90505333Y-75015357D01*
X90511950Y-75028342D01*
X90601658Y-75118050D01*
X90714696Y-75175646D01*
X90840000Y-75195492D01*
X90965304Y-75175646D01*
X91078342Y-75118050D01*
X91116392Y-75080000D01*
X93714508Y-75080000D01*
X93734354Y-75205304D01*
X93780106Y-75295098D01*
X93791950Y-75318342D01*
X93881658Y-75408050D01*
X93994696Y-75465646D01*
X94120000Y-75485492D01*
X94245304Y-75465646D01*
X94358342Y-75408050D01*
X94448050Y-75318342D01*
X94503253Y-75210000D01*
X95114508Y-75210000D01*
X95134354Y-75335304D01*
X95171420Y-75408051D01*
X95191950Y-75448342D01*
X95281658Y-75538050D01*
X95394696Y-75595646D01*
X95520000Y-75615492D01*
X95645304Y-75595646D01*
X95707606Y-75563900D01*
X95716493Y-75563201D01*
X95723273Y-75568992D01*
X95724400Y-75572458D01*
X95734354Y-75635305D01*
X95784607Y-75733931D01*
X95785307Y-75742820D01*
X95779516Y-75749600D01*
X95772405Y-75750727D01*
X95670000Y-75734508D01*
X95544695Y-75754354D01*
X95431660Y-75811948D01*
X95341948Y-75901660D01*
X95284354Y-76014695D01*
X95264508Y-76140000D01*
X95284354Y-76265304D01*
X95316605Y-76328601D01*
X95341950Y-76378342D01*
X95431658Y-76468050D01*
X95544696Y-76525646D01*
X95670000Y-76545492D01*
X95670000Y-76545491D01*
X95670002Y-76545492D01*
X95670003Y-76545492D01*
X95685685Y-76543007D01*
X95695844Y-76541398D01*
X95704514Y-76543479D01*
X95709173Y-76551081D01*
X95708047Y-76558193D01*
X95684354Y-76604695D01*
X95673117Y-76675645D01*
X95664508Y-76730000D01*
X95684354Y-76855304D01*
X95685804Y-76858149D01*
X95686503Y-76867038D01*
X95680711Y-76873818D01*
X95677246Y-76874944D01*
X95554694Y-76894354D01*
X95441660Y-76951948D01*
X95351948Y-77041660D01*
X95294354Y-77154695D01*
X95274508Y-77280000D01*
X95294354Y-77405304D01*
X95345408Y-77505504D01*
X95351950Y-77518342D01*
X95441658Y-77608050D01*
X95554696Y-77665646D01*
X95680000Y-77685492D01*
X95805304Y-77665646D01*
X95847130Y-77644333D01*
X95856018Y-77643634D01*
X95862798Y-77649425D01*
X95863498Y-77658314D01*
X95860656Y-77662951D01*
X95851949Y-77671658D01*
X95794354Y-77784695D01*
X95774508Y-77910000D01*
X95794354Y-78035304D01*
X95851685Y-78147823D01*
X95851950Y-78148342D01*
X95941658Y-78238050D01*
X96054696Y-78295646D01*
X96180000Y-78315492D01*
X96305304Y-78295646D01*
X96336011Y-78280000D01*
X175409103Y-78280000D01*
X175430485Y-78387495D01*
X175491376Y-78478624D01*
X175582505Y-78539515D01*
X175690000Y-78560897D01*
X175797495Y-78539515D01*
X175888624Y-78478624D01*
X175949515Y-78387495D01*
X175970897Y-78280000D01*
X175968577Y-78268339D01*
X175967097Y-78260897D01*
X175949515Y-78172505D01*
X175888624Y-78081376D01*
X175797495Y-78020485D01*
X175690000Y-77999103D01*
X175582505Y-78020485D01*
X175491377Y-78081375D01*
X175491375Y-78081377D01*
X175430485Y-78172505D01*
X175411423Y-78268339D01*
X175409103Y-78280000D01*
X96336011Y-78280000D01*
X96418342Y-78238050D01*
X96508050Y-78148342D01*
X96565646Y-78035304D01*
X96585492Y-77910000D01*
X96572821Y-77830000D01*
X163409103Y-77830000D01*
X163430485Y-77937495D01*
X163491376Y-78028624D01*
X163582505Y-78089515D01*
X163690000Y-78110897D01*
X163797495Y-78089515D01*
X163888624Y-78028624D01*
X163921114Y-77980000D01*
X183919103Y-77980000D01*
X183940485Y-78087495D01*
X184001376Y-78178624D01*
X184092505Y-78239515D01*
X184200000Y-78260897D01*
X184307495Y-78239515D01*
X184398624Y-78178624D01*
X184459515Y-78087495D01*
X184480897Y-77980000D01*
X184459515Y-77872505D01*
X184398624Y-77781376D01*
X184307495Y-77720485D01*
X184200000Y-77699103D01*
X184092505Y-77720485D01*
X184001377Y-77781375D01*
X184001375Y-77781377D01*
X183949948Y-77858342D01*
X183940485Y-77872505D01*
X183919103Y-77980000D01*
X163921114Y-77980000D01*
X163949515Y-77937495D01*
X163970897Y-77830000D01*
X163949515Y-77722505D01*
X163888624Y-77631376D01*
X163797495Y-77570485D01*
X163690000Y-77549103D01*
X163582505Y-77570485D01*
X163491377Y-77631375D01*
X163491375Y-77631377D01*
X163443849Y-77702505D01*
X163430485Y-77722505D01*
X163409103Y-77830000D01*
X96572821Y-77830000D01*
X96565646Y-77784696D01*
X96508050Y-77671658D01*
X96418342Y-77581950D01*
X96418339Y-77581948D01*
X96305304Y-77524354D01*
X96180000Y-77504508D01*
X96054695Y-77524354D01*
X96012873Y-77545663D01*
X96003984Y-77546363D01*
X95997204Y-77540572D01*
X95996504Y-77531683D01*
X95999347Y-77527045D01*
X96008046Y-77518346D01*
X96008046Y-77518345D01*
X96008050Y-77518342D01*
X96065646Y-77405304D01*
X96085492Y-77280000D01*
X96065646Y-77154696D01*
X96064195Y-77151850D01*
X96063496Y-77142962D01*
X96069287Y-77136182D01*
X96072749Y-77135056D01*
X96195304Y-77115646D01*
X96308342Y-77058050D01*
X96398050Y-76968342D01*
X96455646Y-76855304D01*
X96475492Y-76730000D01*
X96455646Y-76604696D01*
X96398050Y-76491658D01*
X96308342Y-76401950D01*
X96308339Y-76401948D01*
X96195304Y-76344354D01*
X96070000Y-76324508D01*
X96069999Y-76324508D01*
X96044153Y-76328601D01*
X96035483Y-76326519D01*
X96030824Y-76318916D01*
X96031950Y-76311807D01*
X96048158Y-76280000D01*
X173554508Y-76280000D01*
X173574354Y-76405304D01*
X173630091Y-76514695D01*
X173631950Y-76518342D01*
X173721658Y-76608050D01*
X173834696Y-76665646D01*
X173960000Y-76685492D01*
X174085304Y-76665646D01*
X174198342Y-76608050D01*
X174288050Y-76518342D01*
X174345646Y-76405304D01*
X174365492Y-76280000D01*
X174345646Y-76154696D01*
X174288050Y-76041658D01*
X174198342Y-75951950D01*
X174198339Y-75951948D01*
X174085304Y-75894354D01*
X173960000Y-75874508D01*
X173834695Y-75894354D01*
X173721660Y-75951948D01*
X173631948Y-76041660D01*
X173574354Y-76154695D01*
X173554508Y-76280000D01*
X96048158Y-76280000D01*
X96055646Y-76265304D01*
X96075492Y-76140000D01*
X96055646Y-76014696D01*
X96005391Y-75916067D01*
X96004692Y-75907179D01*
X96010483Y-75900399D01*
X96017591Y-75899272D01*
X96120000Y-75915492D01*
X96245304Y-75895646D01*
X96358342Y-75838050D01*
X96448050Y-75748342D01*
X96505646Y-75635304D01*
X96525492Y-75510000D01*
X96505646Y-75384696D01*
X96448050Y-75271658D01*
X96358342Y-75181950D01*
X96358339Y-75181948D01*
X96245304Y-75124354D01*
X96120000Y-75104508D01*
X95994696Y-75124354D01*
X95994694Y-75124354D01*
X95994692Y-75124355D01*
X95932394Y-75156097D01*
X95923505Y-75156797D01*
X95916725Y-75151006D01*
X95915599Y-75147543D01*
X95905646Y-75084696D01*
X95848050Y-74971658D01*
X95758342Y-74881950D01*
X95758339Y-74881948D01*
X95645304Y-74824354D01*
X95520000Y-74804508D01*
X95394695Y-74824354D01*
X95281660Y-74881948D01*
X95191948Y-74971660D01*
X95134354Y-75084695D01*
X95114508Y-75210000D01*
X94503253Y-75210000D01*
X94505646Y-75205304D01*
X94525492Y-75080000D01*
X94505646Y-74954696D01*
X94473945Y-74892481D01*
X94473246Y-74883593D01*
X94479037Y-74876813D01*
X94487926Y-74876113D01*
X94492561Y-74878953D01*
X94541658Y-74928050D01*
X94654696Y-74985646D01*
X94780000Y-75005492D01*
X94905304Y-74985646D01*
X95018342Y-74928050D01*
X95108050Y-74838342D01*
X95165646Y-74725304D01*
X95185492Y-74600000D01*
X95165646Y-74474696D01*
X95108050Y-74361658D01*
X95086392Y-74340000D01*
X165414901Y-74340000D01*
X165433252Y-74526327D01*
X165433253Y-74526331D01*
X165487601Y-74705493D01*
X165487602Y-74705496D01*
X165487604Y-74705501D01*
X165487607Y-74705506D01*
X165575860Y-74870619D01*
X165575862Y-74870621D01*
X165575864Y-74870625D01*
X165694643Y-75015357D01*
X165839375Y-75134136D01*
X165839378Y-75134138D01*
X165839380Y-75134139D01*
X165853990Y-75141948D01*
X166004499Y-75222396D01*
X166183669Y-75276747D01*
X166370000Y-75295099D01*
X166556331Y-75276747D01*
X166735501Y-75222396D01*
X166900625Y-75134136D01*
X167045357Y-75015357D01*
X167164136Y-74870625D01*
X167252396Y-74705501D01*
X167306747Y-74526331D01*
X167325099Y-74340000D01*
X167954901Y-74340000D01*
X167973252Y-74526327D01*
X167973253Y-74526331D01*
X168027601Y-74705493D01*
X168027602Y-74705496D01*
X168027604Y-74705501D01*
X168027607Y-74705506D01*
X168115860Y-74870619D01*
X168115862Y-74870621D01*
X168115864Y-74870625D01*
X168234643Y-75015357D01*
X168379375Y-75134136D01*
X168379378Y-75134138D01*
X168379380Y-75134139D01*
X168393990Y-75141948D01*
X168544499Y-75222396D01*
X168723669Y-75276747D01*
X168910000Y-75295099D01*
X169096331Y-75276747D01*
X169275501Y-75222396D01*
X169440625Y-75134136D01*
X169585357Y-75015357D01*
X169704136Y-74870625D01*
X169792396Y-74705501D01*
X169846747Y-74526331D01*
X169865099Y-74340000D01*
X173034901Y-74340000D01*
X173053252Y-74526327D01*
X173053253Y-74526331D01*
X173107601Y-74705493D01*
X173107602Y-74705496D01*
X173107604Y-74705501D01*
X173107607Y-74705506D01*
X173195860Y-74870619D01*
X173195862Y-74870621D01*
X173195864Y-74870625D01*
X173314643Y-75015357D01*
X173459375Y-75134136D01*
X173459378Y-75134138D01*
X173459380Y-75134139D01*
X173473990Y-75141948D01*
X173624499Y-75222396D01*
X173803669Y-75276747D01*
X173990000Y-75295099D01*
X174176331Y-75276747D01*
X174355501Y-75222396D01*
X174520625Y-75134136D01*
X174665357Y-75015357D01*
X174784136Y-74870625D01*
X174872396Y-74705501D01*
X174926747Y-74526331D01*
X174945099Y-74340000D01*
X175574901Y-74340000D01*
X175593252Y-74526327D01*
X175593253Y-74526331D01*
X175647601Y-74705493D01*
X175647602Y-74705496D01*
X175647604Y-74705501D01*
X175647607Y-74705506D01*
X175735860Y-74870619D01*
X175735862Y-74870621D01*
X175735864Y-74870625D01*
X175854643Y-75015357D01*
X175999375Y-75134136D01*
X175999378Y-75134138D01*
X175999380Y-75134139D01*
X176013990Y-75141948D01*
X176164499Y-75222396D01*
X176343669Y-75276747D01*
X176530000Y-75295099D01*
X176716331Y-75276747D01*
X176895501Y-75222396D01*
X177060625Y-75134136D01*
X177205357Y-75015357D01*
X177324136Y-74870625D01*
X177412396Y-74705501D01*
X177466747Y-74526331D01*
X177485099Y-74340000D01*
X178114901Y-74340000D01*
X178133252Y-74526327D01*
X178133253Y-74526331D01*
X178187601Y-74705493D01*
X178187602Y-74705496D01*
X178187604Y-74705501D01*
X178187607Y-74705506D01*
X178275860Y-74870619D01*
X178275862Y-74870621D01*
X178275864Y-74870625D01*
X178394643Y-75015357D01*
X178539375Y-75134136D01*
X178539378Y-75134138D01*
X178539380Y-75134139D01*
X178553990Y-75141948D01*
X178704499Y-75222396D01*
X178883669Y-75276747D01*
X179070000Y-75295099D01*
X179256331Y-75276747D01*
X179435501Y-75222396D01*
X179600625Y-75134136D01*
X179745357Y-75015357D01*
X179864136Y-74870625D01*
X179952396Y-74705501D01*
X180006747Y-74526331D01*
X180025099Y-74340000D01*
X180654901Y-74340000D01*
X180673252Y-74526327D01*
X180673253Y-74526331D01*
X180727601Y-74705493D01*
X180727602Y-74705496D01*
X180727604Y-74705501D01*
X180727607Y-74705506D01*
X180815860Y-74870619D01*
X180815862Y-74870621D01*
X180815864Y-74870625D01*
X180934643Y-75015357D01*
X181079375Y-75134136D01*
X181079378Y-75134138D01*
X181079380Y-75134139D01*
X181093990Y-75141948D01*
X181244499Y-75222396D01*
X181423669Y-75276747D01*
X181610000Y-75295099D01*
X181796331Y-75276747D01*
X181975501Y-75222396D01*
X182140625Y-75134136D01*
X182285357Y-75015357D01*
X182404136Y-74870625D01*
X182492396Y-74705501D01*
X182546747Y-74526331D01*
X182565099Y-74340000D01*
X182546747Y-74153669D01*
X182492396Y-73974499D01*
X182404136Y-73809375D01*
X182285357Y-73664643D01*
X182140625Y-73545864D01*
X182140621Y-73545862D01*
X182140619Y-73545860D01*
X182017586Y-73480099D01*
X183199500Y-73480099D01*
X183199500Y-75199899D01*
X183203974Y-75222392D01*
X183205331Y-75229213D01*
X183227543Y-75262457D01*
X183260787Y-75284669D01*
X183290101Y-75290500D01*
X185009898Y-75290499D01*
X185009899Y-75290499D01*
X185014069Y-75289669D01*
X185039213Y-75284669D01*
X185072457Y-75262457D01*
X185094669Y-75229213D01*
X185100500Y-75199899D01*
X185100499Y-73480102D01*
X185100498Y-73480099D01*
X185096025Y-73457607D01*
X185094669Y-73450787D01*
X185072457Y-73417543D01*
X185039213Y-73395331D01*
X185024556Y-73392415D01*
X185009900Y-73389500D01*
X183290100Y-73389500D01*
X183260787Y-73395331D01*
X183227544Y-73417542D01*
X183227542Y-73417544D01*
X183205331Y-73450787D01*
X183199500Y-73480099D01*
X182017586Y-73480099D01*
X181975501Y-73457604D01*
X181975496Y-73457602D01*
X181975493Y-73457601D01*
X181796331Y-73403253D01*
X181796327Y-73403252D01*
X181610000Y-73384901D01*
X181423672Y-73403252D01*
X181423668Y-73403253D01*
X181244506Y-73457601D01*
X181244493Y-73457607D01*
X181079380Y-73545860D01*
X180934643Y-73664643D01*
X180815860Y-73809380D01*
X180727607Y-73974493D01*
X180727601Y-73974506D01*
X180673253Y-74153668D01*
X180673252Y-74153672D01*
X180654901Y-74340000D01*
X180025099Y-74340000D01*
X180006747Y-74153669D01*
X179952396Y-73974499D01*
X179864136Y-73809375D01*
X179745357Y-73664643D01*
X179600625Y-73545864D01*
X179600621Y-73545862D01*
X179600619Y-73545860D01*
X179477586Y-73480099D01*
X179435501Y-73457604D01*
X179435496Y-73457602D01*
X179435493Y-73457601D01*
X179256331Y-73403253D01*
X179256327Y-73403252D01*
X179070000Y-73384901D01*
X178883672Y-73403252D01*
X178883668Y-73403253D01*
X178704506Y-73457601D01*
X178704493Y-73457607D01*
X178539380Y-73545860D01*
X178394643Y-73664643D01*
X178275860Y-73809380D01*
X178187607Y-73974493D01*
X178187601Y-73974506D01*
X178133253Y-74153668D01*
X178133252Y-74153672D01*
X178114901Y-74340000D01*
X177485099Y-74340000D01*
X177466747Y-74153669D01*
X177412396Y-73974499D01*
X177324136Y-73809375D01*
X177205357Y-73664643D01*
X177060625Y-73545864D01*
X177060621Y-73545862D01*
X177060619Y-73545860D01*
X176937586Y-73480099D01*
X176895501Y-73457604D01*
X176895496Y-73457602D01*
X176895493Y-73457601D01*
X176716331Y-73403253D01*
X176716327Y-73403252D01*
X176530000Y-73384901D01*
X176343672Y-73403252D01*
X176343668Y-73403253D01*
X176164506Y-73457601D01*
X176164493Y-73457607D01*
X175999380Y-73545860D01*
X175854643Y-73664643D01*
X175735860Y-73809380D01*
X175647607Y-73974493D01*
X175647601Y-73974506D01*
X175593253Y-74153668D01*
X175593252Y-74153672D01*
X175574901Y-74340000D01*
X174945099Y-74340000D01*
X174926747Y-74153669D01*
X174872396Y-73974499D01*
X174784136Y-73809375D01*
X174665357Y-73664643D01*
X174520625Y-73545864D01*
X174520621Y-73545862D01*
X174520619Y-73545860D01*
X174397586Y-73480099D01*
X174355501Y-73457604D01*
X174355496Y-73457602D01*
X174355493Y-73457601D01*
X174176331Y-73403253D01*
X174176327Y-73403252D01*
X173990000Y-73384901D01*
X173803672Y-73403252D01*
X173803668Y-73403253D01*
X173624506Y-73457601D01*
X173624493Y-73457607D01*
X173459380Y-73545860D01*
X173314643Y-73664643D01*
X173195860Y-73809380D01*
X173107607Y-73974493D01*
X173107601Y-73974506D01*
X173053253Y-74153668D01*
X173053252Y-74153672D01*
X173034901Y-74340000D01*
X169865099Y-74340000D01*
X169846747Y-74153669D01*
X169792396Y-73974499D01*
X169704136Y-73809375D01*
X169585357Y-73664643D01*
X169440625Y-73545864D01*
X169440621Y-73545862D01*
X169440619Y-73545860D01*
X169317586Y-73480099D01*
X169275501Y-73457604D01*
X169275496Y-73457602D01*
X169275493Y-73457601D01*
X169096331Y-73403253D01*
X169096327Y-73403252D01*
X168910000Y-73384901D01*
X168723672Y-73403252D01*
X168723668Y-73403253D01*
X168544506Y-73457601D01*
X168544493Y-73457607D01*
X168379380Y-73545860D01*
X168234643Y-73664643D01*
X168115860Y-73809380D01*
X168027607Y-73974493D01*
X168027601Y-73974506D01*
X167973253Y-74153668D01*
X167973252Y-74153672D01*
X167954901Y-74340000D01*
X167325099Y-74340000D01*
X167306747Y-74153669D01*
X167252396Y-73974499D01*
X167164136Y-73809375D01*
X167045357Y-73664643D01*
X166900625Y-73545864D01*
X166900621Y-73545862D01*
X166900619Y-73545860D01*
X166777586Y-73480099D01*
X166735501Y-73457604D01*
X166735496Y-73457602D01*
X166735493Y-73457601D01*
X166556331Y-73403253D01*
X166556327Y-73403252D01*
X166370000Y-73384901D01*
X166183672Y-73403252D01*
X166183668Y-73403253D01*
X166004506Y-73457601D01*
X166004493Y-73457607D01*
X165839380Y-73545860D01*
X165694643Y-73664643D01*
X165575860Y-73809380D01*
X165487607Y-73974493D01*
X165487601Y-73974506D01*
X165433253Y-74153668D01*
X165433252Y-74153672D01*
X165414901Y-74340000D01*
X95086392Y-74340000D01*
X95018342Y-74271950D01*
X95018339Y-74271948D01*
X94905304Y-74214354D01*
X94780000Y-74194508D01*
X94654695Y-74214354D01*
X94541660Y-74271948D01*
X94451948Y-74361660D01*
X94394354Y-74474695D01*
X94374508Y-74600000D01*
X94394354Y-74725304D01*
X94426053Y-74787517D01*
X94426753Y-74796406D01*
X94420962Y-74803186D01*
X94412073Y-74803886D01*
X94407437Y-74801045D01*
X94358342Y-74751950D01*
X94358339Y-74751948D01*
X94245304Y-74694354D01*
X94120000Y-74674508D01*
X93994695Y-74694354D01*
X93881660Y-74751948D01*
X93791948Y-74841660D01*
X93734354Y-74954695D01*
X93714508Y-75080000D01*
X91116392Y-75080000D01*
X91168050Y-75028342D01*
X91225646Y-74915304D01*
X91245492Y-74790000D01*
X91225646Y-74664696D01*
X91168050Y-74551658D01*
X91078342Y-74461950D01*
X91078339Y-74461948D01*
X90965304Y-74404354D01*
X90840000Y-74384508D01*
X90714695Y-74404354D01*
X90601660Y-74461948D01*
X90511948Y-74551660D01*
X90454354Y-74664695D01*
X90434508Y-74790000D01*
X84411006Y-74790000D01*
X84409515Y-74782505D01*
X84348624Y-74691376D01*
X84257495Y-74630485D01*
X84150000Y-74609103D01*
X84042505Y-74630485D01*
X83951377Y-74691375D01*
X83951375Y-74691377D01*
X83890485Y-74782505D01*
X83870705Y-74881948D01*
X83869103Y-74890000D01*
X57000000Y-74890000D01*
X57000000Y-71585261D01*
X59149500Y-71585261D01*
X59149500Y-71814738D01*
X59179449Y-72042225D01*
X59179453Y-72042245D01*
X59238842Y-72263886D01*
X59238843Y-72263891D01*
X59326656Y-72475889D01*
X59425732Y-72647494D01*
X59441389Y-72674612D01*
X59581081Y-72856661D01*
X59743339Y-73018919D01*
X59925388Y-73158611D01*
X60124112Y-73273344D01*
X60336113Y-73361158D01*
X60529928Y-73413090D01*
X60557754Y-73420546D01*
X60557756Y-73420546D01*
X60557762Y-73420548D01*
X60557767Y-73420548D01*
X60557774Y-73420550D01*
X60683224Y-73437065D01*
X60785266Y-73450500D01*
X60785267Y-73450500D01*
X61014733Y-73450500D01*
X61014734Y-73450500D01*
X61156085Y-73431890D01*
X61242225Y-73420550D01*
X61242229Y-73420549D01*
X61242238Y-73420548D01*
X61463887Y-73361158D01*
X61675888Y-73273344D01*
X61874612Y-73158611D01*
X61977059Y-73080000D01*
X121569103Y-73080000D01*
X121590485Y-73187495D01*
X121651376Y-73278624D01*
X121742505Y-73339515D01*
X121850000Y-73360897D01*
X121957495Y-73339515D01*
X122048624Y-73278624D01*
X122109515Y-73187495D01*
X122130897Y-73080000D01*
X122109515Y-72972505D01*
X122048624Y-72881376D01*
X121957495Y-72820485D01*
X121850000Y-72799103D01*
X121742505Y-72820485D01*
X121651377Y-72881375D01*
X121651375Y-72881377D01*
X121590485Y-72972505D01*
X121581253Y-73018920D01*
X121569103Y-73080000D01*
X61977059Y-73080000D01*
X62056661Y-73018919D01*
X62218919Y-72856661D01*
X62358611Y-72674612D01*
X62413235Y-72580000D01*
X88074508Y-72580000D01*
X88094354Y-72705304D01*
X88142356Y-72799514D01*
X88151950Y-72818342D01*
X88241658Y-72908050D01*
X88354696Y-72965646D01*
X88480000Y-72985492D01*
X88605304Y-72965646D01*
X88718342Y-72908050D01*
X88808050Y-72818342D01*
X88865646Y-72705304D01*
X88883908Y-72590000D01*
X90759103Y-72590000D01*
X90780485Y-72697495D01*
X90841376Y-72788624D01*
X90932505Y-72849515D01*
X91040000Y-72870897D01*
X91147495Y-72849515D01*
X91238624Y-72788624D01*
X91299515Y-72697495D01*
X91316919Y-72610000D01*
X91849103Y-72610000D01*
X91870485Y-72717495D01*
X91931376Y-72808624D01*
X92022505Y-72869515D01*
X92130000Y-72890897D01*
X92237495Y-72869515D01*
X92328624Y-72808624D01*
X92389515Y-72717495D01*
X92404930Y-72640000D01*
X93029103Y-72640000D01*
X93050485Y-72747495D01*
X93111376Y-72838624D01*
X93202505Y-72899515D01*
X93310000Y-72920897D01*
X93417495Y-72899515D01*
X93508624Y-72838624D01*
X93569515Y-72747495D01*
X93590897Y-72640000D01*
X93571006Y-72540000D01*
X178689103Y-72540000D01*
X178710485Y-72647495D01*
X178771376Y-72738624D01*
X178862505Y-72799515D01*
X178970000Y-72820897D01*
X179077495Y-72799515D01*
X179168624Y-72738624D01*
X179229515Y-72647495D01*
X179250897Y-72540000D01*
X179229515Y-72432505D01*
X179168624Y-72341376D01*
X179077495Y-72280485D01*
X178970000Y-72259103D01*
X178862505Y-72280485D01*
X178771377Y-72341375D01*
X178771375Y-72341377D01*
X178750609Y-72372455D01*
X178710485Y-72432505D01*
X178689103Y-72540000D01*
X93571006Y-72540000D01*
X93569515Y-72532505D01*
X93508624Y-72441376D01*
X93417495Y-72380485D01*
X93310000Y-72359103D01*
X93202505Y-72380485D01*
X93111377Y-72441375D01*
X93111375Y-72441377D01*
X93050485Y-72532505D01*
X93035071Y-72609999D01*
X93029103Y-72640000D01*
X92404930Y-72640000D01*
X92410897Y-72610000D01*
X92389515Y-72502505D01*
X92328624Y-72411376D01*
X92237495Y-72350485D01*
X92130000Y-72329103D01*
X92022505Y-72350485D01*
X91931377Y-72411375D01*
X91931375Y-72411377D01*
X91902161Y-72455099D01*
X91870485Y-72502505D01*
X91849103Y-72610000D01*
X91316919Y-72610000D01*
X91320897Y-72590000D01*
X91299515Y-72482505D01*
X91238624Y-72391376D01*
X91147495Y-72330485D01*
X91040000Y-72309103D01*
X90932505Y-72330485D01*
X90841377Y-72391375D01*
X90841375Y-72391377D01*
X90780485Y-72482505D01*
X90769049Y-72540000D01*
X90759103Y-72590000D01*
X88883908Y-72590000D01*
X88885492Y-72580000D01*
X88865646Y-72454696D01*
X88808050Y-72341658D01*
X88718342Y-72251950D01*
X88718339Y-72251948D01*
X88605304Y-72194354D01*
X88480000Y-72174508D01*
X88354695Y-72194354D01*
X88241660Y-72251948D01*
X88151948Y-72341660D01*
X88094354Y-72454695D01*
X88074508Y-72580000D01*
X62413235Y-72580000D01*
X62473344Y-72475888D01*
X62561158Y-72263887D01*
X62620548Y-72042238D01*
X62650500Y-71814734D01*
X62650500Y-71760000D01*
X99004508Y-71760000D01*
X99024354Y-71885304D01*
X99079679Y-71993886D01*
X99081950Y-71998342D01*
X99171658Y-72088050D01*
X99284696Y-72145646D01*
X99410000Y-72165492D01*
X99535304Y-72145646D01*
X99648342Y-72088050D01*
X99738050Y-71998342D01*
X99795646Y-71885304D01*
X99815492Y-71760000D01*
X99795646Y-71634696D01*
X99738050Y-71521658D01*
X99648342Y-71431950D01*
X99648339Y-71431948D01*
X99535304Y-71374354D01*
X99410000Y-71354508D01*
X99284695Y-71374354D01*
X99171660Y-71431948D01*
X99081948Y-71521660D01*
X99024354Y-71634695D01*
X99004508Y-71760000D01*
X62650500Y-71760000D01*
X62650500Y-71585266D01*
X62630315Y-71431948D01*
X62620550Y-71357774D01*
X62620546Y-71357754D01*
X62608733Y-71313668D01*
X62561158Y-71136113D01*
X62560489Y-71134499D01*
X62492095Y-70969380D01*
X62473344Y-70924112D01*
X62439855Y-70866108D01*
X62358612Y-70725390D01*
X62358611Y-70725388D01*
X62343630Y-70705864D01*
X62293166Y-70640099D01*
X124344500Y-70640099D01*
X124344500Y-72359899D01*
X124348595Y-72380485D01*
X124350331Y-72389213D01*
X124372543Y-72422457D01*
X124405787Y-72444669D01*
X124435101Y-72450500D01*
X126154898Y-72450499D01*
X126154899Y-72450499D01*
X126159069Y-72449669D01*
X126184213Y-72444669D01*
X126217457Y-72422457D01*
X126239669Y-72389213D01*
X126245500Y-72359899D01*
X126245499Y-71500000D01*
X126879901Y-71500000D01*
X126898252Y-71686327D01*
X126898253Y-71686331D01*
X126952601Y-71865493D01*
X126952602Y-71865496D01*
X126952604Y-71865501D01*
X126952607Y-71865506D01*
X127040860Y-72030619D01*
X127040862Y-72030621D01*
X127040864Y-72030625D01*
X127159643Y-72175357D01*
X127304375Y-72294136D01*
X127304378Y-72294138D01*
X127304380Y-72294139D01*
X127352637Y-72319932D01*
X127469499Y-72382396D01*
X127648669Y-72436747D01*
X127835000Y-72455099D01*
X128021331Y-72436747D01*
X128200501Y-72382396D01*
X128365625Y-72294136D01*
X128510357Y-72175357D01*
X128629136Y-72030625D01*
X128717396Y-71865501D01*
X128771747Y-71686331D01*
X128790099Y-71500000D01*
X128771747Y-71313669D01*
X128717396Y-71134499D01*
X128629136Y-70969375D01*
X128510357Y-70824643D01*
X128365625Y-70705864D01*
X128365621Y-70705862D01*
X128365619Y-70705860D01*
X128242586Y-70640099D01*
X128200501Y-70617604D01*
X128200496Y-70617602D01*
X128200493Y-70617601D01*
X128109831Y-70590099D01*
X149204500Y-70590099D01*
X149204500Y-72309899D01*
X149208320Y-72329103D01*
X149210331Y-72339213D01*
X149232543Y-72372457D01*
X149265787Y-72394669D01*
X149295101Y-72400500D01*
X151014898Y-72400499D01*
X151014899Y-72400499D01*
X151019069Y-72399669D01*
X151044213Y-72394669D01*
X151077457Y-72372457D01*
X151099669Y-72339213D01*
X151105500Y-72309899D01*
X151105499Y-71315261D01*
X191509500Y-71315261D01*
X191509500Y-71544738D01*
X191539449Y-71772225D01*
X191539453Y-71772245D01*
X191598842Y-71993886D01*
X191598843Y-71993891D01*
X191686656Y-72205889D01*
X191801387Y-72404609D01*
X191801388Y-72404611D01*
X191840129Y-72455099D01*
X191941081Y-72586661D01*
X192103339Y-72748919D01*
X192285388Y-72888611D01*
X192319059Y-72908051D01*
X192453189Y-72985491D01*
X192484112Y-73003344D01*
X192696113Y-73091158D01*
X192889928Y-73143090D01*
X192917754Y-73150546D01*
X192917756Y-73150546D01*
X192917762Y-73150548D01*
X192917767Y-73150548D01*
X192917774Y-73150550D01*
X193043224Y-73167065D01*
X193145266Y-73180500D01*
X193145267Y-73180500D01*
X193374733Y-73180500D01*
X193374734Y-73180500D01*
X193516085Y-73161890D01*
X193602225Y-73150550D01*
X193602229Y-73150549D01*
X193602238Y-73150548D01*
X193823887Y-73091158D01*
X194035888Y-73003344D01*
X194234612Y-72888611D01*
X194416661Y-72748919D01*
X194578919Y-72586661D01*
X194718611Y-72404612D01*
X194833344Y-72205888D01*
X194921158Y-71993887D01*
X194980548Y-71772238D01*
X195010500Y-71544734D01*
X195010500Y-71315266D01*
X194986701Y-71134499D01*
X194980550Y-71087774D01*
X194980546Y-71087754D01*
X194948828Y-70969380D01*
X194921158Y-70866113D01*
X194833344Y-70654112D01*
X194812264Y-70617601D01*
X194760269Y-70527542D01*
X194718611Y-70455388D01*
X194578919Y-70273339D01*
X194416661Y-70111081D01*
X194234612Y-69971389D01*
X194234613Y-69971389D01*
X194234611Y-69971388D01*
X194234609Y-69971387D01*
X194035889Y-69856656D01*
X193823891Y-69768843D01*
X193823887Y-69768842D01*
X193771953Y-69754926D01*
X193602245Y-69709453D01*
X193602225Y-69709449D01*
X193374738Y-69679500D01*
X193374734Y-69679500D01*
X193145266Y-69679500D01*
X193145261Y-69679500D01*
X192917774Y-69709449D01*
X192917754Y-69709453D01*
X192696113Y-69768842D01*
X192696108Y-69768843D01*
X192484110Y-69856656D01*
X192285390Y-69971387D01*
X192285388Y-69971388D01*
X192103341Y-70111079D01*
X191941079Y-70273341D01*
X191801388Y-70455388D01*
X191801387Y-70455390D01*
X191686656Y-70654110D01*
X191598843Y-70866108D01*
X191598842Y-70866113D01*
X191539453Y-71087754D01*
X191539449Y-71087774D01*
X191509500Y-71315261D01*
X151105499Y-71315261D01*
X151105499Y-70590102D01*
X151105498Y-70590099D01*
X151103839Y-70581758D01*
X151099669Y-70560787D01*
X151077457Y-70527543D01*
X151044213Y-70505331D01*
X151029556Y-70502415D01*
X151014900Y-70499500D01*
X149295100Y-70499500D01*
X149265787Y-70505331D01*
X149232544Y-70527542D01*
X149232542Y-70527544D01*
X149210331Y-70560787D01*
X149204500Y-70590099D01*
X128109831Y-70590099D01*
X128021331Y-70563253D01*
X128021327Y-70563252D01*
X127835000Y-70544901D01*
X127648672Y-70563252D01*
X127648668Y-70563253D01*
X127469506Y-70617601D01*
X127469493Y-70617607D01*
X127304380Y-70705860D01*
X127159643Y-70824643D01*
X127040860Y-70969380D01*
X126952607Y-71134493D01*
X126952601Y-71134506D01*
X126898253Y-71313668D01*
X126898252Y-71313672D01*
X126879901Y-71500000D01*
X126245499Y-71500000D01*
X126245499Y-70640102D01*
X126245498Y-70640099D01*
X126241025Y-70617607D01*
X126239669Y-70610787D01*
X126217457Y-70577543D01*
X126184213Y-70555331D01*
X126169556Y-70552415D01*
X126154900Y-70549500D01*
X124435100Y-70549500D01*
X124405787Y-70555331D01*
X124372544Y-70577542D01*
X124372542Y-70577544D01*
X124350331Y-70610787D01*
X124344500Y-70640099D01*
X62293166Y-70640099D01*
X62218919Y-70543339D01*
X62056661Y-70381081D01*
X61953831Y-70302176D01*
X61874611Y-70241388D01*
X61874609Y-70241387D01*
X61675889Y-70126656D01*
X61463891Y-70038843D01*
X61463887Y-70038842D01*
X61411953Y-70024926D01*
X61242245Y-69979453D01*
X61242225Y-69979449D01*
X61014738Y-69949500D01*
X61014734Y-69949500D01*
X60785266Y-69949500D01*
X60785261Y-69949500D01*
X60557774Y-69979449D01*
X60557754Y-69979453D01*
X60336113Y-70038842D01*
X60336108Y-70038843D01*
X60124110Y-70126656D01*
X59925390Y-70241387D01*
X59925388Y-70241388D01*
X59743341Y-70381079D01*
X59581079Y-70543341D01*
X59441388Y-70725388D01*
X59441387Y-70725390D01*
X59326656Y-70924110D01*
X59238843Y-71136108D01*
X59238842Y-71136113D01*
X59179453Y-71357754D01*
X59179449Y-71357774D01*
X59149500Y-71585261D01*
X57000000Y-71585261D01*
X57000000Y-68011650D01*
X57003412Y-68003412D01*
X57011650Y-68000000D01*
X196988350Y-68000000D01*
X196996588Y-68003412D01*
G37*
%TD.AperFunction*%
%TD*%
M02*
