%TF.GenerationSoftware,KiCad,Pcbnew,8.0.6*%
%TF.CreationDate,2025-02-07T14:21:58-05:00*%
%TF.ProjectId,SCAN,5343414e-2e6b-4696-9361-645f70636258,v1.0*%
%TF.SameCoordinates,Original*%
%TF.FileFunction,Paste,Bot*%
%TF.FilePolarity,Positive*%
%FSLAX46Y46*%
G04 Gerber Fmt 4.6, Leading zero omitted, Abs format (unit mm)*
G04 Created by KiCad (PCBNEW 8.0.6) date 2025-02-07 14:21:58*
%MOMM*%
%LPD*%
G01*
G04 APERTURE LIST*
G04 Aperture macros list*
%AMRoundRect*
0 Rectangle with rounded corners*
0 $1 Rounding radius*
0 $2 $3 $4 $5 $6 $7 $8 $9 X,Y pos of 4 corners*
0 Add a 4 corners polygon primitive as box body*
4,1,4,$2,$3,$4,$5,$6,$7,$8,$9,$2,$3,0*
0 Add four circle primitives for the rounded corners*
1,1,$1+$1,$2,$3*
1,1,$1+$1,$4,$5*
1,1,$1+$1,$6,$7*
1,1,$1+$1,$8,$9*
0 Add four rect primitives between the rounded corners*
20,1,$1+$1,$2,$3,$4,$5,0*
20,1,$1+$1,$4,$5,$6,$7,0*
20,1,$1+$1,$6,$7,$8,$9,0*
20,1,$1+$1,$8,$9,$2,$3,0*%
G04 Aperture macros list end*
%ADD10C,0.000000*%
%ADD11R,0.228600X0.304800*%
%ADD12RoundRect,0.135000X-0.185000X0.135000X-0.185000X-0.135000X0.185000X-0.135000X0.185000X0.135000X0*%
%ADD13R,0.800100X0.508000*%
%ADD14RoundRect,0.200000X-0.200000X-0.275000X0.200000X-0.275000X0.200000X0.275000X-0.200000X0.275000X0*%
%ADD15RoundRect,0.200000X0.275000X-0.200000X0.275000X0.200000X-0.275000X0.200000X-0.275000X-0.200000X0*%
%ADD16RoundRect,0.135000X0.185000X-0.135000X0.185000X0.135000X-0.185000X0.135000X-0.185000X-0.135000X0*%
%ADD17RoundRect,0.250000X0.475000X-0.250000X0.475000X0.250000X-0.475000X0.250000X-0.475000X-0.250000X0*%
%ADD18RoundRect,0.200000X-0.275000X0.200000X-0.275000X-0.200000X0.275000X-0.200000X0.275000X0.200000X0*%
%ADD19RoundRect,0.140000X-0.170000X0.140000X-0.170000X-0.140000X0.170000X-0.140000X0.170000X0.140000X0*%
%ADD20RoundRect,0.225000X0.225000X0.250000X-0.225000X0.250000X-0.225000X-0.250000X0.225000X-0.250000X0*%
%ADD21RoundRect,0.250000X1.025000X-0.787500X1.025000X0.787500X-1.025000X0.787500X-1.025000X-0.787500X0*%
%ADD22RoundRect,0.200000X0.200000X0.275000X-0.200000X0.275000X-0.200000X-0.275000X0.200000X-0.275000X0*%
%ADD23RoundRect,0.140000X0.170000X-0.140000X0.170000X0.140000X-0.170000X0.140000X-0.170000X-0.140000X0*%
%ADD24RoundRect,0.243750X0.243750X0.456250X-0.243750X0.456250X-0.243750X-0.456250X0.243750X-0.456250X0*%
%ADD25RoundRect,0.250000X-0.787500X-1.025000X0.787500X-1.025000X0.787500X1.025000X-0.787500X1.025000X0*%
%ADD26RoundRect,0.135000X-0.135000X-0.185000X0.135000X-0.185000X0.135000X0.185000X-0.135000X0.185000X0*%
%ADD27RoundRect,0.250000X-0.450000X0.262500X-0.450000X-0.262500X0.450000X-0.262500X0.450000X0.262500X0*%
%ADD28R,0.820000X0.760000*%
G04 APERTURE END LIST*
D10*
%TO.C,U3*%
G36*
X65614430Y-91995970D02*
G01*
X65623884Y-91998838D01*
X65632599Y-92003496D01*
X65640237Y-92009762D01*
X65646503Y-92017400D01*
X65651161Y-92026115D01*
X65654029Y-92035569D01*
X65654999Y-92045401D01*
X65654999Y-92154601D01*
X65654029Y-92164433D01*
X65651161Y-92173887D01*
X65646503Y-92182602D01*
X65640237Y-92190240D01*
X65632599Y-92196506D01*
X65623884Y-92201164D01*
X65614430Y-92204032D01*
X65604598Y-92205002D01*
X65495398Y-92205002D01*
X65485566Y-92204032D01*
X65476112Y-92201164D01*
X65467397Y-92196506D01*
X65459759Y-92190240D01*
X65453493Y-92182602D01*
X65448835Y-92173887D01*
X65445967Y-92164433D01*
X65444999Y-92154601D01*
X65444999Y-92045401D01*
X65445967Y-92035569D01*
X65448835Y-92026115D01*
X65453493Y-92017400D01*
X65459759Y-92009762D01*
X65467397Y-92003496D01*
X65476112Y-91998838D01*
X65485566Y-91995970D01*
X65495398Y-91995002D01*
X65604598Y-91995002D01*
X65614430Y-91995970D01*
G37*
G36*
X65614430Y-92995968D02*
G01*
X65623884Y-92998836D01*
X65632599Y-93003494D01*
X65640237Y-93009760D01*
X65646503Y-93017398D01*
X65651161Y-93026113D01*
X65654029Y-93035567D01*
X65654999Y-93045399D01*
X65654999Y-93154599D01*
X65654029Y-93164431D01*
X65651161Y-93173885D01*
X65646503Y-93182600D01*
X65640237Y-93190238D01*
X65632599Y-93196504D01*
X65623884Y-93201162D01*
X65614430Y-93204030D01*
X65604598Y-93204998D01*
X65495398Y-93204998D01*
X65485566Y-93204030D01*
X65476112Y-93201162D01*
X65467397Y-93196504D01*
X65459759Y-93190238D01*
X65453493Y-93182600D01*
X65448835Y-93173885D01*
X65445967Y-93164431D01*
X65444999Y-93154599D01*
X65444999Y-93045399D01*
X65445967Y-93035567D01*
X65448835Y-93026113D01*
X65453493Y-93017398D01*
X65459759Y-93009760D01*
X65467397Y-93003494D01*
X65476112Y-92998836D01*
X65485566Y-92995968D01*
X65495398Y-92994998D01*
X65604598Y-92994998D01*
X65614430Y-92995968D01*
G37*
G36*
X65864432Y-92495969D02*
G01*
X65873886Y-92498837D01*
X65882601Y-92503495D01*
X65890239Y-92509761D01*
X65896505Y-92517399D01*
X65901163Y-92526114D01*
X65904031Y-92535568D01*
X65904999Y-92545400D01*
X65904999Y-92654600D01*
X65904031Y-92664432D01*
X65901163Y-92673886D01*
X65896505Y-92682601D01*
X65890239Y-92690239D01*
X65882601Y-92696505D01*
X65873886Y-92701163D01*
X65864432Y-92704031D01*
X65854600Y-92704999D01*
X65745400Y-92704999D01*
X65735568Y-92704031D01*
X65726114Y-92701163D01*
X65717399Y-92696505D01*
X65709761Y-92690239D01*
X65703495Y-92682601D01*
X65698837Y-92673886D01*
X65695969Y-92664432D01*
X65694999Y-92654600D01*
X65694999Y-92545400D01*
X65695969Y-92535568D01*
X65698837Y-92526114D01*
X65703495Y-92517399D01*
X65709761Y-92509761D01*
X65717399Y-92503495D01*
X65726114Y-92498837D01*
X65735568Y-92495969D01*
X65745400Y-92495001D01*
X65854600Y-92495001D01*
X65864432Y-92495969D01*
G37*
%TD*%
D11*
%TO.C,D1*%
X59335600Y-92990000D03*
X58980000Y-92990000D03*
%TD*%
D12*
%TO.C,R55*%
X77110000Y-88120000D03*
X77110000Y-89140000D03*
%TD*%
D13*
%TO.C,Q9*%
X76111900Y-99789998D03*
X76111900Y-100739999D03*
X76111900Y-101690000D03*
X73610000Y-101690000D03*
X73610000Y-100739999D03*
X73610000Y-99789998D03*
%TD*%
D14*
%TO.C,R22*%
X115547500Y-110420000D03*
X117197500Y-110420000D03*
%TD*%
D11*
%TO.C,D2*%
X61510000Y-89610000D03*
X61154400Y-89610000D03*
%TD*%
D12*
%TO.C,R54*%
X75640000Y-88080000D03*
X75640000Y-89100000D03*
%TD*%
D15*
%TO.C,R45*%
X84544444Y-96990000D03*
X84544444Y-95340000D03*
%TD*%
D16*
%TO.C,R53*%
X79310000Y-98610000D03*
X79310000Y-97590000D03*
%TD*%
D17*
%TO.C,C34*%
X111682500Y-98470000D03*
X111682500Y-96570000D03*
%TD*%
%TO.C,C32*%
X121602501Y-98989999D03*
X121602501Y-97089999D03*
%TD*%
D18*
%TO.C,R46*%
X82886666Y-95340000D03*
X82886666Y-96990000D03*
%TD*%
D16*
%TO.C,R18*%
X100612500Y-97490000D03*
X100612500Y-96470000D03*
%TD*%
%TO.C,R19*%
X100500000Y-109879999D03*
X100500000Y-108859999D03*
%TD*%
D18*
%TO.C,R48*%
X86202222Y-95340000D03*
X86202222Y-96990000D03*
%TD*%
D19*
%TO.C,C12*%
X114802500Y-106030000D03*
X114802500Y-106990000D03*
%TD*%
D20*
%TO.C,C47*%
X61430000Y-94340000D03*
X59880000Y-94340000D03*
%TD*%
D17*
%TO.C,C36*%
X109452500Y-98470000D03*
X109452500Y-96570000D03*
%TD*%
D21*
%TO.C,C39*%
X130002500Y-98989999D03*
X130002500Y-92764999D03*
%TD*%
D17*
%TO.C,C37*%
X126102501Y-98989999D03*
X126102501Y-97089999D03*
%TD*%
%TO.C,C35*%
X123852501Y-98989999D03*
X123852501Y-97089999D03*
%TD*%
D12*
%TO.C,R40*%
X62110000Y-100730000D03*
X62110000Y-101750000D03*
%TD*%
D22*
%TO.C,R23*%
X117197500Y-112010000D03*
X115547500Y-112010000D03*
%TD*%
D23*
%TO.C,C14*%
X101500000Y-109829999D03*
X101500000Y-108869999D03*
%TD*%
D15*
%TO.C,R47*%
X87860000Y-96990000D03*
X87860000Y-95340000D03*
%TD*%
D24*
%TO.C,D13*%
X112400000Y-101190000D03*
X110525000Y-101190000D03*
%TD*%
D23*
%TO.C,C44*%
X78130000Y-95270000D03*
X78130000Y-94310000D03*
%TD*%
D19*
%TO.C,C15*%
X113792500Y-106040000D03*
X113792500Y-107000000D03*
%TD*%
D18*
%TO.C,R28*%
X122472500Y-105615000D03*
X122472500Y-107265000D03*
%TD*%
D23*
%TO.C,C20*%
X119282500Y-102550000D03*
X119282500Y-101590000D03*
%TD*%
D25*
%TO.C,C38*%
X105170000Y-91680000D03*
X111395000Y-91680000D03*
%TD*%
D14*
%TO.C,R26*%
X115552500Y-108830000D03*
X117202500Y-108830000D03*
%TD*%
D20*
%TO.C,C48*%
X61515000Y-90910000D03*
X59965000Y-90910000D03*
%TD*%
D23*
%TO.C,C19*%
X115502500Y-102369999D03*
X115502500Y-101409999D03*
%TD*%
D14*
%TO.C,R25*%
X105257500Y-107800000D03*
X106907500Y-107800000D03*
%TD*%
D26*
%TO.C,R52*%
X76710000Y-98620000D03*
X77730000Y-98620000D03*
%TD*%
D23*
%TO.C,C45*%
X77010000Y-95270000D03*
X77010000Y-94310000D03*
%TD*%
%TO.C,C13*%
X101612500Y-97440000D03*
X101612500Y-96480000D03*
%TD*%
D27*
%TO.C,R56*%
X74740000Y-103227500D03*
X74740000Y-105052500D03*
%TD*%
D28*
%TO.C,D15*%
X66570000Y-102910000D03*
X63370000Y-102910000D03*
%TD*%
D16*
%TO.C,R27*%
X110542500Y-104290000D03*
X110542500Y-103270000D03*
%TD*%
D18*
%TO.C,R24*%
X100322500Y-99995000D03*
X100322500Y-101645000D03*
%TD*%
M02*
