M48
; DRILL file {KiCad 8.0.6} date 2025-02-07T14:22:08-0500
; FORMAT={-:-/ absolute / metric / decimal}
; #@! TF.CreationDate,2025-02-07T14:22:08-05:00
; #@! TF.GenerationSoftware,Kicad,Pcbnew,8.0.6
; #@! TF.FileFunction,Plated,1,4,PTH
FMAT,2
METRIC
; #@! TA.AperFunction,Plated,PTH,ViaDrill
T1C0.200
; #@! TA.AperFunction,Plated,PTH,ViaDrill
T2C0.250
; #@! TA.AperFunction,Plated,PTH,ViaDrill
T3C0.300
; #@! TA.AperFunction,Plated,PTH,ViaDrill
T4C0.500
; #@! TA.AperFunction,Plated,PTH,ComponentDrill
T5C0.780
; #@! TA.AperFunction,Plated,PTH,ComponentDrill
T6C1.000
; #@! TA.AperFunction,Plated,PTH,ComponentDrill
T7C1.400
%
G90
G05
T1
X58.2Y-92.99
X60.97Y-88.87
X61.03Y-102.73
X62.12Y-100.08
X62.5Y-93.38
X62.58Y-91.35
X62.58Y-94.38
X64.94Y-91.87
X65.03Y-92.61
X66.32Y-85.75
X66.36Y-86.49
X66.56Y-101.98
X68.43Y-78.44
X69.35Y-91.0
X70.07Y-76.74
X71.43Y-87.47
X75.39Y-80.41
X75.59Y-90.21
X75.66Y-82.72
X76.74Y-79.17
X77.34Y-90.17
X80.45Y-79.41
X81.55Y-77.81
X81.83Y-78.44
X82.49Y-79.64
X83.98Y-79.38
X84.15Y-74.89
X85.33Y-76.03
X91.04Y-72.59
X92.13Y-72.61
X93.31Y-72.64
X103.152Y-96.49
X103.152Y-97.43
X114.532Y-102.09
X114.582Y-100.44
X114.612Y-104.82
X115.302Y-105.28
X116.453Y-102.11
X116.483Y-101.69
X116.902Y-102.11
X116.953Y-101.68
X117.852Y-101.68
X117.912Y-102.11
X118.322Y-101.67
X118.382Y-102.09
X118.453Y-102.78
X120.012Y-102.35
X120.012Y-103.86
X120.042Y-102.96
X121.85Y-73.08
X160.9Y-85.57
X163.69Y-77.83
X175.69Y-78.28
X178.97Y-72.54
X179.2Y-84.92
X179.44Y-105.1
X179.5Y-86.9
X179.59Y-108.24
X179.8Y-110.34
X180.31Y-112.0
X180.69Y-87.43
X180.75Y-106.6
X182.05Y-86.03
X183.26Y-102.26
X183.27Y-105.18
X183.52Y-86.57
X184.2Y-77.98
X184.65Y-108.07
X185.72Y-108.53
X186.47Y-83.76
X186.97Y-111.03
X188.42Y-86.66
X189.64Y-106.6
X189.81Y-109.6
X193.25Y-91.17
X193.45Y-89.1
T2
X81.91Y-93.04
X84.53Y-90.95
X87.84Y-90.87
T3
X58.73Y-94.35
X59.97Y-91.97
X60.83Y-100.83
X60.93Y-99.63
X61.22Y-95.93
X61.22Y-97.93
X65.38Y-96.86
X65.38Y-98.1
X65.59Y-99.24
X66.77Y-99.24
X66.97Y-96.86
X66.97Y-98.1
X73.13Y-76.05
X73.15Y-78.03
X75.49Y-96.75
X75.95Y-95.93
X76.19Y-91.94
X76.19Y-93.01
X76.19Y-94.02
X77.075Y-96.12
X77.96Y-96.05
X78.84Y-88.412
X80.21Y-97.07
X81.05Y-96.51
X82.89Y-98.0
X83.86Y-86.49
X84.8Y-85.38
X85.3Y-98.83
X86.202Y-98.0
X86.74Y-72.59
X87.24Y-83.13
X87.71Y-85.33
X88.36Y-83.54
X88.48Y-72.58
X88.74Y-82.87
X89.36Y-81.12
X89.36Y-82.29
X89.37Y-77.09
X89.4Y-79.85
X89.42Y-78.33
X89.5Y-75.47
X89.89Y-72.6
X89.89Y-79.12
X89.92Y-77.62
X89.95Y-76.29
X89.96Y-80.43
X89.97Y-81.81
X90.84Y-74.79
X91.01Y-87.38
X91.03Y-84.49
X91.03Y-88.06
X91.05Y-88.72
X91.26Y-86.72
X91.86Y-84.57
X91.89Y-87.3
X91.92Y-88.78
X92.51Y-80.56
X92.52Y-78.51
X92.52Y-79.52
X92.53Y-76.15
X92.549Y-86.679
X92.55Y-77.25
X92.59Y-81.62
X92.7Y-84.62
X92.73Y-85.41
X92.74Y-88.83
X92.75Y-86.07
X93.01Y-75.52
X93.04Y-77.88
X93.04Y-79.01
X93.04Y-80.0
X93.05Y-81.0
X93.06Y-76.64
X93.51Y-88.85
X93.53Y-84.54
X93.64Y-87.43
X94.06Y-72.63
X94.12Y-75.08
X94.19Y-86.73
X94.29Y-88.79
X94.41Y-84.5
X94.54Y-88.15
X94.65Y-87.49
X94.78Y-74.6
X95.52Y-75.21
X95.64Y-78.58
X95.67Y-76.14
X95.68Y-77.28
X95.68Y-80.94
X95.72Y-79.79
X95.76Y-82.3
X96.07Y-76.73
X96.12Y-75.51
X96.16Y-81.63
X96.17Y-79.13
X96.18Y-77.91
X96.19Y-80.35
X96.6Y-82.65
X97.14Y-83.23
X97.742Y-98.25
X97.89Y-85.37
X98.05Y-83.7
X98.74Y-83.17
X99.41Y-71.76
X101.05Y-85.39
X101.83Y-86.61
X103.703Y-107.8
X109.962Y-105.21
X112.462Y-105.22
X113.542Y-111.02
X113.562Y-107.91
X114.072Y-109.12
X114.483Y-107.83
X116.532Y-95.28
X116.532Y-95.925
X116.532Y-96.57
X116.632Y-106.16
X116.742Y-103.4
X117.233Y-98.55
X117.332Y-103.66
X117.392Y-102.85
X117.593Y-97.76
X117.843Y-103.28
X117.932Y-98.56
X118.782Y-95.28
X118.782Y-95.925
X118.782Y-96.57
X121.662Y-107.29
X122.472Y-104.52
X132.76Y-71.51
X155.21Y-71.51
X163.34Y-94.06
X165.81Y-93.95
X169.22Y-117.8
X170.93Y-94.76
X171.43Y-76.3
X173.46Y-114.21
X173.96Y-76.28
X175.54Y-108.05
X182.37Y-114.21
X189.68Y-87.55
X189.72Y-79.79
X194.38Y-85.23
X194.94Y-84.45
X195.36Y-85.31
X195.99Y-86.94
T4
X133.27Y-117.962
X140.41Y-113.032
X144.79Y-117.942
X151.86Y-113.042
X156.38Y-117.83
X163.21Y-112.922
T5
X151.82Y-93.95
X151.82Y-101.89
X154.36Y-93.95
X154.36Y-101.89
X156.9Y-93.95
X156.9Y-101.89
X159.44Y-93.95
X159.44Y-101.89
X161.98Y-93.95
X161.98Y-101.89
X164.52Y-93.95
X164.52Y-101.89
X167.06Y-93.95
X167.06Y-101.89
X169.6Y-93.95
X169.6Y-101.89
T6
X125.295Y-71.5
X127.835Y-71.5
X130.375Y-71.5
X144.92Y-89.085
X144.92Y-91.625
X144.92Y-94.165
X144.92Y-96.705
X144.92Y-99.245
X144.92Y-101.785
X144.92Y-104.325
X144.92Y-106.865
X150.155Y-71.45
X152.695Y-71.45
X166.37Y-74.34
X168.91Y-74.34
X171.45Y-74.34
X173.99Y-74.34
X176.53Y-74.34
X179.07Y-74.34
X181.61Y-74.34
X184.15Y-74.34
T7
X79.123Y-114.85
X84.123Y-114.85
X107.733Y-117.19
X112.733Y-117.19
M30
