%TF.GenerationSoftware,KiCad,Pcbnew,8.0.6*%
%TF.CreationDate,2025-02-07T14:21:58-05:00*%
%TF.ProjectId,SCAN,5343414e-2e6b-4696-9361-645f70636258,v1.0*%
%TF.SameCoordinates,Original*%
%TF.FileFunction,Soldermask,Bot*%
%TF.FilePolarity,Negative*%
%FSLAX46Y46*%
G04 Gerber Fmt 4.6, Leading zero omitted, Abs format (unit mm)*
G04 Created by KiCad (PCBNEW 8.0.6) date 2025-02-07 14:21:58*
%MOMM*%
%LPD*%
G01*
G04 APERTURE LIST*
G04 Aperture macros list*
%AMRoundRect*
0 Rectangle with rounded corners*
0 $1 Rounding radius*
0 $2 $3 $4 $5 $6 $7 $8 $9 X,Y pos of 4 corners*
0 Add a 4 corners polygon primitive as box body*
4,1,4,$2,$3,$4,$5,$6,$7,$8,$9,$2,$3,0*
0 Add four circle primitives for the rounded corners*
1,1,$1+$1,$2,$3*
1,1,$1+$1,$4,$5*
1,1,$1+$1,$6,$7*
1,1,$1+$1,$8,$9*
0 Add four rect primitives between the rounded corners*
20,1,$1+$1,$2,$3,$4,$5,0*
20,1,$1+$1,$4,$5,$6,$7,0*
20,1,$1+$1,$6,$7,$8,$9,0*
20,1,$1+$1,$8,$9,$2,$3,0*%
G04 Aperture macros list end*
%ADD10R,1.700000X1.700000*%
%ADD11O,1.700000X1.700000*%
%ADD12C,3.200000*%
%ADD13RoundRect,0.102000X-1.050000X-1.050000X1.050000X-1.050000X1.050000X1.050000X-1.050000X1.050000X0*%
%ADD14C,2.304000*%
%ADD15RoundRect,0.102000X-0.565000X0.565000X-0.565000X-0.565000X0.565000X-0.565000X0.565000X0.565000X0*%
%ADD16C,1.334000*%
%ADD17C,0.660400*%
%ADD18R,0.228600X0.304800*%
%ADD19RoundRect,0.135000X-0.185000X0.135000X-0.185000X-0.135000X0.185000X-0.135000X0.185000X0.135000X0*%
%ADD20R,0.800100X0.508000*%
%ADD21RoundRect,0.200000X-0.200000X-0.275000X0.200000X-0.275000X0.200000X0.275000X-0.200000X0.275000X0*%
%ADD22RoundRect,0.200000X0.275000X-0.200000X0.275000X0.200000X-0.275000X0.200000X-0.275000X-0.200000X0*%
%ADD23RoundRect,0.135000X0.185000X-0.135000X0.185000X0.135000X-0.185000X0.135000X-0.185000X-0.135000X0*%
%ADD24RoundRect,0.250000X0.475000X-0.250000X0.475000X0.250000X-0.475000X0.250000X-0.475000X-0.250000X0*%
%ADD25RoundRect,0.200000X-0.275000X0.200000X-0.275000X-0.200000X0.275000X-0.200000X0.275000X0.200000X0*%
%ADD26RoundRect,0.140000X-0.170000X0.140000X-0.170000X-0.140000X0.170000X-0.140000X0.170000X0.140000X0*%
%ADD27RoundRect,0.225000X0.225000X0.250000X-0.225000X0.250000X-0.225000X-0.250000X0.225000X-0.250000X0*%
%ADD28RoundRect,0.250000X1.025000X-0.787500X1.025000X0.787500X-1.025000X0.787500X-1.025000X-0.787500X0*%
%ADD29RoundRect,0.200000X0.200000X0.275000X-0.200000X0.275000X-0.200000X-0.275000X0.200000X-0.275000X0*%
%ADD30RoundRect,0.140000X0.170000X-0.140000X0.170000X0.140000X-0.170000X0.140000X-0.170000X-0.140000X0*%
%ADD31RoundRect,0.243750X0.243750X0.456250X-0.243750X0.456250X-0.243750X-0.456250X0.243750X-0.456250X0*%
%ADD32RoundRect,0.250000X-0.787500X-1.025000X0.787500X-1.025000X0.787500X1.025000X-0.787500X1.025000X0*%
%ADD33R,0.299999X0.299999*%
%ADD34RoundRect,0.135000X-0.135000X-0.185000X0.135000X-0.185000X0.135000X0.185000X-0.135000X0.185000X0*%
%ADD35RoundRect,0.250000X-0.450000X0.262500X-0.450000X-0.262500X0.450000X-0.262500X0.450000X0.262500X0*%
%ADD36R,0.820000X0.760000*%
G04 APERTURE END LIST*
D10*
%TO.C,BZ1*%
X150155000Y-71450000D03*
D11*
X152695000Y-71450000D03*
%TD*%
D12*
%TO.C,H1*%
X60900000Y-71700000D03*
%TD*%
%TO.C,H4*%
X192880000Y-119110000D03*
%TD*%
%TO.C,H3*%
X193260000Y-71430000D03*
%TD*%
D10*
%TO.C,J4*%
X125295000Y-71500000D03*
D11*
X127835000Y-71500000D03*
X130375000Y-71500000D03*
%TD*%
D13*
%TO.C,J3*%
X79122500Y-114850000D03*
D14*
X84122500Y-114850000D03*
%TD*%
D15*
%TO.C,U2*%
X169600000Y-93950000D03*
D16*
X167060000Y-93950000D03*
X164520000Y-93950000D03*
X161980000Y-93950000D03*
X159440000Y-93950000D03*
X156900000Y-93950000D03*
X154360000Y-93950000D03*
X151820000Y-93950000D03*
X151820000Y-101890000D03*
X154360000Y-101890000D03*
X156900000Y-101890000D03*
X159440000Y-101890000D03*
X161980000Y-101890000D03*
X164520000Y-101890000D03*
X167060000Y-101890000D03*
X169600000Y-101890000D03*
%TD*%
D13*
%TO.C,J2*%
X107732500Y-117190000D03*
D14*
X112732500Y-117190000D03*
%TD*%
D17*
%TO.C,J1*%
X62465000Y-89729999D03*
X62465000Y-95510001D03*
%TD*%
D12*
%TO.C,H2*%
X61370000Y-118810000D03*
%TD*%
D10*
%TO.C,J9*%
X144920000Y-89085000D03*
D11*
X144920000Y-91625000D03*
X144920000Y-94165000D03*
X144920000Y-96705000D03*
X144920000Y-99245000D03*
X144920000Y-101785000D03*
X144920000Y-104325000D03*
X144920000Y-106865000D03*
%TD*%
D10*
%TO.C,J7*%
X184150000Y-74340000D03*
D11*
X181610000Y-74340000D03*
X179070000Y-74340000D03*
X176530000Y-74340000D03*
X173990000Y-74340000D03*
X171450000Y-74340000D03*
X168910000Y-74340000D03*
X166370000Y-74340000D03*
%TD*%
D18*
%TO.C,D1*%
X59335600Y-92990000D03*
X58980000Y-92990000D03*
%TD*%
D19*
%TO.C,R55*%
X77110000Y-88120000D03*
X77110000Y-89140000D03*
%TD*%
D20*
%TO.C,Q9*%
X76111900Y-99789998D03*
X76111900Y-100739999D03*
X76111900Y-101690000D03*
X73610000Y-101690000D03*
X73610000Y-100739999D03*
X73610000Y-99789998D03*
%TD*%
D21*
%TO.C,R22*%
X115547500Y-110420000D03*
X117197500Y-110420000D03*
%TD*%
D18*
%TO.C,D2*%
X61510000Y-89610000D03*
X61154400Y-89610000D03*
%TD*%
D19*
%TO.C,R54*%
X75640000Y-88080000D03*
X75640000Y-89100000D03*
%TD*%
D22*
%TO.C,R45*%
X84544444Y-96990000D03*
X84544444Y-95340000D03*
%TD*%
D23*
%TO.C,R53*%
X79310000Y-98610000D03*
X79310000Y-97590000D03*
%TD*%
D24*
%TO.C,C34*%
X111682500Y-98470000D03*
X111682500Y-96570000D03*
%TD*%
%TO.C,C32*%
X121602501Y-98989999D03*
X121602501Y-97089999D03*
%TD*%
D25*
%TO.C,R46*%
X82886666Y-95340000D03*
X82886666Y-96990000D03*
%TD*%
D23*
%TO.C,R18*%
X100612500Y-97490000D03*
X100612500Y-96470000D03*
%TD*%
%TO.C,R19*%
X100500000Y-109879999D03*
X100500000Y-108859999D03*
%TD*%
D25*
%TO.C,R48*%
X86202222Y-95340000D03*
X86202222Y-96990000D03*
%TD*%
D26*
%TO.C,C12*%
X114802500Y-106030000D03*
X114802500Y-106990000D03*
%TD*%
D27*
%TO.C,C47*%
X61430000Y-94340000D03*
X59880000Y-94340000D03*
%TD*%
D24*
%TO.C,C36*%
X109452500Y-98470000D03*
X109452500Y-96570000D03*
%TD*%
D28*
%TO.C,C39*%
X130002500Y-98989999D03*
X130002500Y-92764999D03*
%TD*%
D24*
%TO.C,C37*%
X126102501Y-98989999D03*
X126102501Y-97089999D03*
%TD*%
%TO.C,C35*%
X123852501Y-98989999D03*
X123852501Y-97089999D03*
%TD*%
D19*
%TO.C,R40*%
X62110000Y-100730000D03*
X62110000Y-101750000D03*
%TD*%
D29*
%TO.C,R23*%
X117197500Y-112010000D03*
X115547500Y-112010000D03*
%TD*%
D30*
%TO.C,C14*%
X101500000Y-109829999D03*
X101500000Y-108869999D03*
%TD*%
D22*
%TO.C,R47*%
X87860000Y-96990000D03*
X87860000Y-95340000D03*
%TD*%
D31*
%TO.C,D13*%
X112400000Y-101190000D03*
X110525000Y-101190000D03*
%TD*%
D30*
%TO.C,C44*%
X78130000Y-95270000D03*
X78130000Y-94310000D03*
%TD*%
D26*
%TO.C,C15*%
X113792500Y-106040000D03*
X113792500Y-107000000D03*
%TD*%
D25*
%TO.C,R28*%
X122472500Y-105615000D03*
X122472500Y-107265000D03*
%TD*%
D30*
%TO.C,C20*%
X119282500Y-102550000D03*
X119282500Y-101590000D03*
%TD*%
D32*
%TO.C,C38*%
X105170000Y-91680000D03*
X111395000Y-91680000D03*
%TD*%
D33*
%TO.C,U3*%
X65800000Y-92600000D03*
X65549998Y-93099999D03*
X65549998Y-92100001D03*
%TD*%
D21*
%TO.C,R26*%
X115552500Y-108830000D03*
X117202500Y-108830000D03*
%TD*%
D27*
%TO.C,C48*%
X61515000Y-90910000D03*
X59965000Y-90910000D03*
%TD*%
D30*
%TO.C,C19*%
X115502500Y-102369999D03*
X115502500Y-101409999D03*
%TD*%
D21*
%TO.C,R25*%
X105257500Y-107800000D03*
X106907500Y-107800000D03*
%TD*%
D34*
%TO.C,R52*%
X76710000Y-98620000D03*
X77730000Y-98620000D03*
%TD*%
D30*
%TO.C,C45*%
X77010000Y-95270000D03*
X77010000Y-94310000D03*
%TD*%
%TO.C,C13*%
X101612500Y-97440000D03*
X101612500Y-96480000D03*
%TD*%
D35*
%TO.C,R56*%
X74740000Y-103227500D03*
X74740000Y-105052500D03*
%TD*%
D36*
%TO.C,D15*%
X66570000Y-102910000D03*
X63370000Y-102910000D03*
%TD*%
D23*
%TO.C,R27*%
X110542500Y-104290000D03*
X110542500Y-103270000D03*
%TD*%
D25*
%TO.C,R24*%
X100322500Y-99995000D03*
X100322500Y-101645000D03*
%TD*%
M02*
