%TF.GenerationSoftware,KiCad,Pcbnew,8.0.6*%
%TF.CreationDate,2025-02-07T14:21:58-05:00*%
%TF.ProjectId,SCAN,5343414e-2e6b-4696-9361-645f70636258,v1.0*%
%TF.SameCoordinates,Original*%
%TF.FileFunction,Legend,Bot*%
%TF.FilePolarity,Positive*%
%FSLAX46Y46*%
G04 Gerber Fmt 4.6, Leading zero omitted, Abs format (unit mm)*
G04 Created by KiCad (PCBNEW 8.0.6) date 2025-02-07 14:21:58*
%MOMM*%
%LPD*%
G01*
G04 APERTURE LIST*
G04 Aperture macros list*
%AMRoundRect*
0 Rectangle with rounded corners*
0 $1 Rounding radius*
0 $2 $3 $4 $5 $6 $7 $8 $9 X,Y pos of 4 corners*
0 Add a 4 corners polygon primitive as box body*
4,1,4,$2,$3,$4,$5,$6,$7,$8,$9,$2,$3,0*
0 Add four circle primitives for the rounded corners*
1,1,$1+$1,$2,$3*
1,1,$1+$1,$4,$5*
1,1,$1+$1,$6,$7*
1,1,$1+$1,$8,$9*
0 Add four rect primitives between the rounded corners*
20,1,$1+$1,$2,$3,$4,$5,0*
20,1,$1+$1,$4,$5,$6,$7,0*
20,1,$1+$1,$6,$7,$8,$9,0*
20,1,$1+$1,$8,$9,$2,$3,0*%
G04 Aperture macros list end*
%ADD10C,0.150000*%
%ADD11C,0.254000*%
%ADD12C,0.152400*%
%ADD13C,0.120000*%
%ADD14C,0.200000*%
%ADD15R,1.700000X1.700000*%
%ADD16O,1.700000X1.700000*%
%ADD17C,3.200000*%
%ADD18RoundRect,0.102000X-1.050000X-1.050000X1.050000X-1.050000X1.050000X1.050000X-1.050000X1.050000X0*%
%ADD19C,2.304000*%
%ADD20RoundRect,0.102000X-0.565000X0.565000X-0.565000X-0.565000X0.565000X-0.565000X0.565000X0.565000X0*%
%ADD21C,1.334000*%
%ADD22C,0.660400*%
%ADD23R,0.228600X0.304800*%
%ADD24RoundRect,0.135000X-0.185000X0.135000X-0.185000X-0.135000X0.185000X-0.135000X0.185000X0.135000X0*%
%ADD25R,0.800100X0.508000*%
%ADD26RoundRect,0.200000X-0.200000X-0.275000X0.200000X-0.275000X0.200000X0.275000X-0.200000X0.275000X0*%
%ADD27RoundRect,0.200000X0.275000X-0.200000X0.275000X0.200000X-0.275000X0.200000X-0.275000X-0.200000X0*%
%ADD28RoundRect,0.135000X0.185000X-0.135000X0.185000X0.135000X-0.185000X0.135000X-0.185000X-0.135000X0*%
%ADD29RoundRect,0.250000X0.475000X-0.250000X0.475000X0.250000X-0.475000X0.250000X-0.475000X-0.250000X0*%
%ADD30RoundRect,0.200000X-0.275000X0.200000X-0.275000X-0.200000X0.275000X-0.200000X0.275000X0.200000X0*%
%ADD31RoundRect,0.140000X-0.170000X0.140000X-0.170000X-0.140000X0.170000X-0.140000X0.170000X0.140000X0*%
%ADD32RoundRect,0.225000X0.225000X0.250000X-0.225000X0.250000X-0.225000X-0.250000X0.225000X-0.250000X0*%
%ADD33RoundRect,0.250000X1.025000X-0.787500X1.025000X0.787500X-1.025000X0.787500X-1.025000X-0.787500X0*%
%ADD34RoundRect,0.200000X0.200000X0.275000X-0.200000X0.275000X-0.200000X-0.275000X0.200000X-0.275000X0*%
%ADD35RoundRect,0.140000X0.170000X-0.140000X0.170000X0.140000X-0.170000X0.140000X-0.170000X-0.140000X0*%
%ADD36RoundRect,0.243750X0.243750X0.456250X-0.243750X0.456250X-0.243750X-0.456250X0.243750X-0.456250X0*%
%ADD37RoundRect,0.250000X-0.787500X-1.025000X0.787500X-1.025000X0.787500X1.025000X-0.787500X1.025000X0*%
%ADD38R,0.299999X0.299999*%
%ADD39RoundRect,0.135000X-0.135000X-0.185000X0.135000X-0.185000X0.135000X0.185000X-0.135000X0.185000X0*%
%ADD40RoundRect,0.250000X-0.450000X0.262500X-0.450000X-0.262500X0.450000X-0.262500X0.450000X0.262500X0*%
%ADD41R,0.820000X0.760000*%
G04 APERTURE END LIST*
D10*
X58218094Y-93567319D02*
X58218094Y-92567319D01*
X58218094Y-92567319D02*
X57979999Y-92567319D01*
X57979999Y-92567319D02*
X57837142Y-92614938D01*
X57837142Y-92614938D02*
X57741904Y-92710176D01*
X57741904Y-92710176D02*
X57694285Y-92805414D01*
X57694285Y-92805414D02*
X57646666Y-92995890D01*
X57646666Y-92995890D02*
X57646666Y-93138747D01*
X57646666Y-93138747D02*
X57694285Y-93329223D01*
X57694285Y-93329223D02*
X57741904Y-93424461D01*
X57741904Y-93424461D02*
X57837142Y-93519700D01*
X57837142Y-93519700D02*
X57979999Y-93567319D01*
X57979999Y-93567319D02*
X58218094Y-93567319D01*
X56694285Y-93567319D02*
X57265713Y-93567319D01*
X56979999Y-93567319D02*
X56979999Y-92567319D01*
X56979999Y-92567319D02*
X57075237Y-92710176D01*
X57075237Y-92710176D02*
X57170475Y-92805414D01*
X57170475Y-92805414D02*
X57265713Y-92853033D01*
X77514819Y-85327142D02*
X77038628Y-84993809D01*
X77514819Y-84755714D02*
X76514819Y-84755714D01*
X76514819Y-84755714D02*
X76514819Y-85136666D01*
X76514819Y-85136666D02*
X76562438Y-85231904D01*
X76562438Y-85231904D02*
X76610057Y-85279523D01*
X76610057Y-85279523D02*
X76705295Y-85327142D01*
X76705295Y-85327142D02*
X76848152Y-85327142D01*
X76848152Y-85327142D02*
X76943390Y-85279523D01*
X76943390Y-85279523D02*
X76991009Y-85231904D01*
X76991009Y-85231904D02*
X77038628Y-85136666D01*
X77038628Y-85136666D02*
X77038628Y-84755714D01*
X76514819Y-86231904D02*
X76514819Y-85755714D01*
X76514819Y-85755714D02*
X76991009Y-85708095D01*
X76991009Y-85708095D02*
X76943390Y-85755714D01*
X76943390Y-85755714D02*
X76895771Y-85850952D01*
X76895771Y-85850952D02*
X76895771Y-86089047D01*
X76895771Y-86089047D02*
X76943390Y-86184285D01*
X76943390Y-86184285D02*
X76991009Y-86231904D01*
X76991009Y-86231904D02*
X77086247Y-86279523D01*
X77086247Y-86279523D02*
X77324342Y-86279523D01*
X77324342Y-86279523D02*
X77419580Y-86231904D01*
X77419580Y-86231904D02*
X77467200Y-86184285D01*
X77467200Y-86184285D02*
X77514819Y-86089047D01*
X77514819Y-86089047D02*
X77514819Y-85850952D01*
X77514819Y-85850952D02*
X77467200Y-85755714D01*
X77467200Y-85755714D02*
X77419580Y-85708095D01*
X76514819Y-87184285D02*
X76514819Y-86708095D01*
X76514819Y-86708095D02*
X76991009Y-86660476D01*
X76991009Y-86660476D02*
X76943390Y-86708095D01*
X76943390Y-86708095D02*
X76895771Y-86803333D01*
X76895771Y-86803333D02*
X76895771Y-87041428D01*
X76895771Y-87041428D02*
X76943390Y-87136666D01*
X76943390Y-87136666D02*
X76991009Y-87184285D01*
X76991009Y-87184285D02*
X77086247Y-87231904D01*
X77086247Y-87231904D02*
X77324342Y-87231904D01*
X77324342Y-87231904D02*
X77419580Y-87184285D01*
X77419580Y-87184285D02*
X77467200Y-87136666D01*
X77467200Y-87136666D02*
X77514819Y-87041428D01*
X77514819Y-87041428D02*
X77514819Y-86803333D01*
X77514819Y-86803333D02*
X77467200Y-86708095D01*
X77467200Y-86708095D02*
X77419580Y-86660476D01*
X74765711Y-97239940D02*
X74670473Y-97287559D01*
X74670473Y-97287559D02*
X74575235Y-97382798D01*
X74575235Y-97382798D02*
X74432378Y-97525655D01*
X74432378Y-97525655D02*
X74337140Y-97573274D01*
X74337140Y-97573274D02*
X74241902Y-97573274D01*
X74289521Y-97335178D02*
X74194283Y-97382798D01*
X74194283Y-97382798D02*
X74099045Y-97478036D01*
X74099045Y-97478036D02*
X74051426Y-97668512D01*
X74051426Y-97668512D02*
X74051426Y-98001845D01*
X74051426Y-98001845D02*
X74099045Y-98192321D01*
X74099045Y-98192321D02*
X74194283Y-98287559D01*
X74194283Y-98287559D02*
X74289521Y-98335178D01*
X74289521Y-98335178D02*
X74479997Y-98335178D01*
X74479997Y-98335178D02*
X74575235Y-98287559D01*
X74575235Y-98287559D02*
X74670473Y-98192321D01*
X74670473Y-98192321D02*
X74718092Y-98001845D01*
X74718092Y-98001845D02*
X74718092Y-97668512D01*
X74718092Y-97668512D02*
X74670473Y-97478036D01*
X74670473Y-97478036D02*
X74575235Y-97382798D01*
X74575235Y-97382798D02*
X74479997Y-97335178D01*
X74479997Y-97335178D02*
X74289521Y-97335178D01*
X75194283Y-97335178D02*
X75384759Y-97335178D01*
X75384759Y-97335178D02*
X75479997Y-97382798D01*
X75479997Y-97382798D02*
X75527616Y-97430417D01*
X75527616Y-97430417D02*
X75622854Y-97573274D01*
X75622854Y-97573274D02*
X75670473Y-97763750D01*
X75670473Y-97763750D02*
X75670473Y-98144702D01*
X75670473Y-98144702D02*
X75622854Y-98239940D01*
X75622854Y-98239940D02*
X75575235Y-98287559D01*
X75575235Y-98287559D02*
X75479997Y-98335178D01*
X75479997Y-98335178D02*
X75289521Y-98335178D01*
X75289521Y-98335178D02*
X75194283Y-98287559D01*
X75194283Y-98287559D02*
X75146664Y-98239940D01*
X75146664Y-98239940D02*
X75099045Y-98144702D01*
X75099045Y-98144702D02*
X75099045Y-97906607D01*
X75099045Y-97906607D02*
X75146664Y-97811369D01*
X75146664Y-97811369D02*
X75194283Y-97763750D01*
X75194283Y-97763750D02*
X75289521Y-97716131D01*
X75289521Y-97716131D02*
X75479997Y-97716131D01*
X75479997Y-97716131D02*
X75575235Y-97763750D01*
X75575235Y-97763750D02*
X75622854Y-97811369D01*
X75622854Y-97811369D02*
X75670473Y-97906607D01*
X76365899Y-97593818D02*
X76365899Y-97831913D01*
X76603994Y-97736675D02*
X76365899Y-97831913D01*
X76365899Y-97831913D02*
X76127804Y-97736675D01*
X76508756Y-98022389D02*
X76365899Y-97831913D01*
X76365899Y-97831913D02*
X76223042Y-98022389D01*
X76365899Y-97593818D02*
X76365899Y-97831913D01*
X76603994Y-97736675D02*
X76365899Y-97831913D01*
X76365899Y-97831913D02*
X76127804Y-97736675D01*
X76508756Y-98022389D02*
X76365899Y-97831913D01*
X76365899Y-97831913D02*
X76223042Y-98022389D01*
X117015357Y-112304819D02*
X117348690Y-111828628D01*
X117586785Y-112304819D02*
X117586785Y-111304819D01*
X117586785Y-111304819D02*
X117205833Y-111304819D01*
X117205833Y-111304819D02*
X117110595Y-111352438D01*
X117110595Y-111352438D02*
X117062976Y-111400057D01*
X117062976Y-111400057D02*
X117015357Y-111495295D01*
X117015357Y-111495295D02*
X117015357Y-111638152D01*
X117015357Y-111638152D02*
X117062976Y-111733390D01*
X117062976Y-111733390D02*
X117110595Y-111781009D01*
X117110595Y-111781009D02*
X117205833Y-111828628D01*
X117205833Y-111828628D02*
X117586785Y-111828628D01*
X116634404Y-111400057D02*
X116586785Y-111352438D01*
X116586785Y-111352438D02*
X116491547Y-111304819D01*
X116491547Y-111304819D02*
X116253452Y-111304819D01*
X116253452Y-111304819D02*
X116158214Y-111352438D01*
X116158214Y-111352438D02*
X116110595Y-111400057D01*
X116110595Y-111400057D02*
X116062976Y-111495295D01*
X116062976Y-111495295D02*
X116062976Y-111590533D01*
X116062976Y-111590533D02*
X116110595Y-111733390D01*
X116110595Y-111733390D02*
X116682023Y-112304819D01*
X116682023Y-112304819D02*
X116062976Y-112304819D01*
X115682023Y-111400057D02*
X115634404Y-111352438D01*
X115634404Y-111352438D02*
X115539166Y-111304819D01*
X115539166Y-111304819D02*
X115301071Y-111304819D01*
X115301071Y-111304819D02*
X115205833Y-111352438D01*
X115205833Y-111352438D02*
X115158214Y-111400057D01*
X115158214Y-111400057D02*
X115110595Y-111495295D01*
X115110595Y-111495295D02*
X115110595Y-111590533D01*
X115110595Y-111590533D02*
X115158214Y-111733390D01*
X115158214Y-111733390D02*
X115729642Y-112304819D01*
X115729642Y-112304819D02*
X115110595Y-112304819D01*
X60392494Y-89987319D02*
X60392494Y-88987319D01*
X60392494Y-88987319D02*
X60154399Y-88987319D01*
X60154399Y-88987319D02*
X60011542Y-89034938D01*
X60011542Y-89034938D02*
X59916304Y-89130176D01*
X59916304Y-89130176D02*
X59868685Y-89225414D01*
X59868685Y-89225414D02*
X59821066Y-89415890D01*
X59821066Y-89415890D02*
X59821066Y-89558747D01*
X59821066Y-89558747D02*
X59868685Y-89749223D01*
X59868685Y-89749223D02*
X59916304Y-89844461D01*
X59916304Y-89844461D02*
X60011542Y-89939700D01*
X60011542Y-89939700D02*
X60154399Y-89987319D01*
X60154399Y-89987319D02*
X60392494Y-89987319D01*
X59440113Y-89082557D02*
X59392494Y-89034938D01*
X59392494Y-89034938D02*
X59297256Y-88987319D01*
X59297256Y-88987319D02*
X59059161Y-88987319D01*
X59059161Y-88987319D02*
X58963923Y-89034938D01*
X58963923Y-89034938D02*
X58916304Y-89082557D01*
X58916304Y-89082557D02*
X58868685Y-89177795D01*
X58868685Y-89177795D02*
X58868685Y-89273033D01*
X58868685Y-89273033D02*
X58916304Y-89415890D01*
X58916304Y-89415890D02*
X59487732Y-89987319D01*
X59487732Y-89987319D02*
X58868685Y-89987319D01*
X76064819Y-85287142D02*
X75588628Y-84953809D01*
X76064819Y-84715714D02*
X75064819Y-84715714D01*
X75064819Y-84715714D02*
X75064819Y-85096666D01*
X75064819Y-85096666D02*
X75112438Y-85191904D01*
X75112438Y-85191904D02*
X75160057Y-85239523D01*
X75160057Y-85239523D02*
X75255295Y-85287142D01*
X75255295Y-85287142D02*
X75398152Y-85287142D01*
X75398152Y-85287142D02*
X75493390Y-85239523D01*
X75493390Y-85239523D02*
X75541009Y-85191904D01*
X75541009Y-85191904D02*
X75588628Y-85096666D01*
X75588628Y-85096666D02*
X75588628Y-84715714D01*
X75064819Y-86191904D02*
X75064819Y-85715714D01*
X75064819Y-85715714D02*
X75541009Y-85668095D01*
X75541009Y-85668095D02*
X75493390Y-85715714D01*
X75493390Y-85715714D02*
X75445771Y-85810952D01*
X75445771Y-85810952D02*
X75445771Y-86049047D01*
X75445771Y-86049047D02*
X75493390Y-86144285D01*
X75493390Y-86144285D02*
X75541009Y-86191904D01*
X75541009Y-86191904D02*
X75636247Y-86239523D01*
X75636247Y-86239523D02*
X75874342Y-86239523D01*
X75874342Y-86239523D02*
X75969580Y-86191904D01*
X75969580Y-86191904D02*
X76017200Y-86144285D01*
X76017200Y-86144285D02*
X76064819Y-86049047D01*
X76064819Y-86049047D02*
X76064819Y-85810952D01*
X76064819Y-85810952D02*
X76017200Y-85715714D01*
X76017200Y-85715714D02*
X75969580Y-85668095D01*
X75398152Y-87096666D02*
X76064819Y-87096666D01*
X75017200Y-86858571D02*
X75731485Y-86620476D01*
X75731485Y-86620476D02*
X75731485Y-87239523D01*
X84495929Y-100147142D02*
X84019738Y-99813809D01*
X84495929Y-99575714D02*
X83495929Y-99575714D01*
X83495929Y-99575714D02*
X83495929Y-99956666D01*
X83495929Y-99956666D02*
X83543548Y-100051904D01*
X83543548Y-100051904D02*
X83591167Y-100099523D01*
X83591167Y-100099523D02*
X83686405Y-100147142D01*
X83686405Y-100147142D02*
X83829262Y-100147142D01*
X83829262Y-100147142D02*
X83924500Y-100099523D01*
X83924500Y-100099523D02*
X83972119Y-100051904D01*
X83972119Y-100051904D02*
X84019738Y-99956666D01*
X84019738Y-99956666D02*
X84019738Y-99575714D01*
X83829262Y-101004285D02*
X84495929Y-101004285D01*
X83448310Y-100766190D02*
X84162595Y-100528095D01*
X84162595Y-100528095D02*
X84162595Y-101147142D01*
X83495929Y-102004285D02*
X83495929Y-101528095D01*
X83495929Y-101528095D02*
X83972119Y-101480476D01*
X83972119Y-101480476D02*
X83924500Y-101528095D01*
X83924500Y-101528095D02*
X83876881Y-101623333D01*
X83876881Y-101623333D02*
X83876881Y-101861428D01*
X83876881Y-101861428D02*
X83924500Y-101956666D01*
X83924500Y-101956666D02*
X83972119Y-102004285D01*
X83972119Y-102004285D02*
X84067357Y-102051904D01*
X84067357Y-102051904D02*
X84305452Y-102051904D01*
X84305452Y-102051904D02*
X84400690Y-102004285D01*
X84400690Y-102004285D02*
X84448310Y-101956666D01*
X84448310Y-101956666D02*
X84495929Y-101861428D01*
X84495929Y-101861428D02*
X84495929Y-101623333D01*
X84495929Y-101623333D02*
X84448310Y-101528095D01*
X84448310Y-101528095D02*
X84400690Y-101480476D01*
X79334819Y-102597142D02*
X78858628Y-102263809D01*
X79334819Y-102025714D02*
X78334819Y-102025714D01*
X78334819Y-102025714D02*
X78334819Y-102406666D01*
X78334819Y-102406666D02*
X78382438Y-102501904D01*
X78382438Y-102501904D02*
X78430057Y-102549523D01*
X78430057Y-102549523D02*
X78525295Y-102597142D01*
X78525295Y-102597142D02*
X78668152Y-102597142D01*
X78668152Y-102597142D02*
X78763390Y-102549523D01*
X78763390Y-102549523D02*
X78811009Y-102501904D01*
X78811009Y-102501904D02*
X78858628Y-102406666D01*
X78858628Y-102406666D02*
X78858628Y-102025714D01*
X78334819Y-103501904D02*
X78334819Y-103025714D01*
X78334819Y-103025714D02*
X78811009Y-102978095D01*
X78811009Y-102978095D02*
X78763390Y-103025714D01*
X78763390Y-103025714D02*
X78715771Y-103120952D01*
X78715771Y-103120952D02*
X78715771Y-103359047D01*
X78715771Y-103359047D02*
X78763390Y-103454285D01*
X78763390Y-103454285D02*
X78811009Y-103501904D01*
X78811009Y-103501904D02*
X78906247Y-103549523D01*
X78906247Y-103549523D02*
X79144342Y-103549523D01*
X79144342Y-103549523D02*
X79239580Y-103501904D01*
X79239580Y-103501904D02*
X79287200Y-103454285D01*
X79287200Y-103454285D02*
X79334819Y-103359047D01*
X79334819Y-103359047D02*
X79334819Y-103120952D01*
X79334819Y-103120952D02*
X79287200Y-103025714D01*
X79287200Y-103025714D02*
X79239580Y-102978095D01*
X78334819Y-103882857D02*
X78334819Y-104501904D01*
X78334819Y-104501904D02*
X78715771Y-104168571D01*
X78715771Y-104168571D02*
X78715771Y-104311428D01*
X78715771Y-104311428D02*
X78763390Y-104406666D01*
X78763390Y-104406666D02*
X78811009Y-104454285D01*
X78811009Y-104454285D02*
X78906247Y-104501904D01*
X78906247Y-104501904D02*
X79144342Y-104501904D01*
X79144342Y-104501904D02*
X79239580Y-104454285D01*
X79239580Y-104454285D02*
X79287200Y-104406666D01*
X79287200Y-104406666D02*
X79334819Y-104311428D01*
X79334819Y-104311428D02*
X79334819Y-104025714D01*
X79334819Y-104025714D02*
X79287200Y-103930476D01*
X79287200Y-103930476D02*
X79239580Y-103882857D01*
X117412081Y-96447142D02*
X117459701Y-96399523D01*
X117459701Y-96399523D02*
X117507320Y-96256666D01*
X117507320Y-96256666D02*
X117507320Y-96161428D01*
X117507320Y-96161428D02*
X117459701Y-96018571D01*
X117459701Y-96018571D02*
X117364462Y-95923333D01*
X117364462Y-95923333D02*
X117269224Y-95875714D01*
X117269224Y-95875714D02*
X117078748Y-95828095D01*
X117078748Y-95828095D02*
X116935891Y-95828095D01*
X116935891Y-95828095D02*
X116745415Y-95875714D01*
X116745415Y-95875714D02*
X116650177Y-95923333D01*
X116650177Y-95923333D02*
X116554939Y-96018571D01*
X116554939Y-96018571D02*
X116507320Y-96161428D01*
X116507320Y-96161428D02*
X116507320Y-96256666D01*
X116507320Y-96256666D02*
X116554939Y-96399523D01*
X116554939Y-96399523D02*
X116602558Y-96447142D01*
X116507320Y-96780476D02*
X116507320Y-97399523D01*
X116507320Y-97399523D02*
X116888272Y-97066190D01*
X116888272Y-97066190D02*
X116888272Y-97209047D01*
X116888272Y-97209047D02*
X116935891Y-97304285D01*
X116935891Y-97304285D02*
X116983510Y-97351904D01*
X116983510Y-97351904D02*
X117078748Y-97399523D01*
X117078748Y-97399523D02*
X117316843Y-97399523D01*
X117316843Y-97399523D02*
X117412081Y-97351904D01*
X117412081Y-97351904D02*
X117459701Y-97304285D01*
X117459701Y-97304285D02*
X117507320Y-97209047D01*
X117507320Y-97209047D02*
X117507320Y-96923333D01*
X117507320Y-96923333D02*
X117459701Y-96828095D01*
X117459701Y-96828095D02*
X117412081Y-96780476D01*
X116840653Y-98256666D02*
X117507320Y-98256666D01*
X116459701Y-98018571D02*
X117173986Y-97780476D01*
X117173986Y-97780476D02*
X117173986Y-98399523D01*
X110062082Y-97447141D02*
X110109702Y-97399522D01*
X110109702Y-97399522D02*
X110157321Y-97256665D01*
X110157321Y-97256665D02*
X110157321Y-97161427D01*
X110157321Y-97161427D02*
X110109702Y-97018570D01*
X110109702Y-97018570D02*
X110014463Y-96923332D01*
X110014463Y-96923332D02*
X109919225Y-96875713D01*
X109919225Y-96875713D02*
X109728749Y-96828094D01*
X109728749Y-96828094D02*
X109585892Y-96828094D01*
X109585892Y-96828094D02*
X109395416Y-96875713D01*
X109395416Y-96875713D02*
X109300178Y-96923332D01*
X109300178Y-96923332D02*
X109204940Y-97018570D01*
X109204940Y-97018570D02*
X109157321Y-97161427D01*
X109157321Y-97161427D02*
X109157321Y-97256665D01*
X109157321Y-97256665D02*
X109204940Y-97399522D01*
X109204940Y-97399522D02*
X109252559Y-97447141D01*
X109157321Y-97780475D02*
X109157321Y-98399522D01*
X109157321Y-98399522D02*
X109538273Y-98066189D01*
X109538273Y-98066189D02*
X109538273Y-98209046D01*
X109538273Y-98209046D02*
X109585892Y-98304284D01*
X109585892Y-98304284D02*
X109633511Y-98351903D01*
X109633511Y-98351903D02*
X109728749Y-98399522D01*
X109728749Y-98399522D02*
X109966844Y-98399522D01*
X109966844Y-98399522D02*
X110062082Y-98351903D01*
X110062082Y-98351903D02*
X110109702Y-98304284D01*
X110109702Y-98304284D02*
X110157321Y-98209046D01*
X110157321Y-98209046D02*
X110157321Y-97923332D01*
X110157321Y-97923332D02*
X110109702Y-97828094D01*
X110109702Y-97828094D02*
X110062082Y-97780475D01*
X109252559Y-98780475D02*
X109204940Y-98828094D01*
X109204940Y-98828094D02*
X109157321Y-98923332D01*
X109157321Y-98923332D02*
X109157321Y-99161427D01*
X109157321Y-99161427D02*
X109204940Y-99256665D01*
X109204940Y-99256665D02*
X109252559Y-99304284D01*
X109252559Y-99304284D02*
X109347797Y-99351903D01*
X109347797Y-99351903D02*
X109443035Y-99351903D01*
X109443035Y-99351903D02*
X109585892Y-99304284D01*
X109585892Y-99304284D02*
X110157321Y-98732856D01*
X110157321Y-98732856D02*
X110157321Y-99351903D01*
X82711483Y-100137142D02*
X82235292Y-99803809D01*
X82711483Y-99565714D02*
X81711483Y-99565714D01*
X81711483Y-99565714D02*
X81711483Y-99946666D01*
X81711483Y-99946666D02*
X81759102Y-100041904D01*
X81759102Y-100041904D02*
X81806721Y-100089523D01*
X81806721Y-100089523D02*
X81901959Y-100137142D01*
X81901959Y-100137142D02*
X82044816Y-100137142D01*
X82044816Y-100137142D02*
X82140054Y-100089523D01*
X82140054Y-100089523D02*
X82187673Y-100041904D01*
X82187673Y-100041904D02*
X82235292Y-99946666D01*
X82235292Y-99946666D02*
X82235292Y-99565714D01*
X82044816Y-100994285D02*
X82711483Y-100994285D01*
X81663864Y-100756190D02*
X82378149Y-100518095D01*
X82378149Y-100518095D02*
X82378149Y-101137142D01*
X81711483Y-101946666D02*
X81711483Y-101756190D01*
X81711483Y-101756190D02*
X81759102Y-101660952D01*
X81759102Y-101660952D02*
X81806721Y-101613333D01*
X81806721Y-101613333D02*
X81949578Y-101518095D01*
X81949578Y-101518095D02*
X82140054Y-101470476D01*
X82140054Y-101470476D02*
X82521006Y-101470476D01*
X82521006Y-101470476D02*
X82616244Y-101518095D01*
X82616244Y-101518095D02*
X82663864Y-101565714D01*
X82663864Y-101565714D02*
X82711483Y-101660952D01*
X82711483Y-101660952D02*
X82711483Y-101851428D01*
X82711483Y-101851428D02*
X82663864Y-101946666D01*
X82663864Y-101946666D02*
X82616244Y-101994285D01*
X82616244Y-101994285D02*
X82521006Y-102041904D01*
X82521006Y-102041904D02*
X82282911Y-102041904D01*
X82282911Y-102041904D02*
X82187673Y-101994285D01*
X82187673Y-101994285D02*
X82140054Y-101946666D01*
X82140054Y-101946666D02*
X82092435Y-101851428D01*
X82092435Y-101851428D02*
X82092435Y-101660952D01*
X82092435Y-101660952D02*
X82140054Y-101565714D01*
X82140054Y-101565714D02*
X82187673Y-101518095D01*
X82187673Y-101518095D02*
X82282911Y-101470476D01*
X101167319Y-93837142D02*
X100691128Y-93503809D01*
X101167319Y-93265714D02*
X100167319Y-93265714D01*
X100167319Y-93265714D02*
X100167319Y-93646666D01*
X100167319Y-93646666D02*
X100214938Y-93741904D01*
X100214938Y-93741904D02*
X100262557Y-93789523D01*
X100262557Y-93789523D02*
X100357795Y-93837142D01*
X100357795Y-93837142D02*
X100500652Y-93837142D01*
X100500652Y-93837142D02*
X100595890Y-93789523D01*
X100595890Y-93789523D02*
X100643509Y-93741904D01*
X100643509Y-93741904D02*
X100691128Y-93646666D01*
X100691128Y-93646666D02*
X100691128Y-93265714D01*
X101167319Y-94789523D02*
X101167319Y-94218095D01*
X101167319Y-94503809D02*
X100167319Y-94503809D01*
X100167319Y-94503809D02*
X100310176Y-94408571D01*
X100310176Y-94408571D02*
X100405414Y-94313333D01*
X100405414Y-94313333D02*
X100453033Y-94218095D01*
X100595890Y-95360952D02*
X100548271Y-95265714D01*
X100548271Y-95265714D02*
X100500652Y-95218095D01*
X100500652Y-95218095D02*
X100405414Y-95170476D01*
X100405414Y-95170476D02*
X100357795Y-95170476D01*
X100357795Y-95170476D02*
X100262557Y-95218095D01*
X100262557Y-95218095D02*
X100214938Y-95265714D01*
X100214938Y-95265714D02*
X100167319Y-95360952D01*
X100167319Y-95360952D02*
X100167319Y-95551428D01*
X100167319Y-95551428D02*
X100214938Y-95646666D01*
X100214938Y-95646666D02*
X100262557Y-95694285D01*
X100262557Y-95694285D02*
X100357795Y-95741904D01*
X100357795Y-95741904D02*
X100405414Y-95741904D01*
X100405414Y-95741904D02*
X100500652Y-95694285D01*
X100500652Y-95694285D02*
X100548271Y-95646666D01*
X100548271Y-95646666D02*
X100595890Y-95551428D01*
X100595890Y-95551428D02*
X100595890Y-95360952D01*
X100595890Y-95360952D02*
X100643509Y-95265714D01*
X100643509Y-95265714D02*
X100691128Y-95218095D01*
X100691128Y-95218095D02*
X100786366Y-95170476D01*
X100786366Y-95170476D02*
X100976842Y-95170476D01*
X100976842Y-95170476D02*
X101072080Y-95218095D01*
X101072080Y-95218095D02*
X101119700Y-95265714D01*
X101119700Y-95265714D02*
X101167319Y-95360952D01*
X101167319Y-95360952D02*
X101167319Y-95551428D01*
X101167319Y-95551428D02*
X101119700Y-95646666D01*
X101119700Y-95646666D02*
X101072080Y-95694285D01*
X101072080Y-95694285D02*
X100976842Y-95741904D01*
X100976842Y-95741904D02*
X100786366Y-95741904D01*
X100786366Y-95741904D02*
X100691128Y-95694285D01*
X100691128Y-95694285D02*
X100643509Y-95646666D01*
X100643509Y-95646666D02*
X100595890Y-95551428D01*
X100454819Y-106327141D02*
X99978628Y-105993808D01*
X100454819Y-105755713D02*
X99454819Y-105755713D01*
X99454819Y-105755713D02*
X99454819Y-106136665D01*
X99454819Y-106136665D02*
X99502438Y-106231903D01*
X99502438Y-106231903D02*
X99550057Y-106279522D01*
X99550057Y-106279522D02*
X99645295Y-106327141D01*
X99645295Y-106327141D02*
X99788152Y-106327141D01*
X99788152Y-106327141D02*
X99883390Y-106279522D01*
X99883390Y-106279522D02*
X99931009Y-106231903D01*
X99931009Y-106231903D02*
X99978628Y-106136665D01*
X99978628Y-106136665D02*
X99978628Y-105755713D01*
X100454819Y-107279522D02*
X100454819Y-106708094D01*
X100454819Y-106993808D02*
X99454819Y-106993808D01*
X99454819Y-106993808D02*
X99597676Y-106898570D01*
X99597676Y-106898570D02*
X99692914Y-106803332D01*
X99692914Y-106803332D02*
X99740533Y-106708094D01*
X100454819Y-107755713D02*
X100454819Y-107946189D01*
X100454819Y-107946189D02*
X100407200Y-108041427D01*
X100407200Y-108041427D02*
X100359580Y-108089046D01*
X100359580Y-108089046D02*
X100216723Y-108184284D01*
X100216723Y-108184284D02*
X100026247Y-108231903D01*
X100026247Y-108231903D02*
X99645295Y-108231903D01*
X99645295Y-108231903D02*
X99550057Y-108184284D01*
X99550057Y-108184284D02*
X99502438Y-108136665D01*
X99502438Y-108136665D02*
X99454819Y-108041427D01*
X99454819Y-108041427D02*
X99454819Y-107850951D01*
X99454819Y-107850951D02*
X99502438Y-107755713D01*
X99502438Y-107755713D02*
X99550057Y-107708094D01*
X99550057Y-107708094D02*
X99645295Y-107660475D01*
X99645295Y-107660475D02*
X99883390Y-107660475D01*
X99883390Y-107660475D02*
X99978628Y-107708094D01*
X99978628Y-107708094D02*
X100026247Y-107755713D01*
X100026247Y-107755713D02*
X100073866Y-107850951D01*
X100073866Y-107850951D02*
X100073866Y-108041427D01*
X100073866Y-108041427D02*
X100026247Y-108136665D01*
X100026247Y-108136665D02*
X99978628Y-108184284D01*
X99978628Y-108184284D02*
X99883390Y-108231903D01*
X86280374Y-100117142D02*
X85804183Y-99783809D01*
X86280374Y-99545714D02*
X85280374Y-99545714D01*
X85280374Y-99545714D02*
X85280374Y-99926666D01*
X85280374Y-99926666D02*
X85327993Y-100021904D01*
X85327993Y-100021904D02*
X85375612Y-100069523D01*
X85375612Y-100069523D02*
X85470850Y-100117142D01*
X85470850Y-100117142D02*
X85613707Y-100117142D01*
X85613707Y-100117142D02*
X85708945Y-100069523D01*
X85708945Y-100069523D02*
X85756564Y-100021904D01*
X85756564Y-100021904D02*
X85804183Y-99926666D01*
X85804183Y-99926666D02*
X85804183Y-99545714D01*
X85613707Y-100974285D02*
X86280374Y-100974285D01*
X85232755Y-100736190D02*
X85947040Y-100498095D01*
X85947040Y-100498095D02*
X85947040Y-101117142D01*
X85708945Y-101640952D02*
X85661326Y-101545714D01*
X85661326Y-101545714D02*
X85613707Y-101498095D01*
X85613707Y-101498095D02*
X85518469Y-101450476D01*
X85518469Y-101450476D02*
X85470850Y-101450476D01*
X85470850Y-101450476D02*
X85375612Y-101498095D01*
X85375612Y-101498095D02*
X85327993Y-101545714D01*
X85327993Y-101545714D02*
X85280374Y-101640952D01*
X85280374Y-101640952D02*
X85280374Y-101831428D01*
X85280374Y-101831428D02*
X85327993Y-101926666D01*
X85327993Y-101926666D02*
X85375612Y-101974285D01*
X85375612Y-101974285D02*
X85470850Y-102021904D01*
X85470850Y-102021904D02*
X85518469Y-102021904D01*
X85518469Y-102021904D02*
X85613707Y-101974285D01*
X85613707Y-101974285D02*
X85661326Y-101926666D01*
X85661326Y-101926666D02*
X85708945Y-101831428D01*
X85708945Y-101831428D02*
X85708945Y-101640952D01*
X85708945Y-101640952D02*
X85756564Y-101545714D01*
X85756564Y-101545714D02*
X85804183Y-101498095D01*
X85804183Y-101498095D02*
X85899421Y-101450476D01*
X85899421Y-101450476D02*
X86089897Y-101450476D01*
X86089897Y-101450476D02*
X86185135Y-101498095D01*
X86185135Y-101498095D02*
X86232755Y-101545714D01*
X86232755Y-101545714D02*
X86280374Y-101640952D01*
X86280374Y-101640952D02*
X86280374Y-101831428D01*
X86280374Y-101831428D02*
X86232755Y-101926666D01*
X86232755Y-101926666D02*
X86185135Y-101974285D01*
X86185135Y-101974285D02*
X86089897Y-102021904D01*
X86089897Y-102021904D02*
X85899421Y-102021904D01*
X85899421Y-102021904D02*
X85804183Y-101974285D01*
X85804183Y-101974285D02*
X85756564Y-101926666D01*
X85756564Y-101926666D02*
X85708945Y-101831428D01*
X115162080Y-108367142D02*
X115209700Y-108319523D01*
X115209700Y-108319523D02*
X115257319Y-108176666D01*
X115257319Y-108176666D02*
X115257319Y-108081428D01*
X115257319Y-108081428D02*
X115209700Y-107938571D01*
X115209700Y-107938571D02*
X115114461Y-107843333D01*
X115114461Y-107843333D02*
X115019223Y-107795714D01*
X115019223Y-107795714D02*
X114828747Y-107748095D01*
X114828747Y-107748095D02*
X114685890Y-107748095D01*
X114685890Y-107748095D02*
X114495414Y-107795714D01*
X114495414Y-107795714D02*
X114400176Y-107843333D01*
X114400176Y-107843333D02*
X114304938Y-107938571D01*
X114304938Y-107938571D02*
X114257319Y-108081428D01*
X114257319Y-108081428D02*
X114257319Y-108176666D01*
X114257319Y-108176666D02*
X114304938Y-108319523D01*
X114304938Y-108319523D02*
X114352557Y-108367142D01*
X115257319Y-109319523D02*
X115257319Y-108748095D01*
X115257319Y-109033809D02*
X114257319Y-109033809D01*
X114257319Y-109033809D02*
X114400176Y-108938571D01*
X114400176Y-108938571D02*
X114495414Y-108843333D01*
X114495414Y-108843333D02*
X114543033Y-108748095D01*
X114352557Y-109700476D02*
X114304938Y-109748095D01*
X114304938Y-109748095D02*
X114257319Y-109843333D01*
X114257319Y-109843333D02*
X114257319Y-110081428D01*
X114257319Y-110081428D02*
X114304938Y-110176666D01*
X114304938Y-110176666D02*
X114352557Y-110224285D01*
X114352557Y-110224285D02*
X114447795Y-110271904D01*
X114447795Y-110271904D02*
X114543033Y-110271904D01*
X114543033Y-110271904D02*
X114685890Y-110224285D01*
X114685890Y-110224285D02*
X115257319Y-109652857D01*
X115257319Y-109652857D02*
X115257319Y-110271904D01*
X60927857Y-96199580D02*
X60975476Y-96247200D01*
X60975476Y-96247200D02*
X61118333Y-96294819D01*
X61118333Y-96294819D02*
X61213571Y-96294819D01*
X61213571Y-96294819D02*
X61356428Y-96247200D01*
X61356428Y-96247200D02*
X61451666Y-96151961D01*
X61451666Y-96151961D02*
X61499285Y-96056723D01*
X61499285Y-96056723D02*
X61546904Y-95866247D01*
X61546904Y-95866247D02*
X61546904Y-95723390D01*
X61546904Y-95723390D02*
X61499285Y-95532914D01*
X61499285Y-95532914D02*
X61451666Y-95437676D01*
X61451666Y-95437676D02*
X61356428Y-95342438D01*
X61356428Y-95342438D02*
X61213571Y-95294819D01*
X61213571Y-95294819D02*
X61118333Y-95294819D01*
X61118333Y-95294819D02*
X60975476Y-95342438D01*
X60975476Y-95342438D02*
X60927857Y-95390057D01*
X60070714Y-95628152D02*
X60070714Y-96294819D01*
X60308809Y-95247200D02*
X60546904Y-95961485D01*
X60546904Y-95961485D02*
X59927857Y-95961485D01*
X59642142Y-95294819D02*
X58975476Y-95294819D01*
X58975476Y-95294819D02*
X59404047Y-96294819D01*
X114482081Y-96447142D02*
X114529701Y-96399523D01*
X114529701Y-96399523D02*
X114577320Y-96256666D01*
X114577320Y-96256666D02*
X114577320Y-96161428D01*
X114577320Y-96161428D02*
X114529701Y-96018571D01*
X114529701Y-96018571D02*
X114434462Y-95923333D01*
X114434462Y-95923333D02*
X114339224Y-95875714D01*
X114339224Y-95875714D02*
X114148748Y-95828095D01*
X114148748Y-95828095D02*
X114005891Y-95828095D01*
X114005891Y-95828095D02*
X113815415Y-95875714D01*
X113815415Y-95875714D02*
X113720177Y-95923333D01*
X113720177Y-95923333D02*
X113624939Y-96018571D01*
X113624939Y-96018571D02*
X113577320Y-96161428D01*
X113577320Y-96161428D02*
X113577320Y-96256666D01*
X113577320Y-96256666D02*
X113624939Y-96399523D01*
X113624939Y-96399523D02*
X113672558Y-96447142D01*
X113577320Y-96780476D02*
X113577320Y-97399523D01*
X113577320Y-97399523D02*
X113958272Y-97066190D01*
X113958272Y-97066190D02*
X113958272Y-97209047D01*
X113958272Y-97209047D02*
X114005891Y-97304285D01*
X114005891Y-97304285D02*
X114053510Y-97351904D01*
X114053510Y-97351904D02*
X114148748Y-97399523D01*
X114148748Y-97399523D02*
X114386843Y-97399523D01*
X114386843Y-97399523D02*
X114482081Y-97351904D01*
X114482081Y-97351904D02*
X114529701Y-97304285D01*
X114529701Y-97304285D02*
X114577320Y-97209047D01*
X114577320Y-97209047D02*
X114577320Y-96923333D01*
X114577320Y-96923333D02*
X114529701Y-96828095D01*
X114529701Y-96828095D02*
X114482081Y-96780476D01*
X113577320Y-98256666D02*
X113577320Y-98066190D01*
X113577320Y-98066190D02*
X113624939Y-97970952D01*
X113624939Y-97970952D02*
X113672558Y-97923333D01*
X113672558Y-97923333D02*
X113815415Y-97828095D01*
X113815415Y-97828095D02*
X114005891Y-97780476D01*
X114005891Y-97780476D02*
X114386843Y-97780476D01*
X114386843Y-97780476D02*
X114482081Y-97828095D01*
X114482081Y-97828095D02*
X114529701Y-97875714D01*
X114529701Y-97875714D02*
X114577320Y-97970952D01*
X114577320Y-97970952D02*
X114577320Y-98161428D01*
X114577320Y-98161428D02*
X114529701Y-98256666D01*
X114529701Y-98256666D02*
X114482081Y-98304285D01*
X114482081Y-98304285D02*
X114386843Y-98351904D01*
X114386843Y-98351904D02*
X114148748Y-98351904D01*
X114148748Y-98351904D02*
X114053510Y-98304285D01*
X114053510Y-98304285D02*
X114005891Y-98256666D01*
X114005891Y-98256666D02*
X113958272Y-98161428D01*
X113958272Y-98161428D02*
X113958272Y-97970952D01*
X113958272Y-97970952D02*
X114005891Y-97875714D01*
X114005891Y-97875714D02*
X114053510Y-97828095D01*
X114053510Y-97828095D02*
X114148748Y-97780476D01*
X122362080Y-93122141D02*
X122409700Y-93074522D01*
X122409700Y-93074522D02*
X122457319Y-92931665D01*
X122457319Y-92931665D02*
X122457319Y-92836427D01*
X122457319Y-92836427D02*
X122409700Y-92693570D01*
X122409700Y-92693570D02*
X122314461Y-92598332D01*
X122314461Y-92598332D02*
X122219223Y-92550713D01*
X122219223Y-92550713D02*
X122028747Y-92503094D01*
X122028747Y-92503094D02*
X121885890Y-92503094D01*
X121885890Y-92503094D02*
X121695414Y-92550713D01*
X121695414Y-92550713D02*
X121600176Y-92598332D01*
X121600176Y-92598332D02*
X121504938Y-92693570D01*
X121504938Y-92693570D02*
X121457319Y-92836427D01*
X121457319Y-92836427D02*
X121457319Y-92931665D01*
X121457319Y-92931665D02*
X121504938Y-93074522D01*
X121504938Y-93074522D02*
X121552557Y-93122141D01*
X121457319Y-93455475D02*
X121457319Y-94074522D01*
X121457319Y-94074522D02*
X121838271Y-93741189D01*
X121838271Y-93741189D02*
X121838271Y-93884046D01*
X121838271Y-93884046D02*
X121885890Y-93979284D01*
X121885890Y-93979284D02*
X121933509Y-94026903D01*
X121933509Y-94026903D02*
X122028747Y-94074522D01*
X122028747Y-94074522D02*
X122266842Y-94074522D01*
X122266842Y-94074522D02*
X122362080Y-94026903D01*
X122362080Y-94026903D02*
X122409700Y-93979284D01*
X122409700Y-93979284D02*
X122457319Y-93884046D01*
X122457319Y-93884046D02*
X122457319Y-93598332D01*
X122457319Y-93598332D02*
X122409700Y-93503094D01*
X122409700Y-93503094D02*
X122362080Y-93455475D01*
X122457319Y-94550713D02*
X122457319Y-94741189D01*
X122457319Y-94741189D02*
X122409700Y-94836427D01*
X122409700Y-94836427D02*
X122362080Y-94884046D01*
X122362080Y-94884046D02*
X122219223Y-94979284D01*
X122219223Y-94979284D02*
X122028747Y-95026903D01*
X122028747Y-95026903D02*
X121647795Y-95026903D01*
X121647795Y-95026903D02*
X121552557Y-94979284D01*
X121552557Y-94979284D02*
X121504938Y-94931665D01*
X121504938Y-94931665D02*
X121457319Y-94836427D01*
X121457319Y-94836427D02*
X121457319Y-94645951D01*
X121457319Y-94645951D02*
X121504938Y-94550713D01*
X121504938Y-94550713D02*
X121552557Y-94503094D01*
X121552557Y-94503094D02*
X121647795Y-94455475D01*
X121647795Y-94455475D02*
X121885890Y-94455475D01*
X121885890Y-94455475D02*
X121981128Y-94503094D01*
X121981128Y-94503094D02*
X122028747Y-94550713D01*
X122028747Y-94550713D02*
X122076366Y-94645951D01*
X122076366Y-94645951D02*
X122076366Y-94836427D01*
X122076366Y-94836427D02*
X122028747Y-94931665D01*
X122028747Y-94931665D02*
X121981128Y-94979284D01*
X121981128Y-94979284D02*
X121885890Y-95026903D01*
X116062082Y-97447141D02*
X116109702Y-97399522D01*
X116109702Y-97399522D02*
X116157321Y-97256665D01*
X116157321Y-97256665D02*
X116157321Y-97161427D01*
X116157321Y-97161427D02*
X116109702Y-97018570D01*
X116109702Y-97018570D02*
X116014463Y-96923332D01*
X116014463Y-96923332D02*
X115919225Y-96875713D01*
X115919225Y-96875713D02*
X115728749Y-96828094D01*
X115728749Y-96828094D02*
X115585892Y-96828094D01*
X115585892Y-96828094D02*
X115395416Y-96875713D01*
X115395416Y-96875713D02*
X115300178Y-96923332D01*
X115300178Y-96923332D02*
X115204940Y-97018570D01*
X115204940Y-97018570D02*
X115157321Y-97161427D01*
X115157321Y-97161427D02*
X115157321Y-97256665D01*
X115157321Y-97256665D02*
X115204940Y-97399522D01*
X115204940Y-97399522D02*
X115252559Y-97447141D01*
X115157321Y-97780475D02*
X115157321Y-98399522D01*
X115157321Y-98399522D02*
X115538273Y-98066189D01*
X115538273Y-98066189D02*
X115538273Y-98209046D01*
X115538273Y-98209046D02*
X115585892Y-98304284D01*
X115585892Y-98304284D02*
X115633511Y-98351903D01*
X115633511Y-98351903D02*
X115728749Y-98399522D01*
X115728749Y-98399522D02*
X115966844Y-98399522D01*
X115966844Y-98399522D02*
X116062082Y-98351903D01*
X116062082Y-98351903D02*
X116109702Y-98304284D01*
X116109702Y-98304284D02*
X116157321Y-98209046D01*
X116157321Y-98209046D02*
X116157321Y-97923332D01*
X116157321Y-97923332D02*
X116109702Y-97828094D01*
X116109702Y-97828094D02*
X116062082Y-97780475D01*
X115157321Y-98732856D02*
X115157321Y-99399522D01*
X115157321Y-99399522D02*
X116157321Y-98970951D01*
X113062082Y-97447141D02*
X113109702Y-97399522D01*
X113109702Y-97399522D02*
X113157321Y-97256665D01*
X113157321Y-97256665D02*
X113157321Y-97161427D01*
X113157321Y-97161427D02*
X113109702Y-97018570D01*
X113109702Y-97018570D02*
X113014463Y-96923332D01*
X113014463Y-96923332D02*
X112919225Y-96875713D01*
X112919225Y-96875713D02*
X112728749Y-96828094D01*
X112728749Y-96828094D02*
X112585892Y-96828094D01*
X112585892Y-96828094D02*
X112395416Y-96875713D01*
X112395416Y-96875713D02*
X112300178Y-96923332D01*
X112300178Y-96923332D02*
X112204940Y-97018570D01*
X112204940Y-97018570D02*
X112157321Y-97161427D01*
X112157321Y-97161427D02*
X112157321Y-97256665D01*
X112157321Y-97256665D02*
X112204940Y-97399522D01*
X112204940Y-97399522D02*
X112252559Y-97447141D01*
X112157321Y-97780475D02*
X112157321Y-98399522D01*
X112157321Y-98399522D02*
X112538273Y-98066189D01*
X112538273Y-98066189D02*
X112538273Y-98209046D01*
X112538273Y-98209046D02*
X112585892Y-98304284D01*
X112585892Y-98304284D02*
X112633511Y-98351903D01*
X112633511Y-98351903D02*
X112728749Y-98399522D01*
X112728749Y-98399522D02*
X112966844Y-98399522D01*
X112966844Y-98399522D02*
X113062082Y-98351903D01*
X113062082Y-98351903D02*
X113109702Y-98304284D01*
X113109702Y-98304284D02*
X113157321Y-98209046D01*
X113157321Y-98209046D02*
X113157321Y-97923332D01*
X113157321Y-97923332D02*
X113109702Y-97828094D01*
X113109702Y-97828094D02*
X113062082Y-97780475D01*
X112157321Y-99304284D02*
X112157321Y-98828094D01*
X112157321Y-98828094D02*
X112633511Y-98780475D01*
X112633511Y-98780475D02*
X112585892Y-98828094D01*
X112585892Y-98828094D02*
X112538273Y-98923332D01*
X112538273Y-98923332D02*
X112538273Y-99161427D01*
X112538273Y-99161427D02*
X112585892Y-99256665D01*
X112585892Y-99256665D02*
X112633511Y-99304284D01*
X112633511Y-99304284D02*
X112728749Y-99351903D01*
X112728749Y-99351903D02*
X112966844Y-99351903D01*
X112966844Y-99351903D02*
X113062082Y-99304284D01*
X113062082Y-99304284D02*
X113109702Y-99256665D01*
X113109702Y-99256665D02*
X113157321Y-99161427D01*
X113157321Y-99161427D02*
X113157321Y-98923332D01*
X113157321Y-98923332D02*
X113109702Y-98828094D01*
X113109702Y-98828094D02*
X113062082Y-98780475D01*
X65864819Y-100597142D02*
X65388628Y-100263809D01*
X65864819Y-100025714D02*
X64864819Y-100025714D01*
X64864819Y-100025714D02*
X64864819Y-100406666D01*
X64864819Y-100406666D02*
X64912438Y-100501904D01*
X64912438Y-100501904D02*
X64960057Y-100549523D01*
X64960057Y-100549523D02*
X65055295Y-100597142D01*
X65055295Y-100597142D02*
X65198152Y-100597142D01*
X65198152Y-100597142D02*
X65293390Y-100549523D01*
X65293390Y-100549523D02*
X65341009Y-100501904D01*
X65341009Y-100501904D02*
X65388628Y-100406666D01*
X65388628Y-100406666D02*
X65388628Y-100025714D01*
X65198152Y-101454285D02*
X65864819Y-101454285D01*
X64817200Y-101216190D02*
X65531485Y-100978095D01*
X65531485Y-100978095D02*
X65531485Y-101597142D01*
X64864819Y-102168571D02*
X64864819Y-102263809D01*
X64864819Y-102263809D02*
X64912438Y-102359047D01*
X64912438Y-102359047D02*
X64960057Y-102406666D01*
X64960057Y-102406666D02*
X65055295Y-102454285D01*
X65055295Y-102454285D02*
X65245771Y-102501904D01*
X65245771Y-102501904D02*
X65483866Y-102501904D01*
X65483866Y-102501904D02*
X65674342Y-102454285D01*
X65674342Y-102454285D02*
X65769580Y-102406666D01*
X65769580Y-102406666D02*
X65817200Y-102359047D01*
X65817200Y-102359047D02*
X65864819Y-102263809D01*
X65864819Y-102263809D02*
X65864819Y-102168571D01*
X65864819Y-102168571D02*
X65817200Y-102073333D01*
X65817200Y-102073333D02*
X65769580Y-102025714D01*
X65769580Y-102025714D02*
X65674342Y-101978095D01*
X65674342Y-101978095D02*
X65483866Y-101930476D01*
X65483866Y-101930476D02*
X65245771Y-101930476D01*
X65245771Y-101930476D02*
X65055295Y-101978095D01*
X65055295Y-101978095D02*
X64960057Y-102025714D01*
X64960057Y-102025714D02*
X64912438Y-102073333D01*
X64912438Y-102073333D02*
X64864819Y-102168571D01*
X117015357Y-111034819D02*
X117348690Y-110558628D01*
X117586785Y-111034819D02*
X117586785Y-110034819D01*
X117586785Y-110034819D02*
X117205833Y-110034819D01*
X117205833Y-110034819D02*
X117110595Y-110082438D01*
X117110595Y-110082438D02*
X117062976Y-110130057D01*
X117062976Y-110130057D02*
X117015357Y-110225295D01*
X117015357Y-110225295D02*
X117015357Y-110368152D01*
X117015357Y-110368152D02*
X117062976Y-110463390D01*
X117062976Y-110463390D02*
X117110595Y-110511009D01*
X117110595Y-110511009D02*
X117205833Y-110558628D01*
X117205833Y-110558628D02*
X117586785Y-110558628D01*
X116634404Y-110130057D02*
X116586785Y-110082438D01*
X116586785Y-110082438D02*
X116491547Y-110034819D01*
X116491547Y-110034819D02*
X116253452Y-110034819D01*
X116253452Y-110034819D02*
X116158214Y-110082438D01*
X116158214Y-110082438D02*
X116110595Y-110130057D01*
X116110595Y-110130057D02*
X116062976Y-110225295D01*
X116062976Y-110225295D02*
X116062976Y-110320533D01*
X116062976Y-110320533D02*
X116110595Y-110463390D01*
X116110595Y-110463390D02*
X116682023Y-111034819D01*
X116682023Y-111034819D02*
X116062976Y-111034819D01*
X115729642Y-110034819D02*
X115110595Y-110034819D01*
X115110595Y-110034819D02*
X115443928Y-110415771D01*
X115443928Y-110415771D02*
X115301071Y-110415771D01*
X115301071Y-110415771D02*
X115205833Y-110463390D01*
X115205833Y-110463390D02*
X115158214Y-110511009D01*
X115158214Y-110511009D02*
X115110595Y-110606247D01*
X115110595Y-110606247D02*
X115110595Y-110844342D01*
X115110595Y-110844342D02*
X115158214Y-110939580D01*
X115158214Y-110939580D02*
X115205833Y-110987200D01*
X115205833Y-110987200D02*
X115301071Y-111034819D01*
X115301071Y-111034819D02*
X115586785Y-111034819D01*
X115586785Y-111034819D02*
X115682023Y-110987200D01*
X115682023Y-110987200D02*
X115729642Y-110939580D01*
X101759580Y-106207141D02*
X101807200Y-106159522D01*
X101807200Y-106159522D02*
X101854819Y-106016665D01*
X101854819Y-106016665D02*
X101854819Y-105921427D01*
X101854819Y-105921427D02*
X101807200Y-105778570D01*
X101807200Y-105778570D02*
X101711961Y-105683332D01*
X101711961Y-105683332D02*
X101616723Y-105635713D01*
X101616723Y-105635713D02*
X101426247Y-105588094D01*
X101426247Y-105588094D02*
X101283390Y-105588094D01*
X101283390Y-105588094D02*
X101092914Y-105635713D01*
X101092914Y-105635713D02*
X100997676Y-105683332D01*
X100997676Y-105683332D02*
X100902438Y-105778570D01*
X100902438Y-105778570D02*
X100854819Y-105921427D01*
X100854819Y-105921427D02*
X100854819Y-106016665D01*
X100854819Y-106016665D02*
X100902438Y-106159522D01*
X100902438Y-106159522D02*
X100950057Y-106207141D01*
X101854819Y-107159522D02*
X101854819Y-106588094D01*
X101854819Y-106873808D02*
X100854819Y-106873808D01*
X100854819Y-106873808D02*
X100997676Y-106778570D01*
X100997676Y-106778570D02*
X101092914Y-106683332D01*
X101092914Y-106683332D02*
X101140533Y-106588094D01*
X101188152Y-108016665D02*
X101854819Y-108016665D01*
X100807200Y-107778570D02*
X101521485Y-107540475D01*
X101521485Y-107540475D02*
X101521485Y-108159522D01*
X88064819Y-100137142D02*
X87588628Y-99803809D01*
X88064819Y-99565714D02*
X87064819Y-99565714D01*
X87064819Y-99565714D02*
X87064819Y-99946666D01*
X87064819Y-99946666D02*
X87112438Y-100041904D01*
X87112438Y-100041904D02*
X87160057Y-100089523D01*
X87160057Y-100089523D02*
X87255295Y-100137142D01*
X87255295Y-100137142D02*
X87398152Y-100137142D01*
X87398152Y-100137142D02*
X87493390Y-100089523D01*
X87493390Y-100089523D02*
X87541009Y-100041904D01*
X87541009Y-100041904D02*
X87588628Y-99946666D01*
X87588628Y-99946666D02*
X87588628Y-99565714D01*
X87398152Y-100994285D02*
X88064819Y-100994285D01*
X87017200Y-100756190D02*
X87731485Y-100518095D01*
X87731485Y-100518095D02*
X87731485Y-101137142D01*
X87064819Y-101422857D02*
X87064819Y-102089523D01*
X87064819Y-102089523D02*
X88064819Y-101660952D01*
X109676785Y-101644819D02*
X109676785Y-100644819D01*
X109676785Y-100644819D02*
X109438690Y-100644819D01*
X109438690Y-100644819D02*
X109295833Y-100692438D01*
X109295833Y-100692438D02*
X109200595Y-100787676D01*
X109200595Y-100787676D02*
X109152976Y-100882914D01*
X109152976Y-100882914D02*
X109105357Y-101073390D01*
X109105357Y-101073390D02*
X109105357Y-101216247D01*
X109105357Y-101216247D02*
X109152976Y-101406723D01*
X109152976Y-101406723D02*
X109200595Y-101501961D01*
X109200595Y-101501961D02*
X109295833Y-101597200D01*
X109295833Y-101597200D02*
X109438690Y-101644819D01*
X109438690Y-101644819D02*
X109676785Y-101644819D01*
X108152976Y-101644819D02*
X108724404Y-101644819D01*
X108438690Y-101644819D02*
X108438690Y-100644819D01*
X108438690Y-100644819D02*
X108533928Y-100787676D01*
X108533928Y-100787676D02*
X108629166Y-100882914D01*
X108629166Y-100882914D02*
X108724404Y-100930533D01*
X107819642Y-100644819D02*
X107200595Y-100644819D01*
X107200595Y-100644819D02*
X107533928Y-101025771D01*
X107533928Y-101025771D02*
X107391071Y-101025771D01*
X107391071Y-101025771D02*
X107295833Y-101073390D01*
X107295833Y-101073390D02*
X107248214Y-101121009D01*
X107248214Y-101121009D02*
X107200595Y-101216247D01*
X107200595Y-101216247D02*
X107200595Y-101454342D01*
X107200595Y-101454342D02*
X107248214Y-101549580D01*
X107248214Y-101549580D02*
X107295833Y-101597200D01*
X107295833Y-101597200D02*
X107391071Y-101644819D01*
X107391071Y-101644819D02*
X107676785Y-101644819D01*
X107676785Y-101644819D02*
X107772023Y-101597200D01*
X107772023Y-101597200D02*
X107819642Y-101549580D01*
X78589580Y-91647142D02*
X78637200Y-91599523D01*
X78637200Y-91599523D02*
X78684819Y-91456666D01*
X78684819Y-91456666D02*
X78684819Y-91361428D01*
X78684819Y-91361428D02*
X78637200Y-91218571D01*
X78637200Y-91218571D02*
X78541961Y-91123333D01*
X78541961Y-91123333D02*
X78446723Y-91075714D01*
X78446723Y-91075714D02*
X78256247Y-91028095D01*
X78256247Y-91028095D02*
X78113390Y-91028095D01*
X78113390Y-91028095D02*
X77922914Y-91075714D01*
X77922914Y-91075714D02*
X77827676Y-91123333D01*
X77827676Y-91123333D02*
X77732438Y-91218571D01*
X77732438Y-91218571D02*
X77684819Y-91361428D01*
X77684819Y-91361428D02*
X77684819Y-91456666D01*
X77684819Y-91456666D02*
X77732438Y-91599523D01*
X77732438Y-91599523D02*
X77780057Y-91647142D01*
X78018152Y-92504285D02*
X78684819Y-92504285D01*
X77637200Y-92266190D02*
X78351485Y-92028095D01*
X78351485Y-92028095D02*
X78351485Y-92647142D01*
X78018152Y-93456666D02*
X78684819Y-93456666D01*
X77637200Y-93218571D02*
X78351485Y-92980476D01*
X78351485Y-92980476D02*
X78351485Y-93599523D01*
X113652080Y-108377142D02*
X113699700Y-108329523D01*
X113699700Y-108329523D02*
X113747319Y-108186666D01*
X113747319Y-108186666D02*
X113747319Y-108091428D01*
X113747319Y-108091428D02*
X113699700Y-107948571D01*
X113699700Y-107948571D02*
X113604461Y-107853333D01*
X113604461Y-107853333D02*
X113509223Y-107805714D01*
X113509223Y-107805714D02*
X113318747Y-107758095D01*
X113318747Y-107758095D02*
X113175890Y-107758095D01*
X113175890Y-107758095D02*
X112985414Y-107805714D01*
X112985414Y-107805714D02*
X112890176Y-107853333D01*
X112890176Y-107853333D02*
X112794938Y-107948571D01*
X112794938Y-107948571D02*
X112747319Y-108091428D01*
X112747319Y-108091428D02*
X112747319Y-108186666D01*
X112747319Y-108186666D02*
X112794938Y-108329523D01*
X112794938Y-108329523D02*
X112842557Y-108377142D01*
X113747319Y-109329523D02*
X113747319Y-108758095D01*
X113747319Y-109043809D02*
X112747319Y-109043809D01*
X112747319Y-109043809D02*
X112890176Y-108948571D01*
X112890176Y-108948571D02*
X112985414Y-108853333D01*
X112985414Y-108853333D02*
X113033033Y-108758095D01*
X112747319Y-110234285D02*
X112747319Y-109758095D01*
X112747319Y-109758095D02*
X113223509Y-109710476D01*
X113223509Y-109710476D02*
X113175890Y-109758095D01*
X113175890Y-109758095D02*
X113128271Y-109853333D01*
X113128271Y-109853333D02*
X113128271Y-110091428D01*
X113128271Y-110091428D02*
X113175890Y-110186666D01*
X113175890Y-110186666D02*
X113223509Y-110234285D01*
X113223509Y-110234285D02*
X113318747Y-110281904D01*
X113318747Y-110281904D02*
X113556842Y-110281904D01*
X113556842Y-110281904D02*
X113652080Y-110234285D01*
X113652080Y-110234285D02*
X113699700Y-110186666D01*
X113699700Y-110186666D02*
X113747319Y-110091428D01*
X113747319Y-110091428D02*
X113747319Y-109853333D01*
X113747319Y-109853333D02*
X113699700Y-109758095D01*
X113699700Y-109758095D02*
X113652080Y-109710476D01*
X124427319Y-105797142D02*
X123951128Y-105463809D01*
X124427319Y-105225714D02*
X123427319Y-105225714D01*
X123427319Y-105225714D02*
X123427319Y-105606666D01*
X123427319Y-105606666D02*
X123474938Y-105701904D01*
X123474938Y-105701904D02*
X123522557Y-105749523D01*
X123522557Y-105749523D02*
X123617795Y-105797142D01*
X123617795Y-105797142D02*
X123760652Y-105797142D01*
X123760652Y-105797142D02*
X123855890Y-105749523D01*
X123855890Y-105749523D02*
X123903509Y-105701904D01*
X123903509Y-105701904D02*
X123951128Y-105606666D01*
X123951128Y-105606666D02*
X123951128Y-105225714D01*
X123522557Y-106178095D02*
X123474938Y-106225714D01*
X123474938Y-106225714D02*
X123427319Y-106320952D01*
X123427319Y-106320952D02*
X123427319Y-106559047D01*
X123427319Y-106559047D02*
X123474938Y-106654285D01*
X123474938Y-106654285D02*
X123522557Y-106701904D01*
X123522557Y-106701904D02*
X123617795Y-106749523D01*
X123617795Y-106749523D02*
X123713033Y-106749523D01*
X123713033Y-106749523D02*
X123855890Y-106701904D01*
X123855890Y-106701904D02*
X124427319Y-106130476D01*
X124427319Y-106130476D02*
X124427319Y-106749523D01*
X123855890Y-107320952D02*
X123808271Y-107225714D01*
X123808271Y-107225714D02*
X123760652Y-107178095D01*
X123760652Y-107178095D02*
X123665414Y-107130476D01*
X123665414Y-107130476D02*
X123617795Y-107130476D01*
X123617795Y-107130476D02*
X123522557Y-107178095D01*
X123522557Y-107178095D02*
X123474938Y-107225714D01*
X123474938Y-107225714D02*
X123427319Y-107320952D01*
X123427319Y-107320952D02*
X123427319Y-107511428D01*
X123427319Y-107511428D02*
X123474938Y-107606666D01*
X123474938Y-107606666D02*
X123522557Y-107654285D01*
X123522557Y-107654285D02*
X123617795Y-107701904D01*
X123617795Y-107701904D02*
X123665414Y-107701904D01*
X123665414Y-107701904D02*
X123760652Y-107654285D01*
X123760652Y-107654285D02*
X123808271Y-107606666D01*
X123808271Y-107606666D02*
X123855890Y-107511428D01*
X123855890Y-107511428D02*
X123855890Y-107320952D01*
X123855890Y-107320952D02*
X123903509Y-107225714D01*
X123903509Y-107225714D02*
X123951128Y-107178095D01*
X123951128Y-107178095D02*
X124046366Y-107130476D01*
X124046366Y-107130476D02*
X124236842Y-107130476D01*
X124236842Y-107130476D02*
X124332080Y-107178095D01*
X124332080Y-107178095D02*
X124379700Y-107225714D01*
X124379700Y-107225714D02*
X124427319Y-107320952D01*
X124427319Y-107320952D02*
X124427319Y-107511428D01*
X124427319Y-107511428D02*
X124379700Y-107606666D01*
X124379700Y-107606666D02*
X124332080Y-107654285D01*
X124332080Y-107654285D02*
X124236842Y-107701904D01*
X124236842Y-107701904D02*
X124046366Y-107701904D01*
X124046366Y-107701904D02*
X123951128Y-107654285D01*
X123951128Y-107654285D02*
X123903509Y-107606666D01*
X123903509Y-107606666D02*
X123855890Y-107511428D01*
X121042080Y-101427142D02*
X121089700Y-101379523D01*
X121089700Y-101379523D02*
X121137319Y-101236666D01*
X121137319Y-101236666D02*
X121137319Y-101141428D01*
X121137319Y-101141428D02*
X121089700Y-100998571D01*
X121089700Y-100998571D02*
X120994461Y-100903333D01*
X120994461Y-100903333D02*
X120899223Y-100855714D01*
X120899223Y-100855714D02*
X120708747Y-100808095D01*
X120708747Y-100808095D02*
X120565890Y-100808095D01*
X120565890Y-100808095D02*
X120375414Y-100855714D01*
X120375414Y-100855714D02*
X120280176Y-100903333D01*
X120280176Y-100903333D02*
X120184938Y-100998571D01*
X120184938Y-100998571D02*
X120137319Y-101141428D01*
X120137319Y-101141428D02*
X120137319Y-101236666D01*
X120137319Y-101236666D02*
X120184938Y-101379523D01*
X120184938Y-101379523D02*
X120232557Y-101427142D01*
X120232557Y-101808095D02*
X120184938Y-101855714D01*
X120184938Y-101855714D02*
X120137319Y-101950952D01*
X120137319Y-101950952D02*
X120137319Y-102189047D01*
X120137319Y-102189047D02*
X120184938Y-102284285D01*
X120184938Y-102284285D02*
X120232557Y-102331904D01*
X120232557Y-102331904D02*
X120327795Y-102379523D01*
X120327795Y-102379523D02*
X120423033Y-102379523D01*
X120423033Y-102379523D02*
X120565890Y-102331904D01*
X120565890Y-102331904D02*
X121137319Y-101760476D01*
X121137319Y-101760476D02*
X121137319Y-102379523D01*
X120137319Y-102998571D02*
X120137319Y-103093809D01*
X120137319Y-103093809D02*
X120184938Y-103189047D01*
X120184938Y-103189047D02*
X120232557Y-103236666D01*
X120232557Y-103236666D02*
X120327795Y-103284285D01*
X120327795Y-103284285D02*
X120518271Y-103331904D01*
X120518271Y-103331904D02*
X120756366Y-103331904D01*
X120756366Y-103331904D02*
X120946842Y-103284285D01*
X120946842Y-103284285D02*
X121042080Y-103236666D01*
X121042080Y-103236666D02*
X121089700Y-103189047D01*
X121089700Y-103189047D02*
X121137319Y-103093809D01*
X121137319Y-103093809D02*
X121137319Y-102998571D01*
X121137319Y-102998571D02*
X121089700Y-102903333D01*
X121089700Y-102903333D02*
X121042080Y-102855714D01*
X121042080Y-102855714D02*
X120946842Y-102808095D01*
X120946842Y-102808095D02*
X120756366Y-102760476D01*
X120756366Y-102760476D02*
X120518271Y-102760476D01*
X120518271Y-102760476D02*
X120327795Y-102808095D01*
X120327795Y-102808095D02*
X120232557Y-102855714D01*
X120232557Y-102855714D02*
X120184938Y-102903333D01*
X120184938Y-102903333D02*
X120137319Y-102998571D01*
X115025358Y-93039580D02*
X115072977Y-93087200D01*
X115072977Y-93087200D02*
X115215834Y-93134819D01*
X115215834Y-93134819D02*
X115311072Y-93134819D01*
X115311072Y-93134819D02*
X115453929Y-93087200D01*
X115453929Y-93087200D02*
X115549167Y-92991961D01*
X115549167Y-92991961D02*
X115596786Y-92896723D01*
X115596786Y-92896723D02*
X115644405Y-92706247D01*
X115644405Y-92706247D02*
X115644405Y-92563390D01*
X115644405Y-92563390D02*
X115596786Y-92372914D01*
X115596786Y-92372914D02*
X115549167Y-92277676D01*
X115549167Y-92277676D02*
X115453929Y-92182438D01*
X115453929Y-92182438D02*
X115311072Y-92134819D01*
X115311072Y-92134819D02*
X115215834Y-92134819D01*
X115215834Y-92134819D02*
X115072977Y-92182438D01*
X115072977Y-92182438D02*
X115025358Y-92230057D01*
X114692024Y-92134819D02*
X114072977Y-92134819D01*
X114072977Y-92134819D02*
X114406310Y-92515771D01*
X114406310Y-92515771D02*
X114263453Y-92515771D01*
X114263453Y-92515771D02*
X114168215Y-92563390D01*
X114168215Y-92563390D02*
X114120596Y-92611009D01*
X114120596Y-92611009D02*
X114072977Y-92706247D01*
X114072977Y-92706247D02*
X114072977Y-92944342D01*
X114072977Y-92944342D02*
X114120596Y-93039580D01*
X114120596Y-93039580D02*
X114168215Y-93087200D01*
X114168215Y-93087200D02*
X114263453Y-93134819D01*
X114263453Y-93134819D02*
X114549167Y-93134819D01*
X114549167Y-93134819D02*
X114644405Y-93087200D01*
X114644405Y-93087200D02*
X114692024Y-93039580D01*
X113501548Y-92563390D02*
X113596786Y-92515771D01*
X113596786Y-92515771D02*
X113644405Y-92468152D01*
X113644405Y-92468152D02*
X113692024Y-92372914D01*
X113692024Y-92372914D02*
X113692024Y-92325295D01*
X113692024Y-92325295D02*
X113644405Y-92230057D01*
X113644405Y-92230057D02*
X113596786Y-92182438D01*
X113596786Y-92182438D02*
X113501548Y-92134819D01*
X113501548Y-92134819D02*
X113311072Y-92134819D01*
X113311072Y-92134819D02*
X113215834Y-92182438D01*
X113215834Y-92182438D02*
X113168215Y-92230057D01*
X113168215Y-92230057D02*
X113120596Y-92325295D01*
X113120596Y-92325295D02*
X113120596Y-92372914D01*
X113120596Y-92372914D02*
X113168215Y-92468152D01*
X113168215Y-92468152D02*
X113215834Y-92515771D01*
X113215834Y-92515771D02*
X113311072Y-92563390D01*
X113311072Y-92563390D02*
X113501548Y-92563390D01*
X113501548Y-92563390D02*
X113596786Y-92611009D01*
X113596786Y-92611009D02*
X113644405Y-92658628D01*
X113644405Y-92658628D02*
X113692024Y-92753866D01*
X113692024Y-92753866D02*
X113692024Y-92944342D01*
X113692024Y-92944342D02*
X113644405Y-93039580D01*
X113644405Y-93039580D02*
X113596786Y-93087200D01*
X113596786Y-93087200D02*
X113501548Y-93134819D01*
X113501548Y-93134819D02*
X113311072Y-93134819D01*
X113311072Y-93134819D02*
X113215834Y-93087200D01*
X113215834Y-93087200D02*
X113168215Y-93039580D01*
X113168215Y-93039580D02*
X113120596Y-92944342D01*
X113120596Y-92944342D02*
X113120596Y-92753866D01*
X113120596Y-92753866D02*
X113168215Y-92658628D01*
X113168215Y-92658628D02*
X113215834Y-92611009D01*
X113215834Y-92611009D02*
X113311072Y-92563390D01*
X66436903Y-92054819D02*
X66436903Y-92864342D01*
X66436903Y-92864342D02*
X66389284Y-92959580D01*
X66389284Y-92959580D02*
X66341665Y-93007200D01*
X66341665Y-93007200D02*
X66246427Y-93054819D01*
X66246427Y-93054819D02*
X66055951Y-93054819D01*
X66055951Y-93054819D02*
X65960713Y-93007200D01*
X65960713Y-93007200D02*
X65913094Y-92959580D01*
X65913094Y-92959580D02*
X65865475Y-92864342D01*
X65865475Y-92864342D02*
X65865475Y-92054819D01*
X65484522Y-92054819D02*
X64865475Y-92054819D01*
X64865475Y-92054819D02*
X65198808Y-92435771D01*
X65198808Y-92435771D02*
X65055951Y-92435771D01*
X65055951Y-92435771D02*
X64960713Y-92483390D01*
X64960713Y-92483390D02*
X64913094Y-92531009D01*
X64913094Y-92531009D02*
X64865475Y-92626247D01*
X64865475Y-92626247D02*
X64865475Y-92864342D01*
X64865475Y-92864342D02*
X64913094Y-92959580D01*
X64913094Y-92959580D02*
X64960713Y-93007200D01*
X64960713Y-93007200D02*
X65055951Y-93054819D01*
X65055951Y-93054819D02*
X65341665Y-93054819D01*
X65341665Y-93054819D02*
X65436903Y-93007200D01*
X65436903Y-93007200D02*
X65484522Y-92959580D01*
X70968665Y-91048219D02*
X70968665Y-90048219D01*
X70968665Y-90048219D02*
X70730570Y-90048219D01*
X70730570Y-90048219D02*
X70587713Y-90095838D01*
X70587713Y-90095838D02*
X70492475Y-90191076D01*
X70492475Y-90191076D02*
X70444856Y-90286314D01*
X70444856Y-90286314D02*
X70397237Y-90476790D01*
X70397237Y-90476790D02*
X70397237Y-90619647D01*
X70397237Y-90619647D02*
X70444856Y-90810123D01*
X70444856Y-90810123D02*
X70492475Y-90905361D01*
X70492475Y-90905361D02*
X70587713Y-91000600D01*
X70587713Y-91000600D02*
X70730570Y-91048219D01*
X70730570Y-91048219D02*
X70968665Y-91048219D01*
X69587713Y-91000600D02*
X69682951Y-91048219D01*
X69682951Y-91048219D02*
X69873427Y-91048219D01*
X69873427Y-91048219D02*
X69968665Y-91000600D01*
X69968665Y-91000600D02*
X70016284Y-90905361D01*
X70016284Y-90905361D02*
X70016284Y-90524409D01*
X70016284Y-90524409D02*
X69968665Y-90429171D01*
X69968665Y-90429171D02*
X69873427Y-90381552D01*
X69873427Y-90381552D02*
X69682951Y-90381552D01*
X69682951Y-90381552D02*
X69587713Y-90429171D01*
X69587713Y-90429171D02*
X69540094Y-90524409D01*
X69540094Y-90524409D02*
X69540094Y-90619647D01*
X69540094Y-90619647D02*
X70016284Y-90714885D01*
X69159141Y-91000600D02*
X69063903Y-91048219D01*
X69063903Y-91048219D02*
X68873427Y-91048219D01*
X68873427Y-91048219D02*
X68778189Y-91000600D01*
X68778189Y-91000600D02*
X68730570Y-90905361D01*
X68730570Y-90905361D02*
X68730570Y-90857742D01*
X68730570Y-90857742D02*
X68778189Y-90762504D01*
X68778189Y-90762504D02*
X68873427Y-90714885D01*
X68873427Y-90714885D02*
X69016284Y-90714885D01*
X69016284Y-90714885D02*
X69111522Y-90667266D01*
X69111522Y-90667266D02*
X69159141Y-90572028D01*
X69159141Y-90572028D02*
X69159141Y-90524409D01*
X69159141Y-90524409D02*
X69111522Y-90429171D01*
X69111522Y-90429171D02*
X69016284Y-90381552D01*
X69016284Y-90381552D02*
X68873427Y-90381552D01*
X68873427Y-90381552D02*
X68778189Y-90429171D01*
X68301998Y-91048219D02*
X68301998Y-90381552D01*
X68301998Y-90048219D02*
X68349617Y-90095838D01*
X68349617Y-90095838D02*
X68301998Y-90143457D01*
X68301998Y-90143457D02*
X68254379Y-90095838D01*
X68254379Y-90095838D02*
X68301998Y-90048219D01*
X68301998Y-90048219D02*
X68301998Y-90143457D01*
X67397237Y-90381552D02*
X67397237Y-91191076D01*
X67397237Y-91191076D02*
X67444856Y-91286314D01*
X67444856Y-91286314D02*
X67492475Y-91333933D01*
X67492475Y-91333933D02*
X67587713Y-91381552D01*
X67587713Y-91381552D02*
X67730570Y-91381552D01*
X67730570Y-91381552D02*
X67825808Y-91333933D01*
X67397237Y-91000600D02*
X67492475Y-91048219D01*
X67492475Y-91048219D02*
X67682951Y-91048219D01*
X67682951Y-91048219D02*
X67778189Y-91000600D01*
X67778189Y-91000600D02*
X67825808Y-90952980D01*
X67825808Y-90952980D02*
X67873427Y-90857742D01*
X67873427Y-90857742D02*
X67873427Y-90572028D01*
X67873427Y-90572028D02*
X67825808Y-90476790D01*
X67825808Y-90476790D02*
X67778189Y-90429171D01*
X67778189Y-90429171D02*
X67682951Y-90381552D01*
X67682951Y-90381552D02*
X67492475Y-90381552D01*
X67492475Y-90381552D02*
X67397237Y-90429171D01*
X66921046Y-90381552D02*
X66921046Y-91048219D01*
X66921046Y-90476790D02*
X66873427Y-90429171D01*
X66873427Y-90429171D02*
X66778189Y-90381552D01*
X66778189Y-90381552D02*
X66635332Y-90381552D01*
X66635332Y-90381552D02*
X66540094Y-90429171D01*
X66540094Y-90429171D02*
X66492475Y-90524409D01*
X66492475Y-90524409D02*
X66492475Y-91048219D01*
X65587713Y-91048219D02*
X65587713Y-90524409D01*
X65587713Y-90524409D02*
X65635332Y-90429171D01*
X65635332Y-90429171D02*
X65730570Y-90381552D01*
X65730570Y-90381552D02*
X65921046Y-90381552D01*
X65921046Y-90381552D02*
X66016284Y-90429171D01*
X65587713Y-91000600D02*
X65682951Y-91048219D01*
X65682951Y-91048219D02*
X65921046Y-91048219D01*
X65921046Y-91048219D02*
X66016284Y-91000600D01*
X66016284Y-91000600D02*
X66063903Y-90905361D01*
X66063903Y-90905361D02*
X66063903Y-90810123D01*
X66063903Y-90810123D02*
X66016284Y-90714885D01*
X66016284Y-90714885D02*
X65921046Y-90667266D01*
X65921046Y-90667266D02*
X65682951Y-90667266D01*
X65682951Y-90667266D02*
X65587713Y-90619647D01*
X65254379Y-90381552D02*
X64873427Y-90381552D01*
X65111522Y-90048219D02*
X65111522Y-90905361D01*
X65111522Y-90905361D02*
X65063903Y-91000600D01*
X65063903Y-91000600D02*
X64968665Y-91048219D01*
X64968665Y-91048219D02*
X64873427Y-91048219D01*
X64397236Y-91048219D02*
X64492474Y-91000600D01*
X64492474Y-91000600D02*
X64540093Y-90952980D01*
X64540093Y-90952980D02*
X64587712Y-90857742D01*
X64587712Y-90857742D02*
X64587712Y-90572028D01*
X64587712Y-90572028D02*
X64540093Y-90476790D01*
X64540093Y-90476790D02*
X64492474Y-90429171D01*
X64492474Y-90429171D02*
X64397236Y-90381552D01*
X64397236Y-90381552D02*
X64254379Y-90381552D01*
X64254379Y-90381552D02*
X64159141Y-90429171D01*
X64159141Y-90429171D02*
X64111522Y-90476790D01*
X64111522Y-90476790D02*
X64063903Y-90572028D01*
X64063903Y-90572028D02*
X64063903Y-90857742D01*
X64063903Y-90857742D02*
X64111522Y-90952980D01*
X64111522Y-90952980D02*
X64159141Y-91000600D01*
X64159141Y-91000600D02*
X64254379Y-91048219D01*
X64254379Y-91048219D02*
X64397236Y-91048219D01*
X63635331Y-91048219D02*
X63635331Y-90381552D01*
X63635331Y-90572028D02*
X63587712Y-90476790D01*
X63587712Y-90476790D02*
X63540093Y-90429171D01*
X63540093Y-90429171D02*
X63444855Y-90381552D01*
X63444855Y-90381552D02*
X63349617Y-90381552D01*
X62492474Y-91048219D02*
X63063902Y-91048219D01*
X62778188Y-91048219D02*
X62778188Y-90048219D01*
X62778188Y-90048219D02*
X62873426Y-90191076D01*
X62873426Y-90191076D02*
X62968664Y-90286314D01*
X62968664Y-90286314D02*
X63063902Y-90333933D01*
X62159140Y-90048219D02*
X61492474Y-90048219D01*
X61492474Y-90048219D02*
X61921045Y-91048219D01*
X61159140Y-90143457D02*
X61111521Y-90095838D01*
X61111521Y-90095838D02*
X61016283Y-90048219D01*
X61016283Y-90048219D02*
X60778188Y-90048219D01*
X60778188Y-90048219D02*
X60682950Y-90095838D01*
X60682950Y-90095838D02*
X60635331Y-90143457D01*
X60635331Y-90143457D02*
X60587712Y-90238695D01*
X60587712Y-90238695D02*
X60587712Y-90333933D01*
X60587712Y-90333933D02*
X60635331Y-90476790D01*
X60635331Y-90476790D02*
X61206759Y-91048219D01*
X61206759Y-91048219D02*
X60587712Y-91048219D01*
X114345357Y-109784819D02*
X114678690Y-109308628D01*
X114916785Y-109784819D02*
X114916785Y-108784819D01*
X114916785Y-108784819D02*
X114535833Y-108784819D01*
X114535833Y-108784819D02*
X114440595Y-108832438D01*
X114440595Y-108832438D02*
X114392976Y-108880057D01*
X114392976Y-108880057D02*
X114345357Y-108975295D01*
X114345357Y-108975295D02*
X114345357Y-109118152D01*
X114345357Y-109118152D02*
X114392976Y-109213390D01*
X114392976Y-109213390D02*
X114440595Y-109261009D01*
X114440595Y-109261009D02*
X114535833Y-109308628D01*
X114535833Y-109308628D02*
X114916785Y-109308628D01*
X113964404Y-108880057D02*
X113916785Y-108832438D01*
X113916785Y-108832438D02*
X113821547Y-108784819D01*
X113821547Y-108784819D02*
X113583452Y-108784819D01*
X113583452Y-108784819D02*
X113488214Y-108832438D01*
X113488214Y-108832438D02*
X113440595Y-108880057D01*
X113440595Y-108880057D02*
X113392976Y-108975295D01*
X113392976Y-108975295D02*
X113392976Y-109070533D01*
X113392976Y-109070533D02*
X113440595Y-109213390D01*
X113440595Y-109213390D02*
X114012023Y-109784819D01*
X114012023Y-109784819D02*
X113392976Y-109784819D01*
X112535833Y-108784819D02*
X112726309Y-108784819D01*
X112726309Y-108784819D02*
X112821547Y-108832438D01*
X112821547Y-108832438D02*
X112869166Y-108880057D01*
X112869166Y-108880057D02*
X112964404Y-109022914D01*
X112964404Y-109022914D02*
X113012023Y-109213390D01*
X113012023Y-109213390D02*
X113012023Y-109594342D01*
X113012023Y-109594342D02*
X112964404Y-109689580D01*
X112964404Y-109689580D02*
X112916785Y-109737200D01*
X112916785Y-109737200D02*
X112821547Y-109784819D01*
X112821547Y-109784819D02*
X112631071Y-109784819D01*
X112631071Y-109784819D02*
X112535833Y-109737200D01*
X112535833Y-109737200D02*
X112488214Y-109689580D01*
X112488214Y-109689580D02*
X112440595Y-109594342D01*
X112440595Y-109594342D02*
X112440595Y-109356247D01*
X112440595Y-109356247D02*
X112488214Y-109261009D01*
X112488214Y-109261009D02*
X112535833Y-109213390D01*
X112535833Y-109213390D02*
X112631071Y-109165771D01*
X112631071Y-109165771D02*
X112821547Y-109165771D01*
X112821547Y-109165771D02*
X112916785Y-109213390D01*
X112916785Y-109213390D02*
X112964404Y-109261009D01*
X112964404Y-109261009D02*
X113012023Y-109356247D01*
X58382857Y-91269580D02*
X58430476Y-91317200D01*
X58430476Y-91317200D02*
X58573333Y-91364819D01*
X58573333Y-91364819D02*
X58668571Y-91364819D01*
X58668571Y-91364819D02*
X58811428Y-91317200D01*
X58811428Y-91317200D02*
X58906666Y-91221961D01*
X58906666Y-91221961D02*
X58954285Y-91126723D01*
X58954285Y-91126723D02*
X59001904Y-90936247D01*
X59001904Y-90936247D02*
X59001904Y-90793390D01*
X59001904Y-90793390D02*
X58954285Y-90602914D01*
X58954285Y-90602914D02*
X58906666Y-90507676D01*
X58906666Y-90507676D02*
X58811428Y-90412438D01*
X58811428Y-90412438D02*
X58668571Y-90364819D01*
X58668571Y-90364819D02*
X58573333Y-90364819D01*
X58573333Y-90364819D02*
X58430476Y-90412438D01*
X58430476Y-90412438D02*
X58382857Y-90460057D01*
X57525714Y-90698152D02*
X57525714Y-91364819D01*
X57763809Y-90317200D02*
X58001904Y-91031485D01*
X58001904Y-91031485D02*
X57382857Y-91031485D01*
X56859047Y-90793390D02*
X56954285Y-90745771D01*
X56954285Y-90745771D02*
X57001904Y-90698152D01*
X57001904Y-90698152D02*
X57049523Y-90602914D01*
X57049523Y-90602914D02*
X57049523Y-90555295D01*
X57049523Y-90555295D02*
X57001904Y-90460057D01*
X57001904Y-90460057D02*
X56954285Y-90412438D01*
X56954285Y-90412438D02*
X56859047Y-90364819D01*
X56859047Y-90364819D02*
X56668571Y-90364819D01*
X56668571Y-90364819D02*
X56573333Y-90412438D01*
X56573333Y-90412438D02*
X56525714Y-90460057D01*
X56525714Y-90460057D02*
X56478095Y-90555295D01*
X56478095Y-90555295D02*
X56478095Y-90602914D01*
X56478095Y-90602914D02*
X56525714Y-90698152D01*
X56525714Y-90698152D02*
X56573333Y-90745771D01*
X56573333Y-90745771D02*
X56668571Y-90793390D01*
X56668571Y-90793390D02*
X56859047Y-90793390D01*
X56859047Y-90793390D02*
X56954285Y-90841009D01*
X56954285Y-90841009D02*
X57001904Y-90888628D01*
X57001904Y-90888628D02*
X57049523Y-90983866D01*
X57049523Y-90983866D02*
X57049523Y-91174342D01*
X57049523Y-91174342D02*
X57001904Y-91269580D01*
X57001904Y-91269580D02*
X56954285Y-91317200D01*
X56954285Y-91317200D02*
X56859047Y-91364819D01*
X56859047Y-91364819D02*
X56668571Y-91364819D01*
X56668571Y-91364819D02*
X56573333Y-91317200D01*
X56573333Y-91317200D02*
X56525714Y-91269580D01*
X56525714Y-91269580D02*
X56478095Y-91174342D01*
X56478095Y-91174342D02*
X56478095Y-90983866D01*
X56478095Y-90983866D02*
X56525714Y-90888628D01*
X56525714Y-90888628D02*
X56573333Y-90841009D01*
X56573333Y-90841009D02*
X56668571Y-90793390D01*
X114462080Y-101247141D02*
X114509700Y-101199522D01*
X114509700Y-101199522D02*
X114557319Y-101056665D01*
X114557319Y-101056665D02*
X114557319Y-100961427D01*
X114557319Y-100961427D02*
X114509700Y-100818570D01*
X114509700Y-100818570D02*
X114414461Y-100723332D01*
X114414461Y-100723332D02*
X114319223Y-100675713D01*
X114319223Y-100675713D02*
X114128747Y-100628094D01*
X114128747Y-100628094D02*
X113985890Y-100628094D01*
X113985890Y-100628094D02*
X113795414Y-100675713D01*
X113795414Y-100675713D02*
X113700176Y-100723332D01*
X113700176Y-100723332D02*
X113604938Y-100818570D01*
X113604938Y-100818570D02*
X113557319Y-100961427D01*
X113557319Y-100961427D02*
X113557319Y-101056665D01*
X113557319Y-101056665D02*
X113604938Y-101199522D01*
X113604938Y-101199522D02*
X113652557Y-101247141D01*
X114557319Y-102199522D02*
X114557319Y-101628094D01*
X114557319Y-101913808D02*
X113557319Y-101913808D01*
X113557319Y-101913808D02*
X113700176Y-101818570D01*
X113700176Y-101818570D02*
X113795414Y-101723332D01*
X113795414Y-101723332D02*
X113843033Y-101628094D01*
X114557319Y-102675713D02*
X114557319Y-102866189D01*
X114557319Y-102866189D02*
X114509700Y-102961427D01*
X114509700Y-102961427D02*
X114462080Y-103009046D01*
X114462080Y-103009046D02*
X114319223Y-103104284D01*
X114319223Y-103104284D02*
X114128747Y-103151903D01*
X114128747Y-103151903D02*
X113747795Y-103151903D01*
X113747795Y-103151903D02*
X113652557Y-103104284D01*
X113652557Y-103104284D02*
X113604938Y-103056665D01*
X113604938Y-103056665D02*
X113557319Y-102961427D01*
X113557319Y-102961427D02*
X113557319Y-102770951D01*
X113557319Y-102770951D02*
X113604938Y-102675713D01*
X113604938Y-102675713D02*
X113652557Y-102628094D01*
X113652557Y-102628094D02*
X113747795Y-102580475D01*
X113747795Y-102580475D02*
X113985890Y-102580475D01*
X113985890Y-102580475D02*
X114081128Y-102628094D01*
X114081128Y-102628094D02*
X114128747Y-102675713D01*
X114128747Y-102675713D02*
X114176366Y-102770951D01*
X114176366Y-102770951D02*
X114176366Y-102961427D01*
X114176366Y-102961427D02*
X114128747Y-103056665D01*
X114128747Y-103056665D02*
X114081128Y-103104284D01*
X114081128Y-103104284D02*
X113985890Y-103151903D01*
X103725357Y-108254819D02*
X104058690Y-107778628D01*
X104296785Y-108254819D02*
X104296785Y-107254819D01*
X104296785Y-107254819D02*
X103915833Y-107254819D01*
X103915833Y-107254819D02*
X103820595Y-107302438D01*
X103820595Y-107302438D02*
X103772976Y-107350057D01*
X103772976Y-107350057D02*
X103725357Y-107445295D01*
X103725357Y-107445295D02*
X103725357Y-107588152D01*
X103725357Y-107588152D02*
X103772976Y-107683390D01*
X103772976Y-107683390D02*
X103820595Y-107731009D01*
X103820595Y-107731009D02*
X103915833Y-107778628D01*
X103915833Y-107778628D02*
X104296785Y-107778628D01*
X103344404Y-107350057D02*
X103296785Y-107302438D01*
X103296785Y-107302438D02*
X103201547Y-107254819D01*
X103201547Y-107254819D02*
X102963452Y-107254819D01*
X102963452Y-107254819D02*
X102868214Y-107302438D01*
X102868214Y-107302438D02*
X102820595Y-107350057D01*
X102820595Y-107350057D02*
X102772976Y-107445295D01*
X102772976Y-107445295D02*
X102772976Y-107540533D01*
X102772976Y-107540533D02*
X102820595Y-107683390D01*
X102820595Y-107683390D02*
X103392023Y-108254819D01*
X103392023Y-108254819D02*
X102772976Y-108254819D01*
X101868214Y-107254819D02*
X102344404Y-107254819D01*
X102344404Y-107254819D02*
X102392023Y-107731009D01*
X102392023Y-107731009D02*
X102344404Y-107683390D01*
X102344404Y-107683390D02*
X102249166Y-107635771D01*
X102249166Y-107635771D02*
X102011071Y-107635771D01*
X102011071Y-107635771D02*
X101915833Y-107683390D01*
X101915833Y-107683390D02*
X101868214Y-107731009D01*
X101868214Y-107731009D02*
X101820595Y-107826247D01*
X101820595Y-107826247D02*
X101820595Y-108064342D01*
X101820595Y-108064342D02*
X101868214Y-108159580D01*
X101868214Y-108159580D02*
X101915833Y-108207200D01*
X101915833Y-108207200D02*
X102011071Y-108254819D01*
X102011071Y-108254819D02*
X102249166Y-108254819D01*
X102249166Y-108254819D02*
X102344404Y-108207200D01*
X102344404Y-108207200D02*
X102392023Y-108159580D01*
X80362857Y-99074819D02*
X80696190Y-98598628D01*
X80934285Y-99074819D02*
X80934285Y-98074819D01*
X80934285Y-98074819D02*
X80553333Y-98074819D01*
X80553333Y-98074819D02*
X80458095Y-98122438D01*
X80458095Y-98122438D02*
X80410476Y-98170057D01*
X80410476Y-98170057D02*
X80362857Y-98265295D01*
X80362857Y-98265295D02*
X80362857Y-98408152D01*
X80362857Y-98408152D02*
X80410476Y-98503390D01*
X80410476Y-98503390D02*
X80458095Y-98551009D01*
X80458095Y-98551009D02*
X80553333Y-98598628D01*
X80553333Y-98598628D02*
X80934285Y-98598628D01*
X79458095Y-98074819D02*
X79934285Y-98074819D01*
X79934285Y-98074819D02*
X79981904Y-98551009D01*
X79981904Y-98551009D02*
X79934285Y-98503390D01*
X79934285Y-98503390D02*
X79839047Y-98455771D01*
X79839047Y-98455771D02*
X79600952Y-98455771D01*
X79600952Y-98455771D02*
X79505714Y-98503390D01*
X79505714Y-98503390D02*
X79458095Y-98551009D01*
X79458095Y-98551009D02*
X79410476Y-98646247D01*
X79410476Y-98646247D02*
X79410476Y-98884342D01*
X79410476Y-98884342D02*
X79458095Y-98979580D01*
X79458095Y-98979580D02*
X79505714Y-99027200D01*
X79505714Y-99027200D02*
X79600952Y-99074819D01*
X79600952Y-99074819D02*
X79839047Y-99074819D01*
X79839047Y-99074819D02*
X79934285Y-99027200D01*
X79934285Y-99027200D02*
X79981904Y-98979580D01*
X79029523Y-98170057D02*
X78981904Y-98122438D01*
X78981904Y-98122438D02*
X78886666Y-98074819D01*
X78886666Y-98074819D02*
X78648571Y-98074819D01*
X78648571Y-98074819D02*
X78553333Y-98122438D01*
X78553333Y-98122438D02*
X78505714Y-98170057D01*
X78505714Y-98170057D02*
X78458095Y-98265295D01*
X78458095Y-98265295D02*
X78458095Y-98360533D01*
X78458095Y-98360533D02*
X78505714Y-98503390D01*
X78505714Y-98503390D02*
X79077142Y-99074819D01*
X79077142Y-99074819D02*
X78458095Y-99074819D01*
X77589580Y-91427142D02*
X77637200Y-91379523D01*
X77637200Y-91379523D02*
X77684819Y-91236666D01*
X77684819Y-91236666D02*
X77684819Y-91141428D01*
X77684819Y-91141428D02*
X77637200Y-90998571D01*
X77637200Y-90998571D02*
X77541961Y-90903333D01*
X77541961Y-90903333D02*
X77446723Y-90855714D01*
X77446723Y-90855714D02*
X77256247Y-90808095D01*
X77256247Y-90808095D02*
X77113390Y-90808095D01*
X77113390Y-90808095D02*
X76922914Y-90855714D01*
X76922914Y-90855714D02*
X76827676Y-90903333D01*
X76827676Y-90903333D02*
X76732438Y-90998571D01*
X76732438Y-90998571D02*
X76684819Y-91141428D01*
X76684819Y-91141428D02*
X76684819Y-91236666D01*
X76684819Y-91236666D02*
X76732438Y-91379523D01*
X76732438Y-91379523D02*
X76780057Y-91427142D01*
X77018152Y-92284285D02*
X77684819Y-92284285D01*
X76637200Y-92046190D02*
X77351485Y-91808095D01*
X77351485Y-91808095D02*
X77351485Y-92427142D01*
X76684819Y-93284285D02*
X76684819Y-92808095D01*
X76684819Y-92808095D02*
X77161009Y-92760476D01*
X77161009Y-92760476D02*
X77113390Y-92808095D01*
X77113390Y-92808095D02*
X77065771Y-92903333D01*
X77065771Y-92903333D02*
X77065771Y-93141428D01*
X77065771Y-93141428D02*
X77113390Y-93236666D01*
X77113390Y-93236666D02*
X77161009Y-93284285D01*
X77161009Y-93284285D02*
X77256247Y-93331904D01*
X77256247Y-93331904D02*
X77494342Y-93331904D01*
X77494342Y-93331904D02*
X77589580Y-93284285D01*
X77589580Y-93284285D02*
X77637200Y-93236666D01*
X77637200Y-93236666D02*
X77684819Y-93141428D01*
X77684819Y-93141428D02*
X77684819Y-92903333D01*
X77684819Y-92903333D02*
X77637200Y-92808095D01*
X77637200Y-92808095D02*
X77589580Y-92760476D01*
X101872080Y-93817142D02*
X101919700Y-93769523D01*
X101919700Y-93769523D02*
X101967319Y-93626666D01*
X101967319Y-93626666D02*
X101967319Y-93531428D01*
X101967319Y-93531428D02*
X101919700Y-93388571D01*
X101919700Y-93388571D02*
X101824461Y-93293333D01*
X101824461Y-93293333D02*
X101729223Y-93245714D01*
X101729223Y-93245714D02*
X101538747Y-93198095D01*
X101538747Y-93198095D02*
X101395890Y-93198095D01*
X101395890Y-93198095D02*
X101205414Y-93245714D01*
X101205414Y-93245714D02*
X101110176Y-93293333D01*
X101110176Y-93293333D02*
X101014938Y-93388571D01*
X101014938Y-93388571D02*
X100967319Y-93531428D01*
X100967319Y-93531428D02*
X100967319Y-93626666D01*
X100967319Y-93626666D02*
X101014938Y-93769523D01*
X101014938Y-93769523D02*
X101062557Y-93817142D01*
X101967319Y-94769523D02*
X101967319Y-94198095D01*
X101967319Y-94483809D02*
X100967319Y-94483809D01*
X100967319Y-94483809D02*
X101110176Y-94388571D01*
X101110176Y-94388571D02*
X101205414Y-94293333D01*
X101205414Y-94293333D02*
X101253033Y-94198095D01*
X100967319Y-95102857D02*
X100967319Y-95721904D01*
X100967319Y-95721904D02*
X101348271Y-95388571D01*
X101348271Y-95388571D02*
X101348271Y-95531428D01*
X101348271Y-95531428D02*
X101395890Y-95626666D01*
X101395890Y-95626666D02*
X101443509Y-95674285D01*
X101443509Y-95674285D02*
X101538747Y-95721904D01*
X101538747Y-95721904D02*
X101776842Y-95721904D01*
X101776842Y-95721904D02*
X101872080Y-95674285D01*
X101872080Y-95674285D02*
X101919700Y-95626666D01*
X101919700Y-95626666D02*
X101967319Y-95531428D01*
X101967319Y-95531428D02*
X101967319Y-95245714D01*
X101967319Y-95245714D02*
X101919700Y-95150476D01*
X101919700Y-95150476D02*
X101872080Y-95102857D01*
X73544819Y-103497142D02*
X73068628Y-103163809D01*
X73544819Y-102925714D02*
X72544819Y-102925714D01*
X72544819Y-102925714D02*
X72544819Y-103306666D01*
X72544819Y-103306666D02*
X72592438Y-103401904D01*
X72592438Y-103401904D02*
X72640057Y-103449523D01*
X72640057Y-103449523D02*
X72735295Y-103497142D01*
X72735295Y-103497142D02*
X72878152Y-103497142D01*
X72878152Y-103497142D02*
X72973390Y-103449523D01*
X72973390Y-103449523D02*
X73021009Y-103401904D01*
X73021009Y-103401904D02*
X73068628Y-103306666D01*
X73068628Y-103306666D02*
X73068628Y-102925714D01*
X72544819Y-104401904D02*
X72544819Y-103925714D01*
X72544819Y-103925714D02*
X73021009Y-103878095D01*
X73021009Y-103878095D02*
X72973390Y-103925714D01*
X72973390Y-103925714D02*
X72925771Y-104020952D01*
X72925771Y-104020952D02*
X72925771Y-104259047D01*
X72925771Y-104259047D02*
X72973390Y-104354285D01*
X72973390Y-104354285D02*
X73021009Y-104401904D01*
X73021009Y-104401904D02*
X73116247Y-104449523D01*
X73116247Y-104449523D02*
X73354342Y-104449523D01*
X73354342Y-104449523D02*
X73449580Y-104401904D01*
X73449580Y-104401904D02*
X73497200Y-104354285D01*
X73497200Y-104354285D02*
X73544819Y-104259047D01*
X73544819Y-104259047D02*
X73544819Y-104020952D01*
X73544819Y-104020952D02*
X73497200Y-103925714D01*
X73497200Y-103925714D02*
X73449580Y-103878095D01*
X72544819Y-105306666D02*
X72544819Y-105116190D01*
X72544819Y-105116190D02*
X72592438Y-105020952D01*
X72592438Y-105020952D02*
X72640057Y-104973333D01*
X72640057Y-104973333D02*
X72782914Y-104878095D01*
X72782914Y-104878095D02*
X72973390Y-104830476D01*
X72973390Y-104830476D02*
X73354342Y-104830476D01*
X73354342Y-104830476D02*
X73449580Y-104878095D01*
X73449580Y-104878095D02*
X73497200Y-104925714D01*
X73497200Y-104925714D02*
X73544819Y-105020952D01*
X73544819Y-105020952D02*
X73544819Y-105211428D01*
X73544819Y-105211428D02*
X73497200Y-105306666D01*
X73497200Y-105306666D02*
X73449580Y-105354285D01*
X73449580Y-105354285D02*
X73354342Y-105401904D01*
X73354342Y-105401904D02*
X73116247Y-105401904D01*
X73116247Y-105401904D02*
X73021009Y-105354285D01*
X73021009Y-105354285D02*
X72973390Y-105306666D01*
X72973390Y-105306666D02*
X72925771Y-105211428D01*
X72925771Y-105211428D02*
X72925771Y-105020952D01*
X72925771Y-105020952D02*
X72973390Y-104925714D01*
X72973390Y-104925714D02*
X73021009Y-104878095D01*
X73021009Y-104878095D02*
X73116247Y-104830476D01*
D11*
X67212143Y-106984318D02*
X67212143Y-105714318D01*
X67212143Y-105714318D02*
X66909762Y-105714318D01*
X66909762Y-105714318D02*
X66728333Y-105774794D01*
X66728333Y-105774794D02*
X66607381Y-105895746D01*
X66607381Y-105895746D02*
X66546904Y-106016699D01*
X66546904Y-106016699D02*
X66486428Y-106258603D01*
X66486428Y-106258603D02*
X66486428Y-106440032D01*
X66486428Y-106440032D02*
X66546904Y-106681937D01*
X66546904Y-106681937D02*
X66607381Y-106802889D01*
X66607381Y-106802889D02*
X66728333Y-106923842D01*
X66728333Y-106923842D02*
X66909762Y-106984318D01*
X66909762Y-106984318D02*
X67212143Y-106984318D01*
X65276904Y-106984318D02*
X66002619Y-106984318D01*
X65639762Y-106984318D02*
X65639762Y-105714318D01*
X65639762Y-105714318D02*
X65760714Y-105895746D01*
X65760714Y-105895746D02*
X65881666Y-106016699D01*
X65881666Y-106016699D02*
X66002619Y-106077175D01*
X64127857Y-105714318D02*
X64732619Y-105714318D01*
X64732619Y-105714318D02*
X64793095Y-106319080D01*
X64793095Y-106319080D02*
X64732619Y-106258603D01*
X64732619Y-106258603D02*
X64611666Y-106198127D01*
X64611666Y-106198127D02*
X64309285Y-106198127D01*
X64309285Y-106198127D02*
X64188333Y-106258603D01*
X64188333Y-106258603D02*
X64127857Y-106319080D01*
X64127857Y-106319080D02*
X64067380Y-106440032D01*
X64067380Y-106440032D02*
X64067380Y-106742413D01*
X64067380Y-106742413D02*
X64127857Y-106863365D01*
X64127857Y-106863365D02*
X64188333Y-106923842D01*
X64188333Y-106923842D02*
X64309285Y-106984318D01*
X64309285Y-106984318D02*
X64611666Y-106984318D01*
X64611666Y-106984318D02*
X64732619Y-106923842D01*
X64732619Y-106923842D02*
X64793095Y-106863365D01*
D10*
X110997319Y-100637142D02*
X110521128Y-100303809D01*
X110997319Y-100065714D02*
X109997319Y-100065714D01*
X109997319Y-100065714D02*
X109997319Y-100446666D01*
X109997319Y-100446666D02*
X110044938Y-100541904D01*
X110044938Y-100541904D02*
X110092557Y-100589523D01*
X110092557Y-100589523D02*
X110187795Y-100637142D01*
X110187795Y-100637142D02*
X110330652Y-100637142D01*
X110330652Y-100637142D02*
X110425890Y-100589523D01*
X110425890Y-100589523D02*
X110473509Y-100541904D01*
X110473509Y-100541904D02*
X110521128Y-100446666D01*
X110521128Y-100446666D02*
X110521128Y-100065714D01*
X110092557Y-101018095D02*
X110044938Y-101065714D01*
X110044938Y-101065714D02*
X109997319Y-101160952D01*
X109997319Y-101160952D02*
X109997319Y-101399047D01*
X109997319Y-101399047D02*
X110044938Y-101494285D01*
X110044938Y-101494285D02*
X110092557Y-101541904D01*
X110092557Y-101541904D02*
X110187795Y-101589523D01*
X110187795Y-101589523D02*
X110283033Y-101589523D01*
X110283033Y-101589523D02*
X110425890Y-101541904D01*
X110425890Y-101541904D02*
X110997319Y-100970476D01*
X110997319Y-100970476D02*
X110997319Y-101589523D01*
X109997319Y-101922857D02*
X109997319Y-102589523D01*
X109997319Y-102589523D02*
X110997319Y-102160952D01*
X100777319Y-97177142D02*
X100301128Y-96843809D01*
X100777319Y-96605714D02*
X99777319Y-96605714D01*
X99777319Y-96605714D02*
X99777319Y-96986666D01*
X99777319Y-96986666D02*
X99824938Y-97081904D01*
X99824938Y-97081904D02*
X99872557Y-97129523D01*
X99872557Y-97129523D02*
X99967795Y-97177142D01*
X99967795Y-97177142D02*
X100110652Y-97177142D01*
X100110652Y-97177142D02*
X100205890Y-97129523D01*
X100205890Y-97129523D02*
X100253509Y-97081904D01*
X100253509Y-97081904D02*
X100301128Y-96986666D01*
X100301128Y-96986666D02*
X100301128Y-96605714D01*
X99872557Y-97558095D02*
X99824938Y-97605714D01*
X99824938Y-97605714D02*
X99777319Y-97700952D01*
X99777319Y-97700952D02*
X99777319Y-97939047D01*
X99777319Y-97939047D02*
X99824938Y-98034285D01*
X99824938Y-98034285D02*
X99872557Y-98081904D01*
X99872557Y-98081904D02*
X99967795Y-98129523D01*
X99967795Y-98129523D02*
X100063033Y-98129523D01*
X100063033Y-98129523D02*
X100205890Y-98081904D01*
X100205890Y-98081904D02*
X100777319Y-97510476D01*
X100777319Y-97510476D02*
X100777319Y-98129523D01*
X100110652Y-98986666D02*
X100777319Y-98986666D01*
X99729700Y-98748571D02*
X100443985Y-98510476D01*
X100443985Y-98510476D02*
X100443985Y-99129523D01*
D12*
%TO.C,D1*%
X60681800Y-92990000D02*
G75*
G02*
X60529400Y-92990000I-76200J0D01*
G01*
X60529400Y-92990000D02*
G75*
G02*
X60681800Y-92990000I76200J0D01*
G01*
D13*
%TO.C,R55*%
X76730000Y-88783641D02*
X76730000Y-88476359D01*
X77490000Y-88783641D02*
X77490000Y-88476359D01*
D12*
%TO.C,Q9*%
X73883050Y-102416399D02*
X75838850Y-102416399D01*
X75838850Y-99063599D02*
X73883050Y-99063599D01*
D13*
%TO.C,R22*%
X116609758Y-109897500D02*
X116135242Y-109897500D01*
X116609758Y-110942500D02*
X116135242Y-110942500D01*
D12*
%TO.C,D2*%
X62856200Y-89610000D02*
G75*
G02*
X62703800Y-89610000I-76200J0D01*
G01*
X62703800Y-89610000D02*
G75*
G02*
X62856200Y-89610000I76200J0D01*
G01*
D13*
%TO.C,R54*%
X75260000Y-88743641D02*
X75260000Y-88436359D01*
X76020000Y-88743641D02*
X76020000Y-88436359D01*
%TO.C,R45*%
X84021944Y-95927742D02*
X84021944Y-96402258D01*
X85066944Y-95927742D02*
X85066944Y-96402258D01*
%TO.C,R53*%
X78930000Y-97946359D02*
X78930000Y-98253641D01*
X79690000Y-97946359D02*
X79690000Y-98253641D01*
%TO.C,C34*%
X110947500Y-97258748D02*
X110947500Y-97781252D01*
X112417500Y-97258748D02*
X112417500Y-97781252D01*
%TO.C,C32*%
X120867501Y-97778747D02*
X120867501Y-98301251D01*
X122337501Y-97778747D02*
X122337501Y-98301251D01*
%TO.C,R46*%
X82364166Y-96402258D02*
X82364166Y-95927742D01*
X83409166Y-96402258D02*
X83409166Y-95927742D01*
%TO.C,R18*%
X100232500Y-96826359D02*
X100232500Y-97133641D01*
X100992500Y-96826359D02*
X100992500Y-97133641D01*
%TO.C,R19*%
X100120000Y-109216358D02*
X100120000Y-109523640D01*
X100880000Y-109216358D02*
X100880000Y-109523640D01*
%TO.C,R48*%
X85679722Y-96402258D02*
X85679722Y-95927742D01*
X86724722Y-96402258D02*
X86724722Y-95927742D01*
%TO.C,C12*%
X114442500Y-106617836D02*
X114442500Y-106402164D01*
X115162500Y-106617836D02*
X115162500Y-106402164D01*
%TO.C,C47*%
X60514420Y-93830000D02*
X60795580Y-93830000D01*
X60514420Y-94850000D02*
X60795580Y-94850000D01*
%TO.C,C36*%
X108717500Y-97258748D02*
X108717500Y-97781252D01*
X110187500Y-97258748D02*
X110187500Y-97781252D01*
%TO.C,C39*%
X127742500Y-92227499D02*
X127742500Y-100287499D01*
X127742500Y-100287499D02*
X132262500Y-100287499D01*
X132262500Y-100287499D02*
X132262500Y-92227499D01*
%TO.C,C37*%
X125367501Y-97778747D02*
X125367501Y-98301251D01*
X126837501Y-97778747D02*
X126837501Y-98301251D01*
%TO.C,C35*%
X123117501Y-97778747D02*
X123117501Y-98301251D01*
X124587501Y-97778747D02*
X124587501Y-98301251D01*
%TO.C,R40*%
X61730000Y-101393641D02*
X61730000Y-101086359D01*
X62490000Y-101393641D02*
X62490000Y-101086359D01*
%TO.C,R23*%
X116135242Y-111487500D02*
X116609758Y-111487500D01*
X116135242Y-112532500D02*
X116609758Y-112532500D01*
%TO.C,C14*%
X101140000Y-109242163D02*
X101140000Y-109457835D01*
X101860000Y-109242163D02*
X101860000Y-109457835D01*
%TO.C,R47*%
X87337500Y-95927742D02*
X87337500Y-96402258D01*
X88382500Y-95927742D02*
X88382500Y-96402258D01*
%TO.C,D13*%
X110462500Y-102150000D02*
X113147500Y-102150000D01*
X113147500Y-100230000D02*
X110462500Y-100230000D01*
X113147500Y-102150000D02*
X113147500Y-100230000D01*
%TO.C,C44*%
X77770000Y-94682164D02*
X77770000Y-94897836D01*
X78490000Y-94682164D02*
X78490000Y-94897836D01*
%TO.C,C15*%
X113432500Y-106627836D02*
X113432500Y-106412164D01*
X114152500Y-106627836D02*
X114152500Y-106412164D01*
%TO.C,R28*%
X121950000Y-106677258D02*
X121950000Y-106202742D01*
X122995000Y-106677258D02*
X122995000Y-106202742D01*
%TO.C,C20*%
X118922500Y-101962164D02*
X118922500Y-102177836D01*
X119642500Y-101962164D02*
X119642500Y-102177836D01*
%TO.C,C38*%
X103872500Y-89420000D02*
X103872500Y-93940000D01*
X103872500Y-93940000D02*
X111932500Y-93940000D01*
X111932500Y-89420000D02*
X103872500Y-89420000D01*
%TO.C,R26*%
X116614758Y-108307500D02*
X116140242Y-108307500D01*
X116614758Y-109352500D02*
X116140242Y-109352500D01*
%TO.C,C48*%
X60599420Y-90400000D02*
X60880580Y-90400000D01*
X60599420Y-91420000D02*
X60880580Y-91420000D01*
%TO.C,C19*%
X115142500Y-101782163D02*
X115142500Y-101997835D01*
X115862500Y-101782163D02*
X115862500Y-101997835D01*
%TO.C,R25*%
X106319758Y-107277500D02*
X105845242Y-107277500D01*
X106319758Y-108322500D02*
X105845242Y-108322500D01*
%TO.C,R52*%
X77373641Y-98240000D02*
X77066359Y-98240000D01*
X77373641Y-99000000D02*
X77066359Y-99000000D01*
%TO.C,C45*%
X76650000Y-94682164D02*
X76650000Y-94897836D01*
X77370000Y-94682164D02*
X77370000Y-94897836D01*
%TO.C,C13*%
X101252500Y-96852164D02*
X101252500Y-97067836D01*
X101972500Y-96852164D02*
X101972500Y-97067836D01*
%TO.C,R56*%
X74005000Y-104367064D02*
X74005000Y-103912936D01*
X75475000Y-104367064D02*
X75475000Y-103912936D01*
D14*
%TO.C,D15*%
X63670000Y-102110000D02*
X66980000Y-102110000D01*
X63670000Y-103710000D02*
X66270000Y-103710000D01*
D13*
%TO.C,R27*%
X110162500Y-103626359D02*
X110162500Y-103933641D01*
X110922500Y-103626359D02*
X110922500Y-103933641D01*
%TO.C,R24*%
X99800000Y-101057258D02*
X99800000Y-100582742D01*
X100845000Y-101057258D02*
X100845000Y-100582742D01*
%TD*%
%LPC*%
D15*
%TO.C,BZ1*%
X150155000Y-71450000D03*
D16*
X152695000Y-71450000D03*
%TD*%
D17*
%TO.C,H1*%
X60900000Y-71700000D03*
%TD*%
%TO.C,H4*%
X192880000Y-119110000D03*
%TD*%
%TO.C,H3*%
X193260000Y-71430000D03*
%TD*%
D15*
%TO.C,J4*%
X125295000Y-71500000D03*
D16*
X127835000Y-71500000D03*
X130375000Y-71500000D03*
%TD*%
D18*
%TO.C,J3*%
X79122500Y-114850000D03*
D19*
X84122500Y-114850000D03*
%TD*%
D20*
%TO.C,U2*%
X169600000Y-93950000D03*
D21*
X167060000Y-93950000D03*
X164520000Y-93950000D03*
X161980000Y-93950000D03*
X159440000Y-93950000D03*
X156900000Y-93950000D03*
X154360000Y-93950000D03*
X151820000Y-93950000D03*
X151820000Y-101890000D03*
X154360000Y-101890000D03*
X156900000Y-101890000D03*
X159440000Y-101890000D03*
X161980000Y-101890000D03*
X164520000Y-101890000D03*
X167060000Y-101890000D03*
X169600000Y-101890000D03*
%TD*%
D18*
%TO.C,J2*%
X107732500Y-117190000D03*
D19*
X112732500Y-117190000D03*
%TD*%
D22*
%TO.C,J1*%
X62465000Y-89729999D03*
X62465000Y-95510001D03*
%TD*%
D17*
%TO.C,H2*%
X61370000Y-118810000D03*
%TD*%
D15*
%TO.C,J9*%
X144920000Y-89085000D03*
D16*
X144920000Y-91625000D03*
X144920000Y-94165000D03*
X144920000Y-96705000D03*
X144920000Y-99245000D03*
X144920000Y-101785000D03*
X144920000Y-104325000D03*
X144920000Y-106865000D03*
%TD*%
D15*
%TO.C,J7*%
X184150000Y-74340000D03*
D16*
X181610000Y-74340000D03*
X179070000Y-74340000D03*
X176530000Y-74340000D03*
X173990000Y-74340000D03*
X171450000Y-74340000D03*
X168910000Y-74340000D03*
X166370000Y-74340000D03*
%TD*%
D23*
%TO.C,D1*%
X59335600Y-92990000D03*
X58980000Y-92990000D03*
%TD*%
D24*
%TO.C,R55*%
X77110000Y-88120000D03*
X77110000Y-89140000D03*
%TD*%
D25*
%TO.C,Q9*%
X76111900Y-99789998D03*
X76111900Y-100739999D03*
X76111900Y-101690000D03*
X73610000Y-101690000D03*
X73610000Y-100739999D03*
X73610000Y-99789998D03*
%TD*%
D26*
%TO.C,R22*%
X115547500Y-110420000D03*
X117197500Y-110420000D03*
%TD*%
D23*
%TO.C,D2*%
X61510000Y-89610000D03*
X61154400Y-89610000D03*
%TD*%
D24*
%TO.C,R54*%
X75640000Y-88080000D03*
X75640000Y-89100000D03*
%TD*%
D27*
%TO.C,R45*%
X84544444Y-96990000D03*
X84544444Y-95340000D03*
%TD*%
D28*
%TO.C,R53*%
X79310000Y-98610000D03*
X79310000Y-97590000D03*
%TD*%
D29*
%TO.C,C34*%
X111682500Y-98470000D03*
X111682500Y-96570000D03*
%TD*%
%TO.C,C32*%
X121602501Y-98989999D03*
X121602501Y-97089999D03*
%TD*%
D30*
%TO.C,R46*%
X82886666Y-95340000D03*
X82886666Y-96990000D03*
%TD*%
D28*
%TO.C,R18*%
X100612500Y-97490000D03*
X100612500Y-96470000D03*
%TD*%
%TO.C,R19*%
X100500000Y-109879999D03*
X100500000Y-108859999D03*
%TD*%
D30*
%TO.C,R48*%
X86202222Y-95340000D03*
X86202222Y-96990000D03*
%TD*%
D31*
%TO.C,C12*%
X114802500Y-106030000D03*
X114802500Y-106990000D03*
%TD*%
D32*
%TO.C,C47*%
X61430000Y-94340000D03*
X59880000Y-94340000D03*
%TD*%
D29*
%TO.C,C36*%
X109452500Y-98470000D03*
X109452500Y-96570000D03*
%TD*%
D33*
%TO.C,C39*%
X130002500Y-98989999D03*
X130002500Y-92764999D03*
%TD*%
D29*
%TO.C,C37*%
X126102501Y-98989999D03*
X126102501Y-97089999D03*
%TD*%
%TO.C,C35*%
X123852501Y-98989999D03*
X123852501Y-97089999D03*
%TD*%
D24*
%TO.C,R40*%
X62110000Y-100730000D03*
X62110000Y-101750000D03*
%TD*%
D34*
%TO.C,R23*%
X117197500Y-112010000D03*
X115547500Y-112010000D03*
%TD*%
D35*
%TO.C,C14*%
X101500000Y-109829999D03*
X101500000Y-108869999D03*
%TD*%
D27*
%TO.C,R47*%
X87860000Y-96990000D03*
X87860000Y-95340000D03*
%TD*%
D36*
%TO.C,D13*%
X112400000Y-101190000D03*
X110525000Y-101190000D03*
%TD*%
D35*
%TO.C,C44*%
X78130000Y-95270000D03*
X78130000Y-94310000D03*
%TD*%
D31*
%TO.C,C15*%
X113792500Y-106040000D03*
X113792500Y-107000000D03*
%TD*%
D30*
%TO.C,R28*%
X122472500Y-105615000D03*
X122472500Y-107265000D03*
%TD*%
D35*
%TO.C,C20*%
X119282500Y-102550000D03*
X119282500Y-101590000D03*
%TD*%
D37*
%TO.C,C38*%
X105170000Y-91680000D03*
X111395000Y-91680000D03*
%TD*%
D38*
%TO.C,U3*%
X65800000Y-92600000D03*
X65549998Y-93099999D03*
X65549998Y-92100001D03*
%TD*%
D26*
%TO.C,R26*%
X115552500Y-108830000D03*
X117202500Y-108830000D03*
%TD*%
D32*
%TO.C,C48*%
X61515000Y-90910000D03*
X59965000Y-90910000D03*
%TD*%
D35*
%TO.C,C19*%
X115502500Y-102369999D03*
X115502500Y-101409999D03*
%TD*%
D26*
%TO.C,R25*%
X105257500Y-107800000D03*
X106907500Y-107800000D03*
%TD*%
D39*
%TO.C,R52*%
X76710000Y-98620000D03*
X77730000Y-98620000D03*
%TD*%
D35*
%TO.C,C45*%
X77010000Y-95270000D03*
X77010000Y-94310000D03*
%TD*%
%TO.C,C13*%
X101612500Y-97440000D03*
X101612500Y-96480000D03*
%TD*%
D40*
%TO.C,R56*%
X74740000Y-103227500D03*
X74740000Y-105052500D03*
%TD*%
D41*
%TO.C,D15*%
X66570000Y-102910000D03*
X63370000Y-102910000D03*
%TD*%
D28*
%TO.C,R27*%
X110542500Y-104290000D03*
X110542500Y-103270000D03*
%TD*%
D30*
%TO.C,R24*%
X100322500Y-99995000D03*
X100322500Y-101645000D03*
%TD*%
%LPD*%
M02*
