%TF.GenerationSoftware,KiCad,Pcbnew,8.0.6*%
%TF.CreationDate,2025-01-24T16:12:18-05:00*%
%TF.ProjectId,SCAN,5343414e-2e6b-4696-9361-645f70636258,v1.0*%
%TF.SameCoordinates,Original*%
%TF.FileFunction,Legend,Top*%
%TF.FilePolarity,Positive*%
%FSLAX46Y46*%
G04 Gerber Fmt 4.6, Leading zero omitted, Abs format (unit mm)*
G04 Created by KiCad (PCBNEW 8.0.6) date 2025-01-24 16:12:18*
%MOMM*%
%LPD*%
G01*
G04 APERTURE LIST*
%ADD10C,0.150000*%
%ADD11C,0.254000*%
%ADD12C,0.120000*%
%ADD13C,0.152400*%
%ADD14C,0.200000*%
%ADD15C,0.250000*%
G04 APERTURE END LIST*
D10*
X334936905Y-111931819D02*
X335508333Y-111931819D01*
X335222619Y-112931819D02*
X335222619Y-111931819D01*
X335841667Y-112931819D02*
X335841667Y-111931819D01*
X335841667Y-111931819D02*
X336222619Y-111931819D01*
X336222619Y-111931819D02*
X336317857Y-111979438D01*
X336317857Y-111979438D02*
X336365476Y-112027057D01*
X336365476Y-112027057D02*
X336413095Y-112122295D01*
X336413095Y-112122295D02*
X336413095Y-112265152D01*
X336413095Y-112265152D02*
X336365476Y-112360390D01*
X336365476Y-112360390D02*
X336317857Y-112408009D01*
X336317857Y-112408009D02*
X336222619Y-112455628D01*
X336222619Y-112455628D02*
X335841667Y-112455628D01*
X337365476Y-112931819D02*
X336794048Y-112931819D01*
X337079762Y-112931819D02*
X337079762Y-111931819D01*
X337079762Y-111931819D02*
X336984524Y-112074676D01*
X336984524Y-112074676D02*
X336889286Y-112169914D01*
X336889286Y-112169914D02*
X336794048Y-112217533D01*
X338222619Y-112265152D02*
X338222619Y-112931819D01*
X337984524Y-111884200D02*
X337746429Y-112598485D01*
X337746429Y-112598485D02*
X338365476Y-112598485D01*
X351478095Y-30986819D02*
X352049523Y-30986819D01*
X351763809Y-31986819D02*
X351763809Y-30986819D01*
X352382857Y-31986819D02*
X352382857Y-30986819D01*
X352382857Y-30986819D02*
X352763809Y-30986819D01*
X352763809Y-30986819D02*
X352859047Y-31034438D01*
X352859047Y-31034438D02*
X352906666Y-31082057D01*
X352906666Y-31082057D02*
X352954285Y-31177295D01*
X352954285Y-31177295D02*
X352954285Y-31320152D01*
X352954285Y-31320152D02*
X352906666Y-31415390D01*
X352906666Y-31415390D02*
X352859047Y-31463009D01*
X352859047Y-31463009D02*
X352763809Y-31510628D01*
X352763809Y-31510628D02*
X352382857Y-31510628D01*
X353811428Y-30986819D02*
X353620952Y-30986819D01*
X353620952Y-30986819D02*
X353525714Y-31034438D01*
X353525714Y-31034438D02*
X353478095Y-31082057D01*
X353478095Y-31082057D02*
X353382857Y-31224914D01*
X353382857Y-31224914D02*
X353335238Y-31415390D01*
X353335238Y-31415390D02*
X353335238Y-31796342D01*
X353335238Y-31796342D02*
X353382857Y-31891580D01*
X353382857Y-31891580D02*
X353430476Y-31939200D01*
X353430476Y-31939200D02*
X353525714Y-31986819D01*
X353525714Y-31986819D02*
X353716190Y-31986819D01*
X353716190Y-31986819D02*
X353811428Y-31939200D01*
X353811428Y-31939200D02*
X353859047Y-31891580D01*
X353859047Y-31891580D02*
X353906666Y-31796342D01*
X353906666Y-31796342D02*
X353906666Y-31558247D01*
X353906666Y-31558247D02*
X353859047Y-31463009D01*
X353859047Y-31463009D02*
X353811428Y-31415390D01*
X353811428Y-31415390D02*
X353716190Y-31367771D01*
X353716190Y-31367771D02*
X353525714Y-31367771D01*
X353525714Y-31367771D02*
X353430476Y-31415390D01*
X353430476Y-31415390D02*
X353382857Y-31463009D01*
X353382857Y-31463009D02*
X353335238Y-31558247D01*
X72888330Y-110789523D02*
X72935950Y-110837142D01*
X72935950Y-110837142D02*
X72983569Y-110979999D01*
X72983569Y-110979999D02*
X72983569Y-111075237D01*
X72983569Y-111075237D02*
X72935950Y-111218094D01*
X72935950Y-111218094D02*
X72840711Y-111313332D01*
X72840711Y-111313332D02*
X72745473Y-111360951D01*
X72745473Y-111360951D02*
X72554997Y-111408570D01*
X72554997Y-111408570D02*
X72412140Y-111408570D01*
X72412140Y-111408570D02*
X72221664Y-111360951D01*
X72221664Y-111360951D02*
X72126426Y-111313332D01*
X72126426Y-111313332D02*
X72031188Y-111218094D01*
X72031188Y-111218094D02*
X71983569Y-111075237D01*
X71983569Y-111075237D02*
X71983569Y-110979999D01*
X71983569Y-110979999D02*
X72031188Y-110837142D01*
X72031188Y-110837142D02*
X72078807Y-110789523D01*
X71983569Y-110456189D02*
X71983569Y-109789523D01*
X71983569Y-109789523D02*
X72983569Y-110218094D01*
X72983569Y-109360951D02*
X72983569Y-109170475D01*
X72983569Y-109170475D02*
X72935950Y-109075237D01*
X72935950Y-109075237D02*
X72888330Y-109027618D01*
X72888330Y-109027618D02*
X72745473Y-108932380D01*
X72745473Y-108932380D02*
X72554997Y-108884761D01*
X72554997Y-108884761D02*
X72174045Y-108884761D01*
X72174045Y-108884761D02*
X72078807Y-108932380D01*
X72078807Y-108932380D02*
X72031188Y-108979999D01*
X72031188Y-108979999D02*
X71983569Y-109075237D01*
X71983569Y-109075237D02*
X71983569Y-109265713D01*
X71983569Y-109265713D02*
X72031188Y-109360951D01*
X72031188Y-109360951D02*
X72078807Y-109408570D01*
X72078807Y-109408570D02*
X72174045Y-109456189D01*
X72174045Y-109456189D02*
X72412140Y-109456189D01*
X72412140Y-109456189D02*
X72507378Y-109408570D01*
X72507378Y-109408570D02*
X72554997Y-109360951D01*
X72554997Y-109360951D02*
X72602616Y-109265713D01*
X72602616Y-109265713D02*
X72602616Y-109075237D01*
X72602616Y-109075237D02*
X72554997Y-108979999D01*
X72554997Y-108979999D02*
X72507378Y-108932380D01*
X72507378Y-108932380D02*
X72412140Y-108884761D01*
X101359580Y-110142857D02*
X101407200Y-110190476D01*
X101407200Y-110190476D02*
X101454819Y-110333333D01*
X101454819Y-110333333D02*
X101454819Y-110428571D01*
X101454819Y-110428571D02*
X101407200Y-110571428D01*
X101407200Y-110571428D02*
X101311961Y-110666666D01*
X101311961Y-110666666D02*
X101216723Y-110714285D01*
X101216723Y-110714285D02*
X101026247Y-110761904D01*
X101026247Y-110761904D02*
X100883390Y-110761904D01*
X100883390Y-110761904D02*
X100692914Y-110714285D01*
X100692914Y-110714285D02*
X100597676Y-110666666D01*
X100597676Y-110666666D02*
X100502438Y-110571428D01*
X100502438Y-110571428D02*
X100454819Y-110428571D01*
X100454819Y-110428571D02*
X100454819Y-110333333D01*
X100454819Y-110333333D02*
X100502438Y-110190476D01*
X100502438Y-110190476D02*
X100550057Y-110142857D01*
X100454819Y-109809523D02*
X100454819Y-109190476D01*
X100454819Y-109190476D02*
X100835771Y-109523809D01*
X100835771Y-109523809D02*
X100835771Y-109380952D01*
X100835771Y-109380952D02*
X100883390Y-109285714D01*
X100883390Y-109285714D02*
X100931009Y-109238095D01*
X100931009Y-109238095D02*
X101026247Y-109190476D01*
X101026247Y-109190476D02*
X101264342Y-109190476D01*
X101264342Y-109190476D02*
X101359580Y-109238095D01*
X101359580Y-109238095D02*
X101407200Y-109285714D01*
X101407200Y-109285714D02*
X101454819Y-109380952D01*
X101454819Y-109380952D02*
X101454819Y-109666666D01*
X101454819Y-109666666D02*
X101407200Y-109761904D01*
X101407200Y-109761904D02*
X101359580Y-109809523D01*
X100550057Y-108809523D02*
X100502438Y-108761904D01*
X100502438Y-108761904D02*
X100454819Y-108666666D01*
X100454819Y-108666666D02*
X100454819Y-108428571D01*
X100454819Y-108428571D02*
X100502438Y-108333333D01*
X100502438Y-108333333D02*
X100550057Y-108285714D01*
X100550057Y-108285714D02*
X100645295Y-108238095D01*
X100645295Y-108238095D02*
X100740533Y-108238095D01*
X100740533Y-108238095D02*
X100883390Y-108285714D01*
X100883390Y-108285714D02*
X101454819Y-108857142D01*
X101454819Y-108857142D02*
X101454819Y-108238095D01*
X355051905Y-35036819D02*
X355623333Y-35036819D01*
X355337619Y-36036819D02*
X355337619Y-35036819D01*
X355956667Y-36036819D02*
X355956667Y-35036819D01*
X355956667Y-35036819D02*
X356337619Y-35036819D01*
X356337619Y-35036819D02*
X356432857Y-35084438D01*
X356432857Y-35084438D02*
X356480476Y-35132057D01*
X356480476Y-35132057D02*
X356528095Y-35227295D01*
X356528095Y-35227295D02*
X356528095Y-35370152D01*
X356528095Y-35370152D02*
X356480476Y-35465390D01*
X356480476Y-35465390D02*
X356432857Y-35513009D01*
X356432857Y-35513009D02*
X356337619Y-35560628D01*
X356337619Y-35560628D02*
X355956667Y-35560628D01*
X357480476Y-36036819D02*
X356909048Y-36036819D01*
X357194762Y-36036819D02*
X357194762Y-35036819D01*
X357194762Y-35036819D02*
X357099524Y-35179676D01*
X357099524Y-35179676D02*
X357004286Y-35274914D01*
X357004286Y-35274914D02*
X356909048Y-35322533D01*
X358385238Y-35036819D02*
X357909048Y-35036819D01*
X357909048Y-35036819D02*
X357861429Y-35513009D01*
X357861429Y-35513009D02*
X357909048Y-35465390D01*
X357909048Y-35465390D02*
X358004286Y-35417771D01*
X358004286Y-35417771D02*
X358242381Y-35417771D01*
X358242381Y-35417771D02*
X358337619Y-35465390D01*
X358337619Y-35465390D02*
X358385238Y-35513009D01*
X358385238Y-35513009D02*
X358432857Y-35608247D01*
X358432857Y-35608247D02*
X358432857Y-35846342D01*
X358432857Y-35846342D02*
X358385238Y-35941580D01*
X358385238Y-35941580D02*
X358337619Y-35989200D01*
X358337619Y-35989200D02*
X358242381Y-36036819D01*
X358242381Y-36036819D02*
X358004286Y-36036819D01*
X358004286Y-36036819D02*
X357909048Y-35989200D01*
X357909048Y-35989200D02*
X357861429Y-35941580D01*
X347428095Y-35036819D02*
X347999523Y-35036819D01*
X347713809Y-36036819D02*
X347713809Y-35036819D01*
X348332857Y-36036819D02*
X348332857Y-35036819D01*
X348332857Y-35036819D02*
X348713809Y-35036819D01*
X348713809Y-35036819D02*
X348809047Y-35084438D01*
X348809047Y-35084438D02*
X348856666Y-35132057D01*
X348856666Y-35132057D02*
X348904285Y-35227295D01*
X348904285Y-35227295D02*
X348904285Y-35370152D01*
X348904285Y-35370152D02*
X348856666Y-35465390D01*
X348856666Y-35465390D02*
X348809047Y-35513009D01*
X348809047Y-35513009D02*
X348713809Y-35560628D01*
X348713809Y-35560628D02*
X348332857Y-35560628D01*
X349237619Y-35036819D02*
X349856666Y-35036819D01*
X349856666Y-35036819D02*
X349523333Y-35417771D01*
X349523333Y-35417771D02*
X349666190Y-35417771D01*
X349666190Y-35417771D02*
X349761428Y-35465390D01*
X349761428Y-35465390D02*
X349809047Y-35513009D01*
X349809047Y-35513009D02*
X349856666Y-35608247D01*
X349856666Y-35608247D02*
X349856666Y-35846342D01*
X349856666Y-35846342D02*
X349809047Y-35941580D01*
X349809047Y-35941580D02*
X349761428Y-35989200D01*
X349761428Y-35989200D02*
X349666190Y-36036819D01*
X349666190Y-36036819D02*
X349380476Y-36036819D01*
X349380476Y-36036819D02*
X349285238Y-35989200D01*
X349285238Y-35989200D02*
X349237619Y-35941580D01*
X352199761Y-104595057D02*
X352104523Y-104547438D01*
X352104523Y-104547438D02*
X352009285Y-104452200D01*
X352009285Y-104452200D02*
X351866428Y-104309342D01*
X351866428Y-104309342D02*
X351771190Y-104261723D01*
X351771190Y-104261723D02*
X351675952Y-104261723D01*
X351723571Y-104499819D02*
X351628333Y-104452200D01*
X351628333Y-104452200D02*
X351533095Y-104356961D01*
X351533095Y-104356961D02*
X351485476Y-104166485D01*
X351485476Y-104166485D02*
X351485476Y-103833152D01*
X351485476Y-103833152D02*
X351533095Y-103642676D01*
X351533095Y-103642676D02*
X351628333Y-103547438D01*
X351628333Y-103547438D02*
X351723571Y-103499819D01*
X351723571Y-103499819D02*
X351914047Y-103499819D01*
X351914047Y-103499819D02*
X352009285Y-103547438D01*
X352009285Y-103547438D02*
X352104523Y-103642676D01*
X352104523Y-103642676D02*
X352152142Y-103833152D01*
X352152142Y-103833152D02*
X352152142Y-104166485D01*
X352152142Y-104166485D02*
X352104523Y-104356961D01*
X352104523Y-104356961D02*
X352009285Y-104452200D01*
X352009285Y-104452200D02*
X351914047Y-104499819D01*
X351914047Y-104499819D02*
X351723571Y-104499819D01*
X353104523Y-104499819D02*
X352533095Y-104499819D01*
X352818809Y-104499819D02*
X352818809Y-103499819D01*
X352818809Y-103499819D02*
X352723571Y-103642676D01*
X352723571Y-103642676D02*
X352628333Y-103737914D01*
X352628333Y-103737914D02*
X352533095Y-103785533D01*
X324003333Y-27734819D02*
X323670000Y-27258628D01*
X323431905Y-27734819D02*
X323431905Y-26734819D01*
X323431905Y-26734819D02*
X323812857Y-26734819D01*
X323812857Y-26734819D02*
X323908095Y-26782438D01*
X323908095Y-26782438D02*
X323955714Y-26830057D01*
X323955714Y-26830057D02*
X324003333Y-26925295D01*
X324003333Y-26925295D02*
X324003333Y-27068152D01*
X324003333Y-27068152D02*
X323955714Y-27163390D01*
X323955714Y-27163390D02*
X323908095Y-27211009D01*
X323908095Y-27211009D02*
X323812857Y-27258628D01*
X323812857Y-27258628D02*
X323431905Y-27258628D01*
X324908095Y-26734819D02*
X324431905Y-26734819D01*
X324431905Y-26734819D02*
X324384286Y-27211009D01*
X324384286Y-27211009D02*
X324431905Y-27163390D01*
X324431905Y-27163390D02*
X324527143Y-27115771D01*
X324527143Y-27115771D02*
X324765238Y-27115771D01*
X324765238Y-27115771D02*
X324860476Y-27163390D01*
X324860476Y-27163390D02*
X324908095Y-27211009D01*
X324908095Y-27211009D02*
X324955714Y-27306247D01*
X324955714Y-27306247D02*
X324955714Y-27544342D01*
X324955714Y-27544342D02*
X324908095Y-27639580D01*
X324908095Y-27639580D02*
X324860476Y-27687200D01*
X324860476Y-27687200D02*
X324765238Y-27734819D01*
X324765238Y-27734819D02*
X324527143Y-27734819D01*
X324527143Y-27734819D02*
X324431905Y-27687200D01*
X324431905Y-27687200D02*
X324384286Y-27639580D01*
X329713333Y-55834819D02*
X329380000Y-55358628D01*
X329141905Y-55834819D02*
X329141905Y-54834819D01*
X329141905Y-54834819D02*
X329522857Y-54834819D01*
X329522857Y-54834819D02*
X329618095Y-54882438D01*
X329618095Y-54882438D02*
X329665714Y-54930057D01*
X329665714Y-54930057D02*
X329713333Y-55025295D01*
X329713333Y-55025295D02*
X329713333Y-55168152D01*
X329713333Y-55168152D02*
X329665714Y-55263390D01*
X329665714Y-55263390D02*
X329618095Y-55311009D01*
X329618095Y-55311009D02*
X329522857Y-55358628D01*
X329522857Y-55358628D02*
X329141905Y-55358628D01*
X330046667Y-54834819D02*
X330665714Y-54834819D01*
X330665714Y-54834819D02*
X330332381Y-55215771D01*
X330332381Y-55215771D02*
X330475238Y-55215771D01*
X330475238Y-55215771D02*
X330570476Y-55263390D01*
X330570476Y-55263390D02*
X330618095Y-55311009D01*
X330618095Y-55311009D02*
X330665714Y-55406247D01*
X330665714Y-55406247D02*
X330665714Y-55644342D01*
X330665714Y-55644342D02*
X330618095Y-55739580D01*
X330618095Y-55739580D02*
X330570476Y-55787200D01*
X330570476Y-55787200D02*
X330475238Y-55834819D01*
X330475238Y-55834819D02*
X330189524Y-55834819D01*
X330189524Y-55834819D02*
X330094286Y-55787200D01*
X330094286Y-55787200D02*
X330046667Y-55739580D01*
X92357142Y-105859580D02*
X92309523Y-105907200D01*
X92309523Y-105907200D02*
X92166666Y-105954819D01*
X92166666Y-105954819D02*
X92071428Y-105954819D01*
X92071428Y-105954819D02*
X91928571Y-105907200D01*
X91928571Y-105907200D02*
X91833333Y-105811961D01*
X91833333Y-105811961D02*
X91785714Y-105716723D01*
X91785714Y-105716723D02*
X91738095Y-105526247D01*
X91738095Y-105526247D02*
X91738095Y-105383390D01*
X91738095Y-105383390D02*
X91785714Y-105192914D01*
X91785714Y-105192914D02*
X91833333Y-105097676D01*
X91833333Y-105097676D02*
X91928571Y-105002438D01*
X91928571Y-105002438D02*
X92071428Y-104954819D01*
X92071428Y-104954819D02*
X92166666Y-104954819D01*
X92166666Y-104954819D02*
X92309523Y-105002438D01*
X92309523Y-105002438D02*
X92357142Y-105050057D01*
X93309523Y-105954819D02*
X92738095Y-105954819D01*
X93023809Y-105954819D02*
X93023809Y-104954819D01*
X93023809Y-104954819D02*
X92928571Y-105097676D01*
X92928571Y-105097676D02*
X92833333Y-105192914D01*
X92833333Y-105192914D02*
X92738095Y-105240533D01*
X93690476Y-105050057D02*
X93738095Y-105002438D01*
X93738095Y-105002438D02*
X93833333Y-104954819D01*
X93833333Y-104954819D02*
X94071428Y-104954819D01*
X94071428Y-104954819D02*
X94166666Y-105002438D01*
X94166666Y-105002438D02*
X94214285Y-105050057D01*
X94214285Y-105050057D02*
X94261904Y-105145295D01*
X94261904Y-105145295D02*
X94261904Y-105240533D01*
X94261904Y-105240533D02*
X94214285Y-105383390D01*
X94214285Y-105383390D02*
X93642857Y-105954819D01*
X93642857Y-105954819D02*
X94261904Y-105954819D01*
X346192142Y-110529819D02*
X345858809Y-110053628D01*
X345620714Y-110529819D02*
X345620714Y-109529819D01*
X345620714Y-109529819D02*
X346001666Y-109529819D01*
X346001666Y-109529819D02*
X346096904Y-109577438D01*
X346096904Y-109577438D02*
X346144523Y-109625057D01*
X346144523Y-109625057D02*
X346192142Y-109720295D01*
X346192142Y-109720295D02*
X346192142Y-109863152D01*
X346192142Y-109863152D02*
X346144523Y-109958390D01*
X346144523Y-109958390D02*
X346096904Y-110006009D01*
X346096904Y-110006009D02*
X346001666Y-110053628D01*
X346001666Y-110053628D02*
X345620714Y-110053628D01*
X347096904Y-109529819D02*
X346620714Y-109529819D01*
X346620714Y-109529819D02*
X346573095Y-110006009D01*
X346573095Y-110006009D02*
X346620714Y-109958390D01*
X346620714Y-109958390D02*
X346715952Y-109910771D01*
X346715952Y-109910771D02*
X346954047Y-109910771D01*
X346954047Y-109910771D02*
X347049285Y-109958390D01*
X347049285Y-109958390D02*
X347096904Y-110006009D01*
X347096904Y-110006009D02*
X347144523Y-110101247D01*
X347144523Y-110101247D02*
X347144523Y-110339342D01*
X347144523Y-110339342D02*
X347096904Y-110434580D01*
X347096904Y-110434580D02*
X347049285Y-110482200D01*
X347049285Y-110482200D02*
X346954047Y-110529819D01*
X346954047Y-110529819D02*
X346715952Y-110529819D01*
X346715952Y-110529819D02*
X346620714Y-110482200D01*
X346620714Y-110482200D02*
X346573095Y-110434580D01*
X347477857Y-109529819D02*
X348144523Y-109529819D01*
X348144523Y-109529819D02*
X347715952Y-110529819D01*
X359288896Y-106805619D02*
X359288896Y-107615142D01*
X359288896Y-107615142D02*
X359336515Y-107710380D01*
X359336515Y-107710380D02*
X359384134Y-107758000D01*
X359384134Y-107758000D02*
X359479372Y-107805619D01*
X359479372Y-107805619D02*
X359669848Y-107805619D01*
X359669848Y-107805619D02*
X359765086Y-107758000D01*
X359765086Y-107758000D02*
X359812705Y-107710380D01*
X359812705Y-107710380D02*
X359860324Y-107615142D01*
X359860324Y-107615142D02*
X359860324Y-106805619D01*
X360241277Y-106805619D02*
X360860324Y-106805619D01*
X360860324Y-106805619D02*
X360526991Y-107186571D01*
X360526991Y-107186571D02*
X360669848Y-107186571D01*
X360669848Y-107186571D02*
X360765086Y-107234190D01*
X360765086Y-107234190D02*
X360812705Y-107281809D01*
X360812705Y-107281809D02*
X360860324Y-107377047D01*
X360860324Y-107377047D02*
X360860324Y-107615142D01*
X360860324Y-107615142D02*
X360812705Y-107710380D01*
X360812705Y-107710380D02*
X360765086Y-107758000D01*
X360765086Y-107758000D02*
X360669848Y-107805619D01*
X360669848Y-107805619D02*
X360384134Y-107805619D01*
X360384134Y-107805619D02*
X360288896Y-107758000D01*
X360288896Y-107758000D02*
X360241277Y-107710380D01*
X353131534Y-104046419D02*
X353131534Y-103046419D01*
X353131534Y-103046419D02*
X353369629Y-103046419D01*
X353369629Y-103046419D02*
X353512486Y-103094038D01*
X353512486Y-103094038D02*
X353607724Y-103189276D01*
X353607724Y-103189276D02*
X353655343Y-103284514D01*
X353655343Y-103284514D02*
X353702962Y-103474990D01*
X353702962Y-103474990D02*
X353702962Y-103617847D01*
X353702962Y-103617847D02*
X353655343Y-103808323D01*
X353655343Y-103808323D02*
X353607724Y-103903561D01*
X353607724Y-103903561D02*
X353512486Y-103998800D01*
X353512486Y-103998800D02*
X353369629Y-104046419D01*
X353369629Y-104046419D02*
X353131534Y-104046419D01*
X354512486Y-103998800D02*
X354417248Y-104046419D01*
X354417248Y-104046419D02*
X354226772Y-104046419D01*
X354226772Y-104046419D02*
X354131534Y-103998800D01*
X354131534Y-103998800D02*
X354083915Y-103903561D01*
X354083915Y-103903561D02*
X354083915Y-103522609D01*
X354083915Y-103522609D02*
X354131534Y-103427371D01*
X354131534Y-103427371D02*
X354226772Y-103379752D01*
X354226772Y-103379752D02*
X354417248Y-103379752D01*
X354417248Y-103379752D02*
X354512486Y-103427371D01*
X354512486Y-103427371D02*
X354560105Y-103522609D01*
X354560105Y-103522609D02*
X354560105Y-103617847D01*
X354560105Y-103617847D02*
X354083915Y-103713085D01*
X354941058Y-103998800D02*
X355036296Y-104046419D01*
X355036296Y-104046419D02*
X355226772Y-104046419D01*
X355226772Y-104046419D02*
X355322010Y-103998800D01*
X355322010Y-103998800D02*
X355369629Y-103903561D01*
X355369629Y-103903561D02*
X355369629Y-103855942D01*
X355369629Y-103855942D02*
X355322010Y-103760704D01*
X355322010Y-103760704D02*
X355226772Y-103713085D01*
X355226772Y-103713085D02*
X355083915Y-103713085D01*
X355083915Y-103713085D02*
X354988677Y-103665466D01*
X354988677Y-103665466D02*
X354941058Y-103570228D01*
X354941058Y-103570228D02*
X354941058Y-103522609D01*
X354941058Y-103522609D02*
X354988677Y-103427371D01*
X354988677Y-103427371D02*
X355083915Y-103379752D01*
X355083915Y-103379752D02*
X355226772Y-103379752D01*
X355226772Y-103379752D02*
X355322010Y-103427371D01*
X355798201Y-104046419D02*
X355798201Y-103379752D01*
X355798201Y-103046419D02*
X355750582Y-103094038D01*
X355750582Y-103094038D02*
X355798201Y-103141657D01*
X355798201Y-103141657D02*
X355845820Y-103094038D01*
X355845820Y-103094038D02*
X355798201Y-103046419D01*
X355798201Y-103046419D02*
X355798201Y-103141657D01*
X356702962Y-103379752D02*
X356702962Y-104189276D01*
X356702962Y-104189276D02*
X356655343Y-104284514D01*
X356655343Y-104284514D02*
X356607724Y-104332133D01*
X356607724Y-104332133D02*
X356512486Y-104379752D01*
X356512486Y-104379752D02*
X356369629Y-104379752D01*
X356369629Y-104379752D02*
X356274391Y-104332133D01*
X356702962Y-103998800D02*
X356607724Y-104046419D01*
X356607724Y-104046419D02*
X356417248Y-104046419D01*
X356417248Y-104046419D02*
X356322010Y-103998800D01*
X356322010Y-103998800D02*
X356274391Y-103951180D01*
X356274391Y-103951180D02*
X356226772Y-103855942D01*
X356226772Y-103855942D02*
X356226772Y-103570228D01*
X356226772Y-103570228D02*
X356274391Y-103474990D01*
X356274391Y-103474990D02*
X356322010Y-103427371D01*
X356322010Y-103427371D02*
X356417248Y-103379752D01*
X356417248Y-103379752D02*
X356607724Y-103379752D01*
X356607724Y-103379752D02*
X356702962Y-103427371D01*
X357179153Y-103379752D02*
X357179153Y-104046419D01*
X357179153Y-103474990D02*
X357226772Y-103427371D01*
X357226772Y-103427371D02*
X357322010Y-103379752D01*
X357322010Y-103379752D02*
X357464867Y-103379752D01*
X357464867Y-103379752D02*
X357560105Y-103427371D01*
X357560105Y-103427371D02*
X357607724Y-103522609D01*
X357607724Y-103522609D02*
X357607724Y-104046419D01*
X358512486Y-104046419D02*
X358512486Y-103522609D01*
X358512486Y-103522609D02*
X358464867Y-103427371D01*
X358464867Y-103427371D02*
X358369629Y-103379752D01*
X358369629Y-103379752D02*
X358179153Y-103379752D01*
X358179153Y-103379752D02*
X358083915Y-103427371D01*
X358512486Y-103998800D02*
X358417248Y-104046419D01*
X358417248Y-104046419D02*
X358179153Y-104046419D01*
X358179153Y-104046419D02*
X358083915Y-103998800D01*
X358083915Y-103998800D02*
X358036296Y-103903561D01*
X358036296Y-103903561D02*
X358036296Y-103808323D01*
X358036296Y-103808323D02*
X358083915Y-103713085D01*
X358083915Y-103713085D02*
X358179153Y-103665466D01*
X358179153Y-103665466D02*
X358417248Y-103665466D01*
X358417248Y-103665466D02*
X358512486Y-103617847D01*
X358845820Y-103379752D02*
X359226772Y-103379752D01*
X358988677Y-103046419D02*
X358988677Y-103903561D01*
X358988677Y-103903561D02*
X359036296Y-103998800D01*
X359036296Y-103998800D02*
X359131534Y-104046419D01*
X359131534Y-104046419D02*
X359226772Y-104046419D01*
X359702963Y-104046419D02*
X359607725Y-103998800D01*
X359607725Y-103998800D02*
X359560106Y-103951180D01*
X359560106Y-103951180D02*
X359512487Y-103855942D01*
X359512487Y-103855942D02*
X359512487Y-103570228D01*
X359512487Y-103570228D02*
X359560106Y-103474990D01*
X359560106Y-103474990D02*
X359607725Y-103427371D01*
X359607725Y-103427371D02*
X359702963Y-103379752D01*
X359702963Y-103379752D02*
X359845820Y-103379752D01*
X359845820Y-103379752D02*
X359941058Y-103427371D01*
X359941058Y-103427371D02*
X359988677Y-103474990D01*
X359988677Y-103474990D02*
X360036296Y-103570228D01*
X360036296Y-103570228D02*
X360036296Y-103855942D01*
X360036296Y-103855942D02*
X359988677Y-103951180D01*
X359988677Y-103951180D02*
X359941058Y-103998800D01*
X359941058Y-103998800D02*
X359845820Y-104046419D01*
X359845820Y-104046419D02*
X359702963Y-104046419D01*
X360464868Y-104046419D02*
X360464868Y-103379752D01*
X360464868Y-103570228D02*
X360512487Y-103474990D01*
X360512487Y-103474990D02*
X360560106Y-103427371D01*
X360560106Y-103427371D02*
X360655344Y-103379752D01*
X360655344Y-103379752D02*
X360750582Y-103379752D01*
X361226773Y-103474990D02*
X361131535Y-103427371D01*
X361131535Y-103427371D02*
X361083916Y-103379752D01*
X361083916Y-103379752D02*
X361036297Y-103284514D01*
X361036297Y-103284514D02*
X361036297Y-103236895D01*
X361036297Y-103236895D02*
X361083916Y-103141657D01*
X361083916Y-103141657D02*
X361131535Y-103094038D01*
X361131535Y-103094038D02*
X361226773Y-103046419D01*
X361226773Y-103046419D02*
X361417249Y-103046419D01*
X361417249Y-103046419D02*
X361512487Y-103094038D01*
X361512487Y-103094038D02*
X361560106Y-103141657D01*
X361560106Y-103141657D02*
X361607725Y-103236895D01*
X361607725Y-103236895D02*
X361607725Y-103284514D01*
X361607725Y-103284514D02*
X361560106Y-103379752D01*
X361560106Y-103379752D02*
X361512487Y-103427371D01*
X361512487Y-103427371D02*
X361417249Y-103474990D01*
X361417249Y-103474990D02*
X361226773Y-103474990D01*
X361226773Y-103474990D02*
X361131535Y-103522609D01*
X361131535Y-103522609D02*
X361083916Y-103570228D01*
X361083916Y-103570228D02*
X361036297Y-103665466D01*
X361036297Y-103665466D02*
X361036297Y-103855942D01*
X361036297Y-103855942D02*
X361083916Y-103951180D01*
X361083916Y-103951180D02*
X361131535Y-103998800D01*
X361131535Y-103998800D02*
X361226773Y-104046419D01*
X361226773Y-104046419D02*
X361417249Y-104046419D01*
X361417249Y-104046419D02*
X361512487Y-103998800D01*
X361512487Y-103998800D02*
X361560106Y-103951180D01*
X361560106Y-103951180D02*
X361607725Y-103855942D01*
X361607725Y-103855942D02*
X361607725Y-103665466D01*
X361607725Y-103665466D02*
X361560106Y-103570228D01*
X361560106Y-103570228D02*
X361512487Y-103522609D01*
X361512487Y-103522609D02*
X361417249Y-103474990D01*
X362560106Y-104046419D02*
X361988678Y-104046419D01*
X362274392Y-104046419D02*
X362274392Y-103046419D01*
X362274392Y-103046419D02*
X362179154Y-103189276D01*
X362179154Y-103189276D02*
X362083916Y-103284514D01*
X362083916Y-103284514D02*
X361988678Y-103332133D01*
X363036297Y-104046419D02*
X363226773Y-104046419D01*
X363226773Y-104046419D02*
X363322011Y-103998800D01*
X363322011Y-103998800D02*
X363369630Y-103951180D01*
X363369630Y-103951180D02*
X363464868Y-103808323D01*
X363464868Y-103808323D02*
X363512487Y-103617847D01*
X363512487Y-103617847D02*
X363512487Y-103236895D01*
X363512487Y-103236895D02*
X363464868Y-103141657D01*
X363464868Y-103141657D02*
X363417249Y-103094038D01*
X363417249Y-103094038D02*
X363322011Y-103046419D01*
X363322011Y-103046419D02*
X363131535Y-103046419D01*
X363131535Y-103046419D02*
X363036297Y-103094038D01*
X363036297Y-103094038D02*
X362988678Y-103141657D01*
X362988678Y-103141657D02*
X362941059Y-103236895D01*
X362941059Y-103236895D02*
X362941059Y-103474990D01*
X362941059Y-103474990D02*
X362988678Y-103570228D01*
X362988678Y-103570228D02*
X363036297Y-103617847D01*
X363036297Y-103617847D02*
X363131535Y-103665466D01*
X363131535Y-103665466D02*
X363322011Y-103665466D01*
X363322011Y-103665466D02*
X363417249Y-103617847D01*
X363417249Y-103617847D02*
X363464868Y-103570228D01*
X363464868Y-103570228D02*
X363512487Y-103474990D01*
X69140057Y-114650238D02*
X69092438Y-114745476D01*
X69092438Y-114745476D02*
X68997200Y-114840714D01*
X68997200Y-114840714D02*
X68854342Y-114983571D01*
X68854342Y-114983571D02*
X68806723Y-115078809D01*
X68806723Y-115078809D02*
X68806723Y-115174047D01*
X69044819Y-115126428D02*
X68997200Y-115221666D01*
X68997200Y-115221666D02*
X68901961Y-115316904D01*
X68901961Y-115316904D02*
X68711485Y-115364523D01*
X68711485Y-115364523D02*
X68378152Y-115364523D01*
X68378152Y-115364523D02*
X68187676Y-115316904D01*
X68187676Y-115316904D02*
X68092438Y-115221666D01*
X68092438Y-115221666D02*
X68044819Y-115126428D01*
X68044819Y-115126428D02*
X68044819Y-114935952D01*
X68044819Y-114935952D02*
X68092438Y-114840714D01*
X68092438Y-114840714D02*
X68187676Y-114745476D01*
X68187676Y-114745476D02*
X68378152Y-114697857D01*
X68378152Y-114697857D02*
X68711485Y-114697857D01*
X68711485Y-114697857D02*
X68901961Y-114745476D01*
X68901961Y-114745476D02*
X68997200Y-114840714D01*
X68997200Y-114840714D02*
X69044819Y-114935952D01*
X69044819Y-114935952D02*
X69044819Y-115126428D01*
X68473390Y-114126428D02*
X68425771Y-114221666D01*
X68425771Y-114221666D02*
X68378152Y-114269285D01*
X68378152Y-114269285D02*
X68282914Y-114316904D01*
X68282914Y-114316904D02*
X68235295Y-114316904D01*
X68235295Y-114316904D02*
X68140057Y-114269285D01*
X68140057Y-114269285D02*
X68092438Y-114221666D01*
X68092438Y-114221666D02*
X68044819Y-114126428D01*
X68044819Y-114126428D02*
X68044819Y-113935952D01*
X68044819Y-113935952D02*
X68092438Y-113840714D01*
X68092438Y-113840714D02*
X68140057Y-113793095D01*
X68140057Y-113793095D02*
X68235295Y-113745476D01*
X68235295Y-113745476D02*
X68282914Y-113745476D01*
X68282914Y-113745476D02*
X68378152Y-113793095D01*
X68378152Y-113793095D02*
X68425771Y-113840714D01*
X68425771Y-113840714D02*
X68473390Y-113935952D01*
X68473390Y-113935952D02*
X68473390Y-114126428D01*
X68473390Y-114126428D02*
X68521009Y-114221666D01*
X68521009Y-114221666D02*
X68568628Y-114269285D01*
X68568628Y-114269285D02*
X68663866Y-114316904D01*
X68663866Y-114316904D02*
X68854342Y-114316904D01*
X68854342Y-114316904D02*
X68949580Y-114269285D01*
X68949580Y-114269285D02*
X68997200Y-114221666D01*
X68997200Y-114221666D02*
X69044819Y-114126428D01*
X69044819Y-114126428D02*
X69044819Y-113935952D01*
X69044819Y-113935952D02*
X68997200Y-113840714D01*
X68997200Y-113840714D02*
X68949580Y-113793095D01*
X68949580Y-113793095D02*
X68854342Y-113745476D01*
X68854342Y-113745476D02*
X68663866Y-113745476D01*
X68663866Y-113745476D02*
X68568628Y-113793095D01*
X68568628Y-113793095D02*
X68521009Y-113840714D01*
X68521009Y-113840714D02*
X68473390Y-113935952D01*
X69140057Y-101290238D02*
X69092438Y-101385476D01*
X69092438Y-101385476D02*
X68997200Y-101480714D01*
X68997200Y-101480714D02*
X68854342Y-101623571D01*
X68854342Y-101623571D02*
X68806723Y-101718809D01*
X68806723Y-101718809D02*
X68806723Y-101814047D01*
X69044819Y-101766428D02*
X68997200Y-101861666D01*
X68997200Y-101861666D02*
X68901961Y-101956904D01*
X68901961Y-101956904D02*
X68711485Y-102004523D01*
X68711485Y-102004523D02*
X68378152Y-102004523D01*
X68378152Y-102004523D02*
X68187676Y-101956904D01*
X68187676Y-101956904D02*
X68092438Y-101861666D01*
X68092438Y-101861666D02*
X68044819Y-101766428D01*
X68044819Y-101766428D02*
X68044819Y-101575952D01*
X68044819Y-101575952D02*
X68092438Y-101480714D01*
X68092438Y-101480714D02*
X68187676Y-101385476D01*
X68187676Y-101385476D02*
X68378152Y-101337857D01*
X68378152Y-101337857D02*
X68711485Y-101337857D01*
X68711485Y-101337857D02*
X68901961Y-101385476D01*
X68901961Y-101385476D02*
X68997200Y-101480714D01*
X68997200Y-101480714D02*
X69044819Y-101575952D01*
X69044819Y-101575952D02*
X69044819Y-101766428D01*
X68140057Y-100956904D02*
X68092438Y-100909285D01*
X68092438Y-100909285D02*
X68044819Y-100814047D01*
X68044819Y-100814047D02*
X68044819Y-100575952D01*
X68044819Y-100575952D02*
X68092438Y-100480714D01*
X68092438Y-100480714D02*
X68140057Y-100433095D01*
X68140057Y-100433095D02*
X68235295Y-100385476D01*
X68235295Y-100385476D02*
X68330533Y-100385476D01*
X68330533Y-100385476D02*
X68473390Y-100433095D01*
X68473390Y-100433095D02*
X69044819Y-101004523D01*
X69044819Y-101004523D02*
X69044819Y-100385476D01*
X76859580Y-110809523D02*
X76907200Y-110857142D01*
X76907200Y-110857142D02*
X76954819Y-110999999D01*
X76954819Y-110999999D02*
X76954819Y-111095237D01*
X76954819Y-111095237D02*
X76907200Y-111238094D01*
X76907200Y-111238094D02*
X76811961Y-111333332D01*
X76811961Y-111333332D02*
X76716723Y-111380951D01*
X76716723Y-111380951D02*
X76526247Y-111428570D01*
X76526247Y-111428570D02*
X76383390Y-111428570D01*
X76383390Y-111428570D02*
X76192914Y-111380951D01*
X76192914Y-111380951D02*
X76097676Y-111333332D01*
X76097676Y-111333332D02*
X76002438Y-111238094D01*
X76002438Y-111238094D02*
X75954819Y-111095237D01*
X75954819Y-111095237D02*
X75954819Y-110999999D01*
X75954819Y-110999999D02*
X76002438Y-110857142D01*
X76002438Y-110857142D02*
X76050057Y-110809523D01*
X75954819Y-109904761D02*
X75954819Y-110380951D01*
X75954819Y-110380951D02*
X76431009Y-110428570D01*
X76431009Y-110428570D02*
X76383390Y-110380951D01*
X76383390Y-110380951D02*
X76335771Y-110285713D01*
X76335771Y-110285713D02*
X76335771Y-110047618D01*
X76335771Y-110047618D02*
X76383390Y-109952380D01*
X76383390Y-109952380D02*
X76431009Y-109904761D01*
X76431009Y-109904761D02*
X76526247Y-109857142D01*
X76526247Y-109857142D02*
X76764342Y-109857142D01*
X76764342Y-109857142D02*
X76859580Y-109904761D01*
X76859580Y-109904761D02*
X76907200Y-109952380D01*
X76907200Y-109952380D02*
X76954819Y-110047618D01*
X76954819Y-110047618D02*
X76954819Y-110285713D01*
X76954819Y-110285713D02*
X76907200Y-110380951D01*
X76907200Y-110380951D02*
X76859580Y-110428570D01*
X329933333Y-27639580D02*
X329885714Y-27687200D01*
X329885714Y-27687200D02*
X329742857Y-27734819D01*
X329742857Y-27734819D02*
X329647619Y-27734819D01*
X329647619Y-27734819D02*
X329504762Y-27687200D01*
X329504762Y-27687200D02*
X329409524Y-27591961D01*
X329409524Y-27591961D02*
X329361905Y-27496723D01*
X329361905Y-27496723D02*
X329314286Y-27306247D01*
X329314286Y-27306247D02*
X329314286Y-27163390D01*
X329314286Y-27163390D02*
X329361905Y-26972914D01*
X329361905Y-26972914D02*
X329409524Y-26877676D01*
X329409524Y-26877676D02*
X329504762Y-26782438D01*
X329504762Y-26782438D02*
X329647619Y-26734819D01*
X329647619Y-26734819D02*
X329742857Y-26734819D01*
X329742857Y-26734819D02*
X329885714Y-26782438D01*
X329885714Y-26782438D02*
X329933333Y-26830057D01*
X330266667Y-26734819D02*
X330933333Y-26734819D01*
X330933333Y-26734819D02*
X330504762Y-27734819D01*
X333907142Y-27639580D02*
X333859523Y-27687200D01*
X333859523Y-27687200D02*
X333716666Y-27734819D01*
X333716666Y-27734819D02*
X333621428Y-27734819D01*
X333621428Y-27734819D02*
X333478571Y-27687200D01*
X333478571Y-27687200D02*
X333383333Y-27591961D01*
X333383333Y-27591961D02*
X333335714Y-27496723D01*
X333335714Y-27496723D02*
X333288095Y-27306247D01*
X333288095Y-27306247D02*
X333288095Y-27163390D01*
X333288095Y-27163390D02*
X333335714Y-26972914D01*
X333335714Y-26972914D02*
X333383333Y-26877676D01*
X333383333Y-26877676D02*
X333478571Y-26782438D01*
X333478571Y-26782438D02*
X333621428Y-26734819D01*
X333621428Y-26734819D02*
X333716666Y-26734819D01*
X333716666Y-26734819D02*
X333859523Y-26782438D01*
X333859523Y-26782438D02*
X333907142Y-26830057D01*
X334859523Y-27734819D02*
X334288095Y-27734819D01*
X334573809Y-27734819D02*
X334573809Y-26734819D01*
X334573809Y-26734819D02*
X334478571Y-26877676D01*
X334478571Y-26877676D02*
X334383333Y-26972914D01*
X334383333Y-26972914D02*
X334288095Y-27020533D01*
X335716666Y-26734819D02*
X335526190Y-26734819D01*
X335526190Y-26734819D02*
X335430952Y-26782438D01*
X335430952Y-26782438D02*
X335383333Y-26830057D01*
X335383333Y-26830057D02*
X335288095Y-26972914D01*
X335288095Y-26972914D02*
X335240476Y-27163390D01*
X335240476Y-27163390D02*
X335240476Y-27544342D01*
X335240476Y-27544342D02*
X335288095Y-27639580D01*
X335288095Y-27639580D02*
X335335714Y-27687200D01*
X335335714Y-27687200D02*
X335430952Y-27734819D01*
X335430952Y-27734819D02*
X335621428Y-27734819D01*
X335621428Y-27734819D02*
X335716666Y-27687200D01*
X335716666Y-27687200D02*
X335764285Y-27639580D01*
X335764285Y-27639580D02*
X335811904Y-27544342D01*
X335811904Y-27544342D02*
X335811904Y-27306247D01*
X335811904Y-27306247D02*
X335764285Y-27211009D01*
X335764285Y-27211009D02*
X335716666Y-27163390D01*
X335716666Y-27163390D02*
X335621428Y-27115771D01*
X335621428Y-27115771D02*
X335430952Y-27115771D01*
X335430952Y-27115771D02*
X335335714Y-27163390D01*
X335335714Y-27163390D02*
X335288095Y-27211009D01*
X335288095Y-27211009D02*
X335240476Y-27306247D01*
X351478095Y-39086819D02*
X352049523Y-39086819D01*
X351763809Y-40086819D02*
X351763809Y-39086819D01*
X352382857Y-40086819D02*
X352382857Y-39086819D01*
X352382857Y-39086819D02*
X352763809Y-39086819D01*
X352763809Y-39086819D02*
X352859047Y-39134438D01*
X352859047Y-39134438D02*
X352906666Y-39182057D01*
X352906666Y-39182057D02*
X352954285Y-39277295D01*
X352954285Y-39277295D02*
X352954285Y-39420152D01*
X352954285Y-39420152D02*
X352906666Y-39515390D01*
X352906666Y-39515390D02*
X352859047Y-39563009D01*
X352859047Y-39563009D02*
X352763809Y-39610628D01*
X352763809Y-39610628D02*
X352382857Y-39610628D01*
X353430476Y-40086819D02*
X353620952Y-40086819D01*
X353620952Y-40086819D02*
X353716190Y-40039200D01*
X353716190Y-40039200D02*
X353763809Y-39991580D01*
X353763809Y-39991580D02*
X353859047Y-39848723D01*
X353859047Y-39848723D02*
X353906666Y-39658247D01*
X353906666Y-39658247D02*
X353906666Y-39277295D01*
X353906666Y-39277295D02*
X353859047Y-39182057D01*
X353859047Y-39182057D02*
X353811428Y-39134438D01*
X353811428Y-39134438D02*
X353716190Y-39086819D01*
X353716190Y-39086819D02*
X353525714Y-39086819D01*
X353525714Y-39086819D02*
X353430476Y-39134438D01*
X353430476Y-39134438D02*
X353382857Y-39182057D01*
X353382857Y-39182057D02*
X353335238Y-39277295D01*
X353335238Y-39277295D02*
X353335238Y-39515390D01*
X353335238Y-39515390D02*
X353382857Y-39610628D01*
X353382857Y-39610628D02*
X353430476Y-39658247D01*
X353430476Y-39658247D02*
X353525714Y-39705866D01*
X353525714Y-39705866D02*
X353716190Y-39705866D01*
X353716190Y-39705866D02*
X353811428Y-39658247D01*
X353811428Y-39658247D02*
X353859047Y-39610628D01*
X353859047Y-39610628D02*
X353906666Y-39515390D01*
X75535830Y-110809523D02*
X75583450Y-110857142D01*
X75583450Y-110857142D02*
X75631069Y-110999999D01*
X75631069Y-110999999D02*
X75631069Y-111095237D01*
X75631069Y-111095237D02*
X75583450Y-111238094D01*
X75583450Y-111238094D02*
X75488211Y-111333332D01*
X75488211Y-111333332D02*
X75392973Y-111380951D01*
X75392973Y-111380951D02*
X75202497Y-111428570D01*
X75202497Y-111428570D02*
X75059640Y-111428570D01*
X75059640Y-111428570D02*
X74869164Y-111380951D01*
X74869164Y-111380951D02*
X74773926Y-111333332D01*
X74773926Y-111333332D02*
X74678688Y-111238094D01*
X74678688Y-111238094D02*
X74631069Y-111095237D01*
X74631069Y-111095237D02*
X74631069Y-110999999D01*
X74631069Y-110999999D02*
X74678688Y-110857142D01*
X74678688Y-110857142D02*
X74726307Y-110809523D01*
X75059640Y-110238094D02*
X75012021Y-110333332D01*
X75012021Y-110333332D02*
X74964402Y-110380951D01*
X74964402Y-110380951D02*
X74869164Y-110428570D01*
X74869164Y-110428570D02*
X74821545Y-110428570D01*
X74821545Y-110428570D02*
X74726307Y-110380951D01*
X74726307Y-110380951D02*
X74678688Y-110333332D01*
X74678688Y-110333332D02*
X74631069Y-110238094D01*
X74631069Y-110238094D02*
X74631069Y-110047618D01*
X74631069Y-110047618D02*
X74678688Y-109952380D01*
X74678688Y-109952380D02*
X74726307Y-109904761D01*
X74726307Y-109904761D02*
X74821545Y-109857142D01*
X74821545Y-109857142D02*
X74869164Y-109857142D01*
X74869164Y-109857142D02*
X74964402Y-109904761D01*
X74964402Y-109904761D02*
X75012021Y-109952380D01*
X75012021Y-109952380D02*
X75059640Y-110047618D01*
X75059640Y-110047618D02*
X75059640Y-110238094D01*
X75059640Y-110238094D02*
X75107259Y-110333332D01*
X75107259Y-110333332D02*
X75154878Y-110380951D01*
X75154878Y-110380951D02*
X75250116Y-110428570D01*
X75250116Y-110428570D02*
X75440592Y-110428570D01*
X75440592Y-110428570D02*
X75535830Y-110380951D01*
X75535830Y-110380951D02*
X75583450Y-110333332D01*
X75583450Y-110333332D02*
X75631069Y-110238094D01*
X75631069Y-110238094D02*
X75631069Y-110047618D01*
X75631069Y-110047618D02*
X75583450Y-109952380D01*
X75583450Y-109952380D02*
X75535830Y-109904761D01*
X75535830Y-109904761D02*
X75440592Y-109857142D01*
X75440592Y-109857142D02*
X75250116Y-109857142D01*
X75250116Y-109857142D02*
X75154878Y-109904761D01*
X75154878Y-109904761D02*
X75107259Y-109952380D01*
X75107259Y-109952380D02*
X75059640Y-110047618D01*
X75631069Y-108904761D02*
X75631069Y-109476189D01*
X75631069Y-109190475D02*
X74631069Y-109190475D01*
X74631069Y-109190475D02*
X74773926Y-109285713D01*
X74773926Y-109285713D02*
X74869164Y-109380951D01*
X74869164Y-109380951D02*
X74916783Y-109476189D01*
X323527142Y-31944819D02*
X323193809Y-31468628D01*
X322955714Y-31944819D02*
X322955714Y-30944819D01*
X322955714Y-30944819D02*
X323336666Y-30944819D01*
X323336666Y-30944819D02*
X323431904Y-30992438D01*
X323431904Y-30992438D02*
X323479523Y-31040057D01*
X323479523Y-31040057D02*
X323527142Y-31135295D01*
X323527142Y-31135295D02*
X323527142Y-31278152D01*
X323527142Y-31278152D02*
X323479523Y-31373390D01*
X323479523Y-31373390D02*
X323431904Y-31421009D01*
X323431904Y-31421009D02*
X323336666Y-31468628D01*
X323336666Y-31468628D02*
X322955714Y-31468628D01*
X324479523Y-31944819D02*
X323908095Y-31944819D01*
X324193809Y-31944819D02*
X324193809Y-30944819D01*
X324193809Y-30944819D02*
X324098571Y-31087676D01*
X324098571Y-31087676D02*
X324003333Y-31182914D01*
X324003333Y-31182914D02*
X323908095Y-31230533D01*
X324860476Y-31040057D02*
X324908095Y-30992438D01*
X324908095Y-30992438D02*
X325003333Y-30944819D01*
X325003333Y-30944819D02*
X325241428Y-30944819D01*
X325241428Y-30944819D02*
X325336666Y-30992438D01*
X325336666Y-30992438D02*
X325384285Y-31040057D01*
X325384285Y-31040057D02*
X325431904Y-31135295D01*
X325431904Y-31135295D02*
X325431904Y-31230533D01*
X325431904Y-31230533D02*
X325384285Y-31373390D01*
X325384285Y-31373390D02*
X324812857Y-31944819D01*
X324812857Y-31944819D02*
X325431904Y-31944819D01*
X346192142Y-107579819D02*
X345858809Y-107103628D01*
X345620714Y-107579819D02*
X345620714Y-106579819D01*
X345620714Y-106579819D02*
X346001666Y-106579819D01*
X346001666Y-106579819D02*
X346096904Y-106627438D01*
X346096904Y-106627438D02*
X346144523Y-106675057D01*
X346144523Y-106675057D02*
X346192142Y-106770295D01*
X346192142Y-106770295D02*
X346192142Y-106913152D01*
X346192142Y-106913152D02*
X346144523Y-107008390D01*
X346144523Y-107008390D02*
X346096904Y-107056009D01*
X346096904Y-107056009D02*
X346001666Y-107103628D01*
X346001666Y-107103628D02*
X345620714Y-107103628D01*
X347096904Y-106579819D02*
X346620714Y-106579819D01*
X346620714Y-106579819D02*
X346573095Y-107056009D01*
X346573095Y-107056009D02*
X346620714Y-107008390D01*
X346620714Y-107008390D02*
X346715952Y-106960771D01*
X346715952Y-106960771D02*
X346954047Y-106960771D01*
X346954047Y-106960771D02*
X347049285Y-107008390D01*
X347049285Y-107008390D02*
X347096904Y-107056009D01*
X347096904Y-107056009D02*
X347144523Y-107151247D01*
X347144523Y-107151247D02*
X347144523Y-107389342D01*
X347144523Y-107389342D02*
X347096904Y-107484580D01*
X347096904Y-107484580D02*
X347049285Y-107532200D01*
X347049285Y-107532200D02*
X346954047Y-107579819D01*
X346954047Y-107579819D02*
X346715952Y-107579819D01*
X346715952Y-107579819D02*
X346620714Y-107532200D01*
X346620714Y-107532200D02*
X346573095Y-107484580D01*
X348001666Y-106579819D02*
X347811190Y-106579819D01*
X347811190Y-106579819D02*
X347715952Y-106627438D01*
X347715952Y-106627438D02*
X347668333Y-106675057D01*
X347668333Y-106675057D02*
X347573095Y-106817914D01*
X347573095Y-106817914D02*
X347525476Y-107008390D01*
X347525476Y-107008390D02*
X347525476Y-107389342D01*
X347525476Y-107389342D02*
X347573095Y-107484580D01*
X347573095Y-107484580D02*
X347620714Y-107532200D01*
X347620714Y-107532200D02*
X347715952Y-107579819D01*
X347715952Y-107579819D02*
X347906428Y-107579819D01*
X347906428Y-107579819D02*
X348001666Y-107532200D01*
X348001666Y-107532200D02*
X348049285Y-107484580D01*
X348049285Y-107484580D02*
X348096904Y-107389342D01*
X348096904Y-107389342D02*
X348096904Y-107151247D01*
X348096904Y-107151247D02*
X348049285Y-107056009D01*
X348049285Y-107056009D02*
X348001666Y-107008390D01*
X348001666Y-107008390D02*
X347906428Y-106960771D01*
X347906428Y-106960771D02*
X347715952Y-106960771D01*
X347715952Y-106960771D02*
X347620714Y-107008390D01*
X347620714Y-107008390D02*
X347573095Y-107056009D01*
X347573095Y-107056009D02*
X347525476Y-107151247D01*
X350817142Y-51159580D02*
X350769523Y-51207200D01*
X350769523Y-51207200D02*
X350626666Y-51254819D01*
X350626666Y-51254819D02*
X350531428Y-51254819D01*
X350531428Y-51254819D02*
X350388571Y-51207200D01*
X350388571Y-51207200D02*
X350293333Y-51111961D01*
X350293333Y-51111961D02*
X350245714Y-51016723D01*
X350245714Y-51016723D02*
X350198095Y-50826247D01*
X350198095Y-50826247D02*
X350198095Y-50683390D01*
X350198095Y-50683390D02*
X350245714Y-50492914D01*
X350245714Y-50492914D02*
X350293333Y-50397676D01*
X350293333Y-50397676D02*
X350388571Y-50302438D01*
X350388571Y-50302438D02*
X350531428Y-50254819D01*
X350531428Y-50254819D02*
X350626666Y-50254819D01*
X350626666Y-50254819D02*
X350769523Y-50302438D01*
X350769523Y-50302438D02*
X350817142Y-50350057D01*
X351198095Y-50350057D02*
X351245714Y-50302438D01*
X351245714Y-50302438D02*
X351340952Y-50254819D01*
X351340952Y-50254819D02*
X351579047Y-50254819D01*
X351579047Y-50254819D02*
X351674285Y-50302438D01*
X351674285Y-50302438D02*
X351721904Y-50350057D01*
X351721904Y-50350057D02*
X351769523Y-50445295D01*
X351769523Y-50445295D02*
X351769523Y-50540533D01*
X351769523Y-50540533D02*
X351721904Y-50683390D01*
X351721904Y-50683390D02*
X351150476Y-51254819D01*
X351150476Y-51254819D02*
X351769523Y-51254819D01*
X352150476Y-50350057D02*
X352198095Y-50302438D01*
X352198095Y-50302438D02*
X352293333Y-50254819D01*
X352293333Y-50254819D02*
X352531428Y-50254819D01*
X352531428Y-50254819D02*
X352626666Y-50302438D01*
X352626666Y-50302438D02*
X352674285Y-50350057D01*
X352674285Y-50350057D02*
X352721904Y-50445295D01*
X352721904Y-50445295D02*
X352721904Y-50540533D01*
X352721904Y-50540533D02*
X352674285Y-50683390D01*
X352674285Y-50683390D02*
X352102857Y-51254819D01*
X352102857Y-51254819D02*
X352721904Y-51254819D01*
X347428095Y-26936819D02*
X347999523Y-26936819D01*
X347713809Y-27936819D02*
X347713809Y-26936819D01*
X348332857Y-27936819D02*
X348332857Y-26936819D01*
X348332857Y-26936819D02*
X348713809Y-26936819D01*
X348713809Y-26936819D02*
X348809047Y-26984438D01*
X348809047Y-26984438D02*
X348856666Y-27032057D01*
X348856666Y-27032057D02*
X348904285Y-27127295D01*
X348904285Y-27127295D02*
X348904285Y-27270152D01*
X348904285Y-27270152D02*
X348856666Y-27365390D01*
X348856666Y-27365390D02*
X348809047Y-27413009D01*
X348809047Y-27413009D02*
X348713809Y-27460628D01*
X348713809Y-27460628D02*
X348332857Y-27460628D01*
X349856666Y-27936819D02*
X349285238Y-27936819D01*
X349570952Y-27936819D02*
X349570952Y-26936819D01*
X349570952Y-26936819D02*
X349475714Y-27079676D01*
X349475714Y-27079676D02*
X349380476Y-27174914D01*
X349380476Y-27174914D02*
X349285238Y-27222533D01*
X130738095Y-129954819D02*
X130738095Y-130764342D01*
X130738095Y-130764342D02*
X130785714Y-130859580D01*
X130785714Y-130859580D02*
X130833333Y-130907200D01*
X130833333Y-130907200D02*
X130928571Y-130954819D01*
X130928571Y-130954819D02*
X131119047Y-130954819D01*
X131119047Y-130954819D02*
X131214285Y-130907200D01*
X131214285Y-130907200D02*
X131261904Y-130859580D01*
X131261904Y-130859580D02*
X131309523Y-130764342D01*
X131309523Y-130764342D02*
X131309523Y-129954819D01*
X132309523Y-130954819D02*
X131738095Y-130954819D01*
X132023809Y-130954819D02*
X132023809Y-129954819D01*
X132023809Y-129954819D02*
X131928571Y-130097676D01*
X131928571Y-130097676D02*
X131833333Y-130192914D01*
X131833333Y-130192914D02*
X131738095Y-130240533D01*
X363313095Y-103831819D02*
X363884523Y-103831819D01*
X363598809Y-104831819D02*
X363598809Y-103831819D01*
X364217857Y-104831819D02*
X364217857Y-103831819D01*
X364217857Y-103831819D02*
X364598809Y-103831819D01*
X364598809Y-103831819D02*
X364694047Y-103879438D01*
X364694047Y-103879438D02*
X364741666Y-103927057D01*
X364741666Y-103927057D02*
X364789285Y-104022295D01*
X364789285Y-104022295D02*
X364789285Y-104165152D01*
X364789285Y-104165152D02*
X364741666Y-104260390D01*
X364741666Y-104260390D02*
X364694047Y-104308009D01*
X364694047Y-104308009D02*
X364598809Y-104355628D01*
X364598809Y-104355628D02*
X364217857Y-104355628D01*
X365360714Y-104260390D02*
X365265476Y-104212771D01*
X365265476Y-104212771D02*
X365217857Y-104165152D01*
X365217857Y-104165152D02*
X365170238Y-104069914D01*
X365170238Y-104069914D02*
X365170238Y-104022295D01*
X365170238Y-104022295D02*
X365217857Y-103927057D01*
X365217857Y-103927057D02*
X365265476Y-103879438D01*
X365265476Y-103879438D02*
X365360714Y-103831819D01*
X365360714Y-103831819D02*
X365551190Y-103831819D01*
X365551190Y-103831819D02*
X365646428Y-103879438D01*
X365646428Y-103879438D02*
X365694047Y-103927057D01*
X365694047Y-103927057D02*
X365741666Y-104022295D01*
X365741666Y-104022295D02*
X365741666Y-104069914D01*
X365741666Y-104069914D02*
X365694047Y-104165152D01*
X365694047Y-104165152D02*
X365646428Y-104212771D01*
X365646428Y-104212771D02*
X365551190Y-104260390D01*
X365551190Y-104260390D02*
X365360714Y-104260390D01*
X365360714Y-104260390D02*
X365265476Y-104308009D01*
X365265476Y-104308009D02*
X365217857Y-104355628D01*
X365217857Y-104355628D02*
X365170238Y-104450866D01*
X365170238Y-104450866D02*
X365170238Y-104641342D01*
X365170238Y-104641342D02*
X365217857Y-104736580D01*
X365217857Y-104736580D02*
X365265476Y-104784200D01*
X365265476Y-104784200D02*
X365360714Y-104831819D01*
X365360714Y-104831819D02*
X365551190Y-104831819D01*
X365551190Y-104831819D02*
X365646428Y-104784200D01*
X365646428Y-104784200D02*
X365694047Y-104736580D01*
X365694047Y-104736580D02*
X365741666Y-104641342D01*
X365741666Y-104641342D02*
X365741666Y-104450866D01*
X365741666Y-104450866D02*
X365694047Y-104355628D01*
X365694047Y-104355628D02*
X365646428Y-104308009D01*
X365646428Y-104308009D02*
X365551190Y-104260390D01*
X353727142Y-53244819D02*
X353393809Y-52768628D01*
X353155714Y-53244819D02*
X353155714Y-52244819D01*
X353155714Y-52244819D02*
X353536666Y-52244819D01*
X353536666Y-52244819D02*
X353631904Y-52292438D01*
X353631904Y-52292438D02*
X353679523Y-52340057D01*
X353679523Y-52340057D02*
X353727142Y-52435295D01*
X353727142Y-52435295D02*
X353727142Y-52578152D01*
X353727142Y-52578152D02*
X353679523Y-52673390D01*
X353679523Y-52673390D02*
X353631904Y-52721009D01*
X353631904Y-52721009D02*
X353536666Y-52768628D01*
X353536666Y-52768628D02*
X353155714Y-52768628D01*
X354679523Y-53244819D02*
X354108095Y-53244819D01*
X354393809Y-53244819D02*
X354393809Y-52244819D01*
X354393809Y-52244819D02*
X354298571Y-52387676D01*
X354298571Y-52387676D02*
X354203333Y-52482914D01*
X354203333Y-52482914D02*
X354108095Y-52530533D01*
X355298571Y-52244819D02*
X355393809Y-52244819D01*
X355393809Y-52244819D02*
X355489047Y-52292438D01*
X355489047Y-52292438D02*
X355536666Y-52340057D01*
X355536666Y-52340057D02*
X355584285Y-52435295D01*
X355584285Y-52435295D02*
X355631904Y-52625771D01*
X355631904Y-52625771D02*
X355631904Y-52863866D01*
X355631904Y-52863866D02*
X355584285Y-53054342D01*
X355584285Y-53054342D02*
X355536666Y-53149580D01*
X355536666Y-53149580D02*
X355489047Y-53197200D01*
X355489047Y-53197200D02*
X355393809Y-53244819D01*
X355393809Y-53244819D02*
X355298571Y-53244819D01*
X355298571Y-53244819D02*
X355203333Y-53197200D01*
X355203333Y-53197200D02*
X355155714Y-53149580D01*
X355155714Y-53149580D02*
X355108095Y-53054342D01*
X355108095Y-53054342D02*
X355060476Y-52863866D01*
X355060476Y-52863866D02*
X355060476Y-52625771D01*
X355060476Y-52625771D02*
X355108095Y-52435295D01*
X355108095Y-52435295D02*
X355155714Y-52340057D01*
X355155714Y-52340057D02*
X355203333Y-52292438D01*
X355203333Y-52292438D02*
X355298571Y-52244819D01*
X356637142Y-49264819D02*
X356303809Y-48788628D01*
X356065714Y-49264819D02*
X356065714Y-48264819D01*
X356065714Y-48264819D02*
X356446666Y-48264819D01*
X356446666Y-48264819D02*
X356541904Y-48312438D01*
X356541904Y-48312438D02*
X356589523Y-48360057D01*
X356589523Y-48360057D02*
X356637142Y-48455295D01*
X356637142Y-48455295D02*
X356637142Y-48598152D01*
X356637142Y-48598152D02*
X356589523Y-48693390D01*
X356589523Y-48693390D02*
X356541904Y-48741009D01*
X356541904Y-48741009D02*
X356446666Y-48788628D01*
X356446666Y-48788628D02*
X356065714Y-48788628D01*
X357494285Y-48264819D02*
X357303809Y-48264819D01*
X357303809Y-48264819D02*
X357208571Y-48312438D01*
X357208571Y-48312438D02*
X357160952Y-48360057D01*
X357160952Y-48360057D02*
X357065714Y-48502914D01*
X357065714Y-48502914D02*
X357018095Y-48693390D01*
X357018095Y-48693390D02*
X357018095Y-49074342D01*
X357018095Y-49074342D02*
X357065714Y-49169580D01*
X357065714Y-49169580D02*
X357113333Y-49217200D01*
X357113333Y-49217200D02*
X357208571Y-49264819D01*
X357208571Y-49264819D02*
X357399047Y-49264819D01*
X357399047Y-49264819D02*
X357494285Y-49217200D01*
X357494285Y-49217200D02*
X357541904Y-49169580D01*
X357541904Y-49169580D02*
X357589523Y-49074342D01*
X357589523Y-49074342D02*
X357589523Y-48836247D01*
X357589523Y-48836247D02*
X357541904Y-48741009D01*
X357541904Y-48741009D02*
X357494285Y-48693390D01*
X357494285Y-48693390D02*
X357399047Y-48645771D01*
X357399047Y-48645771D02*
X357208571Y-48645771D01*
X357208571Y-48645771D02*
X357113333Y-48693390D01*
X357113333Y-48693390D02*
X357065714Y-48741009D01*
X357065714Y-48741009D02*
X357018095Y-48836247D01*
X358208571Y-48264819D02*
X358303809Y-48264819D01*
X358303809Y-48264819D02*
X358399047Y-48312438D01*
X358399047Y-48312438D02*
X358446666Y-48360057D01*
X358446666Y-48360057D02*
X358494285Y-48455295D01*
X358494285Y-48455295D02*
X358541904Y-48645771D01*
X358541904Y-48645771D02*
X358541904Y-48883866D01*
X358541904Y-48883866D02*
X358494285Y-49074342D01*
X358494285Y-49074342D02*
X358446666Y-49169580D01*
X358446666Y-49169580D02*
X358399047Y-49217200D01*
X358399047Y-49217200D02*
X358303809Y-49264819D01*
X358303809Y-49264819D02*
X358208571Y-49264819D01*
X358208571Y-49264819D02*
X358113333Y-49217200D01*
X358113333Y-49217200D02*
X358065714Y-49169580D01*
X358065714Y-49169580D02*
X358018095Y-49074342D01*
X358018095Y-49074342D02*
X357970476Y-48883866D01*
X357970476Y-48883866D02*
X357970476Y-48645771D01*
X357970476Y-48645771D02*
X358018095Y-48455295D01*
X358018095Y-48455295D02*
X358065714Y-48360057D01*
X358065714Y-48360057D02*
X358113333Y-48312438D01*
X358113333Y-48312438D02*
X358208571Y-48264819D01*
X102339580Y-105142857D02*
X102387200Y-105190476D01*
X102387200Y-105190476D02*
X102434819Y-105333333D01*
X102434819Y-105333333D02*
X102434819Y-105428571D01*
X102434819Y-105428571D02*
X102387200Y-105571428D01*
X102387200Y-105571428D02*
X102291961Y-105666666D01*
X102291961Y-105666666D02*
X102196723Y-105714285D01*
X102196723Y-105714285D02*
X102006247Y-105761904D01*
X102006247Y-105761904D02*
X101863390Y-105761904D01*
X101863390Y-105761904D02*
X101672914Y-105714285D01*
X101672914Y-105714285D02*
X101577676Y-105666666D01*
X101577676Y-105666666D02*
X101482438Y-105571428D01*
X101482438Y-105571428D02*
X101434819Y-105428571D01*
X101434819Y-105428571D02*
X101434819Y-105333333D01*
X101434819Y-105333333D02*
X101482438Y-105190476D01*
X101482438Y-105190476D02*
X101530057Y-105142857D01*
X102434819Y-104190476D02*
X102434819Y-104761904D01*
X102434819Y-104476190D02*
X101434819Y-104476190D01*
X101434819Y-104476190D02*
X101577676Y-104571428D01*
X101577676Y-104571428D02*
X101672914Y-104666666D01*
X101672914Y-104666666D02*
X101720533Y-104761904D01*
X101434819Y-103857142D02*
X101434819Y-103238095D01*
X101434819Y-103238095D02*
X101815771Y-103571428D01*
X101815771Y-103571428D02*
X101815771Y-103428571D01*
X101815771Y-103428571D02*
X101863390Y-103333333D01*
X101863390Y-103333333D02*
X101911009Y-103285714D01*
X101911009Y-103285714D02*
X102006247Y-103238095D01*
X102006247Y-103238095D02*
X102244342Y-103238095D01*
X102244342Y-103238095D02*
X102339580Y-103285714D01*
X102339580Y-103285714D02*
X102387200Y-103333333D01*
X102387200Y-103333333D02*
X102434819Y-103428571D01*
X102434819Y-103428571D02*
X102434819Y-103714285D01*
X102434819Y-103714285D02*
X102387200Y-103809523D01*
X102387200Y-103809523D02*
X102339580Y-103857142D01*
X356637142Y-45284819D02*
X356303809Y-44808628D01*
X356065714Y-45284819D02*
X356065714Y-44284819D01*
X356065714Y-44284819D02*
X356446666Y-44284819D01*
X356446666Y-44284819D02*
X356541904Y-44332438D01*
X356541904Y-44332438D02*
X356589523Y-44380057D01*
X356589523Y-44380057D02*
X356637142Y-44475295D01*
X356637142Y-44475295D02*
X356637142Y-44618152D01*
X356637142Y-44618152D02*
X356589523Y-44713390D01*
X356589523Y-44713390D02*
X356541904Y-44761009D01*
X356541904Y-44761009D02*
X356446666Y-44808628D01*
X356446666Y-44808628D02*
X356065714Y-44808628D01*
X357589523Y-45284819D02*
X357018095Y-45284819D01*
X357303809Y-45284819D02*
X357303809Y-44284819D01*
X357303809Y-44284819D02*
X357208571Y-44427676D01*
X357208571Y-44427676D02*
X357113333Y-44522914D01*
X357113333Y-44522914D02*
X357018095Y-44570533D01*
X357922857Y-44284819D02*
X358541904Y-44284819D01*
X358541904Y-44284819D02*
X358208571Y-44665771D01*
X358208571Y-44665771D02*
X358351428Y-44665771D01*
X358351428Y-44665771D02*
X358446666Y-44713390D01*
X358446666Y-44713390D02*
X358494285Y-44761009D01*
X358494285Y-44761009D02*
X358541904Y-44856247D01*
X358541904Y-44856247D02*
X358541904Y-45094342D01*
X358541904Y-45094342D02*
X358494285Y-45189580D01*
X358494285Y-45189580D02*
X358446666Y-45237200D01*
X358446666Y-45237200D02*
X358351428Y-45284819D01*
X358351428Y-45284819D02*
X358065714Y-45284819D01*
X358065714Y-45284819D02*
X357970476Y-45237200D01*
X357970476Y-45237200D02*
X357922857Y-45189580D01*
X353727142Y-49169580D02*
X353679523Y-49217200D01*
X353679523Y-49217200D02*
X353536666Y-49264819D01*
X353536666Y-49264819D02*
X353441428Y-49264819D01*
X353441428Y-49264819D02*
X353298571Y-49217200D01*
X353298571Y-49217200D02*
X353203333Y-49121961D01*
X353203333Y-49121961D02*
X353155714Y-49026723D01*
X353155714Y-49026723D02*
X353108095Y-48836247D01*
X353108095Y-48836247D02*
X353108095Y-48693390D01*
X353108095Y-48693390D02*
X353155714Y-48502914D01*
X353155714Y-48502914D02*
X353203333Y-48407676D01*
X353203333Y-48407676D02*
X353298571Y-48312438D01*
X353298571Y-48312438D02*
X353441428Y-48264819D01*
X353441428Y-48264819D02*
X353536666Y-48264819D01*
X353536666Y-48264819D02*
X353679523Y-48312438D01*
X353679523Y-48312438D02*
X353727142Y-48360057D01*
X354298571Y-48693390D02*
X354203333Y-48645771D01*
X354203333Y-48645771D02*
X354155714Y-48598152D01*
X354155714Y-48598152D02*
X354108095Y-48502914D01*
X354108095Y-48502914D02*
X354108095Y-48455295D01*
X354108095Y-48455295D02*
X354155714Y-48360057D01*
X354155714Y-48360057D02*
X354203333Y-48312438D01*
X354203333Y-48312438D02*
X354298571Y-48264819D01*
X354298571Y-48264819D02*
X354489047Y-48264819D01*
X354489047Y-48264819D02*
X354584285Y-48312438D01*
X354584285Y-48312438D02*
X354631904Y-48360057D01*
X354631904Y-48360057D02*
X354679523Y-48455295D01*
X354679523Y-48455295D02*
X354679523Y-48502914D01*
X354679523Y-48502914D02*
X354631904Y-48598152D01*
X354631904Y-48598152D02*
X354584285Y-48645771D01*
X354584285Y-48645771D02*
X354489047Y-48693390D01*
X354489047Y-48693390D02*
X354298571Y-48693390D01*
X354298571Y-48693390D02*
X354203333Y-48741009D01*
X354203333Y-48741009D02*
X354155714Y-48788628D01*
X354155714Y-48788628D02*
X354108095Y-48883866D01*
X354108095Y-48883866D02*
X354108095Y-49074342D01*
X354108095Y-49074342D02*
X354155714Y-49169580D01*
X354155714Y-49169580D02*
X354203333Y-49217200D01*
X354203333Y-49217200D02*
X354298571Y-49264819D01*
X354298571Y-49264819D02*
X354489047Y-49264819D01*
X354489047Y-49264819D02*
X354584285Y-49217200D01*
X354584285Y-49217200D02*
X354631904Y-49169580D01*
X354631904Y-49169580D02*
X354679523Y-49074342D01*
X354679523Y-49074342D02*
X354679523Y-48883866D01*
X354679523Y-48883866D02*
X354631904Y-48788628D01*
X354631904Y-48788628D02*
X354584285Y-48741009D01*
X354584285Y-48741009D02*
X354489047Y-48693390D01*
X355012857Y-48264819D02*
X355679523Y-48264819D01*
X355679523Y-48264819D02*
X355250952Y-49264819D01*
X370781905Y-104479819D02*
X370781905Y-103479819D01*
X370781905Y-103479819D02*
X371020000Y-103479819D01*
X371020000Y-103479819D02*
X371162857Y-103527438D01*
X371162857Y-103527438D02*
X371258095Y-103622676D01*
X371258095Y-103622676D02*
X371305714Y-103717914D01*
X371305714Y-103717914D02*
X371353333Y-103908390D01*
X371353333Y-103908390D02*
X371353333Y-104051247D01*
X371353333Y-104051247D02*
X371305714Y-104241723D01*
X371305714Y-104241723D02*
X371258095Y-104336961D01*
X371258095Y-104336961D02*
X371162857Y-104432200D01*
X371162857Y-104432200D02*
X371020000Y-104479819D01*
X371020000Y-104479819D02*
X370781905Y-104479819D01*
X371924762Y-103908390D02*
X371829524Y-103860771D01*
X371829524Y-103860771D02*
X371781905Y-103813152D01*
X371781905Y-103813152D02*
X371734286Y-103717914D01*
X371734286Y-103717914D02*
X371734286Y-103670295D01*
X371734286Y-103670295D02*
X371781905Y-103575057D01*
X371781905Y-103575057D02*
X371829524Y-103527438D01*
X371829524Y-103527438D02*
X371924762Y-103479819D01*
X371924762Y-103479819D02*
X372115238Y-103479819D01*
X372115238Y-103479819D02*
X372210476Y-103527438D01*
X372210476Y-103527438D02*
X372258095Y-103575057D01*
X372258095Y-103575057D02*
X372305714Y-103670295D01*
X372305714Y-103670295D02*
X372305714Y-103717914D01*
X372305714Y-103717914D02*
X372258095Y-103813152D01*
X372258095Y-103813152D02*
X372210476Y-103860771D01*
X372210476Y-103860771D02*
X372115238Y-103908390D01*
X372115238Y-103908390D02*
X371924762Y-103908390D01*
X371924762Y-103908390D02*
X371829524Y-103956009D01*
X371829524Y-103956009D02*
X371781905Y-104003628D01*
X371781905Y-104003628D02*
X371734286Y-104098866D01*
X371734286Y-104098866D02*
X371734286Y-104289342D01*
X371734286Y-104289342D02*
X371781905Y-104384580D01*
X371781905Y-104384580D02*
X371829524Y-104432200D01*
X371829524Y-104432200D02*
X371924762Y-104479819D01*
X371924762Y-104479819D02*
X372115238Y-104479819D01*
X372115238Y-104479819D02*
X372210476Y-104432200D01*
X372210476Y-104432200D02*
X372258095Y-104384580D01*
X372258095Y-104384580D02*
X372305714Y-104289342D01*
X372305714Y-104289342D02*
X372305714Y-104098866D01*
X372305714Y-104098866D02*
X372258095Y-104003628D01*
X372258095Y-104003628D02*
X372210476Y-103956009D01*
X372210476Y-103956009D02*
X372115238Y-103908390D01*
X342747142Y-51089580D02*
X342699523Y-51137200D01*
X342699523Y-51137200D02*
X342556666Y-51184819D01*
X342556666Y-51184819D02*
X342461428Y-51184819D01*
X342461428Y-51184819D02*
X342318571Y-51137200D01*
X342318571Y-51137200D02*
X342223333Y-51041961D01*
X342223333Y-51041961D02*
X342175714Y-50946723D01*
X342175714Y-50946723D02*
X342128095Y-50756247D01*
X342128095Y-50756247D02*
X342128095Y-50613390D01*
X342128095Y-50613390D02*
X342175714Y-50422914D01*
X342175714Y-50422914D02*
X342223333Y-50327676D01*
X342223333Y-50327676D02*
X342318571Y-50232438D01*
X342318571Y-50232438D02*
X342461428Y-50184819D01*
X342461428Y-50184819D02*
X342556666Y-50184819D01*
X342556666Y-50184819D02*
X342699523Y-50232438D01*
X342699523Y-50232438D02*
X342747142Y-50280057D01*
X343318571Y-50613390D02*
X343223333Y-50565771D01*
X343223333Y-50565771D02*
X343175714Y-50518152D01*
X343175714Y-50518152D02*
X343128095Y-50422914D01*
X343128095Y-50422914D02*
X343128095Y-50375295D01*
X343128095Y-50375295D02*
X343175714Y-50280057D01*
X343175714Y-50280057D02*
X343223333Y-50232438D01*
X343223333Y-50232438D02*
X343318571Y-50184819D01*
X343318571Y-50184819D02*
X343509047Y-50184819D01*
X343509047Y-50184819D02*
X343604285Y-50232438D01*
X343604285Y-50232438D02*
X343651904Y-50280057D01*
X343651904Y-50280057D02*
X343699523Y-50375295D01*
X343699523Y-50375295D02*
X343699523Y-50422914D01*
X343699523Y-50422914D02*
X343651904Y-50518152D01*
X343651904Y-50518152D02*
X343604285Y-50565771D01*
X343604285Y-50565771D02*
X343509047Y-50613390D01*
X343509047Y-50613390D02*
X343318571Y-50613390D01*
X343318571Y-50613390D02*
X343223333Y-50661009D01*
X343223333Y-50661009D02*
X343175714Y-50708628D01*
X343175714Y-50708628D02*
X343128095Y-50803866D01*
X343128095Y-50803866D02*
X343128095Y-50994342D01*
X343128095Y-50994342D02*
X343175714Y-51089580D01*
X343175714Y-51089580D02*
X343223333Y-51137200D01*
X343223333Y-51137200D02*
X343318571Y-51184819D01*
X343318571Y-51184819D02*
X343509047Y-51184819D01*
X343509047Y-51184819D02*
X343604285Y-51137200D01*
X343604285Y-51137200D02*
X343651904Y-51089580D01*
X343651904Y-51089580D02*
X343699523Y-50994342D01*
X343699523Y-50994342D02*
X343699523Y-50803866D01*
X343699523Y-50803866D02*
X343651904Y-50708628D01*
X343651904Y-50708628D02*
X343604285Y-50661009D01*
X343604285Y-50661009D02*
X343509047Y-50613390D01*
X344556666Y-50518152D02*
X344556666Y-51184819D01*
X344318571Y-50137200D02*
X344080476Y-50851485D01*
X344080476Y-50851485D02*
X344699523Y-50851485D01*
X334936905Y-107881819D02*
X335508333Y-107881819D01*
X335222619Y-108881819D02*
X335222619Y-107881819D01*
X335841667Y-108881819D02*
X335841667Y-107881819D01*
X335841667Y-107881819D02*
X336222619Y-107881819D01*
X336222619Y-107881819D02*
X336317857Y-107929438D01*
X336317857Y-107929438D02*
X336365476Y-107977057D01*
X336365476Y-107977057D02*
X336413095Y-108072295D01*
X336413095Y-108072295D02*
X336413095Y-108215152D01*
X336413095Y-108215152D02*
X336365476Y-108310390D01*
X336365476Y-108310390D02*
X336317857Y-108358009D01*
X336317857Y-108358009D02*
X336222619Y-108405628D01*
X336222619Y-108405628D02*
X335841667Y-108405628D01*
X337365476Y-108881819D02*
X336794048Y-108881819D01*
X337079762Y-108881819D02*
X337079762Y-107881819D01*
X337079762Y-107881819D02*
X336984524Y-108024676D01*
X336984524Y-108024676D02*
X336889286Y-108119914D01*
X336889286Y-108119914D02*
X336794048Y-108167533D01*
X337746429Y-107977057D02*
X337794048Y-107929438D01*
X337794048Y-107929438D02*
X337889286Y-107881819D01*
X337889286Y-107881819D02*
X338127381Y-107881819D01*
X338127381Y-107881819D02*
X338222619Y-107929438D01*
X338222619Y-107929438D02*
X338270238Y-107977057D01*
X338270238Y-107977057D02*
X338317857Y-108072295D01*
X338317857Y-108072295D02*
X338317857Y-108167533D01*
X338317857Y-108167533D02*
X338270238Y-108310390D01*
X338270238Y-108310390D02*
X337698810Y-108881819D01*
X337698810Y-108881819D02*
X338317857Y-108881819D01*
X323527142Y-36154819D02*
X323193809Y-35678628D01*
X322955714Y-36154819D02*
X322955714Y-35154819D01*
X322955714Y-35154819D02*
X323336666Y-35154819D01*
X323336666Y-35154819D02*
X323431904Y-35202438D01*
X323431904Y-35202438D02*
X323479523Y-35250057D01*
X323479523Y-35250057D02*
X323527142Y-35345295D01*
X323527142Y-35345295D02*
X323527142Y-35488152D01*
X323527142Y-35488152D02*
X323479523Y-35583390D01*
X323479523Y-35583390D02*
X323431904Y-35631009D01*
X323431904Y-35631009D02*
X323336666Y-35678628D01*
X323336666Y-35678628D02*
X322955714Y-35678628D01*
X324479523Y-36154819D02*
X323908095Y-36154819D01*
X324193809Y-36154819D02*
X324193809Y-35154819D01*
X324193809Y-35154819D02*
X324098571Y-35297676D01*
X324098571Y-35297676D02*
X324003333Y-35392914D01*
X324003333Y-35392914D02*
X323908095Y-35440533D01*
X325336666Y-35154819D02*
X325146190Y-35154819D01*
X325146190Y-35154819D02*
X325050952Y-35202438D01*
X325050952Y-35202438D02*
X325003333Y-35250057D01*
X325003333Y-35250057D02*
X324908095Y-35392914D01*
X324908095Y-35392914D02*
X324860476Y-35583390D01*
X324860476Y-35583390D02*
X324860476Y-35964342D01*
X324860476Y-35964342D02*
X324908095Y-36059580D01*
X324908095Y-36059580D02*
X324955714Y-36107200D01*
X324955714Y-36107200D02*
X325050952Y-36154819D01*
X325050952Y-36154819D02*
X325241428Y-36154819D01*
X325241428Y-36154819D02*
X325336666Y-36107200D01*
X325336666Y-36107200D02*
X325384285Y-36059580D01*
X325384285Y-36059580D02*
X325431904Y-35964342D01*
X325431904Y-35964342D02*
X325431904Y-35726247D01*
X325431904Y-35726247D02*
X325384285Y-35631009D01*
X325384285Y-35631009D02*
X325336666Y-35583390D01*
X325336666Y-35583390D02*
X325241428Y-35535771D01*
X325241428Y-35535771D02*
X325050952Y-35535771D01*
X325050952Y-35535771D02*
X324955714Y-35583390D01*
X324955714Y-35583390D02*
X324908095Y-35631009D01*
X324908095Y-35631009D02*
X324860476Y-35726247D01*
X351478095Y-35036819D02*
X352049523Y-35036819D01*
X351763809Y-36036819D02*
X351763809Y-35036819D01*
X352382857Y-36036819D02*
X352382857Y-35036819D01*
X352382857Y-35036819D02*
X352763809Y-35036819D01*
X352763809Y-35036819D02*
X352859047Y-35084438D01*
X352859047Y-35084438D02*
X352906666Y-35132057D01*
X352906666Y-35132057D02*
X352954285Y-35227295D01*
X352954285Y-35227295D02*
X352954285Y-35370152D01*
X352954285Y-35370152D02*
X352906666Y-35465390D01*
X352906666Y-35465390D02*
X352859047Y-35513009D01*
X352859047Y-35513009D02*
X352763809Y-35560628D01*
X352763809Y-35560628D02*
X352382857Y-35560628D01*
X353287619Y-35036819D02*
X353954285Y-35036819D01*
X353954285Y-35036819D02*
X353525714Y-36036819D01*
X104359580Y-110642857D02*
X104407200Y-110690476D01*
X104407200Y-110690476D02*
X104454819Y-110833333D01*
X104454819Y-110833333D02*
X104454819Y-110928571D01*
X104454819Y-110928571D02*
X104407200Y-111071428D01*
X104407200Y-111071428D02*
X104311961Y-111166666D01*
X104311961Y-111166666D02*
X104216723Y-111214285D01*
X104216723Y-111214285D02*
X104026247Y-111261904D01*
X104026247Y-111261904D02*
X103883390Y-111261904D01*
X103883390Y-111261904D02*
X103692914Y-111214285D01*
X103692914Y-111214285D02*
X103597676Y-111166666D01*
X103597676Y-111166666D02*
X103502438Y-111071428D01*
X103502438Y-111071428D02*
X103454819Y-110928571D01*
X103454819Y-110928571D02*
X103454819Y-110833333D01*
X103454819Y-110833333D02*
X103502438Y-110690476D01*
X103502438Y-110690476D02*
X103550057Y-110642857D01*
X103550057Y-110261904D02*
X103502438Y-110214285D01*
X103502438Y-110214285D02*
X103454819Y-110119047D01*
X103454819Y-110119047D02*
X103454819Y-109880952D01*
X103454819Y-109880952D02*
X103502438Y-109785714D01*
X103502438Y-109785714D02*
X103550057Y-109738095D01*
X103550057Y-109738095D02*
X103645295Y-109690476D01*
X103645295Y-109690476D02*
X103740533Y-109690476D01*
X103740533Y-109690476D02*
X103883390Y-109738095D01*
X103883390Y-109738095D02*
X104454819Y-110309523D01*
X104454819Y-110309523D02*
X104454819Y-109690476D01*
X103454819Y-108833333D02*
X103454819Y-109023809D01*
X103454819Y-109023809D02*
X103502438Y-109119047D01*
X103502438Y-109119047D02*
X103550057Y-109166666D01*
X103550057Y-109166666D02*
X103692914Y-109261904D01*
X103692914Y-109261904D02*
X103883390Y-109309523D01*
X103883390Y-109309523D02*
X104264342Y-109309523D01*
X104264342Y-109309523D02*
X104359580Y-109261904D01*
X104359580Y-109261904D02*
X104407200Y-109214285D01*
X104407200Y-109214285D02*
X104454819Y-109119047D01*
X104454819Y-109119047D02*
X104454819Y-108928571D01*
X104454819Y-108928571D02*
X104407200Y-108833333D01*
X104407200Y-108833333D02*
X104359580Y-108785714D01*
X104359580Y-108785714D02*
X104264342Y-108738095D01*
X104264342Y-108738095D02*
X104026247Y-108738095D01*
X104026247Y-108738095D02*
X103931009Y-108785714D01*
X103931009Y-108785714D02*
X103883390Y-108833333D01*
X103883390Y-108833333D02*
X103835771Y-108928571D01*
X103835771Y-108928571D02*
X103835771Y-109119047D01*
X103835771Y-109119047D02*
X103883390Y-109214285D01*
X103883390Y-109214285D02*
X103931009Y-109261904D01*
X103931009Y-109261904D02*
X104026247Y-109309523D01*
X347157142Y-51184819D02*
X346823809Y-50708628D01*
X346585714Y-51184819D02*
X346585714Y-50184819D01*
X346585714Y-50184819D02*
X346966666Y-50184819D01*
X346966666Y-50184819D02*
X347061904Y-50232438D01*
X347061904Y-50232438D02*
X347109523Y-50280057D01*
X347109523Y-50280057D02*
X347157142Y-50375295D01*
X347157142Y-50375295D02*
X347157142Y-50518152D01*
X347157142Y-50518152D02*
X347109523Y-50613390D01*
X347109523Y-50613390D02*
X347061904Y-50661009D01*
X347061904Y-50661009D02*
X346966666Y-50708628D01*
X346966666Y-50708628D02*
X346585714Y-50708628D01*
X348014285Y-50184819D02*
X347823809Y-50184819D01*
X347823809Y-50184819D02*
X347728571Y-50232438D01*
X347728571Y-50232438D02*
X347680952Y-50280057D01*
X347680952Y-50280057D02*
X347585714Y-50422914D01*
X347585714Y-50422914D02*
X347538095Y-50613390D01*
X347538095Y-50613390D02*
X347538095Y-50994342D01*
X347538095Y-50994342D02*
X347585714Y-51089580D01*
X347585714Y-51089580D02*
X347633333Y-51137200D01*
X347633333Y-51137200D02*
X347728571Y-51184819D01*
X347728571Y-51184819D02*
X347919047Y-51184819D01*
X347919047Y-51184819D02*
X348014285Y-51137200D01*
X348014285Y-51137200D02*
X348061904Y-51089580D01*
X348061904Y-51089580D02*
X348109523Y-50994342D01*
X348109523Y-50994342D02*
X348109523Y-50756247D01*
X348109523Y-50756247D02*
X348061904Y-50661009D01*
X348061904Y-50661009D02*
X348014285Y-50613390D01*
X348014285Y-50613390D02*
X347919047Y-50565771D01*
X347919047Y-50565771D02*
X347728571Y-50565771D01*
X347728571Y-50565771D02*
X347633333Y-50613390D01*
X347633333Y-50613390D02*
X347585714Y-50661009D01*
X347585714Y-50661009D02*
X347538095Y-50756247D01*
X348490476Y-50280057D02*
X348538095Y-50232438D01*
X348538095Y-50232438D02*
X348633333Y-50184819D01*
X348633333Y-50184819D02*
X348871428Y-50184819D01*
X348871428Y-50184819D02*
X348966666Y-50232438D01*
X348966666Y-50232438D02*
X349014285Y-50280057D01*
X349014285Y-50280057D02*
X349061904Y-50375295D01*
X349061904Y-50375295D02*
X349061904Y-50470533D01*
X349061904Y-50470533D02*
X349014285Y-50613390D01*
X349014285Y-50613390D02*
X348442857Y-51184819D01*
X348442857Y-51184819D02*
X349061904Y-51184819D01*
X321257142Y-56569580D02*
X321209523Y-56617200D01*
X321209523Y-56617200D02*
X321066666Y-56664819D01*
X321066666Y-56664819D02*
X320971428Y-56664819D01*
X320971428Y-56664819D02*
X320828571Y-56617200D01*
X320828571Y-56617200D02*
X320733333Y-56521961D01*
X320733333Y-56521961D02*
X320685714Y-56426723D01*
X320685714Y-56426723D02*
X320638095Y-56236247D01*
X320638095Y-56236247D02*
X320638095Y-56093390D01*
X320638095Y-56093390D02*
X320685714Y-55902914D01*
X320685714Y-55902914D02*
X320733333Y-55807676D01*
X320733333Y-55807676D02*
X320828571Y-55712438D01*
X320828571Y-55712438D02*
X320971428Y-55664819D01*
X320971428Y-55664819D02*
X321066666Y-55664819D01*
X321066666Y-55664819D02*
X321209523Y-55712438D01*
X321209523Y-55712438D02*
X321257142Y-55760057D01*
X321590476Y-55664819D02*
X322209523Y-55664819D01*
X322209523Y-55664819D02*
X321876190Y-56045771D01*
X321876190Y-56045771D02*
X322019047Y-56045771D01*
X322019047Y-56045771D02*
X322114285Y-56093390D01*
X322114285Y-56093390D02*
X322161904Y-56141009D01*
X322161904Y-56141009D02*
X322209523Y-56236247D01*
X322209523Y-56236247D02*
X322209523Y-56474342D01*
X322209523Y-56474342D02*
X322161904Y-56569580D01*
X322161904Y-56569580D02*
X322114285Y-56617200D01*
X322114285Y-56617200D02*
X322019047Y-56664819D01*
X322019047Y-56664819D02*
X321733333Y-56664819D01*
X321733333Y-56664819D02*
X321638095Y-56617200D01*
X321638095Y-56617200D02*
X321590476Y-56569580D01*
X323066666Y-55998152D02*
X323066666Y-56664819D01*
X322828571Y-55617200D02*
X322590476Y-56331485D01*
X322590476Y-56331485D02*
X323209523Y-56331485D01*
X347428095Y-30986819D02*
X347999523Y-30986819D01*
X347713809Y-31986819D02*
X347713809Y-30986819D01*
X348332857Y-31986819D02*
X348332857Y-30986819D01*
X348332857Y-30986819D02*
X348713809Y-30986819D01*
X348713809Y-30986819D02*
X348809047Y-31034438D01*
X348809047Y-31034438D02*
X348856666Y-31082057D01*
X348856666Y-31082057D02*
X348904285Y-31177295D01*
X348904285Y-31177295D02*
X348904285Y-31320152D01*
X348904285Y-31320152D02*
X348856666Y-31415390D01*
X348856666Y-31415390D02*
X348809047Y-31463009D01*
X348809047Y-31463009D02*
X348713809Y-31510628D01*
X348713809Y-31510628D02*
X348332857Y-31510628D01*
X349285238Y-31082057D02*
X349332857Y-31034438D01*
X349332857Y-31034438D02*
X349428095Y-30986819D01*
X349428095Y-30986819D02*
X349666190Y-30986819D01*
X349666190Y-30986819D02*
X349761428Y-31034438D01*
X349761428Y-31034438D02*
X349809047Y-31082057D01*
X349809047Y-31082057D02*
X349856666Y-31177295D01*
X349856666Y-31177295D02*
X349856666Y-31272533D01*
X349856666Y-31272533D02*
X349809047Y-31415390D01*
X349809047Y-31415390D02*
X349237619Y-31986819D01*
X349237619Y-31986819D02*
X349856666Y-31986819D01*
X329933333Y-30649580D02*
X329885714Y-30697200D01*
X329885714Y-30697200D02*
X329742857Y-30744819D01*
X329742857Y-30744819D02*
X329647619Y-30744819D01*
X329647619Y-30744819D02*
X329504762Y-30697200D01*
X329504762Y-30697200D02*
X329409524Y-30601961D01*
X329409524Y-30601961D02*
X329361905Y-30506723D01*
X329361905Y-30506723D02*
X329314286Y-30316247D01*
X329314286Y-30316247D02*
X329314286Y-30173390D01*
X329314286Y-30173390D02*
X329361905Y-29982914D01*
X329361905Y-29982914D02*
X329409524Y-29887676D01*
X329409524Y-29887676D02*
X329504762Y-29792438D01*
X329504762Y-29792438D02*
X329647619Y-29744819D01*
X329647619Y-29744819D02*
X329742857Y-29744819D01*
X329742857Y-29744819D02*
X329885714Y-29792438D01*
X329885714Y-29792438D02*
X329933333Y-29840057D01*
X330504762Y-30173390D02*
X330409524Y-30125771D01*
X330409524Y-30125771D02*
X330361905Y-30078152D01*
X330361905Y-30078152D02*
X330314286Y-29982914D01*
X330314286Y-29982914D02*
X330314286Y-29935295D01*
X330314286Y-29935295D02*
X330361905Y-29840057D01*
X330361905Y-29840057D02*
X330409524Y-29792438D01*
X330409524Y-29792438D02*
X330504762Y-29744819D01*
X330504762Y-29744819D02*
X330695238Y-29744819D01*
X330695238Y-29744819D02*
X330790476Y-29792438D01*
X330790476Y-29792438D02*
X330838095Y-29840057D01*
X330838095Y-29840057D02*
X330885714Y-29935295D01*
X330885714Y-29935295D02*
X330885714Y-29982914D01*
X330885714Y-29982914D02*
X330838095Y-30078152D01*
X330838095Y-30078152D02*
X330790476Y-30125771D01*
X330790476Y-30125771D02*
X330695238Y-30173390D01*
X330695238Y-30173390D02*
X330504762Y-30173390D01*
X330504762Y-30173390D02*
X330409524Y-30221009D01*
X330409524Y-30221009D02*
X330361905Y-30268628D01*
X330361905Y-30268628D02*
X330314286Y-30363866D01*
X330314286Y-30363866D02*
X330314286Y-30554342D01*
X330314286Y-30554342D02*
X330361905Y-30649580D01*
X330361905Y-30649580D02*
X330409524Y-30697200D01*
X330409524Y-30697200D02*
X330504762Y-30744819D01*
X330504762Y-30744819D02*
X330695238Y-30744819D01*
X330695238Y-30744819D02*
X330790476Y-30697200D01*
X330790476Y-30697200D02*
X330838095Y-30649580D01*
X330838095Y-30649580D02*
X330885714Y-30554342D01*
X330885714Y-30554342D02*
X330885714Y-30363866D01*
X330885714Y-30363866D02*
X330838095Y-30268628D01*
X330838095Y-30268628D02*
X330790476Y-30221009D01*
X330790476Y-30221009D02*
X330695238Y-30173390D01*
X323527142Y-44574819D02*
X323193809Y-44098628D01*
X322955714Y-44574819D02*
X322955714Y-43574819D01*
X322955714Y-43574819D02*
X323336666Y-43574819D01*
X323336666Y-43574819D02*
X323431904Y-43622438D01*
X323431904Y-43622438D02*
X323479523Y-43670057D01*
X323479523Y-43670057D02*
X323527142Y-43765295D01*
X323527142Y-43765295D02*
X323527142Y-43908152D01*
X323527142Y-43908152D02*
X323479523Y-44003390D01*
X323479523Y-44003390D02*
X323431904Y-44051009D01*
X323431904Y-44051009D02*
X323336666Y-44098628D01*
X323336666Y-44098628D02*
X322955714Y-44098628D01*
X324431904Y-43574819D02*
X323955714Y-43574819D01*
X323955714Y-43574819D02*
X323908095Y-44051009D01*
X323908095Y-44051009D02*
X323955714Y-44003390D01*
X323955714Y-44003390D02*
X324050952Y-43955771D01*
X324050952Y-43955771D02*
X324289047Y-43955771D01*
X324289047Y-43955771D02*
X324384285Y-44003390D01*
X324384285Y-44003390D02*
X324431904Y-44051009D01*
X324431904Y-44051009D02*
X324479523Y-44146247D01*
X324479523Y-44146247D02*
X324479523Y-44384342D01*
X324479523Y-44384342D02*
X324431904Y-44479580D01*
X324431904Y-44479580D02*
X324384285Y-44527200D01*
X324384285Y-44527200D02*
X324289047Y-44574819D01*
X324289047Y-44574819D02*
X324050952Y-44574819D01*
X324050952Y-44574819D02*
X323955714Y-44527200D01*
X323955714Y-44527200D02*
X323908095Y-44479580D01*
X324955714Y-44574819D02*
X325146190Y-44574819D01*
X325146190Y-44574819D02*
X325241428Y-44527200D01*
X325241428Y-44527200D02*
X325289047Y-44479580D01*
X325289047Y-44479580D02*
X325384285Y-44336723D01*
X325384285Y-44336723D02*
X325431904Y-44146247D01*
X325431904Y-44146247D02*
X325431904Y-43765295D01*
X325431904Y-43765295D02*
X325384285Y-43670057D01*
X325384285Y-43670057D02*
X325336666Y-43622438D01*
X325336666Y-43622438D02*
X325241428Y-43574819D01*
X325241428Y-43574819D02*
X325050952Y-43574819D01*
X325050952Y-43574819D02*
X324955714Y-43622438D01*
X324955714Y-43622438D02*
X324908095Y-43670057D01*
X324908095Y-43670057D02*
X324860476Y-43765295D01*
X324860476Y-43765295D02*
X324860476Y-44003390D01*
X324860476Y-44003390D02*
X324908095Y-44098628D01*
X324908095Y-44098628D02*
X324955714Y-44146247D01*
X324955714Y-44146247D02*
X325050952Y-44193866D01*
X325050952Y-44193866D02*
X325241428Y-44193866D01*
X325241428Y-44193866D02*
X325336666Y-44146247D01*
X325336666Y-44146247D02*
X325384285Y-44098628D01*
X325384285Y-44098628D02*
X325431904Y-44003390D01*
X346192142Y-104629819D02*
X345858809Y-104153628D01*
X345620714Y-104629819D02*
X345620714Y-103629819D01*
X345620714Y-103629819D02*
X346001666Y-103629819D01*
X346001666Y-103629819D02*
X346096904Y-103677438D01*
X346096904Y-103677438D02*
X346144523Y-103725057D01*
X346144523Y-103725057D02*
X346192142Y-103820295D01*
X346192142Y-103820295D02*
X346192142Y-103963152D01*
X346192142Y-103963152D02*
X346144523Y-104058390D01*
X346144523Y-104058390D02*
X346096904Y-104106009D01*
X346096904Y-104106009D02*
X346001666Y-104153628D01*
X346001666Y-104153628D02*
X345620714Y-104153628D01*
X346573095Y-103725057D02*
X346620714Y-103677438D01*
X346620714Y-103677438D02*
X346715952Y-103629819D01*
X346715952Y-103629819D02*
X346954047Y-103629819D01*
X346954047Y-103629819D02*
X347049285Y-103677438D01*
X347049285Y-103677438D02*
X347096904Y-103725057D01*
X347096904Y-103725057D02*
X347144523Y-103820295D01*
X347144523Y-103820295D02*
X347144523Y-103915533D01*
X347144523Y-103915533D02*
X347096904Y-104058390D01*
X347096904Y-104058390D02*
X346525476Y-104629819D01*
X346525476Y-104629819D02*
X347144523Y-104629819D01*
X348049285Y-103629819D02*
X347573095Y-103629819D01*
X347573095Y-103629819D02*
X347525476Y-104106009D01*
X347525476Y-104106009D02*
X347573095Y-104058390D01*
X347573095Y-104058390D02*
X347668333Y-104010771D01*
X347668333Y-104010771D02*
X347906428Y-104010771D01*
X347906428Y-104010771D02*
X348001666Y-104058390D01*
X348001666Y-104058390D02*
X348049285Y-104106009D01*
X348049285Y-104106009D02*
X348096904Y-104201247D01*
X348096904Y-104201247D02*
X348096904Y-104439342D01*
X348096904Y-104439342D02*
X348049285Y-104534580D01*
X348049285Y-104534580D02*
X348001666Y-104582200D01*
X348001666Y-104582200D02*
X347906428Y-104629819D01*
X347906428Y-104629819D02*
X347668333Y-104629819D01*
X347668333Y-104629819D02*
X347573095Y-104582200D01*
X347573095Y-104582200D02*
X347525476Y-104534580D01*
X351478095Y-26936819D02*
X352049523Y-26936819D01*
X351763809Y-27936819D02*
X351763809Y-26936819D01*
X352382857Y-27936819D02*
X352382857Y-26936819D01*
X352382857Y-26936819D02*
X352763809Y-26936819D01*
X352763809Y-26936819D02*
X352859047Y-26984438D01*
X352859047Y-26984438D02*
X352906666Y-27032057D01*
X352906666Y-27032057D02*
X352954285Y-27127295D01*
X352954285Y-27127295D02*
X352954285Y-27270152D01*
X352954285Y-27270152D02*
X352906666Y-27365390D01*
X352906666Y-27365390D02*
X352859047Y-27413009D01*
X352859047Y-27413009D02*
X352763809Y-27460628D01*
X352763809Y-27460628D02*
X352382857Y-27460628D01*
X353859047Y-26936819D02*
X353382857Y-26936819D01*
X353382857Y-26936819D02*
X353335238Y-27413009D01*
X353335238Y-27413009D02*
X353382857Y-27365390D01*
X353382857Y-27365390D02*
X353478095Y-27317771D01*
X353478095Y-27317771D02*
X353716190Y-27317771D01*
X353716190Y-27317771D02*
X353811428Y-27365390D01*
X353811428Y-27365390D02*
X353859047Y-27413009D01*
X353859047Y-27413009D02*
X353906666Y-27508247D01*
X353906666Y-27508247D02*
X353906666Y-27746342D01*
X353906666Y-27746342D02*
X353859047Y-27841580D01*
X353859047Y-27841580D02*
X353811428Y-27889200D01*
X353811428Y-27889200D02*
X353716190Y-27936819D01*
X353716190Y-27936819D02*
X353478095Y-27936819D01*
X353478095Y-27936819D02*
X353382857Y-27889200D01*
X353382857Y-27889200D02*
X353335238Y-27841580D01*
X78183330Y-109642857D02*
X78230950Y-109690476D01*
X78230950Y-109690476D02*
X78278569Y-109833333D01*
X78278569Y-109833333D02*
X78278569Y-109928571D01*
X78278569Y-109928571D02*
X78230950Y-110071428D01*
X78230950Y-110071428D02*
X78135711Y-110166666D01*
X78135711Y-110166666D02*
X78040473Y-110214285D01*
X78040473Y-110214285D02*
X77849997Y-110261904D01*
X77849997Y-110261904D02*
X77707140Y-110261904D01*
X77707140Y-110261904D02*
X77516664Y-110214285D01*
X77516664Y-110214285D02*
X77421426Y-110166666D01*
X77421426Y-110166666D02*
X77326188Y-110071428D01*
X77326188Y-110071428D02*
X77278569Y-109928571D01*
X77278569Y-109928571D02*
X77278569Y-109833333D01*
X77278569Y-109833333D02*
X77326188Y-109690476D01*
X77326188Y-109690476D02*
X77373807Y-109642857D01*
X77707140Y-109071428D02*
X77659521Y-109166666D01*
X77659521Y-109166666D02*
X77611902Y-109214285D01*
X77611902Y-109214285D02*
X77516664Y-109261904D01*
X77516664Y-109261904D02*
X77469045Y-109261904D01*
X77469045Y-109261904D02*
X77373807Y-109214285D01*
X77373807Y-109214285D02*
X77326188Y-109166666D01*
X77326188Y-109166666D02*
X77278569Y-109071428D01*
X77278569Y-109071428D02*
X77278569Y-108880952D01*
X77278569Y-108880952D02*
X77326188Y-108785714D01*
X77326188Y-108785714D02*
X77373807Y-108738095D01*
X77373807Y-108738095D02*
X77469045Y-108690476D01*
X77469045Y-108690476D02*
X77516664Y-108690476D01*
X77516664Y-108690476D02*
X77611902Y-108738095D01*
X77611902Y-108738095D02*
X77659521Y-108785714D01*
X77659521Y-108785714D02*
X77707140Y-108880952D01*
X77707140Y-108880952D02*
X77707140Y-109071428D01*
X77707140Y-109071428D02*
X77754759Y-109166666D01*
X77754759Y-109166666D02*
X77802378Y-109214285D01*
X77802378Y-109214285D02*
X77897616Y-109261904D01*
X77897616Y-109261904D02*
X78088092Y-109261904D01*
X78088092Y-109261904D02*
X78183330Y-109214285D01*
X78183330Y-109214285D02*
X78230950Y-109166666D01*
X78230950Y-109166666D02*
X78278569Y-109071428D01*
X78278569Y-109071428D02*
X78278569Y-108880952D01*
X78278569Y-108880952D02*
X78230950Y-108785714D01*
X78230950Y-108785714D02*
X78183330Y-108738095D01*
X78183330Y-108738095D02*
X78088092Y-108690476D01*
X78088092Y-108690476D02*
X77897616Y-108690476D01*
X77897616Y-108690476D02*
X77802378Y-108738095D01*
X77802378Y-108738095D02*
X77754759Y-108785714D01*
X77754759Y-108785714D02*
X77707140Y-108880952D01*
X77373807Y-108309523D02*
X77326188Y-108261904D01*
X77326188Y-108261904D02*
X77278569Y-108166666D01*
X77278569Y-108166666D02*
X77278569Y-107928571D01*
X77278569Y-107928571D02*
X77326188Y-107833333D01*
X77326188Y-107833333D02*
X77373807Y-107785714D01*
X77373807Y-107785714D02*
X77469045Y-107738095D01*
X77469045Y-107738095D02*
X77564283Y-107738095D01*
X77564283Y-107738095D02*
X77707140Y-107785714D01*
X77707140Y-107785714D02*
X78278569Y-108357142D01*
X78278569Y-108357142D02*
X78278569Y-107738095D01*
X334936905Y-103831819D02*
X335508333Y-103831819D01*
X335222619Y-104831819D02*
X335222619Y-103831819D01*
X335841667Y-104831819D02*
X335841667Y-103831819D01*
X335841667Y-103831819D02*
X336222619Y-103831819D01*
X336222619Y-103831819D02*
X336317857Y-103879438D01*
X336317857Y-103879438D02*
X336365476Y-103927057D01*
X336365476Y-103927057D02*
X336413095Y-104022295D01*
X336413095Y-104022295D02*
X336413095Y-104165152D01*
X336413095Y-104165152D02*
X336365476Y-104260390D01*
X336365476Y-104260390D02*
X336317857Y-104308009D01*
X336317857Y-104308009D02*
X336222619Y-104355628D01*
X336222619Y-104355628D02*
X335841667Y-104355628D01*
X337365476Y-104831819D02*
X336794048Y-104831819D01*
X337079762Y-104831819D02*
X337079762Y-103831819D01*
X337079762Y-103831819D02*
X336984524Y-103974676D01*
X336984524Y-103974676D02*
X336889286Y-104069914D01*
X336889286Y-104069914D02*
X336794048Y-104117533D01*
X338317857Y-104831819D02*
X337746429Y-104831819D01*
X338032143Y-104831819D02*
X338032143Y-103831819D01*
X338032143Y-103831819D02*
X337936905Y-103974676D01*
X337936905Y-103974676D02*
X337841667Y-104069914D01*
X337841667Y-104069914D02*
X337746429Y-104117533D01*
X323527142Y-40364819D02*
X323193809Y-39888628D01*
X322955714Y-40364819D02*
X322955714Y-39364819D01*
X322955714Y-39364819D02*
X323336666Y-39364819D01*
X323336666Y-39364819D02*
X323431904Y-39412438D01*
X323431904Y-39412438D02*
X323479523Y-39460057D01*
X323479523Y-39460057D02*
X323527142Y-39555295D01*
X323527142Y-39555295D02*
X323527142Y-39698152D01*
X323527142Y-39698152D02*
X323479523Y-39793390D01*
X323479523Y-39793390D02*
X323431904Y-39841009D01*
X323431904Y-39841009D02*
X323336666Y-39888628D01*
X323336666Y-39888628D02*
X322955714Y-39888628D01*
X324479523Y-40364819D02*
X323908095Y-40364819D01*
X324193809Y-40364819D02*
X324193809Y-39364819D01*
X324193809Y-39364819D02*
X324098571Y-39507676D01*
X324098571Y-39507676D02*
X324003333Y-39602914D01*
X324003333Y-39602914D02*
X323908095Y-39650533D01*
X324812857Y-39364819D02*
X325479523Y-39364819D01*
X325479523Y-39364819D02*
X325050952Y-40364819D01*
X355051905Y-30986819D02*
X355623333Y-30986819D01*
X355337619Y-31986819D02*
X355337619Y-30986819D01*
X355956667Y-31986819D02*
X355956667Y-30986819D01*
X355956667Y-30986819D02*
X356337619Y-30986819D01*
X356337619Y-30986819D02*
X356432857Y-31034438D01*
X356432857Y-31034438D02*
X356480476Y-31082057D01*
X356480476Y-31082057D02*
X356528095Y-31177295D01*
X356528095Y-31177295D02*
X356528095Y-31320152D01*
X356528095Y-31320152D02*
X356480476Y-31415390D01*
X356480476Y-31415390D02*
X356432857Y-31463009D01*
X356432857Y-31463009D02*
X356337619Y-31510628D01*
X356337619Y-31510628D02*
X355956667Y-31510628D01*
X357480476Y-31986819D02*
X356909048Y-31986819D01*
X357194762Y-31986819D02*
X357194762Y-30986819D01*
X357194762Y-30986819D02*
X357099524Y-31129676D01*
X357099524Y-31129676D02*
X357004286Y-31224914D01*
X357004286Y-31224914D02*
X356909048Y-31272533D01*
X357813810Y-30986819D02*
X358432857Y-30986819D01*
X358432857Y-30986819D02*
X358099524Y-31367771D01*
X358099524Y-31367771D02*
X358242381Y-31367771D01*
X358242381Y-31367771D02*
X358337619Y-31415390D01*
X358337619Y-31415390D02*
X358385238Y-31463009D01*
X358385238Y-31463009D02*
X358432857Y-31558247D01*
X358432857Y-31558247D02*
X358432857Y-31796342D01*
X358432857Y-31796342D02*
X358385238Y-31891580D01*
X358385238Y-31891580D02*
X358337619Y-31939200D01*
X358337619Y-31939200D02*
X358242381Y-31986819D01*
X358242381Y-31986819D02*
X357956667Y-31986819D01*
X357956667Y-31986819D02*
X357861429Y-31939200D01*
X357861429Y-31939200D02*
X357813810Y-31891580D01*
X341102142Y-39339580D02*
X341054523Y-39387200D01*
X341054523Y-39387200D02*
X340911666Y-39434819D01*
X340911666Y-39434819D02*
X340816428Y-39434819D01*
X340816428Y-39434819D02*
X340673571Y-39387200D01*
X340673571Y-39387200D02*
X340578333Y-39291961D01*
X340578333Y-39291961D02*
X340530714Y-39196723D01*
X340530714Y-39196723D02*
X340483095Y-39006247D01*
X340483095Y-39006247D02*
X340483095Y-38863390D01*
X340483095Y-38863390D02*
X340530714Y-38672914D01*
X340530714Y-38672914D02*
X340578333Y-38577676D01*
X340578333Y-38577676D02*
X340673571Y-38482438D01*
X340673571Y-38482438D02*
X340816428Y-38434819D01*
X340816428Y-38434819D02*
X340911666Y-38434819D01*
X340911666Y-38434819D02*
X341054523Y-38482438D01*
X341054523Y-38482438D02*
X341102142Y-38530057D01*
X342054523Y-39434819D02*
X341483095Y-39434819D01*
X341768809Y-39434819D02*
X341768809Y-38434819D01*
X341768809Y-38434819D02*
X341673571Y-38577676D01*
X341673571Y-38577676D02*
X341578333Y-38672914D01*
X341578333Y-38672914D02*
X341483095Y-38720533D01*
X342530714Y-39434819D02*
X342721190Y-39434819D01*
X342721190Y-39434819D02*
X342816428Y-39387200D01*
X342816428Y-39387200D02*
X342864047Y-39339580D01*
X342864047Y-39339580D02*
X342959285Y-39196723D01*
X342959285Y-39196723D02*
X343006904Y-39006247D01*
X343006904Y-39006247D02*
X343006904Y-38625295D01*
X343006904Y-38625295D02*
X342959285Y-38530057D01*
X342959285Y-38530057D02*
X342911666Y-38482438D01*
X342911666Y-38482438D02*
X342816428Y-38434819D01*
X342816428Y-38434819D02*
X342625952Y-38434819D01*
X342625952Y-38434819D02*
X342530714Y-38482438D01*
X342530714Y-38482438D02*
X342483095Y-38530057D01*
X342483095Y-38530057D02*
X342435476Y-38625295D01*
X342435476Y-38625295D02*
X342435476Y-38863390D01*
X342435476Y-38863390D02*
X342483095Y-38958628D01*
X342483095Y-38958628D02*
X342530714Y-39006247D01*
X342530714Y-39006247D02*
X342625952Y-39053866D01*
X342625952Y-39053866D02*
X342816428Y-39053866D01*
X342816428Y-39053866D02*
X342911666Y-39006247D01*
X342911666Y-39006247D02*
X342959285Y-38958628D01*
X342959285Y-38958628D02*
X343006904Y-38863390D01*
X333907142Y-33659580D02*
X333859523Y-33707200D01*
X333859523Y-33707200D02*
X333716666Y-33754819D01*
X333716666Y-33754819D02*
X333621428Y-33754819D01*
X333621428Y-33754819D02*
X333478571Y-33707200D01*
X333478571Y-33707200D02*
X333383333Y-33611961D01*
X333383333Y-33611961D02*
X333335714Y-33516723D01*
X333335714Y-33516723D02*
X333288095Y-33326247D01*
X333288095Y-33326247D02*
X333288095Y-33183390D01*
X333288095Y-33183390D02*
X333335714Y-32992914D01*
X333335714Y-32992914D02*
X333383333Y-32897676D01*
X333383333Y-32897676D02*
X333478571Y-32802438D01*
X333478571Y-32802438D02*
X333621428Y-32754819D01*
X333621428Y-32754819D02*
X333716666Y-32754819D01*
X333716666Y-32754819D02*
X333859523Y-32802438D01*
X333859523Y-32802438D02*
X333907142Y-32850057D01*
X334859523Y-33754819D02*
X334288095Y-33754819D01*
X334573809Y-33754819D02*
X334573809Y-32754819D01*
X334573809Y-32754819D02*
X334478571Y-32897676D01*
X334478571Y-32897676D02*
X334383333Y-32992914D01*
X334383333Y-32992914D02*
X334288095Y-33040533D01*
X335430952Y-33183390D02*
X335335714Y-33135771D01*
X335335714Y-33135771D02*
X335288095Y-33088152D01*
X335288095Y-33088152D02*
X335240476Y-32992914D01*
X335240476Y-32992914D02*
X335240476Y-32945295D01*
X335240476Y-32945295D02*
X335288095Y-32850057D01*
X335288095Y-32850057D02*
X335335714Y-32802438D01*
X335335714Y-32802438D02*
X335430952Y-32754819D01*
X335430952Y-32754819D02*
X335621428Y-32754819D01*
X335621428Y-32754819D02*
X335716666Y-32802438D01*
X335716666Y-32802438D02*
X335764285Y-32850057D01*
X335764285Y-32850057D02*
X335811904Y-32945295D01*
X335811904Y-32945295D02*
X335811904Y-32992914D01*
X335811904Y-32992914D02*
X335764285Y-33088152D01*
X335764285Y-33088152D02*
X335716666Y-33135771D01*
X335716666Y-33135771D02*
X335621428Y-33183390D01*
X335621428Y-33183390D02*
X335430952Y-33183390D01*
X335430952Y-33183390D02*
X335335714Y-33231009D01*
X335335714Y-33231009D02*
X335288095Y-33278628D01*
X335288095Y-33278628D02*
X335240476Y-33373866D01*
X335240476Y-33373866D02*
X335240476Y-33564342D01*
X335240476Y-33564342D02*
X335288095Y-33659580D01*
X335288095Y-33659580D02*
X335335714Y-33707200D01*
X335335714Y-33707200D02*
X335430952Y-33754819D01*
X335430952Y-33754819D02*
X335621428Y-33754819D01*
X335621428Y-33754819D02*
X335716666Y-33707200D01*
X335716666Y-33707200D02*
X335764285Y-33659580D01*
X335764285Y-33659580D02*
X335811904Y-33564342D01*
X335811904Y-33564342D02*
X335811904Y-33373866D01*
X335811904Y-33373866D02*
X335764285Y-33278628D01*
X335764285Y-33278628D02*
X335716666Y-33231009D01*
X335716666Y-33231009D02*
X335621428Y-33183390D01*
X341764286Y-55784819D02*
X342335714Y-55784819D01*
X342050000Y-56784819D02*
X342050000Y-55784819D01*
X342669048Y-56784819D02*
X342669048Y-55784819D01*
X342669048Y-56261009D02*
X343240476Y-56261009D01*
X343240476Y-56784819D02*
X343240476Y-55784819D01*
X344240476Y-56784819D02*
X343669048Y-56784819D01*
X343954762Y-56784819D02*
X343954762Y-55784819D01*
X343954762Y-55784819D02*
X343859524Y-55927676D01*
X343859524Y-55927676D02*
X343764286Y-56022914D01*
X343764286Y-56022914D02*
X343669048Y-56070533D01*
X341578333Y-33489580D02*
X341530714Y-33537200D01*
X341530714Y-33537200D02*
X341387857Y-33584819D01*
X341387857Y-33584819D02*
X341292619Y-33584819D01*
X341292619Y-33584819D02*
X341149762Y-33537200D01*
X341149762Y-33537200D02*
X341054524Y-33441961D01*
X341054524Y-33441961D02*
X341006905Y-33346723D01*
X341006905Y-33346723D02*
X340959286Y-33156247D01*
X340959286Y-33156247D02*
X340959286Y-33013390D01*
X340959286Y-33013390D02*
X341006905Y-32822914D01*
X341006905Y-32822914D02*
X341054524Y-32727676D01*
X341054524Y-32727676D02*
X341149762Y-32632438D01*
X341149762Y-32632438D02*
X341292619Y-32584819D01*
X341292619Y-32584819D02*
X341387857Y-32584819D01*
X341387857Y-32584819D02*
X341530714Y-32632438D01*
X341530714Y-32632438D02*
X341578333Y-32680057D01*
X342435476Y-32918152D02*
X342435476Y-33584819D01*
X342197381Y-32537200D02*
X341959286Y-33251485D01*
X341959286Y-33251485D02*
X342578333Y-33251485D01*
X333907142Y-30649580D02*
X333859523Y-30697200D01*
X333859523Y-30697200D02*
X333716666Y-30744819D01*
X333716666Y-30744819D02*
X333621428Y-30744819D01*
X333621428Y-30744819D02*
X333478571Y-30697200D01*
X333478571Y-30697200D02*
X333383333Y-30601961D01*
X333383333Y-30601961D02*
X333335714Y-30506723D01*
X333335714Y-30506723D02*
X333288095Y-30316247D01*
X333288095Y-30316247D02*
X333288095Y-30173390D01*
X333288095Y-30173390D02*
X333335714Y-29982914D01*
X333335714Y-29982914D02*
X333383333Y-29887676D01*
X333383333Y-29887676D02*
X333478571Y-29792438D01*
X333478571Y-29792438D02*
X333621428Y-29744819D01*
X333621428Y-29744819D02*
X333716666Y-29744819D01*
X333716666Y-29744819D02*
X333859523Y-29792438D01*
X333859523Y-29792438D02*
X333907142Y-29840057D01*
X334859523Y-30744819D02*
X334288095Y-30744819D01*
X334573809Y-30744819D02*
X334573809Y-29744819D01*
X334573809Y-29744819D02*
X334478571Y-29887676D01*
X334478571Y-29887676D02*
X334383333Y-29982914D01*
X334383333Y-29982914D02*
X334288095Y-30030533D01*
X335192857Y-29744819D02*
X335859523Y-29744819D01*
X335859523Y-29744819D02*
X335430952Y-30744819D01*
X356637142Y-47274819D02*
X356303809Y-46798628D01*
X356065714Y-47274819D02*
X356065714Y-46274819D01*
X356065714Y-46274819D02*
X356446666Y-46274819D01*
X356446666Y-46274819D02*
X356541904Y-46322438D01*
X356541904Y-46322438D02*
X356589523Y-46370057D01*
X356589523Y-46370057D02*
X356637142Y-46465295D01*
X356637142Y-46465295D02*
X356637142Y-46608152D01*
X356637142Y-46608152D02*
X356589523Y-46703390D01*
X356589523Y-46703390D02*
X356541904Y-46751009D01*
X356541904Y-46751009D02*
X356446666Y-46798628D01*
X356446666Y-46798628D02*
X356065714Y-46798628D01*
X356970476Y-46274819D02*
X357589523Y-46274819D01*
X357589523Y-46274819D02*
X357256190Y-46655771D01*
X357256190Y-46655771D02*
X357399047Y-46655771D01*
X357399047Y-46655771D02*
X357494285Y-46703390D01*
X357494285Y-46703390D02*
X357541904Y-46751009D01*
X357541904Y-46751009D02*
X357589523Y-46846247D01*
X357589523Y-46846247D02*
X357589523Y-47084342D01*
X357589523Y-47084342D02*
X357541904Y-47179580D01*
X357541904Y-47179580D02*
X357494285Y-47227200D01*
X357494285Y-47227200D02*
X357399047Y-47274819D01*
X357399047Y-47274819D02*
X357113333Y-47274819D01*
X357113333Y-47274819D02*
X357018095Y-47227200D01*
X357018095Y-47227200D02*
X356970476Y-47179580D01*
X358208571Y-46274819D02*
X358303809Y-46274819D01*
X358303809Y-46274819D02*
X358399047Y-46322438D01*
X358399047Y-46322438D02*
X358446666Y-46370057D01*
X358446666Y-46370057D02*
X358494285Y-46465295D01*
X358494285Y-46465295D02*
X358541904Y-46655771D01*
X358541904Y-46655771D02*
X358541904Y-46893866D01*
X358541904Y-46893866D02*
X358494285Y-47084342D01*
X358494285Y-47084342D02*
X358446666Y-47179580D01*
X358446666Y-47179580D02*
X358399047Y-47227200D01*
X358399047Y-47227200D02*
X358303809Y-47274819D01*
X358303809Y-47274819D02*
X358208571Y-47274819D01*
X358208571Y-47274819D02*
X358113333Y-47227200D01*
X358113333Y-47227200D02*
X358065714Y-47179580D01*
X358065714Y-47179580D02*
X358018095Y-47084342D01*
X358018095Y-47084342D02*
X357970476Y-46893866D01*
X357970476Y-46893866D02*
X357970476Y-46655771D01*
X357970476Y-46655771D02*
X358018095Y-46465295D01*
X358018095Y-46465295D02*
X358065714Y-46370057D01*
X358065714Y-46370057D02*
X358113333Y-46322438D01*
X358113333Y-46322438D02*
X358208571Y-46274819D01*
D11*
X91220333Y-100003318D02*
X90615571Y-100003318D01*
X90615571Y-100003318D02*
X90615571Y-98733318D01*
X92308905Y-100003318D02*
X91583190Y-100003318D01*
X91946047Y-100003318D02*
X91946047Y-98733318D01*
X91946047Y-98733318D02*
X91825095Y-98914746D01*
X91825095Y-98914746D02*
X91704143Y-99035699D01*
X91704143Y-99035699D02*
X91583190Y-99096175D01*
D10*
X78859580Y-104642857D02*
X78907200Y-104690476D01*
X78907200Y-104690476D02*
X78954819Y-104833333D01*
X78954819Y-104833333D02*
X78954819Y-104928571D01*
X78954819Y-104928571D02*
X78907200Y-105071428D01*
X78907200Y-105071428D02*
X78811961Y-105166666D01*
X78811961Y-105166666D02*
X78716723Y-105214285D01*
X78716723Y-105214285D02*
X78526247Y-105261904D01*
X78526247Y-105261904D02*
X78383390Y-105261904D01*
X78383390Y-105261904D02*
X78192914Y-105214285D01*
X78192914Y-105214285D02*
X78097676Y-105166666D01*
X78097676Y-105166666D02*
X78002438Y-105071428D01*
X78002438Y-105071428D02*
X77954819Y-104928571D01*
X77954819Y-104928571D02*
X77954819Y-104833333D01*
X77954819Y-104833333D02*
X78002438Y-104690476D01*
X78002438Y-104690476D02*
X78050057Y-104642857D01*
X77954819Y-104309523D02*
X77954819Y-103690476D01*
X77954819Y-103690476D02*
X78335771Y-104023809D01*
X78335771Y-104023809D02*
X78335771Y-103880952D01*
X78335771Y-103880952D02*
X78383390Y-103785714D01*
X78383390Y-103785714D02*
X78431009Y-103738095D01*
X78431009Y-103738095D02*
X78526247Y-103690476D01*
X78526247Y-103690476D02*
X78764342Y-103690476D01*
X78764342Y-103690476D02*
X78859580Y-103738095D01*
X78859580Y-103738095D02*
X78907200Y-103785714D01*
X78907200Y-103785714D02*
X78954819Y-103880952D01*
X78954819Y-103880952D02*
X78954819Y-104166666D01*
X78954819Y-104166666D02*
X78907200Y-104261904D01*
X78907200Y-104261904D02*
X78859580Y-104309523D01*
X77954819Y-103357142D02*
X77954819Y-102738095D01*
X77954819Y-102738095D02*
X78335771Y-103071428D01*
X78335771Y-103071428D02*
X78335771Y-102928571D01*
X78335771Y-102928571D02*
X78383390Y-102833333D01*
X78383390Y-102833333D02*
X78431009Y-102785714D01*
X78431009Y-102785714D02*
X78526247Y-102738095D01*
X78526247Y-102738095D02*
X78764342Y-102738095D01*
X78764342Y-102738095D02*
X78859580Y-102785714D01*
X78859580Y-102785714D02*
X78907200Y-102833333D01*
X78907200Y-102833333D02*
X78954819Y-102928571D01*
X78954819Y-102928571D02*
X78954819Y-103214285D01*
X78954819Y-103214285D02*
X78907200Y-103309523D01*
X78907200Y-103309523D02*
X78859580Y-103357142D01*
X338337142Y-45189580D02*
X338289523Y-45237200D01*
X338289523Y-45237200D02*
X338146666Y-45284819D01*
X338146666Y-45284819D02*
X338051428Y-45284819D01*
X338051428Y-45284819D02*
X337908571Y-45237200D01*
X337908571Y-45237200D02*
X337813333Y-45141961D01*
X337813333Y-45141961D02*
X337765714Y-45046723D01*
X337765714Y-45046723D02*
X337718095Y-44856247D01*
X337718095Y-44856247D02*
X337718095Y-44713390D01*
X337718095Y-44713390D02*
X337765714Y-44522914D01*
X337765714Y-44522914D02*
X337813333Y-44427676D01*
X337813333Y-44427676D02*
X337908571Y-44332438D01*
X337908571Y-44332438D02*
X338051428Y-44284819D01*
X338051428Y-44284819D02*
X338146666Y-44284819D01*
X338146666Y-44284819D02*
X338289523Y-44332438D01*
X338289523Y-44332438D02*
X338337142Y-44380057D01*
X339289523Y-45284819D02*
X338718095Y-45284819D01*
X339003809Y-45284819D02*
X339003809Y-44284819D01*
X339003809Y-44284819D02*
X338908571Y-44427676D01*
X338908571Y-44427676D02*
X338813333Y-44522914D01*
X338813333Y-44522914D02*
X338718095Y-44570533D01*
X339908571Y-44284819D02*
X340003809Y-44284819D01*
X340003809Y-44284819D02*
X340099047Y-44332438D01*
X340099047Y-44332438D02*
X340146666Y-44380057D01*
X340146666Y-44380057D02*
X340194285Y-44475295D01*
X340194285Y-44475295D02*
X340241904Y-44665771D01*
X340241904Y-44665771D02*
X340241904Y-44903866D01*
X340241904Y-44903866D02*
X340194285Y-45094342D01*
X340194285Y-45094342D02*
X340146666Y-45189580D01*
X340146666Y-45189580D02*
X340099047Y-45237200D01*
X340099047Y-45237200D02*
X340003809Y-45284819D01*
X340003809Y-45284819D02*
X339908571Y-45284819D01*
X339908571Y-45284819D02*
X339813333Y-45237200D01*
X339813333Y-45237200D02*
X339765714Y-45189580D01*
X339765714Y-45189580D02*
X339718095Y-45094342D01*
X339718095Y-45094342D02*
X339670476Y-44903866D01*
X339670476Y-44903866D02*
X339670476Y-44665771D01*
X339670476Y-44665771D02*
X339718095Y-44475295D01*
X339718095Y-44475295D02*
X339765714Y-44380057D01*
X339765714Y-44380057D02*
X339813333Y-44332438D01*
X339813333Y-44332438D02*
X339908571Y-44284819D01*
X90238095Y-113454819D02*
X90238095Y-114264342D01*
X90238095Y-114264342D02*
X90285714Y-114359580D01*
X90285714Y-114359580D02*
X90333333Y-114407200D01*
X90333333Y-114407200D02*
X90428571Y-114454819D01*
X90428571Y-114454819D02*
X90619047Y-114454819D01*
X90619047Y-114454819D02*
X90714285Y-114407200D01*
X90714285Y-114407200D02*
X90761904Y-114359580D01*
X90761904Y-114359580D02*
X90809523Y-114264342D01*
X90809523Y-114264342D02*
X90809523Y-113454819D01*
X91190476Y-113454819D02*
X91857142Y-113454819D01*
X91857142Y-113454819D02*
X91428571Y-114454819D01*
X347157142Y-48234819D02*
X346823809Y-47758628D01*
X346585714Y-48234819D02*
X346585714Y-47234819D01*
X346585714Y-47234819D02*
X346966666Y-47234819D01*
X346966666Y-47234819D02*
X347061904Y-47282438D01*
X347061904Y-47282438D02*
X347109523Y-47330057D01*
X347109523Y-47330057D02*
X347157142Y-47425295D01*
X347157142Y-47425295D02*
X347157142Y-47568152D01*
X347157142Y-47568152D02*
X347109523Y-47663390D01*
X347109523Y-47663390D02*
X347061904Y-47711009D01*
X347061904Y-47711009D02*
X346966666Y-47758628D01*
X346966666Y-47758628D02*
X346585714Y-47758628D01*
X347538095Y-47330057D02*
X347585714Y-47282438D01*
X347585714Y-47282438D02*
X347680952Y-47234819D01*
X347680952Y-47234819D02*
X347919047Y-47234819D01*
X347919047Y-47234819D02*
X348014285Y-47282438D01*
X348014285Y-47282438D02*
X348061904Y-47330057D01*
X348061904Y-47330057D02*
X348109523Y-47425295D01*
X348109523Y-47425295D02*
X348109523Y-47520533D01*
X348109523Y-47520533D02*
X348061904Y-47663390D01*
X348061904Y-47663390D02*
X347490476Y-48234819D01*
X347490476Y-48234819D02*
X348109523Y-48234819D01*
X348966666Y-47568152D02*
X348966666Y-48234819D01*
X348728571Y-47187200D02*
X348490476Y-47901485D01*
X348490476Y-47901485D02*
X349109523Y-47901485D01*
X333723333Y-45794819D02*
X333390000Y-45318628D01*
X333151905Y-45794819D02*
X333151905Y-44794819D01*
X333151905Y-44794819D02*
X333532857Y-44794819D01*
X333532857Y-44794819D02*
X333628095Y-44842438D01*
X333628095Y-44842438D02*
X333675714Y-44890057D01*
X333675714Y-44890057D02*
X333723333Y-44985295D01*
X333723333Y-44985295D02*
X333723333Y-45128152D01*
X333723333Y-45128152D02*
X333675714Y-45223390D01*
X333675714Y-45223390D02*
X333628095Y-45271009D01*
X333628095Y-45271009D02*
X333532857Y-45318628D01*
X333532857Y-45318628D02*
X333151905Y-45318628D01*
X334580476Y-45128152D02*
X334580476Y-45794819D01*
X334342381Y-44747200D02*
X334104286Y-45461485D01*
X334104286Y-45461485D02*
X334723333Y-45461485D01*
X66954819Y-104964285D02*
X65954819Y-104964285D01*
X65954819Y-104964285D02*
X65954819Y-104726190D01*
X65954819Y-104726190D02*
X66002438Y-104583333D01*
X66002438Y-104583333D02*
X66097676Y-104488095D01*
X66097676Y-104488095D02*
X66192914Y-104440476D01*
X66192914Y-104440476D02*
X66383390Y-104392857D01*
X66383390Y-104392857D02*
X66526247Y-104392857D01*
X66526247Y-104392857D02*
X66716723Y-104440476D01*
X66716723Y-104440476D02*
X66811961Y-104488095D01*
X66811961Y-104488095D02*
X66907200Y-104583333D01*
X66907200Y-104583333D02*
X66954819Y-104726190D01*
X66954819Y-104726190D02*
X66954819Y-104964285D01*
X66954819Y-103440476D02*
X66954819Y-104011904D01*
X66954819Y-103726190D02*
X65954819Y-103726190D01*
X65954819Y-103726190D02*
X66097676Y-103821428D01*
X66097676Y-103821428D02*
X66192914Y-103916666D01*
X66192914Y-103916666D02*
X66240533Y-104011904D01*
X66050057Y-103059523D02*
X66002438Y-103011904D01*
X66002438Y-103011904D02*
X65954819Y-102916666D01*
X65954819Y-102916666D02*
X65954819Y-102678571D01*
X65954819Y-102678571D02*
X66002438Y-102583333D01*
X66002438Y-102583333D02*
X66050057Y-102535714D01*
X66050057Y-102535714D02*
X66145295Y-102488095D01*
X66145295Y-102488095D02*
X66240533Y-102488095D01*
X66240533Y-102488095D02*
X66383390Y-102535714D01*
X66383390Y-102535714D02*
X66954819Y-103107142D01*
X66954819Y-103107142D02*
X66954819Y-102488095D01*
X350817142Y-45189580D02*
X350769523Y-45237200D01*
X350769523Y-45237200D02*
X350626666Y-45284819D01*
X350626666Y-45284819D02*
X350531428Y-45284819D01*
X350531428Y-45284819D02*
X350388571Y-45237200D01*
X350388571Y-45237200D02*
X350293333Y-45141961D01*
X350293333Y-45141961D02*
X350245714Y-45046723D01*
X350245714Y-45046723D02*
X350198095Y-44856247D01*
X350198095Y-44856247D02*
X350198095Y-44713390D01*
X350198095Y-44713390D02*
X350245714Y-44522914D01*
X350245714Y-44522914D02*
X350293333Y-44427676D01*
X350293333Y-44427676D02*
X350388571Y-44332438D01*
X350388571Y-44332438D02*
X350531428Y-44284819D01*
X350531428Y-44284819D02*
X350626666Y-44284819D01*
X350626666Y-44284819D02*
X350769523Y-44332438D01*
X350769523Y-44332438D02*
X350817142Y-44380057D01*
X351769523Y-45284819D02*
X351198095Y-45284819D01*
X351483809Y-45284819D02*
X351483809Y-44284819D01*
X351483809Y-44284819D02*
X351388571Y-44427676D01*
X351388571Y-44427676D02*
X351293333Y-44522914D01*
X351293333Y-44522914D02*
X351198095Y-44570533D01*
X352721904Y-45284819D02*
X352150476Y-45284819D01*
X352436190Y-45284819D02*
X352436190Y-44284819D01*
X352436190Y-44284819D02*
X352340952Y-44427676D01*
X352340952Y-44427676D02*
X352245714Y-44522914D01*
X352245714Y-44522914D02*
X352150476Y-44570533D01*
X329933333Y-33659580D02*
X329885714Y-33707200D01*
X329885714Y-33707200D02*
X329742857Y-33754819D01*
X329742857Y-33754819D02*
X329647619Y-33754819D01*
X329647619Y-33754819D02*
X329504762Y-33707200D01*
X329504762Y-33707200D02*
X329409524Y-33611961D01*
X329409524Y-33611961D02*
X329361905Y-33516723D01*
X329361905Y-33516723D02*
X329314286Y-33326247D01*
X329314286Y-33326247D02*
X329314286Y-33183390D01*
X329314286Y-33183390D02*
X329361905Y-32992914D01*
X329361905Y-32992914D02*
X329409524Y-32897676D01*
X329409524Y-32897676D02*
X329504762Y-32802438D01*
X329504762Y-32802438D02*
X329647619Y-32754819D01*
X329647619Y-32754819D02*
X329742857Y-32754819D01*
X329742857Y-32754819D02*
X329885714Y-32802438D01*
X329885714Y-32802438D02*
X329933333Y-32850057D01*
X330409524Y-33754819D02*
X330600000Y-33754819D01*
X330600000Y-33754819D02*
X330695238Y-33707200D01*
X330695238Y-33707200D02*
X330742857Y-33659580D01*
X330742857Y-33659580D02*
X330838095Y-33516723D01*
X330838095Y-33516723D02*
X330885714Y-33326247D01*
X330885714Y-33326247D02*
X330885714Y-32945295D01*
X330885714Y-32945295D02*
X330838095Y-32850057D01*
X330838095Y-32850057D02*
X330790476Y-32802438D01*
X330790476Y-32802438D02*
X330695238Y-32754819D01*
X330695238Y-32754819D02*
X330504762Y-32754819D01*
X330504762Y-32754819D02*
X330409524Y-32802438D01*
X330409524Y-32802438D02*
X330361905Y-32850057D01*
X330361905Y-32850057D02*
X330314286Y-32945295D01*
X330314286Y-32945295D02*
X330314286Y-33183390D01*
X330314286Y-33183390D02*
X330361905Y-33278628D01*
X330361905Y-33278628D02*
X330409524Y-33326247D01*
X330409524Y-33326247D02*
X330504762Y-33373866D01*
X330504762Y-33373866D02*
X330695238Y-33373866D01*
X330695238Y-33373866D02*
X330790476Y-33326247D01*
X330790476Y-33326247D02*
X330838095Y-33278628D01*
X330838095Y-33278628D02*
X330885714Y-33183390D01*
X350817142Y-49169580D02*
X350769523Y-49217200D01*
X350769523Y-49217200D02*
X350626666Y-49264819D01*
X350626666Y-49264819D02*
X350531428Y-49264819D01*
X350531428Y-49264819D02*
X350388571Y-49217200D01*
X350388571Y-49217200D02*
X350293333Y-49121961D01*
X350293333Y-49121961D02*
X350245714Y-49026723D01*
X350245714Y-49026723D02*
X350198095Y-48836247D01*
X350198095Y-48836247D02*
X350198095Y-48693390D01*
X350198095Y-48693390D02*
X350245714Y-48502914D01*
X350245714Y-48502914D02*
X350293333Y-48407676D01*
X350293333Y-48407676D02*
X350388571Y-48312438D01*
X350388571Y-48312438D02*
X350531428Y-48264819D01*
X350531428Y-48264819D02*
X350626666Y-48264819D01*
X350626666Y-48264819D02*
X350769523Y-48312438D01*
X350769523Y-48312438D02*
X350817142Y-48360057D01*
X351198095Y-48360057D02*
X351245714Y-48312438D01*
X351245714Y-48312438D02*
X351340952Y-48264819D01*
X351340952Y-48264819D02*
X351579047Y-48264819D01*
X351579047Y-48264819D02*
X351674285Y-48312438D01*
X351674285Y-48312438D02*
X351721904Y-48360057D01*
X351721904Y-48360057D02*
X351769523Y-48455295D01*
X351769523Y-48455295D02*
X351769523Y-48550533D01*
X351769523Y-48550533D02*
X351721904Y-48693390D01*
X351721904Y-48693390D02*
X351150476Y-49264819D01*
X351150476Y-49264819D02*
X351769523Y-49264819D01*
X352721904Y-49264819D02*
X352150476Y-49264819D01*
X352436190Y-49264819D02*
X352436190Y-48264819D01*
X352436190Y-48264819D02*
X352340952Y-48407676D01*
X352340952Y-48407676D02*
X352245714Y-48502914D01*
X352245714Y-48502914D02*
X352150476Y-48550533D01*
X105859580Y-110642857D02*
X105907200Y-110690476D01*
X105907200Y-110690476D02*
X105954819Y-110833333D01*
X105954819Y-110833333D02*
X105954819Y-110928571D01*
X105954819Y-110928571D02*
X105907200Y-111071428D01*
X105907200Y-111071428D02*
X105811961Y-111166666D01*
X105811961Y-111166666D02*
X105716723Y-111214285D01*
X105716723Y-111214285D02*
X105526247Y-111261904D01*
X105526247Y-111261904D02*
X105383390Y-111261904D01*
X105383390Y-111261904D02*
X105192914Y-111214285D01*
X105192914Y-111214285D02*
X105097676Y-111166666D01*
X105097676Y-111166666D02*
X105002438Y-111071428D01*
X105002438Y-111071428D02*
X104954819Y-110928571D01*
X104954819Y-110928571D02*
X104954819Y-110833333D01*
X104954819Y-110833333D02*
X105002438Y-110690476D01*
X105002438Y-110690476D02*
X105050057Y-110642857D01*
X105050057Y-110261904D02*
X105002438Y-110214285D01*
X105002438Y-110214285D02*
X104954819Y-110119047D01*
X104954819Y-110119047D02*
X104954819Y-109880952D01*
X104954819Y-109880952D02*
X105002438Y-109785714D01*
X105002438Y-109785714D02*
X105050057Y-109738095D01*
X105050057Y-109738095D02*
X105145295Y-109690476D01*
X105145295Y-109690476D02*
X105240533Y-109690476D01*
X105240533Y-109690476D02*
X105383390Y-109738095D01*
X105383390Y-109738095D02*
X105954819Y-110309523D01*
X105954819Y-110309523D02*
X105954819Y-109690476D01*
X105954819Y-109214285D02*
X105954819Y-109023809D01*
X105954819Y-109023809D02*
X105907200Y-108928571D01*
X105907200Y-108928571D02*
X105859580Y-108880952D01*
X105859580Y-108880952D02*
X105716723Y-108785714D01*
X105716723Y-108785714D02*
X105526247Y-108738095D01*
X105526247Y-108738095D02*
X105145295Y-108738095D01*
X105145295Y-108738095D02*
X105050057Y-108785714D01*
X105050057Y-108785714D02*
X105002438Y-108833333D01*
X105002438Y-108833333D02*
X104954819Y-108928571D01*
X104954819Y-108928571D02*
X104954819Y-109119047D01*
X104954819Y-109119047D02*
X105002438Y-109214285D01*
X105002438Y-109214285D02*
X105050057Y-109261904D01*
X105050057Y-109261904D02*
X105145295Y-109309523D01*
X105145295Y-109309523D02*
X105383390Y-109309523D01*
X105383390Y-109309523D02*
X105478628Y-109261904D01*
X105478628Y-109261904D02*
X105526247Y-109214285D01*
X105526247Y-109214285D02*
X105573866Y-109119047D01*
X105573866Y-109119047D02*
X105573866Y-108928571D01*
X105573866Y-108928571D02*
X105526247Y-108833333D01*
X105526247Y-108833333D02*
X105478628Y-108785714D01*
X105478628Y-108785714D02*
X105383390Y-108738095D01*
X333907142Y-36669580D02*
X333859523Y-36717200D01*
X333859523Y-36717200D02*
X333716666Y-36764819D01*
X333716666Y-36764819D02*
X333621428Y-36764819D01*
X333621428Y-36764819D02*
X333478571Y-36717200D01*
X333478571Y-36717200D02*
X333383333Y-36621961D01*
X333383333Y-36621961D02*
X333335714Y-36526723D01*
X333335714Y-36526723D02*
X333288095Y-36336247D01*
X333288095Y-36336247D02*
X333288095Y-36193390D01*
X333288095Y-36193390D02*
X333335714Y-36002914D01*
X333335714Y-36002914D02*
X333383333Y-35907676D01*
X333383333Y-35907676D02*
X333478571Y-35812438D01*
X333478571Y-35812438D02*
X333621428Y-35764819D01*
X333621428Y-35764819D02*
X333716666Y-35764819D01*
X333716666Y-35764819D02*
X333859523Y-35812438D01*
X333859523Y-35812438D02*
X333907142Y-35860057D01*
X334240476Y-35764819D02*
X334907142Y-35764819D01*
X334907142Y-35764819D02*
X334478571Y-36764819D01*
X335430952Y-36193390D02*
X335335714Y-36145771D01*
X335335714Y-36145771D02*
X335288095Y-36098152D01*
X335288095Y-36098152D02*
X335240476Y-36002914D01*
X335240476Y-36002914D02*
X335240476Y-35955295D01*
X335240476Y-35955295D02*
X335288095Y-35860057D01*
X335288095Y-35860057D02*
X335335714Y-35812438D01*
X335335714Y-35812438D02*
X335430952Y-35764819D01*
X335430952Y-35764819D02*
X335621428Y-35764819D01*
X335621428Y-35764819D02*
X335716666Y-35812438D01*
X335716666Y-35812438D02*
X335764285Y-35860057D01*
X335764285Y-35860057D02*
X335811904Y-35955295D01*
X335811904Y-35955295D02*
X335811904Y-36002914D01*
X335811904Y-36002914D02*
X335764285Y-36098152D01*
X335764285Y-36098152D02*
X335716666Y-36145771D01*
X335716666Y-36145771D02*
X335621428Y-36193390D01*
X335621428Y-36193390D02*
X335430952Y-36193390D01*
X335430952Y-36193390D02*
X335335714Y-36241009D01*
X335335714Y-36241009D02*
X335288095Y-36288628D01*
X335288095Y-36288628D02*
X335240476Y-36383866D01*
X335240476Y-36383866D02*
X335240476Y-36574342D01*
X335240476Y-36574342D02*
X335288095Y-36669580D01*
X335288095Y-36669580D02*
X335335714Y-36717200D01*
X335335714Y-36717200D02*
X335430952Y-36764819D01*
X335430952Y-36764819D02*
X335621428Y-36764819D01*
X335621428Y-36764819D02*
X335716666Y-36717200D01*
X335716666Y-36717200D02*
X335764285Y-36669580D01*
X335764285Y-36669580D02*
X335811904Y-36574342D01*
X335811904Y-36574342D02*
X335811904Y-36383866D01*
X335811904Y-36383866D02*
X335764285Y-36288628D01*
X335764285Y-36288628D02*
X335716666Y-36241009D01*
X335716666Y-36241009D02*
X335621428Y-36193390D01*
X333723333Y-50814819D02*
X333390000Y-50338628D01*
X333151905Y-50814819D02*
X333151905Y-49814819D01*
X333151905Y-49814819D02*
X333532857Y-49814819D01*
X333532857Y-49814819D02*
X333628095Y-49862438D01*
X333628095Y-49862438D02*
X333675714Y-49910057D01*
X333675714Y-49910057D02*
X333723333Y-50005295D01*
X333723333Y-50005295D02*
X333723333Y-50148152D01*
X333723333Y-50148152D02*
X333675714Y-50243390D01*
X333675714Y-50243390D02*
X333628095Y-50291009D01*
X333628095Y-50291009D02*
X333532857Y-50338628D01*
X333532857Y-50338628D02*
X333151905Y-50338628D01*
X334199524Y-50814819D02*
X334390000Y-50814819D01*
X334390000Y-50814819D02*
X334485238Y-50767200D01*
X334485238Y-50767200D02*
X334532857Y-50719580D01*
X334532857Y-50719580D02*
X334628095Y-50576723D01*
X334628095Y-50576723D02*
X334675714Y-50386247D01*
X334675714Y-50386247D02*
X334675714Y-50005295D01*
X334675714Y-50005295D02*
X334628095Y-49910057D01*
X334628095Y-49910057D02*
X334580476Y-49862438D01*
X334580476Y-49862438D02*
X334485238Y-49814819D01*
X334485238Y-49814819D02*
X334294762Y-49814819D01*
X334294762Y-49814819D02*
X334199524Y-49862438D01*
X334199524Y-49862438D02*
X334151905Y-49910057D01*
X334151905Y-49910057D02*
X334104286Y-50005295D01*
X334104286Y-50005295D02*
X334104286Y-50243390D01*
X334104286Y-50243390D02*
X334151905Y-50338628D01*
X334151905Y-50338628D02*
X334199524Y-50386247D01*
X334199524Y-50386247D02*
X334294762Y-50433866D01*
X334294762Y-50433866D02*
X334485238Y-50433866D01*
X334485238Y-50433866D02*
X334580476Y-50386247D01*
X334580476Y-50386247D02*
X334628095Y-50338628D01*
X334628095Y-50338628D02*
X334675714Y-50243390D01*
X355051905Y-26936819D02*
X355623333Y-26936819D01*
X355337619Y-27936819D02*
X355337619Y-26936819D01*
X355956667Y-27936819D02*
X355956667Y-26936819D01*
X355956667Y-26936819D02*
X356337619Y-26936819D01*
X356337619Y-26936819D02*
X356432857Y-26984438D01*
X356432857Y-26984438D02*
X356480476Y-27032057D01*
X356480476Y-27032057D02*
X356528095Y-27127295D01*
X356528095Y-27127295D02*
X356528095Y-27270152D01*
X356528095Y-27270152D02*
X356480476Y-27365390D01*
X356480476Y-27365390D02*
X356432857Y-27413009D01*
X356432857Y-27413009D02*
X356337619Y-27460628D01*
X356337619Y-27460628D02*
X355956667Y-27460628D01*
X357480476Y-27936819D02*
X356909048Y-27936819D01*
X357194762Y-27936819D02*
X357194762Y-26936819D01*
X357194762Y-26936819D02*
X357099524Y-27079676D01*
X357099524Y-27079676D02*
X357004286Y-27174914D01*
X357004286Y-27174914D02*
X356909048Y-27222533D01*
X358099524Y-26936819D02*
X358194762Y-26936819D01*
X358194762Y-26936819D02*
X358290000Y-26984438D01*
X358290000Y-26984438D02*
X358337619Y-27032057D01*
X358337619Y-27032057D02*
X358385238Y-27127295D01*
X358385238Y-27127295D02*
X358432857Y-27317771D01*
X358432857Y-27317771D02*
X358432857Y-27555866D01*
X358432857Y-27555866D02*
X358385238Y-27746342D01*
X358385238Y-27746342D02*
X358337619Y-27841580D01*
X358337619Y-27841580D02*
X358290000Y-27889200D01*
X358290000Y-27889200D02*
X358194762Y-27936819D01*
X358194762Y-27936819D02*
X358099524Y-27936819D01*
X358099524Y-27936819D02*
X358004286Y-27889200D01*
X358004286Y-27889200D02*
X357956667Y-27841580D01*
X357956667Y-27841580D02*
X357909048Y-27746342D01*
X357909048Y-27746342D02*
X357861429Y-27555866D01*
X357861429Y-27555866D02*
X357861429Y-27317771D01*
X357861429Y-27317771D02*
X357909048Y-27127295D01*
X357909048Y-27127295D02*
X357956667Y-27032057D01*
X357956667Y-27032057D02*
X358004286Y-26984438D01*
X358004286Y-26984438D02*
X358099524Y-26936819D01*
X378776905Y-103629819D02*
X378776905Y-104439342D01*
X378776905Y-104439342D02*
X378824524Y-104534580D01*
X378824524Y-104534580D02*
X378872143Y-104582200D01*
X378872143Y-104582200D02*
X378967381Y-104629819D01*
X378967381Y-104629819D02*
X379157857Y-104629819D01*
X379157857Y-104629819D02*
X379253095Y-104582200D01*
X379253095Y-104582200D02*
X379300714Y-104534580D01*
X379300714Y-104534580D02*
X379348333Y-104439342D01*
X379348333Y-104439342D02*
X379348333Y-103629819D01*
X380348333Y-104629819D02*
X379776905Y-104629819D01*
X380062619Y-104629819D02*
X380062619Y-103629819D01*
X380062619Y-103629819D02*
X379967381Y-103772676D01*
X379967381Y-103772676D02*
X379872143Y-103867914D01*
X379872143Y-103867914D02*
X379776905Y-103915533D01*
X380967381Y-103629819D02*
X381062619Y-103629819D01*
X381062619Y-103629819D02*
X381157857Y-103677438D01*
X381157857Y-103677438D02*
X381205476Y-103725057D01*
X381205476Y-103725057D02*
X381253095Y-103820295D01*
X381253095Y-103820295D02*
X381300714Y-104010771D01*
X381300714Y-104010771D02*
X381300714Y-104248866D01*
X381300714Y-104248866D02*
X381253095Y-104439342D01*
X381253095Y-104439342D02*
X381205476Y-104534580D01*
X381205476Y-104534580D02*
X381157857Y-104582200D01*
X381157857Y-104582200D02*
X381062619Y-104629819D01*
X381062619Y-104629819D02*
X380967381Y-104629819D01*
X380967381Y-104629819D02*
X380872143Y-104582200D01*
X380872143Y-104582200D02*
X380824524Y-104534580D01*
X380824524Y-104534580D02*
X380776905Y-104439342D01*
X380776905Y-104439342D02*
X380729286Y-104248866D01*
X380729286Y-104248866D02*
X380729286Y-104010771D01*
X380729286Y-104010771D02*
X380776905Y-103820295D01*
X380776905Y-103820295D02*
X380824524Y-103725057D01*
X380824524Y-103725057D02*
X380872143Y-103677438D01*
X380872143Y-103677438D02*
X380967381Y-103629819D01*
X324290714Y-48584819D02*
X324290714Y-47584819D01*
X324290714Y-47584819D02*
X324528809Y-47584819D01*
X324528809Y-47584819D02*
X324671666Y-47632438D01*
X324671666Y-47632438D02*
X324766904Y-47727676D01*
X324766904Y-47727676D02*
X324814523Y-47822914D01*
X324814523Y-47822914D02*
X324862142Y-48013390D01*
X324862142Y-48013390D02*
X324862142Y-48156247D01*
X324862142Y-48156247D02*
X324814523Y-48346723D01*
X324814523Y-48346723D02*
X324766904Y-48441961D01*
X324766904Y-48441961D02*
X324671666Y-48537200D01*
X324671666Y-48537200D02*
X324528809Y-48584819D01*
X324528809Y-48584819D02*
X324290714Y-48584819D01*
X325814523Y-48584819D02*
X325243095Y-48584819D01*
X325528809Y-48584819D02*
X325528809Y-47584819D01*
X325528809Y-47584819D02*
X325433571Y-47727676D01*
X325433571Y-47727676D02*
X325338333Y-47822914D01*
X325338333Y-47822914D02*
X325243095Y-47870533D01*
X326147857Y-47584819D02*
X326766904Y-47584819D01*
X326766904Y-47584819D02*
X326433571Y-47965771D01*
X326433571Y-47965771D02*
X326576428Y-47965771D01*
X326576428Y-47965771D02*
X326671666Y-48013390D01*
X326671666Y-48013390D02*
X326719285Y-48061009D01*
X326719285Y-48061009D02*
X326766904Y-48156247D01*
X326766904Y-48156247D02*
X326766904Y-48394342D01*
X326766904Y-48394342D02*
X326719285Y-48489580D01*
X326719285Y-48489580D02*
X326671666Y-48537200D01*
X326671666Y-48537200D02*
X326576428Y-48584819D01*
X326576428Y-48584819D02*
X326290714Y-48584819D01*
X326290714Y-48584819D02*
X326195476Y-48537200D01*
X326195476Y-48537200D02*
X326147857Y-48489580D01*
X102859580Y-110642857D02*
X102907200Y-110690476D01*
X102907200Y-110690476D02*
X102954819Y-110833333D01*
X102954819Y-110833333D02*
X102954819Y-110928571D01*
X102954819Y-110928571D02*
X102907200Y-111071428D01*
X102907200Y-111071428D02*
X102811961Y-111166666D01*
X102811961Y-111166666D02*
X102716723Y-111214285D01*
X102716723Y-111214285D02*
X102526247Y-111261904D01*
X102526247Y-111261904D02*
X102383390Y-111261904D01*
X102383390Y-111261904D02*
X102192914Y-111214285D01*
X102192914Y-111214285D02*
X102097676Y-111166666D01*
X102097676Y-111166666D02*
X102002438Y-111071428D01*
X102002438Y-111071428D02*
X101954819Y-110928571D01*
X101954819Y-110928571D02*
X101954819Y-110833333D01*
X101954819Y-110833333D02*
X102002438Y-110690476D01*
X102002438Y-110690476D02*
X102050057Y-110642857D01*
X102050057Y-110261904D02*
X102002438Y-110214285D01*
X102002438Y-110214285D02*
X101954819Y-110119047D01*
X101954819Y-110119047D02*
X101954819Y-109880952D01*
X101954819Y-109880952D02*
X102002438Y-109785714D01*
X102002438Y-109785714D02*
X102050057Y-109738095D01*
X102050057Y-109738095D02*
X102145295Y-109690476D01*
X102145295Y-109690476D02*
X102240533Y-109690476D01*
X102240533Y-109690476D02*
X102383390Y-109738095D01*
X102383390Y-109738095D02*
X102954819Y-110309523D01*
X102954819Y-110309523D02*
X102954819Y-109690476D01*
X101954819Y-109357142D02*
X101954819Y-108738095D01*
X101954819Y-108738095D02*
X102335771Y-109071428D01*
X102335771Y-109071428D02*
X102335771Y-108928571D01*
X102335771Y-108928571D02*
X102383390Y-108833333D01*
X102383390Y-108833333D02*
X102431009Y-108785714D01*
X102431009Y-108785714D02*
X102526247Y-108738095D01*
X102526247Y-108738095D02*
X102764342Y-108738095D01*
X102764342Y-108738095D02*
X102859580Y-108785714D01*
X102859580Y-108785714D02*
X102907200Y-108833333D01*
X102907200Y-108833333D02*
X102954819Y-108928571D01*
X102954819Y-108928571D02*
X102954819Y-109214285D01*
X102954819Y-109214285D02*
X102907200Y-109309523D01*
X102907200Y-109309523D02*
X102859580Y-109357142D01*
X81859580Y-104642857D02*
X81907200Y-104690476D01*
X81907200Y-104690476D02*
X81954819Y-104833333D01*
X81954819Y-104833333D02*
X81954819Y-104928571D01*
X81954819Y-104928571D02*
X81907200Y-105071428D01*
X81907200Y-105071428D02*
X81811961Y-105166666D01*
X81811961Y-105166666D02*
X81716723Y-105214285D01*
X81716723Y-105214285D02*
X81526247Y-105261904D01*
X81526247Y-105261904D02*
X81383390Y-105261904D01*
X81383390Y-105261904D02*
X81192914Y-105214285D01*
X81192914Y-105214285D02*
X81097676Y-105166666D01*
X81097676Y-105166666D02*
X81002438Y-105071428D01*
X81002438Y-105071428D02*
X80954819Y-104928571D01*
X80954819Y-104928571D02*
X80954819Y-104833333D01*
X80954819Y-104833333D02*
X81002438Y-104690476D01*
X81002438Y-104690476D02*
X81050057Y-104642857D01*
X80954819Y-104309523D02*
X80954819Y-103690476D01*
X80954819Y-103690476D02*
X81335771Y-104023809D01*
X81335771Y-104023809D02*
X81335771Y-103880952D01*
X81335771Y-103880952D02*
X81383390Y-103785714D01*
X81383390Y-103785714D02*
X81431009Y-103738095D01*
X81431009Y-103738095D02*
X81526247Y-103690476D01*
X81526247Y-103690476D02*
X81764342Y-103690476D01*
X81764342Y-103690476D02*
X81859580Y-103738095D01*
X81859580Y-103738095D02*
X81907200Y-103785714D01*
X81907200Y-103785714D02*
X81954819Y-103880952D01*
X81954819Y-103880952D02*
X81954819Y-104166666D01*
X81954819Y-104166666D02*
X81907200Y-104261904D01*
X81907200Y-104261904D02*
X81859580Y-104309523D01*
X80954819Y-103071428D02*
X80954819Y-102976190D01*
X80954819Y-102976190D02*
X81002438Y-102880952D01*
X81002438Y-102880952D02*
X81050057Y-102833333D01*
X81050057Y-102833333D02*
X81145295Y-102785714D01*
X81145295Y-102785714D02*
X81335771Y-102738095D01*
X81335771Y-102738095D02*
X81573866Y-102738095D01*
X81573866Y-102738095D02*
X81764342Y-102785714D01*
X81764342Y-102785714D02*
X81859580Y-102833333D01*
X81859580Y-102833333D02*
X81907200Y-102880952D01*
X81907200Y-102880952D02*
X81954819Y-102976190D01*
X81954819Y-102976190D02*
X81954819Y-103071428D01*
X81954819Y-103071428D02*
X81907200Y-103166666D01*
X81907200Y-103166666D02*
X81859580Y-103214285D01*
X81859580Y-103214285D02*
X81764342Y-103261904D01*
X81764342Y-103261904D02*
X81573866Y-103309523D01*
X81573866Y-103309523D02*
X81335771Y-103309523D01*
X81335771Y-103309523D02*
X81145295Y-103261904D01*
X81145295Y-103261904D02*
X81050057Y-103214285D01*
X81050057Y-103214285D02*
X81002438Y-103166666D01*
X81002438Y-103166666D02*
X80954819Y-103071428D01*
X321257142Y-58539580D02*
X321209523Y-58587200D01*
X321209523Y-58587200D02*
X321066666Y-58634819D01*
X321066666Y-58634819D02*
X320971428Y-58634819D01*
X320971428Y-58634819D02*
X320828571Y-58587200D01*
X320828571Y-58587200D02*
X320733333Y-58491961D01*
X320733333Y-58491961D02*
X320685714Y-58396723D01*
X320685714Y-58396723D02*
X320638095Y-58206247D01*
X320638095Y-58206247D02*
X320638095Y-58063390D01*
X320638095Y-58063390D02*
X320685714Y-57872914D01*
X320685714Y-57872914D02*
X320733333Y-57777676D01*
X320733333Y-57777676D02*
X320828571Y-57682438D01*
X320828571Y-57682438D02*
X320971428Y-57634819D01*
X320971428Y-57634819D02*
X321066666Y-57634819D01*
X321066666Y-57634819D02*
X321209523Y-57682438D01*
X321209523Y-57682438D02*
X321257142Y-57730057D01*
X321828571Y-58063390D02*
X321733333Y-58015771D01*
X321733333Y-58015771D02*
X321685714Y-57968152D01*
X321685714Y-57968152D02*
X321638095Y-57872914D01*
X321638095Y-57872914D02*
X321638095Y-57825295D01*
X321638095Y-57825295D02*
X321685714Y-57730057D01*
X321685714Y-57730057D02*
X321733333Y-57682438D01*
X321733333Y-57682438D02*
X321828571Y-57634819D01*
X321828571Y-57634819D02*
X322019047Y-57634819D01*
X322019047Y-57634819D02*
X322114285Y-57682438D01*
X322114285Y-57682438D02*
X322161904Y-57730057D01*
X322161904Y-57730057D02*
X322209523Y-57825295D01*
X322209523Y-57825295D02*
X322209523Y-57872914D01*
X322209523Y-57872914D02*
X322161904Y-57968152D01*
X322161904Y-57968152D02*
X322114285Y-58015771D01*
X322114285Y-58015771D02*
X322019047Y-58063390D01*
X322019047Y-58063390D02*
X321828571Y-58063390D01*
X321828571Y-58063390D02*
X321733333Y-58111009D01*
X321733333Y-58111009D02*
X321685714Y-58158628D01*
X321685714Y-58158628D02*
X321638095Y-58253866D01*
X321638095Y-58253866D02*
X321638095Y-58444342D01*
X321638095Y-58444342D02*
X321685714Y-58539580D01*
X321685714Y-58539580D02*
X321733333Y-58587200D01*
X321733333Y-58587200D02*
X321828571Y-58634819D01*
X321828571Y-58634819D02*
X322019047Y-58634819D01*
X322019047Y-58634819D02*
X322114285Y-58587200D01*
X322114285Y-58587200D02*
X322161904Y-58539580D01*
X322161904Y-58539580D02*
X322209523Y-58444342D01*
X322209523Y-58444342D02*
X322209523Y-58253866D01*
X322209523Y-58253866D02*
X322161904Y-58158628D01*
X322161904Y-58158628D02*
X322114285Y-58111009D01*
X322114285Y-58111009D02*
X322019047Y-58063390D01*
X322542857Y-57634819D02*
X323161904Y-57634819D01*
X323161904Y-57634819D02*
X322828571Y-58015771D01*
X322828571Y-58015771D02*
X322971428Y-58015771D01*
X322971428Y-58015771D02*
X323066666Y-58063390D01*
X323066666Y-58063390D02*
X323114285Y-58111009D01*
X323114285Y-58111009D02*
X323161904Y-58206247D01*
X323161904Y-58206247D02*
X323161904Y-58444342D01*
X323161904Y-58444342D02*
X323114285Y-58539580D01*
X323114285Y-58539580D02*
X323066666Y-58587200D01*
X323066666Y-58587200D02*
X322971428Y-58634819D01*
X322971428Y-58634819D02*
X322685714Y-58634819D01*
X322685714Y-58634819D02*
X322590476Y-58587200D01*
X322590476Y-58587200D02*
X322542857Y-58539580D01*
X74645057Y-106235238D02*
X74597438Y-106330476D01*
X74597438Y-106330476D02*
X74502200Y-106425714D01*
X74502200Y-106425714D02*
X74359342Y-106568571D01*
X74359342Y-106568571D02*
X74311723Y-106663809D01*
X74311723Y-106663809D02*
X74311723Y-106759047D01*
X74549819Y-106711428D02*
X74502200Y-106806666D01*
X74502200Y-106806666D02*
X74406961Y-106901904D01*
X74406961Y-106901904D02*
X74216485Y-106949523D01*
X74216485Y-106949523D02*
X73883152Y-106949523D01*
X73883152Y-106949523D02*
X73692676Y-106901904D01*
X73692676Y-106901904D02*
X73597438Y-106806666D01*
X73597438Y-106806666D02*
X73549819Y-106711428D01*
X73549819Y-106711428D02*
X73549819Y-106520952D01*
X73549819Y-106520952D02*
X73597438Y-106425714D01*
X73597438Y-106425714D02*
X73692676Y-106330476D01*
X73692676Y-106330476D02*
X73883152Y-106282857D01*
X73883152Y-106282857D02*
X74216485Y-106282857D01*
X74216485Y-106282857D02*
X74406961Y-106330476D01*
X74406961Y-106330476D02*
X74502200Y-106425714D01*
X74502200Y-106425714D02*
X74549819Y-106520952D01*
X74549819Y-106520952D02*
X74549819Y-106711428D01*
X73549819Y-105949523D02*
X73549819Y-105282857D01*
X73549819Y-105282857D02*
X74549819Y-105711428D01*
X80359580Y-104642857D02*
X80407200Y-104690476D01*
X80407200Y-104690476D02*
X80454819Y-104833333D01*
X80454819Y-104833333D02*
X80454819Y-104928571D01*
X80454819Y-104928571D02*
X80407200Y-105071428D01*
X80407200Y-105071428D02*
X80311961Y-105166666D01*
X80311961Y-105166666D02*
X80216723Y-105214285D01*
X80216723Y-105214285D02*
X80026247Y-105261904D01*
X80026247Y-105261904D02*
X79883390Y-105261904D01*
X79883390Y-105261904D02*
X79692914Y-105214285D01*
X79692914Y-105214285D02*
X79597676Y-105166666D01*
X79597676Y-105166666D02*
X79502438Y-105071428D01*
X79502438Y-105071428D02*
X79454819Y-104928571D01*
X79454819Y-104928571D02*
X79454819Y-104833333D01*
X79454819Y-104833333D02*
X79502438Y-104690476D01*
X79502438Y-104690476D02*
X79550057Y-104642857D01*
X79454819Y-104309523D02*
X79454819Y-103690476D01*
X79454819Y-103690476D02*
X79835771Y-104023809D01*
X79835771Y-104023809D02*
X79835771Y-103880952D01*
X79835771Y-103880952D02*
X79883390Y-103785714D01*
X79883390Y-103785714D02*
X79931009Y-103738095D01*
X79931009Y-103738095D02*
X80026247Y-103690476D01*
X80026247Y-103690476D02*
X80264342Y-103690476D01*
X80264342Y-103690476D02*
X80359580Y-103738095D01*
X80359580Y-103738095D02*
X80407200Y-103785714D01*
X80407200Y-103785714D02*
X80454819Y-103880952D01*
X80454819Y-103880952D02*
X80454819Y-104166666D01*
X80454819Y-104166666D02*
X80407200Y-104261904D01*
X80407200Y-104261904D02*
X80359580Y-104309523D01*
X80454819Y-102738095D02*
X80454819Y-103309523D01*
X80454819Y-103023809D02*
X79454819Y-103023809D01*
X79454819Y-103023809D02*
X79597676Y-103119047D01*
X79597676Y-103119047D02*
X79692914Y-103214285D01*
X79692914Y-103214285D02*
X79740533Y-103309523D01*
X321257142Y-52629580D02*
X321209523Y-52677200D01*
X321209523Y-52677200D02*
X321066666Y-52724819D01*
X321066666Y-52724819D02*
X320971428Y-52724819D01*
X320971428Y-52724819D02*
X320828571Y-52677200D01*
X320828571Y-52677200D02*
X320733333Y-52581961D01*
X320733333Y-52581961D02*
X320685714Y-52486723D01*
X320685714Y-52486723D02*
X320638095Y-52296247D01*
X320638095Y-52296247D02*
X320638095Y-52153390D01*
X320638095Y-52153390D02*
X320685714Y-51962914D01*
X320685714Y-51962914D02*
X320733333Y-51867676D01*
X320733333Y-51867676D02*
X320828571Y-51772438D01*
X320828571Y-51772438D02*
X320971428Y-51724819D01*
X320971428Y-51724819D02*
X321066666Y-51724819D01*
X321066666Y-51724819D02*
X321209523Y-51772438D01*
X321209523Y-51772438D02*
X321257142Y-51820057D01*
X321638095Y-51820057D02*
X321685714Y-51772438D01*
X321685714Y-51772438D02*
X321780952Y-51724819D01*
X321780952Y-51724819D02*
X322019047Y-51724819D01*
X322019047Y-51724819D02*
X322114285Y-51772438D01*
X322114285Y-51772438D02*
X322161904Y-51820057D01*
X322161904Y-51820057D02*
X322209523Y-51915295D01*
X322209523Y-51915295D02*
X322209523Y-52010533D01*
X322209523Y-52010533D02*
X322161904Y-52153390D01*
X322161904Y-52153390D02*
X321590476Y-52724819D01*
X321590476Y-52724819D02*
X322209523Y-52724819D01*
X322542857Y-51724819D02*
X323209523Y-51724819D01*
X323209523Y-51724819D02*
X322780952Y-52724819D01*
X104859580Y-105142857D02*
X104907200Y-105190476D01*
X104907200Y-105190476D02*
X104954819Y-105333333D01*
X104954819Y-105333333D02*
X104954819Y-105428571D01*
X104954819Y-105428571D02*
X104907200Y-105571428D01*
X104907200Y-105571428D02*
X104811961Y-105666666D01*
X104811961Y-105666666D02*
X104716723Y-105714285D01*
X104716723Y-105714285D02*
X104526247Y-105761904D01*
X104526247Y-105761904D02*
X104383390Y-105761904D01*
X104383390Y-105761904D02*
X104192914Y-105714285D01*
X104192914Y-105714285D02*
X104097676Y-105666666D01*
X104097676Y-105666666D02*
X104002438Y-105571428D01*
X104002438Y-105571428D02*
X103954819Y-105428571D01*
X103954819Y-105428571D02*
X103954819Y-105333333D01*
X103954819Y-105333333D02*
X104002438Y-105190476D01*
X104002438Y-105190476D02*
X104050057Y-105142857D01*
X104954819Y-104190476D02*
X104954819Y-104761904D01*
X104954819Y-104476190D02*
X103954819Y-104476190D01*
X103954819Y-104476190D02*
X104097676Y-104571428D01*
X104097676Y-104571428D02*
X104192914Y-104666666D01*
X104192914Y-104666666D02*
X104240533Y-104761904D01*
X103954819Y-103285714D02*
X103954819Y-103761904D01*
X103954819Y-103761904D02*
X104431009Y-103809523D01*
X104431009Y-103809523D02*
X104383390Y-103761904D01*
X104383390Y-103761904D02*
X104335771Y-103666666D01*
X104335771Y-103666666D02*
X104335771Y-103428571D01*
X104335771Y-103428571D02*
X104383390Y-103333333D01*
X104383390Y-103333333D02*
X104431009Y-103285714D01*
X104431009Y-103285714D02*
X104526247Y-103238095D01*
X104526247Y-103238095D02*
X104764342Y-103238095D01*
X104764342Y-103238095D02*
X104859580Y-103285714D01*
X104859580Y-103285714D02*
X104907200Y-103333333D01*
X104907200Y-103333333D02*
X104954819Y-103428571D01*
X104954819Y-103428571D02*
X104954819Y-103666666D01*
X104954819Y-103666666D02*
X104907200Y-103761904D01*
X104907200Y-103761904D02*
X104859580Y-103809523D01*
X341578333Y-27639580D02*
X341530714Y-27687200D01*
X341530714Y-27687200D02*
X341387857Y-27734819D01*
X341387857Y-27734819D02*
X341292619Y-27734819D01*
X341292619Y-27734819D02*
X341149762Y-27687200D01*
X341149762Y-27687200D02*
X341054524Y-27591961D01*
X341054524Y-27591961D02*
X341006905Y-27496723D01*
X341006905Y-27496723D02*
X340959286Y-27306247D01*
X340959286Y-27306247D02*
X340959286Y-27163390D01*
X340959286Y-27163390D02*
X341006905Y-26972914D01*
X341006905Y-26972914D02*
X341054524Y-26877676D01*
X341054524Y-26877676D02*
X341149762Y-26782438D01*
X341149762Y-26782438D02*
X341292619Y-26734819D01*
X341292619Y-26734819D02*
X341387857Y-26734819D01*
X341387857Y-26734819D02*
X341530714Y-26782438D01*
X341530714Y-26782438D02*
X341578333Y-26830057D01*
X341911667Y-26734819D02*
X342530714Y-26734819D01*
X342530714Y-26734819D02*
X342197381Y-27115771D01*
X342197381Y-27115771D02*
X342340238Y-27115771D01*
X342340238Y-27115771D02*
X342435476Y-27163390D01*
X342435476Y-27163390D02*
X342483095Y-27211009D01*
X342483095Y-27211009D02*
X342530714Y-27306247D01*
X342530714Y-27306247D02*
X342530714Y-27544342D01*
X342530714Y-27544342D02*
X342483095Y-27639580D01*
X342483095Y-27639580D02*
X342435476Y-27687200D01*
X342435476Y-27687200D02*
X342340238Y-27734819D01*
X342340238Y-27734819D02*
X342054524Y-27734819D01*
X342054524Y-27734819D02*
X341959286Y-27687200D01*
X341959286Y-27687200D02*
X341911667Y-27639580D01*
X89357142Y-105859580D02*
X89309523Y-105907200D01*
X89309523Y-105907200D02*
X89166666Y-105954819D01*
X89166666Y-105954819D02*
X89071428Y-105954819D01*
X89071428Y-105954819D02*
X88928571Y-105907200D01*
X88928571Y-105907200D02*
X88833333Y-105811961D01*
X88833333Y-105811961D02*
X88785714Y-105716723D01*
X88785714Y-105716723D02*
X88738095Y-105526247D01*
X88738095Y-105526247D02*
X88738095Y-105383390D01*
X88738095Y-105383390D02*
X88785714Y-105192914D01*
X88785714Y-105192914D02*
X88833333Y-105097676D01*
X88833333Y-105097676D02*
X88928571Y-105002438D01*
X88928571Y-105002438D02*
X89071428Y-104954819D01*
X89071428Y-104954819D02*
X89166666Y-104954819D01*
X89166666Y-104954819D02*
X89309523Y-105002438D01*
X89309523Y-105002438D02*
X89357142Y-105050057D01*
X89738095Y-105050057D02*
X89785714Y-105002438D01*
X89785714Y-105002438D02*
X89880952Y-104954819D01*
X89880952Y-104954819D02*
X90119047Y-104954819D01*
X90119047Y-104954819D02*
X90214285Y-105002438D01*
X90214285Y-105002438D02*
X90261904Y-105050057D01*
X90261904Y-105050057D02*
X90309523Y-105145295D01*
X90309523Y-105145295D02*
X90309523Y-105240533D01*
X90309523Y-105240533D02*
X90261904Y-105383390D01*
X90261904Y-105383390D02*
X89690476Y-105954819D01*
X89690476Y-105954819D02*
X90309523Y-105954819D01*
X90880952Y-105383390D02*
X90785714Y-105335771D01*
X90785714Y-105335771D02*
X90738095Y-105288152D01*
X90738095Y-105288152D02*
X90690476Y-105192914D01*
X90690476Y-105192914D02*
X90690476Y-105145295D01*
X90690476Y-105145295D02*
X90738095Y-105050057D01*
X90738095Y-105050057D02*
X90785714Y-105002438D01*
X90785714Y-105002438D02*
X90880952Y-104954819D01*
X90880952Y-104954819D02*
X91071428Y-104954819D01*
X91071428Y-104954819D02*
X91166666Y-105002438D01*
X91166666Y-105002438D02*
X91214285Y-105050057D01*
X91214285Y-105050057D02*
X91261904Y-105145295D01*
X91261904Y-105145295D02*
X91261904Y-105192914D01*
X91261904Y-105192914D02*
X91214285Y-105288152D01*
X91214285Y-105288152D02*
X91166666Y-105335771D01*
X91166666Y-105335771D02*
X91071428Y-105383390D01*
X91071428Y-105383390D02*
X90880952Y-105383390D01*
X90880952Y-105383390D02*
X90785714Y-105431009D01*
X90785714Y-105431009D02*
X90738095Y-105478628D01*
X90738095Y-105478628D02*
X90690476Y-105573866D01*
X90690476Y-105573866D02*
X90690476Y-105764342D01*
X90690476Y-105764342D02*
X90738095Y-105859580D01*
X90738095Y-105859580D02*
X90785714Y-105907200D01*
X90785714Y-105907200D02*
X90880952Y-105954819D01*
X90880952Y-105954819D02*
X91071428Y-105954819D01*
X91071428Y-105954819D02*
X91166666Y-105907200D01*
X91166666Y-105907200D02*
X91214285Y-105859580D01*
X91214285Y-105859580D02*
X91261904Y-105764342D01*
X91261904Y-105764342D02*
X91261904Y-105573866D01*
X91261904Y-105573866D02*
X91214285Y-105478628D01*
X91214285Y-105478628D02*
X91166666Y-105431009D01*
X91166666Y-105431009D02*
X91071428Y-105383390D01*
X74212080Y-110809523D02*
X74259700Y-110857142D01*
X74259700Y-110857142D02*
X74307319Y-110999999D01*
X74307319Y-110999999D02*
X74307319Y-111095237D01*
X74307319Y-111095237D02*
X74259700Y-111238094D01*
X74259700Y-111238094D02*
X74164461Y-111333332D01*
X74164461Y-111333332D02*
X74069223Y-111380951D01*
X74069223Y-111380951D02*
X73878747Y-111428570D01*
X73878747Y-111428570D02*
X73735890Y-111428570D01*
X73735890Y-111428570D02*
X73545414Y-111380951D01*
X73545414Y-111380951D02*
X73450176Y-111333332D01*
X73450176Y-111333332D02*
X73354938Y-111238094D01*
X73354938Y-111238094D02*
X73307319Y-111095237D01*
X73307319Y-111095237D02*
X73307319Y-110999999D01*
X73307319Y-110999999D02*
X73354938Y-110857142D01*
X73354938Y-110857142D02*
X73402557Y-110809523D01*
X73735890Y-110238094D02*
X73688271Y-110333332D01*
X73688271Y-110333332D02*
X73640652Y-110380951D01*
X73640652Y-110380951D02*
X73545414Y-110428570D01*
X73545414Y-110428570D02*
X73497795Y-110428570D01*
X73497795Y-110428570D02*
X73402557Y-110380951D01*
X73402557Y-110380951D02*
X73354938Y-110333332D01*
X73354938Y-110333332D02*
X73307319Y-110238094D01*
X73307319Y-110238094D02*
X73307319Y-110047618D01*
X73307319Y-110047618D02*
X73354938Y-109952380D01*
X73354938Y-109952380D02*
X73402557Y-109904761D01*
X73402557Y-109904761D02*
X73497795Y-109857142D01*
X73497795Y-109857142D02*
X73545414Y-109857142D01*
X73545414Y-109857142D02*
X73640652Y-109904761D01*
X73640652Y-109904761D02*
X73688271Y-109952380D01*
X73688271Y-109952380D02*
X73735890Y-110047618D01*
X73735890Y-110047618D02*
X73735890Y-110238094D01*
X73735890Y-110238094D02*
X73783509Y-110333332D01*
X73783509Y-110333332D02*
X73831128Y-110380951D01*
X73831128Y-110380951D02*
X73926366Y-110428570D01*
X73926366Y-110428570D02*
X74116842Y-110428570D01*
X74116842Y-110428570D02*
X74212080Y-110380951D01*
X74212080Y-110380951D02*
X74259700Y-110333332D01*
X74259700Y-110333332D02*
X74307319Y-110238094D01*
X74307319Y-110238094D02*
X74307319Y-110047618D01*
X74307319Y-110047618D02*
X74259700Y-109952380D01*
X74259700Y-109952380D02*
X74212080Y-109904761D01*
X74212080Y-109904761D02*
X74116842Y-109857142D01*
X74116842Y-109857142D02*
X73926366Y-109857142D01*
X73926366Y-109857142D02*
X73831128Y-109904761D01*
X73831128Y-109904761D02*
X73783509Y-109952380D01*
X73783509Y-109952380D02*
X73735890Y-110047618D01*
X73307319Y-109238094D02*
X73307319Y-109142856D01*
X73307319Y-109142856D02*
X73354938Y-109047618D01*
X73354938Y-109047618D02*
X73402557Y-108999999D01*
X73402557Y-108999999D02*
X73497795Y-108952380D01*
X73497795Y-108952380D02*
X73688271Y-108904761D01*
X73688271Y-108904761D02*
X73926366Y-108904761D01*
X73926366Y-108904761D02*
X74116842Y-108952380D01*
X74116842Y-108952380D02*
X74212080Y-108999999D01*
X74212080Y-108999999D02*
X74259700Y-109047618D01*
X74259700Y-109047618D02*
X74307319Y-109142856D01*
X74307319Y-109142856D02*
X74307319Y-109238094D01*
X74307319Y-109238094D02*
X74259700Y-109333332D01*
X74259700Y-109333332D02*
X74212080Y-109380951D01*
X74212080Y-109380951D02*
X74116842Y-109428570D01*
X74116842Y-109428570D02*
X73926366Y-109476189D01*
X73926366Y-109476189D02*
X73688271Y-109476189D01*
X73688271Y-109476189D02*
X73497795Y-109428570D01*
X73497795Y-109428570D02*
X73402557Y-109380951D01*
X73402557Y-109380951D02*
X73354938Y-109333332D01*
X73354938Y-109333332D02*
X73307319Y-109238094D01*
X66954819Y-117708094D02*
X65954819Y-117708094D01*
X65954819Y-117708094D02*
X65954819Y-117469999D01*
X65954819Y-117469999D02*
X66002438Y-117327142D01*
X66002438Y-117327142D02*
X66097676Y-117231904D01*
X66097676Y-117231904D02*
X66192914Y-117184285D01*
X66192914Y-117184285D02*
X66383390Y-117136666D01*
X66383390Y-117136666D02*
X66526247Y-117136666D01*
X66526247Y-117136666D02*
X66716723Y-117184285D01*
X66716723Y-117184285D02*
X66811961Y-117231904D01*
X66811961Y-117231904D02*
X66907200Y-117327142D01*
X66907200Y-117327142D02*
X66954819Y-117469999D01*
X66954819Y-117469999D02*
X66954819Y-117708094D01*
X66954819Y-116184285D02*
X66954819Y-116755713D01*
X66954819Y-116469999D02*
X65954819Y-116469999D01*
X65954819Y-116469999D02*
X66097676Y-116565237D01*
X66097676Y-116565237D02*
X66192914Y-116660475D01*
X66192914Y-116660475D02*
X66240533Y-116755713D01*
X103599580Y-105142857D02*
X103647200Y-105190476D01*
X103647200Y-105190476D02*
X103694819Y-105333333D01*
X103694819Y-105333333D02*
X103694819Y-105428571D01*
X103694819Y-105428571D02*
X103647200Y-105571428D01*
X103647200Y-105571428D02*
X103551961Y-105666666D01*
X103551961Y-105666666D02*
X103456723Y-105714285D01*
X103456723Y-105714285D02*
X103266247Y-105761904D01*
X103266247Y-105761904D02*
X103123390Y-105761904D01*
X103123390Y-105761904D02*
X102932914Y-105714285D01*
X102932914Y-105714285D02*
X102837676Y-105666666D01*
X102837676Y-105666666D02*
X102742438Y-105571428D01*
X102742438Y-105571428D02*
X102694819Y-105428571D01*
X102694819Y-105428571D02*
X102694819Y-105333333D01*
X102694819Y-105333333D02*
X102742438Y-105190476D01*
X102742438Y-105190476D02*
X102790057Y-105142857D01*
X103694819Y-104190476D02*
X103694819Y-104761904D01*
X103694819Y-104476190D02*
X102694819Y-104476190D01*
X102694819Y-104476190D02*
X102837676Y-104571428D01*
X102837676Y-104571428D02*
X102932914Y-104666666D01*
X102932914Y-104666666D02*
X102980533Y-104761904D01*
X103028152Y-103333333D02*
X103694819Y-103333333D01*
X102647200Y-103571428D02*
X103361485Y-103809523D01*
X103361485Y-103809523D02*
X103361485Y-103190476D01*
X333723333Y-48304819D02*
X333390000Y-47828628D01*
X333151905Y-48304819D02*
X333151905Y-47304819D01*
X333151905Y-47304819D02*
X333532857Y-47304819D01*
X333532857Y-47304819D02*
X333628095Y-47352438D01*
X333628095Y-47352438D02*
X333675714Y-47400057D01*
X333675714Y-47400057D02*
X333723333Y-47495295D01*
X333723333Y-47495295D02*
X333723333Y-47638152D01*
X333723333Y-47638152D02*
X333675714Y-47733390D01*
X333675714Y-47733390D02*
X333628095Y-47781009D01*
X333628095Y-47781009D02*
X333532857Y-47828628D01*
X333532857Y-47828628D02*
X333151905Y-47828628D01*
X334056667Y-47304819D02*
X334723333Y-47304819D01*
X334723333Y-47304819D02*
X334294762Y-48304819D01*
X321733333Y-48689580D02*
X321685714Y-48737200D01*
X321685714Y-48737200D02*
X321542857Y-48784819D01*
X321542857Y-48784819D02*
X321447619Y-48784819D01*
X321447619Y-48784819D02*
X321304762Y-48737200D01*
X321304762Y-48737200D02*
X321209524Y-48641961D01*
X321209524Y-48641961D02*
X321161905Y-48546723D01*
X321161905Y-48546723D02*
X321114286Y-48356247D01*
X321114286Y-48356247D02*
X321114286Y-48213390D01*
X321114286Y-48213390D02*
X321161905Y-48022914D01*
X321161905Y-48022914D02*
X321209524Y-47927676D01*
X321209524Y-47927676D02*
X321304762Y-47832438D01*
X321304762Y-47832438D02*
X321447619Y-47784819D01*
X321447619Y-47784819D02*
X321542857Y-47784819D01*
X321542857Y-47784819D02*
X321685714Y-47832438D01*
X321685714Y-47832438D02*
X321733333Y-47880057D01*
X322590476Y-47784819D02*
X322400000Y-47784819D01*
X322400000Y-47784819D02*
X322304762Y-47832438D01*
X322304762Y-47832438D02*
X322257143Y-47880057D01*
X322257143Y-47880057D02*
X322161905Y-48022914D01*
X322161905Y-48022914D02*
X322114286Y-48213390D01*
X322114286Y-48213390D02*
X322114286Y-48594342D01*
X322114286Y-48594342D02*
X322161905Y-48689580D01*
X322161905Y-48689580D02*
X322209524Y-48737200D01*
X322209524Y-48737200D02*
X322304762Y-48784819D01*
X322304762Y-48784819D02*
X322495238Y-48784819D01*
X322495238Y-48784819D02*
X322590476Y-48737200D01*
X322590476Y-48737200D02*
X322638095Y-48689580D01*
X322638095Y-48689580D02*
X322685714Y-48594342D01*
X322685714Y-48594342D02*
X322685714Y-48356247D01*
X322685714Y-48356247D02*
X322638095Y-48261009D01*
X322638095Y-48261009D02*
X322590476Y-48213390D01*
X322590476Y-48213390D02*
X322495238Y-48165771D01*
X322495238Y-48165771D02*
X322304762Y-48165771D01*
X322304762Y-48165771D02*
X322209524Y-48213390D01*
X322209524Y-48213390D02*
X322161905Y-48261009D01*
X322161905Y-48261009D02*
X322114286Y-48356247D01*
X333247142Y-53324819D02*
X332913809Y-52848628D01*
X332675714Y-53324819D02*
X332675714Y-52324819D01*
X332675714Y-52324819D02*
X333056666Y-52324819D01*
X333056666Y-52324819D02*
X333151904Y-52372438D01*
X333151904Y-52372438D02*
X333199523Y-52420057D01*
X333199523Y-52420057D02*
X333247142Y-52515295D01*
X333247142Y-52515295D02*
X333247142Y-52658152D01*
X333247142Y-52658152D02*
X333199523Y-52753390D01*
X333199523Y-52753390D02*
X333151904Y-52801009D01*
X333151904Y-52801009D02*
X333056666Y-52848628D01*
X333056666Y-52848628D02*
X332675714Y-52848628D01*
X334199523Y-53324819D02*
X333628095Y-53324819D01*
X333913809Y-53324819D02*
X333913809Y-52324819D01*
X333913809Y-52324819D02*
X333818571Y-52467676D01*
X333818571Y-52467676D02*
X333723333Y-52562914D01*
X333723333Y-52562914D02*
X333628095Y-52610533D01*
X335104285Y-52324819D02*
X334628095Y-52324819D01*
X334628095Y-52324819D02*
X334580476Y-52801009D01*
X334580476Y-52801009D02*
X334628095Y-52753390D01*
X334628095Y-52753390D02*
X334723333Y-52705771D01*
X334723333Y-52705771D02*
X334961428Y-52705771D01*
X334961428Y-52705771D02*
X335056666Y-52753390D01*
X335056666Y-52753390D02*
X335104285Y-52801009D01*
X335104285Y-52801009D02*
X335151904Y-52896247D01*
X335151904Y-52896247D02*
X335151904Y-53134342D01*
X335151904Y-53134342D02*
X335104285Y-53229580D01*
X335104285Y-53229580D02*
X335056666Y-53277200D01*
X335056666Y-53277200D02*
X334961428Y-53324819D01*
X334961428Y-53324819D02*
X334723333Y-53324819D01*
X334723333Y-53324819D02*
X334628095Y-53277200D01*
X334628095Y-53277200D02*
X334580476Y-53229580D01*
X370629761Y-108000057D02*
X370534523Y-107952438D01*
X370534523Y-107952438D02*
X370439285Y-107857200D01*
X370439285Y-107857200D02*
X370296428Y-107714342D01*
X370296428Y-107714342D02*
X370201190Y-107666723D01*
X370201190Y-107666723D02*
X370105952Y-107666723D01*
X370153571Y-107904819D02*
X370058333Y-107857200D01*
X370058333Y-107857200D02*
X369963095Y-107761961D01*
X369963095Y-107761961D02*
X369915476Y-107571485D01*
X369915476Y-107571485D02*
X369915476Y-107238152D01*
X369915476Y-107238152D02*
X369963095Y-107047676D01*
X369963095Y-107047676D02*
X370058333Y-106952438D01*
X370058333Y-106952438D02*
X370153571Y-106904819D01*
X370153571Y-106904819D02*
X370344047Y-106904819D01*
X370344047Y-106904819D02*
X370439285Y-106952438D01*
X370439285Y-106952438D02*
X370534523Y-107047676D01*
X370534523Y-107047676D02*
X370582142Y-107238152D01*
X370582142Y-107238152D02*
X370582142Y-107571485D01*
X370582142Y-107571485D02*
X370534523Y-107761961D01*
X370534523Y-107761961D02*
X370439285Y-107857200D01*
X370439285Y-107857200D02*
X370344047Y-107904819D01*
X370344047Y-107904819D02*
X370153571Y-107904819D01*
X371486904Y-106904819D02*
X371010714Y-106904819D01*
X371010714Y-106904819D02*
X370963095Y-107381009D01*
X370963095Y-107381009D02*
X371010714Y-107333390D01*
X371010714Y-107333390D02*
X371105952Y-107285771D01*
X371105952Y-107285771D02*
X371344047Y-107285771D01*
X371344047Y-107285771D02*
X371439285Y-107333390D01*
X371439285Y-107333390D02*
X371486904Y-107381009D01*
X371486904Y-107381009D02*
X371534523Y-107476247D01*
X371534523Y-107476247D02*
X371534523Y-107714342D01*
X371534523Y-107714342D02*
X371486904Y-107809580D01*
X371486904Y-107809580D02*
X371439285Y-107857200D01*
X371439285Y-107857200D02*
X371344047Y-107904819D01*
X371344047Y-107904819D02*
X371105952Y-107904819D01*
X371105952Y-107904819D02*
X371010714Y-107857200D01*
X371010714Y-107857200D02*
X370963095Y-107809580D01*
X74645057Y-119595238D02*
X74597438Y-119690476D01*
X74597438Y-119690476D02*
X74502200Y-119785714D01*
X74502200Y-119785714D02*
X74359342Y-119928571D01*
X74359342Y-119928571D02*
X74311723Y-120023809D01*
X74311723Y-120023809D02*
X74311723Y-120119047D01*
X74549819Y-120071428D02*
X74502200Y-120166666D01*
X74502200Y-120166666D02*
X74406961Y-120261904D01*
X74406961Y-120261904D02*
X74216485Y-120309523D01*
X74216485Y-120309523D02*
X73883152Y-120309523D01*
X73883152Y-120309523D02*
X73692676Y-120261904D01*
X73692676Y-120261904D02*
X73597438Y-120166666D01*
X73597438Y-120166666D02*
X73549819Y-120071428D01*
X73549819Y-120071428D02*
X73549819Y-119880952D01*
X73549819Y-119880952D02*
X73597438Y-119785714D01*
X73597438Y-119785714D02*
X73692676Y-119690476D01*
X73692676Y-119690476D02*
X73883152Y-119642857D01*
X73883152Y-119642857D02*
X74216485Y-119642857D01*
X74216485Y-119642857D02*
X74406961Y-119690476D01*
X74406961Y-119690476D02*
X74502200Y-119785714D01*
X74502200Y-119785714D02*
X74549819Y-119880952D01*
X74549819Y-119880952D02*
X74549819Y-120071428D01*
X74549819Y-119166666D02*
X74549819Y-118976190D01*
X74549819Y-118976190D02*
X74502200Y-118880952D01*
X74502200Y-118880952D02*
X74454580Y-118833333D01*
X74454580Y-118833333D02*
X74311723Y-118738095D01*
X74311723Y-118738095D02*
X74121247Y-118690476D01*
X74121247Y-118690476D02*
X73740295Y-118690476D01*
X73740295Y-118690476D02*
X73645057Y-118738095D01*
X73645057Y-118738095D02*
X73597438Y-118785714D01*
X73597438Y-118785714D02*
X73549819Y-118880952D01*
X73549819Y-118880952D02*
X73549819Y-119071428D01*
X73549819Y-119071428D02*
X73597438Y-119166666D01*
X73597438Y-119166666D02*
X73645057Y-119214285D01*
X73645057Y-119214285D02*
X73740295Y-119261904D01*
X73740295Y-119261904D02*
X73978390Y-119261904D01*
X73978390Y-119261904D02*
X74073628Y-119214285D01*
X74073628Y-119214285D02*
X74121247Y-119166666D01*
X74121247Y-119166666D02*
X74168866Y-119071428D01*
X74168866Y-119071428D02*
X74168866Y-118880952D01*
X74168866Y-118880952D02*
X74121247Y-118785714D01*
X74121247Y-118785714D02*
X74073628Y-118738095D01*
X74073628Y-118738095D02*
X73978390Y-118690476D01*
X350817142Y-47179580D02*
X350769523Y-47227200D01*
X350769523Y-47227200D02*
X350626666Y-47274819D01*
X350626666Y-47274819D02*
X350531428Y-47274819D01*
X350531428Y-47274819D02*
X350388571Y-47227200D01*
X350388571Y-47227200D02*
X350293333Y-47131961D01*
X350293333Y-47131961D02*
X350245714Y-47036723D01*
X350245714Y-47036723D02*
X350198095Y-46846247D01*
X350198095Y-46846247D02*
X350198095Y-46703390D01*
X350198095Y-46703390D02*
X350245714Y-46512914D01*
X350245714Y-46512914D02*
X350293333Y-46417676D01*
X350293333Y-46417676D02*
X350388571Y-46322438D01*
X350388571Y-46322438D02*
X350531428Y-46274819D01*
X350531428Y-46274819D02*
X350626666Y-46274819D01*
X350626666Y-46274819D02*
X350769523Y-46322438D01*
X350769523Y-46322438D02*
X350817142Y-46370057D01*
X351198095Y-46370057D02*
X351245714Y-46322438D01*
X351245714Y-46322438D02*
X351340952Y-46274819D01*
X351340952Y-46274819D02*
X351579047Y-46274819D01*
X351579047Y-46274819D02*
X351674285Y-46322438D01*
X351674285Y-46322438D02*
X351721904Y-46370057D01*
X351721904Y-46370057D02*
X351769523Y-46465295D01*
X351769523Y-46465295D02*
X351769523Y-46560533D01*
X351769523Y-46560533D02*
X351721904Y-46703390D01*
X351721904Y-46703390D02*
X351150476Y-47274819D01*
X351150476Y-47274819D02*
X351769523Y-47274819D01*
X352388571Y-46274819D02*
X352483809Y-46274819D01*
X352483809Y-46274819D02*
X352579047Y-46322438D01*
X352579047Y-46322438D02*
X352626666Y-46370057D01*
X352626666Y-46370057D02*
X352674285Y-46465295D01*
X352674285Y-46465295D02*
X352721904Y-46655771D01*
X352721904Y-46655771D02*
X352721904Y-46893866D01*
X352721904Y-46893866D02*
X352674285Y-47084342D01*
X352674285Y-47084342D02*
X352626666Y-47179580D01*
X352626666Y-47179580D02*
X352579047Y-47227200D01*
X352579047Y-47227200D02*
X352483809Y-47274819D01*
X352483809Y-47274819D02*
X352388571Y-47274819D01*
X352388571Y-47274819D02*
X352293333Y-47227200D01*
X352293333Y-47227200D02*
X352245714Y-47179580D01*
X352245714Y-47179580D02*
X352198095Y-47084342D01*
X352198095Y-47084342D02*
X352150476Y-46893866D01*
X352150476Y-46893866D02*
X352150476Y-46655771D01*
X352150476Y-46655771D02*
X352198095Y-46465295D01*
X352198095Y-46465295D02*
X352245714Y-46370057D01*
X352245714Y-46370057D02*
X352293333Y-46322438D01*
X352293333Y-46322438D02*
X352388571Y-46274819D01*
X347157142Y-45284819D02*
X346823809Y-44808628D01*
X346585714Y-45284819D02*
X346585714Y-44284819D01*
X346585714Y-44284819D02*
X346966666Y-44284819D01*
X346966666Y-44284819D02*
X347061904Y-44332438D01*
X347061904Y-44332438D02*
X347109523Y-44380057D01*
X347109523Y-44380057D02*
X347157142Y-44475295D01*
X347157142Y-44475295D02*
X347157142Y-44618152D01*
X347157142Y-44618152D02*
X347109523Y-44713390D01*
X347109523Y-44713390D02*
X347061904Y-44761009D01*
X347061904Y-44761009D02*
X346966666Y-44808628D01*
X346966666Y-44808628D02*
X346585714Y-44808628D01*
X348109523Y-45284819D02*
X347538095Y-45284819D01*
X347823809Y-45284819D02*
X347823809Y-44284819D01*
X347823809Y-44284819D02*
X347728571Y-44427676D01*
X347728571Y-44427676D02*
X347633333Y-44522914D01*
X347633333Y-44522914D02*
X347538095Y-44570533D01*
X348966666Y-44618152D02*
X348966666Y-45284819D01*
X348728571Y-44237200D02*
X348490476Y-44951485D01*
X348490476Y-44951485D02*
X349109523Y-44951485D01*
X347157142Y-54134819D02*
X346823809Y-53658628D01*
X346585714Y-54134819D02*
X346585714Y-53134819D01*
X346585714Y-53134819D02*
X346966666Y-53134819D01*
X346966666Y-53134819D02*
X347061904Y-53182438D01*
X347061904Y-53182438D02*
X347109523Y-53230057D01*
X347109523Y-53230057D02*
X347157142Y-53325295D01*
X347157142Y-53325295D02*
X347157142Y-53468152D01*
X347157142Y-53468152D02*
X347109523Y-53563390D01*
X347109523Y-53563390D02*
X347061904Y-53611009D01*
X347061904Y-53611009D02*
X346966666Y-53658628D01*
X346966666Y-53658628D02*
X346585714Y-53658628D01*
X348014285Y-53134819D02*
X347823809Y-53134819D01*
X347823809Y-53134819D02*
X347728571Y-53182438D01*
X347728571Y-53182438D02*
X347680952Y-53230057D01*
X347680952Y-53230057D02*
X347585714Y-53372914D01*
X347585714Y-53372914D02*
X347538095Y-53563390D01*
X347538095Y-53563390D02*
X347538095Y-53944342D01*
X347538095Y-53944342D02*
X347585714Y-54039580D01*
X347585714Y-54039580D02*
X347633333Y-54087200D01*
X347633333Y-54087200D02*
X347728571Y-54134819D01*
X347728571Y-54134819D02*
X347919047Y-54134819D01*
X347919047Y-54134819D02*
X348014285Y-54087200D01*
X348014285Y-54087200D02*
X348061904Y-54039580D01*
X348061904Y-54039580D02*
X348109523Y-53944342D01*
X348109523Y-53944342D02*
X348109523Y-53706247D01*
X348109523Y-53706247D02*
X348061904Y-53611009D01*
X348061904Y-53611009D02*
X348014285Y-53563390D01*
X348014285Y-53563390D02*
X347919047Y-53515771D01*
X347919047Y-53515771D02*
X347728571Y-53515771D01*
X347728571Y-53515771D02*
X347633333Y-53563390D01*
X347633333Y-53563390D02*
X347585714Y-53611009D01*
X347585714Y-53611009D02*
X347538095Y-53706247D01*
X348442857Y-53134819D02*
X349061904Y-53134819D01*
X349061904Y-53134819D02*
X348728571Y-53515771D01*
X348728571Y-53515771D02*
X348871428Y-53515771D01*
X348871428Y-53515771D02*
X348966666Y-53563390D01*
X348966666Y-53563390D02*
X349014285Y-53611009D01*
X349014285Y-53611009D02*
X349061904Y-53706247D01*
X349061904Y-53706247D02*
X349061904Y-53944342D01*
X349061904Y-53944342D02*
X349014285Y-54039580D01*
X349014285Y-54039580D02*
X348966666Y-54087200D01*
X348966666Y-54087200D02*
X348871428Y-54134819D01*
X348871428Y-54134819D02*
X348585714Y-54134819D01*
X348585714Y-54134819D02*
X348490476Y-54087200D01*
X348490476Y-54087200D02*
X348442857Y-54039580D01*
X347428095Y-39086819D02*
X347999523Y-39086819D01*
X347713809Y-40086819D02*
X347713809Y-39086819D01*
X348332857Y-40086819D02*
X348332857Y-39086819D01*
X348332857Y-39086819D02*
X348713809Y-39086819D01*
X348713809Y-39086819D02*
X348809047Y-39134438D01*
X348809047Y-39134438D02*
X348856666Y-39182057D01*
X348856666Y-39182057D02*
X348904285Y-39277295D01*
X348904285Y-39277295D02*
X348904285Y-39420152D01*
X348904285Y-39420152D02*
X348856666Y-39515390D01*
X348856666Y-39515390D02*
X348809047Y-39563009D01*
X348809047Y-39563009D02*
X348713809Y-39610628D01*
X348713809Y-39610628D02*
X348332857Y-39610628D01*
X349761428Y-39420152D02*
X349761428Y-40086819D01*
X349523333Y-39039200D02*
X349285238Y-39753485D01*
X349285238Y-39753485D02*
X349904285Y-39753485D01*
X346192142Y-113479819D02*
X345858809Y-113003628D01*
X345620714Y-113479819D02*
X345620714Y-112479819D01*
X345620714Y-112479819D02*
X346001666Y-112479819D01*
X346001666Y-112479819D02*
X346096904Y-112527438D01*
X346096904Y-112527438D02*
X346144523Y-112575057D01*
X346144523Y-112575057D02*
X346192142Y-112670295D01*
X346192142Y-112670295D02*
X346192142Y-112813152D01*
X346192142Y-112813152D02*
X346144523Y-112908390D01*
X346144523Y-112908390D02*
X346096904Y-112956009D01*
X346096904Y-112956009D02*
X346001666Y-113003628D01*
X346001666Y-113003628D02*
X345620714Y-113003628D01*
X347049285Y-112479819D02*
X346858809Y-112479819D01*
X346858809Y-112479819D02*
X346763571Y-112527438D01*
X346763571Y-112527438D02*
X346715952Y-112575057D01*
X346715952Y-112575057D02*
X346620714Y-112717914D01*
X346620714Y-112717914D02*
X346573095Y-112908390D01*
X346573095Y-112908390D02*
X346573095Y-113289342D01*
X346573095Y-113289342D02*
X346620714Y-113384580D01*
X346620714Y-113384580D02*
X346668333Y-113432200D01*
X346668333Y-113432200D02*
X346763571Y-113479819D01*
X346763571Y-113479819D02*
X346954047Y-113479819D01*
X346954047Y-113479819D02*
X347049285Y-113432200D01*
X347049285Y-113432200D02*
X347096904Y-113384580D01*
X347096904Y-113384580D02*
X347144523Y-113289342D01*
X347144523Y-113289342D02*
X347144523Y-113051247D01*
X347144523Y-113051247D02*
X347096904Y-112956009D01*
X347096904Y-112956009D02*
X347049285Y-112908390D01*
X347049285Y-112908390D02*
X346954047Y-112860771D01*
X346954047Y-112860771D02*
X346763571Y-112860771D01*
X346763571Y-112860771D02*
X346668333Y-112908390D01*
X346668333Y-112908390D02*
X346620714Y-112956009D01*
X346620714Y-112956009D02*
X346573095Y-113051247D01*
X348096904Y-113479819D02*
X347525476Y-113479819D01*
X347811190Y-113479819D02*
X347811190Y-112479819D01*
X347811190Y-112479819D02*
X347715952Y-112622676D01*
X347715952Y-112622676D02*
X347620714Y-112717914D01*
X347620714Y-112717914D02*
X347525476Y-112765533D01*
X310018571Y-46360057D02*
X309923333Y-46312438D01*
X309923333Y-46312438D02*
X309828095Y-46217200D01*
X309828095Y-46217200D02*
X309685238Y-46074342D01*
X309685238Y-46074342D02*
X309590000Y-46026723D01*
X309590000Y-46026723D02*
X309494762Y-46026723D01*
X309542381Y-46264819D02*
X309447143Y-46217200D01*
X309447143Y-46217200D02*
X309351905Y-46121961D01*
X309351905Y-46121961D02*
X309304286Y-45931485D01*
X309304286Y-45931485D02*
X309304286Y-45598152D01*
X309304286Y-45598152D02*
X309351905Y-45407676D01*
X309351905Y-45407676D02*
X309447143Y-45312438D01*
X309447143Y-45312438D02*
X309542381Y-45264819D01*
X309542381Y-45264819D02*
X309732857Y-45264819D01*
X309732857Y-45264819D02*
X309828095Y-45312438D01*
X309828095Y-45312438D02*
X309923333Y-45407676D01*
X309923333Y-45407676D02*
X309970952Y-45598152D01*
X309970952Y-45598152D02*
X309970952Y-45931485D01*
X309970952Y-45931485D02*
X309923333Y-46121961D01*
X309923333Y-46121961D02*
X309828095Y-46217200D01*
X309828095Y-46217200D02*
X309732857Y-46264819D01*
X309732857Y-46264819D02*
X309542381Y-46264819D01*
X310923333Y-46264819D02*
X310351905Y-46264819D01*
X310637619Y-46264819D02*
X310637619Y-45264819D01*
X310637619Y-45264819D02*
X310542381Y-45407676D01*
X310542381Y-45407676D02*
X310447143Y-45502914D01*
X310447143Y-45502914D02*
X310351905Y-45550533D01*
X311542381Y-45264819D02*
X311637619Y-45264819D01*
X311637619Y-45264819D02*
X311732857Y-45312438D01*
X311732857Y-45312438D02*
X311780476Y-45360057D01*
X311780476Y-45360057D02*
X311828095Y-45455295D01*
X311828095Y-45455295D02*
X311875714Y-45645771D01*
X311875714Y-45645771D02*
X311875714Y-45883866D01*
X311875714Y-45883866D02*
X311828095Y-46074342D01*
X311828095Y-46074342D02*
X311780476Y-46169580D01*
X311780476Y-46169580D02*
X311732857Y-46217200D01*
X311732857Y-46217200D02*
X311637619Y-46264819D01*
X311637619Y-46264819D02*
X311542381Y-46264819D01*
X311542381Y-46264819D02*
X311447143Y-46217200D01*
X311447143Y-46217200D02*
X311399524Y-46169580D01*
X311399524Y-46169580D02*
X311351905Y-46074342D01*
X311351905Y-46074342D02*
X311304286Y-45883866D01*
X311304286Y-45883866D02*
X311304286Y-45645771D01*
X311304286Y-45645771D02*
X311351905Y-45455295D01*
X311351905Y-45455295D02*
X311399524Y-45360057D01*
X311399524Y-45360057D02*
X311447143Y-45312438D01*
X311447143Y-45312438D02*
X311542381Y-45264819D01*
X353727142Y-47179580D02*
X353679523Y-47227200D01*
X353679523Y-47227200D02*
X353536666Y-47274819D01*
X353536666Y-47274819D02*
X353441428Y-47274819D01*
X353441428Y-47274819D02*
X353298571Y-47227200D01*
X353298571Y-47227200D02*
X353203333Y-47131961D01*
X353203333Y-47131961D02*
X353155714Y-47036723D01*
X353155714Y-47036723D02*
X353108095Y-46846247D01*
X353108095Y-46846247D02*
X353108095Y-46703390D01*
X353108095Y-46703390D02*
X353155714Y-46512914D01*
X353155714Y-46512914D02*
X353203333Y-46417676D01*
X353203333Y-46417676D02*
X353298571Y-46322438D01*
X353298571Y-46322438D02*
X353441428Y-46274819D01*
X353441428Y-46274819D02*
X353536666Y-46274819D01*
X353536666Y-46274819D02*
X353679523Y-46322438D01*
X353679523Y-46322438D02*
X353727142Y-46370057D01*
X354298571Y-46703390D02*
X354203333Y-46655771D01*
X354203333Y-46655771D02*
X354155714Y-46608152D01*
X354155714Y-46608152D02*
X354108095Y-46512914D01*
X354108095Y-46512914D02*
X354108095Y-46465295D01*
X354108095Y-46465295D02*
X354155714Y-46370057D01*
X354155714Y-46370057D02*
X354203333Y-46322438D01*
X354203333Y-46322438D02*
X354298571Y-46274819D01*
X354298571Y-46274819D02*
X354489047Y-46274819D01*
X354489047Y-46274819D02*
X354584285Y-46322438D01*
X354584285Y-46322438D02*
X354631904Y-46370057D01*
X354631904Y-46370057D02*
X354679523Y-46465295D01*
X354679523Y-46465295D02*
X354679523Y-46512914D01*
X354679523Y-46512914D02*
X354631904Y-46608152D01*
X354631904Y-46608152D02*
X354584285Y-46655771D01*
X354584285Y-46655771D02*
X354489047Y-46703390D01*
X354489047Y-46703390D02*
X354298571Y-46703390D01*
X354298571Y-46703390D02*
X354203333Y-46751009D01*
X354203333Y-46751009D02*
X354155714Y-46798628D01*
X354155714Y-46798628D02*
X354108095Y-46893866D01*
X354108095Y-46893866D02*
X354108095Y-47084342D01*
X354108095Y-47084342D02*
X354155714Y-47179580D01*
X354155714Y-47179580D02*
X354203333Y-47227200D01*
X354203333Y-47227200D02*
X354298571Y-47274819D01*
X354298571Y-47274819D02*
X354489047Y-47274819D01*
X354489047Y-47274819D02*
X354584285Y-47227200D01*
X354584285Y-47227200D02*
X354631904Y-47179580D01*
X354631904Y-47179580D02*
X354679523Y-47084342D01*
X354679523Y-47084342D02*
X354679523Y-46893866D01*
X354679523Y-46893866D02*
X354631904Y-46798628D01*
X354631904Y-46798628D02*
X354584285Y-46751009D01*
X354584285Y-46751009D02*
X354489047Y-46703390D01*
X355584285Y-46274819D02*
X355108095Y-46274819D01*
X355108095Y-46274819D02*
X355060476Y-46751009D01*
X355060476Y-46751009D02*
X355108095Y-46703390D01*
X355108095Y-46703390D02*
X355203333Y-46655771D01*
X355203333Y-46655771D02*
X355441428Y-46655771D01*
X355441428Y-46655771D02*
X355536666Y-46703390D01*
X355536666Y-46703390D02*
X355584285Y-46751009D01*
X355584285Y-46751009D02*
X355631904Y-46846247D01*
X355631904Y-46846247D02*
X355631904Y-47084342D01*
X355631904Y-47084342D02*
X355584285Y-47179580D01*
X355584285Y-47179580D02*
X355536666Y-47227200D01*
X355536666Y-47227200D02*
X355441428Y-47274819D01*
X355441428Y-47274819D02*
X355203333Y-47274819D01*
X355203333Y-47274819D02*
X355108095Y-47227200D01*
X355108095Y-47227200D02*
X355060476Y-47179580D01*
X354203333Y-51254819D02*
X353870000Y-50778628D01*
X353631905Y-51254819D02*
X353631905Y-50254819D01*
X353631905Y-50254819D02*
X354012857Y-50254819D01*
X354012857Y-50254819D02*
X354108095Y-50302438D01*
X354108095Y-50302438D02*
X354155714Y-50350057D01*
X354155714Y-50350057D02*
X354203333Y-50445295D01*
X354203333Y-50445295D02*
X354203333Y-50588152D01*
X354203333Y-50588152D02*
X354155714Y-50683390D01*
X354155714Y-50683390D02*
X354108095Y-50731009D01*
X354108095Y-50731009D02*
X354012857Y-50778628D01*
X354012857Y-50778628D02*
X353631905Y-50778628D01*
X354774762Y-50683390D02*
X354679524Y-50635771D01*
X354679524Y-50635771D02*
X354631905Y-50588152D01*
X354631905Y-50588152D02*
X354584286Y-50492914D01*
X354584286Y-50492914D02*
X354584286Y-50445295D01*
X354584286Y-50445295D02*
X354631905Y-50350057D01*
X354631905Y-50350057D02*
X354679524Y-50302438D01*
X354679524Y-50302438D02*
X354774762Y-50254819D01*
X354774762Y-50254819D02*
X354965238Y-50254819D01*
X354965238Y-50254819D02*
X355060476Y-50302438D01*
X355060476Y-50302438D02*
X355108095Y-50350057D01*
X355108095Y-50350057D02*
X355155714Y-50445295D01*
X355155714Y-50445295D02*
X355155714Y-50492914D01*
X355155714Y-50492914D02*
X355108095Y-50588152D01*
X355108095Y-50588152D02*
X355060476Y-50635771D01*
X355060476Y-50635771D02*
X354965238Y-50683390D01*
X354965238Y-50683390D02*
X354774762Y-50683390D01*
X354774762Y-50683390D02*
X354679524Y-50731009D01*
X354679524Y-50731009D02*
X354631905Y-50778628D01*
X354631905Y-50778628D02*
X354584286Y-50873866D01*
X354584286Y-50873866D02*
X354584286Y-51064342D01*
X354584286Y-51064342D02*
X354631905Y-51159580D01*
X354631905Y-51159580D02*
X354679524Y-51207200D01*
X354679524Y-51207200D02*
X354774762Y-51254819D01*
X354774762Y-51254819D02*
X354965238Y-51254819D01*
X354965238Y-51254819D02*
X355060476Y-51207200D01*
X355060476Y-51207200D02*
X355108095Y-51159580D01*
X355108095Y-51159580D02*
X355155714Y-51064342D01*
X355155714Y-51064342D02*
X355155714Y-50873866D01*
X355155714Y-50873866D02*
X355108095Y-50778628D01*
X355108095Y-50778628D02*
X355060476Y-50731009D01*
X355060476Y-50731009D02*
X354965238Y-50683390D01*
X333247142Y-55834819D02*
X332913809Y-55358628D01*
X332675714Y-55834819D02*
X332675714Y-54834819D01*
X332675714Y-54834819D02*
X333056666Y-54834819D01*
X333056666Y-54834819D02*
X333151904Y-54882438D01*
X333151904Y-54882438D02*
X333199523Y-54930057D01*
X333199523Y-54930057D02*
X333247142Y-55025295D01*
X333247142Y-55025295D02*
X333247142Y-55168152D01*
X333247142Y-55168152D02*
X333199523Y-55263390D01*
X333199523Y-55263390D02*
X333151904Y-55311009D01*
X333151904Y-55311009D02*
X333056666Y-55358628D01*
X333056666Y-55358628D02*
X332675714Y-55358628D01*
X334104285Y-54834819D02*
X333913809Y-54834819D01*
X333913809Y-54834819D02*
X333818571Y-54882438D01*
X333818571Y-54882438D02*
X333770952Y-54930057D01*
X333770952Y-54930057D02*
X333675714Y-55072914D01*
X333675714Y-55072914D02*
X333628095Y-55263390D01*
X333628095Y-55263390D02*
X333628095Y-55644342D01*
X333628095Y-55644342D02*
X333675714Y-55739580D01*
X333675714Y-55739580D02*
X333723333Y-55787200D01*
X333723333Y-55787200D02*
X333818571Y-55834819D01*
X333818571Y-55834819D02*
X334009047Y-55834819D01*
X334009047Y-55834819D02*
X334104285Y-55787200D01*
X334104285Y-55787200D02*
X334151904Y-55739580D01*
X334151904Y-55739580D02*
X334199523Y-55644342D01*
X334199523Y-55644342D02*
X334199523Y-55406247D01*
X334199523Y-55406247D02*
X334151904Y-55311009D01*
X334151904Y-55311009D02*
X334104285Y-55263390D01*
X334104285Y-55263390D02*
X334009047Y-55215771D01*
X334009047Y-55215771D02*
X333818571Y-55215771D01*
X333818571Y-55215771D02*
X333723333Y-55263390D01*
X333723333Y-55263390D02*
X333675714Y-55311009D01*
X333675714Y-55311009D02*
X333628095Y-55406247D01*
X335056666Y-55168152D02*
X335056666Y-55834819D01*
X334818571Y-54787200D02*
X334580476Y-55501485D01*
X334580476Y-55501485D02*
X335199523Y-55501485D01*
X339541905Y-103704819D02*
X339541905Y-104514342D01*
X339541905Y-104514342D02*
X339589524Y-104609580D01*
X339589524Y-104609580D02*
X339637143Y-104657200D01*
X339637143Y-104657200D02*
X339732381Y-104704819D01*
X339732381Y-104704819D02*
X339922857Y-104704819D01*
X339922857Y-104704819D02*
X340018095Y-104657200D01*
X340018095Y-104657200D02*
X340065714Y-104609580D01*
X340065714Y-104609580D02*
X340113333Y-104514342D01*
X340113333Y-104514342D02*
X340113333Y-103704819D01*
X341113333Y-104704819D02*
X340541905Y-104704819D01*
X340827619Y-104704819D02*
X340827619Y-103704819D01*
X340827619Y-103704819D02*
X340732381Y-103847676D01*
X340732381Y-103847676D02*
X340637143Y-103942914D01*
X340637143Y-103942914D02*
X340541905Y-103990533D01*
X342065714Y-104704819D02*
X341494286Y-104704819D01*
X341780000Y-104704819D02*
X341780000Y-103704819D01*
X341780000Y-103704819D02*
X341684762Y-103847676D01*
X341684762Y-103847676D02*
X341589524Y-103942914D01*
X341589524Y-103942914D02*
X341494286Y-103990533D01*
X342747142Y-54134819D02*
X342413809Y-53658628D01*
X342175714Y-54134819D02*
X342175714Y-53134819D01*
X342175714Y-53134819D02*
X342556666Y-53134819D01*
X342556666Y-53134819D02*
X342651904Y-53182438D01*
X342651904Y-53182438D02*
X342699523Y-53230057D01*
X342699523Y-53230057D02*
X342747142Y-53325295D01*
X342747142Y-53325295D02*
X342747142Y-53468152D01*
X342747142Y-53468152D02*
X342699523Y-53563390D01*
X342699523Y-53563390D02*
X342651904Y-53611009D01*
X342651904Y-53611009D02*
X342556666Y-53658628D01*
X342556666Y-53658628D02*
X342175714Y-53658628D01*
X343699523Y-54134819D02*
X343128095Y-54134819D01*
X343413809Y-54134819D02*
X343413809Y-53134819D01*
X343413809Y-53134819D02*
X343318571Y-53277676D01*
X343318571Y-53277676D02*
X343223333Y-53372914D01*
X343223333Y-53372914D02*
X343128095Y-53420533D01*
X344651904Y-54134819D02*
X344080476Y-54134819D01*
X344366190Y-54134819D02*
X344366190Y-53134819D01*
X344366190Y-53134819D02*
X344270952Y-53277676D01*
X344270952Y-53277676D02*
X344175714Y-53372914D01*
X344175714Y-53372914D02*
X344080476Y-53420533D01*
D12*
%TO.C,TP14*%
X335475000Y-113275000D02*
X337875000Y-113275000D01*
X335475000Y-115675000D02*
X335475000Y-113275000D01*
X337875000Y-113275000D02*
X337875000Y-115675000D01*
X337875000Y-115675000D02*
X335475000Y-115675000D01*
%TO.C,TP6*%
X351540000Y-32330000D02*
X353940000Y-32330000D01*
X351540000Y-34730000D02*
X351540000Y-32330000D01*
X353940000Y-32330000D02*
X353940000Y-34730000D01*
X353940000Y-34730000D02*
X351540000Y-34730000D01*
%TO.C,C79*%
X78765000Y-111153752D02*
X78765000Y-110631248D01*
X80235000Y-111153752D02*
X80235000Y-110631248D01*
%TO.C,C32*%
X94140000Y-109872164D02*
X94140000Y-110087836D01*
X94860000Y-109872164D02*
X94860000Y-110087836D01*
%TO.C,TP15*%
X355590000Y-36380000D02*
X357990000Y-36380000D01*
X355590000Y-38780000D02*
X355590000Y-36380000D01*
X357990000Y-36380000D02*
X357990000Y-38780000D01*
X357990000Y-38780000D02*
X355590000Y-38780000D01*
%TO.C,TP3*%
X347490000Y-36380000D02*
X349890000Y-36380000D01*
X347490000Y-38780000D02*
X347490000Y-36380000D01*
X349890000Y-36380000D02*
X349890000Y-38780000D01*
X349890000Y-38780000D02*
X347490000Y-38780000D01*
%TO.C,Q1*%
X350495000Y-109455000D02*
X354095000Y-109455000D01*
X350456522Y-109443478D02*
G75*
G02*
X352295000Y-105004999I1838478J1838478D01*
G01*
X352295000Y-105005000D02*
G75*
G02*
X354133478Y-109443478I0J-2600000D01*
G01*
%TO.C,R5*%
X322642936Y-28200000D02*
X325697064Y-28200000D01*
X322642936Y-30920000D02*
X325697064Y-30920000D01*
%TO.C,R3*%
X329642742Y-56287500D02*
X330117258Y-56287500D01*
X329642742Y-57332500D02*
X330117258Y-57332500D01*
%TO.C,C12*%
X92617836Y-107140000D02*
X92402164Y-107140000D01*
X92617836Y-107860000D02*
X92402164Y-107860000D01*
%TO.C,R57*%
X346607936Y-110990000D02*
X347062064Y-110990000D01*
X346607936Y-112460000D02*
X347062064Y-112460000D01*
%TO.C,Q8*%
X69650000Y-112805000D02*
X69910000Y-112805000D01*
X69650000Y-115985000D02*
X69650000Y-112805000D01*
X72890000Y-112805000D02*
X73150000Y-112805000D01*
X72890000Y-116305000D02*
X73150000Y-116305000D01*
X73150000Y-116305000D02*
X73150000Y-112805000D01*
X69910000Y-116785000D02*
X69430000Y-116305000D01*
X69910000Y-116305000D01*
X69910000Y-116785000D01*
G36*
X69910000Y-116785000D02*
G01*
X69430000Y-116305000D01*
X69910000Y-116305000D01*
X69910000Y-116785000D01*
G37*
%TO.C,Q2*%
X69650000Y-99445000D02*
X69910000Y-99445000D01*
X69650000Y-102625000D02*
X69650000Y-99445000D01*
X72890000Y-99445000D02*
X73150000Y-99445000D01*
X72890000Y-102945000D02*
X73150000Y-102945000D01*
X73150000Y-102945000D02*
X73150000Y-99445000D01*
X69910000Y-103425000D02*
X69430000Y-102945000D01*
X69910000Y-102945000D01*
X69910000Y-103425000D01*
G36*
X69910000Y-103425000D02*
G01*
X69430000Y-102945000D01*
X69910000Y-102945000D01*
X69910000Y-103425000D01*
G37*
%TO.C,C5*%
X84990000Y-111415580D02*
X84990000Y-111134420D01*
X86010000Y-111415580D02*
X86010000Y-111134420D01*
%TO.C,C7*%
X329838748Y-28225000D02*
X330361252Y-28225000D01*
X329838748Y-29695000D02*
X330361252Y-29695000D01*
%TO.C,C16*%
X334288748Y-28225000D02*
X334811252Y-28225000D01*
X334288748Y-29695000D02*
X334811252Y-29695000D01*
%TO.C,TP9*%
X351540000Y-40430000D02*
X353940000Y-40430000D01*
X351540000Y-42830000D02*
X351540000Y-40430000D01*
X353940000Y-40430000D02*
X353940000Y-42830000D01*
X353940000Y-42830000D02*
X351540000Y-42830000D01*
%TO.C,C81*%
X82921666Y-111139564D02*
X82921666Y-110685436D01*
X84391666Y-111139564D02*
X84391666Y-110685436D01*
%TO.C,R12*%
X322642936Y-32410000D02*
X325697064Y-32410000D01*
X322642936Y-35130000D02*
X325697064Y-35130000D01*
%TO.C,R56*%
X346607936Y-108040000D02*
X347062064Y-108040000D01*
X346607936Y-109510000D02*
X347062064Y-109510000D01*
%TO.C,C22*%
X351306359Y-51590000D02*
X351613641Y-51590000D01*
X351306359Y-52350000D02*
X351613641Y-52350000D01*
%TO.C,TP1*%
X347490000Y-28280000D02*
X349890000Y-28280000D01*
X347490000Y-30680000D02*
X347490000Y-28280000D01*
X349890000Y-28280000D02*
X349890000Y-30680000D01*
X349890000Y-30680000D02*
X347490000Y-30680000D01*
D13*
%TO.C,U1*%
X131118700Y-132862200D02*
X149381300Y-132862200D01*
X131118700Y-133712760D02*
X131118700Y-132862200D01*
X131118700Y-158617800D02*
X131118700Y-151777240D01*
X149381300Y-132862200D02*
X149381300Y-133712760D01*
X149381300Y-151777240D02*
X149381300Y-158617800D01*
X149381300Y-158617800D02*
X131118700Y-158617800D01*
X151362200Y-151000000D02*
G75*
G02*
X151108200Y-151000000I-127000J0D01*
G01*
X151108200Y-151000000D02*
G75*
G02*
X151362200Y-151000000I127000J0D01*
G01*
D12*
%TO.C,TP8*%
X363375000Y-105175000D02*
X365775000Y-105175000D01*
X363375000Y-107575000D02*
X363375000Y-105175000D01*
X365775000Y-105175000D02*
X365775000Y-107575000D01*
X365775000Y-107575000D02*
X363375000Y-107575000D01*
%TO.C,R10*%
X354216359Y-53580000D02*
X354523641Y-53580000D01*
X354216359Y-54340000D02*
X354523641Y-54340000D01*
%TO.C,R60*%
X357126359Y-49600000D02*
X357433641Y-49600000D01*
X357126359Y-50360000D02*
X357433641Y-50360000D01*
%TO.C,C13*%
X94765000Y-105788748D02*
X94765000Y-106311252D01*
X96235000Y-105788748D02*
X96235000Y-106311252D01*
%TO.C,R13*%
X357126359Y-45620000D02*
X357433641Y-45620000D01*
X357126359Y-46380000D02*
X357433641Y-46380000D01*
%TO.C,C87*%
X354216359Y-49600000D02*
X354523641Y-49600000D01*
X354216359Y-50360000D02*
X354523641Y-50360000D01*
%TO.C,D8*%
X369160000Y-105025000D02*
X369160000Y-107025000D01*
X369160000Y-105025000D02*
X373170000Y-105025000D01*
X369160000Y-107025000D02*
X373170000Y-107025000D01*
%TO.C,C84*%
X343162936Y-51645000D02*
X343617064Y-51645000D01*
X343162936Y-53115000D02*
X343617064Y-53115000D01*
%TO.C,TP12*%
X335475000Y-109225000D02*
X337875000Y-109225000D01*
X335475000Y-111625000D02*
X335475000Y-109225000D01*
X337875000Y-109225000D02*
X337875000Y-111625000D01*
X337875000Y-111625000D02*
X335475000Y-111625000D01*
%TO.C,R16*%
X322642936Y-36620000D02*
X325697064Y-36620000D01*
X322642936Y-39340000D02*
X325697064Y-39340000D01*
%TO.C,TP7*%
X351540000Y-36380000D02*
X353940000Y-36380000D01*
X351540000Y-38780000D02*
X351540000Y-36380000D01*
X353940000Y-36380000D02*
X353940000Y-38780000D01*
X353940000Y-38780000D02*
X351540000Y-38780000D01*
%TO.C,C26*%
X96900000Y-110134420D02*
X96900000Y-110415580D01*
X97920000Y-110134420D02*
X97920000Y-110415580D01*
%TO.C,R62*%
X347572936Y-51645000D02*
X348027064Y-51645000D01*
X347572936Y-53115000D02*
X348027064Y-53115000D01*
%TO.C,C34*%
X321792164Y-57010000D02*
X322007836Y-57010000D01*
X321792164Y-57730000D02*
X322007836Y-57730000D01*
%TO.C,TP2*%
X347490000Y-32330000D02*
X349890000Y-32330000D01*
X347490000Y-34730000D02*
X347490000Y-32330000D01*
X349890000Y-32330000D02*
X349890000Y-34730000D01*
X349890000Y-34730000D02*
X347490000Y-34730000D01*
%TO.C,C8*%
X329838748Y-31235000D02*
X330361252Y-31235000D01*
X329838748Y-32705000D02*
X330361252Y-32705000D01*
%TO.C,R59*%
X322642936Y-45040000D02*
X325697064Y-45040000D01*
X322642936Y-47760000D02*
X325697064Y-47760000D01*
%TO.C,R25*%
X346607936Y-105090000D02*
X347062064Y-105090000D01*
X346607936Y-106560000D02*
X347062064Y-106560000D01*
%TO.C,TP5*%
X351540000Y-28280000D02*
X353940000Y-28280000D01*
X351540000Y-30680000D02*
X351540000Y-28280000D01*
X353940000Y-28280000D02*
X353940000Y-30680000D01*
X353940000Y-30680000D02*
X351540000Y-30680000D01*
%TO.C,C82*%
X86767500Y-109836359D02*
X86767500Y-110143641D01*
X87527500Y-109836359D02*
X87527500Y-110143641D01*
%TO.C,TP11*%
X335475000Y-105175000D02*
X337875000Y-105175000D01*
X335475000Y-107575000D02*
X335475000Y-105175000D01*
X337875000Y-105175000D02*
X337875000Y-107575000D01*
X337875000Y-107575000D02*
X335475000Y-107575000D01*
%TO.C,R17*%
X322642936Y-40830000D02*
X325697064Y-40830000D01*
X322642936Y-43550000D02*
X325697064Y-43550000D01*
%TO.C,TP13*%
X355590000Y-32330000D02*
X357990000Y-32330000D01*
X355590000Y-34730000D02*
X355590000Y-32330000D01*
X357990000Y-32330000D02*
X357990000Y-34730000D01*
X357990000Y-34730000D02*
X355590000Y-34730000D01*
%TO.C,C19*%
X337335000Y-39820000D02*
X337335000Y-44340000D01*
X337335000Y-44340000D02*
X345395000Y-44340000D01*
X345395000Y-39820000D02*
X337335000Y-39820000D01*
%TO.C,C18*%
X334288748Y-34245000D02*
X334811252Y-34245000D01*
X334288748Y-35715000D02*
X334811252Y-35715000D01*
%TO.C,TH1*%
X337430000Y-57460000D02*
X337430000Y-64700000D01*
X337430000Y-57460000D02*
X348670000Y-57460000D01*
X337430000Y-64700000D02*
X348670000Y-64700000D01*
X338550000Y-57460000D02*
X338550000Y-64700000D01*
X347550000Y-57460000D02*
X347550000Y-64700000D01*
X348670000Y-57460000D02*
X348670000Y-64700000D01*
%TO.C,C4*%
X337335000Y-33970000D02*
X337335000Y-38490000D01*
X337335000Y-38490000D02*
X345395000Y-38490000D01*
X345395000Y-33970000D02*
X337335000Y-33970000D01*
%TO.C,C17*%
X334288748Y-31235000D02*
X334811252Y-31235000D01*
X334288748Y-32705000D02*
X334811252Y-32705000D01*
%TO.C,R30*%
X357126359Y-47610000D02*
X357433641Y-47610000D01*
X357126359Y-48370000D02*
X357433641Y-48370000D01*
D14*
%TO.C,L1*%
X87950000Y-98250000D02*
X88950000Y-97250000D01*
X88950000Y-97250000D02*
X95050000Y-97250000D01*
X94050000Y-103750000D02*
X87950000Y-103750000D01*
X95050000Y-102750000D02*
X94050000Y-103750000D01*
X87493570Y-100307000D02*
G75*
G02*
X87254430Y-100307000I-119570J0D01*
G01*
X87254430Y-100307000D02*
G75*
G02*
X87493570Y-100307000I119570J0D01*
G01*
D12*
%TO.C,C33*%
X82365000Y-105802936D02*
X82365000Y-106257064D01*
X83835000Y-105802936D02*
X83835000Y-106257064D01*
%TO.C,C10*%
X338752936Y-45745000D02*
X339207064Y-45745000D01*
X338752936Y-47215000D02*
X339207064Y-47215000D01*
D14*
%TO.C,U7*%
X89000000Y-108300001D02*
X89250002Y-108300001D01*
X89000000Y-108550003D02*
X89000000Y-108300001D01*
X89000000Y-112900001D02*
X89000000Y-112649999D01*
X89000000Y-112900001D02*
X89250002Y-112900001D01*
X93349998Y-108300001D02*
X93600000Y-108300001D01*
X93349998Y-112900001D02*
X93600000Y-112900001D01*
X93600000Y-108550003D02*
X93600000Y-108300001D01*
X93600000Y-112900001D02*
X93600000Y-112649999D01*
D15*
X88675001Y-109000002D02*
G75*
G02*
X88424999Y-109000002I-125001J0D01*
G01*
X88424999Y-109000002D02*
G75*
G02*
X88675001Y-109000002I125001J0D01*
G01*
D12*
%TO.C,R24*%
X347572936Y-48695000D02*
X348027064Y-48695000D01*
X347572936Y-50165000D02*
X348027064Y-50165000D01*
%TO.C,R4*%
X333652742Y-46247500D02*
X334127258Y-46247500D01*
X333652742Y-47292500D02*
X334127258Y-47292500D01*
%TO.C,D12*%
X67200000Y-103050000D02*
X67200000Y-105010000D01*
X67200000Y-105010000D02*
X68400000Y-105010000D01*
X68400000Y-103050000D02*
X68400000Y-105010000D01*
%TO.C,C11*%
X351306359Y-45620000D02*
X351613641Y-45620000D01*
X351306359Y-46380000D02*
X351613641Y-46380000D01*
%TO.C,C9*%
X329838748Y-34245000D02*
X330361252Y-34245000D01*
X329838748Y-35715000D02*
X330361252Y-35715000D01*
%TO.C,C21*%
X351306359Y-49600000D02*
X351613641Y-49600000D01*
X351306359Y-50360000D02*
X351613641Y-50360000D01*
%TO.C,C29*%
X98490000Y-110134420D02*
X98490000Y-110415580D01*
X99510000Y-110134420D02*
X99510000Y-110415580D01*
%TO.C,C78*%
X334288748Y-37255000D02*
X334811252Y-37255000D01*
X334288748Y-38725000D02*
X334811252Y-38725000D01*
%TO.C,R9*%
X333652742Y-51267500D02*
X334127258Y-51267500D01*
X333652742Y-52312500D02*
X334127258Y-52312500D01*
%TO.C,TP10*%
X355590000Y-28280000D02*
X357990000Y-28280000D01*
X355590000Y-30680000D02*
X355590000Y-28280000D01*
X357990000Y-28280000D02*
X357990000Y-30680000D01*
X357990000Y-30680000D02*
X355590000Y-30680000D01*
%TO.C,U10*%
X377405000Y-106090000D02*
X377405000Y-105605000D01*
X377405000Y-110585000D02*
X377405000Y-109860000D01*
X378130000Y-105365000D02*
X377705000Y-105365000D01*
X378130000Y-110585000D02*
X377405000Y-110585000D01*
X381900000Y-105365000D02*
X382625000Y-105365000D01*
X381900000Y-110585000D02*
X382625000Y-110585000D01*
X382625000Y-105365000D02*
X382625000Y-106090000D01*
X382625000Y-110585000D02*
X382625000Y-109860000D01*
X377405000Y-105365000D02*
X377165000Y-105035000D01*
X377645000Y-105035000D01*
X377405000Y-105365000D01*
G36*
X377405000Y-105365000D02*
G01*
X377165000Y-105035000D01*
X377645000Y-105035000D01*
X377405000Y-105365000D01*
G37*
%TO.C,D13*%
X323895000Y-49130000D02*
X323895000Y-50830000D01*
X323895000Y-49130000D02*
X326555000Y-49130000D01*
X323895000Y-50830000D02*
X326555000Y-50830000D01*
%TO.C,C23*%
X95310000Y-110134420D02*
X95310000Y-110415580D01*
X96330000Y-110134420D02*
X96330000Y-110415580D01*
%TO.C,C30*%
X86765000Y-105802936D02*
X86765000Y-106257064D01*
X88235000Y-105802936D02*
X88235000Y-106257064D01*
%TO.C,C83*%
X321792164Y-58980000D02*
X322007836Y-58980000D01*
X321792164Y-59700000D02*
X322007836Y-59700000D01*
%TO.C,Q7*%
X69535000Y-104390000D02*
X69535000Y-107890000D01*
X69795000Y-104390000D02*
X69535000Y-104390000D01*
X69795000Y-107890000D02*
X69535000Y-107890000D01*
X73035000Y-104710000D02*
X73035000Y-107890000D01*
X73035000Y-107890000D02*
X72775000Y-107890000D01*
X73255000Y-104390000D02*
X72775000Y-104390000D01*
X72775000Y-103910000D01*
X73255000Y-104390000D01*
G36*
X73255000Y-104390000D02*
G01*
X72775000Y-104390000D01*
X72775000Y-103910000D01*
X73255000Y-104390000D01*
G37*
%TO.C,C31*%
X84565000Y-105802936D02*
X84565000Y-106257064D01*
X86035000Y-105802936D02*
X86035000Y-106257064D01*
%TO.C,C27*%
X321792164Y-53070000D02*
X322007836Y-53070000D01*
X321792164Y-53790000D02*
X322007836Y-53790000D01*
%TO.C,C15*%
X99265000Y-105788748D02*
X99265000Y-106311252D01*
X100735000Y-105788748D02*
X100735000Y-106311252D01*
%TO.C,C3*%
X337335000Y-28120000D02*
X337335000Y-32640000D01*
X337335000Y-32640000D02*
X345395000Y-32640000D01*
X345395000Y-28120000D02*
X337335000Y-28120000D01*
%TO.C,C28*%
X89846359Y-107120000D02*
X90153641Y-107120000D01*
X89846359Y-107880000D02*
X90153641Y-107880000D01*
%TO.C,C80*%
X80858333Y-111139564D02*
X80858333Y-110685436D01*
X82328333Y-111139564D02*
X82328333Y-110685436D01*
%TO.C,D1*%
X67200000Y-116270000D02*
X67200000Y-118230000D01*
X67200000Y-118230000D02*
X68400000Y-118230000D01*
X68400000Y-116270000D02*
X68400000Y-118230000D01*
%TO.C,C14*%
X97015000Y-105788748D02*
X97015000Y-106311252D01*
X98485000Y-105788748D02*
X98485000Y-106311252D01*
%TO.C,R7*%
X333652742Y-48757500D02*
X334127258Y-48757500D01*
X333652742Y-49802500D02*
X334127258Y-49802500D01*
%TO.C,C6*%
X321792164Y-49130000D02*
X322007836Y-49130000D01*
X321792164Y-49850000D02*
X322007836Y-49850000D01*
%TO.C,R15*%
X333652742Y-53777500D02*
X334127258Y-53777500D01*
X333652742Y-54822500D02*
X334127258Y-54822500D01*
%TO.C,Q5*%
X370015000Y-108540000D02*
X371425000Y-108540000D01*
X370025000Y-110860000D02*
X371425000Y-110860000D01*
X369645000Y-108590000D02*
X369405000Y-108260000D01*
X369885000Y-108260000D01*
X369645000Y-108590000D01*
G36*
X369645000Y-108590000D02*
G01*
X369405000Y-108260000D01*
X369885000Y-108260000D01*
X369645000Y-108590000D01*
G37*
%TO.C,Q9*%
X69535000Y-117750000D02*
X69535000Y-121250000D01*
X69795000Y-117750000D02*
X69535000Y-117750000D01*
X69795000Y-121250000D02*
X69535000Y-121250000D01*
X73035000Y-118070000D02*
X73035000Y-121250000D01*
X73035000Y-121250000D02*
X72775000Y-121250000D01*
X73255000Y-117750000D02*
X72775000Y-117750000D01*
X72775000Y-117270000D01*
X73255000Y-117750000D01*
G36*
X73255000Y-117750000D02*
G01*
X72775000Y-117750000D01*
X72775000Y-117270000D01*
X73255000Y-117750000D01*
G37*
%TO.C,C20*%
X351306359Y-47610000D02*
X351613641Y-47610000D01*
X351306359Y-48370000D02*
X351613641Y-48370000D01*
%TO.C,R14*%
X347572936Y-45745000D02*
X348027064Y-45745000D01*
X347572936Y-47215000D02*
X348027064Y-47215000D01*
%TO.C,R63*%
X347572936Y-54595000D02*
X348027064Y-54595000D01*
X347572936Y-56065000D02*
X348027064Y-56065000D01*
%TO.C,TP4*%
X347490000Y-40430000D02*
X349890000Y-40430000D01*
X347490000Y-42830000D02*
X347490000Y-40430000D01*
X349890000Y-40430000D02*
X349890000Y-42830000D01*
X349890000Y-42830000D02*
X347490000Y-42830000D01*
%TO.C,R61*%
X346607936Y-113940000D02*
X347062064Y-113940000D01*
X346607936Y-115410000D02*
X347062064Y-115410000D01*
%TO.C,Q10*%
X308840000Y-50110000D02*
X308840000Y-50370000D01*
X308840000Y-50370000D02*
X312340000Y-50370000D01*
X309160000Y-46870000D02*
X312340000Y-46870000D01*
X312340000Y-46870000D02*
X312340000Y-47130000D01*
X312340000Y-50110000D02*
X312340000Y-50370000D01*
X308840000Y-47130000D02*
X308360000Y-47130000D01*
X308840000Y-46650000D01*
X308840000Y-47130000D01*
G36*
X308840000Y-47130000D02*
G01*
X308360000Y-47130000D01*
X308840000Y-46650000D01*
X308840000Y-47130000D01*
G37*
%TO.C,C85*%
X354216359Y-47610000D02*
X354523641Y-47610000D01*
X354216359Y-48370000D02*
X354523641Y-48370000D01*
%TO.C,R8*%
X354216359Y-51590000D02*
X354523641Y-51590000D01*
X354216359Y-52350000D02*
X354523641Y-52350000D01*
%TO.C,R64*%
X333652742Y-56287500D02*
X334127258Y-56287500D01*
X333652742Y-57332500D02*
X334127258Y-57332500D01*
%TO.C,U11*%
X339780000Y-105090000D02*
X341780000Y-105090000D01*
X339780000Y-107310000D02*
X341780000Y-107310000D01*
X339540000Y-105190000D02*
X339260000Y-105190000D01*
X339540000Y-104910000D01*
X339540000Y-105190000D01*
G36*
X339540000Y-105190000D02*
G01*
X339260000Y-105190000D01*
X339540000Y-104910000D01*
X339540000Y-105190000D01*
G37*
%TO.C,R11*%
X343162936Y-54595000D02*
X343617064Y-54595000D01*
X343162936Y-56065000D02*
X343617064Y-56065000D01*
%TD*%
M02*
