%TF.GenerationSoftware,KiCad,Pcbnew,8.0.6*%
%TF.CreationDate,2025-01-24T16:12:18-05:00*%
%TF.ProjectId,SCAN,5343414e-2e6b-4696-9361-645f70636258,v1.0*%
%TF.SameCoordinates,Original*%
%TF.FileFunction,Soldermask,Top*%
%TF.FilePolarity,Negative*%
%FSLAX46Y46*%
G04 Gerber Fmt 4.6, Leading zero omitted, Abs format (unit mm)*
G04 Created by KiCad (PCBNEW 8.0.6) date 2025-01-24 16:12:18*
%MOMM*%
%LPD*%
G01*
G04 APERTURE LIST*
G04 Aperture macros list*
%AMRoundRect*
0 Rectangle with rounded corners*
0 $1 Rounding radius*
0 $2 $3 $4 $5 $6 $7 $8 $9 X,Y pos of 4 corners*
0 Add a 4 corners polygon primitive as box body*
4,1,4,$2,$3,$4,$5,$6,$7,$8,$9,$2,$3,0*
0 Add four circle primitives for the rounded corners*
1,1,$1+$1,$2,$3*
1,1,$1+$1,$4,$5*
1,1,$1+$1,$6,$7*
1,1,$1+$1,$8,$9*
0 Add four rect primitives between the rounded corners*
20,1,$1+$1,$2,$3,$4,$5,0*
20,1,$1+$1,$4,$5,$6,$7,0*
20,1,$1+$1,$6,$7,$8,$9,0*
20,1,$1+$1,$8,$9,$2,$3,0*%
%AMFreePoly0*
4,1,17,1.371000,0.720000,0.950000,0.720000,0.950000,0.580000,1.370000,0.580000,1.370000,0.080000,0.950000,0.080000,0.950000,-0.080000,1.370000,-0.080000,1.370000,-0.580000,0.950000,-0.580000,0.950000,-0.720000,1.370000,-0.720000,1.370000,-1.225000,-0.950000,-1.225000,-0.950000,1.225000,1.371000,1.225000,1.371000,0.720000,1.371000,0.720000,$1*%
G04 Aperture macros list end*
%ADD10C,0.000000*%
%ADD11R,2.000000X2.000000*%
%ADD12RoundRect,0.250000X0.475000X-0.250000X0.475000X0.250000X-0.475000X0.250000X-0.475000X-0.250000X0*%
%ADD13RoundRect,0.140000X-0.170000X0.140000X-0.170000X-0.140000X0.170000X-0.140000X0.170000X0.140000X0*%
%ADD14R,1.050000X1.500000*%
%ADD15O,1.050000X1.500000*%
%ADD16RoundRect,0.250000X-0.362500X-1.075000X0.362500X-1.075000X0.362500X1.075000X-0.362500X1.075000X0*%
%ADD17RoundRect,0.200000X-0.200000X-0.275000X0.200000X-0.275000X0.200000X0.275000X-0.200000X0.275000X0*%
%ADD18RoundRect,0.140000X0.140000X0.170000X-0.140000X0.170000X-0.140000X-0.170000X0.140000X-0.170000X0*%
%ADD19RoundRect,0.250000X-0.262500X-0.450000X0.262500X-0.450000X0.262500X0.450000X-0.262500X0.450000X0*%
%ADD20R,0.249999X0.249999*%
%ADD21R,1.074999X0.399999*%
%ADD22R,0.825000X0.249999*%
%ADD23R,0.249999X0.675000*%
%ADD24R,0.249999X0.825000*%
%ADD25R,0.349999X2.975000*%
%ADD26RoundRect,0.125000X0.125000X-0.190000X0.125000X0.190000X-0.125000X0.190000X-0.125000X-0.190000X0*%
%ADD27FreePoly0,90.000000*%
%ADD28RoundRect,0.225000X0.250000X-0.225000X0.250000X0.225000X-0.250000X0.225000X-0.250000X-0.225000X0*%
%ADD29RoundRect,0.250000X-0.250000X-0.475000X0.250000X-0.475000X0.250000X0.475000X-0.250000X0.475000X0*%
%ADD30RoundRect,0.250000X0.450000X-0.262500X0.450000X0.262500X-0.450000X0.262500X-0.450000X-0.262500X0*%
%ADD31RoundRect,0.135000X-0.135000X-0.185000X0.135000X-0.185000X0.135000X0.185000X-0.135000X0.185000X0*%
%ADD32R,1.498600X0.889000*%
%ADD33R,0.812800X0.812800*%
%ADD34RoundRect,0.250000X-0.475000X0.250000X-0.475000X-0.250000X0.475000X-0.250000X0.475000X0.250000X0*%
%ADD35RoundRect,0.225000X-0.225000X-0.375000X0.225000X-0.375000X0.225000X0.375000X-0.225000X0.375000X0*%
%ADD36RoundRect,0.225000X-0.250000X0.225000X-0.250000X-0.225000X0.250000X-0.225000X0.250000X0.225000X0*%
%ADD37RoundRect,0.140000X-0.140000X-0.170000X0.140000X-0.170000X0.140000X0.170000X-0.140000X0.170000X0*%
%ADD38RoundRect,0.135000X-0.185000X0.135000X-0.185000X-0.135000X0.185000X-0.135000X0.185000X0.135000X0*%
%ADD39RoundRect,0.250000X-0.787500X-1.025000X0.787500X-1.025000X0.787500X1.025000X-0.787500X1.025000X0*%
%ADD40C,2.400000*%
%ADD41R,1.850000X3.400000*%
%ADD42RoundRect,0.250000X-0.450000X0.262500X-0.450000X-0.262500X0.450000X-0.262500X0.450000X0.262500X0*%
%ADD43C,0.191587*%
%ADD44R,0.599999X0.200000*%
%ADD45C,0.157503*%
%ADD46R,0.200000X0.599999*%
%ADD47C,0.175011*%
%ADD48R,0.700001X0.200000*%
%ADD49R,0.650001X0.200000*%
%ADD50R,0.680001X0.200000*%
%ADD51R,0.200000X1.000000*%
%ADD52R,0.200000X0.950001*%
%ADD53RoundRect,0.150000X-0.200000X0.150000X-0.200000X-0.150000X0.200000X-0.150000X0.200000X0.150000X0*%
%ADD54RoundRect,0.062500X-0.337500X-0.062500X0.337500X-0.062500X0.337500X0.062500X-0.337500X0.062500X0*%
%ADD55RoundRect,0.062500X-0.062500X-0.337500X0.062500X-0.337500X0.062500X0.337500X-0.062500X0.337500X0*%
%ADD56R,3.350000X3.350000*%
%ADD57RoundRect,0.112500X-0.187500X-0.112500X0.187500X-0.112500X0.187500X0.112500X-0.187500X0.112500X0*%
%ADD58RoundRect,0.125000X-0.125000X0.190000X-0.125000X-0.190000X0.125000X-0.190000X0.125000X0.190000X0*%
%ADD59FreePoly0,270.000000*%
%ADD60RoundRect,0.100000X-0.225000X-0.100000X0.225000X-0.100000X0.225000X0.100000X-0.225000X0.100000X0*%
%ADD61RoundRect,0.125000X-0.190000X-0.125000X0.190000X-0.125000X0.190000X0.125000X-0.190000X0.125000X0*%
%ADD62FreePoly0,0.000000*%
%ADD63RoundRect,0.093750X-0.093750X-0.106250X0.093750X-0.106250X0.093750X0.106250X-0.093750X0.106250X0*%
%ADD64R,1.000000X1.600000*%
G04 APERTURE END LIST*
D10*
%TO.C,U3*%
G36*
X359160711Y-109200974D02*
G01*
X359170241Y-109203865D01*
X359179022Y-109208561D01*
X359186721Y-109214878D01*
X359236721Y-109264878D01*
X359243038Y-109272577D01*
X359247734Y-109281357D01*
X359250625Y-109290888D01*
X359251600Y-109300799D01*
X359251600Y-109750798D01*
X359250625Y-109760709D01*
X359247734Y-109770239D01*
X359243038Y-109779020D01*
X359236721Y-109786718D01*
X359186721Y-109836718D01*
X359179022Y-109843035D01*
X359170241Y-109847732D01*
X359160711Y-109850622D01*
X359150800Y-109851598D01*
X358500799Y-109851598D01*
X358490888Y-109850622D01*
X358481358Y-109847732D01*
X358472577Y-109843035D01*
X358464878Y-109836718D01*
X358414878Y-109786718D01*
X358408561Y-109779020D01*
X358403865Y-109770239D01*
X358400974Y-109760709D01*
X358399999Y-109750798D01*
X358399999Y-109521840D01*
X358379758Y-109501598D01*
X358150800Y-109501598D01*
X358140889Y-109500623D01*
X358131359Y-109497732D01*
X358122578Y-109493036D01*
X358114879Y-109486719D01*
X358064879Y-109436719D01*
X358058562Y-109429020D01*
X358053866Y-109420240D01*
X358050975Y-109410710D01*
X358050000Y-109400798D01*
X358050000Y-109300799D01*
X358050975Y-109290888D01*
X358053866Y-109281357D01*
X358058562Y-109272577D01*
X358064879Y-109264878D01*
X358114879Y-109214878D01*
X358122578Y-109208561D01*
X358131359Y-109203865D01*
X358140889Y-109200974D01*
X358150800Y-109199999D01*
X359150800Y-109199999D01*
X359160711Y-109200974D01*
G37*
G36*
X359210711Y-104850975D02*
G01*
X359220241Y-104853866D01*
X359229022Y-104858562D01*
X359236721Y-104864879D01*
X359286721Y-104914879D01*
X359293038Y-104922578D01*
X359297734Y-104931359D01*
X359300625Y-104940889D01*
X359301600Y-104950800D01*
X359301600Y-105950798D01*
X359300625Y-105960709D01*
X359297734Y-105970239D01*
X359293038Y-105979020D01*
X359286721Y-105986718D01*
X359236721Y-106036718D01*
X359229022Y-106043035D01*
X359220241Y-106047732D01*
X359210711Y-106050622D01*
X359200800Y-106051598D01*
X358150800Y-106051598D01*
X358140889Y-106050622D01*
X358131359Y-106047732D01*
X358122578Y-106043035D01*
X358114879Y-106036718D01*
X358064879Y-105986718D01*
X358058562Y-105979020D01*
X358053866Y-105970239D01*
X358050975Y-105960709D01*
X358050000Y-105950798D01*
X358050000Y-105300799D01*
X358050975Y-105290888D01*
X358053866Y-105281358D01*
X358058562Y-105272577D01*
X358064879Y-105264878D01*
X358114879Y-105214878D01*
X358122578Y-105208561D01*
X358131359Y-105203865D01*
X358140889Y-105200974D01*
X358150800Y-105199999D01*
X358379758Y-105199999D01*
X358399999Y-105179758D01*
X358399999Y-104950800D01*
X358400974Y-104940889D01*
X358403865Y-104931359D01*
X358408561Y-104922578D01*
X358414878Y-104914879D01*
X358464878Y-104864879D01*
X358472577Y-104858562D01*
X358481358Y-104853866D01*
X358490888Y-104850975D01*
X358500799Y-104850000D01*
X359200800Y-104850000D01*
X359210711Y-104850975D01*
G37*
G36*
X361610714Y-104850975D02*
G01*
X361620244Y-104853866D01*
X361629025Y-104858562D01*
X361636724Y-104864879D01*
X361686724Y-104914879D01*
X361693041Y-104922578D01*
X361697737Y-104931359D01*
X361700628Y-104940889D01*
X361701603Y-104950800D01*
X361701603Y-105179758D01*
X361721844Y-105199999D01*
X361950802Y-105199999D01*
X361960713Y-105200974D01*
X361970243Y-105203865D01*
X361979024Y-105208561D01*
X361986723Y-105214878D01*
X362036723Y-105264878D01*
X362043040Y-105272577D01*
X362047736Y-105281358D01*
X362050627Y-105290888D01*
X362051602Y-105300799D01*
X362051602Y-105950798D01*
X362050627Y-105960709D01*
X362047736Y-105970239D01*
X362043040Y-105979020D01*
X362036723Y-105986718D01*
X361986723Y-106036718D01*
X361979024Y-106043035D01*
X361970243Y-106047732D01*
X361960713Y-106050622D01*
X361950802Y-106051598D01*
X360900802Y-106051598D01*
X360890891Y-106050622D01*
X360881361Y-106047732D01*
X360872580Y-106043035D01*
X360864881Y-106036718D01*
X360814881Y-105986718D01*
X360808564Y-105979020D01*
X360803868Y-105970239D01*
X360800977Y-105960709D01*
X360800002Y-105950798D01*
X360800002Y-104950800D01*
X360800977Y-104940889D01*
X360803868Y-104931359D01*
X360808564Y-104922578D01*
X360814881Y-104914879D01*
X360864881Y-104864879D01*
X360872580Y-104858562D01*
X360881361Y-104853866D01*
X360890891Y-104850975D01*
X360900802Y-104850000D01*
X361600803Y-104850000D01*
X361610714Y-104850975D01*
G37*
G36*
X361960713Y-109200974D02*
G01*
X361970243Y-109203865D01*
X361979024Y-109208561D01*
X361986723Y-109214878D01*
X362036723Y-109264878D01*
X362043040Y-109272577D01*
X362047736Y-109281357D01*
X362050627Y-109290888D01*
X362051602Y-109300799D01*
X362051602Y-109400798D01*
X362050627Y-109410710D01*
X362047736Y-109420240D01*
X362043040Y-109429020D01*
X362036723Y-109436719D01*
X361986723Y-109486719D01*
X361979024Y-109493036D01*
X361970243Y-109497732D01*
X361960713Y-109500623D01*
X361950802Y-109501598D01*
X361721844Y-109501598D01*
X361701603Y-109521840D01*
X361701603Y-109750798D01*
X361700628Y-109760709D01*
X361697737Y-109770239D01*
X361693041Y-109779020D01*
X361686724Y-109786718D01*
X361636724Y-109836718D01*
X361629025Y-109843035D01*
X361620244Y-109847732D01*
X361610714Y-109850622D01*
X361600803Y-109851598D01*
X360950802Y-109851598D01*
X360940891Y-109850622D01*
X360931361Y-109847732D01*
X360922580Y-109843035D01*
X360914881Y-109836718D01*
X360864881Y-109786718D01*
X360858564Y-109779020D01*
X360853868Y-109770239D01*
X360850977Y-109760709D01*
X360850002Y-109750798D01*
X360850002Y-109300799D01*
X360850977Y-109290888D01*
X360853868Y-109281357D01*
X360858564Y-109272577D01*
X360864881Y-109264878D01*
X360914881Y-109214878D01*
X360922580Y-109208561D01*
X360931361Y-109203865D01*
X360940891Y-109200974D01*
X360950802Y-109199999D01*
X361950802Y-109199999D01*
X361960713Y-109200974D01*
G37*
%TO.C,U7*%
G36*
X90050003Y-108450000D02*
G01*
X90050000Y-109050002D01*
X90000000Y-109100004D01*
X89149999Y-109100001D01*
X89100002Y-109050002D01*
X89100002Y-108950002D01*
X89150002Y-108900002D01*
X89850000Y-108900002D01*
X89850000Y-108450000D01*
X89900000Y-108400000D01*
X90000000Y-108400000D01*
X90050003Y-108450000D01*
G37*
G36*
X90000000Y-112150000D02*
G01*
X90000000Y-112750002D01*
X89950000Y-112800002D01*
X89850000Y-112800002D01*
X89800000Y-112750002D01*
X89800000Y-112300000D01*
X89150002Y-112300000D01*
X89100002Y-112250000D01*
X89100002Y-112150000D01*
X89149999Y-112100001D01*
X89950000Y-112100001D01*
X90000000Y-112150000D01*
G37*
G36*
X92750000Y-108450000D02*
G01*
X92750000Y-108900002D01*
X93449998Y-108900002D01*
X93499998Y-108950002D01*
X93499998Y-109050002D01*
X93450001Y-109100001D01*
X92600000Y-109100004D01*
X92550000Y-109050002D01*
X92549997Y-108450000D01*
X92600000Y-108400000D01*
X92700000Y-108400000D01*
X92750000Y-108450000D01*
G37*
G36*
X93450001Y-112100001D02*
G01*
X93499998Y-112150000D01*
X93499998Y-112250000D01*
X93449998Y-112300000D01*
X92800000Y-112300000D01*
X92800000Y-112750002D01*
X92750000Y-112799999D01*
X92650000Y-112800002D01*
X92599997Y-112750002D01*
X92600000Y-112150000D01*
X92650000Y-112099998D01*
X93450001Y-112100001D01*
G37*
%TD*%
D11*
%TO.C,TP14*%
X336675000Y-114475000D03*
%TD*%
%TO.C,TP6*%
X352740000Y-33530000D03*
%TD*%
D12*
%TO.C,C79*%
X79500000Y-111842500D03*
X79500000Y-109942500D03*
%TD*%
D13*
%TO.C,C32*%
X94500000Y-109500000D03*
X94500000Y-110460000D03*
%TD*%
D11*
%TO.C,TP15*%
X356790000Y-37580000D03*
%TD*%
%TO.C,TP3*%
X348690000Y-37580000D03*
%TD*%
D14*
%TO.C,Q1*%
X351025000Y-107605000D03*
D15*
X352295000Y-107605000D03*
X353565000Y-107605000D03*
%TD*%
D16*
%TO.C,R5*%
X321857500Y-29560000D03*
X326482500Y-29560000D03*
%TD*%
D17*
%TO.C,R3*%
X329055000Y-56810000D03*
X330705000Y-56810000D03*
%TD*%
D18*
%TO.C,C12*%
X92990000Y-107500000D03*
X92030000Y-107500000D03*
%TD*%
D19*
%TO.C,R57*%
X345922500Y-111725000D03*
X347747500Y-111725000D03*
%TD*%
D20*
%TO.C,U3*%
X358675800Y-105450801D03*
D21*
X358637802Y-106800801D03*
D22*
X358512801Y-107875800D03*
X358512801Y-108375799D03*
X358512801Y-108875801D03*
D20*
X358650801Y-109525799D03*
D23*
X359550802Y-109463801D03*
D24*
X360050801Y-109388799D03*
D23*
X360550800Y-109463801D03*
D20*
X361450801Y-109525799D03*
D22*
X361588801Y-108875801D03*
X361588801Y-108375799D03*
X361588801Y-107875800D03*
D21*
X361463800Y-106800801D03*
D20*
X361425802Y-105450801D03*
D25*
X360050801Y-106387800D03*
%TD*%
D26*
%TO.C,Q8*%
X70420000Y-115995000D03*
X71060000Y-115995000D03*
X71720000Y-115995000D03*
X72360000Y-115995000D03*
D27*
X71390000Y-114170000D03*
%TD*%
D26*
%TO.C,Q2*%
X70420000Y-102635000D03*
X71060000Y-102635000D03*
X71720000Y-102635000D03*
X72360000Y-102635000D03*
D27*
X71390000Y-100810000D03*
%TD*%
D28*
%TO.C,C5*%
X85500000Y-112050000D03*
X85500000Y-110500000D03*
%TD*%
D29*
%TO.C,C7*%
X329150000Y-28960000D03*
X331050000Y-28960000D03*
%TD*%
%TO.C,C16*%
X333600000Y-28960000D03*
X335500000Y-28960000D03*
%TD*%
D11*
%TO.C,TP9*%
X352740000Y-41630000D03*
%TD*%
D30*
%TO.C,C81*%
X83656666Y-111825000D03*
X83656666Y-110000000D03*
%TD*%
D16*
%TO.C,R12*%
X321857500Y-33770000D03*
X326482500Y-33770000D03*
%TD*%
D19*
%TO.C,R56*%
X345922500Y-108775000D03*
X347747500Y-108775000D03*
%TD*%
D31*
%TO.C,C22*%
X350950000Y-51970000D03*
X351970000Y-51970000D03*
%TD*%
D11*
%TO.C,TP1*%
X348690000Y-29480000D03*
%TD*%
D32*
%TO.C,U1*%
X149000000Y-151000000D03*
X149000000Y-149730000D03*
X149000000Y-148460000D03*
X149000000Y-147190000D03*
X149000000Y-145920000D03*
X149000000Y-144650000D03*
X149000000Y-143380000D03*
X149000000Y-142110000D03*
X149000000Y-140840000D03*
X149000000Y-139570000D03*
X149000000Y-138300000D03*
X149000000Y-137030000D03*
X149000000Y-135760000D03*
X149000000Y-134490000D03*
X131500000Y-134490000D03*
X131500000Y-135760000D03*
X131500000Y-137030000D03*
X131500000Y-138300000D03*
X131500000Y-139570000D03*
X131500000Y-140840000D03*
X131500000Y-142110000D03*
X131500000Y-143380000D03*
X131500000Y-144650000D03*
X131500000Y-145920000D03*
X131500000Y-147190000D03*
X131500000Y-148460000D03*
X131500000Y-149730000D03*
X131500000Y-151000000D03*
D33*
X141755000Y-145280000D03*
X143005000Y-146530000D03*
X143005000Y-145280000D03*
X143005000Y-144030000D03*
X141755000Y-144030000D03*
X140505000Y-144030000D03*
X140505000Y-145280000D03*
X140505000Y-146530000D03*
X141755000Y-146530000D03*
%TD*%
D11*
%TO.C,TP8*%
X364575000Y-106375000D03*
%TD*%
D31*
%TO.C,R10*%
X353860000Y-53960000D03*
X354880000Y-53960000D03*
%TD*%
%TO.C,R60*%
X356770000Y-49980000D03*
X357790000Y-49980000D03*
%TD*%
D34*
%TO.C,C13*%
X95500000Y-105100000D03*
X95500000Y-107000000D03*
%TD*%
D31*
%TO.C,R13*%
X356770000Y-46000000D03*
X357790000Y-46000000D03*
%TD*%
%TO.C,C87*%
X353860000Y-49980000D03*
X354880000Y-49980000D03*
%TD*%
D35*
%TO.C,D8*%
X369870000Y-106025000D03*
X373170000Y-106025000D03*
%TD*%
D19*
%TO.C,C84*%
X342477500Y-52380000D03*
X344302500Y-52380000D03*
%TD*%
D11*
%TO.C,TP12*%
X336675000Y-110425000D03*
%TD*%
D16*
%TO.C,R16*%
X321857500Y-37980000D03*
X326482500Y-37980000D03*
%TD*%
D11*
%TO.C,TP7*%
X352740000Y-37580000D03*
%TD*%
D36*
%TO.C,C26*%
X97410000Y-109500000D03*
X97410000Y-111050000D03*
%TD*%
D19*
%TO.C,R62*%
X346887500Y-52380000D03*
X348712500Y-52380000D03*
%TD*%
D37*
%TO.C,C34*%
X321420000Y-57370000D03*
X322380000Y-57370000D03*
%TD*%
D11*
%TO.C,TP2*%
X348690000Y-33530000D03*
%TD*%
D29*
%TO.C,C8*%
X329150000Y-31970000D03*
X331050000Y-31970000D03*
%TD*%
D16*
%TO.C,R59*%
X321857500Y-46400000D03*
X326482500Y-46400000D03*
%TD*%
D19*
%TO.C,R25*%
X345922500Y-105825000D03*
X347747500Y-105825000D03*
%TD*%
D11*
%TO.C,TP5*%
X352740000Y-29480000D03*
%TD*%
D38*
%TO.C,C82*%
X87147500Y-109480000D03*
X87147500Y-110500000D03*
%TD*%
D11*
%TO.C,TP11*%
X336675000Y-106375000D03*
%TD*%
D16*
%TO.C,R17*%
X321857500Y-42190000D03*
X326482500Y-42190000D03*
%TD*%
D11*
%TO.C,TP13*%
X356790000Y-33530000D03*
%TD*%
D39*
%TO.C,C19*%
X338632500Y-42080000D03*
X344857500Y-42080000D03*
%TD*%
D29*
%TO.C,C18*%
X333600000Y-34980000D03*
X335500000Y-34980000D03*
%TD*%
D40*
%TO.C,TH1*%
X340550000Y-61080000D03*
X345550000Y-61080000D03*
%TD*%
D39*
%TO.C,C4*%
X338632500Y-36230000D03*
X344857500Y-36230000D03*
%TD*%
D29*
%TO.C,C17*%
X333600000Y-31970000D03*
X335500000Y-31970000D03*
%TD*%
D31*
%TO.C,R30*%
X356770000Y-47990000D03*
X357790000Y-47990000D03*
%TD*%
D41*
%TO.C,L1*%
X88725000Y-100500000D03*
X94275000Y-100500000D03*
%TD*%
D42*
%TO.C,C33*%
X83100000Y-105117500D03*
X83100000Y-106942500D03*
%TD*%
D19*
%TO.C,C10*%
X338067500Y-46480000D03*
X339892500Y-46480000D03*
%TD*%
D43*
%TO.C,U7*%
X89931255Y-108968752D03*
D44*
X89400001Y-109400001D03*
X89400001Y-109800000D03*
X89400001Y-110200002D03*
X89400001Y-110600001D03*
X89400001Y-111000000D03*
X89400001Y-111400002D03*
X89400001Y-111800001D03*
D45*
X89887501Y-112362502D03*
D46*
X90299999Y-112500000D03*
X90700001Y-112500000D03*
X91100000Y-112500000D03*
X91500000Y-112500000D03*
X91899999Y-112500000D03*
X92300001Y-112500000D03*
D47*
X92731249Y-112231250D03*
D48*
X93149999Y-111800001D03*
D49*
X93175000Y-111399999D03*
D50*
X93159999Y-111000000D03*
D44*
X93199999Y-110600001D03*
X93199999Y-110200002D03*
X93199999Y-109800000D03*
X93199999Y-109400001D03*
D47*
X92681249Y-108968752D03*
D51*
X92200001Y-108900002D03*
X91749999Y-108900002D03*
X91300000Y-108900002D03*
X90850001Y-108900002D03*
D52*
X90399999Y-108875001D03*
%TD*%
D19*
%TO.C,R24*%
X346887500Y-49430000D03*
X348712500Y-49430000D03*
%TD*%
D17*
%TO.C,R4*%
X333065000Y-46770000D03*
X334715000Y-46770000D03*
%TD*%
D53*
%TO.C,D12*%
X67800000Y-104450000D03*
X67800000Y-103050000D03*
%TD*%
D31*
%TO.C,C11*%
X350950000Y-46000000D03*
X351970000Y-46000000D03*
%TD*%
D29*
%TO.C,C9*%
X329150000Y-34980000D03*
X331050000Y-34980000D03*
%TD*%
D31*
%TO.C,C21*%
X350950000Y-49980000D03*
X351970000Y-49980000D03*
%TD*%
D36*
%TO.C,C29*%
X99000000Y-109500000D03*
X99000000Y-111050000D03*
%TD*%
D29*
%TO.C,C78*%
X333600000Y-37990000D03*
X335500000Y-37990000D03*
%TD*%
D17*
%TO.C,R9*%
X333065000Y-51790000D03*
X334715000Y-51790000D03*
%TD*%
D11*
%TO.C,TP10*%
X356790000Y-29480000D03*
%TD*%
D54*
%TO.C,U10*%
X377565000Y-106475000D03*
X377565000Y-106975000D03*
X377565000Y-107475000D03*
X377565000Y-107975000D03*
X377565000Y-108475000D03*
X377565000Y-108975000D03*
X377565000Y-109475000D03*
D55*
X378515000Y-110425000D03*
X379015000Y-110425000D03*
X379515000Y-110425000D03*
X380015000Y-110425000D03*
X380515000Y-110425000D03*
X381015000Y-110425000D03*
X381515000Y-110425000D03*
D54*
X382465000Y-109475000D03*
X382465000Y-108975000D03*
X382465000Y-108475000D03*
X382465000Y-107975000D03*
X382465000Y-107475000D03*
X382465000Y-106975000D03*
X382465000Y-106475000D03*
D55*
X381515000Y-105525000D03*
X381015000Y-105525000D03*
X380515000Y-105525000D03*
X380015000Y-105525000D03*
X379515000Y-105525000D03*
X379015000Y-105525000D03*
X378515000Y-105525000D03*
D56*
X380015000Y-107975000D03*
%TD*%
D57*
%TO.C,D13*%
X324455000Y-49980000D03*
X326555000Y-49980000D03*
%TD*%
D36*
%TO.C,C23*%
X95820000Y-109500000D03*
X95820000Y-111050000D03*
%TD*%
D42*
%TO.C,C30*%
X87500000Y-105117500D03*
X87500000Y-106942500D03*
%TD*%
D37*
%TO.C,C83*%
X321420000Y-59340000D03*
X322380000Y-59340000D03*
%TD*%
D58*
%TO.C,Q7*%
X72265000Y-104700000D03*
X71625000Y-104700000D03*
X70965000Y-104700000D03*
X70325000Y-104700000D03*
D59*
X71295000Y-106525000D03*
%TD*%
D42*
%TO.C,C31*%
X85300000Y-105117500D03*
X85300000Y-106942500D03*
%TD*%
D37*
%TO.C,C27*%
X321420000Y-53430000D03*
X322380000Y-53430000D03*
%TD*%
D34*
%TO.C,C15*%
X100000000Y-105100000D03*
X100000000Y-107000000D03*
%TD*%
D39*
%TO.C,C3*%
X338632500Y-30380000D03*
X344857500Y-30380000D03*
%TD*%
D31*
%TO.C,C28*%
X89490000Y-107500000D03*
X90510000Y-107500000D03*
%TD*%
D30*
%TO.C,C80*%
X81593333Y-111825000D03*
X81593333Y-110000000D03*
%TD*%
D53*
%TO.C,D1*%
X67800000Y-117670000D03*
X67800000Y-116270000D03*
%TD*%
D34*
%TO.C,C14*%
X97750000Y-105100000D03*
X97750000Y-107000000D03*
%TD*%
D17*
%TO.C,R7*%
X333065000Y-49280000D03*
X334715000Y-49280000D03*
%TD*%
D37*
%TO.C,C6*%
X321420000Y-49490000D03*
X322380000Y-49490000D03*
%TD*%
D17*
%TO.C,R15*%
X333065000Y-54300000D03*
X334715000Y-54300000D03*
%TD*%
D60*
%TO.C,Q5*%
X369775000Y-109050000D03*
X369775000Y-109700000D03*
X369775000Y-110350000D03*
X371675000Y-110350000D03*
X371675000Y-109700000D03*
X371675000Y-109050000D03*
%TD*%
D58*
%TO.C,Q9*%
X72265000Y-118060000D03*
X71625000Y-118060000D03*
X70965000Y-118060000D03*
X70325000Y-118060000D03*
D59*
X71295000Y-119885000D03*
%TD*%
D31*
%TO.C,C20*%
X350950000Y-47990000D03*
X351970000Y-47990000D03*
%TD*%
D19*
%TO.C,R14*%
X346887500Y-46480000D03*
X348712500Y-46480000D03*
%TD*%
%TO.C,R63*%
X346887500Y-55330000D03*
X348712500Y-55330000D03*
%TD*%
D11*
%TO.C,TP4*%
X348690000Y-41630000D03*
%TD*%
D19*
%TO.C,R61*%
X345922500Y-114675000D03*
X347747500Y-114675000D03*
%TD*%
D61*
%TO.C,Q10*%
X309150000Y-47640000D03*
X309150000Y-48280000D03*
X309150000Y-48940000D03*
X309150000Y-49580000D03*
D62*
X310975000Y-48610000D03*
%TD*%
D31*
%TO.C,C85*%
X353860000Y-47990000D03*
X354880000Y-47990000D03*
%TD*%
%TO.C,R8*%
X353860000Y-51970000D03*
X354880000Y-51970000D03*
%TD*%
D17*
%TO.C,R64*%
X333065000Y-56810000D03*
X334715000Y-56810000D03*
%TD*%
D63*
%TO.C,U11*%
X339892500Y-105550000D03*
X339892500Y-106200000D03*
X339892500Y-106850000D03*
X341667500Y-106850000D03*
X341667500Y-106200000D03*
X341667500Y-105550000D03*
D64*
X340780000Y-106200000D03*
%TD*%
D19*
%TO.C,R11*%
X342477500Y-55330000D03*
X344302500Y-55330000D03*
%TD*%
M02*
