%TF.GenerationSoftware,KiCad,Pcbnew,8.0.6*%
%TF.CreationDate,2025-01-24T16:12:18-05:00*%
%TF.ProjectId,SCAN,5343414e-2e6b-4696-9361-645f70636258,v1.0*%
%TF.SameCoordinates,Original*%
%TF.FileFunction,Paste,Top*%
%TF.FilePolarity,Positive*%
%FSLAX46Y46*%
G04 Gerber Fmt 4.6, Leading zero omitted, Abs format (unit mm)*
G04 Created by KiCad (PCBNEW 8.0.6) date 2025-01-24 16:12:18*
%MOMM*%
%LPD*%
G01*
G04 APERTURE LIST*
G04 Aperture macros list*
%AMRoundRect*
0 Rectangle with rounded corners*
0 $1 Rounding radius*
0 $2 $3 $4 $5 $6 $7 $8 $9 X,Y pos of 4 corners*
0 Add a 4 corners polygon primitive as box body*
4,1,4,$2,$3,$4,$5,$6,$7,$8,$9,$2,$3,0*
0 Add four circle primitives for the rounded corners*
1,1,$1+$1,$2,$3*
1,1,$1+$1,$4,$5*
1,1,$1+$1,$6,$7*
1,1,$1+$1,$8,$9*
0 Add four rect primitives between the rounded corners*
20,1,$1+$1,$2,$3,$4,$5,0*
20,1,$1+$1,$4,$5,$6,$7,0*
20,1,$1+$1,$6,$7,$8,$9,0*
20,1,$1+$1,$8,$9,$2,$3,0*%
G04 Aperture macros list end*
%ADD10C,0.000000*%
%ADD11RoundRect,0.250000X0.475000X-0.250000X0.475000X0.250000X-0.475000X0.250000X-0.475000X-0.250000X0*%
%ADD12RoundRect,0.140000X-0.170000X0.140000X-0.170000X-0.140000X0.170000X-0.140000X0.170000X0.140000X0*%
%ADD13RoundRect,0.250000X-0.362500X-1.075000X0.362500X-1.075000X0.362500X1.075000X-0.362500X1.075000X0*%
%ADD14RoundRect,0.200000X-0.200000X-0.275000X0.200000X-0.275000X0.200000X0.275000X-0.200000X0.275000X0*%
%ADD15RoundRect,0.140000X0.140000X0.170000X-0.140000X0.170000X-0.140000X-0.170000X0.140000X-0.170000X0*%
%ADD16RoundRect,0.250000X-0.262500X-0.450000X0.262500X-0.450000X0.262500X0.450000X-0.262500X0.450000X0*%
%ADD17R,1.074999X0.399999*%
%ADD18R,0.825000X0.249999*%
%ADD19R,0.249999X0.675000*%
%ADD20R,0.249999X0.825000*%
%ADD21R,0.349999X2.975000*%
%ADD22R,0.738000X0.570000*%
%ADD23RoundRect,0.125000X0.125000X-0.190000X0.125000X0.190000X-0.125000X0.190000X-0.125000X-0.190000X0*%
%ADD24RoundRect,0.225000X0.250000X-0.225000X0.250000X0.225000X-0.250000X0.225000X-0.250000X-0.225000X0*%
%ADD25RoundRect,0.250000X-0.250000X-0.475000X0.250000X-0.475000X0.250000X0.475000X-0.250000X0.475000X0*%
%ADD26RoundRect,0.250000X0.450000X-0.262500X0.450000X0.262500X-0.450000X0.262500X-0.450000X-0.262500X0*%
%ADD27RoundRect,0.135000X-0.135000X-0.185000X0.135000X-0.185000X0.135000X0.185000X-0.135000X0.185000X0*%
%ADD28R,1.498600X0.889000*%
%ADD29R,0.812800X0.812800*%
%ADD30RoundRect,0.250000X-0.475000X0.250000X-0.475000X-0.250000X0.475000X-0.250000X0.475000X0.250000X0*%
%ADD31RoundRect,0.225000X-0.225000X-0.375000X0.225000X-0.375000X0.225000X0.375000X-0.225000X0.375000X0*%
%ADD32RoundRect,0.225000X-0.250000X0.225000X-0.250000X-0.225000X0.250000X-0.225000X0.250000X0.225000X0*%
%ADD33RoundRect,0.140000X-0.140000X-0.170000X0.140000X-0.170000X0.140000X0.170000X-0.140000X0.170000X0*%
%ADD34RoundRect,0.135000X-0.185000X0.135000X-0.185000X-0.135000X0.185000X-0.135000X0.185000X0.135000X0*%
%ADD35RoundRect,0.250000X-0.787500X-1.025000X0.787500X-1.025000X0.787500X1.025000X-0.787500X1.025000X0*%
%ADD36R,1.850000X3.400000*%
%ADD37RoundRect,0.250000X-0.450000X0.262500X-0.450000X-0.262500X0.450000X-0.262500X0.450000X0.262500X0*%
%ADD38C,0.191587*%
%ADD39R,0.599999X0.200000*%
%ADD40C,0.157503*%
%ADD41R,0.200000X0.599999*%
%ADD42C,0.175011*%
%ADD43R,0.700001X0.200000*%
%ADD44R,0.650001X0.200000*%
%ADD45R,0.680001X0.200000*%
%ADD46R,0.200000X1.000000*%
%ADD47R,0.200000X0.950001*%
%ADD48RoundRect,0.150000X-0.200000X0.150000X-0.200000X-0.150000X0.200000X-0.150000X0.200000X0.150000X0*%
%ADD49RoundRect,0.225000X-0.225000X-0.225000X0.225000X-0.225000X0.225000X0.225000X-0.225000X0.225000X0*%
%ADD50RoundRect,0.062500X-0.337500X-0.062500X0.337500X-0.062500X0.337500X0.062500X-0.337500X0.062500X0*%
%ADD51RoundRect,0.062500X-0.062500X-0.337500X0.062500X-0.337500X0.062500X0.337500X-0.062500X0.337500X0*%
%ADD52RoundRect,0.112500X-0.187500X-0.112500X0.187500X-0.112500X0.187500X0.112500X-0.187500X0.112500X0*%
%ADD53RoundRect,0.125000X-0.125000X0.190000X-0.125000X-0.190000X0.125000X-0.190000X0.125000X0.190000X0*%
%ADD54RoundRect,0.100000X-0.225000X-0.100000X0.225000X-0.100000X0.225000X0.100000X-0.225000X0.100000X0*%
%ADD55R,0.570000X0.738000*%
%ADD56RoundRect,0.125000X-0.190000X-0.125000X0.190000X-0.125000X0.190000X0.125000X-0.190000X0.125000X0*%
%ADD57RoundRect,0.160000X-0.245000X-0.160000X0.245000X-0.160000X0.245000X0.160000X-0.245000X0.160000X0*%
%ADD58RoundRect,0.093750X-0.093750X-0.106250X0.093750X-0.106250X0.093750X0.106250X-0.093750X0.106250X0*%
G04 APERTURE END LIST*
D10*
%TO.C,U3*%
G36*
X359200803Y-109300799D02*
G01*
X359200803Y-109700798D01*
X359150803Y-109750798D01*
X358530801Y-109750798D01*
X358480802Y-109700798D01*
X358480802Y-109500798D01*
X358430802Y-109450798D01*
X358150802Y-109450798D01*
X358100802Y-109400798D01*
X358100802Y-109300799D01*
X358150802Y-109250799D01*
X359150803Y-109250799D01*
X359200803Y-109300799D01*
G37*
G36*
X359250803Y-105010800D02*
G01*
X359250803Y-105950798D01*
X359200803Y-106000798D01*
X358260802Y-106000798D01*
X358210802Y-105950798D01*
X358210802Y-105360799D01*
X358260802Y-105310799D01*
X358460802Y-105310799D01*
X358510802Y-105260799D01*
X358510802Y-105010800D01*
X358560801Y-104960800D01*
X359200803Y-104960800D01*
X359250803Y-105010800D01*
G37*
G36*
X361590800Y-105010800D02*
G01*
X361590800Y-105260799D01*
X361640800Y-105310799D01*
X361840800Y-105310799D01*
X361890800Y-105360799D01*
X361890800Y-105950798D01*
X361840800Y-106000798D01*
X360900799Y-106000798D01*
X360850799Y-105950798D01*
X360850799Y-105010800D01*
X360900799Y-104960800D01*
X361540801Y-104960800D01*
X361590800Y-105010800D01*
G37*
G36*
X362000800Y-109300799D02*
G01*
X362000800Y-109400798D01*
X361950800Y-109450798D01*
X361670800Y-109450798D01*
X361620800Y-109500798D01*
X361620800Y-109700798D01*
X361570801Y-109750798D01*
X360950799Y-109750798D01*
X360900799Y-109700798D01*
X360900799Y-109300799D01*
X360950799Y-109250799D01*
X361950800Y-109250799D01*
X362000800Y-109300799D01*
G37*
%TO.C,U7*%
G36*
X90050003Y-108450000D02*
G01*
X90050000Y-109050002D01*
X90000000Y-109100004D01*
X89149999Y-109100001D01*
X89100002Y-109050002D01*
X89100002Y-108950002D01*
X89150002Y-108900002D01*
X89850000Y-108900002D01*
X89850000Y-108450000D01*
X89900000Y-108400000D01*
X90000000Y-108400000D01*
X90050003Y-108450000D01*
G37*
G36*
X90000000Y-112150000D02*
G01*
X90000000Y-112750002D01*
X89950000Y-112800002D01*
X89850000Y-112800002D01*
X89800000Y-112750002D01*
X89800000Y-112300000D01*
X89150002Y-112300000D01*
X89100002Y-112250000D01*
X89100002Y-112150000D01*
X89149999Y-112100001D01*
X89950000Y-112100001D01*
X90000000Y-112150000D01*
G37*
G36*
X92750000Y-108450000D02*
G01*
X92750000Y-108900002D01*
X93449998Y-108900002D01*
X93499998Y-108950002D01*
X93499998Y-109050002D01*
X93450001Y-109100001D01*
X92600000Y-109100004D01*
X92550000Y-109050002D01*
X92549997Y-108450000D01*
X92600000Y-108400000D01*
X92700000Y-108400000D01*
X92750000Y-108450000D01*
G37*
G36*
X93450001Y-112100001D02*
G01*
X93499998Y-112150000D01*
X93499998Y-112250000D01*
X93449998Y-112300000D01*
X92800000Y-112300000D01*
X92800000Y-112750002D01*
X92750000Y-112799999D01*
X92650000Y-112800002D01*
X92599997Y-112750002D01*
X92600000Y-112150000D01*
X92650000Y-112099998D01*
X93450001Y-112100001D01*
G37*
%TD*%
D11*
%TO.C,C79*%
X79500000Y-111842500D03*
X79500000Y-109942500D03*
%TD*%
D12*
%TO.C,C32*%
X94500000Y-109500000D03*
X94500000Y-110460000D03*
%TD*%
D13*
%TO.C,R5*%
X321857500Y-29560000D03*
X326482500Y-29560000D03*
%TD*%
D14*
%TO.C,R3*%
X329055000Y-56810000D03*
X330705000Y-56810000D03*
%TD*%
D15*
%TO.C,C12*%
X92990000Y-107500000D03*
X92030000Y-107500000D03*
%TD*%
D16*
%TO.C,R57*%
X345922500Y-111725000D03*
X347747500Y-111725000D03*
%TD*%
D17*
%TO.C,U3*%
X358637802Y-106800801D03*
D18*
X358512801Y-107875800D03*
X358512801Y-108375799D03*
X358512801Y-108875801D03*
D19*
X359550802Y-109463801D03*
D20*
X360050801Y-109388799D03*
D19*
X360550800Y-109463801D03*
D18*
X361588801Y-108875801D03*
X361588801Y-108375799D03*
X361588801Y-107875800D03*
D17*
X361463800Y-106800801D03*
D21*
X360050801Y-106387800D03*
%TD*%
D22*
%TO.C,Q8*%
X70780000Y-114645000D03*
X72000000Y-114645000D03*
X70780000Y-113695000D03*
X72000000Y-113695000D03*
D23*
X70417500Y-113115000D03*
X71060000Y-113115000D03*
X71720000Y-113115000D03*
X72362500Y-113115000D03*
X70420000Y-115995000D03*
X71060000Y-115995000D03*
X71720000Y-115995000D03*
X72360000Y-115995000D03*
%TD*%
D22*
%TO.C,Q2*%
X70780000Y-101285000D03*
X72000000Y-101285000D03*
X70780000Y-100335000D03*
X72000000Y-100335000D03*
D23*
X70417500Y-99755000D03*
X71060000Y-99755000D03*
X71720000Y-99755000D03*
X72362500Y-99755000D03*
X70420000Y-102635000D03*
X71060000Y-102635000D03*
X71720000Y-102635000D03*
X72360000Y-102635000D03*
%TD*%
D24*
%TO.C,C5*%
X85500000Y-112050000D03*
X85500000Y-110500000D03*
%TD*%
D25*
%TO.C,C7*%
X329150000Y-28960000D03*
X331050000Y-28960000D03*
%TD*%
%TO.C,C16*%
X333600000Y-28960000D03*
X335500000Y-28960000D03*
%TD*%
D26*
%TO.C,C81*%
X83656666Y-111825000D03*
X83656666Y-110000000D03*
%TD*%
D13*
%TO.C,R12*%
X321857500Y-33770000D03*
X326482500Y-33770000D03*
%TD*%
D16*
%TO.C,R56*%
X345922500Y-108775000D03*
X347747500Y-108775000D03*
%TD*%
D27*
%TO.C,C22*%
X350950000Y-51970000D03*
X351970000Y-51970000D03*
%TD*%
D28*
%TO.C,U1*%
X149000000Y-151000000D03*
X149000000Y-149730000D03*
X149000000Y-148460000D03*
X149000000Y-147190000D03*
X149000000Y-145920000D03*
X149000000Y-144650000D03*
X149000000Y-143380000D03*
X149000000Y-142110000D03*
X149000000Y-140840000D03*
X149000000Y-139570000D03*
X149000000Y-138300000D03*
X149000000Y-137030000D03*
X149000000Y-135760000D03*
X149000000Y-134490000D03*
X131500000Y-134490000D03*
X131500000Y-135760000D03*
X131500000Y-137030000D03*
X131500000Y-138300000D03*
X131500000Y-139570000D03*
X131500000Y-140840000D03*
X131500000Y-142110000D03*
X131500000Y-143380000D03*
X131500000Y-144650000D03*
X131500000Y-145920000D03*
X131500000Y-147190000D03*
X131500000Y-148460000D03*
X131500000Y-149730000D03*
X131500000Y-151000000D03*
D29*
X141755000Y-145280000D03*
X143005000Y-146530000D03*
X143005000Y-145280000D03*
X143005000Y-144030000D03*
X141755000Y-144030000D03*
X140505000Y-144030000D03*
X140505000Y-145280000D03*
X140505000Y-146530000D03*
X141755000Y-146530000D03*
%TD*%
D27*
%TO.C,R10*%
X353860000Y-53960000D03*
X354880000Y-53960000D03*
%TD*%
%TO.C,R60*%
X356770000Y-49980000D03*
X357790000Y-49980000D03*
%TD*%
D30*
%TO.C,C13*%
X95500000Y-105100000D03*
X95500000Y-107000000D03*
%TD*%
D27*
%TO.C,R13*%
X356770000Y-46000000D03*
X357790000Y-46000000D03*
%TD*%
%TO.C,C87*%
X353860000Y-49980000D03*
X354880000Y-49980000D03*
%TD*%
D31*
%TO.C,D8*%
X369870000Y-106025000D03*
X373170000Y-106025000D03*
%TD*%
D16*
%TO.C,C84*%
X342477500Y-52380000D03*
X344302500Y-52380000D03*
%TD*%
D13*
%TO.C,R16*%
X321857500Y-37980000D03*
X326482500Y-37980000D03*
%TD*%
D32*
%TO.C,C26*%
X97410000Y-109500000D03*
X97410000Y-111050000D03*
%TD*%
D16*
%TO.C,R62*%
X346887500Y-52380000D03*
X348712500Y-52380000D03*
%TD*%
D33*
%TO.C,C34*%
X321420000Y-57370000D03*
X322380000Y-57370000D03*
%TD*%
D25*
%TO.C,C8*%
X329150000Y-31970000D03*
X331050000Y-31970000D03*
%TD*%
D13*
%TO.C,R59*%
X321857500Y-46400000D03*
X326482500Y-46400000D03*
%TD*%
D16*
%TO.C,R25*%
X345922500Y-105825000D03*
X347747500Y-105825000D03*
%TD*%
D34*
%TO.C,C82*%
X87147500Y-109480000D03*
X87147500Y-110500000D03*
%TD*%
D13*
%TO.C,R17*%
X321857500Y-42190000D03*
X326482500Y-42190000D03*
%TD*%
D35*
%TO.C,C19*%
X338632500Y-42080000D03*
X344857500Y-42080000D03*
%TD*%
D25*
%TO.C,C18*%
X333600000Y-34980000D03*
X335500000Y-34980000D03*
%TD*%
D35*
%TO.C,C4*%
X338632500Y-36230000D03*
X344857500Y-36230000D03*
%TD*%
D25*
%TO.C,C17*%
X333600000Y-31970000D03*
X335500000Y-31970000D03*
%TD*%
D27*
%TO.C,R30*%
X356770000Y-47990000D03*
X357790000Y-47990000D03*
%TD*%
D36*
%TO.C,L1*%
X88725000Y-100500000D03*
X94275000Y-100500000D03*
%TD*%
D37*
%TO.C,C33*%
X83100000Y-105117500D03*
X83100000Y-106942500D03*
%TD*%
D16*
%TO.C,C10*%
X338067500Y-46480000D03*
X339892500Y-46480000D03*
%TD*%
D38*
%TO.C,U7*%
X89931255Y-108968752D03*
D39*
X89400001Y-109400001D03*
X89400001Y-109800000D03*
X89400001Y-110200002D03*
X89400001Y-110600001D03*
X89400001Y-111000000D03*
X89400001Y-111400002D03*
X89400001Y-111800001D03*
D40*
X89887501Y-112362502D03*
D41*
X90299999Y-112500000D03*
X90700001Y-112500000D03*
X91100000Y-112500000D03*
X91500000Y-112500000D03*
X91899999Y-112500000D03*
X92300001Y-112500000D03*
D42*
X92731249Y-112231250D03*
D43*
X93149999Y-111800001D03*
D44*
X93175000Y-111399999D03*
D45*
X93159999Y-111000000D03*
D39*
X93199999Y-110600001D03*
X93199999Y-110200002D03*
X93199999Y-109800000D03*
X93199999Y-109400001D03*
D42*
X92681249Y-108968752D03*
D46*
X92200001Y-108900002D03*
X91749999Y-108900002D03*
X91300000Y-108900002D03*
X90850001Y-108900002D03*
D47*
X90399999Y-108875001D03*
%TD*%
D16*
%TO.C,R24*%
X346887500Y-49430000D03*
X348712500Y-49430000D03*
%TD*%
D14*
%TO.C,R4*%
X333065000Y-46770000D03*
X334715000Y-46770000D03*
%TD*%
D48*
%TO.C,D12*%
X67800000Y-104450000D03*
X67800000Y-103050000D03*
%TD*%
D27*
%TO.C,C11*%
X350950000Y-46000000D03*
X351970000Y-46000000D03*
%TD*%
D25*
%TO.C,C9*%
X329150000Y-34980000D03*
X331050000Y-34980000D03*
%TD*%
D27*
%TO.C,C21*%
X350950000Y-49980000D03*
X351970000Y-49980000D03*
%TD*%
D32*
%TO.C,C29*%
X99000000Y-109500000D03*
X99000000Y-111050000D03*
%TD*%
D25*
%TO.C,C78*%
X333600000Y-37990000D03*
X335500000Y-37990000D03*
%TD*%
D14*
%TO.C,R9*%
X333065000Y-51790000D03*
X334715000Y-51790000D03*
%TD*%
D49*
%TO.C,U10*%
X378895000Y-106855000D03*
X378895000Y-107975000D03*
X378895000Y-109095000D03*
X380015000Y-106855000D03*
X380015000Y-107975000D03*
X380015000Y-109095000D03*
X381135000Y-106855000D03*
X381135000Y-107975000D03*
X381135000Y-109095000D03*
D50*
X377565000Y-106475000D03*
X377565000Y-106975000D03*
X377565000Y-107475000D03*
X377565000Y-107975000D03*
X377565000Y-108475000D03*
X377565000Y-108975000D03*
X377565000Y-109475000D03*
D51*
X378515000Y-110425000D03*
X379015000Y-110425000D03*
X379515000Y-110425000D03*
X380015000Y-110425000D03*
X380515000Y-110425000D03*
X381015000Y-110425000D03*
X381515000Y-110425000D03*
D50*
X382465000Y-109475000D03*
X382465000Y-108975000D03*
X382465000Y-108475000D03*
X382465000Y-107975000D03*
X382465000Y-107475000D03*
X382465000Y-106975000D03*
X382465000Y-106475000D03*
D51*
X381515000Y-105525000D03*
X381015000Y-105525000D03*
X380515000Y-105525000D03*
X380015000Y-105525000D03*
X379515000Y-105525000D03*
X379015000Y-105525000D03*
X378515000Y-105525000D03*
%TD*%
D52*
%TO.C,D13*%
X324455000Y-49980000D03*
X326555000Y-49980000D03*
%TD*%
D32*
%TO.C,C23*%
X95820000Y-109500000D03*
X95820000Y-111050000D03*
%TD*%
D37*
%TO.C,C30*%
X87500000Y-105117500D03*
X87500000Y-106942500D03*
%TD*%
D33*
%TO.C,C83*%
X321420000Y-59340000D03*
X322380000Y-59340000D03*
%TD*%
D22*
%TO.C,Q7*%
X71905000Y-106050000D03*
X70685000Y-106050000D03*
X71905000Y-107000000D03*
X70685000Y-107000000D03*
D53*
X72267500Y-107580000D03*
X71625000Y-107580000D03*
X70965000Y-107580000D03*
X70322500Y-107580000D03*
X72265000Y-104700000D03*
X71625000Y-104700000D03*
X70965000Y-104700000D03*
X70325000Y-104700000D03*
%TD*%
D37*
%TO.C,C31*%
X85300000Y-105117500D03*
X85300000Y-106942500D03*
%TD*%
D33*
%TO.C,C27*%
X321420000Y-53430000D03*
X322380000Y-53430000D03*
%TD*%
D30*
%TO.C,C15*%
X100000000Y-105100000D03*
X100000000Y-107000000D03*
%TD*%
D35*
%TO.C,C3*%
X338632500Y-30380000D03*
X344857500Y-30380000D03*
%TD*%
D27*
%TO.C,C28*%
X89490000Y-107500000D03*
X90510000Y-107500000D03*
%TD*%
D26*
%TO.C,C80*%
X81593333Y-111825000D03*
X81593333Y-110000000D03*
%TD*%
D48*
%TO.C,D1*%
X67800000Y-117670000D03*
X67800000Y-116270000D03*
%TD*%
D30*
%TO.C,C14*%
X97750000Y-105100000D03*
X97750000Y-107000000D03*
%TD*%
D14*
%TO.C,R7*%
X333065000Y-49280000D03*
X334715000Y-49280000D03*
%TD*%
D33*
%TO.C,C6*%
X321420000Y-49490000D03*
X322380000Y-49490000D03*
%TD*%
D14*
%TO.C,R15*%
X333065000Y-54300000D03*
X334715000Y-54300000D03*
%TD*%
D54*
%TO.C,Q5*%
X369775000Y-109050000D03*
X369775000Y-109700000D03*
X369775000Y-110350000D03*
X371675000Y-110350000D03*
X371675000Y-109700000D03*
X371675000Y-109050000D03*
%TD*%
D22*
%TO.C,Q9*%
X71905000Y-119410000D03*
X70685000Y-119410000D03*
X71905000Y-120360000D03*
X70685000Y-120360000D03*
D53*
X72267500Y-120940000D03*
X71625000Y-120940000D03*
X70965000Y-120940000D03*
X70322500Y-120940000D03*
X72265000Y-118060000D03*
X71625000Y-118060000D03*
X70965000Y-118060000D03*
X70325000Y-118060000D03*
%TD*%
D27*
%TO.C,C20*%
X350950000Y-47990000D03*
X351970000Y-47990000D03*
%TD*%
D16*
%TO.C,R14*%
X346887500Y-46480000D03*
X348712500Y-46480000D03*
%TD*%
%TO.C,R63*%
X346887500Y-55330000D03*
X348712500Y-55330000D03*
%TD*%
%TO.C,R61*%
X345922500Y-114675000D03*
X347747500Y-114675000D03*
%TD*%
D55*
%TO.C,Q10*%
X310500000Y-48000000D03*
X310500000Y-49220000D03*
X311450000Y-48000000D03*
X311450000Y-49220000D03*
D56*
X312030000Y-47637500D03*
X312030000Y-48280000D03*
X312030000Y-48940000D03*
X312030000Y-49582500D03*
X309150000Y-47640000D03*
X309150000Y-48280000D03*
X309150000Y-48940000D03*
X309150000Y-49580000D03*
%TD*%
D27*
%TO.C,C85*%
X353860000Y-47990000D03*
X354880000Y-47990000D03*
%TD*%
%TO.C,R8*%
X353860000Y-51970000D03*
X354880000Y-51970000D03*
%TD*%
D14*
%TO.C,R64*%
X333065000Y-56810000D03*
X334715000Y-56810000D03*
%TD*%
D57*
%TO.C,U11*%
X340780000Y-105800000D03*
X340780000Y-106600000D03*
D58*
X339892500Y-105550000D03*
X339892500Y-106200000D03*
X339892500Y-106850000D03*
X341667500Y-106850000D03*
X341667500Y-106200000D03*
X341667500Y-105550000D03*
%TD*%
D16*
%TO.C,R11*%
X342477500Y-55330000D03*
X344302500Y-55330000D03*
%TD*%
M02*
